<svg id="Layer_1" data-name="Layer 1" xmlns="http://www.w3.org/2000/svg" viewBox="0 0 300 120"><defs><style>.cls-1,.cls-10,.cls-11,.cls-12,.cls-2,.cls-3,.cls-4,.cls-5,.cls-6,.cls-7,.cls-8,.cls-9{fill:#3a3a8c;}.cls-2{opacity:0.25;}.cls-3{opacity:0.3;}.cls-4{opacity:0.15;}.cls-5{opacity:0.2;}.cls-6{opacity:0.8;}.cls-7{opacity:0.7;}.cls-8{opacity:0.6;}.cls-9{opacity:0.35;}.cls-10{opacity:0.4;}.cls-11{opacity:0.9;}.cls-12{opacity:0.5;}</style></defs><path class="cls-1" d="M67.75,57.064c-.282-.564-.212-1.057.424-1.056h1.551a.936.936,0,0,1,.916.635l10.2,23.281h.07L91.232,56.667a.934.934,0,0,1,.917-.633l1.551,0c.635,0,.7.494.422,1.057L81.822,84.3a.956.956,0,0,1-.847.635h-.282c-.424,0-.634-.143-.845-.637Z"/><path class="cls-1" d="M112.526,55.351c7.405.008,12.757,5.443,12.748,12.919,0,1.127,0,2.75-1.06,2.749l-22.5-.025c.276,6.064,4.643,11.145,10.989,11.152a15.065,15.065,0,0,0,8.323-2.6c.635-.423.918-.494,1.27,0l.7.988c.212.281.141.7-.282,1.127-1.412,1.408-5.857,3.309-10.229,3.3-8.6-.01-13.885-6.644-13.876-14.894C98.626,62.035,103.923,55.341,112.526,55.351Zm9.647,13.126c.006-5.5-3.3-10.3-9.651-10.306-6.205-.007-10.37,4.5-10.73,10.284Z"/><path class="cls-1" d="M133.629,35.842a.933.933,0,0,1,.917-.916h1.27a.935.935,0,0,1,.916.918l-.053,47.527a.82.82,0,0,1-.917.916l-1.411,0a.821.821,0,0,1-.775-.917Z"/><path class="cls-1" d="M147.449,35.857a.933.933,0,0,1,.918-.916l1.269,0a.933.933,0,0,1,.916.917L150.5,83.387a.819.819,0,0,1-.917.916l-1.41,0a.821.821,0,0,1-.776-.917Z"/><path class="cls-1" d="M173.306,55.418c7.9.009,14.166,6.715,14.157,14.754-.009,8.25-6.293,14.872-14.19,14.863-7.968-.009-14.167-6.645-14.158-14.895C159.124,62.1,165.337,55.409,173.306,55.418Zm-.029,26.725c6.2.007,11.076-5.277,11.083-11.975.007-6.488-4.853-11.782-11.057-11.789-6.276-.007-11.148,5.276-11.155,11.765C162.141,76.842,167,82.136,173.277,82.143Z"/><path class="cls-1" d="M208.77,55.457A13.626,13.626,0,0,1,219.2,59.911a.844.844,0,0,1-.142,1.27l-.706.7c-.494.493-1.058.282-1.48-.142a11.756,11.756,0,1,0-8.2,20.37,11.388,11.388,0,0,0,8.819-4.151c.494-.563.917-.562,1.34-.14l.775.706c.352.354.493.707.211,1.13a14.056,14.056,0,0,1-11.078,5.417,14.809,14.809,0,1,1,.033-29.617Z"/><path class="cls-1" d="M227.612,40.035a2.4,2.4,0,1,1,4.8.005,2.4,2.4,0,0,1-4.8-.005ZM228.44,57.1a.933.933,0,0,1,.918-.916l1.269,0a.933.933,0,0,1,.916.918l-.029,26.372a.82.82,0,0,1-.918.915h-1.41a.821.821,0,0,1-.775-.918Z"/><path class="cls-2" d="M186.925,40.45a.571.571,0,1,0-.568-.574A.571.571,0,0,0,186.925,40.45Z"/><path class="cls-3" d="M190.144,40.659a.762.762,0,1,0-.757-.766A.762.762,0,0,0,190.144,40.659Z"/><path class="cls-4" d="M181.63,40.04a.191.191,0,1,0,0-.381.191.191,0,0,0,0,.381Z"/><path class="cls-5" d="M184.087,40.244a.381.381,0,1,0-.379-.383A.381.381,0,0,0,184.087,40.244Z"/><path class="cls-6" d="M217.456,41.955a1.9,1.9,0,1,0-1.893-1.915A1.905,1.905,0,0,0,217.456,41.955Z"/><path class="cls-7" d="M211.952,41.733a1.714,1.714,0,1,0-1.7-1.723A1.714,1.714,0,0,0,211.952,41.733Z"/><path class="cls-8" d="M206.829,41.514a1.524,1.524,0,1,0-1.515-1.532A1.523,1.523,0,0,0,206.829,41.514Z"/><path class="cls-9" d="M193.744,40.869a.952.952,0,1,0-.947-.957A.951.951,0,0,0,193.744,40.869Z"/><path class="cls-10" d="M197.725,41.082a1.143,1.143,0,1,0-1.137-1.149A1.142,1.142,0,0,0,197.725,41.082Z"/><path class="cls-11" d="M223.365,37.989a2.095,2.095,0,1,0,2.083,2.106A2.094,2.094,0,0,0,223.365,37.989Z"/><path class="cls-12" d="M202.1,38.631a1.333,1.333,0,1,0,1.326,1.341A1.333,1.333,0,0,0,202.1,38.631Z"/></svg>