<svg id="Layer_1" data-name="Layer 1" xmlns="http://www.w3.org/2000/svg" xmlns:xlink="http://www.w3.org/1999/xlink" viewBox="0 0 578 468"><defs><style>.cls-1{fill:#fff;}.cls-2{fill:#d0d2d3;}.cls-3{fill:#a6a8ab;}.cls-4{fill:url(#linear-gradient);}.cls-5{fill:#dbdcdd;}.cls-6{fill:url(#linear-gradient-2);}.cls-7{fill:url(#linear-gradient-3);}.cls-8{fill:url(#linear-gradient-4);}.cls-9{fill:url(#linear-gradient-5);}.cls-10{fill:url(#linear-gradient-6);}.cls-11{fill:url(#linear-gradient-7);}.cls-12{fill:url(#linear-gradient-8);}.cls-13{fill:#d8d8d8;}.cls-14{fill:#bfc0c1;}.cls-15{fill:#939393;}.cls-16{fill:url(#linear-gradient-9);}.cls-17{fill:#e0e0e0;}.cls-18{fill:url(#linear-gradient-10);}.cls-19{fill:url(#linear-gradient-11);}.cls-20{fill:url(#linear-gradient-12);}.cls-21{fill:url(#linear-gradient-13);}.cls-22{fill:url(#linear-gradient-14);}.cls-23{fill:url(#linear-gradient-15);}.cls-24{fill:url(#linear-gradient-16);}.cls-25{fill:#a0a0a0;}.cls-26{fill:#7a7a7a;}.cls-27{fill:url(#linear-gradient-17);}.cls-28{fill:#999;}.cls-29{fill:url(#linear-gradient-18);}.cls-30{fill:url(#linear-gradient-19);}.cls-31{fill:url(#linear-gradient-20);}.cls-32{fill:url(#linear-gradient-21);}.cls-33{fill:url(#linear-gradient-22);}.cls-34{fill:url(#linear-gradient-23);}.cls-35{fill:url(#linear-gradient-24);}.cls-36{fill:#828282;}.cls-37{fill:#686868;}.cls-38{fill:#5e5e5e;}.cls-39{fill:url(#linear-gradient-25);}.cls-40{fill:#777;}.cls-41{fill:url(#linear-gradient-26);}.cls-42{fill:url(#linear-gradient-27);}.cls-43{fill:url(#linear-gradient-28);}.cls-44{fill:url(#linear-gradient-29);}.cls-45{fill:url(#linear-gradient-30);}.cls-46{fill:url(#linear-gradient-31);}.cls-47{fill:url(#linear-gradient-32);}.cls-48{fill:#6d6e70;}.cls-49{fill:#4d4d4f;}.cls-50{fill:#231f20;}.cls-51{fill:url(#linear-gradient-33);}.cls-52{fill:#5c5d60;}.cls-53{fill:url(#linear-gradient-34);}.cls-54{fill:url(#linear-gradient-35);}.cls-55{fill:url(#linear-gradient-36);}.cls-56{fill:url(#linear-gradient-37);}.cls-57{fill:url(#linear-gradient-38);}.cls-58{fill:url(#linear-gradient-39);}.cls-59{fill:url(#linear-gradient-40);}.cls-60{fill:#786dc6;}.cls-61{fill:#6558ac;}.cls-62{fill:#59529e;}.cls-63{fill:url(#linear-gradient-41);}.cls-64{fill:url(#linear-gradient-42);}.cls-65{fill:url(#linear-gradient-43);}.cls-66{fill:url(#linear-gradient-44);}.cls-67{fill:url(#linear-gradient-45);}.cls-68{fill:url(#linear-gradient-46);}.cls-69{fill:url(#linear-gradient-47);}.cls-70{fill:url(#linear-gradient-48);}.cls-71{font-size:24px;fill:#3a3a8c;font-family:OpenSans-SemiBold, Open Sans;font-weight:600;}</style><linearGradient id="linear-gradient" x1="-6940.197" y1="214.91" x2="-6915.998" y2="214.91" gradientTransform="matrix(-0.983, 0.183, 0.183, 0.983, -6385.125, 1138.78)" gradientUnits="userSpaceOnUse"><stop offset="0" stop-color="#a6a8ab"/><stop offset="0.25" stop-color="#d0d2d3"/><stop offset="0.368" stop-color="#d0d2d3"/><stop offset="1" stop-color="#a6a8ab"/></linearGradient><linearGradient id="linear-gradient-2" x1="-6915.992" y1="228.11" x2="-6891.799" y2="228.11" xlink:href="#linear-gradient"/><linearGradient id="linear-gradient-3" x1="-6891.793" y1="241.31" x2="-6867.6" y2="241.31" xlink:href="#linear-gradient"/><linearGradient id="linear-gradient-4" x1="-6867.594" y1="254.51" x2="-6843.401" y2="254.51" xlink:href="#linear-gradient"/><linearGradient id="linear-gradient-5" x1="-6915.998" y1="201.708" x2="-6891.799" y2="201.708" xlink:href="#linear-gradient"/><linearGradient id="linear-gradient-6" x1="-6891.793" y1="214.91" x2="-6867.6" y2="214.91" xlink:href="#linear-gradient"/><linearGradient id="linear-gradient-7" x1="-6867.594" y1="228.11" x2="-6843.401" y2="228.11" xlink:href="#linear-gradient"/><linearGradient id="linear-gradient-8" x1="-6843.395" y1="241.31" x2="-6819.199" y2="241.31" xlink:href="#linear-gradient"/><linearGradient id="linear-gradient-9" x1="-7047.051" y1="241.293" x2="-7022.852" y2="241.293" gradientTransform="matrix(-0.815, -0.58, -0.58, 0.815, -5079.127, -3999.751)" gradientUnits="userSpaceOnUse"><stop offset="0" stop-color="#bfc0c1"/><stop offset="0.25" stop-color="#bfc0c1"/><stop offset="0.368" stop-color="#bfc0c1"/><stop offset="1" stop-color="#bfc0c1"/></linearGradient><linearGradient id="linear-gradient-10" x1="-7022.846" y1="254.495" x2="-6998.653" y2="254.495" xlink:href="#linear-gradient-9"/><linearGradient id="linear-gradient-11" x1="-6998.647" y1="267.695" x2="-6974.454" y2="267.695" xlink:href="#linear-gradient-9"/><linearGradient id="linear-gradient-12" x1="-6974.448" y1="280.895" x2="-6950.255" y2="280.895" xlink:href="#linear-gradient-9"/><linearGradient id="linear-gradient-13" x1="-7022.852" y1="228.092" x2="-6998.653" y2="228.092" xlink:href="#linear-gradient-9"/><linearGradient id="linear-gradient-14" x1="-6998.647" y1="241.293" x2="-6974.454" y2="241.293" xlink:href="#linear-gradient-9"/><linearGradient id="linear-gradient-15" x1="-6974.448" y1="254.493" x2="-6950.255" y2="254.493" xlink:href="#linear-gradient-9"/><linearGradient id="linear-gradient-16" x1="-6950.249" y1="267.693" x2="-6926.053" y2="267.693" xlink:href="#linear-gradient-9"/><linearGradient id="linear-gradient-17" x1="-6730.805" y1="309.451" x2="-6706.606" y2="309.451" gradientTransform="matrix(-0.685, -0.729, -0.729, 0.685, -4151.606, -4754.505)" gradientUnits="userSpaceOnUse"><stop offset="0" stop-color="#7a7a7a"/><stop offset="0.25" stop-color="#939393"/><stop offset="0.368" stop-color="#a0a0a0"/><stop offset="1" stop-color="#7a7a7a"/></linearGradient><linearGradient id="linear-gradient-18" x1="-6706.6" y1="322.653" x2="-6682.407" y2="322.653" xlink:href="#linear-gradient-17"/><linearGradient id="linear-gradient-19" x1="-6682.401" y1="335.853" x2="-6658.208" y2="335.853" xlink:href="#linear-gradient-17"/><linearGradient id="linear-gradient-20" x1="-6658.202" y1="349.053" x2="-6634.009" y2="349.053" xlink:href="#linear-gradient-17"/><linearGradient id="linear-gradient-21" x1="-6706.606" y1="296.25" x2="-6682.407" y2="296.25" xlink:href="#linear-gradient-17"/><linearGradient id="linear-gradient-22" x1="-6682.401" y1="309.451" x2="-6658.208" y2="309.451" xlink:href="#linear-gradient-17"/><linearGradient id="linear-gradient-23" x1="-6658.202" y1="322.651" x2="-6634.009" y2="322.651" xlink:href="#linear-gradient-17"/><linearGradient id="linear-gradient-24" x1="-6634.003" y1="335.851" x2="-6609.807" y2="335.851" xlink:href="#linear-gradient-17"/><linearGradient id="linear-gradient-25" x1="-7236.746" y1="257.522" x2="-7212.547" y2="257.522" gradientTransform="matrix(-0.359, -0.933, -0.933, 0.359, -1964.717, -6437.918)" gradientUnits="userSpaceOnUse"><stop offset="0" stop-color="#5e5e5e"/><stop offset="0.25" stop-color="#828282"/><stop offset="0.368" stop-color="#828282"/><stop offset="1" stop-color="#5e5e5e"/></linearGradient><linearGradient id="linear-gradient-26" x1="-7212.541" y1="270.724" x2="-7188.348" y2="270.724" xlink:href="#linear-gradient-25"/><linearGradient id="linear-gradient-27" x1="-7188.341" y1="283.924" x2="-7164.149" y2="283.924" xlink:href="#linear-gradient-25"/><linearGradient id="linear-gradient-28" x1="-7164.142" y1="297.124" x2="-7139.949" y2="297.124" xlink:href="#linear-gradient-25"/><linearGradient id="linear-gradient-29" x1="-7212.547" y1="244.321" x2="-7188.348" y2="244.321" xlink:href="#linear-gradient-25"/><linearGradient id="linear-gradient-30" x1="-7188.341" y1="257.522" x2="-7164.149" y2="257.522" xlink:href="#linear-gradient-25"/><linearGradient id="linear-gradient-31" x1="-7164.142" y1="270.722" x2="-7139.949" y2="270.722" xlink:href="#linear-gradient-25"/><linearGradient id="linear-gradient-32" x1="-7139.944" y1="283.922" x2="-7115.747" y2="283.922" xlink:href="#linear-gradient-25"/><linearGradient id="linear-gradient-33" x1="-6662.691" y1="135.595" x2="-6638.493" y2="135.595" gradientTransform="matrix(-0.669, 0.743, 0.743, 0.669, -4409.558, 4974.694)" gradientUnits="userSpaceOnUse"><stop offset="0" stop-color="#231f20"/><stop offset="0.25" stop-color="#4d4d4f"/><stop offset="0.368" stop-color="#4d4d4f"/><stop offset="1" stop-color="#231f20"/></linearGradient><linearGradient id="linear-gradient-34" x1="-6638.487" y1="148.794" x2="-6614.295" y2="148.794" xlink:href="#linear-gradient-33"/><linearGradient id="linear-gradient-35" x1="-6614.289" y1="161.994" x2="-6590.097" y2="161.994" xlink:href="#linear-gradient-33"/><linearGradient id="linear-gradient-36" x1="-6590.091" y1="175.193" x2="-6565.899" y2="175.193" xlink:href="#linear-gradient-33"/><linearGradient id="linear-gradient-37" x1="-6638.493" y1="122.394" x2="-6614.295" y2="122.394" xlink:href="#linear-gradient-33"/><linearGradient id="linear-gradient-38" x1="-6614.289" y1="135.595" x2="-6590.097" y2="135.595" xlink:href="#linear-gradient-33"/><linearGradient id="linear-gradient-39" x1="-6590.091" y1="148.794" x2="-6565.899" y2="148.794" xlink:href="#linear-gradient-33"/><linearGradient id="linear-gradient-40" x1="-6565.893" y1="161.994" x2="-6541.698" y2="161.994" xlink:href="#linear-gradient-33"/><linearGradient id="linear-gradient-41" x1="-7183.227" y1="164.147" x2="-7159.028" y2="164.147" gradientTransform="matrix(-0.352, 0.936, 0.936, 0.352, -2429.237, 6689.369)" gradientUnits="userSpaceOnUse"><stop offset="0" stop-color="#3a3567"/><stop offset="0.25" stop-color="#685aad"/><stop offset="0.368" stop-color="#685aad"/><stop offset="1" stop-color="#3a3567"/></linearGradient><linearGradient id="linear-gradient-42" x1="-7159.022" y1="177.347" x2="-7134.829" y2="177.347" xlink:href="#linear-gradient-41"/><linearGradient id="linear-gradient-43" x1="-7134.823" y1="190.547" x2="-7110.63" y2="190.547" xlink:href="#linear-gradient-41"/><linearGradient id="linear-gradient-44" x1="-7110.624" y1="203.747" x2="-7086.431" y2="203.747" xlink:href="#linear-gradient-41"/><linearGradient id="linear-gradient-45" x1="-7159.028" y1="150.946" x2="-7134.829" y2="150.946" xlink:href="#linear-gradient-41"/><linearGradient id="linear-gradient-46" x1="-7134.823" y1="164.147" x2="-7110.63" y2="164.147" xlink:href="#linear-gradient-41"/><linearGradient id="linear-gradient-47" x1="-7110.624" y1="177.347" x2="-7086.431" y2="177.347" xlink:href="#linear-gradient-41"/><linearGradient id="linear-gradient-48" x1="-7086.425" y1="190.547" x2="-7062.228" y2="190.547" xlink:href="#linear-gradient-41"/></defs><polygon class="cls-1" points="489.361 79.487 403.838 149.089 351.428 131.983 436.947 62.378 489.361 79.487"/><polygon class="cls-2" points="411.075 188.023 403.838 149.089 351.422 131.981 358.665 170.913 411.075 188.023"/><polygon class="cls-3" points="403.832 149.09 489.354 79.488 496.598 118.42 411.075 188.023 403.832 149.09"/><path class="cls-4" d="M476.256,75.213l1.206,6.486c.666,3.586-4.123,7.483-10.692,8.7s-12.433-.7-13.1-4.281l-1.205-6.486Z"/><path class="cls-1" d="M461.662,84.257c-4.971,0-8.658-1.859-9.173-4.625-.662-3.565,4.123-7.455,10.667-8.671a21.4,21.4,0,0,1,3.9-.368c4.974,0,8.662,1.858,9.177,4.624.32,1.724-.612,3.575-2.624,5.213a18.2,18.2,0,0,1-8.049,3.459,21.389,21.389,0,0,1-3.9.368Z"/><path class="cls-5" d="M467.054,70.618c4.963,0,8.641,1.85,9.153,4.6.319,1.714-.61,3.557-2.616,5.188a18.158,18.158,0,0,1-8.036,3.455,21.43,21.43,0,0,1-3.892.367c-4.961,0-8.637-1.851-9.149-4.605-.66-3.551,4.116-7.428,10.646-8.642a21.452,21.452,0,0,1,3.894-.367m0-.05a21.406,21.406,0,0,0-3.9.368c-6.569,1.221-11.352,5.117-10.686,8.7.529,2.85,4.35,4.646,9.2,4.646a21.385,21.385,0,0,0,3.9-.368c6.569-1.221,11.358-5.118,10.692-8.7-.53-2.85-4.353-4.645-9.2-4.645Z"/><path class="cls-6" d="M454.871,92.615l1.206,6.488c.667,3.586-4.117,7.479-10.686,8.7s-12.433-.693-13.1-4.278l-1.206-6.489Z"/><path class="cls-1" d="M440.283,101.66c-4.971,0-8.658-1.86-9.172-4.628-.663-3.563,4.123-7.451,10.667-8.668a21.41,21.41,0,0,1,3.9-.368c4.971,0,8.655,1.858,9.17,4.623.32,1.725-.61,3.577-2.621,5.214a18.177,18.177,0,0,1-8.046,3.46,21.473,21.473,0,0,1-3.9.367Z"/><path class="cls-5" d="M445.677,88.021c4.958,0,8.633,1.85,9.145,4.6.66,3.552-4.115,7.43-10.646,8.644a21.333,21.333,0,0,1-3.892.367c-4.96,0-8.637-1.852-9.149-4.608-.66-3.549,4.116-7.424,10.647-8.638a21.376,21.376,0,0,1,3.9-.368m0-.05a21.42,21.42,0,0,0-3.9.369c-6.57,1.221-11.353,5.113-10.687,8.7.53,2.853,4.35,4.649,9.2,4.649a21.385,21.385,0,0,0,3.9-.368c6.569-1.221,11.353-5.117,10.686-8.7-.53-2.85-4.348-4.644-9.194-4.644Z"/><path class="cls-7" d="M433.492,110.015,434.7,116.5c.667,3.585-4.117,7.478-10.686,8.7s-12.433-.692-13.1-4.278l-1.206-6.489Z"/><path class="cls-1" d="M418.905,119.061c-4.972,0-8.659-1.861-9.174-4.629-.321-1.724.611-3.574,2.622-5.21a18.182,18.182,0,0,1,8.046-3.458,21.41,21.41,0,0,1,3.9-.368c4.971,0,8.655,1.858,9.17,4.623.662,3.567-4.123,7.457-10.667,8.674a21.367,21.367,0,0,1-3.895.368Z"/><path class="cls-5" d="M424.3,105.421c4.958,0,8.633,1.85,9.145,4.6.66,3.553-4.116,7.43-10.646,8.644a21.335,21.335,0,0,1-3.892.368c-4.96,0-8.637-1.852-9.149-4.609-.319-1.714.609-3.556,2.612-5.186a18.17,18.17,0,0,1,8.035-3.452,21.367,21.367,0,0,1,3.895-.368m0-.05a21.412,21.412,0,0,0-3.9.369c-6.57,1.221-11.353,5.114-10.687,8.7.53,2.853,4.351,4.65,9.2,4.65a21.381,21.381,0,0,0,3.9-.369c6.569-1.221,11.352-5.116,10.686-8.7-.53-2.85-4.348-4.644-9.194-4.644Z"/><path class="cls-8" d="M412.113,127.415l1.206,6.489c.667,3.585-4.117,7.478-10.687,8.7s-12.432-.692-13.1-4.278l-1.206-6.488Z"/><path class="cls-1" d="M397.526,136.461c-4.973,0-8.66-1.861-9.174-4.629-.662-3.563,4.123-7.451,10.668-8.668a21.408,21.408,0,0,1,3.9-.367c4.97,0,8.654,1.857,9.169,4.623.32,1.725-.61,3.576-2.62,5.213a18.171,18.171,0,0,1-8.046,3.46,21.378,21.378,0,0,1-3.9.368Z"/><path class="cls-5" d="M402.919,122.822c4.958,0,8.633,1.849,9.145,4.6.66,3.553-4.116,7.43-10.646,8.644a21.344,21.344,0,0,1-3.892.368c-4.96,0-8.637-1.852-9.15-4.609-.659-3.549,4.117-7.424,10.648-8.638a21.373,21.373,0,0,1,3.895-.367m0-.05a21.417,21.417,0,0,0-3.9.368c-6.57,1.221-11.354,5.114-10.688,8.7.531,2.852,4.351,4.649,9.2,4.649a21.474,21.474,0,0,0,3.9-.368c6.569-1.222,11.352-5.117,10.686-8.7-.53-2.85-4.348-4.643-9.194-4.643Z"/><path class="cls-9" d="M450.052,66.658l1.206,6.486c.666,3.583-4.123,7.479-10.693,8.7s-12.433-.7-13.1-4.279l-1.2-6.486Z"/><path class="cls-1" d="M435.455,75.7c-4.97,0-8.655-1.858-9.17-4.623-.32-1.725.611-3.577,2.62-5.214a18.175,18.175,0,0,1,8.046-3.459,21.4,21.4,0,0,1,3.9-.368c4.975,0,8.664,1.86,9.179,4.627.662,3.563-4.126,7.452-10.673,8.669a21.421,21.421,0,0,1-3.9.368Z"/><path class="cls-5" d="M440.85,62.06c4.962,0,8.641,1.851,9.153,4.607.66,3.549-4.119,7.425-10.653,8.639a21.376,21.376,0,0,1-3.9.368c-4.958,0-8.633-1.85-9.145-4.6-.319-1.715.609-3.558,2.612-5.19a18.156,18.156,0,0,1,8.034-3.454,21.354,21.354,0,0,1,3.894-.367m0-.05a21.39,21.39,0,0,0-3.9.368c-6.57,1.221-11.353,5.117-10.686,8.7.53,2.85,4.348,4.644,9.194,4.644a21.506,21.506,0,0,0,3.9-.368c6.569-1.222,11.359-5.115,10.693-8.7-.53-2.853-4.354-4.648-9.2-4.648Z"/><path class="cls-10" d="M428.667,84.059l1.206,6.486c.666,3.586-4.117,7.482-10.686,8.7s-12.433-.7-13.1-4.281l-1.2-6.486Z"/><path class="cls-1" d="M414.079,93.1c-4.971,0-8.658-1.859-9.173-4.626-.32-1.723.611-3.574,2.622-5.211a18.183,18.183,0,0,1,8.045-3.46,21.465,21.465,0,0,1,3.9-.367c4.973,0,8.659,1.859,9.174,4.626.662,3.564-4.123,7.454-10.667,8.671a21.476,21.476,0,0,1-3.9.367Z"/><path class="cls-5" d="M419.47,79.463c4.959,0,8.636,1.851,9.148,4.606.319,1.714-.609,3.556-2.612,5.187a18.156,18.156,0,0,1-8.034,3.454,21.341,21.341,0,0,1-3.892.367c-4.96,0-8.637-1.851-9.149-4.605-.319-1.714.609-3.557,2.612-5.188a18.165,18.165,0,0,1,8.035-3.454,21.422,21.422,0,0,1,3.892-.367m0-.05a21.455,21.455,0,0,0-3.9.368C409,81,404.216,84.9,404.882,88.481c.53,2.85,4.35,4.646,9.2,4.646a21.385,21.385,0,0,0,3.9-.368c6.569-1.221,11.352-5.117,10.686-8.7-.53-2.85-4.35-4.646-9.2-4.646Z"/><path class="cls-11" d="M407.288,101.46l1.206,6.486c.666,3.585-4.117,7.481-10.686,8.7s-12.433-.695-13.1-4.281l-1.205-6.486Z"/><path class="cls-1" d="M392.7,110.5c-4.972,0-8.659-1.859-9.173-4.625-.321-1.724.61-3.575,2.622-5.212a18.172,18.172,0,0,1,8.045-3.459,21.476,21.476,0,0,1,3.9-.367c4.973,0,8.658,1.858,9.173,4.625.662,3.564-4.123,7.454-10.667,8.671a21.376,21.376,0,0,1-3.9.367Z"/><path class="cls-5" d="M398.091,96.863c4.959,0,8.636,1.851,9.148,4.606.319,1.714-.609,3.556-2.612,5.187a18.165,18.165,0,0,1-8.035,3.454,21.333,21.333,0,0,1-3.892.367c-4.96,0-8.636-1.85-9.148-4.605-.66-3.551,4.116-7.427,10.646-8.641a21.346,21.346,0,0,1,3.893-.368m0-.05a21.391,21.391,0,0,0-3.9.369c-6.569,1.221-11.352,5.116-10.686,8.7.529,2.851,4.349,4.646,9.2,4.646a21.4,21.4,0,0,0,3.9-.368c6.569-1.221,11.352-5.117,10.686-8.7-.53-2.851-4.35-4.647-9.2-4.647Z"/><path class="cls-12" d="M385.909,118.86l1.206,6.486c.666,3.585-4.114,7.481-10.683,8.7s-12.439-.695-13.106-4.28l-1.206-6.486Z"/><path class="cls-1" d="M371.322,127.9c-4.974,0-8.663-1.858-9.177-4.624-.321-1.724.611-3.575,2.624-5.212a18.181,18.181,0,0,1,8.05-3.46,21.359,21.359,0,0,1,3.895-.368c4.971,0,8.656,1.859,9.171,4.626.32,1.724-.61,3.575-2.62,5.211a18.162,18.162,0,0,1-8.044,3.459,21.4,21.4,0,0,1-3.9.368Z"/><path class="cls-5" d="M376.713,114.263c4.959,0,8.635,1.851,9.147,4.606.319,1.714-.609,3.556-2.611,5.187a18.147,18.147,0,0,1-8.033,3.454,21.346,21.346,0,0,1-3.894.367c-4.962,0-8.64-1.85-9.152-4.6-.319-1.714.61-3.557,2.615-5.188a18.168,18.168,0,0,1,8.037-3.455,21.419,21.419,0,0,1,3.891-.367m0-.05a21.455,21.455,0,0,0-3.9.368c-6.569,1.221-11.358,5.118-10.692,8.7.529,2.85,4.353,4.645,9.2,4.645a21.409,21.409,0,0,0,3.9-.368c6.569-1.221,11.349-5.117,10.683-8.7-.53-2.851-4.349-4.647-9.2-4.647Z"/><polygon class="cls-13" points="532.665 289.498 423.18 276.396 399.049 226.826 508.532 239.925 532.665 289.498"/><polygon class="cls-14" points="400.221 308.662 423.18 276.396 399.045 226.821 376.091 259.09 400.221 308.662"/><polygon class="cls-15" points="423.175 276.393 532.66 289.495 509.706 321.764 400.221 308.662 423.175 276.393"/><path class="cls-16" d="M526.629,277.105l-3.825,5.376c-2.114,2.971-8.244,2.235-13.688-1.638s-8.143-9.421-6.029-12.391l3.825-5.377Z"/><path class="cls-17" d="M506.912,263.075c-2.113,2.971.586,8.517,6.03,12.391s11.574,4.609,13.687,1.639-.59-8.52-6.034-12.394S509.026,260.105,506.912,263.075Z"/><path class="cls-18" d="M499.254,273.828l-3.826,5.377c-2.114,2.97-8.238,2.238-13.682-1.636s-8.144-9.42-6.03-12.391l3.826-5.376Z"/><path class="cls-17" d="M479.542,259.8c-2.114,2.971.585,8.517,6.029,12.391s11.569,4.606,13.683,1.635-.586-8.516-6.03-12.39S481.655,256.832,479.542,259.8Z"/><path class="cls-19" d="M471.884,270.554l-3.826,5.376c-2.114,2.97-8.238,2.239-13.682-1.635s-8.143-9.421-6.03-12.391l3.826-5.376Z"/><path class="cls-17" d="M452.172,256.528c-2.114,2.97.585,8.516,6.029,12.39s11.569,4.606,13.683,1.636-.586-8.517-6.03-12.391S454.285,253.557,452.172,256.528Z"/><path class="cls-20" d="M444.514,267.279l-3.826,5.376c-2.113,2.971-8.238,2.239-13.682-1.635s-8.144-9.42-6.03-12.391l3.826-5.376Z"/><path class="cls-17" d="M424.8,253.253c-2.114,2.97.585,8.517,6.029,12.39s11.569,4.607,13.683,1.636-.585-8.517-6.03-12.391S426.915,250.282,424.8,253.253Z"/><path class="cls-21" d="M514.566,252.319,510.74,257.7c-2.113,2.971-8.243,2.235-13.687-1.639s-8.143-9.42-6.03-12.39l3.826-5.377Z"/><path class="cls-17" d="M494.849,238.289c-2.113,2.971.585,8.517,6.03,12.391s11.573,4.609,13.687,1.639-.59-8.52-6.034-12.394S496.963,235.319,494.849,238.289Z"/><path class="cls-22" d="M487.19,249.042l-3.825,5.376c-2.114,2.971-8.238,2.239-13.683-1.635s-8.143-9.42-6.029-12.391l3.825-5.376Z"/><path class="cls-17" d="M467.478,235.016c-2.113,2.97.586,8.517,6.03,12.391s11.569,4.6,13.682,1.635-.585-8.517-6.029-12.391S469.592,232.046,467.478,235.016Z"/><path class="cls-23" d="M459.82,245.768,456,251.144c-2.114,2.97-8.238,2.238-13.683-1.636s-8.143-9.42-6.029-12.391l3.825-5.376Z"/><path class="cls-17" d="M440.108,231.741c-2.113,2.971.586,8.517,6.03,12.391s11.569,4.606,13.682,1.636-.585-8.517-6.029-12.391S442.222,228.771,440.108,231.741Z"/><path class="cls-24" d="M432.451,242.493l-3.826,5.376c-2.113,2.971-8.236,2.24-13.68-1.633s-8.148-9.424-6.035-12.395l3.826-5.376Z"/><path class="cls-17" d="M412.736,228.465c-2.114,2.97.59,8.52,6.035,12.394s11.566,4.6,13.68,1.634-.583-8.515-6.027-12.389S414.85,225.5,412.736,228.465Z"/><polygon class="cls-25" points="240.822 370.837 136.052 336.46 122.14 283.112 226.909 317.486 240.822 370.837"/><polygon class="cls-15" points="107.196 363.58 136.052 336.46 122.137 283.107 93.285 310.231 107.196 363.58"/><polygon class="cls-26" points="136.048 336.456 240.817 370.833 211.966 397.958 107.196 363.58 136.048 336.456"/><path class="cls-27" d="M237.341,357.5l-4.808,4.519c-2.656,2.5-8.522.571-13.1-4.3s-6.131-10.838-3.475-13.335l4.808-4.519Z"/><path class="cls-28" d="M220.768,339.866c-2.656,2.5-1.1,8.466,3.475,13.335s10.442,6.795,13.1,4.3,1.1-8.47-3.479-13.338S223.425,337.369,220.768,339.866Z"/><path class="cls-29" d="M211.145,348.9l-4.808,4.519c-2.657,2.5-8.518.574-13.094-4.294s-6.132-10.838-3.475-13.335l4.808-4.519Z"/><path class="cls-28" d="M194.576,331.274c-2.657,2.5-1.1,8.465,3.475,13.335s10.437,6.791,13.094,4.294,1.1-8.466-3.476-13.334S197.232,328.777,194.576,331.274Z"/><path class="cls-30" d="M184.953,340.31l-4.808,4.519c-2.657,2.5-8.518.574-13.094-4.294S160.92,329.7,163.576,327.2l4.809-4.519Z"/><path class="cls-28" d="M168.385,322.681c-2.657,2.5-1.1,8.465,3.475,13.334s10.437,6.791,13.093,4.3,1.1-8.466-3.475-13.335S171.041,320.184,168.385,322.681Z"/><path class="cls-31" d="M158.762,331.717l-4.808,4.518c-2.657,2.5-8.518.575-13.094-4.294s-6.132-10.838-3.475-13.335l4.808-4.518Z"/><path class="cls-28" d="M142.193,314.088c-2.657,2.5-1.1,8.465,3.475,13.334s10.437,6.791,13.094,4.295,1.1-8.466-3.475-13.335S144.85,311.591,142.193,314.088Z"/><path class="cls-32" d="M230.388,330.825l-4.808,4.519c-2.657,2.5-8.522.57-13.1-4.3s-6.131-10.837-3.475-13.334l4.808-4.519Z"/><path class="cls-28" d="M213.815,313.192c-2.656,2.5-1.1,8.465,3.475,13.334s10.442,6.8,13.1,4.3,1.1-8.47-3.479-13.339S216.472,310.7,213.815,313.192Z"/><path class="cls-33" d="M204.191,322.228l-4.808,4.519c-2.656,2.5-8.517.575-13.093-4.294s-6.132-10.838-3.475-13.334l4.808-4.519Z"/><path class="cls-28" d="M187.623,304.6c-2.657,2.5-1.1,8.465,3.475,13.334s10.437,6.791,13.093,4.294,1.1-8.465-3.474-13.334S190.279,302.1,187.623,304.6Z"/><path class="cls-34" d="M178,313.635l-4.808,4.519c-2.657,2.5-8.518.575-13.094-4.294s-6.132-10.838-3.475-13.335l4.808-4.519Z"/><path class="cls-28" d="M161.431,296.006c-2.656,2.5-1.1,8.466,3.475,13.335s10.437,6.791,13.094,4.294,1.1-8.465-3.475-13.334S164.088,293.509,161.431,296.006Z"/><path class="cls-35" d="M151.809,305.042,147,309.561c-2.656,2.5-8.515.577-13.091-4.292s-6.136-10.842-3.479-13.339l4.808-4.519Z"/><path class="cls-28" d="M135.238,287.411c-2.657,2.5-1.1,8.47,3.479,13.339s10.435,6.789,13.092,4.292,1.1-8.463-3.473-13.332S137.894,284.914,135.238,287.411Z"/><polygon class="cls-36" points="395.189 420.869 311.178 349.45 318.457 294.801 402.468 366.217 395.189 420.869"/><polygon class="cls-37" points="274.213 363.655 311.178 349.45 318.457 294.795 281.494 309.005 274.213 363.655"/><polygon class="cls-38" points="311.176 349.444 395.186 420.864 358.224 435.075 274.213 363.655 311.176 349.444"/><path class="cls-39" d="M397.006,407.205l-6.159,2.367c-3.4,1.308-8.1-2.692-10.5-8.929s-1.581-12.352,1.822-13.659l6.159-2.367Z"/><path class="cls-40" d="M388.326,384.617c-3.4,1.307-4.219,7.422-1.822,13.659s7.1,10.237,10.5,8.929,4.217-7.427,1.82-13.664S391.729,383.309,388.326,384.617Z"/><path class="cls-41" d="M376,389.347l-6.159,2.367c-3.4,1.308-8.1-2.687-10.5-8.924s-1.582-12.351,1.821-13.659l6.16-2.367Z"/><path class="cls-40" d="M367.323,366.764c-3.4,1.308-4.219,7.422-1.822,13.659s7.1,10.232,10.5,8.924,4.218-7.422,1.821-13.659S370.725,365.456,367.323,366.764Z"/><path class="cls-42" d="M355,371.493l-6.16,2.367c-3.4,1.308-8.1-2.686-10.5-8.923s-1.581-12.352,1.822-13.659l6.159-2.367Z"/><path class="cls-40" d="M346.32,348.911c-3.4,1.307-4.218,7.421-1.821,13.659s7.1,10.231,10.5,8.923,4.218-7.421,1.821-13.659S349.723,347.6,346.32,348.911Z"/><path class="cls-43" d="M334,353.64l-6.159,2.367c-3.4,1.308-8.1-2.687-10.5-8.924s-1.581-12.351,1.822-13.659l6.159-2.367Z"/><path class="cls-40" d="M325.318,331.057c-3.4,1.308-4.218,7.422-1.821,13.659s7.1,10.232,10.5,8.924,4.219-7.422,1.822-13.659S328.721,329.749,325.318,331.057Z"/><path class="cls-44" d="M400.649,379.881l-6.16,2.367c-3.4,1.308-8.1-2.692-10.5-8.929s-1.581-12.352,1.822-13.659l6.159-2.367Z"/><path class="cls-40" d="M391.968,357.293c-3.4,1.307-4.218,7.421-1.821,13.659s7.1,10.237,10.5,8.929,4.216-7.427,1.819-13.664S395.371,355.985,391.968,357.293Z"/><path class="cls-45" d="M379.643,362.023l-6.159,2.367c-3.4,1.307-8.1-2.687-10.5-8.924s-1.582-12.351,1.821-13.659l6.16-2.367Z"/><path class="cls-40" d="M370.965,339.44c-3.4,1.308-4.219,7.422-1.822,13.659s7.1,10.231,10.5,8.924,4.219-7.422,1.822-13.659S374.368,338.132,370.965,339.44Z"/><path class="cls-46" d="M358.641,344.169l-6.159,2.367c-3.4,1.308-8.1-2.686-10.5-8.924s-1.582-12.351,1.821-13.659l6.159-2.367Z"/><path class="cls-40" d="M349.962,321.586c-3.4,1.308-4.218,7.422-1.821,13.659s7.1,10.232,10.5,8.924,4.218-7.421,1.821-13.659S353.366,320.278,349.962,321.586Z"/><path class="cls-47" d="M337.639,326.316l-6.159,2.367c-3.4,1.308-8.1-2.684-10.5-8.921S319.4,307.4,322.8,306.1l6.159-2.367Z"/><path class="cls-40" d="M328.959,303.73c-3.4,1.308-4.216,7.427-1.819,13.665s7.1,10.229,10.5,8.921,4.219-7.419,1.823-13.656S332.362,302.422,328.959,303.73Z"/><polygon class="cls-48" points="159.266 106.728 133.693 213.983 81.685 232.269 107.254 125.015 159.266 106.728"/><polygon class="cls-49" points="163.111 240.49 133.693 213.983 81.679 232.271 111.101 258.774 163.111 240.49"/><polygon class="cls-50" points="133.69 213.987 159.262 106.732 188.684 133.235 163.111 240.49 133.69 213.987"/><path class="cls-51" d="M146.264,111.3l4.9,4.416c2.709,2.441,1.277,8.446-3.2,13.41s-10.293,7.008-13,4.566l-4.9-4.415Z"/><path class="cls-48" d="M133.053,130.284a4.288,4.288,0,0,1-2.971-1.023c-2.693-2.427-1.259-8.424,3.2-13.369,3.108-3.449,6.94-5.593,10-5.593a4.284,4.284,0,0,1,2.967,1.022c1.3,1.173,1.689,3.21,1.086,5.734a18.2,18.2,0,0,1-4.285,7.64c-3.106,3.447-6.936,5.589-10,5.589Z"/><path class="cls-52" d="M143.28,110.324a4.259,4.259,0,0,1,2.951,1.016c1.3,1.167,1.678,3.194,1.078,5.709a18.167,18.167,0,0,1-4.28,7.629c-3.1,3.442-6.925,5.581-9.976,5.581a4.259,4.259,0,0,1-2.953-1.017c-1.3-1.167-1.679-3.193-1.08-5.706a18.144,18.144,0,0,1,4.278-7.627c3.1-3.445,6.929-5.585,9.982-5.585m0-.05c-2.945,0-6.827,2.058-10.02,5.6-4.472,4.963-5.9,10.964-3.194,13.4a4.343,4.343,0,0,0,2.987,1.029c2.943,0,6.821-2.055,10.013-5.6,4.473-4.963,5.905-10.969,3.2-13.408a4.335,4.335,0,0,0-2.984-1.029Z"/><path class="cls-53" d="M139.868,138.12l4.9,4.418c2.71,2.441,1.279,8.44-3.194,13.4s-10.291,7.01-13,4.569l-4.9-4.418Z"/><path class="cls-48" d="M126.663,157.1a4.3,4.3,0,0,1-2.972-1.024c-2.692-2.426-1.257-8.422,3.2-13.367,3.107-3.449,6.937-5.591,9.994-5.591a4.287,4.287,0,0,1,2.969,1.022c2.694,2.428,1.261,8.426-3.195,13.371-3.106,3.447-6.935,5.589-9.993,5.589Z"/><path class="cls-52" d="M136.883,137.141a4.264,4.264,0,0,1,2.952,1.016c1.3,1.168,1.68,3.195,1.082,5.708a18.144,18.144,0,0,1-4.278,7.627c-3.1,3.442-6.924,5.581-9.975,5.581a4.267,4.267,0,0,1-2.956-1.018c-2.682-2.416-1.247-8.4,3.2-13.331,3.1-3.444,6.926-5.583,9.976-5.583m0-.05c-2.942,0-6.82,2.056-10.013,5.6-4.472,4.964-5.9,10.963-3.2,13.4a4.347,4.347,0,0,0,2.99,1.031c2.944,0,6.821-2.055,10.012-5.6,4.473-4.964,5.9-10.965,3.192-13.406a4.34,4.34,0,0,0-2.985-1.029Z"/><path class="cls-54" d="M133.476,164.932l4.9,4.418c2.709,2.441,1.279,8.44-3.194,13.4s-10.291,7.01-13,4.568l-4.9-4.418Z"/><path class="cls-48" d="M120.272,183.91a4.292,4.292,0,0,1-2.974-1.024c-2.691-2.426-1.257-8.422,3.2-13.367,3.108-3.448,6.938-5.59,9.994-5.59a4.282,4.282,0,0,1,2.969,1.022c1.3,1.174,1.691,3.21,1.09,5.732a18.185,18.185,0,0,1-4.283,7.639c-3.107,3.447-6.936,5.588-9.994,5.588Z"/><path class="cls-52" d="M130.491,163.953a4.259,4.259,0,0,1,2.951,1.016c2.685,2.419,1.251,8.4-3.195,13.336-3.1,3.442-6.924,5.58-9.975,5.58a4.267,4.267,0,0,1-2.957-1.018c-1.3-1.167-1.678-3.193-1.079-5.7a18.178,18.178,0,0,1,4.279-7.626c3.1-3.444,6.925-5.583,9.976-5.583m0-.05c-2.943,0-6.82,2.056-10.013,5.6-4.473,4.964-5.9,10.963-3.2,13.4a4.342,4.342,0,0,0,2.99,1.031c2.944,0,6.821-2.055,10.012-5.6,4.473-4.963,5.9-10.964,3.192-13.406a4.34,4.34,0,0,0-2.985-1.029Z"/><path class="cls-55" d="M127.084,191.745l4.9,4.418c2.709,2.441,1.278,8.44-3.194,13.4s-10.291,7.009-13,4.568l-4.9-4.418Z"/><path class="cls-48" d="M113.879,210.723a4.3,4.3,0,0,1-2.973-1.024c-1.3-1.174-1.687-3.208-1.086-5.73a18.2,18.2,0,0,1,4.285-7.637c3.107-3.449,6.937-5.591,9.994-5.591a4.287,4.287,0,0,1,2.969,1.022c2.694,2.429,1.26,8.427-3.195,13.372-3.106,3.446-6.935,5.588-9.993,5.588Z"/><path class="cls-52" d="M124.1,190.766a4.259,4.259,0,0,1,2.951,1.016c1.3,1.168,1.681,3.195,1.083,5.708a18.153,18.153,0,0,1-4.278,7.628c-3.1,3.442-6.924,5.58-9.976,5.58a4.269,4.269,0,0,1-2.956-1.018c-2.682-2.416-1.246-8.4,3.2-13.331,3.1-3.444,6.926-5.583,9.976-5.583m0-.05c-2.943,0-6.82,2.056-10.013,5.6-4.472,4.964-5.9,10.963-3.2,13.4a4.34,4.34,0,0,0,2.989,1.031c2.944,0,6.822-2.055,10.013-5.6,4.473-4.964,5.9-10.965,3.192-13.406a4.34,4.34,0,0,0-2.985-1.029Z"/><path class="cls-56" d="M120.26,120.444l4.9,4.416c2.707,2.439,1.275,8.445-3.2,13.408s-10.293,7.008-13,4.569l-4.9-4.416Z"/><path class="cls-48" d="M107.047,139.425a4.288,4.288,0,0,1-2.969-1.023c-2.694-2.428-1.26-8.426,3.195-13.371,3.108-3.449,6.939-5.592,10-5.592a4.288,4.288,0,0,1,2.97,1.024c1.3,1.173,1.688,3.208,1.085,5.732a18.218,18.218,0,0,1-4.287,7.639c-3.107,3.448-6.936,5.591-9.994,5.591Z"/><path class="cls-52" d="M117.273,119.464a4.263,4.263,0,0,1,2.954,1.017c2.681,2.416,1.244,8.4-3.2,13.336-3.1,3.443-6.926,5.583-9.976,5.583a4.259,4.259,0,0,1-2.951-1.016c-1.3-1.168-1.681-3.2-1.083-5.709a18.15,18.15,0,0,1,4.278-7.627c3.1-3.444,6.928-5.584,9.982-5.584m0-.05c-2.946,0-6.826,2.057-10.019,5.6-4.473,4.963-5.9,10.964-3.192,13.406a4.34,4.34,0,0,0,2.985,1.029c2.943,0,6.82-2.056,10.013-5.6,4.472-4.963,5.907-10.967,3.2-13.406a4.339,4.339,0,0,0-2.987-1.03Z"/><path class="cls-57" d="M113.864,147.261l4.9,4.416c2.709,2.441,1.281,8.442-3.192,13.406s-10.293,7.007-13,4.566l-4.9-4.416Z"/><path class="cls-48" d="M100.656,166.238a4.289,4.289,0,0,1-2.969-1.023c-2.693-2.427-1.259-8.424,3.2-13.369,3.106-3.448,6.937-5.589,9.994-5.589a4.287,4.287,0,0,1,2.97,1.023c1.3,1.173,1.689,3.209,1.088,5.731a18.179,18.179,0,0,1-4.283,7.637c-3.107,3.448-6.937,5.59-10,5.59Z"/><path class="cls-52" d="M110.877,146.282a4.263,4.263,0,0,1,2.953,1.016c2.683,2.418,1.249,8.4-3.2,13.333-3.1,3.443-6.925,5.582-9.976,5.582A4.268,4.268,0,0,1,97.7,165.2c-1.3-1.167-1.678-3.194-1.08-5.707a18.169,18.169,0,0,1,4.278-7.626c3.1-3.443,6.925-5.581,9.976-5.581m0-.05c-2.943,0-6.821,2.055-10.013,5.6-4.473,4.964-5.9,10.965-3.194,13.4a4.344,4.344,0,0,0,2.987,1.03c2.943,0,6.821-2.056,10.013-5.6,4.473-4.964,5.9-10.965,3.194-13.4a4.343,4.343,0,0,0-2.987-1.029Z"/><path class="cls-58" d="M107.472,174.073l4.9,4.416c2.709,2.442,1.28,8.442-3.192,13.406s-10.293,7.008-13,4.567l-4.9-4.416Z"/><path class="cls-48" d="M94.264,193.05a4.286,4.286,0,0,1-2.97-1.023c-1.3-1.173-1.688-3.208-1.088-5.731a18.186,18.186,0,0,1,4.284-7.637c3.107-3.448,6.937-5.59,10-5.59a4.286,4.286,0,0,1,2.969,1.023c1.3,1.173,1.689,3.209,1.088,5.731a18.185,18.185,0,0,1-4.284,7.638c-3.106,3.448-6.937,5.589-9.994,5.589Z"/><path class="cls-52" d="M104.485,173.094a4.259,4.259,0,0,1,2.953,1.017c2.683,2.417,1.249,8.4-3.2,13.333-3.1,3.443-6.925,5.581-9.977,5.581a4.264,4.264,0,0,1-2.953-1.016c-2.683-2.418-1.248-8.4,3.2-13.334,3.1-3.442,6.925-5.581,9.976-5.581m0-.05c-2.943,0-6.821,2.055-10.013,5.6-4.473,4.963-5.9,10.965-3.194,13.4a4.34,4.34,0,0,0,2.986,1.029c2.944,0,6.822-2.055,10.014-5.6,4.472-4.964,5.9-10.965,3.194-13.4a4.343,4.343,0,0,0-2.987-1.029Z"/><path class="cls-59" d="M101.08,200.886l4.9,4.416c2.71,2.441,1.283,8.44-3.189,13.4s-10.3,7.012-13.007,4.57l-4.9-4.415Z"/><path class="cls-48" d="M87.868,219.864a4.286,4.286,0,0,1-2.968-1.022c-1.3-1.173-1.688-3.209-1.085-5.733a18.18,18.18,0,0,1,4.286-7.64c3.105-3.447,6.933-5.588,9.991-5.588a4.284,4.284,0,0,1,2.971,1.024c1.3,1.173,1.689,3.208,1.089,5.729a18.174,18.174,0,0,1-4.283,7.637c-3.108,3.45-6.94,5.593-10,5.593Z"/><path class="cls-52" d="M98.092,199.906a4.263,4.263,0,0,1,2.954,1.017c2.683,2.418,1.25,8.4-3.2,13.331-3.105,3.445-6.93,5.585-9.983,5.585a4.259,4.259,0,0,1-2.951-1.016c-1.3-1.166-1.678-3.194-1.078-5.708a18.17,18.17,0,0,1,4.28-7.63c3.1-3.441,6.922-5.579,9.973-5.579m0-.05c-2.942,0-6.819,2.054-10.01,5.6-4.473,4.964-5.906,10.969-3.2,13.409a4.339,4.339,0,0,0,2.984,1.028c2.945,0,6.826-2.058,10.02-5.6,4.472-4.964,5.9-10.963,3.192-13.4a4.343,4.343,0,0,0-2.988-1.03Z"/><polygon class="cls-60" points="259.549 13.283 274.857 122.481 233.099 158.477 217.788 49.281 259.549 13.283"/><polygon class="cls-61" points="311.917 136.433 274.857 122.481 233.094 158.482 270.157 172.429 311.917 136.433"/><polygon class="cls-62" points="274.855 122.486 259.547 13.288 296.61 27.235 311.917 136.433 274.855 122.486"/><path class="cls-63" d="M249.111,22.285l6.174,2.324c3.413,1.285,4.27,7.4,1.916,13.653s-7.029,10.279-10.442,8.994l-6.174-2.324Z"/><path class="cls-60" d="M240.585,44.932c3.411,1.284,8.085-2.742,10.439-9s1.5-12.368-1.913-13.652-8.086,2.748-10.44,9S237.175,43.648,240.585,44.932Z"/><path class="cls-64" d="M252.937,49.588l6.177,2.326c3.413,1.285,4.268,7.393,1.914,13.646s-7.025,10.281-10.438,9l-6.177-2.326Z"/><path class="cls-60" d="M244.413,72.23c3.413,1.285,8.087-2.741,10.441-8.994s1.5-12.363-1.917-13.648-8.082,2.744-10.436,9S241,70.946,244.413,72.23Z"/><path class="cls-65" d="M256.764,76.887l6.177,2.325c3.413,1.285,4.269,7.393,1.915,13.646s-7.026,10.281-10.439,9l-6.177-2.326Z"/><path class="cls-60" d="M248.24,99.528c3.413,1.285,8.087-2.741,10.442-8.994s1.5-12.362-1.918-13.647-8.082,2.743-10.436,9S244.83,98.244,248.24,99.528Z"/><path class="cls-66" d="M260.591,104.185l6.177,2.325c3.414,1.285,4.269,7.393,1.915,13.646s-7.026,10.281-10.439,9l-6.177-2.326Z"/><path class="cls-60" d="M252.067,126.826c3.414,1.285,8.088-2.741,10.442-8.994s1.5-12.362-1.918-13.647-8.081,2.743-10.436,9S248.657,125.542,252.067,126.826Z"/><path class="cls-67" d="M228.232,40.281l6.174,2.325c3.41,1.284,4.267,7.4,1.912,13.651s-7.028,10.28-10.438,9l-6.174-2.325Z"/><path class="cls-60" d="M219.706,62.928c3.41,1.284,8.081-2.742,10.436-9s1.5-12.367-1.91-13.651-8.09,2.747-10.444,9S216.292,61.643,219.706,62.928Z"/><path class="cls-68" d="M232.057,67.585l6.174,2.324c3.413,1.285,4.272,7.394,1.918,13.647s-7.029,10.28-10.442,9l-6.174-2.325Z"/><path class="cls-60" d="M223.533,90.226c3.41,1.284,8.084-2.741,10.439-9s1.5-12.362-1.915-13.646-8.084,2.742-10.439,9S220.122,88.942,223.533,90.226Z"/><path class="cls-69" d="M235.884,94.883l6.174,2.324c3.414,1.285,4.272,7.394,1.918,13.648s-7.029,10.279-10.442,8.994l-6.174-2.324Z"/><ellipse class="cls-60" cx="231.622" cy="106.204" rx="12.097" ry="6.6" transform="matrix(0.352, -0.936, 0.936, 0.352, 50.62, 285.554)"/><path class="cls-70" d="M239.712,122.181l6.174,2.324c3.413,1.286,4.273,7.392,1.918,13.645s-7.03,10.285-10.444,9l-6.174-2.324Z"/><path class="cls-60" d="M231.186,144.826c3.411,1.284,8.087-2.748,10.442-9s1.494-12.359-1.916-13.643-8.084,2.739-10.438,8.993S227.776,143.542,231.186,144.826Z"/><text class="cls-71" transform="translate(261.777 224.814)">Your <tspan x="-24.879" y="28.8">Use Case</tspan></text></svg>