<svg xmlns="http://www.w3.org/2000/svg" xmlns:xlink="http://www.w3.org/1999/xlink" viewBox="0 0 578 430"><defs><style>.cls-1{isolation:isolate;}.cls-2{fill:#fff;}.cls-3{fill:#d0d2d3;}.cls-4{fill:#a6a8ab;}.cls-5{fill:url(#linear-gradient);}.cls-6{fill:#dbdcdd;}.cls-7{fill:url(#linear-gradient-2);}.cls-8{fill:url(#linear-gradient-3);}.cls-9{fill:url(#linear-gradient-4);}.cls-10{fill:url(#linear-gradient-5);}.cls-11{fill:url(#linear-gradient-6);}.cls-12{fill:url(#linear-gradient-7);}.cls-13{fill:url(#linear-gradient-8);}.cls-14{fill:#a0a0a0;}.cls-15{fill:#939393;}.cls-16{fill:#7a7a7a;}.cls-17{fill:url(#linear-gradient-9);}.cls-18{fill:#999;}.cls-19{fill:url(#linear-gradient-10);}.cls-20{fill:url(#linear-gradient-11);}.cls-21{fill:url(#linear-gradient-12);}.cls-22{fill:url(#linear-gradient-13);}.cls-23{fill:url(#linear-gradient-14);}.cls-24{fill:url(#linear-gradient-15);}.cls-25{fill:url(#linear-gradient-16);}.cls-26{fill:#6d6e70;}.cls-27{fill:#4d4d4f;}.cls-28{fill:#231f20;}.cls-29{fill:url(#linear-gradient-17);}.cls-30{fill:#5c5d60;}.cls-31{fill:url(#linear-gradient-18);}.cls-32{fill:url(#linear-gradient-19);}.cls-33{fill:url(#linear-gradient-20);}.cls-34{fill:url(#linear-gradient-21);}.cls-35{fill:url(#linear-gradient-22);}.cls-36{fill:url(#linear-gradient-23);}.cls-37{fill:url(#linear-gradient-24);}.cls-38{fill:#786dc6;}.cls-39{fill:#6558ac;}.cls-40{fill:#59529e;}.cls-41{fill:url(#linear-gradient-25);}.cls-42{fill:url(#linear-gradient-26);}.cls-43{fill:url(#linear-gradient-27);}.cls-44{fill:url(#linear-gradient-28);}.cls-45{fill:url(#linear-gradient-29);}.cls-46{fill:url(#linear-gradient-30);}.cls-47{fill:url(#linear-gradient-31);}.cls-48{fill:url(#linear-gradient-32);}.cls-49{fill:url(#linear-gradient-33);}.cls-50{fill:url(#linear-gradient-34);}.cls-51{fill:url(#linear-gradient-35);}.cls-52{fill:url(#linear-gradient-36);}.cls-53{fill:url(#linear-gradient-37);}.cls-54{fill:url(#linear-gradient-38);}.cls-55{fill:url(#linear-gradient-39);}.cls-56{fill:url(#linear-gradient-40);}.cls-57{fill:url(#linear-gradient-41);}.cls-58{fill:url(#linear-gradient-42);}.cls-59{fill:url(#linear-gradient-43);}.cls-60{fill:url(#linear-gradient-44);}.cls-61{fill:url(#linear-gradient-45);}.cls-62{fill:url(#linear-gradient-46);}.cls-63{fill:url(#linear-gradient-47);}.cls-64{fill:url(#linear-gradient-48);}.cls-65{fill:url(#linear-gradient-49);}.cls-66{fill:url(#linear-gradient-50);}.cls-67{fill:url(#linear-gradient-51);}.cls-68{fill:url(#linear-gradient-52);}.cls-69{fill:url(#linear-gradient-53);}.cls-70{fill:url(#linear-gradient-54);}.cls-71{fill:url(#linear-gradient-55);}.cls-72{fill:url(#linear-gradient-56);}.cls-73{fill:url(#linear-gradient-57);}.cls-74{fill:url(#linear-gradient-58);}.cls-75{fill:url(#linear-gradient-59);}.cls-76{fill:url(#linear-gradient-60);}.cls-77{fill:url(#linear-gradient-61);}.cls-78{fill:url(#linear-gradient-62);}.cls-79{fill:url(#linear-gradient-63);}.cls-80{fill:url(#linear-gradient-64);}.cls-81,.cls-82{mix-blend-mode:darken;}.cls-81{fill:url(#radial-gradient);}.cls-82{fill:url(#radial-gradient-2);}.cls-83{fill:none;stroke:#dbdcdd;stroke-linecap:round;stroke-linejoin:round;stroke-width:8px;}</style><linearGradient id="linear-gradient" x1="-12440.842" y1="351.939" x2="-12416.699" y2="351.939" gradientTransform="matrix(0.539, 0.842, 0.842, -0.539, 6492.801, 10873.53)" gradientUnits="userSpaceOnUse"><stop offset="0" stop-color="#a6a8ab"/><stop offset="0.25" stop-color="#d0d2d3"/><stop offset="0.368" stop-color="#d0d2d3"/><stop offset="1" stop-color="#a6a8ab"/></linearGradient><linearGradient id="linear-gradient-2" x1="-12416.693" y1="365.109" x2="-12392.556" y2="365.109" xlink:href="#linear-gradient"/><linearGradient id="linear-gradient-3" x1="-12392.55" y1="378.278" x2="-12368.413" y2="378.278" xlink:href="#linear-gradient"/><linearGradient id="linear-gradient-4" x1="-12368.406" y1="391.448" x2="-12344.269" y2="391.448" xlink:href="#linear-gradient"/><linearGradient id="linear-gradient-5" x1="-12416.699" y1="338.768" x2="-12392.556" y2="338.768" xlink:href="#linear-gradient"/><linearGradient id="linear-gradient-6" x1="-12392.55" y1="351.939" x2="-12368.413" y2="351.939" xlink:href="#linear-gradient"/><linearGradient id="linear-gradient-7" x1="-12368.406" y1="365.109" x2="-12344.269" y2="365.109" xlink:href="#linear-gradient"/><linearGradient id="linear-gradient-8" x1="-12344.263" y1="378.278" x2="-12320.123" y2="378.278" xlink:href="#linear-gradient"/><linearGradient id="linear-gradient-9" x1="-12277.614" y1="134.388" x2="-12253.471" y2="134.388" gradientTransform="matrix(-0.899, 0.437, 0.437, 0.899, -10873.551, 5366.6)" gradientUnits="userSpaceOnUse"><stop offset="0" stop-color="#7a7a7a"/><stop offset="0.25" stop-color="#939393"/><stop offset="0.368" stop-color="#a0a0a0"/><stop offset="1" stop-color="#7a7a7a"/></linearGradient><linearGradient id="linear-gradient-10" x1="-12253.465" y1="147.559" x2="-12229.328" y2="147.559" xlink:href="#linear-gradient-9"/><linearGradient id="linear-gradient-11" x1="-12229.322" y1="160.729" x2="-12205.185" y2="160.729" xlink:href="#linear-gradient-9"/><linearGradient id="linear-gradient-12" x1="-12205.178" y1="173.898" x2="-12181.041" y2="173.898" xlink:href="#linear-gradient-9"/><linearGradient id="linear-gradient-13" x1="-12253.471" y1="121.217" x2="-12229.328" y2="121.217" xlink:href="#linear-gradient-9"/><linearGradient id="linear-gradient-14" x1="-12229.322" y1="134.388" x2="-12205.185" y2="134.388" xlink:href="#linear-gradient-9"/><linearGradient id="linear-gradient-15" x1="-12205.178" y1="147.558" x2="-12181.041" y2="147.558" xlink:href="#linear-gradient-9"/><linearGradient id="linear-gradient-16" x1="-12181.035" y1="160.727" x2="-12156.895" y2="160.727" xlink:href="#linear-gradient-9"/><linearGradient id="linear-gradient-17" x1="-12331.174" y1="163.8" x2="-12307.032" y2="163.8" gradientTransform="matrix(-0.393, -0.919, -0.919, 0.393, -4554.857, -11217.347)" gradientUnits="userSpaceOnUse"><stop offset="0" stop-color="#231f20"/><stop offset="0.25" stop-color="#4d4d4f"/><stop offset="0.368" stop-color="#4d4d4f"/><stop offset="1" stop-color="#231f20"/></linearGradient><linearGradient id="linear-gradient-18" x1="-12307.026" y1="176.969" x2="-12282.89" y2="176.969" xlink:href="#linear-gradient-17"/><linearGradient id="linear-gradient-19" x1="-12282.884" y1="190.138" x2="-12258.748" y2="190.138" xlink:href="#linear-gradient-17"/><linearGradient id="linear-gradient-20" x1="-12258.741" y1="203.308" x2="-12234.605" y2="203.308" xlink:href="#linear-gradient-17"/><linearGradient id="linear-gradient-21" x1="-12307.032" y1="150.63" x2="-12282.89" y2="150.63" xlink:href="#linear-gradient-17"/><linearGradient id="linear-gradient-22" x1="-12282.884" y1="163.8" x2="-12258.748" y2="163.8" xlink:href="#linear-gradient-17"/><linearGradient id="linear-gradient-23" x1="-12258.741" y1="176.969" x2="-12234.605" y2="176.969" xlink:href="#linear-gradient-17"/><linearGradient id="linear-gradient-24" x1="-12234.599" y1="190.138" x2="-12210.46" y2="190.138" xlink:href="#linear-gradient-17"/><linearGradient id="linear-gradient-25" x1="-12313.574" y1="48.093" x2="-12289.43" y2="48.093" gradientTransform="matrix(-0.7, 0.714, 0.714, 0.7, -8473.92, 8787.566)" gradientUnits="userSpaceOnUse"><stop offset="0" stop-color="#3a3567"/><stop offset="0.25" stop-color="#685aad"/><stop offset="0.368" stop-color="#685aad"/><stop offset="1" stop-color="#3a3567"/></linearGradient><linearGradient id="linear-gradient-26" x1="-12289.425" y1="61.263" x2="-12265.287" y2="61.263" xlink:href="#linear-gradient-25"/><linearGradient id="linear-gradient-27" x1="-12265.281" y1="74.432" x2="-12241.144" y2="74.432" xlink:href="#linear-gradient-25"/><linearGradient id="linear-gradient-28" x1="-12241.138" y1="87.602" x2="-12217.001" y2="87.602" xlink:href="#linear-gradient-25"/><linearGradient id="linear-gradient-29" x1="-12289.43" y1="34.922" x2="-12265.287" y2="34.922" xlink:href="#linear-gradient-25"/><linearGradient id="linear-gradient-30" x1="-12265.281" y1="48.093" x2="-12241.144" y2="48.093" xlink:href="#linear-gradient-25"/><linearGradient id="linear-gradient-31" x1="-12241.138" y1="61.263" x2="-12217.001" y2="61.263" xlink:href="#linear-gradient-25"/><linearGradient id="linear-gradient-32" x1="-12216.995" y1="74.432" x2="-12192.854" y2="74.432" xlink:href="#linear-gradient-25"/><linearGradient id="linear-gradient-33" x1="-12049.425" y1="199.071" x2="-12025.281" y2="199.071" gradientTransform="translate(12441.96)" xlink:href="#linear-gradient"/><linearGradient id="linear-gradient-34" x1="-12025.276" y1="212.241" x2="-12001.138" y2="212.241" gradientTransform="translate(12441.96)" xlink:href="#linear-gradient"/><linearGradient id="linear-gradient-35" x1="-12001.132" y1="225.41" x2="-11976.995" y2="225.41" gradientTransform="translate(12441.96)" xlink:href="#linear-gradient"/><linearGradient id="linear-gradient-36" x1="-11976.989" y1="238.58" x2="-11952.852" y2="238.58" gradientTransform="translate(12441.96)" xlink:href="#linear-gradient"/><linearGradient id="linear-gradient-37" x1="-12025.281" y1="185.9" x2="-12001.138" y2="185.9" gradientTransform="translate(12441.96)" xlink:href="#linear-gradient"/><linearGradient id="linear-gradient-38" x1="-12001.132" y1="199.071" x2="-11976.995" y2="199.071" gradientTransform="translate(12441.96)" xlink:href="#linear-gradient"/><linearGradient id="linear-gradient-39" x1="-11976.989" y1="212.241" x2="-11952.852" y2="212.241" gradientTransform="translate(12441.96)" xlink:href="#linear-gradient"/><linearGradient id="linear-gradient-40" x1="-11952.846" y1="225.41" x2="-11928.706" y2="225.41" gradientTransform="translate(12441.96)" xlink:href="#linear-gradient"/><linearGradient id="linear-gradient-41" x1="-12049.429" y1="159.56" x2="-12025.286" y2="159.56" gradientTransform="translate(12441.96)" xlink:href="#linear-gradient-9"/><linearGradient id="linear-gradient-42" x1="-12025.28" y1="172.731" x2="-12001.143" y2="172.731" gradientTransform="translate(12441.96)" xlink:href="#linear-gradient-9"/><linearGradient id="linear-gradient-43" x1="-12001.137" y1="185.901" x2="-11977" y2="185.901" gradientTransform="translate(12441.96)" xlink:href="#linear-gradient-9"/><linearGradient id="linear-gradient-44" x1="-11976.994" y1="199.07" x2="-11952.856" y2="199.07" gradientTransform="translate(12441.96)" xlink:href="#linear-gradient-9"/><linearGradient id="linear-gradient-45" x1="-12025.286" y1="146.389" x2="-12001.143" y2="146.389" gradientTransform="translate(12441.96)" xlink:href="#linear-gradient-9"/><linearGradient id="linear-gradient-46" x1="-12001.137" y1="159.56" x2="-11977" y2="159.56" gradientTransform="translate(12441.96)" xlink:href="#linear-gradient-9"/><linearGradient id="linear-gradient-47" x1="-11976.994" y1="172.729" x2="-11952.856" y2="172.729" gradientTransform="translate(12441.96)" xlink:href="#linear-gradient-9"/><linearGradient id="linear-gradient-48" x1="-11952.85" y1="185.899" x2="-11928.71" y2="185.899" gradientTransform="translate(12441.96)" xlink:href="#linear-gradient-9"/><linearGradient id="linear-gradient-49" x1="-12049.424" y1="120.346" x2="-12025.282" y2="120.346" gradientTransform="translate(12441.96)" xlink:href="#linear-gradient-17"/><linearGradient id="linear-gradient-50" x1="-12025.276" y1="133.515" x2="-12001.139" y2="133.515" gradientTransform="translate(12441.96)" xlink:href="#linear-gradient-17"/><linearGradient id="linear-gradient-51" x1="-12001.133" y1="146.684" x2="-11976.997" y2="146.684" gradientTransform="translate(12441.96)" xlink:href="#linear-gradient-17"/><linearGradient id="linear-gradient-52" x1="-11976.991" y1="159.853" x2="-11952.855" y2="159.853" gradientTransform="translate(12441.96)" xlink:href="#linear-gradient-17"/><linearGradient id="linear-gradient-53" x1="-12025.282" y1="107.175" x2="-12001.139" y2="107.175" gradientTransform="translate(12441.96)" xlink:href="#linear-gradient-17"/><linearGradient id="linear-gradient-54" x1="-12001.133" y1="120.346" x2="-11976.997" y2="120.346" gradientTransform="translate(12441.96)" xlink:href="#linear-gradient-17"/><linearGradient id="linear-gradient-55" x1="-11976.991" y1="133.515" x2="-11952.855" y2="133.515" gradientTransform="translate(12441.96)" xlink:href="#linear-gradient-17"/><linearGradient id="linear-gradient-56" x1="-11952.849" y1="146.684" x2="-11928.71" y2="146.684" gradientTransform="translate(12441.96)" xlink:href="#linear-gradient-17"/><linearGradient id="linear-gradient-57" x1="-12049.423" y1="80.852" x2="-12025.28" y2="80.852" gradientTransform="translate(12441.96)" xlink:href="#linear-gradient-25"/><linearGradient id="linear-gradient-58" x1="-12025.274" y1="94.022" x2="-12001.137" y2="94.022" gradientTransform="translate(12441.96)" xlink:href="#linear-gradient-25"/><linearGradient id="linear-gradient-59" x1="-12001.131" y1="107.191" x2="-11976.994" y2="107.191" gradientTransform="translate(12441.96)" xlink:href="#linear-gradient-25"/><linearGradient id="linear-gradient-60" x1="-11976.988" y1="120.361" x2="-11952.85" y2="120.361" gradientTransform="translate(12441.96)" xlink:href="#linear-gradient-25"/><linearGradient id="linear-gradient-61" x1="-12025.28" y1="67.681" x2="-12001.137" y2="67.681" gradientTransform="translate(12441.96)" xlink:href="#linear-gradient-25"/><linearGradient id="linear-gradient-62" x1="-12001.131" y1="80.852" x2="-11976.994" y2="80.852" gradientTransform="translate(12441.96)" xlink:href="#linear-gradient-25"/><linearGradient id="linear-gradient-63" x1="-11976.988" y1="94.022" x2="-11952.85" y2="94.022" gradientTransform="translate(12441.96)" xlink:href="#linear-gradient-25"/><linearGradient id="linear-gradient-64" x1="-11952.844" y1="107.191" x2="-11928.704" y2="107.191" gradientTransform="translate(12441.96)" xlink:href="#linear-gradient-25"/><radialGradient id="radial-gradient" cx="-68.096" cy="47382.371" r="102.712" gradientTransform="translate(236.226 -4971.607) scale(1.083 0.112)" gradientUnits="userSpaceOnUse"><stop offset="0" stop-color="#e6e6e6"/><stop offset="0.582" stop-color="#f8f8f8"/><stop offset="1" stop-color="#fff"/></radialGradient><radialGradient id="radial-gradient-2" cx="188.853" cy="47385.736" r="102.712" xlink:href="#radial-gradient"/></defs><g class="cls-1"><g id="Layer_1" data-name="Layer 1"><polygon class="cls-2" points="74.09 196.492 170.532 249.42 174.393 304.289 77.95 251.365 74.09 196.492"/><polygon class="cls-3" points="203.805 228.116 170.532 249.42 174.393 304.295 207.663 282.986 203.805 228.116"/><polygon class="cls-4" points="170.536 249.425 74.093 196.497 107.363 175.187 203.805 228.116 170.536 249.425"/><path class="cls-5" d="M75.058,210.21l5.543-3.549c3.065-1.962,8.465,1,12.059,6.616s4.025,11.754.96,13.716l-5.543,3.549Z"/><path class="cls-2" d="M85.886,231.122c-3.127,0-7.081-2.9-9.841-7.206A18.149,18.149,0,0,1,73.07,215.7c-.182-2.583.529-4.524,2-5.467a3.967,3.967,0,0,1,2.176-.6c3.126,0,7.083,2.9,9.844,7.21,3.581,5.593,4.017,11.729.971,13.68a3.968,3.968,0,0,1-2.178.6Z"/><path class="cls-6" d="M77.248,209.655c3.119,0,7.067,2.894,9.825,7.2,3.573,5.581,4.012,11.7.978,13.645a3.951,3.951,0,0,1-2.165.6c-3.118,0-7.064-2.891-9.82-7.2-3.575-5.583-4.015-11.707-.981-13.65a3.942,3.942,0,0,1,2.163-.6m0-.05a4,4,0,0,0-2.19.605c-3.061,1.961-2.629,8.1.966,13.719,2.842,4.439,6.811,7.218,9.862,7.218a3.99,3.99,0,0,0,2.191-.6c3.062-1.96,2.633-8.1-.962-13.714-2.843-4.44-6.815-7.223-9.867-7.223Z"/><path class="cls-7" d="M99.171,223.446l5.546-3.551c3.064-1.962,8.458,1,12.053,6.613s4.027,11.752.962,13.714l-5.545,3.551Z"/><path class="cls-2" d="M110,244.353c-3.124,0-7.078-2.9-9.839-7.209-3.581-5.592-4.017-11.727-.972-13.678a3.975,3.975,0,0,1,2.18-.6c3.126,0,7.081,2.9,9.84,7.206,3.581,5.593,4.016,11.73.968,13.682a3.965,3.965,0,0,1-2.177.6Z"/><path class="cls-6" d="M101.366,222.89c3.118,0,7.064,2.891,9.819,7.194a18.115,18.115,0,0,1,2.97,8.2c.179,2.571-.529,4.5-2,5.443a3.945,3.945,0,0,1-2.164.6c-3.116,0-7.061-2.892-9.818-7.2-3.573-5.581-4.013-11.7-.98-13.643a3.949,3.949,0,0,1,2.168-.6m0-.05a4,4,0,0,0-2.195.606c-3.062,1.96-2.629,8.1.965,13.712,2.843,4.44,6.81,7.22,9.86,7.22a4,4,0,0,0,2.191-.6c3.064-1.962,2.635-8.1-.96-13.716-2.842-4.438-6.81-7.217-9.861-7.217Z"/><path class="cls-8" d="M123.281,236.677l5.546-3.551c3.064-1.962,8.458,1,12.053,6.612s4.027,11.753.962,13.715L136.3,257Z"/><path class="cls-2" d="M134.106,257.584c-3.124,0-7.078-2.9-9.838-7.208-3.581-5.593-4.018-11.729-.973-13.679a3.979,3.979,0,0,1,2.181-.6c3.126,0,7.081,2.9,9.84,7.206,3.581,5.592,4.015,11.73.967,13.681a3.956,3.956,0,0,1-2.176.6Z"/><path class="cls-6" d="M125.476,236.121c3.118,0,7.064,2.891,9.819,7.193a18.1,18.1,0,0,1,2.969,8.205c.18,2.571-.528,4.5-1.994,5.442a3.938,3.938,0,0,1-2.164.6c-3.116,0-7.062-2.892-9.818-7.2a18.126,18.126,0,0,1-2.971-8.2c-.181-2.57.526-4.5,1.991-5.44a3.949,3.949,0,0,1,2.168-.6m0-.05a4,4,0,0,0-2.195.606c-3.062,1.96-2.63,8.1.965,13.712,2.842,4.439,6.81,7.22,9.86,7.22a4,4,0,0,0,2.191-.6c3.064-1.963,2.635-8.1-.96-13.717-2.842-4.438-6.81-7.216-9.861-7.216Z"/><path class="cls-9" d="M147.391,249.907l5.545-3.55c3.065-1.963,8.459,1,12.053,6.612s4.027,11.753.963,13.715l-5.545,3.55Z"/><path class="cls-2" d="M158.215,270.814c-3.124,0-7.078-2.9-9.838-7.208-3.581-5.592-4.017-11.728-.972-13.678a3.975,3.975,0,0,1,2.18-.6c3.126,0,7.081,2.9,9.84,7.206a18.143,18.143,0,0,1,2.974,8.216c.18,2.58-.532,4.521-2.006,5.465a3.967,3.967,0,0,1-2.177.6Z"/><path class="cls-6" d="M149.585,249.351c3.118,0,7.064,2.891,9.82,7.195,3.573,5.58,4.011,11.7.975,13.646a3.938,3.938,0,0,1-2.164.6c-3.116,0-7.062-2.893-9.818-7.2a18.13,18.13,0,0,1-2.971-8.2c-.181-2.571.526-4.5,1.991-5.441a3.948,3.948,0,0,1,2.167-.6m0-.05a4,4,0,0,0-2.194.606c-3.062,1.961-2.63,8.1.965,13.713,2.842,4.439,6.81,7.22,9.86,7.22a3.993,3.993,0,0,0,2.191-.606c3.064-1.962,2.634-8.1-.96-13.715-2.842-4.439-6.81-7.218-9.862-7.218Z"/><path class="cls-10" d="M76.986,237.644l5.543-3.549c3.062-1.961,8.462,1,12.057,6.618s4.024,11.753.962,13.714l-5.543,3.549Z"/><path class="cls-2" d="M87.811,258.557c-3.126,0-7.081-2.9-9.84-7.206A18.163,18.163,0,0,1,75,243.133c-.18-2.583.532-4.524,2-5.467a3.953,3.953,0,0,1,2.176-.6c3.125,0,7.081,2.9,9.843,7.213,3.581,5.593,4.017,11.729.972,13.678a3.975,3.975,0,0,1-2.18.6Z"/><path class="cls-6" d="M79.176,237.089c3.117,0,7.064,2.894,9.822,7.2a18.122,18.122,0,0,1,2.971,8.2c.181,2.571-.526,4.5-1.99,5.441a3.951,3.951,0,0,1-2.168.6c-3.118,0-7.064-2.891-9.819-7.194-3.575-5.584-4.014-11.708-.979-13.652a3.942,3.942,0,0,1,2.163-.6m0-.05a4,4,0,0,0-2.19.605c-3.064,1.962-2.631,8.107.964,13.721,2.842,4.438,6.809,7.217,9.861,7.217a4,4,0,0,0,2.194-.606c3.062-1.961,2.63-8.1-.965-13.713-2.843-4.44-6.813-7.224-9.864-7.224Z"/><path class="cls-11" d="M101.1,250.88l5.542-3.549c3.065-1.963,8.461,1,12.056,6.61s4.024,11.754.96,13.717l-5.543,3.549Z"/><path class="cls-2" d="M111.924,271.787c-3.127,0-7.081-2.9-9.841-7.207a18.118,18.118,0,0,1-2.973-8.215c-.182-2.58.53-4.521,2-5.464a3.965,3.965,0,0,1,2.177-.6c3.126,0,7.08,2.895,9.84,7.206,3.581,5.592,4.017,11.729.971,13.679a3.96,3.96,0,0,1-2.178.6Z"/><path class="cls-6" d="M103.292,250.324c3.117,0,7.063,2.892,9.819,7.195,3.573,5.581,4.012,11.7.977,13.646a3.946,3.946,0,0,1-2.165.6c-3.117,0-7.063-2.892-9.819-7.195-3.573-5.581-4.012-11.7-.978-13.645a3.944,3.944,0,0,1,2.166-.6m0-.05a3.992,3.992,0,0,0-2.192.606c-3.062,1.96-2.633,8.1.962,13.714,2.842,4.439,6.811,7.218,9.861,7.218a4,4,0,0,0,2.192-.605c3.062-1.961,2.633-8.1-.962-13.715-2.843-4.438-6.811-7.218-9.861-7.218Z"/><path class="cls-12" d="M125.209,264.11l5.543-3.549c3.065-1.962,8.461,1,12.056,6.611s4.024,11.754.96,13.716l-5.543,3.55Z"/><path class="cls-2" d="M136.032,285.017c-3.125,0-7.08-2.895-9.838-7.206-3.582-5.592-4.018-11.728-.971-13.679a3.958,3.958,0,0,1,2.178-.6c3.126,0,7.08,2.9,9.839,7.207a18.126,18.126,0,0,1,2.975,8.216c.181,2.58-.531,4.52-2,5.463a3.966,3.966,0,0,1-2.178.6Z"/><path class="cls-6" d="M127.4,263.555c3.118,0,7.064,2.892,9.819,7.195a18.115,18.115,0,0,1,2.97,8.2c.18,2.571-.527,4.5-1.992,5.441a3.939,3.939,0,0,1-2.165.6c-3.117,0-7.064-2.892-9.819-7.195a18.115,18.115,0,0,1-2.97-8.2c-.18-2.571.527-4.5,1.992-5.442a3.949,3.949,0,0,1,2.165-.6m0-.05a4,4,0,0,0-2.192.605c-3.062,1.961-2.632,8.1.963,13.715,2.842,4.438,6.811,7.218,9.861,7.218a4,4,0,0,0,2.192-.605c3.062-1.961,2.632-8.1-.963-13.715-2.842-4.439-6.811-7.218-9.861-7.218Z"/><path class="cls-13" d="M149.319,277.341l5.543-3.549c3.064-1.962,8.459.994,12.054,6.608s4.028,11.76.963,13.722l-5.543,3.549Z"/><path class="cls-2" d="M160.146,298.251c-3.128,0-7.084-2.9-9.845-7.212a18.13,18.13,0,0,1-2.973-8.214c-.18-2.579.532-4.52,2-5.462a3.974,3.974,0,0,1,2.18-.6c3.125,0,7.078,2.9,9.837,7.2a18.152,18.152,0,0,1,2.975,8.218c.182,2.582-.529,4.524-2,5.466a3.956,3.956,0,0,1-2.176.6Z"/><path class="cls-6" d="M151.512,276.786c3.117,0,7.062,2.89,9.816,7.192a18.126,18.126,0,0,1,2.972,8.207c.181,2.573-.526,4.506-1.99,5.444a3.945,3.945,0,0,1-2.164.6c-3.119,0-7.067-2.894-9.824-7.2-3.573-5.58-4.011-11.7-.976-13.643a3.95,3.95,0,0,1,2.166-.6m0-.05a3.994,3.994,0,0,0-2.193.605c-3.062,1.96-2.634,8.1.961,13.712,2.843,4.44,6.815,7.223,9.866,7.223a3.993,3.993,0,0,0,2.19-.605c3.062-1.961,2.63-8.105-.965-13.72-2.842-4.438-6.809-7.215-9.859-7.215Z"/><polygon class="cls-14" points="238.204 114.608 174.374 204.208 119.429 201.632 183.256 112.032 238.204 114.608"/><polygon class="cls-15" points="191.646 239.741 174.374 204.208 119.423 201.633 136.701 237.164 191.646 239.741"/><polygon class="cls-16" points="174.368 204.211 238.198 114.611 255.477 150.141 191.646 239.741 174.368 204.211"/><path class="cls-17" d="M224.466,113.966l2.878,5.921c1.59,3.271-1.985,8.287-7.98,11.2s-12.143,2.625-13.733-.646l-2.879-5.921Z"/><path class="cls-18" d="M202.752,124.521c1.591,3.271,7.738,3.561,13.733.646s9.571-7.93,7.981-11.2-7.743-3.558-13.738-.643S201.162,121.25,202.752,124.521Z"/><path class="cls-19" d="M208.505,136.369l2.878,5.921c1.591,3.272-1.979,8.284-7.975,11.2s-12.143,2.625-13.733-.646l-2.878-5.921Z"/><path class="cls-18" d="M186.8,146.922c1.59,3.271,7.737,3.56,13.733.646s9.566-7.927,7.975-11.2-7.737-3.56-13.733-.646S185.207,143.65,186.8,146.922Z"/><path class="cls-20" d="M192.549,158.769l2.878,5.921c1.59,3.271-1.98,8.284-7.975,11.2s-12.143,2.625-13.733-.646l-2.878-5.921Z"/><path class="cls-18" d="M170.841,169.321c1.59,3.271,7.737,3.561,13.733.646s9.565-7.927,7.975-11.2-7.737-3.561-13.733-.646S169.251,166.05,170.841,169.321Z"/><path class="cls-21" d="M176.593,181.168l2.878,5.921c1.59,3.271-1.98,8.284-7.976,11.2s-12.142,2.626-13.732-.646l-2.878-5.92Z"/><path class="cls-18" d="M154.885,191.721c1.59,3.271,7.737,3.56,13.732.645s9.566-7.927,7.976-11.2-7.737-3.56-13.733-.646S153.294,188.449,154.885,191.721Z"/><path class="cls-22" d="M196.994,112.675l2.878,5.921c1.591,3.271-1.985,8.287-7.98,11.2s-12.143,2.625-13.733-.646l-2.878-5.921Z"/><path class="cls-18" d="M175.281,123.23c1.59,3.272,7.737,3.561,13.733.646s9.57-7.929,7.98-11.2-7.742-3.557-13.738-.643S173.69,119.959,175.281,123.23Z"/><path class="cls-23" d="M181.033,135.079,183.911,141c1.59,3.271-1.979,8.284-7.975,11.2s-12.143,2.625-13.733-.646l-2.878-5.921Z"/><path class="cls-18" d="M159.325,145.631c1.59,3.271,7.737,3.561,13.733.646s9.565-7.927,7.975-11.2-7.737-3.561-13.732-.646S157.735,142.36,159.325,145.631Z"/><path class="cls-24" d="M165.077,157.478l2.878,5.921c1.59,3.271-1.979,8.284-7.975,11.2s-12.143,2.626-13.733-.646l-2.878-5.92Z"/><path class="cls-18" d="M143.369,168.031c1.59,3.271,7.737,3.56,13.733.645s9.565-7.927,7.975-11.2-7.737-3.56-13.733-.646S141.779,164.759,143.369,168.031Z"/><path class="cls-25" d="M149.121,179.877,152,185.8c1.59,3.271-1.977,8.283-7.973,11.2s-12.148,2.628-13.738-.643l-2.878-5.921Z"/><path class="cls-18" d="M127.41,190.431c1.59,3.271,7.743,3.558,13.738.644s9.563-7.926,7.973-11.2-7.735-3.561-13.73-.647S125.82,187.16,127.41,190.431Z"/><polygon class="cls-26" points="147.747 196.159 61.341 128.074 66.569 73.321 152.976 141.402 147.747 196.159"/><polygon class="cls-27" points="25.016 143.608 61.341 128.074 66.57 73.314 30.247 88.854 25.016 143.608"/><polygon class="cls-28" points="61.339 128.069 147.744 196.153 111.422 211.693 25.016 143.608 61.339 128.069"/><path class="cls-29" d="M149.051,182.469,143,185.057c-3.345,1.431-8.183-2.382-10.8-8.511s-2.034-12.256,1.312-13.686l6.051-2.588Z"/><path class="cls-26" d="M147.547,182.745c-3.246,0-7.059-3.618-9.274-8.8a18.14,18.14,0,0,1-1.581-8.593c.247-2.575,1.268-4.371,2.877-5.059a3.775,3.775,0,0,1,1.494-.3c3.245,0,7.057,3.616,9.271,8.793a18.149,18.149,0,0,1,1.582,8.595c-.246,2.577-1.267,4.375-2.875,5.062a3.773,3.773,0,0,1-1.493.3Z"/><path class="cls-30" d="M141.063,160.021a7.709,7.709,0,0,1,4.958,2.419,19.228,19.228,0,0,1,4.291,6.359c2.606,6.1,2.032,12.208-1.281,13.625a3.759,3.759,0,0,1-1.484.3,7.707,7.707,0,0,1-4.959-2.421,19.23,19.23,0,0,1-4.293-6.362,18.111,18.111,0,0,1-1.578-8.58c.246-2.566,1.262-4.355,2.861-5.039a3.751,3.751,0,0,1,1.485-.3m0-.05a3.8,3.8,0,0,0-1.5.3c-3.343,1.429-3.93,7.556-1.309,13.685,2.249,5.259,6.13,8.813,9.3,8.813a3.794,3.794,0,0,0,1.5-.3c3.342-1.429,3.928-7.561,1.306-13.69-2.248-5.258-6.127-8.808-9.294-8.808Z"/><path class="cls-31" d="M127.448,165.444l-6.055,2.589c-3.345,1.431-8.178-2.378-10.8-8.507s-2.036-12.254,1.309-13.685l6.054-2.589Z"/><path class="cls-26" d="M125.941,165.72c-3.245,0-7.059-3.615-9.272-8.792a18.138,18.138,0,0,1-1.58-8.592c.246-2.576,1.269-4.373,2.878-5.061a3.779,3.779,0,0,1,1.5-.3c3.243,0,7.055,3.615,9.269,8.793,2.611,6.106,2.031,12.23-1.293,13.652a3.792,3.792,0,0,1-1.5.3Z"/><path class="cls-30" d="M119.462,143c3.234,0,7.036,3.609,9.246,8.778a18.127,18.127,0,0,1,1.579,8.58c-.245,2.565-1.26,4.355-2.859,5.038a3.76,3.76,0,0,1-1.487.3c-3.236,0-7.04-3.609-9.249-8.776-2.606-6.093-2.029-12.2,1.285-13.621a3.75,3.75,0,0,1,1.485-.3m0-.05a3.789,3.789,0,0,0-1.5.3c-3.346,1.431-3.933,7.557-1.312,13.686,2.248,5.258,6.126,8.807,9.3,8.807a3.794,3.794,0,0,0,1.507-.3c3.342-1.429,3.927-7.554,1.306-13.684-2.249-5.258-6.125-8.808-9.292-8.808Z"/><path class="cls-32" d="M105.847,148.424l-6.054,2.589c-3.346,1.431-8.179-2.378-10.8-8.507s-2.036-12.254,1.31-13.685l6.054-2.589Z"/><path class="cls-26" d="M104.34,148.7c-3.246,0-7.058-3.615-9.271-8.791a18.118,18.118,0,0,1-1.58-8.593c.246-2.576,1.268-4.373,2.877-5.061a3.779,3.779,0,0,1,1.5-.3c3.244,0,7.055,3.616,9.269,8.793a18.141,18.141,0,0,1,1.582,8.592c-.246,2.575-1.267,4.372-2.875,5.059a3.793,3.793,0,0,1-1.5.3Z"/><path class="cls-30" d="M97.861,125.982c3.234,0,7.036,3.61,9.246,8.778,2.606,6.093,2.031,12.2-1.28,13.618a3.76,3.76,0,0,1-1.487.3c-3.236,0-7.039-3.609-9.249-8.776a18.1,18.1,0,0,1-1.578-8.581c.246-2.566,1.263-4.355,2.864-5.04a3.741,3.741,0,0,1,1.484-.3m0-.05a3.8,3.8,0,0,0-1.5.3c-3.346,1.431-3.933,7.557-1.312,13.686,2.248,5.258,6.126,8.807,9.3,8.807a3.794,3.794,0,0,0,1.507-.3c3.342-1.429,3.927-7.554,1.306-13.683-2.248-5.259-6.125-8.809-9.292-8.809Z"/><path class="cls-33" d="M84.246,131.4l-6.054,2.589c-3.346,1.431-8.179-2.377-10.8-8.507S65.356,113.232,68.7,111.8l6.054-2.589Z"/><path class="cls-26" d="M82.74,131.68c-3.247,0-7.06-3.615-9.273-8.791a18.128,18.128,0,0,1-1.58-8.593c.247-2.576,1.27-4.373,2.879-5.061a3.777,3.777,0,0,1,1.494-.3c3.243,0,7.055,3.616,9.269,8.793,2.611,6.106,2.031,12.23-1.292,13.652a3.792,3.792,0,0,1-1.5.3Z"/><path class="cls-30" d="M76.26,108.962c3.234,0,7.036,3.61,9.246,8.778a18.116,18.116,0,0,1,1.58,8.58c-.245,2.565-1.261,4.355-2.86,5.038a3.76,3.76,0,0,1-1.487.3c-3.236,0-7.04-3.609-9.249-8.776a18.1,18.1,0,0,1-1.578-8.581c.246-2.566,1.263-4.355,2.864-5.04a3.741,3.741,0,0,1,1.484-.3m0-.05a3.8,3.8,0,0,0-1.5.3c-3.346,1.431-3.933,7.557-1.312,13.686,2.248,5.258,6.126,8.807,9.3,8.807a3.794,3.794,0,0,0,1.507-.3c3.343-1.429,3.927-7.554,1.306-13.683-2.249-5.259-6.125-8.809-9.292-8.809Z"/><path class="cls-34" d="M151.667,155.094l-6.052,2.588c-3.342,1.429-8.18-2.384-10.8-8.513s-2.034-12.256,1.309-13.685l6.051-2.588Z"/><path class="cls-26" d="M150.163,155.369c-3.244,0-7.057-3.618-9.272-8.8-2.611-6.1-2.031-12.229,1.293-13.651a3.793,3.793,0,0,1,1.5-.3c3.245,0,7.059,3.616,9.272,8.792,2.613,6.109,2.031,12.236-1.3,13.659a3.773,3.773,0,0,1-1.493.3Z"/><path class="cls-30" d="M143.681,132.645c3.236,0,7.04,3.609,9.249,8.777a18.11,18.11,0,0,1,1.579,8.583c-.245,2.568-1.262,4.359-2.862,5.043a3.758,3.758,0,0,1-1.483.3,7.707,7.707,0,0,1-4.958-2.421,19.233,19.233,0,0,1-4.292-6.363,18.126,18.126,0,0,1-1.58-8.58c.245-2.565,1.261-4.354,2.86-5.038a3.76,3.76,0,0,1,1.487-.3m0-.05a3.812,3.812,0,0,0-1.507.3c-3.342,1.43-3.927,7.555-1.306,13.684,2.249,5.259,6.128,8.814,9.3,8.814a3.792,3.792,0,0,0,1.5-.3c3.345-1.431,3.93-7.563,1.309-13.692-2.248-5.258-6.126-8.807-9.295-8.807Z"/><path class="cls-35" d="M130.064,138.068l-6.052,2.588c-3.345,1.431-8.181-2.376-10.8-8.506s-2.033-12.255,1.312-13.686l6.052-2.588Z"/><path class="cls-26" d="M128.559,138.344c-3.245,0-7.058-3.615-9.272-8.792-2.611-6.106-2.029-12.231,1.3-13.653a3.779,3.779,0,0,1,1.5-.3c3.246,0,7.058,3.615,9.271,8.792,2.611,6.106,2.03,12.23-1.295,13.653A3.8,3.8,0,0,1,128.559,138.344Z"/><path class="cls-30" d="M122.078,115.626a7.71,7.71,0,0,1,4.958,2.418,19.228,19.228,0,0,1,4.291,6.359,18.127,18.127,0,0,1,1.578,8.581c-.246,2.565-1.262,4.355-2.861,5.038a3.751,3.751,0,0,1-1.485.3A7.707,7.707,0,0,1,123.6,135.9a19.213,19.213,0,0,1-4.291-6.358c-2.605-6.093-2.03-12.2,1.283-13.62a3.767,3.767,0,0,1,1.485-.3m0-.05a3.793,3.793,0,0,0-1.5.3c-3.343,1.43-3.931,7.556-1.31,13.685,2.249,5.258,6.127,8.808,9.3,8.808a3.776,3.776,0,0,0,1.5-.3c3.343-1.429,3.931-7.555,1.31-13.684-2.249-5.259-6.127-8.808-9.295-8.808Z"/><path class="cls-36" d="M108.463,121.049l-6.052,2.587c-3.345,1.431-8.18-2.376-10.8-8.506s-2.033-12.255,1.312-13.686l6.052-2.588Z"/><path class="cls-26" d="M106.957,121.324c-3.245,0-7.057-3.616-9.27-8.793-2.612-6.105-2.03-12.23,1.3-13.652a3.779,3.779,0,0,1,1.495-.3c3.244,0,7.056,3.615,9.27,8.792a18.128,18.128,0,0,1,1.58,8.593c-.246,2.575-1.267,4.372-2.876,5.06a3.772,3.772,0,0,1-1.5.3Z"/><path class="cls-30" d="M100.477,98.606a7.71,7.71,0,0,1,4.958,2.418,19.228,19.228,0,0,1,4.291,6.359c2.606,6.093,2.03,12.2-1.283,13.62a3.767,3.767,0,0,1-1.485.3A7.71,7.71,0,0,1,102,118.881a19.228,19.228,0,0,1-4.291-6.359,18.127,18.127,0,0,1-1.578-8.581c.246-2.565,1.262-4.355,2.861-5.039a3.767,3.767,0,0,1,1.485-.3m0-.05a3.8,3.8,0,0,0-1.5.3c-3.343,1.43-3.931,7.556-1.31,13.685,2.249,5.259,6.128,8.808,9.3,8.808a3.8,3.8,0,0,0,1.5-.3c3.342-1.43,3.93-7.556,1.309-13.686-2.249-5.257-6.127-8.807-9.3-8.807Z"/><path class="cls-37" d="M86.862,104.029l-6.051,2.588c-3.346,1.43-8.18-2.374-10.8-8.5s-2.036-12.261,1.309-13.692l6.052-2.587Z"/><path class="cls-26" d="M85.356,104.3c-3.244,0-7.056-3.614-9.269-8.789-2.612-6.109-2.032-12.236,1.293-13.658a3.778,3.778,0,0,1,1.494-.3c3.246,0,7.06,3.618,9.275,8.8a18.134,18.134,0,0,1,1.58,8.591c-.247,2.575-1.269,4.371-2.877,5.059a3.787,3.787,0,0,1-1.5.3Z"/><path class="cls-30" d="M78.874,81.583A7.712,7.712,0,0,1,83.834,84a19.239,19.239,0,0,1,4.292,6.362c2.6,6.092,2.029,12.2-1.284,13.617a3.751,3.751,0,0,1-1.486.3c-3.235,0-7.037-3.608-9.246-8.774C73.5,89.409,74.077,83.3,77.39,81.88a3.746,3.746,0,0,1,1.484-.3m0-.05a3.789,3.789,0,0,0-1.5.3c-3.343,1.429-3.928,7.561-1.307,13.69,2.248,5.258,6.125,8.8,9.292,8.8a3.8,3.8,0,0,0,1.506-.3c3.343-1.43,3.931-7.553,1.31-13.682-2.249-5.26-6.13-8.814-9.3-8.814Z"/><polygon class="cls-38" points="187.565 18.154 157.59 124.003 104.981 140.058 134.952 34.209 187.565 18.154"/><polygon class="cls-39" points="185.807 151.656 157.59 124.003 104.974 140.06 133.196 167.709 185.807 151.656"/><polygon class="cls-40" points="157.586 124.007 187.561 18.158 215.783 45.807 185.807 151.656 157.586 124.007"/><path class="cls-41" d="M174.413,22.171l4.7,4.607c2.6,2.547.92,8.473-3.746,13.235s-10.554,6.555-13.153,4.008l-4.7-4.607Z"/><path class="cls-38" d="M157.514,39.414c2.6,2.545,8.485.751,13.151-4.01s6.345-10.688,3.748-13.233-8.488-.746-13.154,4.015S154.918,36.869,157.514,39.414Z"/><path class="cls-42" d="M166.916,48.636l4.7,4.609c2.6,2.547.922,8.467-3.744,13.228s-10.552,6.558-13.15,4.011l-4.7-4.609Z"/><path class="cls-38" d="M150.022,65.875c2.6,2.547,8.486.753,13.152-4.008s6.341-10.684,3.742-13.231-8.482-.748-13.148,4.013S147.425,63.331,150.022,65.875Z"/><path class="cls-43" d="M159.423,75.1l4.7,4.609c2.6,2.547.922,8.467-3.744,13.229s-10.551,6.557-13.15,4.01l-4.7-4.609Z"/><path class="cls-38" d="M142.529,92.336c2.6,2.547,8.486.753,13.152-4.008s6.341-10.684,3.742-13.231-8.482-.748-13.148,4.013S139.932,89.791,142.529,92.336Z"/><path class="cls-44" d="M151.93,101.559l4.7,4.608c2.6,2.547.922,8.468-3.744,13.229s-10.551,6.557-13.15,4.01l-4.7-4.608Z"/><path class="cls-38" d="M135.036,118.8c2.6,2.546,8.486.752,13.152-4.009s6.341-10.684,3.742-13.23-8.481-.749-13.148,4.012S132.439,116.253,135.036,118.8Z"/><path class="cls-45" d="M148.109,30.2l4.7,4.607c2.6,2.545.918,8.472-3.748,13.233s-10.554,6.555-13.15,4.01l-4.7-4.606Z"/><path class="cls-38" d="M131.21,47.44c2.6,2.544,8.482.748,13.148-4.013s6.347-10.686,3.751-13.231-8.491-.748-13.157,4.013S128.611,44.893,131.21,47.44Z"/><path class="cls-46" d="M140.611,56.662l4.7,4.607c2.6,2.546.924,8.469-3.742,13.23s-10.553,6.555-13.152,4.008l-4.7-4.606Z"/><path class="cls-38" d="M123.717,73.9c2.6,2.544,8.484.75,13.15-4.011s6.341-10.683,3.744-13.228-8.483-.751-13.149,4.01S121.121,71.356,123.717,73.9Z"/><path class="cls-47" d="M133.119,83.123l4.7,4.607c2.6,2.547.923,8.469-3.743,13.23s-10.553,6.556-13.152,4.009l-4.7-4.607Z"/><ellipse class="cls-38" cx="124.672" cy="91.742" rx="12.069" ry="6.585" transform="translate(-28.113 116.57) rotate(-45.578)"/><path class="cls-48" d="M125.626,109.584l4.7,4.607c2.6,2.547.926,8.467-3.74,13.228s-10.558,6.56-13.157,4.013l-4.7-4.607Z"/><path class="cls-38" d="M108.729,126.825c2.6,2.545,8.489.746,13.155-4.015s6.339-10.681,3.742-13.226-8.482-.753-13.148,4.008S106.133,124.28,108.729,126.825Z"/><polygon class="cls-2" points="380.46 199.068 477.039 251.746 525.329 225.41 428.753 172.729 380.46 199.068"/><polygon class="cls-3" points="477.039 291.255 477.039 251.746 525.335 225.407 525.329 264.916 477.039 291.255"/><polygon class="cls-4" points="477.045 251.746 380.467 199.068 380.46 238.577 477.039 291.255 477.045 251.746"/><path class="cls-49" d="M392.535,192.486v6.582c0,3.639,5.408,6.588,12.075,6.588s12.068-2.949,12.068-6.588v-6.582Z"/><path class="cls-2" d="M404.61,199.046c-6.644,0-12.049-2.943-12.049-6.56s5.405-6.56,12.049-6.56,12.043,2.943,12.043,6.56S411.25,199.046,404.61,199.046Z"/><path class="cls-6" d="M404.61,185.951c6.627,0,12.018,2.932,12.018,6.535s-5.391,6.535-12.018,6.535-12.025-2.932-12.025-6.535,5.394-6.535,12.025-6.535m0-.05c-6.667,0-12.075,2.949-12.075,6.585s5.408,6.585,12.075,6.585,12.068-2.949,12.068-6.585-5.4-6.585-12.068-6.585Z"/><path class="cls-50" d="M416.684,205.656v6.584c0,3.639,5.4,6.585,12.069,6.585s12.068-2.946,12.068-6.585v-6.584Z"/><path class="cls-2" d="M428.753,212.219c-6.641,0-12.044-2.945-12.044-6.563s5.4-6.557,12.044-6.557,12.043,2.942,12.043,6.557S435.394,212.219,428.753,212.219Z"/><path class="cls-6" d="M428.753,199.124c6.627,0,12.019,2.93,12.019,6.532s-5.392,6.537-12.019,6.537-12.019-2.932-12.019-6.537,5.392-6.532,12.019-6.532m0-.05c-6.667,0-12.069,2.946-12.069,6.582s5.4,6.587,12.069,6.587,12.069-2.948,12.069-6.587-5.4-6.582-12.069-6.582Z"/><path class="cls-51" d="M440.828,218.825v6.585c0,3.639,5.4,6.585,12.068,6.585s12.069-2.946,12.069-6.585v-6.585Z"/><path class="cls-2" d="M452.9,225.388c-6.641,0-12.043-2.944-12.043-6.563s5.4-6.556,12.043-6.556,12.043,2.941,12.043,6.556S459.536,225.388,452.9,225.388Z"/><path class="cls-6" d="M452.9,212.293c6.627,0,12.019,2.931,12.019,6.532s-5.392,6.538-12.019,6.538-12.018-2.933-12.018-6.538,5.391-6.532,12.018-6.532m0-.05c-6.666,0-12.068,2.947-12.068,6.582s5.4,6.588,12.068,6.588,12.069-2.949,12.069-6.588-5.4-6.582-12.069-6.582Z"/><path class="cls-52" d="M464.971,232v6.584c0,3.639,5.4,6.585,12.068,6.585s12.069-2.946,12.069-6.585V232Z"/><path class="cls-2" d="M477.039,238.558C470.4,238.558,465,235.614,465,232s5.4-6.557,12.043-6.557,12.043,2.941,12.043,6.557S483.68,238.558,477.039,238.558Z"/><path class="cls-6" d="M477.039,225.463c6.628,0,12.019,2.93,12.019,6.532s-5.391,6.538-12.019,6.538S465.021,235.6,465.021,232s5.391-6.532,12.018-6.532m0-.05c-6.666,0-12.068,2.946-12.068,6.582s5.4,6.588,12.068,6.588,12.069-2.949,12.069-6.588-5.4-6.582-12.069-6.582Z"/><path class="cls-53" d="M416.678,179.316V185.9c0,3.636,5.409,6.585,12.075,6.585s12.068-2.949,12.068-6.585v-6.582Z"/><path class="cls-2" d="M428.753,185.873c-6.644,0-12.05-2.941-12.05-6.557s5.406-6.563,12.05-6.563S440.8,175.7,440.8,179.316,435.394,185.873,428.753,185.873Z"/><path class="cls-6" d="M428.753,172.779c6.627,0,12.019,2.933,12.019,6.537s-5.392,6.532-12.019,6.532-12.025-2.93-12.025-6.532,5.394-6.537,12.025-6.537m0-.05c-6.667,0-12.075,2.949-12.075,6.587s5.408,6.582,12.075,6.582,12.069-2.946,12.069-6.582-5.4-6.587-12.069-6.587Z"/><path class="cls-54" d="M440.828,192.486v6.582c0,3.639,5.4,6.588,12.068,6.588s12.069-2.949,12.069-6.588v-6.582Z"/><path class="cls-2" d="M452.9,199.046c-6.641,0-12.043-2.943-12.043-6.56s5.4-6.56,12.043-6.56,12.043,2.943,12.043,6.56S459.536,199.046,452.9,199.046Z"/><path class="cls-6" d="M452.9,185.951c6.627,0,12.019,2.932,12.019,6.535s-5.392,6.535-12.019,6.535-12.018-2.932-12.018-6.535,5.391-6.535,12.018-6.535m0-.05c-6.666,0-12.068,2.949-12.068,6.585s5.4,6.585,12.068,6.585,12.069-2.949,12.069-6.585-5.4-6.585-12.069-6.585Z"/><path class="cls-55" d="M464.971,205.656v6.582c0,3.638,5.4,6.587,12.068,6.587s12.069-2.949,12.069-6.587v-6.582Z"/><path class="cls-2" d="M477.039,212.215c-6.64,0-12.043-2.943-12.043-6.559s5.4-6.56,12.043-6.56,12.043,2.943,12.043,6.56S483.68,212.215,477.039,212.215Z"/><path class="cls-6" d="M477.039,199.121c6.628,0,12.019,2.931,12.019,6.535s-5.391,6.534-12.019,6.534-12.018-2.931-12.018-6.534,5.391-6.535,12.018-6.535m0-.05c-6.666,0-12.068,2.949-12.068,6.585s5.4,6.584,12.068,6.584,12.069-2.949,12.069-6.584-5.4-6.585-12.069-6.585Z"/><path class="cls-56" d="M489.114,218.825v6.582c0,3.639,5.4,6.588,12.065,6.588s12.075-2.949,12.075-6.588v-6.582Z"/><path class="cls-2" d="M501.179,225.385c-6.639,0-12.04-2.943-12.04-6.56s5.4-6.56,12.04-6.56,12.05,2.943,12.05,6.56S507.824,225.385,501.179,225.385Z"/><path class="cls-6" d="M501.18,212.29c6.63,0,12.024,2.932,12.024,6.535s-5.394,6.535-12.024,6.535-12.016-2.931-12.016-6.535,5.39-6.535,12.016-6.535m0-.05c-6.667,0-12.066,2.95-12.066,6.585s5.4,6.585,12.066,6.585,12.074-2.949,12.074-6.585-5.408-6.585-12.074-6.585Z"/><polygon class="cls-14" points="380.456 159.559 477.035 212.237 525.324 185.9 428.748 133.22 380.456 159.559"/><polygon class="cls-15" points="477.035 251.746 477.035 212.237 525.33 185.898 525.324 225.407 477.035 251.746"/><polygon class="cls-16" points="477.041 212.237 380.462 159.559 380.456 199.068 477.035 251.746 477.041 212.237"/><path class="cls-57" d="M392.531,152.976v6.583c0,3.637,5.408,6.585,12.074,6.585s12.069-2.948,12.069-6.585v-6.583Z"/><path class="cls-18" d="M416.674,152.976c0,3.637-5.4,6.585-12.069,6.585s-12.074-2.948-12.074-6.585,5.408-6.585,12.074-6.585S416.674,149.339,416.674,152.976Z"/><path class="cls-58" d="M416.68,166.147v6.583c0,3.638,5.4,6.585,12.068,6.585s12.069-2.947,12.069-6.585v-6.583Z"/><path class="cls-18" d="M440.817,166.147c0,3.637-5.4,6.585-12.069,6.585s-12.068-2.948-12.068-6.585,5.4-6.585,12.068-6.585S440.817,162.51,440.817,166.147Z"/><path class="cls-59" d="M440.823,179.316V185.9c0,3.637,5.4,6.585,12.069,6.585s12.068-2.948,12.068-6.585v-6.584Z"/><path class="cls-18" d="M464.96,179.316c0,3.638-5.4,6.585-12.068,6.585s-12.069-2.947-12.069-6.585,5.4-6.584,12.069-6.584S464.96,175.679,464.96,179.316Z"/><path class="cls-60" d="M464.966,192.486v6.583c0,3.638,5.4,6.585,12.069,6.585s12.069-2.947,12.069-6.585v-6.583Z"/><path class="cls-18" d="M489.1,192.486c0,3.637-5.4,6.585-12.069,6.585s-12.069-2.948-12.069-6.585,5.4-6.585,12.069-6.585S489.1,188.849,489.1,192.486Z"/><path class="cls-61" d="M416.674,139.805v6.583c0,3.637,5.408,6.585,12.074,6.585s12.069-2.948,12.069-6.585v-6.583Z"/><path class="cls-18" d="M440.817,139.805c0,3.637-5.4,6.584-12.069,6.584s-12.074-2.947-12.074-6.584,5.408-6.585,12.074-6.585S440.817,136.167,440.817,139.805Z"/><path class="cls-62" d="M440.823,152.976v6.583c0,3.637,5.4,6.585,12.069,6.585s12.068-2.948,12.068-6.585v-6.583Z"/><path class="cls-18" d="M464.96,152.976c0,3.637-5.4,6.585-12.068,6.585s-12.069-2.948-12.069-6.585,5.4-6.585,12.069-6.585S464.96,149.339,464.96,152.976Z"/><path class="cls-63" d="M464.966,166.146v6.583c0,3.637,5.4,6.584,12.069,6.584s12.069-2.947,12.069-6.584v-6.583Z"/><path class="cls-18" d="M489.1,166.146c0,3.637-5.4,6.584-12.069,6.584s-12.069-2.947-12.069-6.584,5.4-6.585,12.069-6.585S489.1,162.508,489.1,166.146Z"/><path class="cls-64" d="M489.109,179.315V185.9c0,3.637,5.4,6.585,12.066,6.585s12.075-2.948,12.075-6.585v-6.583Z"/><path class="cls-18" d="M513.25,179.315c0,3.637-5.408,6.585-12.075,6.585s-12.066-2.948-12.066-6.585,5.4-6.585,12.066-6.585S513.25,175.678,513.25,179.315Z"/><polygon class="cls-26" points="380.462 120.343 477.037 173.019 525.324 146.684 428.752 94.005 380.462 120.343"/><polygon class="cls-27" points="477.037 212.526 477.037 173.019 525.33 146.681 525.324 186.188 477.037 212.526"/><polygon class="cls-28" points="477.043 173.019 380.468 120.343 380.462 159.85 477.037 212.526 477.043 173.019"/><path class="cls-65" d="M392.536,113.761v6.582c0,3.638,5.408,6.587,12.074,6.587s12.068-2.949,12.068-6.587v-6.582Z"/><path class="cls-26" d="M404.61,120.321c-6.644,0-12.048-2.943-12.048-6.56s5.4-6.559,12.048-6.559,12.043,2.943,12.043,6.559S411.25,120.321,404.61,120.321Z"/><path class="cls-30" d="M404.61,107.227c6.627,0,12.018,2.931,12.018,6.534s-5.391,6.535-12.018,6.535-12.024-2.932-12.024-6.535,5.394-6.534,12.024-6.534m0-.05c-6.666,0-12.074,2.949-12.074,6.584s5.408,6.585,12.074,6.585,12.068-2.949,12.068-6.585-5.4-6.584-12.068-6.584Z"/><path class="cls-66" d="M416.684,126.93v6.585c0,3.639,5.4,6.584,12.068,6.584s12.068-2.945,12.068-6.584V126.93Z"/><path class="cls-26" d="M428.752,133.493c-6.64,0-12.043-2.944-12.043-6.563s5.4-6.556,12.043-6.556,12.043,2.941,12.043,6.556S435.393,133.493,428.752,133.493Z"/><path class="cls-30" d="M428.752,120.4c6.627,0,12.018,2.93,12.018,6.531s-5.391,6.538-12.018,6.538-12.018-2.933-12.018-6.538,5.392-6.531,12.018-6.531m0-.05c-6.666,0-12.068,2.946-12.068,6.581s5.4,6.588,12.068,6.588,12.068-2.949,12.068-6.588-5.4-6.581-12.068-6.581Z"/><path class="cls-67" d="M440.827,140.1v6.585c0,3.638,5.4,6.584,12.067,6.584s12.069-2.946,12.069-6.584V140.1Z"/><path class="cls-26" d="M452.9,146.662c-6.641,0-12.043-2.944-12.043-6.563s5.4-6.557,12.043-6.557,12.042,2.942,12.042,6.557S459.535,146.662,452.9,146.662Z"/><path class="cls-30" d="M452.894,133.568c6.627,0,12.018,2.93,12.018,6.531s-5.391,6.538-12.018,6.538-12.017-2.933-12.017-6.538,5.391-6.531,12.017-6.531m0-.05c-6.666,0-12.067,2.946-12.067,6.581s5.4,6.588,12.067,6.588,12.068-2.949,12.068-6.588-5.4-6.581-12.068-6.581Z"/><path class="cls-68" d="M464.969,153.268v6.585c0,3.639,5.4,6.585,12.068,6.585s12.068-2.946,12.068-6.585v-6.585Z"/><path class="cls-26" d="M477.036,159.831c-6.64,0-12.042-2.944-12.042-6.562s5.4-6.557,12.042-6.557,12.043,2.941,12.043,6.557S483.677,159.831,477.036,159.831Z"/><path class="cls-30" d="M477.037,146.737c6.627,0,12.018,2.93,12.018,6.531s-5.391,6.538-12.018,6.538-12.018-2.933-12.018-6.538,5.391-6.531,12.018-6.531m0-.05c-6.666,0-12.068,2.946-12.068,6.581s5.4,6.588,12.068,6.588,12.068-2.949,12.068-6.588-5.4-6.581-12.068-6.581Z"/><path class="cls-69" d="M416.678,100.592v6.582c0,3.635,5.408,6.584,12.074,6.584s12.068-2.949,12.068-6.584v-6.582Z"/><path class="cls-26" d="M428.752,107.149c-6.643,0-12.049-2.941-12.049-6.557s5.406-6.562,12.049-6.562,12.043,2.944,12.043,6.562S435.393,107.149,428.752,107.149Z"/><path class="cls-30" d="M428.752,94.055c6.627,0,12.018,2.932,12.018,6.537s-5.391,6.532-12.018,6.532-12.024-2.93-12.024-6.532,5.394-6.537,12.024-6.537m0-.05c-6.666,0-12.074,2.949-12.074,6.587s5.408,6.582,12.074,6.582,12.068-2.946,12.068-6.582-5.4-6.587-12.068-6.587Z"/><path class="cls-70" d="M440.827,113.761v6.582c0,3.638,5.4,6.587,12.067,6.587s12.069-2.949,12.069-6.587v-6.582Z"/><path class="cls-26" d="M452.9,120.321c-6.641,0-12.043-2.943-12.043-6.56s5.4-6.559,12.043-6.559,12.042,2.943,12.042,6.559S459.535,120.321,452.9,120.321Z"/><path class="cls-30" d="M452.894,107.227c6.627,0,12.018,2.931,12.018,6.534s-5.391,6.535-12.018,6.535-12.017-2.932-12.017-6.535,5.391-6.534,12.017-6.534m0-.05c-6.666,0-12.067,2.949-12.067,6.584s5.4,6.585,12.067,6.585,12.068-2.949,12.068-6.585-5.4-6.584-12.068-6.584Z"/><path class="cls-71" d="M464.969,126.93v6.582c0,3.638,5.4,6.587,12.068,6.587s12.068-2.949,12.068-6.587V126.93Z"/><path class="cls-26" d="M477.036,133.49c-6.64,0-12.042-2.943-12.042-6.56s5.4-6.559,12.042-6.559,12.043,2.942,12.043,6.559S483.677,133.49,477.036,133.49Z"/><path class="cls-30" d="M477.037,120.4c6.627,0,12.018,2.931,12.018,6.534s-5.391,6.535-12.018,6.535-12.018-2.931-12.018-6.535,5.391-6.534,12.018-6.534m0-.05c-6.666,0-12.068,2.949-12.068,6.584s5.4,6.585,12.068,6.585,12.068-2.949,12.068-6.585-5.4-6.584-12.068-6.584Z"/><path class="cls-72" d="M489.111,140.1v6.582c0,3.639,5.4,6.587,12.065,6.587s12.074-2.948,12.074-6.587V140.1Z"/><path class="cls-26" d="M501.176,146.659c-6.639,0-12.04-2.943-12.04-6.56s5.4-6.559,12.04-6.559,12.049,2.942,12.049,6.559S507.82,146.659,501.176,146.659Z"/><path class="cls-30" d="M501.176,133.565c6.63,0,12.024,2.931,12.024,6.534s-5.394,6.535-12.024,6.535-12.015-2.932-12.015-6.535,5.39-6.534,12.015-6.534m0-.05c-6.666,0-12.065,2.949-12.065,6.584s5.4,6.585,12.065,6.585,12.074-2.949,12.074-6.585-5.408-6.584-12.074-6.584Z"/><polygon class="cls-38" points="380.462 80.849 477.041 133.528 525.33 107.191 428.754 54.51 380.462 80.849"/><polygon class="cls-39" points="477.041 173.036 477.041 133.528 525.336 107.188 525.33 146.697 477.041 173.036"/><polygon class="cls-40" points="477.047 133.528 380.468 80.849 380.462 120.358 477.041 173.036 477.047 133.528"/><path class="cls-73" d="M392.537,74.267v6.582c0,3.639,5.408,6.588,12.074,6.588s12.069-2.949,12.069-6.588V74.267Z"/><path class="cls-38" d="M416.68,74.267c0,3.636-5.4,6.585-12.069,6.585s-12.074-2.949-12.074-6.585,5.408-6.584,12.074-6.584S416.68,70.632,416.68,74.267Z"/><path class="cls-74" d="M416.686,87.437v6.585c0,3.639,5.4,6.584,12.068,6.584s12.069-2.945,12.069-6.584V87.437Z"/><path class="cls-38" d="M440.823,87.437c0,3.639-5.4,6.588-12.069,6.588s-12.068-2.949-12.068-6.588,5.4-6.582,12.068-6.582S440.823,83.8,440.823,87.437Z"/><path class="cls-75" d="M440.829,100.606v6.585c0,3.639,5.4,6.585,12.068,6.585s12.069-2.946,12.069-6.585v-6.585Z"/><path class="cls-38" d="M464.966,100.606c0,3.639-5.4,6.588-12.069,6.588s-12.068-2.949-12.068-6.588,5.4-6.581,12.068-6.581S464.966,96.971,464.966,100.606Z"/><path class="cls-76" d="M464.972,113.776v6.585c0,3.639,5.4,6.585,12.069,6.585s12.068-2.946,12.068-6.585v-6.585Z"/><path class="cls-38" d="M489.109,113.776c0,3.639-5.4,6.588-12.068,6.588s-12.069-2.949-12.069-6.588,5.4-6.582,12.069-6.582S489.109,110.14,489.109,113.776Z"/><path class="cls-77" d="M416.68,61.1V67.68c0,3.635,5.408,6.584,12.074,6.584s12.069-2.949,12.069-6.584V61.1Z"/><path class="cls-38" d="M440.823,61.1c0,3.635-5.4,6.582-12.069,6.582S416.68,64.733,416.68,61.1s5.408-6.588,12.074-6.588S440.823,57.459,440.823,61.1Z"/><path class="cls-78" d="M440.829,74.267v6.582c0,3.639,5.4,6.588,12.068,6.588s12.069-2.949,12.069-6.588V74.267Z"/><path class="cls-38" d="M464.966,74.267c0,3.636-5.4,6.585-12.069,6.585s-12.068-2.949-12.068-6.585,5.4-6.584,12.068-6.584S464.966,70.632,464.966,74.267Z"/><path class="cls-79" d="M464.972,87.437v6.582c0,3.638,5.4,6.587,12.069,6.587s12.068-2.949,12.068-6.587V87.437Z"/><ellipse class="cls-38" cx="477.041" cy="87.437" rx="12.069" ry="6.585"/><path class="cls-80" d="M489.115,100.606v6.582c0,3.639,5.4,6.588,12.066,6.588s12.075-2.949,12.075-6.588v-6.582Z"/><path class="cls-38" d="M513.256,100.606c0,3.636-5.408,6.585-12.075,6.585s-12.066-2.949-12.066-6.585,5.4-6.584,12.066-6.584S513.256,96.971,513.256,100.606Z"/><path class="cls-81" d="M285.345,325.743c0,7.714-55.022,13.968-122.894,13.968S39.557,333.457,39.557,325.743s55.021-13.969,122.894-13.969S285.345,318.027,285.345,325.743Z"/><path class="cls-82" d="M563.723,326.119c0,7.715-55.022,13.968-122.894,13.968s-122.894-6.253-122.894-13.968,55.021-13.969,122.894-13.969S563.723,318.4,563.723,326.119Z"/><line class="cls-83" x1="262.671" y1="185.899" x2="335.482" y2="185.899"/><polygon class="cls-6" points="331.98 197.866 352.704 185.899 331.98 173.932 331.98 197.866"/></g></g></svg>