<svg xmlns="http://www.w3.org/2000/svg" viewBox="0 0 360 360"><defs><style>.cls-1{opacity:0.1;}.cls-2{fill:#fff;}.cls-3{opacity:0.2;}.cls-4{opacity:0.3;}.cls-5{opacity:0.4;}.cls-6{opacity:0.5;}.cls-7{opacity:0.6;}.cls-8{opacity:0.7;}.cls-9{opacity:0.8;}.cls-10{opacity:0.9;}</style></defs><g id="Layer_1" data-name="Layer 1"><g class="cls-1"><path class="cls-2" d="M161.536,178.322a2.215,2.215,0,1,1-.471,3.1A2.214,2.214,0,0,1,161.536,178.322Z"/><circle class="cls-2" cx="158.226" cy="173.295" r="2.943" transform="translate(-43.196 293.694) rotate(-78.471)"/><path class="cls-2" d="M156.457,159.607a3.722,3.722,0,1,1-3.68,3.763A3.722,3.722,0,0,1,156.457,159.607Z"/><path class="cls-2" d="M160.657,146.827a4.589,4.589,0,1,1-5.792,2.925A4.589,4.589,0,0,1,160.657,146.827Z"/><path class="cls-2" d="M169.427,133.38a5.712,5.712,0,1,1-7.971,1.309A5.711,5.711,0,0,1,169.427,133.38Z"/><path class="cls-2" d="M185.752,119.817a7.224,7.224,0,1,1-10.093-1.583A7.224,7.224,0,0,1,185.752,119.817Z"/><circle class="cls-2" cx="201.096" cy="115.074" r="8.818" transform="translate(84.121 315.069) rotate(-89.457)"/><circle class="cls-2" cx="295.901" cy="142.145" r="15.749" transform="translate(-26.68 203.005) rotate(-36.343)"/><circle class="cls-2" cx="229.085" cy="112.223" r="10.809" transform="translate(-12.256 194.857) rotate(-45)"/><circle class="cls-2" cx="262.083" cy="120.363" r="13.105" transform="translate(130.521 377.007) rotate(-87.526)"/></g><g class="cls-3"><path class="cls-2" d="M164.076,189.5a2.215,2.215,0,1,1,1.439,2.783A2.214,2.214,0,0,1,164.076,189.5Z"/><path class="cls-2" d="M156.036,185.682a2.942,2.942,0,1,1,.714,4.1A2.942,2.942,0,0,1,156.036,185.682Z"/><path class="cls-2" d="M148.966,177.34a3.722,3.722,0,1,1-.764,5.207A3.722,3.722,0,0,1,148.966,177.34Z"/><path class="cls-2" d="M144.853,164.532a4.588,4.588,0,1,1-2.967,5.771A4.589,4.589,0,0,1,144.853,164.532Z"/><path class="cls-2" d="M144.044,148.5a5.712,5.712,0,1,1-5.679,5.744A5.712,5.712,0,0,1,144.044,148.5Z"/><path class="cls-2" d="M149.279,127.93a7.224,7.224,0,1,1-9.1,4.652A7.224,7.224,0,0,1,149.279,127.93Z"/><circle class="cls-2" cx="158.904" cy="115.074" r="8.818" transform="translate(-4.956 222.973) rotate(-69.275)"/><circle class="cls-2" cx="251.515" cy="81.25" r="15.749" transform="translate(50.499 252.871) rotate(-58.392)"/><circle class="cls-2" cx="179.872" cy="96.316" r="10.809" transform="translate(-20.053 55.564) rotate(-16.647)"/><circle class="cls-2" cx="211.353" cy="83.505" r="13.105" transform="translate(-4.694 153.98) rotate(-39.625)"/></g><g class="cls-4"><path class="cls-2" d="M172.7,197.042a2.215,2.215,0,1,1,2.8,1.405A2.215,2.215,0,0,1,172.7,197.042Z"/><path class="cls-2" d="M163.952,198.682a2.943,2.943,0,1,1,2.988,2.9A2.943,2.943,0,0,1,163.952,198.682Z"/><path class="cls-2" d="M153.33,196.089a3.721,3.721,0,1,1,2.442,4.662A3.722,3.722,0,0,1,153.33,196.089Z"/><path class="cls-2" d="M142.474,188.145a4.588,4.588,0,1,1,.992,6.413A4.588,4.588,0,0,1,142.474,188.145Z"/><path class="cls-2" d="M132.4,175.649a5.712,5.712,0,1,1-1.219,7.985A5.712,5.712,0,0,1,132.4,175.649Z"/><path class="cls-2" d="M124.54,155.932a7.224,7.224,0,1,1-4.624,9.11A7.223,7.223,0,0,1,124.54,155.932Z"/><circle class="cls-2" cx="124.77" cy="139.873" r="8.818" transform="translate(-62.361 129.194) rotate(-45)"/><circle class="cls-2" cx="179.813" cy="58.074" r="15.749" transform="translate(-6.801 28.401) rotate(-8.864)"/><circle class="cls-2" cx="130.708" cy="112.373" r="10.809" transform="translate(-23.813 35.981) rotate(-14.38)"/><path class="cls-2" d="M156.35,72.9a13.1,13.1,0,1,1-18.305,2.9A13.1,13.1,0,0,1,156.35,72.9Z"/></g><g class="cls-5"><circle class="cls-2" cx="185.401" cy="196.279" r="2.215"/><path class="cls-2" d="M178,204.547a2.943,2.943,0,1,1,4.12.587A2.943,2.943,0,0,1,178,204.547Z"/><path class="cls-2" d="M167.88,208.693a3.722,3.722,0,1,1,4.716,2.336A3.723,3.723,0,0,1,167.88,208.693Z"/><path class="cls-2" d="M154.428,208.647A4.589,4.589,0,1,1,159,213.252,4.589,4.589,0,0,1,154.428,208.647Z"/><path class="cls-2" d="M138.929,204.462a5.712,5.712,0,1,1,3.708,7.176A5.713,5.713,0,0,1,138.929,204.462Z"/><path class="cls-2" d="M120.985,193.127a7.224,7.224,0,1,1,1.614,10.088A7.224,7.224,0,0,1,120.985,193.127Z"/><circle class="cls-2" cx="111.732" cy="180" r="8.818" transform="translate(-47.979 40.801) rotate(-17.096)"/><circle class="cls-2" cx="108.183" cy="81.469" r="15.749" transform="matrix(0.986, -0.166, 0.166, 0.986, -12.023, 19.088)"/><circle class="cls-2" cx="100.372" cy="154.262" r="10.809" transform="translate(-83.412 144.535) rotate(-53.92)"/><circle class="cls-2" cx="97.917" cy="120.363" r="13.105" transform="translate(-5.885 5.037) rotate(-2.861)"/></g><g class="cls-6"><path class="cls-2" d="M193.951,192.211a2.216,2.216,0,1,1,2.2-2.229A2.216,2.216,0,0,1,193.951,192.211Z"/><path class="cls-2" d="M192.809,201.036a2.943,2.943,0,1,1,3.678-1.947A2.944,2.944,0,0,1,192.809,201.036Z"/><circle class="cls-2" cx="189.213" cy="207.301" r="3.722" transform="translate(-31.92 34.456) rotate(-9.6)"/><path class="cls-2" d="M176.15,218.207a4.589,4.589,0,1,1,6.406,1.038A4.589,4.589,0,0,1,176.15,218.207Z"/><path class="cls-2" d="M161.151,223.931a5.712,5.712,0,1,1,7.218,3.626A5.711,5.711,0,0,1,161.151,223.931Z"/><path class="cls-2" d="M139.972,225.308a7.224,7.224,0,1,1,7.235,7.213A7.223,7.223,0,0,1,139.972,225.308Z"/><circle class="cls-2" cx="124.77" cy="220.127" r="8.818" transform="translate(-123.601 171.807) rotate(-49.446)"/><circle class="cls-2" cx="63.984" cy="142.5" r="15.749" transform="translate(-90.301 166.925) rotate(-74.815)"/><circle class="cls-2" cx="100.451" cy="205.982" r="10.809" transform="translate(-31.029 18.28) rotate(-9.013)"/><circle class="cls-2" cx="78.539" cy="180" r="13.105" transform="translate(-115.895 152.363) rotate(-58.337)"/></g><g class="cls-7"><path class="cls-2" d="M198.464,181.678a2.215,2.215,0,1,1,.471-3.1A2.214,2.214,0,0,1,198.464,181.678Z"/><circle class="cls-2" cx="201.774" cy="186.705" r="2.943" transform="translate(-68.466 237.119) rotate(-53.346)"/><path class="cls-2" d="M203.543,200.393a3.722,3.722,0,1,1,3.68-3.763A3.722,3.722,0,0,1,203.543,200.393Z"/><path class="cls-2" d="M199.343,213.173a4.589,4.589,0,1,1,5.792-2.925A4.589,4.589,0,0,1,199.343,213.173Z"/><path class="cls-2" d="M190.573,226.62a5.712,5.712,0,1,1,7.971-1.309A5.711,5.711,0,0,1,190.573,226.62Z"/><path class="cls-2" d="M174.248,240.183a7.224,7.224,0,1,1,10.093,1.583A7.224,7.224,0,0,1,174.248,240.183Z"/><circle class="cls-2" cx="158.904" cy="244.926" r="8.818" transform="translate(-87.518 401.501) rotate(-89.457)"/><circle class="cls-2" cx="64.099" cy="217.855" r="15.749" transform="matrix(0.805, -0.593, 0.593, 0.805, -116.636, 80.362)"/><circle class="cls-2" cx="130.915" cy="247.777" r="10.809" transform="translate(-136.861 165.143) rotate(-45)"/><circle class="cls-2" cx="97.917" cy="239.637" r="13.105" transform="translate(-145.723 327.12) rotate(-87.526)"/></g><g class="cls-8"><path class="cls-2" d="M195.924,170.505a2.215,2.215,0,1,1-1.439-2.783A2.214,2.214,0,0,1,195.924,170.505Z"/><path class="cls-2" d="M203.964,174.318a2.942,2.942,0,1,1-.714-4.1A2.942,2.942,0,0,1,203.964,174.318Z"/><path class="cls-2" d="M211.034,182.66a3.722,3.722,0,1,1,.764-5.207A3.722,3.722,0,0,1,211.034,182.66Z"/><path class="cls-2" d="M215.147,195.468a4.588,4.588,0,1,1,2.967-5.771A4.589,4.589,0,0,1,215.147,195.468Z"/><path class="cls-2" d="M215.956,211.5a5.712,5.712,0,1,1,5.679-5.744A5.712,5.712,0,0,1,215.956,211.5Z"/><path class="cls-2" d="M210.721,232.07a7.224,7.224,0,1,1,9.1-4.652A7.224,7.224,0,0,1,210.721,232.07Z"/><circle class="cls-2" cx="201.096" cy="244.926" r="8.818" transform="translate(-107.173 318.401) rotate(-64.019)"/><circle class="cls-2" cx="108.485" cy="278.75" r="15.749" transform="translate(-185.771 225.048) rotate(-58.392)"/><circle class="cls-2" cx="180.128" cy="263.684" r="10.809" transform="matrix(0.96, -0.281, 0.281, 0.96, -66.812, 61.209)"/><circle class="cls-2" cx="148.647" cy="276.495" r="13.105" transform="translate(-142.184 158.331) rotate(-39.625)"/></g><g class="cls-9"><path class="cls-2" d="M187.3,162.958a2.215,2.215,0,1,1-2.8-1.405A2.215,2.215,0,0,1,187.3,162.958Z"/><path class="cls-2" d="M196.048,161.318a2.943,2.943,0,1,1-2.988-2.9A2.943,2.943,0,0,1,196.048,161.318Z"/><path class="cls-2" d="M206.67,163.911a3.721,3.721,0,1,1-2.442-4.662A3.722,3.722,0,0,1,206.67,163.911Z"/><path class="cls-2" d="M217.526,171.855a4.588,4.588,0,1,1-.992-6.413A4.588,4.588,0,0,1,217.526,171.855Z"/><path class="cls-2" d="M227.605,184.351a5.712,5.712,0,1,1,1.219-7.985A5.712,5.712,0,0,1,227.605,184.351Z"/><circle class="cls-2" cx="233.217" cy="197.201" r="7.224" transform="translate(-47.645 317.18) rotate(-63.348)"/><circle class="cls-2" cx="235.23" cy="220.127" r="8.818" transform="translate(-86.756 230.806) rotate(-45)"/><circle class="cls-2" cx="180.187" cy="301.926" r="15.749" transform="translate(-44.371 31.371) rotate(-8.864)"/><circle class="cls-2" cx="229.292" cy="247.627" r="10.809" transform="translate(-54.314 64.702) rotate(-14.38)"/><circle class="cls-2" cx="211.353" cy="276.495" r="13.105" transform="translate(-17.815 14.576) rotate(-3.79)"/></g><g class="cls-10"><circle class="cls-2" cx="174.599" cy="163.721" r="2.215"/><path class="cls-2" d="M182,155.453a2.943,2.943,0,1,1-4.12-.587A2.943,2.943,0,0,1,182,155.453Z"/><path class="cls-2" d="M192.12,151.307a3.722,3.722,0,1,1-4.716-2.336A3.723,3.723,0,0,1,192.12,151.307Z"/><path class="cls-2" d="M205.572,151.353A4.589,4.589,0,1,1,201,146.748,4.589,4.589,0,0,1,205.572,151.353Z"/><path class="cls-2" d="M221.071,155.538a5.712,5.712,0,1,1-3.708-7.176A5.713,5.713,0,0,1,221.071,155.538Z"/><path class="cls-2" d="M239.015,166.873a7.224,7.224,0,1,1-1.614-10.088A7.224,7.224,0,0,1,239.015,166.873Z"/><circle class="cls-2" cx="248.268" cy="180" r="8.818" transform="translate(-41.946 80.939) rotate(-17.096)"/><circle class="cls-2" cx="251.817" cy="278.531" r="15.749" transform="translate(-15.512 14.852) rotate(-3.277)"/><circle class="cls-2" cx="259.628" cy="205.738" r="10.809" transform="translate(-66.152 265.754) rotate(-48.833)"/><circle class="cls-2" cx="262.083" cy="239.637" r="13.105" transform="translate(-5.351 473.287) rotate(-83.581)"/></g><path class="cls-2" d="M166.049,167.789a2.216,2.216,0,1,1-2.2,2.229A2.216,2.216,0,0,1,166.049,167.789Z"/><path class="cls-2" d="M167.191,158.964a2.943,2.943,0,1,1-3.678,1.947A2.944,2.944,0,0,1,167.191,158.964Z"/><circle class="cls-2" cx="170.787" cy="152.699" r="3.722" transform="translate(-23.073 30.619) rotate(-9.6)"/><path class="cls-2" d="M183.85,141.793a4.589,4.589,0,1,1-6.406-1.038A4.589,4.589,0,0,1,183.85,141.793Z"/><path class="cls-2" d="M198.849,136.069a5.712,5.712,0,1,1-7.218-3.626A5.711,5.711,0,0,1,198.849,136.069Z"/><path class="cls-2" d="M220.028,134.692a7.224,7.224,0,1,1-7.235-7.213A7.223,7.223,0,0,1,220.028,134.692Z"/><circle class="cls-2" cx="235.23" cy="139.873" r="8.818" transform="translate(-10.656 260.03) rotate(-56.78)"/><circle class="cls-2" cx="296.016" cy="217.5" r="15.749" transform="translate(38.982 479.921) rotate(-81.901)"/><circle class="cls-2" cx="259.549" cy="154.018" r="10.809" transform="translate(-20.814 42.286) rotate(-8.957)"/><circle class="cls-2" cx="281.461" cy="180" r="13.105" transform="translate(-42.979 100.258) rotate(-18.791)"/></g></svg>