<svg id="Layer_1" data-name="Layer 1" xmlns="http://www.w3.org/2000/svg" viewBox="0 0 578 430"><defs><style>.cls-1,.cls-10,.cls-11,.cls-12,.cls-2,.cls-3,.cls-4,.cls-5,.cls-6,.cls-7,.cls-8,.cls-9{fill:#3a3a8c;}.cls-2{opacity:0.25;}.cls-3{opacity:0.3;}.cls-4{opacity:0.15;}.cls-5{opacity:0.2;}.cls-6{opacity:0.8;}.cls-7{opacity:0.7;}.cls-8{opacity:0.6;}.cls-9{opacity:0.35;}.cls-10{opacity:0.4;}.cls-11{opacity:0.9;}.cls-12{opacity:0.5;}</style></defs><path class="cls-1" d="M406.17,211.318a15.4,15.4,0,1,1,30.781,0,15.4,15.4,0,0,1-30.781,0Z"/><path class="cls-2" d="M145.022,214.529a3.667,3.667,0,1,0-3.651-3.683A3.666,3.666,0,0,0,145.022,214.529Z"/><path class="cls-3" d="M165.684,215.752a4.89,4.89,0,1,0-4.868-4.912A4.889,4.889,0,0,0,165.684,215.752Z"/><path class="cls-4" d="M111.031,212.084a1.222,1.222,0,1,0-1.217-1.227A1.221,1.221,0,0,0,111.031,212.084Z"/><path class="cls-5" d="M126.8,213.307a2.445,2.445,0,1,0-2.433-2.456A2.445,2.445,0,0,0,126.8,213.307Z"/><path class="cls-6" d="M341,223.086a12.224,12.224,0,1,0-12.169-12.279A12.224,12.224,0,0,0,341,223.086Z"/><path class="cls-7" d="M305.667,221.863a11,11,0,1,0-10.952-11.05A11,11,0,0,0,305.667,221.863Z"/><path class="cls-8" d="M272.782,220.641a9.779,9.779,0,1,0-9.736-9.823A9.779,9.779,0,0,0,272.782,220.641Z"/><path class="cls-9" d="M188.791,216.974a6.112,6.112,0,1,0-6.085-6.14A6.112,6.112,0,0,0,188.791,216.974Z"/><path class="cls-10" d="M214.343,218.2a7.334,7.334,0,1,0-7.3-7.367A7.335,7.335,0,0,0,214.343,218.2Z"/><path class="cls-11" d="M378.9,197.416a13.446,13.446,0,1,0,13.385,13.507A13.444,13.444,0,0,0,378.9,197.416Z"/><path class="cls-12" d="M242.417,202.305a8.557,8.557,0,1,0,8.518,8.6A8.556,8.556,0,0,0,242.417,202.305Z"/><path class="cls-2" d="M203.025,171.743a3.668,3.668,0,1,0-3.651-3.684A3.667,3.667,0,0,0,203.025,171.743Z"/><path class="cls-3" d="M223.687,172.965a4.89,4.89,0,1,0-4.868-4.912A4.889,4.889,0,0,0,223.687,172.965Z"/><path class="cls-4" d="M169.034,169.3a1.223,1.223,0,1,0-1.217-1.228A1.222,1.222,0,0,0,169.034,169.3Z"/><path class="cls-5" d="M184.807,170.52a2.445,2.445,0,1,0-2.433-2.456A2.445,2.445,0,0,0,184.807,170.52Z"/><path class="cls-6" d="M399,180.3a12.224,12.224,0,1,0-12.169-12.279A12.223,12.223,0,0,0,399,180.3Z"/><path class="cls-7" d="M363.671,179.077a11,11,0,1,0-10.953-11.051A11,11,0,0,0,363.671,179.077Z"/><path class="cls-8" d="M330.785,177.854a9.779,9.779,0,1,0-9.736-9.823A9.778,9.778,0,0,0,330.785,177.854Z"/><path class="cls-9" d="M246.794,174.187a6.112,6.112,0,1,0-6.085-6.139A6.11,6.11,0,0,0,246.794,174.187Z"/><path class="cls-10" d="M272.346,175.41a7.335,7.335,0,1,0-7.3-7.368A7.336,7.336,0,0,0,272.346,175.41Z"/><path class="cls-12" d="M300.42,159.519a8.557,8.557,0,1,0,8.518,8.595A8.555,8.555,0,0,0,300.42,159.519Z"/><path class="cls-2" d="M201.859,253.145a3.667,3.667,0,1,0-3.651-3.684A3.667,3.667,0,0,0,201.859,253.145Z"/><path class="cls-3" d="M222.521,254.367a4.89,4.89,0,1,0-4.868-4.911A4.889,4.889,0,0,0,222.521,254.367Z"/><path class="cls-4" d="M167.868,250.7a1.223,1.223,0,1,0-1.217-1.228A1.223,1.223,0,0,0,167.868,250.7Z"/><path class="cls-5" d="M183.641,251.922a2.445,2.445,0,1,0-2.433-2.455A2.444,2.444,0,0,0,183.641,251.922Z"/><path class="cls-7" d="M362.5,260.479a11,11,0,1,0-10.952-11.051A11,11,0,0,0,362.5,260.479Z"/><path class="cls-8" d="M329.619,259.257a9.779,9.779,0,1,0-9.736-9.823A9.779,9.779,0,0,0,329.619,259.257Z"/><path class="cls-9" d="M245.628,255.59a6.112,6.112,0,1,0-6.085-6.14A6.112,6.112,0,0,0,245.628,255.59Z"/><path class="cls-10" d="M271.18,256.812a7.335,7.335,0,1,0-7.3-7.367A7.336,7.336,0,0,0,271.18,256.812Z"/><path class="cls-12" d="M299.254,240.921a8.557,8.557,0,1,0,8.518,8.595A8.555,8.555,0,0,0,299.254,240.921Z"/></svg>