<svg id="Layer_1" data-name="Layer 1" xmlns="http://www.w3.org/2000/svg" viewBox="0 0 400 173"><defs><style>.cls-1{fill:#3d3d3d;}.cls-2{fill:#797c7b;}</style></defs><path class="cls-1" d="M155.812,82.284c.466,1.051,1.023,2.013,1.375,3.045.381,1.114.564,2.3.845,3.444.072.3.176.527.59.523q3.733-.032,7.467,0c.582,0,.69-.493.935-.8a4.078,4.078,0,0,1,2.69-1.52,4.257,4.257,0,0,1,4.76,3.224,3.962,3.962,0,0,1-1.46,4.245,4.342,4.342,0,0,1-2.793,1.122,3.978,3.978,0,0,1-3.481-2.073.591.591,0,0,0-.609-.363c-2.489.016-4.978.02-7.467,0-.421,0-.6.187-.629.538a14.209,14.209,0,0,1-1.317,4.706,14.979,14.979,0,0,1-2.617,4.221c-.887.932-1.839,1.805-2.79,2.674a.717.717,0,0,0-.158,1c.938,1.578,1.894,3.144,2.839,4.717a2.311,2.311,0,0,1,.206.439,2.409,2.409,0,0,0,2.122,1.555,4.11,4.11,0,0,1,3.232,3.409,4.466,4.466,0,0,1-3.436,5.016,4.516,4.516,0,0,1-3.283-.877,3.977,3.977,0,0,1-1.781-3.544,4.5,4.5,0,0,1,.5-1.649,1.049,1.049,0,0,0,0-1.081c-.882-1.5-1.752-3.007-2.624-4.513-.3-.517-.626-1.022-.875-1.563a.708.708,0,0,0-.964-.417c-1.23.36-2.436.838-3.687,1.084a11.465,11.465,0,0,1-4.393.172c-.818-.157-1.65-.254-2.48-.343-.127-.014-.3.14-.409.256-.873.938-1.749,1.874-2.6,2.834a.712.712,0,0,1-1,.149q-2.191-1.264-4.368-2.555-.986-.582-1.953-1.2c-.245-.156-.284-.337-.165-.662.427-1.167.811-2.352,1.143-3.55a1.17,1.17,0,0,0-.2-.928,19.371,19.371,0,0,1-3.256-5.483,3.186,3.186,0,0,0-.29-.75,1.2,1.2,0,0,0-.627-.405c-1.189-.285-2.386-.542-3.584-.785-.416-.085-.637-.282-.636-.718,0-2.43.019-4.861-.009-7.292-.009-.777.593-.749,1.031-.849,1.075-.244,2.175-.377,3.25-.621a1.138,1.138,0,0,0,.617-.591c.491-1,.85-2.072,1.412-3.027.651-1.108,1.458-2.124,2.21-3.171.142-.2.266-.29.15-.619-.461-1.31-.8-2.662-1.244-3.98-.118-.352.024-.4.258-.533q3.207-1.84,6.4-3.709c.411-.241.673-.018.92.249q1.266,1.367,2.515,2.75a.813.813,0,0,0,.844.221,24.827,24.827,0,0,1,4.446-.363,15.14,15.14,0,0,1,5.663,1.36c.45.214.723.047.95-.353q2.266-3.991,4.55-7.974c1.429-2.482,2.842-4.975,4.337-7.417a1.734,1.734,0,0,0,.1-1.952,3.454,3.454,0,0,1,.481-3.82,4.207,4.207,0,0,1,7.693,1.689,4.348,4.348,0,0,1-3.716,5.009,1.377,1.377,0,0,0-1.347.975,19.438,19.438,0,0,1-1.476,2.538c-.906,1.568-1.788,3.149-2.7,4.716-.728,1.256-1.493,2.491-2.221,3.747-.863,1.488-1.695,2.994-2.559,4.481-.214.367-.08.59.191.823a16.5,16.5,0,0,1,1.868,1.663c.926,1.087,1.748,2.262,2.615,3.459m-4.085,7.993c-.116-.612-.216-1.229-.353-1.837a10.025,10.025,0,0,0-2.173-4.4,11.7,11.7,0,0,0-3.976-3.052,11.173,11.173,0,0,0-3.888-1.021,12.368,12.368,0,0,0-3.88.326,9.927,9.927,0,0,0-4.194,2.108,11.782,11.782,0,0,0-3,3.646,10.558,10.558,0,0,0-1.15,3.773,16.776,16.776,0,0,0,.111,3.388,9.618,9.618,0,0,0,1.334,3.7,10.24,10.24,0,0,0,2.66,3.073,14.217,14.217,0,0,0,2.755,1.645,12.956,12.956,0,0,0,2.732.719,11.016,11.016,0,0,0,8.747-2.3,11.059,11.059,0,0,0,3.472-4.623A12.613,12.613,0,0,0,151.727,90.277Z"/><path class="cls-2" d="M378.669,75.195a13.7,13.7,0,0,1,5.405,6.035,12.82,12.82,0,0,1,1.384,5.141q.1,5.838.121,11.677c.019,3.383,0,6.767.014,10.15,0,.461-.128.591-.588.586-1.944-.025-3.889-.03-5.833,0-.516.008-.6-.176-.6-.634.013-6.922.037-13.845-.011-20.767a7.422,7.422,0,0,0-6.762-7.34,8.948,8.948,0,0,0-4.836.65,6.7,6.7,0,0,0-3.089,2.731A8.379,8.379,0,0,0,362.6,87.8q-.023,10.15,0,20.3c0,.52-.105.7-.664.689-1.925-.038-3.85-.029-5.775,0-.463.006-.584-.133-.583-.59.014-6.63.039-13.261-.006-19.892a8.254,8.254,0,0,0-2.538-6.291,7.256,7.256,0,0,0-3.792-1.825,10.041,10.041,0,0,0-4.586.244,6.909,6.909,0,0,0-3.414,2.41,7.668,7.668,0,0,0-1.644,4.508c-.026.51-.109,1.018-.11,1.527q-.011,9.626.006,19.251c0,.491-.1.669-.633.66-1.944-.032-3.888-.024-5.833,0-.433,0-.555-.127-.555-.558q.016-17,0-34.009c0-.4.067-.585.534-.579,1.9.027,3.811.022,5.716,0,.4,0,.568.107.531.52-.028.309.02.625-.012.932-.051.493.153.5.5.307a21.179,21.179,0,0,1,2.335-1.262,13.354,13.354,0,0,1,2.865-.814,18.616,18.616,0,0,1,3.574-.234,14.846,14.846,0,0,1,5.257,1.23,13.509,13.509,0,0,1,4.193,2.829c.325.318.582.71.925,1a.632.632,0,0,0,.608.01A12.811,12.811,0,0,1,364,74.633a13.21,13.21,0,0,1,5-1.45,23.27,23.27,0,0,1,2.4-.105,14.362,14.362,0,0,1,5.535,1.271C377.5,74.618,378.071,74.893,378.669,75.195Z"/><path class="cls-2" d="M327.469,83.567a15.759,15.759,0,0,1,.932,4.4c.045,1.325.115,2.651.1,3.977a20.407,20.407,0,0,1-.233,2.41c-.015.112-.191.236-.32.291a1.1,1.1,0,0,1-.4.01h-25.9c-.726,0-.771.076-.553.788a9.116,9.116,0,0,0,4.294,5.28A9.935,9.935,0,0,0,309.231,102a10.191,10.191,0,0,0,1.944.213,23.341,23.341,0,0,0,3.479-.464,10.5,10.5,0,0,0,4.479-1.98,19.34,19.34,0,0,0,2.17-2.18c.689-.781.689-.854,1.479-.246,1.381,1.063,2.715,2.186,4.071,3.281.29.235.348.418.048.739-.975,1.041-1.861,2.168-2.868,3.176a13.812,13.812,0,0,1-4.972,3.049c-1.312.5-2.666.9-4.019,1.279a9.708,9.708,0,0,1-1.823.247,18.808,18.808,0,0,1-2.285.111,19.709,19.709,0,0,1-6.085-1.072,17.867,17.867,0,0,1-5.563-3.208,16.579,16.579,0,0,1-4.853-7.266,14.958,14.958,0,0,1-.919-4.343,30.873,30.873,0,0,1-.1-3.683,18.1,18.1,0,0,1,2.107-7.229,17.777,17.777,0,0,1,4.065-5.024,16.839,16.839,0,0,1,6.285-3.429,22.8,22.8,0,0,1,3.517-.663,14.626,14.626,0,0,1,2.458-.121,18.576,18.576,0,0,1,8.813,2.369,21.671,21.671,0,0,1,2.6,1.888,14.7,14.7,0,0,1,3.957,5.465,5.134,5.134,0,0,1,.248.654M304.188,88q8.372,0,16.744.009c.448,0,.69-.111.581-.575a8.951,8.951,0,0,0-2.854-5.057,10.371,10.371,0,0,0-6.05-2.285,14.033,14.033,0,0,0-3.873.182,10.038,10.038,0,0,0-5.183,2.683,10.563,10.563,0,0,0-2.657,4.488c-.116.372-.007.571.434.561C302.243,87.987,303.158,88,304.188,88Z"/><path class="cls-1" d="M49.27,87.068c.077,1.718.187,3.377.218,5.037a10.166,10.166,0,0,1-.238,2.058c-.036.187-.3.347-.488.481-.077.055-.227.009-.344.009H22.867c-1.132,0-1.271.186-.78,1.2A11.566,11.566,0,0,0,24.532,99.4a9.863,9.863,0,0,0,4.691,2.477,13.67,13.67,0,0,0,2.943.346,15.541,15.541,0,0,0,6.17-1.28,9.894,9.894,0,0,0,4.273-3.682c.294-.439.541-.429.909-.132q1.988,1.6,3.993,3.176c.63.5.667.589.15,1.264a19.606,19.606,0,0,1-1.91,2.35,16.86,16.86,0,0,1-4.531,3.121,19.566,19.566,0,0,1-5.941,1.853,21.076,21.076,0,0,1-3.237.326,19.857,19.857,0,0,1-7.242-1.506,18.105,18.105,0,0,1-4.972-3.216,16.282,16.282,0,0,1-4.172-6.316,19.639,19.639,0,0,1-1.179-5.409,19.18,19.18,0,0,1,.689-6.8,17.091,17.091,0,0,1,2.886-5.859A16.426,16.426,0,0,1,25.4,74.565a19.384,19.384,0,0,1,5.423-1.292,21.212,21.212,0,0,1,4.6.236,17.781,17.781,0,0,1,7.408,2.829,13.82,13.82,0,0,1,4.393,4.75,18.876,18.876,0,0,1,2.044,5.69,1.666,1.666,0,0,1,0,.29M36.258,80.533A13.858,13.858,0,0,0,34,80.09a34.438,34.438,0,0,0-3.973.108,7.607,7.607,0,0,0-3.822,1.441,12.834,12.834,0,0,0-2.607,2.4,12.76,12.76,0,0,0-1.58,2.947c-.4.948-.3,1.021.712,1.021q9.65,0,19.3,0c.474,0,.742-.047.489-.644-.363-.86-.607-1.77-.96-2.634a6,6,0,0,0-2.216-2.651A20.373,20.373,0,0,0,36.258,80.533Z"/><path class="cls-1" d="M109.484,93.37c0-1.615-.02-3.171.005-4.726a10.106,10.106,0,0,0-1.079-5.095,5.962,5.962,0,0,0-2.6-2.467,9.591,9.591,0,0,0-4.938-.882,8.368,8.368,0,0,0-6.3,2.939,8.5,8.5,0,0,0-2.123,4.778c-.053.566-.113,1.134-.114,1.7q-.012,9.189,0,18.378c0,.727-.051.776-.8.776-1.848,0-3.7-.01-5.543.007-.5,0-.67-.194-.669-.681q.009-23.367,0-46.735c0-.492.182-.679.675-.675,1.828.016,3.657.021,5.484,0,.549-.007.742.182.74.732-.014,4.746-.008,9.491-.008,14.236a2.519,2.519,0,0,0,.006.408.788.788,0,0,0,.134.235,1.591,1.591,0,0,0,.205-.137,10.937,10.937,0,0,1,3.631-1.942,15.79,15.79,0,0,1,6.386-.913,16.472,16.472,0,0,1,5.19,1.128,12.388,12.388,0,0,1,5.016,3.516,12.83,12.83,0,0,1,2.756,5.213,16.057,16.057,0,0,1,.685,3.616c.115,4.494.116,8.991.144,13.487.016,2.606-.007,5.212.011,7.818,0,.531-.2.7-.714.7q-2.742-.03-5.484,0c-.528.006-.7-.189-.7-.709C109.489,103.191,109.484,98.309,109.484,93.37Z"/><path class="cls-2" d="M256.285,73.532c.775.194,1.508.343,2.2.594a26.032,26.032,0,0,1,3.2,1.291,19.628,19.628,0,0,1,4.414,3.434c.238.228.348.437.075.725q-1.947,2.048-3.876,4.112c-.251.27-.4.263-.7.021a34.367,34.367,0,0,0-2.928-2.223,7.856,7.856,0,0,0-3.531-1.175,34.727,34.727,0,0,0-3.81-.226,10.6,10.6,0,0,0-4.6.987c-1.086.533-2.055,1.269-1.989,2.687a2.182,2.182,0,0,0,1.1,1.811,11.324,11.324,0,0,0,3.924,1.369c1.727.363,3.485.58,5.208.961a47.141,47.141,0,0,1,5.363,1.414,9.8,9.8,0,0,1,5.254,3.867,8.394,8.394,0,0,1,1.327,3.595,10.177,10.177,0,0,1-.616,5.315,12.37,12.37,0,0,1-1.342,2.357,9.568,9.568,0,0,1-4.256,3.2,26.936,26.936,0,0,1-3.98,1.227,21.777,21.777,0,0,1-5.976.352,20.659,20.659,0,0,1-6.107-1.3,15.977,15.977,0,0,1-6.791-4.712,21.3,21.3,0,0,1-1.567-2.266.451.451,0,0,1,.082-.423c.928-.841,1.877-1.657,2.813-2.49.543-.484,1.08-.976,1.6-1.482.329-.319.542-.437.864.064a16.8,16.8,0,0,0,1.73,2.313A9.813,9.813,0,0,0,247,101.3a14.364,14.364,0,0,0,4.686.955,13.953,13.953,0,0,0,6.522-1.082,3.142,3.142,0,0,0,1.9-2.9,2.133,2.133,0,0,0-.934-1.886,11.2,11.2,0,0,0-4.355-1.606c-1.49-.323-2.994-.595-4.5-.818a28.353,28.353,0,0,1-6.078-1.53,9.506,9.506,0,0,1-5.523-4.689A9.524,9.524,0,0,1,241.637,76.2a15.389,15.389,0,0,1,5.489-2.525,14.017,14.017,0,0,1,2.763-.369,25.778,25.778,0,0,1,3.042-.11C254.032,73.241,255.129,73.415,256.285,73.532Z"/><path class="cls-2" d="M195.721,108.19c-1.21.272-2.348.65-3.516.791a36.827,36.827,0,0,1-4.626.241,18.744,18.744,0,0,1-4.974-.788,17.215,17.215,0,0,1-5.518-2.59,14.765,14.765,0,0,1-4.118-4.468c-.418-.714-.356-.864.44-1.509.483-.391.965-.786,1.429-1.2.828-.734,1.642-1.484,2.464-2.224.28-.252.447-.26.7.12A14.924,14.924,0,0,0,179.856,99a10.167,10.167,0,0,0,5.562,2.885,18.729,18.729,0,0,0,3.248.438,15.663,15.663,0,0,0,4.514-.616,5.412,5.412,0,0,0,2.435-1.3,2.864,2.864,0,0,0,.443-3.554,3.866,3.866,0,0,0-2.264-1.365c-1.57-.409-3.165-.728-4.754-1.064-1.719-.363-3.459-.642-5.161-1.072a24.81,24.81,0,0,1-4.425-1.418,8.509,8.509,0,0,1-4.944-5.8,9.421,9.421,0,0,1,.792-6.754,10.233,10.233,0,0,1,3.682-3.864,16.1,16.1,0,0,1,4.543-1.843,14.727,14.727,0,0,1,2.764-.367,31.755,31.755,0,0,1,3.335-.114,18.634,18.634,0,0,1,5.13.846,16.414,16.414,0,0,1,7.016,4.193c.275.286.614.51.886.8a.436.436,0,0,1,.011.427c-.614.687-1.254,1.353-1.887,2.023-.7.741-1.409,1.475-2.1,2.225-.231.251-.377.244-.658.024-1.02-.8-2.059-1.576-3.124-2.315a7.233,7.233,0,0,0-3.156-1.093,27.685,27.685,0,0,0-3.809-.242,12.4,12.4,0,0,0-4.791.955,3.033,3.033,0,0,0-2.012,2.754,2.018,2.018,0,0,0,1.048,1.75,12.685,12.685,0,0,0,4.5,1.526c1.4.283,2.811.531,4.211.823,1.59.332,3.186.647,4.755,1.06a12.608,12.608,0,0,1,4.541,2.279,8,8,0,0,1,2.908,4.449,9.674,9.674,0,0,1,.249,3.554,10.7,10.7,0,0,1-.621,2.788,9.835,9.835,0,0,1-1.643,2.768,11.2,11.2,0,0,1-3.949,2.864A14.971,14.971,0,0,1,195.721,108.19Z"/><path class="cls-2" d="M228.366,95.791c-1.033,2.4-2.028,4.764-3.043,7.124-.923,2.146-1.877,4.279-2.8,6.425-1.137,2.641-2.255,5.289-3.386,7.933-.586,1.371-1.19,2.735-1.766,4.111-.128.306-.318.35-.612.349-2.023-.012-4.045-.007-6.068-.007-.078,0-.155,0-.233,0-.778.015-.806,0-.493-.74.509-1.209,1.072-2.395,1.588-3.6.763-1.784,1.5-3.58,2.259-5.365.543-1.273,1.107-2.536,1.664-3.8.245-.56.529-1.106.723-1.683a1.216,1.216,0,0,0-.148-.706c-1.053-2.656-2.105-5.313-3.178-7.961-.891-2.2-1.823-4.379-2.714-6.577-1.209-2.981-2.384-5.975-3.6-8.954-1.083-2.663-2.194-5.315-3.3-7.969-.284-.682-.27-.718.457-.719,2.081,0,4.162.008,6.243,0a.766.766,0,0,1,.823.6c.792,2.082,1.623,4.15,2.439,6.224.9,2.274,1.784,4.551,2.686,6.822.769,1.937,1.56,3.866,2.33,5.8.517,1.3,1.012,2.614,1.521,3.921a1.449,1.449,0,0,0,.182.332,1.9,1.9,0,0,0,.243.23c.091-.1.224-.182.267-.3.342-.948.626-1.919,1.007-2.851,1.021-2.494,2.074-4.975,3.13-7.455,1.076-2.53,2.176-5.05,3.254-7.579.74-1.735,1.454-3.482,2.195-5.217a.781.781,0,0,1,.819-.538c2.139.034,4.278.012,6.418.021a3.422,3.422,0,0,1,.645.127,2.487,2.487,0,0,0-.3.423c-.4.9-.787,1.813-1.171,2.724-.515,1.225-1.018,2.457-1.537,3.681-.806,1.9-1.612,3.805-2.435,5.7-.645,1.484-1.333,2.949-1.974,4.434C229.784,92.409,229.1,94.089,228.366,95.791Z"/><path class="cls-1" d="M77.51,75.282a20.306,20.306,0,0,1,5.672,4.2c.542.565.421.746-.028,1.18q-1.791,1.732-3.582,3.466c-.5.488-.726.507-1.2-.006a11.353,11.353,0,0,0-3.48-2.735,11.744,11.744,0,0,0-3.1-.941,15.668,15.668,0,0,0-3.678-.119,10.568,10.568,0,0,0-4.25,1.274,10.221,10.221,0,0,0-4.047,4.014,9.158,9.158,0,0,0-.942,2.866,16.649,16.649,0,0,0-.24,3.573,10.507,10.507,0,0,0,2.3,6.4,10.376,10.376,0,0,0,6.116,3.534,10.8,10.8,0,0,0,2.641.233,10.666,10.666,0,0,0,7.178-2.657c.533-.5,1.075-.983,1.6-1.488a.551.551,0,0,1,.89-.011q1.977,1.985,3.96,3.961c.26.259.324.451.014.78a19.44,19.44,0,0,1-6.508,4.728,14.966,14.966,0,0,1-4.212,1.241,22.94,22.94,0,0,1-2.889.322,23.934,23.934,0,0,1-3.626-.385,15.1,15.1,0,0,1-4.957-1.685,28.669,28.669,0,0,1-3.057-1.906,14.791,14.791,0,0,1-3.687-4.225,17.171,17.171,0,0,1-2.068-4.861,19.6,19.6,0,0,1-.6-4.889,18.625,18.625,0,0,1,2.378-9.167A20.909,20.909,0,0,1,56.15,79.1,14.826,14.826,0,0,1,61.7,75.07a15,15,0,0,1,5.071-1.42c1.211-.087,2.426-.242,3.636-.216A15.831,15.831,0,0,1,76.175,74.7C76.607,74.881,77.026,75.088,77.51,75.282Z"/><path class="cls-2" d="M281.579,80.5a2.664,2.664,0,0,0-.085.589c0,5.133-.025,10.267.013,15.4a28.14,28.14,0,0,0,.347,3.7,2.321,2.321,0,0,0,2.057,2.049,7.808,7.808,0,0,0,4.509-.582c.734-.293,1.466-.6,2.171-.953.439-.221.66-.077.818.312.665,1.63,1.289,3.278,2.007,4.885.242.541.148.774-.34,1a21.023,21.023,0,0,1-5.241,2,13.15,13.15,0,0,1-3.609.25,13.407,13.407,0,0,1-3.556-.736,8.731,8.731,0,0,1-3.558-2.538,11.085,11.085,0,0,1-2.251-5.2,14.888,14.888,0,0,1-.244-2.933q-.033-8.4,0-16.8c0-.556-.163-.676-.687-.667-1.808.031-3.617,0-5.425.02-.422,0-.568-.107-.563-.549.023-1.867.02-3.734,0-5.6,0-.413.133-.523.534-.519,1.847.019,3.695-.006,5.542.019.452,0,.6-.111.594-.58-.022-2.547,0-5.094-.02-7.642,0-.476.086-.636.619-.68,1.636-.133,3.263-.366,4.894-.56a.912.912,0,0,1,.117,0c1.554.024,1.253-.2,1.26,1.171q.022,3.85-.006,7.7c0,.455.118.593.582.591,3.151-.02,6.3,0,9.451-.023.5,0,.613.157.607.627q-.037,2.712,0,5.425c.007.474-.111.628-.61.624-3.091-.024-6.183-.015-9.275,0A2.117,2.117,0,0,0,281.579,80.5Z"/></svg>