<svg id="Layer_1" data-name="Layer 1" xmlns="http://www.w3.org/2000/svg" xmlns:xlink="http://www.w3.org/1999/xlink" viewBox="0 0 1080.48 1080.48"><defs><style>.cls-1{fill:#fff;}.cls-2{fill:#786dc6;}.cls-3{fill:#6558ac;}.cls-4{fill:#59529e;}.cls-5{fill:url(#linear-gradient);}.cls-6{fill:url(#linear-gradient-2);}.cls-7{fill:url(#linear-gradient-3);}.cls-8{fill:url(#linear-gradient-4);}.cls-9{fill:url(#linear-gradient-5);}.cls-10{fill:url(#linear-gradient-6);}.cls-11{fill:url(#linear-gradient-7);}.cls-12{fill:url(#linear-gradient-8);}</style><linearGradient id="linear-gradient" x1="265" y1="375.082" x2="394.68" y2="375.082" gradientTransform="matrix(-1, 0, 0, 1, 1127.828, 0)" gradientUnits="userSpaceOnUse"><stop offset="0" stop-color="#3a3567"/><stop offset="0.25" stop-color="#685aad"/><stop offset="0.368" stop-color="#685aad"/><stop offset="1" stop-color="#3a3567"/></linearGradient><linearGradient id="linear-gradient-2" x1="394.711" y1="445.819" x2="524.36" y2="445.819" xlink:href="#linear-gradient"/><linearGradient id="linear-gradient-3" x1="524.393" y1="516.557" x2="654.04" y2="516.557" xlink:href="#linear-gradient"/><linearGradient id="linear-gradient-4" x1="654.073" y1="587.296" x2="783.722" y2="587.296" xlink:href="#linear-gradient"/><linearGradient id="linear-gradient-5" x1="394.68" y1="304.336" x2="524.36" y2="304.336" xlink:href="#linear-gradient"/><linearGradient id="linear-gradient-6" x1="524.393" y1="375.082" x2="654.04" y2="375.082" xlink:href="#linear-gradient"/><linearGradient id="linear-gradient-7" x1="654.073" y1="445.819" x2="783.722" y2="445.819" xlink:href="#linear-gradient"/><linearGradient id="linear-gradient-8" x1="783.754" y1="516.557" x2="913.419" y2="516.557" xlink:href="#linear-gradient"/></defs><circle class="cls-1" cx="538.604" cy="540.24" r="541.876"/><polygon class="cls-2" points="927.686 375.065 408.93 658.018 149.553 516.557 668.292 233.59 927.686 375.065"/><polygon class="cls-3" points="408.93 870.23 408.93 658.018 149.522 516.54 149.553 728.754 408.93 870.23"/><polygon class="cls-4" points="408.899 658.018 927.653 375.065 927.686 587.279 408.93 870.23 408.899 658.018"/><path class="cls-5" d="M862.828,339.712v35.353c0,19.545-29.048,35.386-64.855,35.386s-64.825-15.841-64.825-35.386V339.712Z"/><path class="cls-2" d="M733.148,339.712c0,19.53,29.018,35.37,64.825,35.37s64.855-15.84,64.855-35.37-29.048-35.367-64.855-35.367S733.148,320.184,733.148,339.712Z"/><path class="cls-6" d="M733.117,410.451V445.82c0,19.545-29.018,35.368-64.825,35.368s-64.824-15.823-64.824-35.368V410.451Z"/><path class="cls-2" d="M603.468,410.451c0,19.545,29.016,35.384,64.824,35.384S733.117,430,733.117,410.451c0-19.528-29.018-35.353-64.825-35.353S603.468,390.923,603.468,410.451Z"/><path class="cls-7" d="M603.435,481.188v35.369c0,19.545-29.016,35.369-64.823,35.369s-64.824-15.824-64.824-35.369V481.188Z"/><path class="cls-2" d="M473.788,481.188c0,19.546,29.016,35.386,64.824,35.386s64.823-15.84,64.823-35.386c0-19.528-29.016-35.353-64.823-35.353S473.788,461.66,473.788,481.188Z"/><path class="cls-8" d="M473.755,551.926V587.3c0,19.544-29.016,35.369-64.825,35.369S344.106,606.84,344.106,587.3v-35.37Z"/><path class="cls-2" d="M344.106,551.926c0,19.545,29.018,35.386,64.824,35.386s64.825-15.841,64.825-35.386c0-19.528-29.016-35.352-64.825-35.352S344.106,532.4,344.106,551.926Z"/><path class="cls-9" d="M733.148,268.975v35.353c0,19.528-29.049,35.369-64.856,35.369s-64.824-15.841-64.824-35.369V268.975Z"/><path class="cls-2" d="M603.468,268.975c0,19.528,29.016,35.353,64.824,35.353s64.856-15.825,64.856-35.353c0-19.544-29.049-35.385-64.856-35.385S603.468,249.431,603.468,268.975Z"/><path class="cls-10" d="M603.435,339.712v35.353c0,19.545-29.016,35.386-64.823,35.386s-64.824-15.841-64.824-35.386V339.712Z"/><path class="cls-2" d="M473.788,339.712c0,19.53,29.016,35.37,64.824,35.37s64.823-15.84,64.823-35.37-29.016-35.367-64.823-35.367S473.788,320.184,473.788,339.712Z"/><path class="cls-11" d="M473.755,410.451V445.8c0,19.544-29.016,35.384-64.825,35.384s-64.824-15.84-64.824-35.384V410.451Z"/><ellipse class="cls-2" cx="408.93" cy="410.451" rx="64.824" ry="35.369"/><path class="cls-12" d="M344.075,481.188V516.54c0,19.547-29,35.386-64.808,35.386s-64.858-15.839-64.858-35.386V481.188Z"/><path class="cls-2" d="M214.409,481.188c0,19.529,29.049,35.369,64.858,35.369s64.808-15.84,64.808-35.369-29-35.368-64.808-35.368S214.409,461.66,214.409,481.188Z"/></svg>