<svg xmlns="http://www.w3.org/2000/svg" xmlns:xlink="http://www.w3.org/1999/xlink" viewBox="0 0 360 360"><defs><style>.cls-1{fill:url(#linear-gradient);}.cls-2{fill:url(#linear-gradient-2);}.cls-3{fill:url(#linear-gradient-3);}.cls-4{fill:url(#linear-gradient-4);}.cls-5{fill:url(#linear-gradient-5);}.cls-6{fill:url(#linear-gradient-6);}.cls-7{fill:url(#linear-gradient-7);}.cls-8{fill:url(#linear-gradient-8);}.cls-9{fill:url(#linear-gradient-9);}.cls-10{fill:url(#linear-gradient-10);}.cls-11{fill:url(#linear-gradient-11);}.cls-12{fill:url(#linear-gradient-12);}.cls-13{fill:url(#linear-gradient-13);}.cls-14{fill:url(#linear-gradient-14);}.cls-15{fill:url(#linear-gradient-15);}.cls-16{fill:url(#linear-gradient-16);}</style><linearGradient id="linear-gradient" x1="115.549" y1="109.567" x2="210.226" y2="109.567" gradientUnits="userSpaceOnUse"><stop offset="0.126" stop-color="#fff"/><stop offset="0.2" stop-color="#fff" stop-opacity="0.962"/><stop offset="0.323" stop-color="#fff" stop-opacity="0.858"/><stop offset="0.482" stop-color="#fff" stop-opacity="0.69"/><stop offset="0.668" stop-color="#fff" stop-opacity="0.459"/><stop offset="0.712" stop-color="#fff" stop-opacity="0.4"/><stop offset="0.984" stop-color="#fff" stop-opacity="0.8"/></linearGradient><linearGradient id="linear-gradient-2" x1="149.87" y1="109.633" x2="244.533" y2="109.633" xlink:href="#linear-gradient"/><linearGradient id="linear-gradient-3" x1="-265.365" y1="-586.639" x2="-170.697" y2="-586.639" gradientTransform="matrix(0.707, 0.708, -0.708, 0.707, -43.178, 686.942)" xlink:href="#linear-gradient"/><linearGradient id="linear-gradient-4" x1="-231.023" y1="-586.58" x2="-136.375" y2="-586.58" gradientTransform="matrix(0.707, 0.708, -0.708, 0.707, -43.178, 686.942)" xlink:href="#linear-gradient"/><linearGradient id="linear-gradient-5" x1="-1026.965" y1="-809.829" x2="-932.305" y2="-809.829" gradientTransform="translate(-560.46 1141.654) rotate(90.069)" xlink:href="#linear-gradient"/><linearGradient id="linear-gradient-6" x1="-992.645" y1="-809.775" x2="-897.993" y2="-809.775" gradientTransform="translate(-560.46 1141.654) rotate(90.069)" xlink:href="#linear-gradient"/><linearGradient id="linear-gradient-7" x1="-1723.535" y1="-427.429" x2="-1628.885" y2="-427.429" gradientTransform="translate(-1247.026 1098.358) rotate(135.097)" xlink:href="#linear-gradient"/><linearGradient id="linear-gradient-8" x1="-1689.204" y1="-427.368" x2="-1594.547" y2="-427.368" gradientTransform="translate(-1247.026 1098.358) rotate(135.097)" xlink:href="#linear-gradient"/><linearGradient id="linear-gradient-9" x1="-1945.283" y1="334.49" x2="-1850.604" y2="334.49" gradientTransform="translate(-1701.687 580.708) rotate(-179.868)" xlink:href="#linear-gradient"/><linearGradient id="linear-gradient-10" x1="-1910.962" y1="334.549" x2="-1816.309" y2="334.549" gradientTransform="translate(-1701.687 580.708) rotate(-179.868)" xlink:href="#linear-gradient"/><linearGradient id="linear-gradient-11" x1="-1561.974" y1="1029.457" x2="-1467.279" y2="1029.457" gradientTransform="matrix(-0.705, -0.709, 0.709, -0.705, -1655.756, -106.488)" xlink:href="#linear-gradient"/><linearGradient id="linear-gradient-12" x1="-1527.636" y1="1029.524" x2="-1432.983" y2="1029.524" gradientTransform="matrix(-0.705, -0.709, 0.709, -0.705, -1655.756, -106.488)" xlink:href="#linear-gradient"/><linearGradient id="linear-gradient-13" x1="-800.115" y1="1250.652" x2="-705.421" y2="1250.652" gradientTransform="matrix(0.004, -1, 1, 0.004, -1138.529, -560.188)" xlink:href="#linear-gradient"/><linearGradient id="linear-gradient-14" x1="-765.779" y1="1250.711" x2="-671.135" y2="1250.711" gradientTransform="matrix(0.004, -1, 1, 0.004, -1138.529, -560.188)" xlink:href="#linear-gradient"/><linearGradient id="linear-gradient-15" x1="-104.789" y1="867.254" x2="-10.125" y2="867.254" gradientTransform="translate(-451.701 -514.116) rotate(-44.765)" xlink:href="#linear-gradient"/><linearGradient id="linear-gradient-16" x1="-70.465" y1="867.31" x2="24.197" y2="867.31" gradientTransform="translate(-451.701 -514.116) rotate(-44.765)" xlink:href="#linear-gradient"/></defs><g id="Layer_2" data-name="Layer 2"><path class="cls-1" d="M159,152.024c-9.648-16.608-28.886-49.8-38.522-66.418-8.686-14.966-5.5-27.909,6.462-33.469-8.028,6.468-8.656,15.2-4.164,22.1,10.242,15.777,31.942,41.671,47.47,58.7,14.649,16.037,28.3,19.9,39.979,3.446l-9.1,15.654C189.546,171.992,170.561,171.977,159,152.024Z"/><path class="cls-2" d="M201.123,152.078c9.594-16.613,28.849-49.807,38.484-66.413,8.672-14.981,5.5-27.93-6.444-33.454,8.011,6.442,8.613,15.186,4.139,22.1-10.219,15.755-31.945,41.633-47.445,58.681-14.668,16.018-28.3,19.9-39.987,3.445l9.093,15.639C170.561,172.048,189.546,172.048,201.123,152.078Z"/><path class="cls-3" d="M185.015,145.316c4.946-18.5,14.8-55.576,19.741-74.127C209.239,54.44,220.662,47.528,233,52.076c-10.254-1.1-16.83,4.647-18.582,12.691-3.894,18.389-6.875,52.047-7.968,75.069-1,21.671,5.9,34.073,25.805,30.72l-17.485,4.627C192.432,181.066,179.038,167.641,185.015,145.316Z"/><path class="cls-4" d="M214.74,175.183c18.527-4.928,55.62-14.744,74.158-19.694,16.771-4.423,23.686-15.863,19.139-28.191,1.118,10.224-4.665,16.823-12.708,18.55-18.373,3.882-52.03,6.824-75.053,7.9-21.7.956-34.1-5.977-30.685-25.844l-4.649,17.45C179.007,167.68,192.417,181.1,214.74,175.183Z"/><path class="cls-5" d="M208.117,159c16.6-9.544,49.813-28.773,66.421-38.363,15.029-8.675,27.96-5.492,33.484,6.457-6.444-8.028-15.188-8.638-22.137-4.146-15.736,10.193-41.668,31.862-58.729,47.386-16.055,14.624-19.944,28.243-3.483,39.96L208.031,201.2C188.074,189.552,188.115,170.6,208.117,159Z"/><path class="cls-6" d="M208.013,201.164c16.58,9.628,49.74,28.947,66.351,38.562,14.987,8.715,27.93,5.53,33.467-6.379-6.46,7.973-15.19,8.583-22.1,4.1-15.76-10.25-41.618-31.99-58.638-47.552-16.032-14.665-19.9-28.312-3.424-39.95L208.031,159C188.061,170.6,188.043,189.552,208.013,201.164Z"/><path class="cls-7" d="M214.758,185.061c18.509,4.945,55.6,14.881,74.126,19.852,16.741,4.471,23.627,15.914,19.082,28.256,1.121-10.233-4.625-16.849-12.655-18.6-18.388-3.933-52.05-6.943-75.07-8.042-21.685-1.025-34.1,5.869-30.736,25.754L184.9,214.8C179.007,192.479,192.447,179.051,214.758,185.061Z"/><path class="cls-8" d="M184.9,214.76c4.873,18.551,14.681,55.639,19.567,74.207,4.439,16.748,15.863,23.663,28.19,19.147-10.2,1.086-16.847-4.663-18.526-12.745-3.875-18.386-6.788-52.024-7.8-75.069-.962-21.68,5.965-34.052,25.853-30.644l-17.443-4.645C192.4,179.036,178.991,192.444,184.9,214.76Z"/><path class="cls-9" d="M201.054,208.17c9.578,16.592,28.75,49.851,38.322,66.459,8.657,14.994,5.437,27.966-6.509,33.453,8.013-6.442,8.658-15.162,4.2-22.111-10.2-15.759-31.868-41.688-47.326-58.77-14.629-16.075-28.264-19.97-39.988-3.558l9.111-15.6C170.542,188.109,189.505,188.159,201.054,208.17Z"/><path class="cls-10" d="M158.89,207.991c-9.624,16.593-28.966,49.734-38.617,66.307-8.726,14.98-5.57,27.954,6.333,33.491-7.952-6.46-8.58-15.221-4.068-22.119,10.268-15.721,32.039-41.585,47.6-58.558,14.682-16.038,28.338-19.87,39.964-3.38l-9.037-15.621C189.505,188.092,170.542,188.032,158.89,207.991Z"/><path class="cls-11" d="M175,214.784c-4.957,18.508-14.957,55.561-19.914,74.079-4.528,16.751-15.955,23.624-28.319,19.041,10.261,1.125,16.857-4.589,18.631-12.638,3.956-18.37,6.985-52.028,8.154-75.055,1.026-21.677-5.85-34.09-25.762-30.782l17.488-4.581C167.632,179.019,181.025,192.479,175,214.784Z"/><path class="cls-12" d="M145.349,184.848c-18.583,4.877-55.69,14.627-74.233,19.524-16.771,4.4-23.7,15.81-19.193,28.139-1.084-10.229,4.706-16.821,12.748-18.5,18.387-3.844,52.049-6.723,75.067-7.708,21.714-.93,34.079,6.019,30.626,25.906l4.692-17.481C181.067,192.426,167.672,178.98,145.349,184.848Z"/><path class="cls-13" d="M151.911,201.042c-16.632,9.547-49.868,28.679-66.5,38.243-15.021,8.634-27.978,5.415-33.47-6.546,6.451,8.022,15.174,8.635,22.1,4.2,15.792-10.176,41.758-31.791,58.853-47.257,16.1-14.571,20-28.206,3.609-39.983l15.568,9.149C172.005,170.556,171.935,189.539,151.911,201.042Z"/><path class="cls-14" d="M152.1,158.868c-16.523-9.664-49.667-29.009-66.246-38.688-14.973-8.745-27.925-5.614-33.5,6.3,6.493-7.975,15.251-8.549,22.12-4.075C90.212,132.723,116.06,154.513,133,170.077c16.024,14.706,19.837,28.353,3.329,39.985l15.658-9.02C172.005,189.539,172.077,170.556,152.1,158.868Z"/><path class="cls-15" d="M145.31,174.991c-18.473-5.027-55.532-15.042-74.043-20.041-16.731-4.515-23.589-15.963-19.011-28.3-1.136,10.23,4.608,16.858,12.6,18.6,18.377,4,52.034,7.065,75.049,8.271,21.7,1.065,34.1-5.795,30.807-25.717l4.562,17.476C181.1,167.669,167.617,181,145.31,174.991Z"/><path class="cls-16" d="M175.291,145.34c-4.87-18.547-14.588-55.653-19.411-74.233-4.407-16.769-15.795-23.737-28.152-19.242,10.218-1.062,16.818,4.738,18.511,12.759,3.829,18.4,6.649,52.07,7.622,75.108.906,21.729-6.059,34.061-25.941,30.61l17.461,4.7C167.672,181.038,181.147,167.7,175.291,145.34Z"/></g></svg>