<svg id="Layer_1" data-name="Layer 1" xmlns="http://www.w3.org/2000/svg" xmlns:xlink="http://www.w3.org/1999/xlink" viewBox="0 0 578 430"><defs><style>.cls-1{fill:#fff;}.cls-2{fill:#d0d2d3;}.cls-3{fill:#a6a8ab;}.cls-4{fill:url(#linear-gradient);}.cls-5{fill:#dbdcdd;}.cls-6{fill:url(#linear-gradient-2);}.cls-7{fill:url(#linear-gradient-3);}.cls-8{fill:url(#linear-gradient-4);}.cls-9{fill:url(#linear-gradient-5);}.cls-10{fill:url(#linear-gradient-6);}.cls-11{fill:url(#linear-gradient-7);}.cls-12{fill:url(#linear-gradient-8);}.cls-13{fill:#a0a0a0;}.cls-14{fill:#939393;}.cls-15{fill:#7a7a7a;}.cls-16{fill:url(#linear-gradient-9);}.cls-17{fill:#999;}.cls-18{fill:url(#linear-gradient-10);}.cls-19{fill:url(#linear-gradient-11);}.cls-20{fill:url(#linear-gradient-12);}.cls-21{fill:url(#linear-gradient-13);}.cls-22{fill:url(#linear-gradient-14);}.cls-23{fill:url(#linear-gradient-15);}.cls-24{fill:url(#linear-gradient-16);}.cls-25{fill:#6d6e70;}.cls-26{fill:#4d4d4f;}.cls-27{fill:#231f20;}.cls-28{fill:url(#linear-gradient-17);}.cls-29{fill:#5c5d60;}.cls-30{fill:url(#linear-gradient-18);}.cls-31{fill:url(#linear-gradient-19);}.cls-32{fill:url(#linear-gradient-20);}.cls-33{fill:url(#linear-gradient-21);}.cls-34{fill:url(#linear-gradient-22);}.cls-35{fill:url(#linear-gradient-23);}.cls-36{fill:url(#linear-gradient-24);}.cls-37{fill:#786dc6;}.cls-38{fill:#6558ac;}.cls-39{fill:#59529e;}.cls-40{fill:url(#linear-gradient-25);}.cls-41{fill:url(#linear-gradient-26);}.cls-42{fill:url(#linear-gradient-27);}.cls-43{fill:url(#linear-gradient-28);}.cls-44{fill:url(#linear-gradient-29);}.cls-45{fill:url(#linear-gradient-30);}.cls-46{fill:url(#linear-gradient-31);}.cls-47{fill:url(#linear-gradient-32);}.cls-48{fill:url(#linear-gradient-33);}.cls-49{fill:url(#linear-gradient-34);}.cls-50{fill:url(#linear-gradient-35);}.cls-51{fill:url(#linear-gradient-36);}.cls-52{fill:url(#linear-gradient-37);}.cls-53{fill:url(#linear-gradient-38);}.cls-54{fill:url(#linear-gradient-39);}.cls-55{fill:url(#linear-gradient-40);}.cls-56{fill:url(#linear-gradient-41);}.cls-57{fill:url(#linear-gradient-42);}.cls-58{fill:url(#linear-gradient-43);}.cls-59{fill:url(#linear-gradient-44);}.cls-60{fill:url(#linear-gradient-45);}.cls-61{fill:url(#linear-gradient-46);}.cls-62{fill:url(#linear-gradient-47);}.cls-63{fill:url(#linear-gradient-48);}.cls-64{fill:url(#linear-gradient-49);}.cls-65{fill:url(#linear-gradient-50);}.cls-66{fill:url(#linear-gradient-51);}.cls-67{fill:url(#linear-gradient-52);}.cls-68{fill:url(#linear-gradient-53);}.cls-69{fill:url(#linear-gradient-54);}.cls-70{fill:url(#linear-gradient-55);}.cls-71{fill:url(#linear-gradient-56);}.cls-72{fill:url(#linear-gradient-57);}.cls-73{fill:url(#linear-gradient-58);}.cls-74{fill:url(#linear-gradient-59);}.cls-75{fill:url(#linear-gradient-60);}.cls-76{fill:url(#linear-gradient-61);}.cls-77{fill:url(#linear-gradient-62);}.cls-78{fill:url(#linear-gradient-63);}.cls-79{fill:url(#linear-gradient-64);}</style><linearGradient id="linear-gradient" x1="-12357.008" y1="266.029" x2="-12328.241" y2="266.029" gradientTransform="translate(12441.96)" gradientUnits="userSpaceOnUse"><stop offset="0" stop-color="#a6a8ab"/><stop offset="0.25" stop-color="#d0d2d3"/><stop offset="0.368" stop-color="#d0d2d3"/><stop offset="1" stop-color="#a6a8ab"/></linearGradient><linearGradient id="linear-gradient-2" x1="-12328.234" y1="281.721" x2="-12299.474" y2="281.721" xlink:href="#linear-gradient"/><linearGradient id="linear-gradient-3" x1="-12299.467" y1="297.413" x2="-12270.707" y2="297.413" xlink:href="#linear-gradient"/><linearGradient id="linear-gradient-4" x1="-12270.7" y1="313.104" x2="-12241.94" y2="313.104" xlink:href="#linear-gradient"/><linearGradient id="linear-gradient-5" x1="-12328.241" y1="250.335" x2="-12299.474" y2="250.335" xlink:href="#linear-gradient"/><linearGradient id="linear-gradient-6" x1="-12299.467" y1="266.029" x2="-12270.707" y2="266.029" xlink:href="#linear-gradient"/><linearGradient id="linear-gradient-7" x1="-12270.7" y1="281.721" x2="-12241.94" y2="281.721" xlink:href="#linear-gradient"/><linearGradient id="linear-gradient-8" x1="-12241.933" y1="297.413" x2="-12213.169" y2="297.413" xlink:href="#linear-gradient"/><linearGradient id="linear-gradient-9" x1="-12357.012" y1="218.947" x2="-12328.245" y2="218.947" gradientTransform="translate(12441.96)" gradientUnits="userSpaceOnUse"><stop offset="0" stop-color="#7a7a7a"/><stop offset="0.25" stop-color="#939393"/><stop offset="0.368" stop-color="#a0a0a0"/><stop offset="1" stop-color="#7a7a7a"/></linearGradient><linearGradient id="linear-gradient-10" x1="-12328.237" y1="234.64" x2="-12299.477" y2="234.64" xlink:href="#linear-gradient-9"/><linearGradient id="linear-gradient-11" x1="-12299.47" y1="250.332" x2="-12270.71" y2="250.332" xlink:href="#linear-gradient-9"/><linearGradient id="linear-gradient-12" x1="-12270.703" y1="266.024" x2="-12241.943" y2="266.024" xlink:href="#linear-gradient-9"/><linearGradient id="linear-gradient-13" x1="-12328.245" y1="203.253" x2="-12299.477" y2="203.253" xlink:href="#linear-gradient-9"/><linearGradient id="linear-gradient-14" x1="-12299.47" y1="218.947" x2="-12270.71" y2="218.947" xlink:href="#linear-gradient-9"/><linearGradient id="linear-gradient-15" x1="-12270.703" y1="234.639" x2="-12241.943" y2="234.639" xlink:href="#linear-gradient-9"/><linearGradient id="linear-gradient-16" x1="-12241.936" y1="250.331" x2="-12213.172" y2="250.331" xlink:href="#linear-gradient-9"/><linearGradient id="linear-gradient-17" x1="-12357" y1="171.874" x2="-12328.234" y2="171.874" gradientTransform="translate(12441.96)" gradientUnits="userSpaceOnUse"><stop offset="0" stop-color="#231f20"/><stop offset="0.25" stop-color="#4d4d4f"/><stop offset="0.368" stop-color="#4d4d4f"/><stop offset="1" stop-color="#231f20"/></linearGradient><linearGradient id="linear-gradient-18" x1="-12328.227" y1="187.565" x2="-12299.468" y2="187.565" xlink:href="#linear-gradient-17"/><linearGradient id="linear-gradient-19" x1="-12299.461" y1="203.256" x2="-12270.702" y2="203.256" xlink:href="#linear-gradient-17"/><linearGradient id="linear-gradient-20" x1="-12270.695" y1="218.948" x2="-12241.936" y2="218.948" xlink:href="#linear-gradient-17"/><linearGradient id="linear-gradient-21" x1="-12328.234" y1="156.181" x2="-12299.468" y2="156.181" xlink:href="#linear-gradient-17"/><linearGradient id="linear-gradient-22" x1="-12299.461" y1="171.874" x2="-12270.702" y2="171.874" xlink:href="#linear-gradient-17"/><linearGradient id="linear-gradient-23" x1="-12270.695" y1="187.565" x2="-12241.936" y2="187.565" xlink:href="#linear-gradient-17"/><linearGradient id="linear-gradient-24" x1="-12241.929" y1="203.256" x2="-12213.166" y2="203.256" xlink:href="#linear-gradient-17"/><linearGradient id="linear-gradient-25" x1="-12357.022" y1="77.731" x2="-12328.255" y2="77.731" gradientTransform="translate(12441.96)" gradientUnits="userSpaceOnUse"><stop offset="0" stop-color="#3a3567"/><stop offset="0.25" stop-color="#685aad"/><stop offset="0.368" stop-color="#685aad"/><stop offset="1" stop-color="#3a3567"/></linearGradient><linearGradient id="linear-gradient-26" x1="-12328.248" y1="93.423" x2="-12299.488" y2="93.423" xlink:href="#linear-gradient-25"/><linearGradient id="linear-gradient-27" x1="-12299.48" y1="109.115" x2="-12270.721" y2="109.115" xlink:href="#linear-gradient-25"/><linearGradient id="linear-gradient-28" x1="-12270.713" y1="124.807" x2="-12241.953" y2="124.807" xlink:href="#linear-gradient-25"/><linearGradient id="linear-gradient-29" x1="-12328.255" y1="62.038" x2="-12299.488" y2="62.038" xlink:href="#linear-gradient-25"/><linearGradient id="linear-gradient-30" x1="-12299.48" y1="77.731" x2="-12270.721" y2="77.731" xlink:href="#linear-gradient-25"/><linearGradient id="linear-gradient-31" x1="-12270.713" y1="93.423" x2="-12241.953" y2="93.423" xlink:href="#linear-gradient-25"/><linearGradient id="linear-gradient-32" x1="-12241.946" y1="109.115" x2="-12213.183" y2="109.115" xlink:href="#linear-gradient-25"/><linearGradient id="linear-gradient-33" x1="-12469.018" y1="257.848" x2="-12433.369" y2="257.848" gradientTransform="translate(12788.963)" xlink:href="#linear-gradient"/><linearGradient id="linear-gradient-34" x1="-12433.361" y1="277.293" x2="-12397.72" y2="277.293" gradientTransform="translate(12788.963)" xlink:href="#linear-gradient"/><linearGradient id="linear-gradient-35" x1="-12397.711" y1="296.739" x2="-12362.071" y2="296.739" gradientTransform="translate(12788.963)" xlink:href="#linear-gradient"/><linearGradient id="linear-gradient-36" x1="-12362.062" y1="316.185" x2="-12326.421" y2="316.185" gradientTransform="translate(12788.963)" xlink:href="#linear-gradient"/><linearGradient id="linear-gradient-37" x1="-12433.369" y1="238.399" x2="-12397.72" y2="238.399" gradientTransform="translate(12788.963)" xlink:href="#linear-gradient"/><linearGradient id="linear-gradient-38" x1="-12397.711" y1="257.848" x2="-12362.071" y2="257.848" gradientTransform="translate(12788.963)" xlink:href="#linear-gradient"/><linearGradient id="linear-gradient-39" x1="-12362.062" y1="277.293" x2="-12326.421" y2="277.293" gradientTransform="translate(12788.963)" xlink:href="#linear-gradient"/><linearGradient id="linear-gradient-40" x1="-12326.413" y1="296.739" x2="-12290.767" y2="296.739" gradientTransform="translate(12788.963)" xlink:href="#linear-gradient"/><linearGradient id="linear-gradient-41" x1="-12469.023" y1="199.502" x2="-12433.374" y2="199.502" gradientTransform="translate(12788.963)" xlink:href="#linear-gradient-9"/><linearGradient id="linear-gradient-42" x1="-12433.365" y1="218.95" x2="-12397.724" y2="218.95" gradientTransform="translate(12788.963)" xlink:href="#linear-gradient-9"/><linearGradient id="linear-gradient-43" x1="-12397.715" y1="238.396" x2="-12362.075" y2="238.396" gradientTransform="translate(12788.963)" xlink:href="#linear-gradient-9"/><linearGradient id="linear-gradient-44" x1="-12362.066" y1="257.842" x2="-12326.426" y2="257.842" gradientTransform="translate(12788.963)" xlink:href="#linear-gradient-9"/><linearGradient id="linear-gradient-45" x1="-12433.374" y1="180.054" x2="-12397.724" y2="180.054" gradientTransform="translate(12788.963)" xlink:href="#linear-gradient-9"/><linearGradient id="linear-gradient-46" x1="-12397.715" y1="199.502" x2="-12362.075" y2="199.502" gradientTransform="translate(12788.963)" xlink:href="#linear-gradient-9"/><linearGradient id="linear-gradient-47" x1="-12362.066" y1="218.948" x2="-12326.426" y2="218.948" gradientTransform="translate(12788.963)" xlink:href="#linear-gradient-9"/><linearGradient id="linear-gradient-48" x1="-12326.417" y1="238.394" x2="-12290.772" y2="238.394" gradientTransform="translate(12788.963)" xlink:href="#linear-gradient-9"/><linearGradient id="linear-gradient-49" x1="-12469.008" y1="141.167" x2="-12433.36" y2="141.167" gradientTransform="translate(12788.963)" xlink:href="#linear-gradient-17"/><linearGradient id="linear-gradient-50" x1="-12433.352" y1="160.612" x2="-12397.713" y2="160.612" gradientTransform="translate(12788.963)" xlink:href="#linear-gradient-17"/><linearGradient id="linear-gradient-51" x1="-12397.704" y1="180.057" x2="-12362.065" y2="180.057" gradientTransform="translate(12788.963)" xlink:href="#linear-gradient-17"/><linearGradient id="linear-gradient-52" x1="-12362.056" y1="199.503" x2="-12326.417" y2="199.503" gradientTransform="translate(12788.963)" xlink:href="#linear-gradient-17"/><linearGradient id="linear-gradient-53" x1="-12433.36" y1="121.72" x2="-12397.713" y2="121.72" gradientTransform="translate(12788.963)" xlink:href="#linear-gradient-17"/><linearGradient id="linear-gradient-54" x1="-12397.704" y1="141.167" x2="-12362.065" y2="141.167" gradientTransform="translate(12788.963)" xlink:href="#linear-gradient-17"/><linearGradient id="linear-gradient-55" x1="-12362.056" y1="160.612" x2="-12326.417" y2="160.612" gradientTransform="translate(12788.963)" xlink:href="#linear-gradient-17"/><linearGradient id="linear-gradient-56" x1="-12326.408" y1="180.057" x2="-12290.764" y2="180.057" gradientTransform="translate(12788.963)" xlink:href="#linear-gradient-17"/><linearGradient id="linear-gradient-57" x1="-12469.035" y1="82.835" x2="-12433.386" y2="82.835" gradientTransform="translate(12788.963)" xlink:href="#linear-gradient-25"/><linearGradient id="linear-gradient-58" x1="-12433.377" y1="102.281" x2="-12397.737" y2="102.281" gradientTransform="translate(12788.963)" xlink:href="#linear-gradient-25"/><linearGradient id="linear-gradient-59" x1="-12397.728" y1="121.726" x2="-12362.088" y2="121.726" gradientTransform="translate(12788.963)" xlink:href="#linear-gradient-25"/><linearGradient id="linear-gradient-60" x1="-12362.079" y1="141.173" x2="-12326.438" y2="141.173" gradientTransform="translate(12788.963)" xlink:href="#linear-gradient-25"/><linearGradient id="linear-gradient-61" x1="-12433.386" y1="63.387" x2="-12397.737" y2="63.387" gradientTransform="translate(12788.963)" xlink:href="#linear-gradient-25"/><linearGradient id="linear-gradient-62" x1="-12397.728" y1="82.835" x2="-12362.088" y2="82.835" gradientTransform="translate(12788.963)" xlink:href="#linear-gradient-25"/><linearGradient id="linear-gradient-63" x1="-12362.079" y1="102.281" x2="-12326.438" y2="102.281" gradientTransform="translate(12788.963)" xlink:href="#linear-gradient-25"/><linearGradient id="linear-gradient-64" x1="-12326.429" y1="121.726" x2="-12290.784" y2="121.726" gradientTransform="translate(12788.963)" xlink:href="#linear-gradient-25"/></defs><polygon class="cls-1" points="70.564 266.025 185.64 328.792 243.178 297.413 128.106 234.642 70.564 266.025"/><polygon class="cls-2" points="185.64 375.868 185.64 328.792 243.185 297.409 243.178 344.484 185.64 375.868"/><polygon class="cls-3" points="185.647 328.792 70.572 266.025 70.564 313.101 185.64 375.868 185.647 328.792"/><path class="cls-4" d="M84.952,258.183v7.842c0,4.336,6.444,7.85,14.387,7.85s14.38-3.514,14.38-7.85v-7.842Z"/><path class="cls-1" d="M99.339,266c-7.92,0-14.363-3.508-14.363-7.821s6.443-7.821,14.363-7.821,14.355,3.509,14.355,7.821S107.254,266,99.339,266Z"/><path class="cls-5" d="M99.339,250.387c7.9,0,14.33,3.5,14.33,7.8s-6.429,7.8-14.33,7.8S85,262.482,85,258.183s6.431-7.8,14.337-7.8m0-.05c-7.943,0-14.387,3.514-14.387,7.846s6.444,7.846,14.387,7.846,14.38-3.514,14.38-7.846-6.437-7.846-14.38-7.846Z"/><path class="cls-6" d="M113.726,273.875v7.846c0,4.335,6.437,7.846,14.38,7.846s14.38-3.511,14.38-7.846v-7.846Z"/><path class="cls-1" d="M128.106,281.7c-7.916,0-14.355-3.51-14.355-7.824s6.439-7.817,14.355-7.817,14.355,3.506,14.355,7.817S136.021,281.7,128.106,281.7Z"/><path class="cls-5" d="M128.106,266.083c7.9,0,14.33,3.495,14.33,7.792s-6.429,7.8-14.33,7.8-14.33-3.5-14.33-7.8,6.428-7.792,14.33-7.792m0-.05c-7.943,0-14.38,3.51-14.38,7.842s6.437,7.849,14.38,7.849,14.38-3.513,14.38-7.849-6.437-7.842-14.38-7.842Z"/><path class="cls-7" d="M142.493,289.567v7.846c0,4.335,6.437,7.845,14.38,7.845s14.38-3.51,14.38-7.845v-7.846Z"/><path class="cls-1" d="M156.873,297.391c-7.916,0-14.355-3.51-14.355-7.825s6.439-7.816,14.355-7.816,14.355,3.506,14.355,7.816S164.789,297.391,156.873,297.391Z"/><path class="cls-5" d="M156.873,281.774c7.9,0,14.33,3.5,14.33,7.793s-6.429,7.8-14.33,7.8-14.33-3.5-14.33-7.8,6.428-7.793,14.33-7.793m0-.05c-7.943,0-14.38,3.511-14.38,7.843s6.437,7.849,14.38,7.849,14.38-3.514,14.38-7.849-6.437-7.843-14.38-7.843Z"/><path class="cls-8" d="M171.26,305.258V313.1c0,4.336,6.437,7.846,14.38,7.846s14.38-3.51,14.38-7.846v-7.846Z"/><path class="cls-1" d="M185.64,313.082c-7.915,0-14.355-3.51-14.355-7.823s6.44-7.818,14.355-7.818S200,300.948,200,305.259,193.556,313.082,185.64,313.082Z"/><path class="cls-5" d="M185.64,297.466c7.9,0,14.33,3.5,14.33,7.792s-6.428,7.8-14.33,7.8-14.33-3.5-14.33-7.8,6.429-7.792,14.33-7.792m0-.05c-7.943,0-14.38,3.51-14.38,7.842s6.437,7.85,14.38,7.85,14.38-3.514,14.38-7.85-6.437-7.842-14.38-7.842Z"/><path class="cls-9" d="M113.719,242.491v7.842c0,4.333,6.444,7.846,14.387,7.846s14.38-3.513,14.38-7.846v-7.842Z"/><path class="cls-1" d="M128.106,250.309c-7.92,0-14.362-3.507-14.362-7.818s6.442-7.824,14.362-7.824,14.355,3.51,14.355,7.824S136.021,250.309,128.106,250.309Z"/><path class="cls-5" d="M128.106,234.692c7.9,0,14.33,3.5,14.33,7.8s-6.429,7.792-14.33,7.792-14.337-3.495-14.337-7.792,6.431-7.8,14.337-7.8m0-.05c-7.943,0-14.387,3.513-14.387,7.849s6.444,7.842,14.387,7.842,14.38-3.51,14.38-7.842-6.437-7.849-14.38-7.849Z"/><path class="cls-10" d="M142.493,258.183v7.842c0,4.336,6.437,7.85,14.38,7.85s14.38-3.514,14.38-7.85v-7.842Z"/><path class="cls-1" d="M156.873,266c-7.916,0-14.355-3.508-14.355-7.821s6.439-7.821,14.355-7.821,14.355,3.509,14.355,7.821S164.789,266,156.873,266Z"/><path class="cls-5" d="M156.873,250.387c7.9,0,14.33,3.5,14.33,7.8s-6.429,7.8-14.33,7.8-14.33-3.5-14.33-7.8,6.428-7.8,14.33-7.8m0-.05c-7.943,0-14.38,3.514-14.38,7.846s6.437,7.846,14.38,7.846,14.38-3.514,14.38-7.846-6.437-7.846-14.38-7.846Z"/><path class="cls-11" d="M171.26,273.875v7.842c0,4.336,6.437,7.85,14.38,7.85s14.38-3.514,14.38-7.85v-7.842Z"/><path class="cls-1" d="M185.64,281.7c-7.915,0-14.355-3.507-14.355-7.82s6.44-7.821,14.355-7.821S200,269.562,200,273.875,193.556,281.7,185.64,281.7Z"/><path class="cls-5" d="M185.64,266.079c7.9,0,14.33,3.5,14.33,7.8s-6.428,7.8-14.33,7.8-14.33-3.5-14.33-7.8,6.429-7.8,14.33-7.8m0-.05c-7.943,0-14.38,3.514-14.38,7.846s6.437,7.846,14.38,7.846,14.38-3.514,14.38-7.846-6.437-7.846-14.38-7.846Z"/><path class="cls-12" d="M200.027,289.567v7.842c0,4.335,6.434,7.849,14.377,7.849s14.387-3.514,14.387-7.849v-7.842Z"/><path class="cls-1" d="M214.4,297.387c-7.914,0-14.352-3.508-14.352-7.821s6.438-7.82,14.352-7.82,14.362,3.508,14.362,7.82S222.323,297.387,214.4,297.387Z"/><path class="cls-5" d="M214.4,281.771c7.905,0,14.337,3.5,14.337,7.8s-6.432,7.8-14.337,7.8-14.327-3.5-14.327-7.8,6.427-7.8,14.327-7.8m0-.05c-7.943,0-14.377,3.514-14.377,7.846s6.434,7.846,14.377,7.846,14.387-3.515,14.387-7.846-6.444-7.846-14.387-7.846Z"/><polygon class="cls-13" points="70.561 218.946 185.637 281.713 243.174 250.332 128.102 187.563 70.561 218.946"/><polygon class="cls-14" points="185.637 328.789 185.637 281.713 243.181 250.33 243.174 297.405 185.637 328.789"/><polygon class="cls-15" points="185.644 281.713 70.568 218.946 70.561 266.022 185.637 328.789 185.644 281.713"/><path class="cls-16" d="M84.948,211.1v7.844c0,4.334,6.444,7.846,14.387,7.846s14.38-3.512,14.38-7.846V211.1Z"/><path class="cls-17" d="M113.715,211.1c0,4.334-6.437,7.846-14.38,7.846s-14.387-3.512-14.387-7.846,6.444-7.846,14.387-7.846S113.715,206.768,113.715,211.1Z"/><path class="cls-18" d="M113.722,226.8v7.845c0,4.334,6.437,7.846,14.38,7.846s14.38-3.512,14.38-7.846V226.8Z"/><path class="cls-17" d="M142.482,226.8c0,4.335-6.436,7.846-14.38,7.846s-14.38-3.511-14.38-7.846,6.437-7.845,14.38-7.845S142.482,222.462,142.482,226.8Z"/><path class="cls-19" d="M142.49,242.487v7.845c0,4.333,6.436,7.846,14.379,7.846s14.38-3.513,14.38-7.846v-7.845Z"/><path class="cls-17" d="M171.249,242.487c0,4.334-6.436,7.846-14.38,7.846s-14.379-3.512-14.379-7.846,6.436-7.846,14.379-7.846S171.249,238.154,171.249,242.487Z"/><path class="cls-20" d="M171.257,258.179v7.844c0,4.334,6.436,7.846,14.38,7.846s14.38-3.512,14.38-7.846v-7.844Z"/><path class="cls-17" d="M200.017,258.179c0,4.334-6.437,7.846-14.38,7.846s-14.38-3.512-14.38-7.846,6.436-7.846,14.38-7.846S200.017,253.845,200.017,258.179Z"/><path class="cls-21" d="M113.715,195.409v7.844c0,4.333,6.444,7.845,14.387,7.845s14.38-3.512,14.38-7.845v-7.844Z"/><path class="cls-17" d="M142.482,195.409c0,4.333-6.436,7.845-14.38,7.845s-14.387-3.512-14.387-7.845,6.444-7.846,14.387-7.846S142.482,191.074,142.482,195.409Z"/><path class="cls-22" d="M142.49,211.1v7.844c0,4.334,6.436,7.846,14.379,7.846s14.38-3.512,14.38-7.846V211.1Z"/><path class="cls-17" d="M171.249,211.1c0,4.334-6.436,7.846-14.38,7.846s-14.379-3.512-14.379-7.846,6.436-7.846,14.379-7.846S171.249,206.768,171.249,211.1Z"/><path class="cls-23" d="M171.257,226.794v7.844c0,4.334,6.436,7.846,14.38,7.846s14.38-3.512,14.38-7.846v-7.844Z"/><path class="cls-17" d="M200.017,226.794c0,4.334-6.437,7.846-14.38,7.846s-14.38-3.512-14.38-7.846,6.436-7.846,14.38-7.846S200.017,222.46,200.017,226.794Z"/><path class="cls-24" d="M200.024,242.486v7.844c0,4.333,6.433,7.846,14.376,7.846s14.387-3.513,14.387-7.846v-7.844Z"/><path class="cls-17" d="M228.787,242.486c0,4.333-6.444,7.846-14.387,7.846s-14.376-3.513-14.376-7.846,6.433-7.846,14.376-7.846S228.787,238.152,228.787,242.486Z"/><polygon class="cls-25" points="70.573 171.87 185.644 234.635 243.18 203.256 128.112 140.488 70.573 171.87"/><polygon class="cls-26" points="185.644 281.709 185.644 234.635 243.187 203.253 243.18 250.326 185.644 281.709"/><polygon class="cls-27" points="185.651 234.635 70.581 171.87 70.573 218.944 185.644 281.709 185.651 234.635"/><path class="cls-28" d="M84.96,164.028v7.842c0,4.336,6.444,7.85,14.387,7.85s14.379-3.514,14.379-7.85v-7.842Z"/><path class="cls-25" d="M99.347,171.849c-7.919,0-14.362-3.508-14.362-7.821s6.443-7.82,14.362-7.82,14.354,3.508,14.354,7.82S107.262,171.849,99.347,171.849Z"/><path class="cls-29" d="M99.347,156.233c7.9,0,14.329,3.5,14.329,7.795s-6.428,7.8-14.329,7.8-14.337-3.5-14.337-7.8,6.431-7.795,14.337-7.795m0-.05c-7.943,0-14.387,3.514-14.387,7.845s6.444,7.846,14.387,7.846,14.379-3.514,14.379-7.846-6.437-7.845-14.379-7.845Z"/><path class="cls-30" d="M113.733,179.72v7.845c0,4.336,6.437,7.846,14.379,7.846s14.38-3.51,14.38-7.846V179.72Z"/><path class="cls-25" d="M128.112,187.544c-7.915,0-14.354-3.51-14.354-7.824s6.439-7.817,14.354-7.817,14.355,3.507,14.355,7.817S136.027,187.544,128.112,187.544Z"/><path class="cls-29" d="M128.112,171.928c7.9,0,14.33,3.5,14.33,7.792s-6.428,7.8-14.33,7.8-14.329-3.5-14.329-7.8,6.428-7.792,14.329-7.792m0-.05c-7.942,0-14.379,3.51-14.379,7.842s6.437,7.849,14.379,7.849,14.38-3.514,14.38-7.849-6.437-7.842-14.38-7.842Z"/><path class="cls-31" d="M142.5,195.411v7.845c0,4.336,6.436,7.846,14.379,7.846s14.38-3.51,14.38-7.846v-7.845Z"/><path class="cls-25" d="M156.878,203.235c-7.915,0-14.354-3.51-14.354-7.824s6.439-7.817,14.354-7.817,14.355,3.507,14.355,7.817S164.793,203.235,156.878,203.235Z"/><path class="cls-29" d="M156.878,187.619c7.9,0,14.33,3.5,14.33,7.792s-6.429,7.8-14.33,7.8-14.329-3.5-14.329-7.8,6.428-7.792,14.329-7.792m0-.05c-7.943,0-14.379,3.51-14.379,7.842s6.436,7.849,14.379,7.849,14.38-3.514,14.38-7.849-6.437-7.842-14.38-7.842Z"/><path class="cls-32" d="M171.265,211.1v7.846c0,4.335,6.436,7.845,14.379,7.845s14.38-3.51,14.38-7.845V211.1Z"/><path class="cls-25" d="M185.644,218.926c-7.915,0-14.354-3.509-14.354-7.824s6.439-7.817,14.354-7.817S200,206.792,200,211.1,193.56,218.926,185.644,218.926Z"/><path class="cls-29" d="M185.644,203.31c7.9,0,14.33,3.5,14.33,7.792s-6.428,7.8-14.33,7.8-14.329-3.5-14.329-7.8,6.428-7.792,14.329-7.792m0-.05c-7.943,0-14.379,3.51-14.379,7.842s6.436,7.849,14.379,7.849,14.38-3.514,14.38-7.849-6.437-7.842-14.38-7.842Z"/><path class="cls-33" d="M113.726,148.337v7.842c0,4.332,6.444,7.846,14.386,7.846s14.38-3.514,14.38-7.846v-7.842Z"/><path class="cls-25" d="M128.112,156.154c-7.919,0-14.361-3.507-14.361-7.817s6.442-7.824,14.361-7.824,14.355,3.51,14.355,7.824S136.027,156.154,128.112,156.154Z"/><path class="cls-29" d="M128.112,140.538c7.9,0,14.33,3.5,14.33,7.8s-6.428,7.792-14.33,7.792-14.336-3.5-14.336-7.792,6.431-7.8,14.336-7.8m0-.05c-7.942,0-14.386,3.514-14.386,7.849s6.444,7.842,14.386,7.842,14.38-3.51,14.38-7.842-6.437-7.849-14.38-7.849Z"/><path class="cls-34" d="M142.5,164.028v7.842c0,4.336,6.436,7.85,14.379,7.85s14.38-3.514,14.38-7.85v-7.842Z"/><path class="cls-25" d="M156.878,171.849c-7.915,0-14.354-3.508-14.354-7.821s6.439-7.82,14.354-7.82,14.355,3.508,14.355,7.82S164.793,171.849,156.878,171.849Z"/><path class="cls-29" d="M156.878,156.233c7.9,0,14.33,3.5,14.33,7.795s-6.429,7.8-14.33,7.8-14.329-3.5-14.329-7.8,6.428-7.795,14.329-7.795m0-.05c-7.943,0-14.379,3.514-14.379,7.845s6.436,7.846,14.379,7.846,14.38-3.514,14.38-7.846-6.437-7.845-14.38-7.845Z"/><path class="cls-35" d="M171.265,179.72v7.842c0,4.335,6.436,7.849,14.379,7.849s14.38-3.514,14.38-7.849V179.72Z"/><ellipse class="cls-25" cx="185.644" cy="179.72" rx="14.354" ry="7.821"/><path class="cls-29" d="M185.644,171.924c7.9,0,14.33,3.5,14.33,7.8s-6.428,7.795-14.33,7.795-14.329-3.5-14.329-7.795,6.428-7.8,14.329-7.8m0-.05c-7.943,0-14.379,3.514-14.379,7.846s6.436,7.845,14.379,7.845,14.38-3.514,14.38-7.845-6.437-7.846-14.38-7.846Z"/><path class="cls-36" d="M200.031,195.411v7.842c0,4.335,6.433,7.849,14.376,7.849s14.386-3.514,14.386-7.849v-7.842Z"/><path class="cls-25" d="M214.407,203.231c-7.913,0-14.351-3.508-14.351-7.82s6.438-7.821,14.351-7.821,14.361,3.509,14.361,7.821S222.326,203.231,214.407,203.231Z"/><path class="cls-29" d="M214.407,187.615c7.905,0,14.336,3.5,14.336,7.8s-6.431,7.795-14.336,7.795-14.326-3.5-14.326-7.795,6.426-7.8,14.326-7.8m0-.05c-7.943,0-14.376,3.514-14.376,7.846s6.433,7.845,14.376,7.845,14.386-3.513,14.386-7.845-6.443-7.846-14.386-7.846Z"/><polygon class="cls-37" points="70.551 77.727 185.627 140.495 243.164 109.115 128.092 46.344 70.551 77.727"/><polygon class="cls-38" points="185.627 187.57 185.627 140.495 243.171 109.111 243.164 156.186 185.627 187.57"/><polygon class="cls-39" points="185.634 140.495 70.558 77.727 70.551 124.803 185.627 187.57 185.634 140.495"/><path class="cls-40" d="M84.938,69.885v7.842c0,4.336,6.444,7.85,14.387,7.85s14.38-3.514,14.38-7.85V69.885Z"/><path class="cls-37" d="M113.705,69.885c0,4.332-6.437,7.846-14.38,7.846s-14.387-3.514-14.387-7.846,6.444-7.846,14.387-7.846S113.705,65.553,113.705,69.885Z"/><path class="cls-41" d="M113.712,85.577v7.846c0,4.336,6.437,7.846,14.38,7.846s14.38-3.51,14.38-7.846V85.577Z"/><path class="cls-37" d="M142.472,85.577c0,4.336-6.436,7.849-14.38,7.849s-14.38-3.513-14.38-7.849,6.437-7.842,14.38-7.842S142.472,81.245,142.472,85.577Z"/><path class="cls-42" d="M142.48,101.269v7.846c0,4.335,6.436,7.846,14.379,7.846s14.38-3.511,14.38-7.846v-7.846Z"/><path class="cls-37" d="M171.239,101.269c0,4.336-6.436,7.849-14.38,7.849s-14.379-3.513-14.379-7.849,6.436-7.843,14.379-7.843S171.239,96.937,171.239,101.269Z"/><path class="cls-43" d="M171.247,116.961v7.846c0,4.335,6.436,7.846,14.38,7.846s14.38-3.511,14.38-7.846v-7.846Z"/><path class="cls-37" d="M200.007,116.961c0,4.335-6.437,7.849-14.38,7.849s-14.38-3.514-14.38-7.849,6.436-7.843,14.38-7.843S200.007,112.629,200.007,116.961Z"/><path class="cls-44" d="M113.705,54.193v7.843c0,4.332,6.444,7.846,14.387,7.846s14.38-3.514,14.38-7.846V54.193Z"/><path class="cls-37" d="M142.472,54.193c0,4.332-6.436,7.843-14.38,7.843s-14.387-3.511-14.387-7.843,6.444-7.849,14.387-7.849S142.472,49.858,142.472,54.193Z"/><path class="cls-45" d="M142.48,69.885v7.842c0,4.336,6.436,7.85,14.379,7.85s14.38-3.514,14.38-7.85V69.885Z"/><path class="cls-37" d="M171.239,69.885c0,4.332-6.436,7.846-14.38,7.846s-14.379-3.514-14.379-7.846,6.436-7.846,14.379-7.846S171.239,65.553,171.239,69.885Z"/><path class="cls-46" d="M171.247,85.577v7.842c0,4.336,6.436,7.85,14.38,7.85s14.38-3.514,14.38-7.85V85.577Z"/><ellipse class="cls-37" cx="185.627" cy="85.577" rx="14.38" ry="7.846"/><path class="cls-47" d="M200.014,101.269v7.842c0,4.336,6.433,7.85,14.376,7.85s14.387-3.514,14.387-7.85v-7.842Z"/><path class="cls-37" d="M228.777,101.269c0,4.332-6.444,7.846-14.387,7.846s-14.376-3.514-14.376-7.846,6.433-7.846,14.376-7.846S228.777,96.937,228.777,101.269Z"/><polygon class="cls-1" points="302.116 257.843 444.722 335.626 516.025 296.739 373.423 218.951 302.116 257.843"/><polygon class="cls-2" points="444.722 393.964 444.722 335.626 516.033 296.735 516.025 355.073 444.722 393.964"/><polygon class="cls-3" points="444.73 335.626 302.125 257.843 302.116 316.181 444.722 393.964 444.73 335.626"/><path class="cls-48" d="M319.945,248.125v9.718c0,5.373,7.985,9.728,17.829,9.728s17.82-4.355,17.82-9.728v-9.718Z"/><path class="cls-1" d="M337.774,257.823c-9.817,0-17.8-4.351-17.8-9.7s7.987-9.7,17.8-9.7,17.8,4.351,17.8,9.7S347.586,257.823,337.774,257.823Z"/><path class="cls-5" d="M337.774,238.452c9.8,0,17.77,4.339,17.77,9.673s-7.972,9.673-17.77,9.673S320,253.458,320,248.125s7.976-9.673,17.779-9.673m0-.05c-9.844,0-17.829,4.354-17.829,9.723s7.985,9.723,17.829,9.723,17.82-4.355,17.82-9.723-7.977-9.723-17.82-9.723Z"/><path class="cls-49" d="M355.6,267.571v9.722c0,5.373,7.977,9.723,17.82,9.723s17.82-4.35,17.82-9.723v-9.722Z"/><path class="cls-1" d="M373.423,277.272c-9.812,0-17.8-4.352-17.8-9.7s7.983-9.693,17.8-9.693,17.8,4.349,17.8,9.693S383.236,277.272,373.423,277.272Z"/><path class="cls-5" d="M373.423,257.9c9.8,0,17.77,4.337,17.77,9.669s-7.971,9.677-17.77,9.677-17.77-4.341-17.77-9.677,7.971-9.669,17.77-9.669m0-.05c-9.843,0-17.82,4.35-17.82,9.719s7.977,9.727,17.82,9.727,17.82-4.354,17.82-9.727-7.976-9.719-17.82-9.719Z"/><path class="cls-50" d="M391.252,287.016v9.723c0,5.373,7.977,9.723,17.82,9.723s17.82-4.35,17.82-9.723v-9.723Z"/><path class="cls-1" d="M409.072,296.719c-9.812,0-17.8-4.353-17.8-9.7s7.983-9.694,17.8-9.694,17.8,4.349,17.8,9.694S418.885,296.719,409.072,296.719Z"/><path class="cls-5" d="M409.072,277.348c9.8,0,17.77,4.337,17.77,9.668s-7.971,9.678-17.77,9.678-17.77-4.341-17.77-9.678,7.972-9.668,17.77-9.668m0-.05c-9.843,0-17.82,4.35-17.82,9.718s7.977,9.728,17.82,9.728,17.82-4.355,17.82-9.728-7.976-9.718-17.82-9.718Z"/><path class="cls-51" d="M426.9,306.462v9.723c0,5.373,7.976,9.723,17.82,9.723s17.82-4.35,17.82-9.723v-9.723Z"/><path class="cls-1" d="M444.722,316.164c-9.813,0-17.795-4.352-17.795-9.7s7.982-9.692,17.795-9.692,17.8,4.347,17.8,9.692S454.534,316.164,444.722,316.164Z"/><path class="cls-5" d="M444.722,296.794c9.8,0,17.77,4.337,17.77,9.668s-7.972,9.678-17.77,9.678-17.77-4.342-17.77-9.678,7.971-9.668,17.77-9.668m0-.05c-9.844,0-17.82,4.35-17.82,9.718s7.976,9.728,17.82,9.728,17.82-4.355,17.82-9.728-7.977-9.718-17.82-9.718Z"/><path class="cls-52" d="M355.594,228.679V238.4c0,5.369,7.986,9.723,17.829,9.723s17.82-4.354,17.82-9.723v-9.718Z"/><path class="cls-1" d="M373.423,238.372c-9.817,0-17.8-4.349-17.8-9.693s7.987-9.7,17.8-9.7,17.8,4.353,17.8,9.7S383.236,238.372,373.423,238.372Z"/><path class="cls-5" d="M373.423,219c9.8,0,17.77,4.342,17.77,9.678s-7.971,9.668-17.77,9.668-17.779-4.337-17.779-9.668S363.62,219,373.423,219m0-.05c-9.843,0-17.829,4.355-17.829,9.728s7.986,9.718,17.829,9.718,17.82-4.35,17.82-9.718-7.976-9.728-17.82-9.728Z"/><path class="cls-53" d="M391.252,248.125v9.718c0,5.373,7.977,9.728,17.82,9.728s17.82-4.355,17.82-9.728v-9.718Z"/><path class="cls-1" d="M409.072,257.823c-9.812,0-17.8-4.351-17.8-9.7s7.983-9.7,17.8-9.7,17.8,4.351,17.8,9.7S418.885,257.823,409.072,257.823Z"/><path class="cls-5" d="M409.072,238.452c9.8,0,17.77,4.339,17.77,9.673s-7.971,9.673-17.77,9.673-17.77-4.34-17.77-9.673,7.972-9.673,17.77-9.673m0-.05c-9.843,0-17.82,4.354-17.82,9.723s7.977,9.723,17.82,9.723,17.82-4.355,17.82-9.723-7.976-9.723-17.82-9.723Z"/><path class="cls-54" d="M426.9,267.571v9.718c0,5.373,7.976,9.727,17.82,9.727s17.82-4.354,17.82-9.727v-9.718Z"/><path class="cls-1" d="M444.722,277.268c-9.813,0-17.795-4.35-17.795-9.7s7.982-9.7,17.795-9.7,17.8,4.35,17.8,9.7S454.534,277.268,444.722,277.268Z"/><path class="cls-5" d="M444.722,257.9c9.8,0,17.77,4.339,17.77,9.673s-7.972,9.672-17.77,9.672-17.77-4.339-17.77-9.672,7.971-9.673,17.77-9.673m0-.05c-9.844,0-17.82,4.354-17.82,9.723s7.976,9.722,17.82,9.722,17.82-4.354,17.82-9.722-7.977-9.723-17.82-9.723Z"/><path class="cls-55" d="M462.551,287.016v9.719c0,5.373,7.972,9.727,17.815,9.727s17.83-4.354,17.83-9.727v-9.719Z"/><path class="cls-1" d="M480.366,296.714c-9.81,0-17.791-4.35-17.791-9.7s7.981-9.7,17.791-9.7,17.805,4.351,17.805,9.7S490.184,296.714,480.366,296.714Z"/><path class="cls-5" d="M480.366,277.343c9.8,0,17.78,4.34,17.78,9.673s-7.976,9.673-17.78,9.673S462.6,292.35,462.6,287.016s7.969-9.673,17.765-9.673m0-.05c-9.843,0-17.815,4.355-17.815,9.723s7.972,9.723,17.815,9.723,17.83-4.354,17.83-9.723-7.986-9.723-17.83-9.723Z"/><polygon class="cls-13" points="302.111 199.501 444.717 277.284 516.02 238.395 373.419 160.609 302.111 199.501"/><polygon class="cls-14" points="444.717 335.622 444.717 277.284 516.029 238.393 516.02 296.73 444.717 335.622"/><polygon class="cls-15" points="444.726 277.284 302.12 199.501 302.111 257.839 444.717 335.622 444.726 277.284"/><path class="cls-56" d="M319.941,189.78V199.5c0,5.37,7.985,9.723,17.829,9.723s17.82-4.353,17.82-9.723V189.78Z"/><path class="cls-17" d="M355.59,189.78c0,5.371-7.977,9.723-17.82,9.723s-17.829-4.352-17.829-9.723,7.985-9.723,17.829-9.723S355.59,184.41,355.59,189.78Z"/><path class="cls-57" d="M355.6,209.228v9.721c0,5.371,7.977,9.723,17.821,9.723s17.82-4.352,17.82-9.723v-9.721Z"/><path class="cls-17" d="M391.239,209.228c0,5.371-7.977,9.723-17.82,9.723S355.6,214.6,355.6,209.228s7.977-9.723,17.821-9.723S391.239,203.857,391.239,209.228Z"/><path class="cls-58" d="M391.248,228.674V238.4c0,5.37,7.977,9.723,17.82,9.723s17.82-4.353,17.82-9.723v-9.721Z"/><path class="cls-17" d="M426.888,228.674c0,5.371-7.976,9.723-17.82,9.723s-17.82-4.352-17.82-9.723,7.977-9.723,17.82-9.723S426.888,223.3,426.888,228.674Z"/><path class="cls-59" d="M426.9,248.12v9.72c0,5.371,7.977,9.724,17.82,9.724s17.821-4.353,17.821-9.724v-9.72Z"/><path class="cls-17" d="M462.538,248.12c0,5.371-7.977,9.723-17.821,9.723s-17.82-4.352-17.82-9.723,7.977-9.723,17.82-9.723S462.538,242.749,462.538,248.12Z"/><path class="cls-60" d="M355.59,170.332v9.721c0,5.37,7.985,9.723,17.829,9.723s17.82-4.353,17.82-9.723v-9.721Z"/><path class="cls-17" d="M391.239,170.332c0,5.371-7.977,9.723-17.82,9.723s-17.829-4.352-17.829-9.723,7.985-9.723,17.829-9.723S391.239,164.961,391.239,170.332Z"/><path class="cls-61" d="M391.248,189.78V199.5c0,5.37,7.977,9.723,17.82,9.723s17.82-4.353,17.82-9.723V189.78Z"/><path class="cls-17" d="M426.888,189.78c0,5.371-7.976,9.723-17.82,9.723s-17.82-4.352-17.82-9.723,7.977-9.723,17.82-9.723S426.888,184.41,426.888,189.78Z"/><path class="cls-62" d="M426.9,209.226v9.72c0,5.371,7.977,9.723,17.82,9.723s17.821-4.352,17.821-9.723v-9.72Z"/><path class="cls-17" d="M462.538,209.226c0,5.371-7.977,9.723-17.821,9.723s-17.82-4.352-17.82-9.723,7.977-9.723,17.82-9.723S462.538,203.855,462.538,209.226Z"/><path class="cls-63" d="M462.546,228.672v9.721c0,5.37,7.973,9.723,17.816,9.723s17.829-4.353,17.829-9.723v-9.721Z"/><path class="cls-17" d="M498.191,228.672c0,5.37-7.985,9.723-17.829,9.723s-17.816-4.353-17.816-9.723,7.973-9.723,17.816-9.723S498.191,223.3,498.191,228.672Z"/><polygon class="cls-25" points="302.127 141.163 444.727 218.943 516.027 180.057 373.431 102.273 302.127 141.163"/><polygon class="cls-26" points="444.727 277.278 444.727 218.943 516.036 180.053 516.027 238.388 444.727 277.278"/><polygon class="cls-27" points="444.736 218.943 302.136 141.163 302.127 199.498 444.727 277.278 444.736 218.943"/><path class="cls-64" d="M319.955,131.445v9.718c0,5.372,7.985,9.727,17.828,9.727s17.82-4.355,17.82-9.727v-9.718Z"/><path class="cls-25" d="M337.783,141.143c-9.816,0-17.8-4.351-17.8-9.7s7.987-9.7,17.8-9.7,17.795,4.35,17.795,9.7S347.6,141.143,337.783,141.143Z"/><path class="cls-29" d="M337.783,121.772c9.8,0,17.77,4.339,17.77,9.673s-7.971,9.672-17.77,9.672-17.778-4.339-17.778-9.672,7.975-9.673,17.778-9.673m0-.05c-9.843,0-17.828,4.355-17.828,9.723s7.985,9.722,17.828,9.722,17.82-4.354,17.82-9.722-7.977-9.723-17.82-9.723Z"/><path class="cls-65" d="M355.612,150.89v9.723c0,5.372,7.976,9.722,17.819,9.722s17.82-4.35,17.82-9.722V150.89Z"/><path class="cls-25" d="M373.431,160.592c-9.812,0-17.795-4.352-17.795-9.7s7.983-9.693,17.795-9.693,17.8,4.348,17.8,9.693S383.243,160.592,373.431,160.592Z"/><path class="cls-29" d="M373.431,141.222c9.8,0,17.77,4.337,17.77,9.668s-7.972,9.677-17.77,9.677-17.769-4.341-17.769-9.677,7.971-9.668,17.769-9.668m0-.05c-9.843,0-17.819,4.35-17.819,9.718s7.976,9.727,17.819,9.727,17.82-4.354,17.82-9.727-7.977-9.718-17.82-9.718Z"/><path class="cls-66" d="M391.26,170.335v9.722c0,5.373,7.976,9.723,17.819,9.723s17.819-4.35,17.819-9.723v-9.722Z"/><path class="cls-25" d="M409.079,180.037c-9.812,0-17.794-4.352-17.794-9.7s7.982-9.693,17.794-9.693,17.794,4.348,17.794,9.693S418.891,180.037,409.079,180.037Z"/><path class="cls-29" d="M409.079,160.667c9.8,0,17.769,4.337,17.769,9.668s-7.971,9.677-17.769,9.677-17.769-4.341-17.769-9.677,7.971-9.668,17.769-9.668m0-.05c-9.843,0-17.819,4.35-17.819,9.718s7.976,9.727,17.819,9.727,17.819-4.354,17.819-9.727-7.976-9.718-17.819-9.718Z"/><path class="cls-67" d="M426.907,189.78V199.5c0,5.372,7.977,9.722,17.82,9.722s17.82-4.35,17.82-9.722V189.78Z"/><path class="cls-25" d="M444.727,199.482c-9.812,0-17.795-4.352-17.795-9.7s7.983-9.693,17.795-9.693,17.8,4.349,17.8,9.693S454.539,199.482,444.727,199.482Z"/><path class="cls-29" d="M444.727,180.112c9.8,0,17.77,4.337,17.77,9.668s-7.972,9.677-17.77,9.677-17.77-4.341-17.77-9.677,7.972-9.668,17.77-9.668m0-.05c-9.843,0-17.82,4.35-17.82,9.718s7.977,9.727,17.82,9.727,17.82-4.354,17.82-9.727-7.977-9.718-17.82-9.718Z"/><path class="cls-68" d="M355.6,112v9.718c0,5.368,7.985,9.723,17.828,9.723s17.82-4.355,17.82-9.723V112Z"/><path class="cls-25" d="M373.431,121.693c-9.817,0-17.8-4.348-17.8-9.693s7.986-9.7,17.8-9.7,17.8,4.353,17.8,9.7S383.243,121.693,373.431,121.693Z"/><path class="cls-29" d="M373.431,102.323c9.8,0,17.77,4.341,17.77,9.677s-7.972,9.668-17.77,9.668-17.778-4.337-17.778-9.668,7.975-9.677,17.778-9.677m0-.05c-9.843,0-17.828,4.354-17.828,9.727s7.985,9.718,17.828,9.718,17.82-4.35,17.82-9.718-7.977-9.727-17.82-9.727Z"/><path class="cls-69" d="M391.26,131.445v9.718c0,5.372,7.976,9.727,17.819,9.727s17.819-4.355,17.819-9.727v-9.718Z"/><path class="cls-25" d="M409.079,141.143c-9.812,0-17.794-4.351-17.794-9.7s7.982-9.7,17.794-9.7,17.794,4.35,17.794,9.7S418.891,141.143,409.079,141.143Z"/><path class="cls-29" d="M409.079,121.772c9.8,0,17.769,4.339,17.769,9.673s-7.971,9.672-17.769,9.672-17.769-4.339-17.769-9.672,7.971-9.673,17.769-9.673m0-.05c-9.843,0-17.819,4.355-17.819,9.723s7.976,9.722,17.819,9.722,17.819-4.354,17.819-9.722-7.976-9.723-17.819-9.723Z"/><path class="cls-70" d="M426.907,150.89v9.718c0,5.373,7.977,9.727,17.82,9.727s17.82-4.354,17.82-9.727V150.89Z"/><path class="cls-25" d="M444.727,160.588c-9.812,0-17.795-4.351-17.795-9.7s7.983-9.7,17.795-9.7,17.8,4.351,17.8,9.7S454.539,160.588,444.727,160.588Z"/><path class="cls-29" d="M444.727,141.217c9.8,0,17.77,4.339,17.77,9.673s-7.972,9.673-17.77,9.673-17.77-4.34-17.77-9.673,7.972-9.673,17.77-9.673m0-.05c-9.843,0-17.82,4.355-17.82,9.723s7.977,9.723,17.82,9.723,17.82-4.355,17.82-9.723-7.977-9.723-17.82-9.723Z"/><path class="cls-71" d="M462.555,170.335v9.718c0,5.373,7.972,9.727,17.815,9.727s17.829-4.354,17.829-9.727v-9.718Z"/><path class="cls-25" d="M480.37,180.033c-9.809,0-17.79-4.351-17.79-9.7s7.981-9.7,17.79-9.7,17.8,4.35,17.8,9.7S490.187,180.033,480.37,180.033Z"/><path class="cls-29" d="M480.37,160.663c9.8,0,17.779,4.339,17.779,9.672s-7.976,9.672-17.779,9.672-17.765-4.339-17.765-9.672,7.97-9.672,17.765-9.672m0-.05c-9.843,0-17.815,4.354-17.815,9.722s7.972,9.722,17.815,9.722S498.2,175.7,498.2,170.335s-7.985-9.722-17.829-9.722Z"/><polygon class="cls-37" points="302.099 82.83 444.705 160.614 516.008 121.726 373.406 43.938 302.099 82.83"/><polygon class="cls-38" points="444.705 218.951 444.705 160.614 516.016 121.722 516.008 180.06 444.705 218.951"/><polygon class="cls-39" points="444.714 160.614 302.108 82.83 302.099 141.168 444.705 218.951 444.714 160.614"/><path class="cls-72" d="M319.928,73.112V82.83c0,5.373,7.986,9.728,17.829,9.728s17.82-4.355,17.82-9.728V73.112Z"/><path class="cls-37" d="M355.577,73.112c0,5.368-7.977,9.723-17.82,9.723s-17.829-4.355-17.829-9.723,7.986-9.723,17.829-9.723S355.577,67.743,355.577,73.112Z"/><path class="cls-73" d="M355.586,92.558v9.723c0,5.373,7.977,9.722,17.82,9.722s17.82-4.349,17.82-9.722V92.558Z"/><path class="cls-37" d="M391.226,92.558c0,5.373-7.976,9.727-17.82,9.727s-17.82-4.354-17.82-9.727,7.977-9.719,17.82-9.719S391.226,87.19,391.226,92.558Z"/><path class="cls-74" d="M391.235,112v9.723c0,5.373,7.977,9.723,17.82,9.723s17.82-4.35,17.82-9.723V112Z"/><path class="cls-37" d="M426.875,112c0,5.374-7.976,9.728-17.82,9.728s-17.82-4.354-17.82-9.728,7.977-9.718,17.82-9.718S426.875,106.635,426.875,112Z"/><path class="cls-75" d="M426.885,131.449v9.724c0,5.372,7.976,9.723,17.82,9.723s17.82-4.351,17.82-9.723v-9.724Z"/><path class="cls-37" d="M462.525,131.449c0,5.373-7.977,9.728-17.82,9.728s-17.82-4.355-17.82-9.728,7.976-9.718,17.82-9.718S462.525,126.081,462.525,131.449Z"/><path class="cls-76" d="M355.577,53.666v9.719c0,5.368,7.986,9.723,17.829,9.723s17.82-4.355,17.82-9.723V53.666Z"/><path class="cls-37" d="M391.226,53.666c0,5.368-7.976,9.719-17.82,9.719s-17.829-4.351-17.829-9.719,7.986-9.728,17.829-9.728S391.226,48.293,391.226,53.666Z"/><path class="cls-77" d="M391.235,73.112V82.83c0,5.373,7.977,9.728,17.82,9.728s17.82-4.355,17.82-9.728V73.112Z"/><path class="cls-37" d="M426.875,73.112c0,5.368-7.976,9.723-17.82,9.723s-17.82-4.355-17.82-9.723,7.977-9.723,17.82-9.723S426.875,67.743,426.875,73.112Z"/><path class="cls-78" d="M426.885,92.558v9.718c0,5.373,7.976,9.727,17.82,9.727s17.82-4.354,17.82-9.727V92.558Z"/><ellipse class="cls-37" cx="444.705" cy="92.558" rx="17.82" ry="9.723"/><path class="cls-79" d="M462.534,112v9.719c0,5.373,7.972,9.727,17.815,9.727s17.83-4.354,17.83-9.727V112Z"/><path class="cls-37" d="M498.179,112c0,5.369-7.986,9.723-17.83,9.723s-17.815-4.354-17.815-9.723,7.972-9.722,17.815-9.722S498.179,106.635,498.179,112Z"/></svg>