<svg id="Layer_1" data-name="Layer 1" xmlns="http://www.w3.org/2000/svg" xmlns:xlink="http://www.w3.org/1999/xlink" viewBox="0 0 578 504"><defs><style>.cls-1{fill:none;}.cls-2{clip-path:url(#clip-path);}.cls-3{opacity:0.7;}.cls-4{fill:#a9a9fc;}.cls-14,.cls-19,.cls-5{opacity:0.4;}.cls-6{opacity:0.3;}.cls-7{fill:#797c7b;}.cls-8{fill:#5e5e5e;}.cls-9{isolation:isolate;}.cls-10{opacity:0.2;}.cls-11{fill:#132c39;}.cls-12,.cls-19,.cls-20{fill:#3a3a8c;}.cls-13,.cls-14,.cls-15{fill:#fff;}.cls-15,.cls-20{opacity:0.702;}.cls-16{fill:#ffcc51;}.cls-17{fill:#ededed;}.cls-18{fill:#f7f7f7;}.cls-21{fill:#b37d57;}.cls-22{fill:#5656b2;}</style><clipPath id="clip-path"><rect class="cls-1" x="-600.213" y="-53.742" width="602.863" height="602.863"/></clipPath></defs><g class="cls-2"><g class="cls-3"><path class="cls-4" d="M15.092,472.921a.757.757,0,0,0-.742,1.32.842.842,0,0,0,.368.1.749.749,0,0,0,.657-.386A.757.757,0,0,0,15.092,472.921Z"/><path class="cls-4" d="M8.8,469.406a.753.753,0,0,0-.736,1.315.736.736,0,0,0,.368.1.754.754,0,0,0,.368-1.411Z"/><path class="cls-4" d="M4.62,467.061a.754.754,0,1,0-.374,1.411.742.742,0,0,0,.657-.386A.75.75,0,0,0,4.62,467.061Z"/><path class="cls-4" d="M12.994,471.752a.753.753,0,1,0-.736,1.314.736.736,0,0,0,.368.1.753.753,0,0,0,.368-1.41Z"/><path class="cls-4" d="M10.9,470.582a.75.75,0,1,0-.735,1.308.728.728,0,0,0,.368.1.764.764,0,0,0,.657-.379A.755.755,0,0,0,10.9,470.582Z"/><path class="cls-4" d="M6.712,468.231a.755.755,0,0,0-.735,1.32.791.791,0,0,0,.368.09.753.753,0,0,0,.367-1.41Z"/><path class="cls-4" d="M.43,464.716a.747.747,0,0,0-1.025.289A.748.748,0,0,0-.3,466.03a.724.724,0,0,0,.368.1.758.758,0,0,0,.657-.386A.753.753,0,0,0,.43,464.716Z"/><path class="cls-4" d="M2.522,465.885a.753.753,0,0,0-.735,1.315.731.731,0,0,0,.368.1.753.753,0,0,0,.367-1.411Z"/><path class="cls-4" d="M19.276,475.272a.753.753,0,1,0-.736,1.314.793.793,0,0,0,.368.1.754.754,0,0,0,.368-1.411Z"/><path class="cls-4" d="M31.84,482.307a.753.753,0,0,0-.736,1.315.733.733,0,0,0,.368.1.754.754,0,0,0,.368-1.411Z"/><path class="cls-4" d="M27.656,479.963a.755.755,0,1,0-.374,1.41.755.755,0,0,0,.374-1.41Z"/><path class="cls-4" d="M21.368,476.442a.754.754,0,1,0,.289,1.024A.753.753,0,0,0,21.368,476.442Z"/><path class="cls-4" d="M23.466,477.617a.753.753,0,0,0-.736,1.315.736.736,0,0,0,.368.1.754.754,0,0,0,.368-1.411Z"/><path class="cls-4" d="M29.747,481.132a.753.753,0,0,0-.735,1.314.733.733,0,0,0,.368.1.753.753,0,0,0,.367-1.41Z"/><path class="cls-4" d="M25.558,478.787a.753.753,0,1,0-.736,1.314.733.733,0,0,0,.368.1.753.753,0,0,0,.368-1.41Z"/><path class="cls-4" d="M17.184,474.1a.753.753,0,0,0-.736,1.315.736.736,0,0,0,.368.1.754.754,0,0,0,.368-1.411Z"/><path class="cls-4" d="M1.937,77.593a.755.755,0,1,0,1.031.29A.759.759,0,0,0,1.937,77.593Z"/><path class="cls-4" d="M25.112,64.613a.753.753,0,0,0,.367,1.411.731.731,0,0,0,.368-.1.753.753,0,1,0-.735-1.315Z"/><path class="cls-4" d="M29.326,62.257a.753.753,0,0,0,.367,1.41.733.733,0,0,0,.368-.1.753.753,0,0,0-.735-1.314Z"/><path class="cls-4" d="M18.793,68.152a.754.754,0,0,0,.368,1.411.733.733,0,0,0,.368-.1.753.753,0,0,0-.736-1.315Z"/><path class="cls-4" d="M23.007,65.8a.754.754,0,0,0,.368,1.411.722.722,0,0,0,.368-.1.753.753,0,0,0-.736-1.314Z"/><path class="cls-4" d="M31.429,61.075a.752.752,0,0,0-.283,1.025.743.743,0,0,0,.657.385.766.766,0,0,0,.368-.1.755.755,0,1,0-.742-1.314Z"/><path class="cls-4" d="M20.9,66.977a.754.754,0,0,0,.374,1.411.794.794,0,0,0,.362-.1.753.753,0,0,0-.736-1.314Z"/><path class="cls-4" d="M16.683,69.334a.752.752,0,0,0-.283,1.025.744.744,0,0,0,.657.386.768.768,0,0,0,.368-.1.755.755,0,1,0-.742-1.314Z"/><path class="cls-4" d="M27.222,63.432a.753.753,0,0,0,.367,1.411.768.768,0,0,0,.368-.1.75.75,0,0,0,.29-1.025A.76.76,0,0,0,27.222,63.432Z"/><path class="cls-4" d="M14.58,70.516a.753.753,0,0,0,.367,1.41.733.733,0,0,0,.368-.1.753.753,0,0,0-.735-1.314Z"/><path class="cls-4" d="M10.366,72.873a.753.753,0,0,0,.367,1.41.731.731,0,0,0,.368-.1.753.753,0,1,0-.735-1.314Z"/><path class="cls-4" d="M8.262,74.054a.753.753,0,0,0,.367,1.411.763.763,0,0,0,.368-.1.753.753,0,1,0-.735-1.315Z"/><path class="cls-4" d="M12.47,71.691a.76.76,0,0,0,.373,1.417.775.775,0,0,0,.368-.1.757.757,0,0,0,.29-1.025A.765.765,0,0,0,12.47,71.691Z"/><path class="cls-4" d="M-.166,78.775A.753.753,0,0,0,.2,80.185a.733.733,0,0,0,.368-.1.753.753,0,0,0,.289-1.025A.748.748,0,0,0-.166,78.775Z"/><path class="cls-4" d="M6.151,75.23a.759.759,0,0,0-.289,1.031.771.771,0,0,0,.657.386.787.787,0,0,0,.368-.1.756.756,0,0,0-.736-1.32Z"/><path class="cls-4" d="M4.047,76.412a.753.753,0,0,0,.368,1.41.733.733,0,0,0,.368-.1.753.753,0,1,0-.736-1.314Z"/><path class="cls-4" d="M.364,409.379a.755.755,0,0,0-1.031.278.752.752,0,0,0,.278,1.03.74.74,0,0,0,.373.1.747.747,0,0,0,.651-.374A.756.756,0,0,0,.364,409.379Z"/><path class="cls-4" d="M23.351,422.661a.752.752,0,1,0-.753,1.3.749.749,0,0,0,1.031-.277A.75.75,0,0,0,23.351,422.661Z"/><path class="cls-4" d="M14.99,417.831a.752.752,0,0,0-.754,1.3.716.716,0,0,0,.38.1.753.753,0,0,0,.374-1.4Z"/><path class="cls-4" d="M17.081,419.037a.752.752,0,1,0-.753,1.3.708.708,0,0,0,.374.1.766.766,0,0,0,.657-.374A.756.756,0,0,0,17.081,419.037Z"/><path class="cls-4" d="M10.812,415.414a.755.755,0,0,0-.754,1.308.775.775,0,0,0,.38.1.748.748,0,0,0,.651-.373A.758.758,0,0,0,10.812,415.414Z"/><path class="cls-4" d="M4.542,411.791a.755.755,0,1,0-.754,1.308.783.783,0,0,0,.374.1.756.756,0,0,0,.38-1.41Z"/><path class="cls-4" d="M8.72,414.208a.755.755,0,0,0-.754,1.308.768.768,0,0,0,.38.1.752.752,0,0,0,.374-1.4Z"/><path class="cls-4" d="M19.173,420.243a.756.756,0,0,0-.759,1.308.79.79,0,0,0,.379.1.753.753,0,0,0,.38-1.4Z"/><path class="cls-4" d="M6.634,413a.753.753,0,1,0-.754,1.3.7.7,0,0,0,.374.1.754.754,0,0,0,.38-1.4Z"/><path class="cls-4" d="M12.9,416.62a.755.755,0,1,0-.38,1.41.77.77,0,0,0,.657-.38A.757.757,0,0,0,12.9,416.62Z"/><path class="cls-4" d="M31.713,427.483a.758.758,0,1,0,.271,1.031A.756.756,0,0,0,31.713,427.483Z"/><path class="cls-4" d="M21.259,421.448a.755.755,0,0,0-.754,1.309.788.788,0,0,0,.381.1.756.756,0,0,0,.373-1.411Z"/><path class="cls-4" d="M29.621,426.278a.755.755,0,0,0-.754,1.308.772.772,0,0,0,.374.1.751.751,0,0,0,.38-1.4Z"/><path class="cls-4" d="M2.45,410.585a.755.755,0,0,0-.754,1.308.778.778,0,0,0,.38.1.756.756,0,0,0,.374-1.411Z"/><path class="cls-4" d="M27.535,425.072a.756.756,0,0,0-.76,1.308.78.78,0,0,0,.38.1.746.746,0,0,0,.651-.373A.754.754,0,0,0,27.535,425.072Z"/><path class="cls-4" d="M25.443,423.866a.752.752,0,1,0-.753,1.3.7.7,0,0,0,.373.1.754.754,0,0,0,.38-1.4Z"/><g class="cls-5"><path class="cls-4" d="M5.32,112.149a.751.751,0,1,0-.748,1.3.7.7,0,0,0,.374.1.753.753,0,0,0,.374-1.405Z"/><path class="cls-4" d="M9.5,114.549a.751.751,0,1,0-.747,1.3.7.7,0,0,0,.374.1.752.752,0,0,0,.373-1.4Z"/><path class="cls-4" d="M7.411,113.349a.753.753,0,1,0-.747,1.308.753.753,0,0,0,.747-1.308Z"/><path class="cls-4" d="M11.6,115.749a.75.75,0,0,0-1.03.277.759.759,0,0,0,.283,1.031.753.753,0,0,0,.747-1.308Z"/><path class="cls-4" d="M13.687,116.948a.753.753,0,1,0-.747,1.308.754.754,0,0,0,1.025-.283A.75.75,0,0,0,13.687,116.948Z"/><path class="cls-4" d="M3.228,110.95a.753.753,0,1,0,.277,1.024A.744.744,0,0,0,3.228,110.95Z"/><path class="cls-4" d="M1.135,109.75a.751.751,0,1,0-.747,1.3.7.7,0,0,0,.374.1.755.755,0,0,0,.651-.38A.743.743,0,0,0,1.135,109.75Z"/><path class="cls-4" d="M28.331,125.346a.755.755,0,1,0-.754,1.308.776.776,0,0,0,.374.1.753.753,0,0,0,.38-1.405Z"/><path class="cls-4" d="M24.147,122.947a.755.755,0,1,0-.754,1.308.772.772,0,0,0,.374.1.753.753,0,0,0,.38-1.4Z"/><path class="cls-4" d="M26.239,124.146a.755.755,0,0,0-.753,1.309.768.768,0,0,0,.373.1.752.752,0,0,0,.38-1.405Z"/><path class="cls-4" d="M30.423,126.546a.755.755,0,1,0-.754,1.308.781.781,0,0,0,.374.1.756.756,0,0,0,.38-1.411Z"/><path class="cls-4" d="M19.963,120.547a.755.755,0,1,0-.374,1.405.753.753,0,0,0,.374-1.405Z"/><path class="cls-4" d="M22.055,121.747a.753.753,0,1,0-.748,1.308.733.733,0,0,0,.374.1.747.747,0,0,0,.651-.374A.756.756,0,0,0,22.055,121.747Z"/><path class="cls-4" d="M15.779,118.148a.755.755,0,0,0-.754,1.308.776.776,0,0,0,.374.1.753.753,0,0,0,.38-1.405Z"/><path class="cls-4" d="M17.871,119.347a.752.752,0,0,0-1.03.278.762.762,0,0,0,.277,1.031.791.791,0,0,0,.38.1.752.752,0,0,0,.373-1.405Z"/><path class="cls-4" d="M9.7,413.382a.751.751,0,0,0-.271,1.031.74.74,0,0,0,.645.374.775.775,0,0,0,.38-.1.752.752,0,1,0-.754-1.3Z"/><path class="cls-4" d="M1.359,418.223a.744.744,0,0,0-.272,1.025.755.755,0,0,0,.651.38.77.77,0,0,0,.374-.1.758.758,0,0,0,.277-1.031A.749.749,0,0,0,1.359,418.223Z"/><path class="cls-4" d="M7.61,414.594a.744.744,0,0,0-.271,1.025A.754.754,0,0,0,7.99,416a.8.8,0,0,0,.38-.1.754.754,0,0,0-.76-1.3Z"/><path class="cls-4" d="M3.444,417.012a.752.752,0,0,0,.38,1.4.71.71,0,0,0,.374-.1.752.752,0,0,0-.754-1.3Z"/><path class="cls-4" d="M5.53,415.8A.752.752,0,0,0,5.9,417.2a.75.75,0,0,0,.651-1.127A.752.752,0,0,0,5.53,415.8Z"/><path class="cls-4" d="M15.948,409.753a.755.755,0,0,0,.38,1.405.766.766,0,0,0,.374-.1.758.758,0,0,0,.277-1.031A.751.751,0,0,0,15.948,409.753Z"/><path class="cls-4" d="M13.862,410.959a.758.758,0,0,0,.38,1.41.805.805,0,0,0,.38-.1.756.756,0,0,0-.76-1.308Z"/><path class="cls-4" d="M11.776,412.17a.757.757,0,0,0-.271,1.031.747.747,0,0,0,.651.374.726.726,0,0,0,.38-.1.754.754,0,0,0-.76-1.3Z"/><path class="cls-4" d="M-.727,419.435A.75.75,0,0,0-1,420.46a.749.749,0,0,0,.651.374.721.721,0,0,0,.38-.1A.757.757,0,0,0,.3,419.706.751.751,0,0,0-.727,419.435Z"/><path class="cls-4" d="M18.034,408.541a.757.757,0,0,0-.277,1.031.749.749,0,0,0,.651.374.712.712,0,0,0,.379-.1.752.752,0,0,0-.753-1.3Z"/><path class="cls-4" d="M20.114,407.329a.757.757,0,0,0-.272,1.031.749.749,0,0,0,.652.374.735.735,0,0,0,.379-.1.754.754,0,0,0-.759-1.3Z"/><path class="cls-4" d="M24.286,404.912a.754.754,0,0,0,.379,1.405.759.759,0,0,0,.652-1.134A.751.751,0,0,0,24.286,404.912Z"/><path class="cls-4" d="M26.372,403.7a.758.758,0,0,0-.278,1.031.749.749,0,0,0,.651.374.733.733,0,0,0,.38-.1.752.752,0,0,0-.753-1.3Z"/><path class="cls-4" d="M22.2,406.124a.744.744,0,0,0-.272,1.025.755.755,0,0,0,.652.379.8.8,0,0,0,.379-.1.754.754,0,1,0-.759-1.3Z"/><path class="cls-4" d="M28.452,402.488a.753.753,0,0,0,.379,1.4.73.73,0,0,0,.38-.1.747.747,0,0,0,.271-1.024A.757.757,0,0,0,28.452,402.488Z"/><path class="cls-4" d="M30.537,401.282a.744.744,0,0,0-.271,1.025.753.753,0,0,0,.651.38.757.757,0,0,0,.651-1.133A.753.753,0,0,0,30.537,401.282Z"/><path class="cls-4" d="M4.252,438.672a.753.753,0,0,0-.747,1.308.767.767,0,0,0,.374.1.754.754,0,0,0,.373-1.411Z"/><path class="cls-4" d="M2.166,437.478a.754.754,0,1,0-.747,1.309.731.731,0,0,0,.368.1.753.753,0,0,0,.379-1.4Z"/><path class="cls-4" d="M6.345,439.872a.744.744,0,0,0-1.025.277A.752.752,0,0,0,5.6,441.18a.773.773,0,0,0,.374.1.751.751,0,0,0,.374-1.4Z"/><path class="cls-4" d="M.075,436.279a.763.763,0,0,0-1.031.277.758.758,0,0,0,.283,1.031.763.763,0,0,0,.374.1.754.754,0,0,0,.651-.38A.751.751,0,0,0,.075,436.279Z"/><path class="cls-4" d="M8.436,441.066a.753.753,0,0,0-.747,1.308.716.716,0,0,0,.374.1.754.754,0,0,0,.373-1.41Z"/><path class="cls-4" d="M14.712,444.659a.753.753,0,1,0-.747,1.308.737.737,0,0,0,.368.1.756.756,0,0,0,.379-1.41Z"/><path class="cls-4" d="M10.528,442.265a.753.753,0,0,0-.747,1.308.753.753,0,1,0,.747-1.308Z"/><path class="cls-4" d="M12.62,443.465a.751.751,0,0,0-1.03.277.753.753,0,1,0,1.308.748A.744.744,0,0,0,12.62,443.465Z"/><path class="cls-4" d="M20.982,448.252a.753.753,0,0,0-.747,1.308.768.768,0,0,0,.373.1.751.751,0,0,0,.374-1.4Z"/><path class="cls-4" d="M31.442,454.238a.755.755,0,0,0-.754,1.309.772.772,0,0,0,.374.1.745.745,0,0,0,.657-.38A.757.757,0,0,0,31.442,454.238Z"/><path class="cls-4" d="M29.35,453.039a.755.755,0,0,0-.754,1.308.777.777,0,0,0,.374.1.756.756,0,0,0,.38-1.41Z"/><path class="cls-4" d="M23.074,449.451a.745.745,0,0,0-1.025.278.751.751,0,1,0,1.3.747A.744.744,0,0,0,23.074,449.451Z"/><path class="cls-4" d="M18.89,447.052a.754.754,0,0,0-.748,1.309.791.791,0,0,0,.374.1.755.755,0,0,0,.374-1.411Z"/><path class="cls-4" d="M16.8,445.858a.755.755,0,0,0-.754,1.309.774.774,0,0,0,.374.1.741.741,0,0,0,.657-.38A.754.754,0,0,0,16.8,445.858Z"/><path class="cls-4" d="M25.166,450.645a.754.754,0,1,0-.748,1.309.773.773,0,0,0,.374.1.758.758,0,0,0,.374-1.411Z"/><path class="cls-4" d="M27.258,451.845a.751.751,0,1,0-.748,1.3.7.7,0,0,0,.374.1.752.752,0,0,0,.374-1.4Z"/><path class="cls-4" d="M16.219,334.057a.755.755,0,0,0-.753,1.308.77.77,0,0,0,.374.1.756.756,0,0,0,.379-1.411Z"/><path class="cls-4" d="M14.121,332.857a.754.754,0,0,0-.747,1.309.716.716,0,0,0,.373.1.755.755,0,0,0,.374-1.412Z"/><path class="cls-4" d="M20.4,336.457a.755.755,0,0,0-.754,1.308.776.776,0,0,0,.374.1.743.743,0,0,0,.657-.38A.755.755,0,0,0,20.4,336.457Z"/><path class="cls-4" d="M12.029,331.664a.745.745,0,0,0-1.025.277.749.749,0,0,0,.652,1.128.765.765,0,0,0,.657-.38A.752.752,0,0,0,12.029,331.664Z"/><path class="cls-4" d="M18.305,335.257a.753.753,0,0,0-.747,1.308.766.766,0,0,0,.373.1.755.755,0,0,0,.374-1.411Z"/><path class="cls-4" d="M5.753,328.065a.753.753,0,0,0-.747,1.308.781.781,0,0,0,.374.1.754.754,0,0,0,.373-1.411Z"/><path class="cls-4" d="M7.845,329.264a.754.754,0,0,0-.747,1.309.772.772,0,0,0,.374.1.75.75,0,0,0,.657-.374A.759.759,0,0,0,7.845,329.264Z"/><path class="cls-4" d="M9.938,330.464a.753.753,0,0,0-.748,1.308.762.762,0,0,0,.374.1.751.751,0,0,0,.374-1.405Z"/><path class="cls-4" d="M26.679,340.05a.755.755,0,0,0-.754,1.308.773.773,0,0,0,.374.1.755.755,0,0,0,.657-.38A.764.764,0,0,0,26.679,340.05Z"/><path class="cls-4" d="M22.5,337.657a.75.75,0,0,0-1.031.277.758.758,0,0,0,.278,1.031.769.769,0,0,0,.374.1.745.745,0,0,0,.657-.38A.755.755,0,0,0,22.5,337.657Z"/><path class="cls-4" d="M30.863,342.449a.755.755,0,0,0-.754,1.308.771.771,0,0,0,.38.1.749.749,0,0,0,.651-.374A.757.757,0,0,0,30.863,342.449Z"/><path class="cls-4" d="M24.587,338.856a.752.752,0,1,0-.754,1.3.712.712,0,0,0,.374.1.758.758,0,0,0,.657-.38A.749.749,0,0,0,24.587,338.856Z"/><path class="cls-4" d="M28.771,341.25a.755.755,0,1,0-.753,1.308.773.773,0,0,0,.373.1.756.756,0,0,0,.38-1.41Z"/><path class="cls-4" d="M3.662,326.865a.752.752,0,0,0-1.025.283.744.744,0,0,0,.277,1.025.71.71,0,0,0,.374.1.772.772,0,0,0,.657-.38A.761.761,0,0,0,3.662,326.865Z"/><path class="cls-4" d="M1.57,325.671a.751.751,0,0,0-.748,1.3.721.721,0,0,0,.374.1.763.763,0,0,0,.657-.38A.752.752,0,0,0,1.57,325.671Z"/><path class="cls-4" d="M24.008,150.974a.756.756,0,0,0,.374,1.411.8.8,0,0,0,.38-.1.755.755,0,0,0-.754-1.308Z"/><path class="cls-4" d="M13.537,157.026a.757.757,0,0,0-.278,1.031.747.747,0,0,0,.651.374.739.739,0,0,0,.38-.1.752.752,0,0,0-.753-1.3Z"/><path class="cls-4" d="M9.347,159.444a.756.756,0,0,0,.379,1.411.781.781,0,0,0,.374-.1.755.755,0,0,0-.753-1.308Z"/><path class="cls-4" d="M11.439,158.238a.756.756,0,0,0-.278,1.031.767.767,0,0,0,.658.374.692.692,0,0,0,.373-.1.752.752,0,1,0-.753-1.3Z"/><path class="cls-4" d="M7.249,160.656a.753.753,0,0,0,.38,1.4.79.79,0,0,0,.379-.1.756.756,0,0,0-.759-1.308Z"/><path class="cls-4" d="M19.818,153.4a.757.757,0,0,0-.277,1.031.749.749,0,0,0,.651.374.716.716,0,0,0,.38-.1.752.752,0,1,0-.754-1.3Z"/><path class="cls-4" d="M21.91,152.186a.755.755,0,1,0,1.031.277A.757.757,0,0,0,21.91,152.186Z"/><path class="cls-4" d="M15.628,155.815a.756.756,0,0,0,.38,1.41.777.777,0,0,0,.374-.1.755.755,0,0,0-.754-1.308Z"/><path class="cls-4" d="M5.157,161.868a.751.751,0,0,0,.38,1.4.715.715,0,0,0,.373-.1.752.752,0,1,0-.753-1.3Z"/><path class="cls-4" d="M17.721,154.609a.744.744,0,0,0-.272,1.025.753.753,0,1,0,.272-1.025Z"/><path class="cls-4" d="M3.065,163.079a.752.752,0,0,0-.278,1.025.744.744,0,0,0,.652.38.735.735,0,0,0,.379-.1.752.752,0,0,0-.753-1.3Z"/><path class="cls-4" d="M-1.125,165.5a.759.759,0,0,0-.278,1.031.751.751,0,0,0,.652.374.772.772,0,0,0,.379-.1.758.758,0,0,0,.278-1.031A.757.757,0,0,0-1.125,165.5Z"/><path class="cls-4" d="M.967,164.285a.756.756,0,0,0,.38,1.411.773.773,0,0,0,.374-.1.755.755,0,0,0-.754-1.308Z"/><path class="cls-4" d="M26.1,149.768a.753.753,0,0,0,.38,1.405.784.784,0,0,0,.374-.1.752.752,0,1,0-.754-1.3Z"/><path class="cls-4" d="M30.29,147.344a.752.752,0,0,0,.374,1.405.78.78,0,0,0,.38-.1.755.755,0,0,0-.754-1.309Z"/><path class="cls-4" d="M28.192,148.556a.754.754,0,0,0,.38,1.405.7.7,0,0,0,.373-.1.752.752,0,1,0-.753-1.3Z"/></g></g></g><g class="cls-6"><polygon class="cls-7" points="234.921 -2.668 -66.515 172.691 -66.234 173.172 236.029 -2.668 234.921 -2.668"/><polygon class="cls-7" points="55.355 -3.013 -66.515 67.884 -66.234 68.366 56.463 -3.013 55.355 -3.013"/><polygon class="cls-7" points="-66.561 333.17 71.427 252.896 71.147 252.415 -66.561 332.525 -66.561 333.17"/><polygon class="cls-7" points="232.357 368.386 676.236 110.16 676.236 109.515 231.249 368.386 232.357 368.386"/><polygon class="cls-7" points="676.236 82.717 529.463 -2.668 528.354 -2.668 676.236 83.361 676.236 82.717"/><polygon class="cls-7" points="85.928 368.386 -66.561 279.675 -66.561 280.32 84.82 368.386 85.928 368.386"/><polygon class="cls-7" points="631.227 368.386 485.9 283.842 485.619 284.323 630.119 368.386 631.227 368.386"/><polygon class="cls-7" points="676.236 275.708 190.782 -2.668 189.662 -2.668 676.236 276.35 676.236 275.708"/><polygon class="cls-7" points="676.236 42.483 373.794 218.429 374.074 218.91 676.236 43.128 676.236 42.483"/></g><path class="cls-8" d="M83.524,294.69a.836.836,0,0,1-.024-1.671l.024.836-.021-.836a.836.836,0,1,1,.089,1.669l-.043,0Zm-3.685-.155a.818.818,0,0,1-.1-.006l-.02,0a.835.835,0,1,1,.2-1.659l-.1.829.116-.827a.835.835,0,0,1-.1,1.665Zm7.352-.329a.836.836,0,0,1-.189-1.65l.044-.01a.836.836,0,1,1,.145,1.66Zm-11-.355a.859.859,0,0,1-.834-1.039.84.84,0,0,1,1.013-.614l.044.012a.836.836,0,0,1-.223,1.641Zm14.5-.861a.837.837,0,0,1-.363-1.589l.041-.02a.836.836,0,1,1,.688,1.524A.827.827,0,0,1,90.692,292.99Zm-18.037-.251a.822.822,0,0,1-.3-.055.843.843,0,0,1-.492-1.079.828.828,0,0,1,1.066-.491l.021.008a.836.836,0,0,1-.3,1.617Zm-3.411-1.456a.848.848,0,0,1-.346-.074l-.042-.02a.836.836,0,1,1,.738-1.5l-.369.75.372-.748a.834.834,0,0,1-.353,1.592Zm24.609-.256a.832.832,0,0,1-.526-1.481l.021-.016a.836.836,0,0,1,1.026,1.319A.845.845,0,0,1,93.853,291.027Zm-27.891-1.482a.83.83,0,0,1-.422-.115.843.843,0,0,1-.308-1.145.828.828,0,0,1,1.132-.309l.021.012a.836.836,0,0,1-.423,1.557Zm30.531-1.107a.832.832,0,0,1-.645-1.358l.018-.021a.836.836,0,0,1,1.276,1.079A.85.85,0,0,1,96.493,288.438Zm-33.674-.866a.829.829,0,0,1-.463-.14l-.021-.014a.836.836,0,1,1,.938-1.383l-.469.691.479-.685a.836.836,0,0,1-.464,1.531ZM59.807,285.4a.824.824,0,0,1-.5-.168l-.024-.019a.836.836,0,1,1,1.026-1.319l-.513.66.519-.655a.836.836,0,0,1-.507,1.5Zm38.755-.033a.813.813,0,0,1-.4-.1.826.826,0,0,1-.333-1.126l.009-.017a.835.835,0,1,1,1.463.807A.849.849,0,0,1,98.562,285.366Zm-41.631-2.311a.836.836,0,0,1-.539-.2l-.02-.018a.836.836,0,1,1,1.092-1.265l-.546.633.554-.626a.835.835,0,0,1-.541,1.473Zm43.141-1.066a.847.847,0,0,1-.283-.049.836.836,0,0,1-.5-1.069l.787.282-.784-.289a.836.836,0,0,1,1.58.544l-.01.028A.835.835,0,0,1,100.072,281.989ZM54.184,280.56a.832.832,0,0,1-.585-.239.843.843,0,0,1-.025-1.181.827.827,0,0,1,1.168-.038l.027.025a.836.836,0,0,1-.585,1.433Zm46.892-2.15a.79.79,0,0,1-.173-.019.827.827,0,0,1-.643-.981l0-.025a.836.836,0,0,1,1.632.36A.847.847,0,0,1,101.076,278.41Zm-49.512-.479a.837.837,0,0,1-.6-.258l-.018-.019a.836.836,0,1,1,1.218-1.145l-.609.572.616-.564a.836.836,0,0,1-.6,1.414Zm-2.487-2.748a.845.845,0,0,1-.628-.279l-.029-.033a.836.836,0,0,1,1.276-1.08l-.638.54.641-.537a.834.834,0,0,1-.622,1.389Zm52.577-.438a.841.841,0,0,1-.832-.912l0-.021a.836.836,0,1,1,1.662.176A.846.846,0,0,1,101.654,274.745ZM46.7,272.32a.826.826,0,0,1-.646-.309l-.021-.026a.836.836,0,0,1,1.319-1.027l-.66.513.663-.508a.837.837,0,0,1-.655,1.357Zm55.166-1.279h-.013a.828.828,0,0,1-.823-.839v-.019a.836.836,0,0,1,.836-.823h.012a.834.834,0,0,1,.823.848A.844.844,0,0,1,101.865,271.041Zm-57.4-1.678a.843.843,0,1,1,.66-1.348l.025.035a.836.836,0,0,1-.685,1.313Zm57.3-2.023a.835.835,0,0,1-.834-.786l.834-.049-.834.042a.836.836,0,0,1,1.667-.122l0,.031a.836.836,0,0,1-.786.883Zm-59.418-1.027a.843.843,0,1,1,.681-1.32l.023.035a.835.835,0,0,1-.7,1.285Zm59.046-2.665a.837.837,0,0,1-.828-.726l.829-.11-.831.095a.836.836,0,1,1,1.656-.226l0,.022a.836.836,0,0,1-.719.938A.823.823,0,0,1,101.391,263.648Zm-61.035-.468a.839.839,0,1,1,.7-1.284l.009.016a.836.836,0,0,1-.714,1.268Zm60.424-3.193a.837.837,0,0,1-.819-.674l.82-.162-.822.151a.836.836,0,1,1,1.637-.337l0,.025a.835.835,0,0,1-.658.981A.826.826,0,0,1,100.78,259.987ZM38.5,259.97a.837.837,0,0,1-.733-.432l-.009-.017a.836.836,0,0,1,1.464-.806l-.732.4.741-.388a.836.836,0,0,1-.731,1.24Zm-1.727-3.286a.834.834,0,0,1-.748-.462.844.844,0,0,1,.369-1.129.827.827,0,0,1,1.117.365l.009.017a.835.835,0,0,1-.747,1.209Zm63.182-.325a.824.824,0,0,1-.8-.619l0-.018a.836.836,0,1,1,1.02.61A.824.824,0,0,1,99.951,256.359Zm-64.768-3.031a.839.839,0,1,1,.754-1.2l.012.027a.835.835,0,0,1-.433,1.1A.82.82,0,0,1,35.183,253.328Zm63.759-.53a.835.835,0,0,1-.8-.59l.8-.246-.8.24a.836.836,0,0,1,1.589-.518l.01.032a.836.836,0,0,1-.8,1.082Zm-65.2-2.892a.84.84,0,1,1,.77-1.162l.007.018a.835.835,0,0,1-.469,1.084A.815.815,0,0,1,33.746,249.906Zm64-.623a.835.835,0,0,1-.786-.553l.786-.283-.788.278a.836.836,0,0,1,1.563-.593l.012.033a.836.836,0,0,1-.5,1.069A.852.852,0,0,1,97.749,249.283Zm-65.281-2.862a.84.84,0,1,1,.784-1.125l.007.021a.835.835,0,0,1-.791,1.1Zm63.924-.593a.835.835,0,0,1-.773-.517l.773-.319-.775.314a.836.836,0,0,1,1.534-.664l.013.032a.835.835,0,0,1-.772,1.154Zm-65.033-2.95a.839.839,0,1,1,.8-1.088l.009.033a.834.834,0,0,1-.807,1.055Zm63.513-.447a.823.823,0,0,1-.746-.47l-.01-.022a.836.836,0,0,1,1.514-.708.845.845,0,0,1-.4,1.119A.854.854,0,0,1,94.872,242.431Zm-64.437-3.148a.84.84,0,1,1,.812-1.039l0,.021a.835.835,0,0,1-.633,1A.814.814,0,0,1,30.435,239.283Zm62.781-.173a.821.821,0,0,1-.728-.437l-.014-.026a.836.836,0,1,1,1.136.365A.851.851,0,0,1,93.216,239.11Zm-1.783-3.244a.835.835,0,0,1-.725-.419l.724-.417-.73.407a.836.836,0,1,1,1.442-.846l.012.022a.836.836,0,0,1-.723,1.253Zm-61.721-.226a.833.833,0,0,1-.82-.686l0-.03a.836.836,0,1,1,1.649-.271l-.825.136.826-.129a.837.837,0,0,1-.678.968A.911.911,0,0,1,29.712,235.64Zm59.8-2.948a.835.835,0,0,1-.707-.39l.706-.446-.714.434a.836.836,0,0,1,1.409-.9l.012.019a.835.835,0,0,1-.706,1.282Zm-60.291-.727a.835.835,0,0,1-.83-.749l0-.02a.836.836,0,1,1,1.663-.171l-.831.085.833-.068a.835.835,0,0,1-.744.918C29.275,231.963,29.246,231.965,29.217,231.965Zm58.229-2.371a.819.819,0,0,1-.676-.354l-.012-.017a.836.836,0,1,1,1.375-.95.84.84,0,0,1-.687,1.321Zm-58.473-1.333a.835.835,0,0,1-.834-.811.844.844,0,0,1,.81-.869.83.83,0,0,1,.86.8v.018a.836.836,0,0,1-.811.86Zm56.3-1.673a.818.818,0,0,1-.656-.326l-.011-.014a.829.829,0,1,1,.667.34Zm-56.247-2.039H28.98a.834.834,0,0,1-.8-.87l0-.031a.835.835,0,1,1,1.668.1l-.834-.049.834.056A.839.839,0,0,1,29.021,224.549Zm53.953-.867a.836.836,0,0,1-.644-.3l.644-.533-.655.52a.836.836,0,0,1,1.286-1.068l.013.016a.836.836,0,0,1-.644,1.368Zm-2.439-2.811a.818.818,0,0,1-.6-.266l-.025-.026a.83.83,0,1,1,.63.292ZM29.4,220.86a.8.8,0,0,1-.137-.011.84.84,0,1,1,.965-.719l0,.03A.835.835,0,0,1,29.4,220.86Zm48.576-2.681a.821.821,0,0,1-.582-.241l-.013-.013a.83.83,0,1,1,.595.254Zm-47.8-.946a.818.818,0,0,1-.232-.033.84.84,0,1,1,1.042-.6l-.007.026A.837.837,0,0,1,30.181,217.233Zm45.125-1.616a.83.83,0,0,1-.565-.221l.566-.615-.57.612a.836.836,0,0,1,1.109-1.251l.026.024a.836.836,0,0,1-.566,1.451ZM31.423,213.74a.824.824,0,0,1-.343-.075.835.835,0,0,1-.418-1.1.844.844,0,0,1,1.1-.429.828.828,0,0,1,.431,1.09l-.012.027A.835.835,0,0,1,31.423,213.74Zm41.063-.549a.819.819,0,0,1-.517-.184l-.021-.017a.827.827,0,1,1,.538.2Zm-2.934-2.26a.834.834,0,0,1-.491-.16l.492-.676-.5.671a.836.836,0,0,1,.966-1.364l.023.017a.836.836,0,0,1-.492,1.512ZM33.2,210.483a.822.822,0,0,1-.456-.137A.833.833,0,0,1,32.5,209.2l.02-.03a.836.836,0,1,1,1.383.939l-.691-.469.688.473A.841.841,0,0,1,33.2,210.483Zm33.276-1.631a.829.829,0,0,1-.446-.129l.447-.706-.457.7a.836.836,0,1,1,.882-1.42l.021.013a.836.836,0,0,1-.447,1.542ZM35.56,207.63a.835.835,0,0,1-.585-1.432l.013-.013a.835.835,0,1,1,1.169,1.194l-.584-.6.571.61A.832.832,0,0,1,35.56,207.63Zm27.7-.641a.826.826,0,0,1-.388-.1l-.016-.009a.827.827,0,1,1,.4.106Zm-3.34-1.605a.84.84,0,0,1-.333-.07l.334-.766-.339.764a.836.836,0,0,1,.64-1.544l.032.014a.836.836,0,0,1-.334,1.6Zm-21.454-.045a.836.836,0,0,1-.441-1.546l.015-.009.015-.01a.844.844,0,0,1,1.156.269.828.828,0,0,1-.262,1.144l-.019.012-.006,0h0l-.016.01A.834.834,0,0,1,38.468,205.339Zm17.976-1.251a.831.831,0,0,1-.244-.037l-.032-.011a.836.836,0,1,1,.521-1.588.844.844,0,0,1,.545,1.05A.833.833,0,0,1,56.444,204.088Zm-14.6-.356a.836.836,0,0,1-.279-1.624l.024-.009a.836.836,0,0,1,.544,1.581l-.272-.79.261.794A.847.847,0,0,1,41.84,203.732Zm11.012-.558a.875.875,0,0,1-.16-.015l.159-.821-.168.819a.836.836,0,0,1,.3-1.644l.027,0a.836.836,0,0,1-.158,1.656Zm-7.406-.288a.836.836,0,1,1,.839-.941.826.826,0,0,1-.71.931l-.029,0A.839.839,0,0,1,45.446,202.886Zm3.724-.151h-.056a.839.839,0,1,1,.056,0Z"/><g class="cls-9"><g class="cls-10"><path class="cls-11" d="M208.19,372.793l-41.044-23.7a6.283,6.283,0,0,0-5.7,0l-40.78,23.7c-1.569.912-1.561,2.391.021,3.3l41.044,23.7a6.283,6.283,0,0,0,5.7,0l40.78-23.7C209.78,375.185,209.771,373.706,208.19,372.793Z"/></g><path class="cls-12" d="M208.19,366.34l-41.044-23.7a6.283,6.283,0,0,0-5.7,0l-40.78,23.7c-1.569.912-1.561,2.391.021,3.3l41.044,23.7a6.283,6.283,0,0,0,5.7,0l40.78-23.7C209.78,368.732,209.771,367.253,208.19,366.34Z"/><path class="cls-12" d="M208.211,369.644l-40.78,23.7a6.283,6.283,0,0,1-5.7,0l-41.044-23.7a2.018,2.018,0,0,1-1.192-1.664l-.018,4.512a2.02,2.02,0,0,0,1.192,1.664l41.044,23.7a6.283,6.283,0,0,0,5.7,0l40.78-23.7a2,2,0,0,0,1.171-1.64l.018-4.512A2,2,0,0,1,208.211,369.644Z"/></g><path class="cls-13" d="M209.621,373.721h0l-1.463-.857-.343-.2-.343-.2h0a1.148,1.148,0,0,0-1.152.024,1.08,1.08,0,0,0-.381.439,1.565,1.565,0,0,0-.148.663v.235a1.487,1.487,0,0,0,.145.666,1.045,1.045,0,0,0,.421.466h0l.343.2,1.806,1.055h0a1.128,1.128,0,0,0,.611.141,1.037,1.037,0,0,0,.933-.626,1.574,1.574,0,0,0,.137-.641v-.235a1.512,1.512,0,0,0-.147-.67A1.041,1.041,0,0,0,209.621,373.721Z"/><g class="cls-6"><path class="cls-13" d="M221.58,383.387a.782.782,0,0,1-.408-.115l-12-7.263a.79.79,0,1,1,.818-1.351l12,7.264a.79.79,0,0,1-.41,1.465Z"/></g><path class="cls-13" d="M203.267,377.463h0l-1.463-.857-.343-.2-.342-.2h0a1.149,1.149,0,0,0-1.153.024,1.072,1.072,0,0,0-.381.439,1.545,1.545,0,0,0-.147.663v.235a1.5,1.5,0,0,0,.145.666,1.04,1.04,0,0,0,.422.466h0l.342.2,1.806,1.054h0a1.121,1.121,0,0,0,.611.142,1.04,1.04,0,0,0,.933-.627,1.567,1.567,0,0,0,.137-.64V378.6a1.512,1.512,0,0,0-.147-.67A1.041,1.041,0,0,0,203.267,377.463Z"/><g class="cls-6"><path class="cls-13" d="M215.311,386.973a.788.788,0,0,1-.4-.109l-12.08-7.109a.789.789,0,0,1,.8-1.36l12.081,7.108a.79.79,0,0,1-.4,1.47Z"/></g><path class="cls-13" d="M196.914,381.205h0l-1.464-.857-.343-.2-.342-.2h0a1.15,1.15,0,0,0-1.153.024,1.072,1.072,0,0,0-.381.439,1.557,1.557,0,0,0-.147.663v.235a1.508,1.508,0,0,0,.145.666,1.046,1.046,0,0,0,.422.466h0l.342.2L195.8,383.7h0a1.116,1.116,0,0,0,.61.142,1.04,1.04,0,0,0,.933-.627,1.567,1.567,0,0,0,.137-.64v-.235a1.512,1.512,0,0,0-.147-.67A1.04,1.04,0,0,0,196.914,381.205Z"/><g class="cls-6"><path class="cls-13" d="M209.164,390.672a.791.791,0,0,1-.393-.105L196.484,383.5a.789.789,0,1,1,.787-1.368l12.287,7.065a.79.79,0,0,1-.394,1.474Z"/></g><g class="cls-6"><path class="cls-13" d="M202.683,394.248a.788.788,0,0,1-.384-.1L190.386,387.5a.79.79,0,0,1,.77-1.379l11.912,6.647a.789.789,0,0,1-.385,1.479Z"/></g><path class="cls-13" d="M190.56,384.946h0l-1.464-.856-.342-.2-.343-.2h0a1.15,1.15,0,0,0-1.153.024,1.065,1.065,0,0,0-.38.439,1.547,1.547,0,0,0-.148.663v.235a1.508,1.508,0,0,0,.145.666,1.057,1.057,0,0,0,.422.466h0l.343.2,1.806,1.054h0a1.119,1.119,0,0,0,.611.142,1.04,1.04,0,0,0,.933-.627,1.562,1.562,0,0,0,.136-.64v-.235a1.528,1.528,0,0,0-.146-.67A1.05,1.05,0,0,0,190.56,384.946Z"/><path class="cls-13" d="M184.206,388.688h0l-1.463-.856-.343-.2-.343-.2h0a1.15,1.15,0,0,0-1.153.024,1.067,1.067,0,0,0-.38.438,1.553,1.553,0,0,0-.148.664v.234a1.515,1.515,0,0,0,.145.666,1.055,1.055,0,0,0,.422.467h0l.343.2,1.806,1.055h0a1.119,1.119,0,0,0,.611.142,1.04,1.04,0,0,0,.933-.627,1.571,1.571,0,0,0,.137-.641v-.235a1.492,1.492,0,0,0-.146-.669A1.05,1.05,0,0,0,184.206,388.688Z"/><g class="cls-6"><path class="cls-13" d="M196.118,398a.783.783,0,0,1-.394-.106l-11.95-6.91a.79.79,0,1,1,.791-1.367l11.949,6.91a.79.79,0,0,1-.4,1.473Z"/></g><path class="cls-13" d="M177.852,392.43h0l-1.463-.857-.343-.2-.343-.2h0a1.148,1.148,0,0,0-1.152.024,1.067,1.067,0,0,0-.381.438,1.565,1.565,0,0,0-.148.663v.235a1.5,1.5,0,0,0,.145.666,1.045,1.045,0,0,0,.421.466h0l.343.2,1.806,1.055h0a1.13,1.13,0,0,0,.611.142,1.04,1.04,0,0,0,.933-.627,1.574,1.574,0,0,0,.137-.641v-.235a1.5,1.5,0,0,0-.147-.669A1.039,1.039,0,0,0,177.852,392.43Z"/><g class="cls-6"><path class="cls-13" d="M189.513,401.584a.783.783,0,0,1-.394-.106l-11.7-6.752a.789.789,0,1,1,.789-1.367l11.7,6.752a.789.789,0,0,1-.395,1.473Z"/></g><path class="cls-13" d="M171.5,396.172h0l-1.463-.857-.343-.2-.342-.2h0a1.145,1.145,0,0,0-1.153.024,1.067,1.067,0,0,0-.381.438,1.56,1.56,0,0,0-.147.663v.235a1.5,1.5,0,0,0,.145.666,1.046,1.046,0,0,0,.422.466h0l.342.2,1.807,1.055h0a1.13,1.13,0,0,0,.611.141,1.037,1.037,0,0,0,.933-.626,1.574,1.574,0,0,0,.137-.641V397.3a1.512,1.512,0,0,0-.147-.67A1.045,1.045,0,0,0,171.5,396.172Z"/><g class="cls-6"><path class="cls-13" d="M183.065,405.363a.778.778,0,0,1-.4-.109l-11.6-6.788a.79.79,0,0,1,.8-1.363l11.6,6.789a.789.789,0,0,1-.4,1.471Z"/></g><path class="cls-13" d="M122.559,373.13a1.072,1.072,0,0,0-.381-.439,1.15,1.15,0,0,0-1.153-.024h0l-.343.2-.342.2-1.464.857h0a1.041,1.041,0,0,0-.42.462,1.528,1.528,0,0,0-.146.67v.235a1.562,1.562,0,0,0,.136.64,1.044,1.044,0,0,0,.933.627,1.117,1.117,0,0,0,.611-.142h0l1.807-1.054.342-.2h0a1.046,1.046,0,0,0,.422-.466,1.5,1.5,0,0,0,.145-.666v-.235A1.56,1.56,0,0,0,122.559,373.13Z"/><g class="cls-6"><path class="cls-13" d="M104.451,384.539a.789.789,0,0,1-.39-1.476l14.462-8.217a.789.789,0,0,1,.78,1.372l-14.462,8.218A.791.791,0,0,1,104.451,384.539Z"/></g><path class="cls-13" d="M128.912,376.872a1.065,1.065,0,0,0-.38-.439,1.15,1.15,0,0,0-1.153-.024h0l-.343.2-.342.2-1.464.856h0a1.041,1.041,0,0,0-.42.462,1.514,1.514,0,0,0-.146.67v.235a1.567,1.567,0,0,0,.137.64,1.04,1.04,0,0,0,.933.627,1.119,1.119,0,0,0,.611-.142h0l1.806-1.054.343-.2h0a1.057,1.057,0,0,0,.422-.466,1.508,1.508,0,0,0,.145-.666v-.235A1.547,1.547,0,0,0,128.912,376.872Z"/><g class="cls-6"><path class="cls-13" d="M111.042,388.291a.79.79,0,0,1-.4-1.473l14.225-8.228a.79.79,0,0,1,.791,1.367l-14.226,8.228A.783.783,0,0,1,111.042,388.291Z"/></g><path class="cls-13" d="M135.266,380.613a1.06,1.06,0,0,0-.381-.438,1.148,1.148,0,0,0-1.152-.024h0l-.343.2-.343.2-1.463.856h0a1.05,1.05,0,0,0-.42.463,1.493,1.493,0,0,0-.146.67v.234a1.571,1.571,0,0,0,.137.641,1.04,1.04,0,0,0,.933.627,1.119,1.119,0,0,0,.611-.142h0l1.806-1.055.343-.2h0a1.057,1.057,0,0,0,.422-.466,1.512,1.512,0,0,0,.144-.666v-.235A1.569,1.569,0,0,0,135.266,380.613Z"/><g class="cls-6"><path class="cls-13" d="M117.614,391.766a.789.789,0,0,1-.39-1.476l14.006-7.961a.79.79,0,1,1,.78,1.373L118,391.662A.786.786,0,0,1,117.614,391.766Z"/></g><path class="cls-13" d="M141.62,384.355a1.067,1.067,0,0,0-.381-.438,1.148,1.148,0,0,0-1.152-.024h0l-.343.2-.343.2-1.463.856h0a1.044,1.044,0,0,0-.42.463,1.5,1.5,0,0,0-.147.669v.235a1.571,1.571,0,0,0,.137.641,1.04,1.04,0,0,0,.933.627,1.13,1.13,0,0,0,.611-.142h0l1.806-1.055.343-.2h0a1.039,1.039,0,0,0,.421-.466,1.5,1.5,0,0,0,.145-.666v-.235A1.568,1.568,0,0,0,141.62,384.355Z"/><g class="cls-6"><path class="cls-13" d="M123.876,395.566a.79.79,0,0,1-.391-1.476l14.1-8.019a.79.79,0,0,1,.78,1.373l-14.1,8.018A.786.786,0,0,1,123.876,395.566Z"/></g><path class="cls-13" d="M147.974,388.1a1.067,1.067,0,0,0-.381-.438,1.145,1.145,0,0,0-1.153-.024h0l-.342.2-.343.2-1.463.857h0a1.043,1.043,0,0,0-.419.463,1.5,1.5,0,0,0-.147.669v.235a1.574,1.574,0,0,0,.137.641,1.04,1.04,0,0,0,.933.627,1.125,1.125,0,0,0,.61-.142h0l1.807-1.055.342-.2h0a1.046,1.046,0,0,0,.422-.466,1.5,1.5,0,0,0,.145-.666v-.235A1.56,1.56,0,0,0,147.974,388.1Z"/><g class="cls-6"><path class="cls-13" d="M130.6,399.186a.789.789,0,0,1-.395-1.473l13.729-7.9a.79.79,0,0,1,.788,1.369l-13.73,7.9A.787.787,0,0,1,130.6,399.186Z"/></g><path class="cls-13" d="M154.327,391.839a1.065,1.065,0,0,0-.38-.439,1.15,1.15,0,0,0-1.153-.024h0l-.343.2-.342.2-1.464.857h0a1.046,1.046,0,0,0-.42.462,1.528,1.528,0,0,0-.146.67V394a1.569,1.569,0,0,0,.136.641,1.04,1.04,0,0,0,.933.626,1.126,1.126,0,0,0,.611-.141h0l1.806-1.055.343-.2h0a1.051,1.051,0,0,0,.422-.466,1.5,1.5,0,0,0,.145-.666V392.5A1.549,1.549,0,0,0,154.327,391.839Z"/><g class="cls-6"><path class="cls-13" d="M136.809,402.679a.789.789,0,0,1-.382-1.48L150.3,393.55a.79.79,0,0,1,.762,1.383l-13.873,7.648A.784.784,0,0,1,136.809,402.679Z"/></g><path class="cls-13" d="M160.681,395.581a1.065,1.065,0,0,0-.38-.439,1.15,1.15,0,0,0-1.153-.024h0l-.343.2-.342.2-1.464.857h0a1.041,1.041,0,0,0-.42.462,1.514,1.514,0,0,0-.146.67v.235a1.567,1.567,0,0,0,.137.64,1.04,1.04,0,0,0,.933.627,1.119,1.119,0,0,0,.611-.142h0l1.806-1.054.343-.2h0a1.051,1.051,0,0,0,.422-.466,1.519,1.519,0,0,0,.145-.666v-.235A1.549,1.549,0,0,0,160.681,395.581Z"/><g class="cls-6"><path class="cls-13" d="M143.1,406.586a.79.79,0,0,1-.387-1.478l13.939-7.814a.79.79,0,0,1,.772,1.378l-13.939,7.813A.778.778,0,0,1,143.1,406.586Z"/></g><rect class="cls-8" x="163.515" y="135.684" width="1.671" height="215.631"/><polygon class="cls-4" points="11.798 150.391 11.798 179.904 37.357 194.661 62.916 179.904 62.916 150.391 37.357 135.634 11.798 150.391"/><path class="cls-8" d="M37.357,196.483,10.219,180.815V149.479l27.138-15.668L64.5,149.479v31.336ZM12.845,179.3l24.512,14.153L61.869,179.3V151L37.357,136.843,12.845,151Z"/><polygon class="cls-4" points="487.832 312.8 487.832 342.253 513.339 356.979 538.845 342.253 538.845 312.8 513.339 298.074 487.832 312.8"/><path class="cls-13" d="M513.339,358.8l-27.086-15.638V311.889l27.086-15.638,27.085,15.638v31.275Zm-24.42-17.177,24.42,14.1,24.419-14.1v-28.2l-24.419-14.1-24.42,14.1Z"/><path class="cls-8" d="M62.737,179.5c-.12.146-.242.291-.37.431-.154.237-.318.463-.488.684l100.355,56.243.681-1.215Z"/><polygon class="cls-8" points="369.418 378.295 306.115 341.152 306.961 339.71 369.391 376.341 389.226 363.96 390.886 364.894 369.418 378.295"/><rect class="cls-8" x="447.195" y="121.312" width="1.671" height="153.628" transform="translate(42.717 473.274) rotate(-58.026)"/><polygon class="cls-4" points="126.742 239.913 126.742 283.339 164.351 305.052 201.959 283.339 201.959 239.913 164.351 218.2 126.742 239.913"/><path class="cls-8" d="M164.351,306.875,125.164,284.25V239l39.187-22.624L203.538,239V284.25Zm-36.49-24.182,36.49,21.068,36.49-21.068V240.559l-36.49-21.068-36.49,21.068Z"/><rect class="cls-8" x="356.799" y="165.281" width="1.671" height="74.116"/><path class="cls-8" d="M482.53,407.279a.825.825,0,0,1-.4-.106l-.017-.009a.836.836,0,0,1,.812-1.461l.016.009a.836.836,0,0,1-.406,1.567Zm-3.259-1.821a.844.844,0,0,1-.736-1.25.828.828,0,0,1,1.13-.323l.016.009a.835.835,0,0,1-.41,1.564Zm-3.258-1.821a.831.831,0,0,1-.409-.107.843.843,0,0,1-.327-1.142.828.828,0,0,1,1.13-.324l.016.009a.836.836,0,0,1-.41,1.564Zm-3.259-1.82a.828.828,0,0,1-.408-.108.842.842,0,0,1-.327-1.142.827.827,0,0,1,1.129-.324l.017.009a.836.836,0,0,1-.411,1.565ZM469.5,400a.843.843,0,0,1-.736-1.25.827.827,0,0,1,1.13-.323l.016.009A.836.836,0,0,1,469.5,400Zm-3.258-1.82a.832.832,0,0,1-.409-.108.843.843,0,0,1-.327-1.142.827.827,0,0,1,1.129-.324l.017.009a.836.836,0,0,1-.41,1.565Zm-3.259-1.821a.828.828,0,0,1-.4-.106l-.016-.009a.836.836,0,1,1,.812-1.461l.016.01a.836.836,0,0,1-.407,1.566Zm-3.258-1.821a.835.835,0,0,1-.405-.105l-.017-.009a.836.836,0,0,1,.812-1.461l.016.009a.836.836,0,0,1-.406,1.566Zm-3.259-1.82a.828.828,0,0,1-.408-.108.843.843,0,0,1-.327-1.142.827.827,0,0,1,1.129-.324l.016.009a.836.836,0,0,1-.41,1.565Zm-3.258-1.821a.843.843,0,0,1-.736-1.25.827.827,0,0,1,1.13-.323l.016.009a.836.836,0,0,1-.41,1.564Zm-3.258-1.821a.828.828,0,0,1-.409-.107.843.843,0,0,1-.327-1.142.827.827,0,0,1,1.129-.324l.017.009a.836.836,0,0,1-.41,1.564Zm-3.259-1.82a.825.825,0,0,1-.408-.108.843.843,0,0,1-.328-1.142.829.829,0,0,1,1.13-.324l.016.009a.836.836,0,0,1-.41,1.565Zm-3.258-1.821a.843.843,0,0,1-.736-1.25.827.827,0,0,1,1.13-.323l.016.009a.836.836,0,0,1-.41,1.564Zm-3.259-1.821a.827.827,0,0,1-.405-.105l-.016-.009a.836.836,0,1,1,.812-1.461l.016.009a.836.836,0,0,1-.407,1.566Zm-3.258-1.82a.825.825,0,0,1-.4-.106l-.016-.009a.836.836,0,1,1,.811-1.461l.017.009a.836.836,0,0,1-.407,1.567Zm-3.258-1.821a.839.839,0,0,1-.406-.105l-.016-.009a.836.836,0,1,1,.812-1.461l.016.009a.836.836,0,0,1-.406,1.566Zm-3.259-1.821a.824.824,0,0,1-.408-.107.843.843,0,0,1-.328-1.142.828.828,0,0,1,1.13-.324l.016.009a.836.836,0,0,1-.41,1.564Zm-3.258-1.82a.843.843,0,0,1-.736-1.25.827.827,0,0,1,1.13-.323l.016.009a.836.836,0,0,1-.41,1.564Zm-3.259-1.821a.824.824,0,0,1-.408-.107.843.843,0,0,1-.328-1.142.827.827,0,0,1,1.13-.324l.016.009a.836.836,0,0,1-.41,1.564Zm-3.258-1.82a.832.832,0,0,1-.409-.108.843.843,0,0,1-.327-1.142.828.828,0,0,1,1.13-.324l.016.009a.836.836,0,0,1-.41,1.565Zm-3.259-1.821a.838.838,0,0,1-.4-.1l-.016-.009a.836.836,0,1,1,.812-1.461l.016.009a.836.836,0,0,1-.407,1.566Zm-3.258-1.821a.838.838,0,0,1-.405-.105l-.016-.009a.836.836,0,0,1,.811-1.461l.017.009a.836.836,0,0,1-.407,1.566Zm-3.258-1.82a.832.832,0,0,1-.409-.108.843.843,0,0,1-.327-1.142.828.828,0,0,1,1.13-.324l.016.009a.836.836,0,0,1-.41,1.565Zm-3.259-1.821a.835.835,0,0,1-.408-.107.844.844,0,0,1-.328-1.143.827.827,0,0,1,1.13-.323l.016.009a.836.836,0,0,1-.41,1.564Zm-3.258-1.821a.831.831,0,0,1-.409-.107.843.843,0,0,1-.327-1.142.827.827,0,0,1,1.13-.324l.016.009a.836.836,0,0,1-.41,1.564Zm-3.259-1.82a.844.844,0,0,1-.736-1.25.827.827,0,0,1,1.13-.323l.016.009a.836.836,0,0,1-.41,1.564Z"/><path class="cls-8" d="M12.7,150.276l-42.786-25.891-.678,1.121,42.777,25.885A10.053,10.053,0,0,1,12.7,150.276Z"/><path class="cls-13" d="M525.1,167.247a.836.836,0,0,1-.417-1.561l.017-.009a.835.835,0,1,1,.83,1.45l-.016.009A.833.833,0,0,1,525.1,167.247Zm3.235-1.861a.836.836,0,0,1-.416-1.561l.016-.009a.836.836,0,1,1,.831,1.45l-.016.009A.823.823,0,0,1,528.333,165.386Zm3.246-1.869a.833.833,0,0,1-.43-1.55l.016-.01a.836.836,0,1,1,.414,1.56Zm3.226-1.852a.836.836,0,0,1-.417-1.561l.016-.009a.836.836,0,1,1,.831,1.45l-.016.009A.833.833,0,0,1,534.8,161.665Zm3.235-1.861a.836.836,0,0,1-.416-1.561l.016-.009a.836.836,0,1,1,.831,1.45l-.016.009A.834.834,0,0,1,538.04,159.8Zm3.246-1.869a.833.833,0,0,1-.43-1.551l.016-.009a.836.836,0,1,1,.414,1.56Zm3.225-1.853a.836.836,0,0,1-.416-1.561l.016-.009a.836.836,0,1,1,.831,1.45l-.016.009A.823.823,0,0,1,544.511,156.082Zm3.236-1.861a.835.835,0,0,1-.416-1.56l.016-.01a.836.836,0,1,1,.831,1.45l-.016.01A.832.832,0,0,1,547.747,154.221Z"/><path class="cls-8" d="M64.68,366.043a.836.836,0,0,1-.432-1.552l.016-.009a.835.835,0,1,1,.862,1.431l-.016.01A.833.833,0,0,1,64.68,366.043Zm3.2-1.913a.835.835,0,0,1-.432-1.551l.016-.01A.835.835,0,1,1,68.331,364l-.016.01A.833.833,0,0,1,67.885,364.13Zm3.2-1.913a.836.836,0,0,1-.427-1.554.843.843,0,0,1,1.153.287.827.827,0,0,1-.284,1.14l-.016.01A.834.834,0,0,1,71.09,362.217Zm3.206-1.912a.838.838,0,1,1,.726-1.266.828.828,0,0,1-.286,1.14l-.016.009A.833.833,0,0,1,74.3,360.305Zm3.2-1.913a.836.836,0,0,1-.432-1.552l.016-.009a.835.835,0,1,1,.862,1.431l-.016.01A.835.835,0,0,1,77.5,358.392Zm3.2-1.913a.836.836,0,0,1-.426-1.555.844.844,0,0,1,1.153.289.828.828,0,0,1-.287,1.14l-.016.01A.829.829,0,0,1,80.706,356.479Zm3.2-1.913a.836.836,0,0,1-.426-1.555.844.844,0,0,1,1.153.29.828.828,0,0,1-.287,1.14l-.016.009A.826.826,0,0,1,83.911,354.566Zm3.2-1.912a.836.836,0,0,1-.432-1.552l.016-.009a.836.836,0,0,1,.863,1.431l-.016.01A.836.836,0,0,1,87.116,352.654Zm3.206-1.913a.836.836,0,0,1-.432-1.552l.016-.009a.835.835,0,1,1,.862,1.431l-.016.01A.835.835,0,0,1,90.322,350.741Zm3.2-1.913a.843.843,0,1,1,.44-.126l-.016.01A.829.829,0,0,1,93.527,348.828Zm3.2-1.912a.836.836,0,0,1-.426-1.556.844.844,0,0,1,1.153.29.828.828,0,0,1-.287,1.14l-.016.009A.827.827,0,0,1,96.732,346.916Zm3.2-1.913a.836.836,0,0,1-.432-1.552l.016-.009a.836.836,0,1,1,.863,1.431l-.016.01A.836.836,0,0,1,99.937,345Zm3.206-1.913a.835.835,0,0,1-.432-1.551l.016-.01a.836.836,0,0,1,.862,1.432l-.016.009A.835.835,0,0,1,103.143,343.09Zm3.2-1.913a.838.838,0,1,1,.725-1.267.826.826,0,0,1-.283,1.14l-.016.01A.827.827,0,0,1,106.348,341.177Zm3.2-1.912a.836.836,0,0,1-.432-1.552l.016-.009a.835.835,0,1,1,.862,1.431l-.016.01A.83.83,0,0,1,109.553,339.265Zm3.2-1.913a.836.836,0,0,1-.432-1.552l.016-.009a.836.836,0,0,1,.863,1.431l-.016.01A.836.836,0,0,1,112.758,337.352Zm3.206-1.913a.843.843,0,1,1,.44-.126l-.016.01A.831.831,0,0,1,115.964,335.439Zm3.2-1.912a.836.836,0,0,1-.426-1.556.842.842,0,0,1,1.152.29.828.828,0,0,1-.286,1.14l-.016.009A.83.83,0,0,1,119.169,333.527Zm3.2-1.913a.836.836,0,0,1-.432-1.552l.016-.009a.835.835,0,1,1,.862,1.431l-.016.01A.833.833,0,0,1,122.374,331.614Zm3.2-1.913a.835.835,0,0,1-.432-1.551l.016-.01a.836.836,0,0,1,.862,1.432l-.015.009A.836.836,0,0,1,125.579,329.7Zm3.206-1.913a.842.842,0,1,1,.44-.125l-.016.009A.831.831,0,0,1,128.785,327.788Zm3.205-1.912a.838.838,0,1,1,.726-1.266.828.828,0,0,1-.286,1.14l-.016.009A.83.83,0,0,1,131.99,325.876Zm3.2-1.913a.836.836,0,0,1-.432-1.552l.016-.009a.835.835,0,1,1,.862,1.431l-.016.01A.833.833,0,0,1,135.2,323.963Zm3.205-1.913a.835.835,0,0,1-.432-1.551l.016-.01a.836.836,0,0,1,.862,1.432l-.016.009A.821.821,0,0,1,138.4,322.05Zm3.2-1.912a.836.836,0,0,1-.426-1.556.843.843,0,0,1,1.153.29.828.828,0,0,1-.286,1.14l-.016.009A.834.834,0,0,1,141.6,320.138Zm3.206-1.913a.838.838,0,1,1,.726-1.266.828.828,0,0,1-.286,1.14l-.016.009A.833.833,0,0,1,144.811,318.225Zm3.2-1.913a.835.835,0,0,1-.432-1.551l.016-.01a.836.836,0,1,1,.862,1.432l-.016.009A.833.833,0,0,1,148.016,316.312Zm3.205-1.912a.844.844,0,1,1,.448-.131l-.016.009A.83.83,0,0,1,151.221,314.4Zm3.2-1.913a.836.836,0,0,1-.426-1.556.845.845,0,0,1,1.153.29.828.828,0,0,1-.286,1.14l-.016.009A.834.834,0,0,1,154.426,312.487Zm3.206-1.913a.838.838,0,1,1,.726-1.266.828.828,0,0,1-.286,1.14l-.016.01A.841.841,0,0,1,157.632,310.574Zm3.2-1.913a.835.835,0,0,1-.432-1.551l.016-.01a.836.836,0,1,1,.862,1.432l-.016.009A.826.826,0,0,1,160.837,308.661Zm3.205-1.913a.836.836,0,0,1-.426-1.555.844.844,0,0,1,1.153.29.828.828,0,0,1-.287,1.14l-.016.009A.829.829,0,0,1,164.042,306.748Z"/><g class="cls-10"><polygon class="cls-13" points="73.768 348.236 102.665 365.462 102.763 331.141 73.865 313.915 73.768 348.236"/></g><path class="cls-4" d="M65.483,241.16,16.865,213.091a3.422,3.422,0,0,0-3.453-.339l-1.449.842.009,0a3.393,3.393,0,0,0-1.424,3.118L10.2,348.782a10.662,10.662,0,0,0,4.837,8.378l48.618,28.07a3.373,3.373,0,0,0,3.528.291c-.025.015-.049.032-.075.047l1.449-.842a3.4,3.4,0,0,0,1.416-3.113l.344-132.075A10.661,10.661,0,0,0,65.483,241.16Z"/><g class="cls-9"><polygon class="cls-4" points="12.274 342.193 64.417 372.298 64.712 257.63 12.57 227.526 12.274 342.193"/><polygon class="cls-7" points="12.454 232.809 64.596 262.913 64.712 257.63 12.57 227.526 12.454 232.809"/><path class="cls-13" d="M62.464,243.494,14.889,216.027c-2.622-1.514-4.756-.3-4.764,2.715L9.788,348.951a10.43,10.43,0,0,0,4.733,8.2L62.1,384.615c2.623,1.514,4.755.3,4.764-2.714L67.2,251.693A10.434,10.434,0,0,0,62.464,243.494Zm1.953,128.8-52.143-30.1.3-114.668,52.143,30.1Z"/></g><ellipse class="cls-14" cx="176.07" cy="308.172" rx="3.311" ry="1.918" transform="translate(-178.816 302.984) rotate(-59.421)"/><path class="cls-15" d="M184.205,300.953a5.154,5.154,0,0,0-2.394,4.025c-.019,1.5,1.021,2.124,2.323,1.4a5.159,5.159,0,0,0,2.394-4.024C186.547,300.852,185.507,300.228,184.205,300.953Z"/><path class="cls-13" d="M192.3,296.446a5.158,5.158,0,0,0-2.394,4.024c-.019,1.5,1.022,2.124,2.324,1.4a5.161,5.161,0,0,0,2.393-4.025C194.647,296.345,193.606,295.721,192.3,296.446Z"/><path class="cls-8" d="M483.308,404.754a2.182,2.182,0,1,0,2.181,2.182A2.182,2.182,0,0,0,483.308,404.754Z"/><path class="cls-13" d="M146.317,368.86,165.132,385l2.412-1.393-3.79-3.249,5.932-3.425,5.6,2.206,2.615-1.51L150.1,366.674Zm20.77,6.985-5.227,3.018-10.869-9.306Z"/><polygon class="cls-13" points="156.638 362.901 179.943 376.445 182.557 374.936 159.252 361.392 156.638 362.901"/><path class="cls-13" d="M164.411,349.12a2.182,2.182,0,1,0,2.182,2.182A2.181,2.181,0,0,0,164.411,349.12Z"/><path class="cls-8" d="M37.454,136.486a.831.831,0,0,1-.836-.831v-.009a.836.836,0,1,1,.836.84Z"/><path class="cls-8" d="M37.454,132.926a.828.828,0,0,1-.836-.827v-.018a.836.836,0,1,1,.836.845Zm0-3.564a.828.828,0,0,1-.836-.827v-.018a.836.836,0,1,1,.836.845Zm0-3.564a.829.829,0,0,1-.836-.827v-.018a.836.836,0,1,1,.836.845Zm0-3.565a.828.828,0,0,1-.836-.827v-.017a.836.836,0,1,1,.836.844Zm0-3.564a.828.828,0,0,1-.836-.827v-.018a.836.836,0,1,1,.836.845Zm0-3.564a.829.829,0,0,1-.836-.827v-.018a.836.836,0,1,1,.836.845Zm0-3.565a.828.828,0,0,1-.836-.826V110.7a.836.836,0,1,1,.836.844Zm0-3.564a.828.828,0,0,1-.836-.827v-.017a.836.836,0,1,1,.836.844Z"/><path class="cls-8" d="M37.454,104.416a.831.831,0,0,1-.836-.831v-.009a.836.836,0,1,1,.836.84Z"/><path class="cls-8" d="M37.357,100.742a2.182,2.182,0,1,0,2.182,2.182A2.182,2.182,0,0,0,37.357,100.742Z"/><rect class="cls-8" x="227.277" y="266.977" width="1.3" height="59.39" transform="translate(-141.296 357.001) rotate(-61.745)"/><path class="cls-8" d="M253.325,311.987a1.466,1.466,0,1,0-.6-1.986A1.468,1.468,0,0,0,253.325,311.987Z"/><path class="cls-12" d="M109.026,182.858a.932.932,0,0,1-.241-.2l-.285-.336-.028,10.026-7.77-9.4.028-9.787-.778-.917a1.225,1.225,0,0,1-.271-.572l-.032,11.026a1.113,1.113,0,0,0,.271.688l8.82,10.669a.975.975,0,0,0,.253.227.449.449,0,0,0,.273.069.225.225,0,0,0,.036-.006c.137-.034.224-.166.225-.368l0-1.026.028-10.017-.285.006A.526.526,0,0,1,109.026,182.858Z"/><path class="cls-12" d="M110.211,160.871l7.7,9.083.134,0c-.509-.655-1.667-1.989-4.307-5.031Z"/><path class="cls-12" d="M135.7,169.5l8.738,10.636a1.292,1.292,0,0,1,.239.466,1.241,1.241,0,0,0-.246-.485Z"/><g class="cls-9"><path class="cls-12" d="M101.321,172.484l7.708,9.086.091,0c-.529-.676-1.7-2.027-4.264-5Z"/><path class="cls-12" d="M117.876,182.661a1.01,1.01,0,0,1-.253-.226l-8.82-10.669a1.115,1.115,0,0,1-.271-.688v-.346l-8.584.434c-.172.011-.28.16-.281.378a.9.9,0,0,0,.013.124,1.225,1.225,0,0,0,.271.572l.778.917,7.77,9.161.285.336a.932.932,0,0,0,.241.2.526.526,0,0,0,.247.078l.285-.006,7.791-.154.774-.016a.259.259,0,0,0,.131-.036l-.105.007A.444.444,0,0,1,117.876,182.661Zm-8.756-1.093-.091,0-7.7-9.087,7.728-.4,7.707,9.334Z"/><path class="cls-12" d="M118.123,182.76l-.774.016-.027,9.764-7.792.407,0,1.026c0,.2-.088.334-.225.368l8.541-.45.255-.014c.171,0,.28-.144.28-.37v-.357l.028-9.786,0-.649-.155.009A.259.259,0,0,1,118.123,182.76Z"/><path class="cls-12" d="M126.627,193.021a1,1,0,0,1-.247-.208l-.284-.338-.029,10.02-7.688-9.345v.357c0,.226-.109.367-.28.37l-.255.014,8.492,10.319a1.013,1.013,0,0,0,.26.23.438.438,0,0,0,.274.065c.154-.022.252-.158.253-.373l0-1.027.028-10.015-.279.008A.55.55,0,0,1,126.627,193.021Z"/><path class="cls-12" d="M118.409,182.715l0,.649,7.689,9.111.284.338a1,1,0,0,0,.247.208.55.55,0,0,0,.247.077l.279-.008,7.7-.205,0-.677-8.2-9.972Zm10.812,2.659,5.049,6.154-7.55.2-.089,0L119,182.686l7.661-.437Z"/><path class="cls-12" d="M118.993,182.686l7.638,9.046.089,0c-.525-.672-1.68-2.015-4.224-4.973Z"/><path class="cls-12" d="M134.821,203v-.357l-7.7.462,0,1.027c0,.215-.1.351-.253.373l8.479-.5-.256-.311A1.11,1.11,0,0,1,134.821,203Z"/><path class="cls-12" d="M117.908,171.242a.966.966,0,0,1-.24-.2l-.285-.336-.028,10.025-7.764-9.4.028-9.784-.772-.91a1.16,1.16,0,0,1-.283-.7l-.032,11.136a1.115,1.115,0,0,0,.271.688l8.82,10.669a1.01,1.01,0,0,0,.253.226.445.445,0,0,0,.28.069c.154-.021.253-.158.254-.373l0-1.029.028-10.016-.285.007A.507.507,0,0,1,117.908,171.242Z"/><path class="cls-12" d="M126.128,181.236v-.357l-7.716.449,0,1.029c0,.215-.1.352-.254.373l.1-.006.155-.009,8.245-.479-.256-.311A1.141,1.141,0,0,1,126.128,181.236Z"/><polygon class="cls-12" points="119.005 182.694 126.658 182.256 129.221 185.374 126.658 182.249 119.005 182.694"/><path class="cls-12" d="M144.184,203.157a.966.966,0,0,1-.24-.2l-.19-.224-.028,10.049-7.847-9.524.028-9.782.635.742-1.377-1.626-.042-.049-.272-.331L134.821,203a1.11,1.11,0,0,0,.271.689l8.769,10.639a.931.931,0,0,0,.253.226.431.431,0,0,0,.253.067h.14a.283.283,0,0,0,.058-.011.344.344,0,0,0,.216-.363l0-1.03.028-9.991-.381.008A.493.493,0,0,1,144.184,203.157Z"/><path class="cls-12" d="M146.858,194.222l-2.184-2.647v.368c0,.226-.1.371-.274.374l-8.763.518a.43.43,0,0,1-.067,0,.485.485,0,0,1-.193-.067.9.9,0,0,1-.211-.177l1.377,1.626,7.212,8.515.19.224a.966.966,0,0,0,.24.2.493.493,0,0,0,.247.077l.381-.008,7.652-.175.774-.017c.171,0,.279-.153.286-.367a1.144,1.144,0,0,0-.271-.7Zm-2.633,7.646h-.037l-7.694-9.079,7.689-.422,4.667,5.656,3.027,3.67Z"/><path class="cls-12" d="M136.493,192.79l7.695,9.079h.037c-.592-.739-1.777-2.123-4.153-4.9Z"/><path class="cls-12" d="M117.946,159.173a.469.469,0,0,0-.257-.071l-8.851.452c-.172.01-.273.163-.274.385a1.16,1.16,0,0,0,.283.7l.772.91,7.764,9.154.285.336a.966.966,0,0,0,.24.2.507.507,0,0,0,.248.077l.285-.007,7.715-.193,0-1.025c0-.219.109-.36.274-.374l.24-.015L118.2,159.4A.964.964,0,0,0,117.946,159.173Zm.1,10.778-.134,0-7.693-9.083,7.72-.4,7.637,9.293Z"/><path class="cls-12" d="M135.409,181.346a1.016,1.016,0,0,1-.247-.208l-8.719-10.349a1.184,1.184,0,0,1-.284-.688l-.031,11.135a1.141,1.141,0,0,0,.27.689l8.725,10.614a.963.963,0,0,0,.253.226.493.493,0,0,0,.2.068.322.322,0,0,0,.062,0c.165-.014.266-.152.267-.37l0-1.03.028-10.015-.285.007A.5.5,0,0,1,135.409,181.346Zm-.554,9.478-7.669-9.334.028-9.767c2.384,2.834,6.576,7.821,7.67,9.13Z"/><polygon class="cls-12" points="136.502 192.799 144.177 192.371 148.85 198.024 144.183 192.368 136.502 192.799"/><path class="cls-12" d="M153.238,203.034l-.774.017-.028,9.762-7.652.4,0,1.03a.344.344,0,0,1-.216.363l8.647-.459c.172,0,.28-.145.281-.371l.031-11.113C153.517,202.881,153.409,203.03,153.238,203.034Z"/><path class="cls-12" d="M146.858,194.222l6.395,7.749a1.144,1.144,0,0,1,.271.7v-.022a1.161,1.161,0,0,0-.277-.692Z"/><polygon class="cls-12" points="135.445 169.277 135.445 169.277 135.444 169.276 135.445 169.277"/><path class="cls-12" d="M135.444,169.276a.459.459,0,0,0-.255-.071.468.468,0,0,1,.256.072Z"/><polygon class="cls-12" points="127.806 171.033 135.439 170.582 138.115 173.832 135.439 170.574 127.806 171.033"/><path class="cls-12" d="M144.424,181.2l-.774.02-.028,9.76-7.709.451,0,1.03c0,.218-.1.356-.267.37a.322.322,0,0,1-.062,0,.341.341,0,0,0,.055,0l8.763-.518c.171,0,.273-.148.274-.374v-.368l.03-10.67A.307.307,0,0,1,144.424,181.2Z"/><path class="cls-12" d="M144.44,180.138,135.7,169.5a.935.935,0,0,0-.257-.225.466.466,0,0,0-.256-.072l-8.516.5-.24.015c-.165.014-.273.155-.274.376a1.184,1.184,0,0,0,.284.693l8.719,10.349a1.016,1.016,0,0,0,.247.208.5.5,0,0,0,.247.077l.285-.007,7.709-.2.774-.02a.307.307,0,0,0,.28-.295c0-.023.006-.047.007-.072a.935.935,0,0,0-.032-.229A1.292,1.292,0,0,0,144.44,180.138Zm-9.028-.08-7.612-9.032,7.639-.452,2.676,3.258,4.955,6.032Z"/></g><polygon class="cls-16" points="67.939 349.416 74.122 352.986 74.122 352.931 67.94 349.362 67.939 349.416"/><polygon class="cls-13" points="67.935 351.105 74.117 354.674 74.122 352.986 67.939 349.416 67.935 351.105"/><polygon class="cls-16" points="59.969 344.815 66.627 348.659 66.627 348.604 59.969 344.76 59.969 344.815"/><polygon class="cls-13" points="59.964 346.503 66.622 350.347 66.627 348.659 59.969 344.815 59.964 346.503"/><polygon class="cls-16" points="52.003 340.216 58.656 344.057 58.657 344.002 52.004 340.161 52.003 340.216"/><polygon class="cls-13" points="51.999 341.904 58.652 345.745 58.656 344.057 52.003 340.216 51.999 341.904"/><polygon class="cls-13" points="44.028 337.302 50.686 341.146 50.691 339.458 44.033 335.614 44.028 337.302"/><path class="cls-17" d="M49.446,331.618l-4.128-2.383c-.7-.4-1.267-.119-1.269.636l-.007,2.442a2.7,2.7,0,0,0,1.261,2.1l4.128,2.383c.7.4,1.267.118,1.269-.636l.007-2.442A2.7,2.7,0,0,0,49.446,331.618Z"/><polygon class="cls-16" points="44.033 335.614 50.691 339.458 50.691 339.403 44.033 335.559 44.033 335.614"/><g class="cls-9"><path class="cls-12" d="M74.911,336.916,43.338,318.688c-1.356-.783-2.458-.155-2.462,1.408l-.064,22.668A5.388,5.388,0,0,0,43.257,347L74.83,365.229c1.356.782,2.458.154,2.462-1.4l.064-22.668A5.392,5.392,0,0,0,74.911,336.916Zm-24.22,2.542-.005,1.688L44.028,337.3l.005-1.688v-.055l6.658,3.844Zm.009-3.3c0,.754-.57,1.04-1.269.636L45.3,334.41a2.7,2.7,0,0,1-1.261-2.1l.007-2.442c0-.755.57-1.04,1.269-.636l4.128,2.383a2.7,2.7,0,0,1,1.261,2.1Zm7.956,7.9,0,1.688L52,341.9l0-1.688v-.055L58.657,344Zm7.971,4.6,0,1.688L59.964,346.5l.005-1.688v-.055l6.658,3.844ZM74.1,361.172l-6.183-3.57.01-3.268,6.182,3.57Zm.023-8.186,0,1.688-6.182-3.569,0-1.689v-.054l6.182,3.569Z"/><polygon class="cls-13" points="67.916 357.602 74.099 361.172 74.108 357.904 67.926 354.334 67.916 357.602"/></g><path class="cls-13" d="M164.671,276.973a.661.661,0,0,1-.146-.017l-15.418-3.573a.652.652,0,0,1-.46-.4l-2.75-7.1-5.59-4.515a.65.65,0,0,1-.23-.627l1.211-6.327.844-7.863a.649.649,0,0,1,.231-.43l9.2-7.655a.652.652,0,0,1,.3-.139L171.8,234.7a.648.648,0,0,1,.315.021l16.405,5.288a.647.647,0,0,1,.338.252L195.69,250.3a.651.651,0,0,1,.02.7l-5.469,9.056a.649.649,0,0,1-.47.308l-8.325,1.112L173.4,269.6l-.036.033-8.266,7.177A.657.657,0,0,1,164.671,276.973Zm-14.936-4.779,14.761,3.421,8-6.944,8.185-8.265a.642.642,0,0,1,.376-.186l8.235-1.1,5.091-8.432-6.475-9.507-16.037-5.169-19.6,3.564-8.87,7.377-.82,7.628a.524.524,0,0,1-.008.053l-1.142,5.969,5.422,4.379a.652.652,0,0,1,.2.271Zm-7.8-17.683h0Z"/><path class="cls-13" d="M157.5,289.242h-3.051a.65.65,0,0,1-.65-.65v-15.7l-1.486-16.117-11.348,4.693a.65.65,0,1,1-.5-1.2l12.163-5.03a.649.649,0,0,1,.9.541L155.1,272.8a.583.583,0,0,1,0,.059v15.084h2.028L164.11,276a.65.65,0,0,1,1.122.656L158.06,288.92A.65.65,0,0,1,157.5,289.242Z"/><path class="cls-13" d="M164.672,276.973a.683.683,0,0,1-.141-.015.65.65,0,0,1-.494-.775l5.875-26.637a.65.65,0,0,1,.339-.44l17.772-9.054a.65.65,0,0,1,.59,1.158l-17.5,8.915-5.809,26.338A.651.651,0,0,1,164.672,276.973Z"/><path class="cls-13" d="M170.546,250.336c-.023,0-.047,0-.071,0l-27.768-3.064a.65.65,0,0,1,.143-1.292l27.112,2.991,1.3-13.685a.65.65,0,0,1,1.294.123l-1.367,14.342a.651.651,0,0,1-.647.589Z"/><path class="cls-13" d="M146.44,266.137a.649.649,0,0,1-.54-1.01l6.318-9.475L151.334,239a.65.65,0,0,1,.974-.6l18.552,10.712,19.127,10.032a.65.65,0,0,1-.6,1.151l-15.673-8.22,7.9,8.338a.649.649,0,0,1-.361,1.087l-20.557,3.547a.65.65,0,0,1-.594-.206l-7.146-7.954-5.973,8.957A.648.648,0,0,1,146.44,266.137Zm7.575-10.011,6.812,7.583,19.007-3.279-9.471-9.993Zm-1.32-16,.786,14.806,15.51-5.4Z"/><path class="cls-13" d="M154.448,274.128a.642.642,0,0,1-.364-.112.65.65,0,0,1-.174-.9l16.1-23.793a.646.646,0,0,1,.564-.285l24.607.982a.65.65,0,1,1-.052,1.3l-24.245-.967-15.9,23.493A.647.647,0,0,1,154.448,274.128Z"/><path class="cls-13" d="M143.306,244.686a2.122,2.122,0,1,0,2.121,2.121A2.122,2.122,0,0,0,143.306,244.686Z"/><path class="cls-13" d="M143.305,249a2.2,2.2,0,1,1,2.2-2.2A2.2,2.2,0,0,1,143.305,249Zm0-4.242a2.047,2.047,0,1,0,2.047,2.046A2.049,2.049,0,0,0,143.305,244.761Z"/><path class="cls-13" d="M170.817,246.5a3.233,3.233,0,1,0,3.157,3.232A3.195,3.195,0,0,0,170.817,246.5Z"/><path class="cls-13" d="M170.817,253.035a3.308,3.308,0,1,1,3.233-3.308A3.274,3.274,0,0,1,170.817,253.035Zm0-6.464a3.157,3.157,0,1,0,3.082,3.156A3.123,3.123,0,0,0,170.817,246.571Z"/><path class="cls-13" d="M152.862,253.346a2.727,2.727,0,1,0,2.727,2.727A2.727,2.727,0,0,0,152.862,253.346Z"/><path class="cls-13" d="M152.862,258.875a2.8,2.8,0,1,1,2.8-2.8A2.805,2.805,0,0,1,152.862,258.875Zm0-5.454a2.652,2.652,0,1,0,2.652,2.652A2.655,2.655,0,0,0,152.862,253.421Z"/><path class="cls-13" d="M51.642,157.321a3,3,0,0,0-3-3H25.352a3,3,0,0,0-3,3v15.652a3,3,0,0,0,3,3h23.29a3,3,0,0,0,3-3Zm-3,17.167H25.352a1.516,1.516,0,0,1-1.514-1.515v-4.326H33.1l2.09,2.091a1.257,1.257,0,1,0,.788-.788l-2.416-2.417H23.838v-1.658H39.581a1.257,1.257,0,1,0,0-1.114H23.838v-1.438H29.15l3.969-2.992a1.257,1.257,0,1,0-.671-.89l-3.671,2.768H23.838v-4.888a1.515,1.515,0,0,1,1.514-1.514h23.29a1.515,1.515,0,0,1,1.514,1.514v5.5h-2.75a.468.468,0,0,0-.429.5v3.644a.469.469,0,0,0,.429.5h2.75v5.5A1.516,1.516,0,0,1,48.642,174.488Z"/><polygon class="cls-4" points="332.539 128.365 332.539 157.414 357.695 171.938 382.852 157.414 382.852 128.365 357.695 113.841 332.539 128.365"/><path class="cls-8" d="M357.7,173.76,330.96,158.325V127.454L357.7,112.019l26.735,15.435v30.871Zm-24.141-16.933L357.7,170.765l24.141-13.938V128.952L357.7,115.014l-24.141,13.938Z"/><path class="cls-4" d="M524.421,98.058l.008,0-1.365-.794a3.23,3.23,0,0,0-3.256.319l-45.839,26.465a10.048,10.048,0,0,0-4.56,7.9l.324,124.525a3.2,3.2,0,0,0,1.335,2.935l1.366.794c-.024-.014-.047-.03-.07-.045a3.177,3.177,0,0,0,3.326-.274l45.838-26.465a10.049,10.049,0,0,0,4.561-7.9L525.764,101A3.2,3.2,0,0,0,524.421,98.058Z"/><g class="cls-9"><polygon class="cls-4" points="474.696 139.581 474.975 247.693 524.136 219.31 523.858 111.197 474.696 139.581"/><polygon class="cls-12" points="474.696 139.581 474.806 144.562 523.967 116.178 523.858 111.197 474.696 139.581"/><path class="cls-18" d="M521.671,100.356l-44.855,25.9a9.835,9.835,0,0,0-4.463,7.73l.318,122.765c.008,2.841,2.019,3.987,4.492,2.559l44.855-25.9a9.836,9.836,0,0,0,4.463-7.729l-.318-122.765C526.155,100.074,524.143,98.929,521.671,100.356Zm-46.7,147.338L474.7,139.581,523.858,111.2l.278,108.113Z"/></g><rect class="cls-8" x="281.553" y="171.125" width="55.136" height="1.671" transform="translate(-44.202 188.962) rotate(-31.842)"/><path class="cls-8" d="M513.242,357.305a.838.838,0,1,1,.835-.845v.01A.835.835,0,0,1,513.242,357.305Z"/><path class="cls-8" d="M513.242,385.819a.84.84,0,1,1,.835-.853v.018A.835.835,0,0,1,513.242,385.819Zm0-3.564a.84.84,0,1,1,.835-.853v.017A.835.835,0,0,1,513.242,382.255Zm0-3.564a.84.84,0,1,1,.835-.854v.018A.835.835,0,0,1,513.242,378.691Zm0-3.564a.841.841,0,1,1,.835-.854v.018A.836.836,0,0,1,513.242,375.127Zm0-3.565a.84.84,0,1,1,.835-.853v.018A.835.835,0,0,1,513.242,371.562Zm0-3.564a.84.84,0,1,1,.835-.853v.017A.835.835,0,0,1,513.242,368Zm0-3.564a.84.84,0,1,1,.835-.854v.018A.835.835,0,0,1,513.242,364.434Zm0-3.564a.841.841,0,1,1,.835-.854v.018A.836.836,0,0,1,513.242,360.87Z"/><path class="cls-8" d="M513.242,389.375a.838.838,0,1,1,.835-.845v.009A.835.835,0,0,1,513.242,389.375Z"/><path class="cls-8" d="M513.339,387.01a2.182,2.182,0,1,0,2.181,2.181A2.181,2.181,0,0,0,513.339,387.01Z"/><rect class="cls-8" x="512.971" y="237.881" width="0.928" height="59.382"/><path class="cls-8" d="M279.811,356.846a.838.838,0,1,1,.836-.845v.009A.836.836,0,0,1,279.811,356.846Z"/><path class="cls-8" d="M279.811,383.128a.835.835,0,0,1-.835-.836v-.018a.836.836,0,1,1,1.671,0v.018A.836.836,0,0,1,279.811,383.128Zm0-3.755a.835.835,0,0,1-.835-.835v-.019a.836.836,0,1,1,1.671,0v.019A.835.835,0,0,1,279.811,379.373Zm0-3.754a.835.835,0,0,1-.835-.836v-.018a.836.836,0,1,1,1.671,0v.018A.836.836,0,0,1,279.811,375.619Zm0-3.755a.835.835,0,0,1-.835-.835v-.019a.836.836,0,1,1,1.671,0v.019A.835.835,0,0,1,279.811,371.864Zm0-3.754a.835.835,0,0,1-.835-.836v-.019a.836.836,0,0,1,1.671,0v.019A.836.836,0,0,1,279.811,368.11Zm0-3.755a.835.835,0,0,1-.835-.835V363.5a.836.836,0,1,1,1.671,0v.019A.835.835,0,0,1,279.811,364.355Zm0-3.754a.836.836,0,0,1-.835-.836v-.019a.836.836,0,0,1,1.671,0v.019A.836.836,0,0,1,279.811,360.6Z"/><path class="cls-8" d="M279.811,386.873a.838.838,0,1,1,.836-.845v.009A.836.836,0,0,1,279.811,386.873Z"/><path class="cls-8" d="M279.908,384.508a2.182,2.182,0,1,0,2.182,2.181A2.181,2.181,0,0,0,279.908,384.508Z"/><path class="cls-8" d="M382.625,128.949l41.352-25.024-.572-.945-41.471,25.094A11.1,11.1,0,0,1,382.625,128.949Z"/><path class="cls-8" d="M423.045,101.521a2.182,2.182,0,1,0,2.182,2.182A2.182,2.182,0,0,0,423.045,101.521Z"/><polygon class="cls-7" points="255.945 181.742 256.027 210.916 265.843 216.62 265.761 187.446 255.945 181.742"/><polygon class="cls-7" points="255.945 181.742 265.761 187.446 294.364 170.932 284.548 165.228 255.945 181.742"/><polygon class="cls-7" points="265.761 187.446 265.843 216.62 294.447 200.106 294.364 170.932 265.761 187.446"/><path class="cls-4" d="M280.093,184.935a7.341,7.341,0,0,0-3.332,5.769c0,1.389.648,2.235,1.61,2.356l-1.09,10.015,5.717-3.3-1.143-8.727a7.212,7.212,0,0,0,1.591-4.2C283.44,184.725,281.939,183.869,280.093,184.935Z"/><path class="cls-13" d="M285.683,155.2a5.476,5.476,0,0,0-2.235-2.5c.016.009.032.016.047.025l-2.094-1.217a5.066,5.066,0,0,0-1.569-.588,8.429,8.429,0,0,0-5.775,1.3,17.771,17.771,0,0,0-4.014,3.253,24.709,24.709,0,0,0-4.529,6.921,19.378,19.378,0,0,0-1.748,7.649l.033,11.627c0,.373.364,1.014,2.208,1.014,2.167,0,2.258-1.166,2.258-1.166l-.033-11.627a13.5,13.5,0,0,1,.616-3.913,19,19,0,0,1,2.874-5.691,15.059,15.059,0,0,1,4.437-4.127,7.649,7.649,0,0,1,3.093-1.065,4.7,4.7,0,0,1,1.419.079,6.388,6.388,0,0,1,1.373,4.317l.033,11.626c0,.374.521,1.229,2.407,1.184,1.484-.036,2.06-.584,2.058-1.336l-.033-11.627A9.767,9.767,0,0,0,285.683,155.2Z"/><path class="cls-8" d="M202.011,241a.836.836,0,0,1-.443-1.545l57.911-36.15a.836.836,0,1,1,.885,1.418l-57.911,36.15A.833.833,0,0,1,202.011,241Z"/><path class="cls-13" d="M357.7,160.738l-.366-.207c-.262-.149-6.449-3.663-8.4-5.564a15.739,15.739,0,0,1-4.453-10.4l-.5-14.743.722-.043a22.151,22.151,0,0,0,12.511-4.443l.493-.435.493.436a22.148,22.148,0,0,0,12.509,4.442l.723.043-.5,14.743a15.728,15.728,0,0,1-4.453,10.4c-1.953,1.9-8.14,5.415-8.4,5.564ZM345.5,131.211l.455,13.341a14.474,14.474,0,0,0,4,9.35c1.559,1.518,6.365,4.337,7.732,5.126,1.368-.789,6.173-3.608,7.733-5.126a14.486,14.486,0,0,0,4-9.351v-.024l.455-13.316a23.869,23.869,0,0,1-12.192-4.364A23.86,23.86,0,0,1,345.5,131.211Z"/><path class="cls-13" d="M357.7,142.136a3.834,3.834,0,1,1,3.834-3.833A3.837,3.837,0,0,1,357.7,142.136Zm0-6.181a2.348,2.348,0,1,0,2.348,2.348A2.35,2.35,0,0,0,357.7,135.955Z"/><path class="cls-13" d="M357.7,151.31a.743.743,0,0,1-.743-.743v-9.174a.743.743,0,0,1,1.486,0v9.174A.743.743,0,0,1,357.7,151.31Z"/><path class="cls-13" d="M359.507,149.194H357.7a.743.743,0,1,1,0-1.486h1.812a.743.743,0,1,1,0,1.486Z"/><g class="cls-5"><polygon class="cls-13" points="40.477 307.578 60.905 319.372 60.939 307.555 40.51 295.761 40.477 307.578"/></g><path class="cls-19" d="M508.567,252.187a5.158,5.158,0,0,0-2.341,4.055c0,1.49,1.057,2.093,2.357,1.343a5.164,5.164,0,0,0,2.341-4.055C510.92,252.039,509.864,251.438,508.567,252.187Z"/><path class="cls-20" d="M508.593,261.456a5.158,5.158,0,0,0-2.341,4.055c0,1.49,1.057,2.093,2.357,1.343a5.162,5.162,0,0,0,2.341-4.055C510.946,261.308,509.89,260.707,508.593,261.456Z"/><path class="cls-12" d="M508.62,270.725a5.153,5.153,0,0,0-2.341,4.055c0,1.491,1.057,2.093,2.356,1.343a5.159,5.159,0,0,0,2.341-4.055C510.972,270.577,509.917,269.976,508.62,270.725Z"/><polygon class="cls-13" points="16.077 275.087 60.657 300.825 60.723 265.135 16.144 239.397 16.077 275.087"/><polygon class="cls-4" points="21.413 267.139 21.558 274.347 23.977 275.744 23.831 268.535 21.413 267.139"/><polygon class="cls-12" points="26.678 256.445 26.785 277.365 29.204 278.762 29.098 257.842 26.678 256.445"/><polygon class="cls-12" points="31.889 265.378 32.013 280.383 34.431 281.78 34.308 266.774 31.889 265.378"/><polygon class="cls-4" points="37.24 283.401 39.658 284.797 39.684 275.692 37.266 274.296 37.24 283.401"/><polygon class="cls-4" points="42.332 275.32 42.467 286.419 44.885 287.815 44.75 276.716 42.332 275.32"/><polygon class="cls-12" points="47.548 282.161 47.693 289.436 50.113 290.833 49.967 283.558 47.548 282.161"/><polygon class="cls-12" points="52.822 268.657 52.921 292.455 55.339 293.851 55.241 270.053 52.822 268.657"/><polygon class="cls-13" points="16.307 293.402 36.736 305.196 36.769 293.377 16.341 281.583 16.307 293.402"/><ellipse class="cls-14" cx="34.638" cy="327.64" rx="1.918" ry="3.311" transform="translate(-161.861 63.186) rotate(-30.579)"/><ellipse class="cls-15" cx="26.538" cy="323.132" rx="1.918" ry="3.311" transform="translate(-160.695 58.439) rotate(-30.579)"/><path class="cls-13" d="M18.4,315.913c-1.3-.725-2.343-.1-2.324,1.4a5.164,5.164,0,0,0,2.394,4.024c1.3.725,2.343.1,2.323-1.4A5.156,5.156,0,0,0,18.4,315.913Z"/><g class="cls-5"><polygon class="cls-13" points="403.14 333.944 434.839 351.511 434.941 315.498 403.242 297.931 403.14 333.944"/></g><polygon class="cls-7" points="410.501 317.762 423.99 325.55 417.267 313.905 410.501 317.762"/><polygon class="cls-13" points="423.538 338.129 430.304 334.272 416.815 326.484 423.538 338.129"/><polygon class="cls-12" points="307.704 214.042 373.945 252.286 373.958 247.911 307.717 209.667 307.704 214.042"/><g class="cls-5"><polygon class="cls-13" points="307.542 278.244 373.783 316.489 373.945 252.286 307.704 214.042 307.542 278.244"/></g><polygon class="cls-12" points="316.251 256.101 318.086 257.16 318.112 248.279 316.276 247.219 316.251 256.101"/><polygon class="cls-12" points="319.626 253.809 321.464 254.87 321.5 241.939 319.663 240.878 319.626 253.809"/><polygon class="cls-7" points="322.971 262.762 324.807 263.822 324.844 250.827 323.008 249.767 322.971 262.762"/><polygon class="cls-7" points="326.327 267.346 328.164 268.407 328.198 256.579 326.36 255.518 326.327 267.346"/><polygon class="cls-7" points="329.696 267.215 331.534 268.276 331.548 263.303 329.71 262.242 329.696 267.215"/><polygon class="cls-12" points="333.067 267.206 334.904 268.267 334.931 258.781 333.093 257.72 333.067 267.206"/><polygon class="cls-12" points="336.439 265.967 338.276 267.028 338.322 250.745 336.485 249.684 336.439 265.967"/><polygon class="cls-12" points="339.797 270.183 341.635 271.244 341.709 244.977 339.872 243.916 339.797 270.183"/><polygon class="cls-7" points="343.166 270.046 345.004 271.107 345.059 251.803 343.221 250.742 343.166 270.046"/><polygon class="cls-12" points="346.541 268.696 348.378 269.757 348.405 260.428 346.567 259.368 346.541 268.696"/><polygon class="cls-7" points="349.911 268.253 351.748 269.314 351.763 264.277 349.925 263.216 349.911 268.253"/><polygon class="cls-7" points="353.27 272.096 355.106 273.156 355.12 268.307 353.284 267.247 353.27 272.096"/><polygon class="cls-12" points="363.325 291.11 365.162 292.171 365.249 261.592 363.411 260.531 363.325 291.11"/><polygon class="cls-12" points="359.97 286.045 361.806 287.105 361.851 271.147 360.015 270.087 359.97 286.045"/><polygon class="cls-7" points="356.622 278.168 358.46 279.229 358.481 271.587 356.644 270.526 356.622 278.168"/><polygon class="cls-13" points="312.225 265.705 339.601 281.238 339.606 279.794 312.231 264.26 312.225 265.705"/><polygon class="cls-13" points="312.225 269.355 339.601 284.889 339.606 283.444 312.231 267.911 312.225 269.355"/><polygon class="cls-13" points="317.939 276.164 339.601 288.54 339.606 287.095 317.945 274.72 317.939 276.164"/><g class="cls-5"><polygon class="cls-13" points="343.933 337.611 399.575 369.736 399.711 321.564 344.069 289.439 343.933 337.611"/></g><polygon class="cls-7" points="343.933 292.596 399.575 324.721 399.711 321.564 344.069 289.439 343.933 292.596"/><g class="cls-5"><polygon class="cls-13" points="370.305 285.174 393.606 298.087 393.606 271.615 370.305 258.702 370.305 285.174"/></g><polygon class="cls-13" points="376.697 282.408 387.175 288.458 387.191 282.858 376.712 276.808 376.697 282.408"/><polygon class="cls-13" points="376.721 273.93 387.199 279.979 387.215 274.381 376.736 268.332 376.721 273.93"/><polygon class="cls-13" points="349.28 332.477 394.364 358.318 394.364 356.873 349.28 331.033 349.28 332.477"/><polygon class="cls-13" points="349.28 335.639 394.364 361.48 394.364 360.035 349.28 334.195 349.28 335.639"/><g class="cls-3"><polygon class="cls-12" points="441.491 153.272 431.074 159.286 431.108 171.256 434.432 169.113 434.405 160.844 441.497 156.973 441.491 153.272"/><g class="cls-9"><polygon class="cls-12" points="461.205 167.928 461.233 176.197 453.993 180.601 454 184.301 464.416 178.287 464.382 166.318 461.205 167.928"/></g><path class="cls-12" d="M447.671,162.82c-6.259,3.613-11.2,12.192-11.406,12.556l-.587,1.029.591.35c.209.123,5.181,2.979,11.44-.635s11.2-12.191,11.4-12.555l.587-1.03-.591-.349C458.9,162.063,453.929,159.207,447.671,162.82Zm-2.908,12.553a10.591,10.591,0,0,1-6.616-.394,40.46,40.46,0,0,1,6.6-8.025A9.825,9.825,0,0,0,443,172.18c0,1.7.695,2.823,1.768,3.193a11.325,11.325,0,0,0,1.256-.411A11.325,11.325,0,0,1,444.763,175.373Zm5.876-3.392-.106.095-.137.122.137-.122.106-.095a9.828,9.828,0,0,0,1.744-5.222c0-1.7-.694-2.821-1.768-3.192a10.572,10.572,0,0,1,6.615.394A40.626,40.626,0,0,1,450.639,171.981Z"/></g><path class="cls-13" d="M551.711,110.983l-37.122,21.432a6.247,6.247,0,0,0-2.833,4.907l.067,23.754,6.082-7.139,33.872-19.556a6.247,6.247,0,0,0,2.833-4.907l-.048-16.866C554.557,110.805,553.28,110.077,551.711,110.983Z"/><path class="cls-12" d="M519.067,140.451a1.338,1.338,0,0,0-.609,1.057l.009,3.442c0,.387.275.545.614.349a1.347,1.347,0,0,0,.61-1.056l-.01-3.442C519.68,140.412,519.4,140.257,519.067,140.451Z"/><path class="cls-12" d="M533.173,131.459a1.343,1.343,0,0,0-.608,1.055l.015,5.136c0,.387.275.543.612.349a1.341,1.341,0,0,0,.61-1.054l-.015-5.137C533.786,131.421,533.512,131.263,533.173,131.459Z"/><path class="cls-12" d="M521.881,136.05a1.345,1.345,0,0,0-.61,1.057l.026,8.985c0,.39.277.545.614.35a1.346,1.346,0,0,0,.61-1.056L522.5,136.4C522.494,136.011,522.218,135.856,521.881,136.05Z"/><path class="cls-12" d="M530.346,131.163a1.34,1.34,0,0,0-.608,1.055l.026,8.986c0,.389.275.545.612.351a1.338,1.338,0,0,0,.609-1.056l-.025-8.986C530.959,131.123,530.685,130.967,530.346,131.163Z"/><path class="cls-12" d="M524.7,132.1a1.347,1.347,0,0,0-.61,1.056l.039,13.635c0,.387.277.544.614.349a1.347,1.347,0,0,0,.61-1.056l-.039-13.634C525.309,132.06,525.033,131.9,524.7,132.1Z"/><path class="cls-12" d="M527.518,130.468a1.347,1.347,0,0,0-.61,1.056l.039,13.634c0,.387.277.545.613.35a1.34,1.34,0,0,0,.61-1.056l-.038-13.634C528.131,130.431,527.857,130.272,527.518,130.468Z"/><path class="cls-12" d="M536,129.828a1.346,1.346,0,0,0-.61,1.057l.015,5.136c0,.387.275.543.614.347a1.339,1.339,0,0,0,.607-1.052l-.014-5.137C536.608,129.792,536.334,129.634,536,129.828Z"/><path class="cls-7" d="M538.816,127.339a1.346,1.346,0,0,0-.61,1.057l.02,6.856c0,.387.275.543.614.347a1.346,1.346,0,0,0,.61-1.054l-.02-6.856C539.429,127.3,539.153,127.145,538.816,127.339Z"/><path class="cls-12" d="M547.287,124.473a1.343,1.343,0,0,0-.61,1.054l.008,2.817c0,.39.277.544.614.35a1.341,1.341,0,0,0,.61-1.056l-.008-2.818C547.9,124.433,547.626,124.277,547.287,124.473Z"/><path class="cls-7" d="M541.632,123.8a1.347,1.347,0,0,0-.609,1.057l.03,10.67c0,.387.277.544.614.35a1.353,1.353,0,0,0,.61-1.057l-.031-10.67C542.245,123.764,541.969,123.609,541.632,123.8Z"/><path class="cls-7" d="M544.461,124.693a1.345,1.345,0,0,0-.61,1.054l.016,5.635c0,.389.277.544.614.35a1.345,1.345,0,0,0,.61-1.057l-.016-5.634C545.074,124.654,544.8,124.5,544.461,124.693Z"/><path class="cls-12" d="M565.293,141.7a8.884,8.884,0,0,0-.283-1.894l2.065-3.079c-.118-.223-.264-.468-.385-.708a1.3,1.3,0,0,0-.41-.677l-2.625,2.355a2.072,2.072,0,0,0-1.282-.749l.781-3.4a4.654,4.654,0,0,0-1.669.025l-1.67,3.383a5.835,5.835,0,0,0-1.741.648l-.872-2.36a17.439,17.439,0,0,0-1.824,1.386l-.1,3.124c-.315.322-.616.644-.846.874-.248.308-.551.707-.779.964l-2.23-.379a24.61,24.61,0,0,0-1.255,2.222l1.472,1.715a13.045,13.045,0,0,0-.79,2.263l-2.691,1.672a11.847,11.847,0,0,0-.254,2.244l2.511-.428a6.182,6.182,0,0,0,.2,1.983l-2.067,3.065a5.828,5.828,0,0,0,.438.717,1.971,1.971,0,0,1,.378.684l2.6-2.362a3.991,3.991,0,0,0,1.283.742l-.78,3.4a4.844,4.844,0,0,0,1.666-.02l1.677-3.366a10.517,10.517,0,0,0,1.736-.668l1,2.24c.059-.028.118-.06.18-.1A11.308,11.308,0,0,0,560.3,156l.1-3.123c.325-.314.574-.551.8-.818.3-.373.578-.729.772-.975l2.229.379a15.777,15.777,0,0,0,1.286-2.227l-1.5-1.674a16.911,16.911,0,0,0,.794-2.251l2.685-1.7a7.259,7.259,0,0,0,.254-2.241Zm-5.348,8.188a8.335,8.335,0,0,1-2.1,1.793c-1.708.986-3.359.858-4.155-.556-1.141-1.987-.226-5.7,2.054-8.393a8.276,8.276,0,0,1,2.069-1.759c1.706-.985,3.354-.852,4.205.519C563.169,143.469,562.226,147.2,559.945,149.891Z"/><path class="cls-12" d="M577.038,153.645a8.9,8.9,0,0,0-.283-1.894l2.065-3.078c-.118-.223-.264-.468-.386-.708a1.286,1.286,0,0,0-.41-.677l-2.624,2.355a2.072,2.072,0,0,0-1.283-.749l.782-3.4a4.659,4.659,0,0,0-1.67.024L571.56,148.9a5.815,5.815,0,0,0-1.741.648l-.872-2.36a17.561,17.561,0,0,0-1.825,1.386l-.1,3.123c-.315.323-.616.644-.846.875-.248.308-.551.707-.779.964l-2.23-.379a24.61,24.61,0,0,0-1.255,2.222l1.472,1.715a13.156,13.156,0,0,0-.791,2.262l-2.69,1.673a11.765,11.765,0,0,0-.254,2.243l2.51-.427a6.21,6.21,0,0,0,.2,1.983l-2.067,3.064a5.694,5.694,0,0,0,.439.717,1.99,1.99,0,0,1,.377.685l2.6-2.362a3.959,3.959,0,0,0,1.283.741l-.78,3.4a4.844,4.844,0,0,0,1.666-.02l1.677-3.366a10.506,10.506,0,0,0,1.735-.668l1,2.24q.087-.042.18-.1a11.361,11.361,0,0,0,1.565-1.216l.1-3.123a11.08,11.08,0,0,0,.8-.819c.3-.372.577-.728.771-.975l2.23.38a15.974,15.974,0,0,0,1.286-2.227l-1.5-1.674a16.961,16.961,0,0,0,.794-2.251l2.685-1.7a7.259,7.259,0,0,0,.254-2.241Zm-5.349,8.189a8.305,8.305,0,0,1-2.1,1.792c-1.708.986-3.359.859-4.156-.555-1.14-1.987-.225-5.706,2.054-8.393a8.294,8.294,0,0,1,2.069-1.759c1.706-.985,3.355-.852,4.206.519C574.914,155.412,573.971,159.145,571.689,161.834Z"/><path class="cls-13" d="M523.044,339.289H503.633a2.06,2.06,0,0,1-2.057-2.057V317.821a2.06,2.06,0,0,1,2.057-2.057h19.411a2.06,2.06,0,0,1,2.058,2.057v19.411A2.06,2.06,0,0,1,523.044,339.289Zm-19.411-22.225a.758.758,0,0,0-.757.757v19.411a.759.759,0,0,0,.757.758h19.411a.759.759,0,0,0,.758-.758V317.821a.758.758,0,0,0-.758-.757Z"/><path class="cls-13" d="M506.776,317.064a.651.651,0,0,1-.65-.65v-3.186a.65.65,0,0,1,1.3,0v3.186A.65.65,0,0,1,506.776,317.064Z"/><path class="cls-13" d="M510.058,317.064a.65.65,0,0,1-.65-.65v-3.186a.65.65,0,0,1,1.3,0v3.186A.651.651,0,0,1,510.058,317.064Z"/><path class="cls-13" d="M513.339,317.064a.65.65,0,0,1-.65-.65v-3.186a.65.65,0,0,1,1.3,0v3.186A.65.65,0,0,1,513.339,317.064Z"/><path class="cls-13" d="M516.62,317.064a.65.65,0,0,1-.65-.65v-3.186a.65.65,0,0,1,1.3,0v3.186A.65.65,0,0,1,516.62,317.064Z"/><path class="cls-13" d="M519.9,317.064a.65.65,0,0,1-.65-.65v-3.186a.65.65,0,1,1,1.3,0v3.186A.65.65,0,0,1,519.9,317.064Z"/><path class="cls-13" d="M506.776,342.475a.651.651,0,0,1-.65-.65v-3.186a.65.65,0,0,1,1.3,0v3.186A.65.65,0,0,1,506.776,342.475Z"/><path class="cls-13" d="M510.058,342.475a.65.65,0,0,1-.65-.65v-3.186a.65.65,0,0,1,1.3,0v3.186A.651.651,0,0,1,510.058,342.475Z"/><path class="cls-13" d="M513.339,342.475a.65.65,0,0,1-.65-.65v-3.186a.65.65,0,0,1,1.3,0v3.186A.65.65,0,0,1,513.339,342.475Z"/><path class="cls-13" d="M516.62,342.475a.65.65,0,0,1-.65-.65v-3.186a.65.65,0,0,1,1.3,0v3.186A.65.65,0,0,1,516.62,342.475Z"/><path class="cls-13" d="M519.9,342.475a.65.65,0,0,1-.65-.65v-3.186a.65.65,0,0,1,1.3,0v3.186A.65.65,0,0,1,519.9,342.475Z"/><path class="cls-13" d="M527.638,321.614h-3.186a.65.65,0,0,1,0-1.3h3.186a.65.65,0,0,1,0,1.3Z"/><path class="cls-13" d="M527.638,324.9h-3.186a.65.65,0,1,1,0-1.3h3.186a.65.65,0,0,1,0,1.3Z"/><path class="cls-13" d="M527.638,328.177h-3.186a.65.65,0,0,1,0-1.3h3.186a.65.65,0,0,1,0,1.3Z"/><path class="cls-13" d="M527.638,331.458h-3.186a.65.65,0,0,1,0-1.3h3.186a.65.65,0,0,1,0,1.3Z"/><path class="cls-13" d="M527.638,334.739h-3.186a.65.65,0,0,1,0-1.3h3.186a.65.65,0,0,1,0,1.3Z"/><path class="cls-13" d="M502.226,321.614H499.04a.65.65,0,1,1,0-1.3h3.186a.65.65,0,0,1,0,1.3Z"/><path class="cls-13" d="M502.226,324.9H499.04a.65.65,0,1,1,0-1.3h3.186a.65.65,0,0,1,0,1.3Z"/><path class="cls-13" d="M502.226,328.177H499.04a.65.65,0,0,1,0-1.3h3.186a.65.65,0,0,1,0,1.3Z"/><path class="cls-13" d="M502.226,331.458H499.04a.65.65,0,0,1,0-1.3h3.186a.65.65,0,0,1,0,1.3Z"/><path class="cls-13" d="M502.226,334.739H499.04a.65.65,0,1,1,0-1.3h3.186a.65.65,0,0,1,0,1.3Z"/><path class="cls-4" d="M146.475,99.449a5.952,5.952,0,0,0-.787.382Z"/><path class="cls-12" d="M186.777,132.1c.019-6.828-4.785-15.149-10.735-18.585a8.505,8.505,0,0,0-6.326-1.276c-2.17-5.589-6.228-10.851-10.891-13.543-3.508-2.025-6.684-2.214-8.977-.881l-3.373,1.639c2.208-.886,5.068-.54,8.191,1.263,4.663,2.692,8.721,7.953,10.89,13.543a8.5,8.5,0,0,1,6.326,1.276c5.951,3.435,10.755,11.756,10.735,18.584,5.476,4.526,9.6,12.471,9.578,19.137-.011,3.764-1.342,6.413-3.487,7.66l4.159-2.021c2.146-1.247,3.476-3.9,3.487-7.66C196.373,144.565,192.252,136.62,186.777,132.1Z"/><path class="cls-17" d="M182.617,134.115c.02-6.828-4.784-15.149-10.735-18.584a8.5,8.5,0,0,0-6.326-1.276c-2.169-5.59-6.227-10.851-10.89-13.543-6.971-4.024-12.633-.8-12.656,7.212a19.3,19.3,0,0,0,.235,2.964c-5.6-2.095-9.878,1.046-9.9,7.811-.022,7.577,5.306,16.815,11.908,20.626l35.952,20.757c6.594,3.807,11.965.746,11.987-6.83C192.214,146.586,188.093,138.641,182.617,134.115Z"/><path class="cls-19" d="M400.928,172.913c-1.3-.724-2.343-.1-2.324,1.4A5.166,5.166,0,0,0,401,178.338c1.3.724,2.343.1,2.323-1.4A5.157,5.157,0,0,0,400.928,172.913Z"/><path class="cls-20" d="M392.828,168.406c-1.3-.725-2.342-.1-2.323,1.4a5.159,5.159,0,0,0,2.394,4.024c1.3.725,2.342.1,2.323-1.4A5.154,5.154,0,0,0,392.828,168.406Z"/><path class="cls-12" d="M384.729,163.9c-1.3-.725-2.343-.1-2.323,1.4a5.161,5.161,0,0,0,2.393,4.025c1.3.724,2.343.1,2.324-1.4A5.158,5.158,0,0,0,384.729,163.9Z"/><polygon class="cls-8" points="332.228 244.066 323.188 229.229 297.749 244.251 297.749 247.299 322.293 232.805 331.247 247.499 381.889 221.977 380.708 219.633 332.228 244.066"/><g class="cls-9"><path class="cls-13" d="M392.773,336.524l0-.035Z"/><path class="cls-13" d="M391.767,332.094l.051.143Z"/><path class="cls-4" d="M390.231,328.755l.021.038Z"/><path class="cls-4" d="M390.252,328.793q.114.2.225.411Q390.366,329,390.252,328.793Z"/><path class="cls-4" d="M389.959,328.286q.138.232.272.469Q390.1,328.518,389.959,328.286Z"/><path class="cls-4" d="M389.684,327.837c.088.141.176.283.261.426C389.86,328.12,389.772,327.978,389.684,327.837Z"/><path class="cls-4" d="M389.664,327.8h0l.021.033Z"/><path class="cls-4" d="M383.543,321.621l-.031,11.02,6.151-4.837A18.552,18.552,0,0,0,383.543,321.621Z"/><path class="cls-4" d="M390.477,329.2l.056.106Z"/><path class="cls-4" d="M389.945,328.263l.014.023Z"/><path class="cls-4" d="M390.772,329.775c.078.155.153.311.227.467C390.925,330.086,390.85,329.93,390.772,329.775Z"/><path class="cls-4" d="M391.264,330.832c.05.114.1.23.147.345Q391.339,331,391.264,330.832Z"/><path class="cls-4" d="M391.411,331.177l.055.132Z"/><path class="cls-4" d="M391.466,331.309c.063.155.124.309.183.465C391.59,331.618,391.529,331.464,391.466,331.309Z"/><path class="cls-4" d="M391.207,330.7l.057.132Z"/><path class="cls-4" d="M390.533,329.31c.066.125.131.25.194.376C390.664,329.56,390.6,329.435,390.533,329.31Z"/><path class="cls-4" d="M390.727,329.686l.045.089Z"/><path class="cls-4" d="M391,330.242l.017.037Z"/><path class="cls-4" d="M391.016,330.279q.1.21.191.421Q391.114,330.489,391.016,330.279Z"/><path class="cls-12" d="M392.8,336.856c0-.025,0-.049-.079-.867-.008-.065-.016-.13-.026-.2,0-.018,0-.036-.079-.516l-.012-.069-.012-.068c-.012-.07-.025-.14-.038-.211,0-.018-.007-.036-.03-.15l-.015-.074-.015-.074-.049-.225-.016-.07-.016-.07c-.021-.091-.043-.182-.068-.281,0-.02-.01-.039-.2-.724l-.025-.085-.026-.088-.049-.159-.024-.075L392,332.77l-.024-.076-.025-.076-.025-.075a22.162,22.162,0,0,0-2.259-4.739l-6.152,4.837-.03,10.372c5.142,2.969,9.323.587,9.34-5.321,0-.024,0-.048-.02-.764Z"/></g><path class="cls-13" d="M392.822,337.594v0Z"/><path class="cls-13" d="M392.526,334.794l0-.022Z"/><path class="cls-13" d="M392.51,334.719l0-.021Z"/><path class="cls-13" d="M392.046,332.922l-.017-.054Z"/><path class="cls-13" d="M391.866,332.373l.011.033Z"/><path class="cls-7" d="M374.205,326.944c-.017,5.907,4.136,13.1,9.277,16.069l.03-10.372.031-11.02C378.4,318.652,374.221,321.036,374.205,326.944Z"/><path class="cls-13" d="M363.045,311.084c-.05-.059-.1-.117-.151-.175C362.944,310.967,363,311.025,363.045,311.084Z"/><path class="cls-13" d="M363.072,311.115l-.027-.031Z"/><path class="cls-13" d="M363.22,311.291l-.148-.176Z"/><path class="cls-13" d="M364.049,312.35l-.013-.017Z"/><path class="cls-13" d="M364.178,312.529l-.129-.179Z"/><path class="cls-13" d="M364.332,312.746c-.038-.056-.077-.111-.116-.165C364.255,312.635,364.294,312.691,364.332,312.746Z"/><path class="cls-13" d="M364.38,312.814l-.048-.068Z"/><path class="cls-13" d="M364.541,313.049l-.051-.076Z"/><path class="cls-13" d="M364.646,313.205l-.105-.156Z"/><path class="cls-13" d="M364.8,313.442c-.033-.052-.068-.1-.1-.156C364.733,313.338,364.768,313.39,364.8,313.442Z"/><path class="cls-13" d="M364.845,313.51l-.044-.068Z"/><path class="cls-13" d="M359.506,307.891l-.216-.141Z"/><path class="cls-13" d="M359.72,308.037l-.13-.088Z"/><path class="cls-13" d="M359.82,308.107l-.1-.07Z"/><path class="cls-13" d="M360.039,308.265l-.107-.078Z"/><path class="cls-13" d="M360.143,308.341l-.1-.076Z"/><path class="cls-13" d="M360.467,308.589l-.117-.091Z"/><path class="cls-13" d="M360.548,308.653l-.081-.064Z"/><path class="cls-13" d="M361.221,309.221q-.252-.225-.509-.435Q360.968,309,361.221,309.221Z"/><path class="cls-13" d="M361.262,309.257l-.041-.036Z"/><path class="cls-13" d="M361.411,309.391l-.149-.134Z"/><path class="cls-13" d="M361.459,309.435l-.048-.044Z"/><path class="cls-13" d="M361.605,309.572l-.146-.137Z"/><path class="cls-13" d="M361.652,309.616l-.047-.044Z"/><path class="cls-13" d="M361.8,309.758l-.149-.142Z"/><g class="cls-9"><path class="cls-12" d="M358.777,307.439c-5.185-2.994-9.4-.591-9.418,5.367s4.172,13.215,9.357,16.209a8.161,8.161,0,0,0,3.135,1.193,7.743,7.743,0,0,0,3.674-.621L358.748,317.9Z"/><path class="cls-13" d="M362.009,309.963l-.014-.014Z"/><path class="cls-13" d="M362.894,310.909l-.02-.022Z"/><path class="cls-7" d="M359.269,307.737l-.056-.035-.058-.037-.032-.02-.028-.017-.028-.017-.032-.02-.025-.015-.033-.019-.026-.016-.057-.034-.059-.035-.058-.033-.029,10.461,6.2-4.225A19.2,19.2,0,0,0,359.269,307.737Z"/><path class="cls-4" d="M358.748,317.9l3.1,12.308c3.648.621,6.27-1.866,6.283-6.562a19.417,19.417,0,0,0-3.186-9.97Z"/><path class="cls-4" d="M364.845,313.51c.035.055.068.111.1.166h0Z"/></g><path class="cls-13" d="M364.7,313.286l-.053-.081Z"/><polygon class="cls-8" points="383.247 227.243 385.669 218.294 376.671 215.851 383.247 227.243"/><path class="cls-21" d="M551.513,251.2l0,0Z"/><polygon class="cls-4" points="253.646 310.204 253.646 340.368 279.768 355.45 305.891 340.368 305.891 310.204 279.768 295.122 253.646 310.204"/><path class="cls-8" d="M279.768,357.273l-27.7-15.994V309.293l27.7-15.994,27.7,15.994v31.986ZM254.7,339.76l25.069,14.474,25.07-14.474V310.812l-25.07-14.474L254.7,310.812Z"/><rect class="cls-13" x="267.852" y="327.333" width="5.164" height="10.227"/><rect class="cls-13" x="277.186" y="321.395" width="5.164" height="16.165"/><rect class="cls-13" x="286.52" y="313.012" width="5.164" height="24.547"/><path class="cls-19" d="M326.176,357.8c-1.3-.725-2.343-.1-2.323,1.4a5.161,5.161,0,0,0,2.393,4.025c1.3.725,2.343.1,2.324-1.4A5.158,5.158,0,0,0,326.176,357.8Z"/><path class="cls-20" d="M318.077,353.289c-1.3-.724-2.343-.1-2.324,1.4a5.16,5.16,0,0,0,2.394,4.024c1.3.725,2.343.1,2.323-1.4A5.156,5.156,0,0,0,318.077,353.289Z"/><path class="cls-12" d="M309.977,348.782c-1.3-.725-2.343-.1-2.323,1.4a5.161,5.161,0,0,0,2.393,4.025c1.3.725,2.343.1,2.324-1.4A5.159,5.159,0,0,0,309.977,348.782Z"/><path class="cls-13" d="M12.832,288.306s-1.751-.5-2.472.334a3.707,3.707,0,0,0-.864,3.152c.166.763,1.706,1.375,1.857,1.367l.385-.064c-1.535-1.025-.756-2.789-.443-3.573S12.832,288.306,12.832,288.306Z"/><path class="cls-4" d="M83,217.008l0,0c-.008-.021-.016-.042-.023-.062Z"/><path class="cls-4" d="M83,217.008a28.922,28.922,0,0,0-4.107-7.115,15.022,15.022,0,0,0-4.222-3.6,8.61,8.61,0,0,0-4.115-1.282,4.7,4.7,0,0,0-4.587,3.009h0a9.006,9.006,0,0,0-.685,3.623c-.017,5.938,4.158,13.169,9.326,16.153a9.133,9.133,0,0,0,3.493,1.241h0a4.754,4.754,0,0,0,4.93-2.415h0A8.46,8.46,0,0,0,84,222.449,16.543,16.543,0,0,0,83,217.008Z"/><path class="cls-22" d="M74.687,202.071c-7.2-4.156-13.054-.821-13.077,7.45s5.793,18.347,12.992,22.5,13.052.819,13.075-7.453S81.885,206.227,74.687,202.071ZM74.614,227.8c-5.168-2.984-9.343-10.215-9.326-16.153s4.219-8.333,9.387-5.35S84.017,216.512,84,222.449,79.78,230.781,74.614,227.8Z"/><path class="cls-12" d="M77.291,200.557c-3.622-2.092-6.905-2.286-9.275-.909l-2.6,1.514c2.37-1.377,5.652-1.183,9.275.909,7.2,4.156,13.013,14.229,12.99,22.5-.012,4.11-1.462,7-3.8,8.361l2.605-1.514c2.34-1.359,3.79-4.251,3.8-8.361C90.305,214.786,84.49,204.713,77.291,200.557Z"/><path class="cls-12" d="M83,217.008a28.922,28.922,0,0,0-4.107-7.115,15.022,15.022,0,0,0-4.222-3.6,8.61,8.61,0,0,0-4.115-1.282,4.7,4.7,0,0,0-4.587,3.009h0a9.006,9.006,0,0,0-.685,3.623c-.017,5.938,4.158,13.169,9.326,16.153a9.133,9.133,0,0,0,3.493,1.241h0a4.754,4.754,0,0,0,4.93-2.415h0A8.46,8.46,0,0,0,84,222.449,16.543,16.543,0,0,0,83,217.008Z"/><path class="cls-22" d="M90.354,245.823l7.737,13.4,4.4,7.616a4.753,4.753,0,0,0,4.931-2.414L94.941,242.814A4.745,4.745,0,0,0,90.354,245.823Z"/><path class="cls-12" d="M90.354,245.824a9,9,0,0,0-.685,3.622c-.017,5.938,4.158,13.17,9.326,16.153a9.153,9.153,0,0,0,3.493,1.242l-4.4-7.616Z"/><path class="cls-12" d="M103.279,247.694a16.729,16.729,0,0,0-4.223-3.6,8.585,8.585,0,0,0-4.115-1.282q6.24,10.806,12.477,21.611a8.449,8.449,0,0,0,.964-4.176c.008-2.736-1.15-5.869-2.335-8.49A40.525,40.525,0,0,0,103.279,247.694Z"/><path class="cls-22" d="M99.068,239.872c-7.2-4.156-13.053-.821-13.077,7.451s5.794,18.346,12.992,22.5,13.052.819,13.075-7.452S106.266,244.028,99.068,239.872ZM99,265.6c-5.168-2.983-9.343-10.215-9.326-16.153s4.219-8.333,9.387-5.349,9.343,10.216,9.326,16.153S104.162,268.582,99,265.6Z"/><path class="cls-12" d="M101.673,238.358c-3.623-2.091-6.905-2.285-9.275-.908l-2.6,1.514c2.37-1.378,5.652-1.183,9.275.908,7.2,4.156,13.014,14.229,12.99,22.5-.011,4.109-1.462,7-3.8,8.361l2.605-1.514c2.34-1.36,3.791-4.251,3.8-8.361C114.687,252.587,108.871,242.514,101.673,238.358Z"/><path class="cls-4" d="M101.152,259.5a1.4,1.4,0,0,1-.653.226,2,2,0,0,1-.729-.076,3.364,3.364,0,0,1-.736-.318,5.064,5.064,0,0,1-1.635-1.549,8.413,8.413,0,0,1-1.086-2.2l2.852,1.646.473-1.06-3.681-2.125a8.656,8.656,0,0,1-.045-.964l3.76,2.17.474-1.042-4.058-2.343a3.071,3.071,0,0,1,.394-.845,1.655,1.655,0,0,1,.614-.548,1.515,1.515,0,0,1,.84-.128,2.836,2.836,0,0,1,1.074.4,5.068,5.068,0,0,1,.721.517,5.875,5.875,0,0,1,.727.734,5.975,5.975,0,0,1,.65.961,5.851,5.851,0,0,1,.482,1.19l1.665-.355a9.97,9.97,0,0,0-1.6-2.944,8.815,8.815,0,0,0-2.576-2.263,5.174,5.174,0,0,0-1.967-.721,2.826,2.826,0,0,0-1.546.218,2.666,2.666,0,0,0-1.092.963,4.188,4.188,0,0,0-.609,1.542l-.769-.444-.474,1.043,1.113.643a9.607,9.607,0,0,0,.045.964l-.892-.515-.474,1.059,1.643.949a13.35,13.35,0,0,0,.733,2.118,13.5,13.5,0,0,0,1.1,2.024A12.02,12.02,0,0,0,97.3,260.18a7.653,7.653,0,0,0,1.669,1.315,5.811,5.811,0,0,0,1.331.57,4.136,4.136,0,0,0,1.287.167,2.381,2.381,0,0,0,1.091-.3,1.756,1.756,0,0,0,.733-.847l-1.768-2.194A1.418,1.418,0,0,1,101.152,259.5Z"/><path class="cls-22" d="M83.76,282.647l7.737,13.4,4.4,7.616a4.752,4.752,0,0,0,4.93-2.414L88.347,279.638A4.744,4.744,0,0,0,83.76,282.647Z"/><path class="cls-12" d="M83.76,282.647a9.006,9.006,0,0,0-.685,3.623c-.017,5.938,4.158,13.17,9.326,16.153a9.153,9.153,0,0,0,3.493,1.242l-4.4-7.616Z"/><path class="cls-12" d="M96.684,284.518a16.712,16.712,0,0,0-4.223-3.6,8.582,8.582,0,0,0-4.114-1.282l12.477,21.611a8.449,8.449,0,0,0,.963-4.176c.008-2.736-.649-4.353-2.334-8.49A33.418,33.418,0,0,0,96.684,284.518Z"/><path class="cls-22" d="M92.473,276.7c-7.2-4.156-13.053-.821-13.076,7.451s5.793,18.346,12.992,22.5,13.052.819,13.075-7.452S99.672,280.852,92.473,276.7ZM92.4,302.423c-5.168-2.983-9.343-10.215-9.326-16.153s4.219-8.333,9.386-5.349,9.343,10.216,9.326,16.153S97.567,305.406,92.4,302.423Z"/><path class="cls-12" d="M95.078,275.182c-3.622-2.091-6.905-2.286-9.275-.908L83.2,275.788c2.371-1.378,5.653-1.183,9.275.908,7.2,4.156,13.014,14.229,12.991,22.5-.012,4.109-1.462,7-3.8,8.36l2.6-1.513c2.339-1.36,3.79-4.252,3.8-8.361C108.092,289.411,102.277,279.338,95.078,275.182Z"/><path class="cls-4" d="M93.6,291.372c-1.632-1.207-2.706-1.709-2.7-3.136,0-1.071.435-1.175,1.5-.562a2.381,2.381,0,0,1,1.461,2.079l1.941,1.121a5.71,5.71,0,0,0-2.45-4.357l0-1.6-1.717-.991,0,1.586c-1.73-.764-2.67-.231-2.675,1.621a5.376,5.376,0,0,0,2.489,4.574c1.146.824,2.652,1.693,2.649,3.03,0,1.278-.536,1.486-1.7.817a2.6,2.6,0,0,1-1.629-2.279l-1.939-1.12A5.55,5.55,0,0,0,91.6,296.9l0,1.529,1.717.991,0-1.545c1.887.826,2.7.16,2.705-2.1A5.128,5.128,0,0,0,93.6,291.372Z"/><path class="cls-4" d="M75.635,217.039c-1.631-1.208-2.7-1.71-2.7-3.136,0-1.072.435-1.176,1.5-.562a2.377,2.377,0,0,1,1.461,2.079l1.942,1.121a5.714,5.714,0,0,0-2.45-4.358l0-1.6-1.716-.991,0,1.587c-1.73-.764-2.669-.231-2.674,1.62a5.372,5.372,0,0,0,2.489,4.574c1.145.824,2.652,1.694,2.648,3.03,0,1.278-.535,1.487-1.694.817a2.6,2.6,0,0,1-1.629-2.279l-1.94-1.12a5.553,5.553,0,0,0,2.768,4.748l0,1.53,1.716.991.005-1.545c1.886.826,2.7.16,2.7-2.1A5.123,5.123,0,0,0,75.635,217.039Z"/><g class="cls-6"><polygon class="cls-7" points="-26.625 536.672 417.254 278.446 417.254 277.801 -27.733 536.672 -26.625 536.672"/><polygon class="cls-7" points="417.254 251.003 270.48 165.618 269.372 165.618 417.254 251.648 417.254 251.003"/><polygon class="cls-7" points="372.245 536.672 226.918 452.128 226.637 452.609 371.137 536.672 372.245 536.672"/><polygon class="cls-7" points="417.254 443.994 -68.2 165.618 -69.32 165.618 417.254 444.637 417.254 443.994"/><polygon class="cls-7" points="417.254 210.77 114.812 386.715 115.092 387.196 417.254 211.414 417.254 210.77"/></g><g class="cls-6"><polygon class="cls-7" points="508.083 282.521 206.648 457.88 206.928 458.361 509.191 282.521 508.083 282.521"/><polygon class="cls-7" points="328.517 282.176 206.648 353.073 206.928 353.555 329.626 282.176 328.517 282.176"/><polygon class="cls-7" points="505.519 653.575 949.399 395.349 949.399 394.704 504.411 653.575 505.519 653.575"/><polygon class="cls-7" points="949.399 560.897 463.944 282.521 462.824 282.521 949.399 561.539 949.399 560.897"/></g><g class="cls-6"><polygon class="cls-7" points="166.112 -113.954 -135.323 61.406 -135.043 61.887 167.22 -113.954 166.112 -113.954"/><polygon class="cls-7" points="-135.37 221.885 2.618 141.611 2.338 141.129 -135.37 221.24 -135.37 221.885"/><polygon class="cls-7" points="163.548 257.1 607.428 -1.126 607.428 -1.77 162.44 257.1 163.548 257.1"/><polygon class="cls-7" points="17.119 257.1 -135.37 168.39 -135.37 169.035 16.011 257.1 17.119 257.1"/><polygon class="cls-7" points="562.419 257.1 417.091 172.556 416.81 173.038 561.311 257.1 562.419 257.1"/><polygon class="cls-7" points="607.428 164.423 121.973 -113.954 120.853 -113.954 607.428 165.065 607.428 164.423"/><polygon class="cls-7" points="607.428 -68.802 304.985 107.143 305.266 107.625 607.428 -68.157 607.428 -68.802"/></g></svg>