<svg id="Layer_1" data-name="Layer 1" xmlns="http://www.w3.org/2000/svg" xmlns:xlink="http://www.w3.org/1999/xlink" viewBox="0 0 578 468"><defs><style>.cls-1{fill:#fff;}.cls-2{fill:#d0d2d3;}.cls-3{fill:#a6a8ab;}.cls-4{fill:url(#linear-gradient);}.cls-5{fill:#dbdcdd;}.cls-6{fill:url(#linear-gradient-2);}.cls-7{fill:url(#linear-gradient-3);}.cls-8{fill:url(#linear-gradient-4);}.cls-9{fill:url(#linear-gradient-5);}.cls-10{fill:url(#linear-gradient-6);}.cls-11{fill:url(#linear-gradient-7);}.cls-12{fill:url(#linear-gradient-8);}.cls-13{fill:#d8d8d8;}.cls-14{fill:#bfc0c1;}.cls-15{fill:#939393;}.cls-16{fill:url(#linear-gradient-9);}.cls-17{fill:#e0e0e0;}.cls-18{fill:url(#linear-gradient-10);}.cls-19{fill:url(#linear-gradient-11);}.cls-20{fill:url(#linear-gradient-12);}.cls-21{fill:url(#linear-gradient-13);}.cls-22{fill:url(#linear-gradient-14);}.cls-23{fill:url(#linear-gradient-15);}.cls-24{fill:url(#linear-gradient-16);}.cls-25{fill:#a0a0a0;}.cls-26{fill:#7a7a7a;}.cls-27{fill:url(#linear-gradient-17);}.cls-28{fill:#999;}.cls-29{fill:url(#linear-gradient-18);}.cls-30{fill:url(#linear-gradient-19);}.cls-31{fill:url(#linear-gradient-20);}.cls-32{fill:url(#linear-gradient-21);}.cls-33{fill:url(#linear-gradient-22);}.cls-34{fill:url(#linear-gradient-23);}.cls-35{fill:url(#linear-gradient-24);}.cls-36{fill:#828282;}.cls-37{fill:#686868;}.cls-38{fill:#5e5e5e;}.cls-39{fill:url(#linear-gradient-25);}.cls-40{fill:#777;}.cls-41{fill:url(#linear-gradient-26);}.cls-42{fill:url(#linear-gradient-27);}.cls-43{fill:url(#linear-gradient-28);}.cls-44{fill:url(#linear-gradient-29);}.cls-45{fill:url(#linear-gradient-30);}.cls-46{fill:url(#linear-gradient-31);}.cls-47{fill:url(#linear-gradient-32);}.cls-48{fill:#6d6e70;}.cls-49{fill:#4d4d4f;}.cls-50{fill:#231f20;}.cls-51{fill:url(#linear-gradient-33);}.cls-52{fill:#5c5d60;}.cls-53{fill:url(#linear-gradient-34);}.cls-54{fill:url(#linear-gradient-35);}.cls-55{fill:url(#linear-gradient-36);}.cls-56{fill:url(#linear-gradient-37);}.cls-57{fill:url(#linear-gradient-38);}.cls-58{fill:url(#linear-gradient-39);}.cls-59{fill:url(#linear-gradient-40);}.cls-60{fill:#786dc6;}.cls-61{fill:#6558ac;}.cls-62{fill:#59529e;}.cls-63{fill:url(#linear-gradient-41);}.cls-64{fill:url(#linear-gradient-42);}.cls-65{fill:url(#linear-gradient-43);}.cls-66{fill:url(#linear-gradient-44);}.cls-67{fill:url(#linear-gradient-45);}.cls-68{fill:url(#linear-gradient-46);}.cls-69{fill:url(#linear-gradient-47);}.cls-70{fill:url(#linear-gradient-48);}.cls-71,.cls-72,.cls-73,.cls-74{fill:none;stroke-miterlimit:10;}.cls-71,.cls-72{stroke:#5e5e5e;}.cls-72,.cls-74{stroke-dasharray:4.924 4.924;}.cls-73,.cls-74{stroke:#a9a9fc;}.cls-75{fill:#3a3a8c;}.cls-76{fill:#3d3d3d;}</style><linearGradient id="linear-gradient" x1="-5524.446" y1="358.638" x2="-5500.247" y2="358.638" gradientTransform="matrix(-1, 0, 0, 1, -5336.174, 0)" gradientUnits="userSpaceOnUse"><stop offset="0" stop-color="#a6a8ab"/><stop offset="0.25" stop-color="#d0d2d3"/><stop offset="0.368" stop-color="#d0d2d3"/><stop offset="1" stop-color="#a6a8ab"/></linearGradient><linearGradient id="linear-gradient-2" x1="-5500.241" y1="371.838" x2="-5476.048" y2="371.838" xlink:href="#linear-gradient"/><linearGradient id="linear-gradient-3" x1="-5476.042" y1="385.038" x2="-5451.849" y2="385.038" xlink:href="#linear-gradient"/><linearGradient id="linear-gradient-4" x1="-5451.843" y1="398.238" x2="-5427.65" y2="398.238" xlink:href="#linear-gradient"/><linearGradient id="linear-gradient-5" x1="-5500.247" y1="345.436" x2="-5476.048" y2="345.436" xlink:href="#linear-gradient"/><linearGradient id="linear-gradient-6" x1="-5476.042" y1="358.638" x2="-5451.849" y2="358.638" xlink:href="#linear-gradient"/><linearGradient id="linear-gradient-7" x1="-5451.843" y1="371.838" x2="-5427.65" y2="371.838" xlink:href="#linear-gradient"/><linearGradient id="linear-gradient-8" x1="-5427.644" y1="385.038" x2="-5403.448" y2="385.038" xlink:href="#linear-gradient"/><linearGradient id="linear-gradient-9" x1="-5524.44" y1="319.032" x2="-5500.241" y2="319.032" gradientTransform="matrix(-1, 0, 0, 1, -5336.174, 0)" gradientUnits="userSpaceOnUse"><stop offset="0" stop-color="#bfc0c1"/><stop offset="0.25" stop-color="#bfc0c1"/><stop offset="0.368" stop-color="#bfc0c1"/><stop offset="1" stop-color="#bfc0c1"/></linearGradient><linearGradient id="linear-gradient-10" x1="-5500.235" y1="332.234" x2="-5476.042" y2="332.234" xlink:href="#linear-gradient-9"/><linearGradient id="linear-gradient-11" x1="-5476.036" y1="345.434" x2="-5451.843" y2="345.434" xlink:href="#linear-gradient-9"/><linearGradient id="linear-gradient-12" x1="-5451.837" y1="358.634" x2="-5427.644" y2="358.634" xlink:href="#linear-gradient-9"/><linearGradient id="linear-gradient-13" x1="-5500.241" y1="305.831" x2="-5476.042" y2="305.831" xlink:href="#linear-gradient-9"/><linearGradient id="linear-gradient-14" x1="-5476.036" y1="319.032" x2="-5451.843" y2="319.032" xlink:href="#linear-gradient-9"/><linearGradient id="linear-gradient-15" x1="-5451.837" y1="332.232" x2="-5427.644" y2="332.232" xlink:href="#linear-gradient-9"/><linearGradient id="linear-gradient-16" x1="-5427.638" y1="345.432" x2="-5403.442" y2="345.432" xlink:href="#linear-gradient-9"/><linearGradient id="linear-gradient-17" x1="-5524.449" y1="279.431" x2="-5500.25" y2="279.431" gradientTransform="matrix(-1, 0, 0, 1, -5336.174, 0)" gradientUnits="userSpaceOnUse"><stop offset="0" stop-color="#7a7a7a"/><stop offset="0.25" stop-color="#939393"/><stop offset="0.368" stop-color="#a0a0a0"/><stop offset="1" stop-color="#7a7a7a"/></linearGradient><linearGradient id="linear-gradient-18" x1="-5500.244" y1="292.632" x2="-5476.051" y2="292.632" xlink:href="#linear-gradient-17"/><linearGradient id="linear-gradient-19" x1="-5476.045" y1="305.832" x2="-5451.852" y2="305.832" xlink:href="#linear-gradient-17"/><linearGradient id="linear-gradient-20" x1="-5451.846" y1="319.032" x2="-5427.653" y2="319.032" xlink:href="#linear-gradient-17"/><linearGradient id="linear-gradient-21" x1="-5500.25" y1="266.229" x2="-5476.051" y2="266.229" xlink:href="#linear-gradient-17"/><linearGradient id="linear-gradient-22" x1="-5476.045" y1="279.431" x2="-5451.852" y2="279.431" xlink:href="#linear-gradient-17"/><linearGradient id="linear-gradient-23" x1="-5451.846" y1="292.631" x2="-5427.653" y2="292.631" xlink:href="#linear-gradient-17"/><linearGradient id="linear-gradient-24" x1="-5427.647" y1="305.831" x2="-5403.451" y2="305.831" xlink:href="#linear-gradient-17"/><linearGradient id="linear-gradient-25" x1="-5524.452" y1="239.829" x2="-5500.253" y2="239.829" gradientTransform="matrix(-1, 0, 0, 1, -5336.174, 0)" gradientUnits="userSpaceOnUse"><stop offset="0" stop-color="#5e5e5e"/><stop offset="0.25" stop-color="#828282"/><stop offset="0.368" stop-color="#828282"/><stop offset="1" stop-color="#5e5e5e"/></linearGradient><linearGradient id="linear-gradient-26" x1="-5500.247" y1="253.03" x2="-5476.054" y2="253.03" xlink:href="#linear-gradient-25"/><linearGradient id="linear-gradient-27" x1="-5476.048" y1="266.23" x2="-5451.855" y2="266.23" xlink:href="#linear-gradient-25"/><linearGradient id="linear-gradient-28" x1="-5451.849" y1="279.43" x2="-5427.656" y2="279.43" xlink:href="#linear-gradient-25"/><linearGradient id="linear-gradient-29" x1="-5500.253" y1="226.627" x2="-5476.054" y2="226.627" xlink:href="#linear-gradient-25"/><linearGradient id="linear-gradient-30" x1="-5476.048" y1="239.829" x2="-5451.855" y2="239.829" xlink:href="#linear-gradient-25"/><linearGradient id="linear-gradient-31" x1="-5451.849" y1="253.029" x2="-5427.656" y2="253.029" xlink:href="#linear-gradient-25"/><linearGradient id="linear-gradient-32" x1="-5427.65" y1="266.229" x2="-5403.454" y2="266.229" xlink:href="#linear-gradient-25"/><linearGradient id="linear-gradient-33" x1="-5524.439" y1="200.234" x2="-5500.241" y2="200.234" gradientTransform="matrix(-1, 0, 0, 1, -5336.174, 0)" gradientUnits="userSpaceOnUse"><stop offset="0" stop-color="#231f20"/><stop offset="0.25" stop-color="#4d4d4f"/><stop offset="0.368" stop-color="#4d4d4f"/><stop offset="1" stop-color="#231f20"/></linearGradient><linearGradient id="linear-gradient-34" x1="-5500.235" y1="213.433" x2="-5476.043" y2="213.433" xlink:href="#linear-gradient-33"/><linearGradient id="linear-gradient-35" x1="-5476.037" y1="226.633" x2="-5451.845" y2="226.633" xlink:href="#linear-gradient-33"/><linearGradient id="linear-gradient-36" x1="-5451.839" y1="239.833" x2="-5427.647" y2="239.833" xlink:href="#linear-gradient-33"/><linearGradient id="linear-gradient-37" x1="-5500.241" y1="187.033" x2="-5476.043" y2="187.033" xlink:href="#linear-gradient-33"/><linearGradient id="linear-gradient-38" x1="-5476.037" y1="200.234" x2="-5451.845" y2="200.234" xlink:href="#linear-gradient-33"/><linearGradient id="linear-gradient-39" x1="-5451.839" y1="213.433" x2="-5427.647" y2="213.433" xlink:href="#linear-gradient-33"/><linearGradient id="linear-gradient-40" x1="-5427.641" y1="226.633" x2="-5403.446" y2="226.633" xlink:href="#linear-gradient-33"/><linearGradient id="linear-gradient-41" x1="-5524.44" y1="72.219" x2="-5500.241" y2="72.219" gradientTransform="matrix(-1, 0, 0, 1, -5336.174, 0)" gradientUnits="userSpaceOnUse"><stop offset="0" stop-color="#3a3567"/><stop offset="0.25" stop-color="#685aad"/><stop offset="0.368" stop-color="#685aad"/><stop offset="1" stop-color="#3a3567"/></linearGradient><linearGradient id="linear-gradient-42" x1="-5500.235" y1="85.419" x2="-5476.042" y2="85.419" xlink:href="#linear-gradient-41"/><linearGradient id="linear-gradient-43" x1="-5476.036" y1="98.619" x2="-5451.843" y2="98.619" xlink:href="#linear-gradient-41"/><linearGradient id="linear-gradient-44" x1="-5451.837" y1="111.819" x2="-5427.644" y2="111.819" xlink:href="#linear-gradient-41"/><linearGradient id="linear-gradient-45" x1="-5500.241" y1="59.018" x2="-5476.042" y2="59.018" xlink:href="#linear-gradient-41"/><linearGradient id="linear-gradient-46" x1="-5476.036" y1="72.219" x2="-5451.843" y2="72.219" xlink:href="#linear-gradient-41"/><linearGradient id="linear-gradient-47" x1="-5451.837" y1="85.419" x2="-5427.644" y2="85.419" xlink:href="#linear-gradient-41"/><linearGradient id="linear-gradient-48" x1="-5427.638" y1="98.619" x2="-5403.442" y2="98.619" xlink:href="#linear-gradient-41"/></defs><polygon class="cls-1" points="200.375 358.635 103.573 411.435 55.172 385.038 151.971 332.235 200.375 358.635"/><polygon class="cls-2" points="103.573 451.035 103.573 411.435 55.166 385.035 55.172 424.635 103.573 451.035"/><polygon class="cls-3" points="103.567 411.435 200.369 358.635 200.375 398.235 103.573 451.035 103.567 411.435"/><path class="cls-4" d="M188.272,352.038v6.6c0,3.647-5.42,6.6-12.1,6.6s-12.1-2.956-12.1-6.6v-6.6Z"/><path class="cls-1" d="M176.17,358.613c-6.657,0-12.071-2.95-12.071-6.575s5.414-6.575,12.071-6.575,12.077,2.95,12.077,6.575S182.829,358.613,176.17,358.613Z"/><path class="cls-5" d="M176.17,345.487c6.646,0,12.052,2.939,12.052,6.551s-5.406,6.55-12.052,6.55-12.046-2.939-12.046-6.55,5.4-6.551,12.046-6.551m0-.05c-6.682,0-12.1,2.957-12.1,6.6s5.414,6.6,12.1,6.6,12.1-2.956,12.1-6.6-5.42-6.6-12.1-6.6Z"/><path class="cls-6" d="M164.068,365.238v6.6c0,3.648-5.415,6.6-12.1,6.6s-12.1-2.953-12.1-6.6v-6.6Z"/><path class="cls-1" d="M151.971,371.815c-6.656,0-12.071-2.95-12.071-6.577s5.415-6.572,12.071-6.572,12.072,2.948,12.072,6.572S158.628,371.815,151.971,371.815Z"/><path class="cls-5" d="M151.971,358.691c6.642,0,12.046,2.937,12.046,6.547s-5.4,6.553-12.046,6.553-12.046-2.94-12.046-6.553,5.4-6.547,12.046-6.547m0-.05c-6.682,0-12.1,2.952-12.1,6.6s5.414,6.6,12.1,6.6,12.1-2.956,12.1-6.6-5.415-6.6-12.1-6.6Z"/><path class="cls-7" d="M139.868,378.438v6.6c0,3.647-5.414,6.6-12.1,6.6s-12.1-2.953-12.1-6.6v-6.6Z"/><path class="cls-1" d="M127.772,385.015c-6.656,0-12.071-2.95-12.071-6.577s5.415-6.572,12.071-6.572,12.071,2.948,12.071,6.572S134.428,385.015,127.772,385.015Z"/><path class="cls-5" d="M127.772,371.891c6.642,0,12.046,2.937,12.046,6.547s-5.4,6.553-12.046,6.553-12.046-2.94-12.046-6.553,5.4-6.547,12.046-6.547m0-.05c-6.682,0-12.1,2.953-12.1,6.6s5.414,6.6,12.1,6.6,12.1-2.956,12.1-6.6-5.414-6.6-12.1-6.6Z"/><path class="cls-8" d="M115.669,391.638v6.6c0,3.647-5.414,6.6-12.1,6.6s-12.1-2.953-12.1-6.6v-6.6Z"/><path class="cls-1" d="M103.573,398.215c-6.656,0-12.071-2.95-12.071-6.577s5.415-6.572,12.071-6.572,12.071,2.948,12.071,6.572S110.229,398.215,103.573,398.215Z"/><path class="cls-5" d="M103.573,385.091c6.642,0,12.046,2.937,12.046,6.547s-5.4,6.553-12.046,6.553-12.047-2.94-12.047-6.553,5.405-6.547,12.047-6.547m0-.05c-6.682,0-12.1,2.952-12.1,6.6s5.415,6.6,12.1,6.6,12.1-2.956,12.1-6.6-5.414-6.6-12.1-6.6Z"/><path class="cls-9" d="M164.073,338.837v6.6c0,3.645-5.42,6.6-12.1,6.6s-12.1-2.955-12.1-6.6v-6.6Z"/><path class="cls-1" d="M151.971,345.409c-6.656,0-12.071-2.948-12.071-6.572s5.415-6.577,12.071-6.577,12.077,2.95,12.077,6.577S158.63,345.409,151.971,345.409Z"/><path class="cls-5" d="M151.971,332.285c6.646,0,12.053,2.939,12.053,6.552s-5.407,6.547-12.053,6.547-12.046-2.937-12.046-6.547,5.4-6.552,12.046-6.552m0-.05c-6.682,0-12.1,2.955-12.1,6.6s5.414,6.6,12.1,6.6,12.1-2.952,12.1-6.6-5.421-6.6-12.1-6.6Z"/><path class="cls-10" d="M139.868,352.038v6.6c0,3.647-5.414,6.6-12.1,6.6s-12.1-2.956-12.1-6.6v-6.6Z"/><path class="cls-1" d="M127.772,358.613c-6.656,0-12.071-2.95-12.071-6.575s5.415-6.575,12.071-6.575,12.071,2.95,12.071,6.575S134.428,358.613,127.772,358.613Z"/><path class="cls-5" d="M127.772,345.487c6.642,0,12.046,2.939,12.046,6.551s-5.4,6.55-12.046,6.55-12.046-2.939-12.046-6.55,5.4-6.551,12.046-6.551m0-.05c-6.682,0-12.1,2.957-12.1,6.6s5.414,6.6,12.1,6.6,12.1-2.956,12.1-6.6-5.414-6.6-12.1-6.6Z"/><path class="cls-11" d="M115.669,365.238v6.6c0,3.647-5.414,6.6-12.1,6.6s-12.1-2.956-12.1-6.6v-6.6Z"/><ellipse class="cls-1" cx="103.573" cy="365.238" rx="12.071" ry="6.574"/><path class="cls-5" d="M103.573,358.688c6.642,0,12.046,2.938,12.046,6.55s-5.4,6.549-12.046,6.549-12.047-2.938-12.047-6.549,5.405-6.55,12.047-6.55m0-.05c-6.682,0-12.1,2.955-12.1,6.6s5.415,6.6,12.1,6.6,12.1-2.955,12.1-6.6-5.414-6.6-12.1-6.6Z"/><path class="cls-12" d="M91.47,378.438v6.6c0,3.647-5.411,6.6-12.093,6.6s-12.1-2.956-12.1-6.6v-6.6Z"/><path class="cls-1" d="M79.377,385.012c-6.66,0-12.078-2.949-12.078-6.574s5.418-6.575,12.078-6.575,12.068,2.949,12.068,6.575S86.031,385.012,79.377,385.012Z"/><path class="cls-5" d="M79.377,371.887c6.641,0,12.043,2.939,12.043,6.551s-5.4,6.55-12.043,6.55-12.053-2.939-12.053-6.55,5.407-6.551,12.053-6.551m0-.05c-6.682,0-12.1,2.957-12.1,6.6s5.421,6.6,12.1,6.6,12.093-2.956,12.093-6.6-5.411-6.6-12.093-6.6Z"/><polygon class="cls-13" points="200.369 319.032 103.567 371.832 55.166 345.433 151.965 292.632 200.369 319.032"/><polygon class="cls-14" points="103.567 411.432 103.567 371.832 55.16 345.432 55.166 385.032 103.567 411.432"/><polygon class="cls-15" points="103.561 371.832 200.363 319.032 200.369 358.632 103.567 411.432 103.561 371.832"/><path class="cls-16" d="M188.267,312.433v6.6c0,3.645-5.421,6.6-12.1,6.6s-12.1-2.955-12.1-6.6v-6.6Z"/><path class="cls-17" d="M164.068,312.433c0,3.646,5.414,6.6,12.1,6.6s12.1-2.954,12.1-6.6-5.421-6.6-12.1-6.6S164.068,308.787,164.068,312.433Z"/><path class="cls-18" d="M164.062,325.634v6.6c0,3.646-5.415,6.6-12.1,6.6s-12.1-2.954-12.1-6.6v-6.6Z"/><path class="cls-17" d="M139.869,325.634c0,3.646,5.414,6.6,12.1,6.6s12.1-2.955,12.1-6.6-5.415-6.6-12.1-6.6S139.869,321.989,139.869,325.634Z"/><path class="cls-19" d="M139.862,338.835v6.6c0,3.646-5.414,6.6-12.1,6.6s-12.1-2.954-12.1-6.6v-6.6Z"/><path class="cls-17" d="M115.67,338.835c0,3.645,5.414,6.6,12.1,6.6s12.1-2.955,12.1-6.6-5.414-6.6-12.1-6.6S115.67,335.189,115.67,338.835Z"/><path class="cls-20" d="M115.663,352.035v6.6c0,3.646-5.414,6.6-12.1,6.6s-12.1-2.954-12.1-6.6v-6.6Z"/><path class="cls-17" d="M91.47,352.035c0,3.645,5.415,6.6,12.1,6.6s12.1-2.955,12.1-6.6-5.414-6.6-12.1-6.6S91.47,348.389,91.47,352.035Z"/><path class="cls-21" d="M164.068,299.232v6.6c0,3.646-5.421,6.6-12.1,6.6s-12.1-2.954-12.1-6.6v-6.6Z"/><path class="cls-17" d="M139.869,299.232c0,3.645,5.414,6.6,12.1,6.6s12.1-2.954,12.1-6.6-5.421-6.6-12.1-6.6S139.869,295.586,139.869,299.232Z"/><path class="cls-22" d="M139.862,312.433v6.6c0,3.645-5.414,6.6-12.1,6.6s-12.1-2.955-12.1-6.6v-6.6Z"/><path class="cls-17" d="M115.67,312.433c0,3.646,5.414,6.6,12.1,6.6s12.1-2.954,12.1-6.6-5.414-6.6-12.1-6.6S115.67,308.787,115.67,312.433Z"/><path class="cls-23" d="M115.663,325.633v6.6c0,3.646-5.414,6.6-12.1,6.6s-12.1-2.954-12.1-6.6v-6.6Z"/><path class="cls-17" d="M91.47,325.633c0,3.646,5.415,6.6,12.1,6.6s12.1-2.954,12.1-6.6-5.414-6.6-12.1-6.6S91.47,321.987,91.47,325.633Z"/><path class="cls-24" d="M91.465,338.833v6.6c0,3.645-5.412,6.6-12.094,6.6s-12.1-2.955-12.1-6.6v-6.6Z"/><path class="cls-17" d="M67.268,338.833c0,3.646,5.421,6.6,12.1,6.6s12.094-2.954,12.094-6.6-5.412-6.6-12.094-6.6S67.268,335.188,67.268,338.833Z"/><polygon class="cls-25" points="200.378 279.43 103.576 332.23 55.175 305.831 151.974 253.03 200.378 279.43"/><polygon class="cls-15" points="103.576 371.83 103.576 332.23 55.169 305.83 55.175 345.43 103.576 371.83"/><polygon class="cls-26" points="103.57 332.23 200.372 279.43 200.378 319.03 103.576 371.83 103.57 332.23"/><path class="cls-27" d="M188.275,272.831v6.6c0,3.645-5.42,6.6-12.1,6.6s-12.1-2.955-12.1-6.6v-6.6Z"/><path class="cls-28" d="M164.076,272.831c0,3.646,5.415,6.6,12.1,6.6s12.1-2.954,12.1-6.6-5.42-6.6-12.1-6.6S164.076,269.186,164.076,272.831Z"/><path class="cls-29" d="M164.071,286.033v6.6c0,3.646-5.415,6.6-12.1,6.6s-12.1-2.954-12.1-6.6v-6.6Z"/><path class="cls-28" d="M139.877,286.033c0,3.646,5.415,6.6,12.1,6.6s12.1-2.954,12.1-6.6-5.415-6.6-12.1-6.6S139.877,282.387,139.877,286.033Z"/><path class="cls-30" d="M139.871,299.233v6.6c0,3.646-5.414,6.6-12.1,6.6s-12.1-2.955-12.1-6.6v-6.6Z"/><path class="cls-28" d="M115.679,299.233c0,3.645,5.414,6.6,12.1,6.6s12.1-2.955,12.1-6.6-5.414-6.6-12.1-6.6S115.679,295.587,115.679,299.233Z"/><path class="cls-31" d="M115.672,312.433v6.6c0,3.646-5.414,6.6-12.1,6.6s-12.1-2.954-12.1-6.6v-6.6Z"/><path class="cls-28" d="M91.479,312.433c0,3.646,5.415,6.6,12.1,6.6s12.1-2.954,12.1-6.6-5.414-6.6-12.1-6.6S91.479,308.787,91.479,312.433Z"/><path class="cls-32" d="M164.076,259.63v6.6c0,3.646-5.42,6.6-12.1,6.6s-12.1-2.954-12.1-6.6v-6.6Z"/><path class="cls-28" d="M139.877,259.63c0,3.645,5.415,6.6,12.1,6.6s12.1-2.955,12.1-6.6-5.42-6.6-12.1-6.6S139.877,255.984,139.877,259.63Z"/><path class="cls-33" d="M139.871,272.831v6.6c0,3.645-5.414,6.6-12.1,6.6s-12.1-2.955-12.1-6.6v-6.6Z"/><path class="cls-28" d="M115.679,272.831c0,3.646,5.414,6.6,12.1,6.6s12.1-2.954,12.1-6.6-5.414-6.6-12.1-6.6S115.679,269.186,115.679,272.831Z"/><path class="cls-34" d="M115.672,286.031v6.6c0,3.646-5.414,6.6-12.1,6.6s-12.1-2.954-12.1-6.6v-6.6Z"/><path class="cls-28" d="M91.479,286.031c0,3.646,5.415,6.6,12.1,6.6s12.1-2.954,12.1-6.6-5.414-6.6-12.1-6.6S91.479,282.386,91.479,286.031Z"/><path class="cls-35" d="M91.473,299.231v6.6c0,3.645-5.411,6.6-12.093,6.6s-12.1-2.955-12.1-6.6v-6.6Z"/><path class="cls-28" d="M67.277,299.231c0,3.646,5.421,6.6,12.1,6.6s12.093-2.954,12.093-6.6-5.411-6.6-12.093-6.6S67.277,295.586,67.277,299.231Z"/><polygon class="cls-36" points="200.381 239.828 103.579 292.628 55.178 266.23 151.977 213.428 200.381 239.828"/><polygon class="cls-37" points="103.579 332.228 103.579 292.628 55.172 266.228 55.178 305.828 103.579 332.228"/><polygon class="cls-38" points="103.573 292.628 200.375 239.828 200.381 279.428 103.579 332.228 103.573 292.628"/><path class="cls-39" d="M188.278,233.23v6.6c0,3.646-5.42,6.6-12.1,6.6s-12.1-2.954-12.1-6.6v-6.6Z"/><path class="cls-40" d="M164.079,233.23c0,3.645,5.415,6.6,12.1,6.6s12.1-2.955,12.1-6.6-5.42-6.6-12.1-6.6S164.079,229.584,164.079,233.23Z"/><path class="cls-41" d="M164.073,246.431v6.6c0,3.645-5.414,6.6-12.1,6.6s-12.1-2.955-12.1-6.6v-6.6Z"/><path class="cls-40" d="M139.88,246.431c0,3.646,5.415,6.6,12.1,6.6s12.1-2.954,12.1-6.6-5.414-6.6-12.1-6.6S139.88,242.785,139.88,246.431Z"/><path class="cls-42" d="M139.874,259.631v6.6c0,3.645-5.414,6.6-12.1,6.6s-12.1-2.955-12.1-6.6v-6.6Z"/><path class="cls-40" d="M115.681,259.631c0,3.646,5.415,6.6,12.1,6.6s12.1-2.954,12.1-6.6-5.414-6.6-12.1-6.6S115.681,255.986,115.681,259.631Z"/><path class="cls-43" d="M115.675,272.831v6.6c0,3.645-5.414,6.6-12.1,6.6s-12.1-2.955-12.1-6.6v-6.6Z"/><path class="cls-40" d="M91.482,272.831c0,3.646,5.415,6.6,12.1,6.6s12.1-2.954,12.1-6.6-5.414-6.6-12.1-6.6S91.482,269.185,91.482,272.831Z"/><path class="cls-44" d="M164.079,220.028v6.6c0,3.645-5.42,6.6-12.1,6.6s-12.1-2.954-12.1-6.6v-6.6Z"/><path class="cls-40" d="M139.88,220.028c0,3.646,5.415,6.6,12.1,6.6s12.1-2.954,12.1-6.6-5.42-6.6-12.1-6.6S139.88,216.382,139.88,220.028Z"/><path class="cls-45" d="M139.874,233.23v6.6c0,3.646-5.414,6.6-12.1,6.6s-12.1-2.954-12.1-6.6v-6.6Z"/><path class="cls-40" d="M115.681,233.23c0,3.645,5.415,6.6,12.1,6.6s12.1-2.955,12.1-6.6-5.414-6.6-12.1-6.6S115.681,229.584,115.681,233.23Z"/><path class="cls-46" d="M115.675,246.43v6.6c0,3.646-5.414,6.6-12.1,6.6s-12.1-2.954-12.1-6.6v-6.6Z"/><path class="cls-40" d="M91.482,246.43c0,3.645,5.415,6.6,12.1,6.6s12.1-2.955,12.1-6.6-5.414-6.6-12.1-6.6S91.482,242.784,91.482,246.43Z"/><path class="cls-47" d="M91.476,259.63v6.6c0,3.646-5.411,6.6-12.093,6.6s-12.1-2.954-12.1-6.6v-6.6Z"/><path class="cls-40" d="M67.28,259.63c0,3.645,5.421,6.6,12.1,6.6s12.093-2.955,12.093-6.6-5.411-6.6-12.093-6.6S67.28,255.984,67.28,259.63Z"/><polygon class="cls-48" points="200.368 200.231 103.569 253.029 55.17 226.633 151.966 173.832 200.368 200.231"/><polygon class="cls-49" points="103.569 292.627 103.569 253.029 55.164 226.63 55.17 266.228 103.569 292.627"/><polygon class="cls-50" points="103.563 253.029 200.362 200.231 200.368 239.829 103.569 292.627 103.563 253.029"/><path class="cls-51" d="M188.265,193.634v6.6c0,3.647-5.42,6.6-12.1,6.6s-12.1-2.956-12.1-6.6v-6.6Z"/><path class="cls-48" d="M176.164,200.209c-6.657,0-12.071-2.949-12.071-6.575s5.414-6.575,12.071-6.575,12.076,2.95,12.076,6.575S182.823,200.209,176.164,200.209Z"/><path class="cls-52" d="M176.163,187.085c6.646,0,12.052,2.938,12.052,6.549s-5.406,6.55-12.052,6.55-12.045-2.938-12.045-6.55,5.4-6.549,12.045-6.549m0-.05c-6.681,0-12.095,2.955-12.095,6.6s5.414,6.6,12.1,6.6,12.1-2.956,12.1-6.6-5.421-6.6-12.1-6.6Z"/><path class="cls-53" d="M164.062,206.834v6.6c0,3.647-5.415,6.6-12.1,6.6s-12.1-2.952-12.1-6.6v-6.6Z"/><path class="cls-48" d="M151.965,213.412c-6.656,0-12.07-2.951-12.07-6.578s5.414-6.572,12.07-6.572,12.071,2.948,12.071,6.572S158.622,213.412,151.965,213.412Z"/><path class="cls-52" d="M151.966,200.287c6.642,0,12.046,2.937,12.046,6.547s-5.4,6.552-12.046,6.552-12.046-2.939-12.046-6.552,5.4-6.547,12.046-6.547m0-.05c-6.682,0-12.1,2.953-12.1,6.6s5.414,6.6,12.1,6.6,12.1-2.955,12.1-6.6-5.415-6.6-12.1-6.6Z"/><path class="cls-54" d="M139.863,220.033v6.6c0,3.647-5.414,6.6-12.095,6.6s-12.1-2.953-12.1-6.6v-6.6Z"/><path class="cls-48" d="M127.767,226.611c-6.656,0-12.07-2.951-12.07-6.578s5.414-6.572,12.07-6.572,12.071,2.949,12.071,6.572S134.423,226.611,127.767,226.611Z"/><path class="cls-52" d="M127.768,213.486c6.642,0,12.045,2.937,12.045,6.547s-5.4,6.553-12.045,6.553-12.046-2.94-12.046-6.553,5.4-6.547,12.046-6.547m0-.05c-6.682,0-12.1,2.953-12.1,6.6s5.414,6.6,12.1,6.6,12.1-2.956,12.1-6.6-5.414-6.6-12.095-6.6Z"/><path class="cls-55" d="M115.665,233.233v6.6c0,3.646-5.414,6.6-12.1,6.6s-12.1-2.953-12.1-6.6v-6.6Z"/><path class="cls-48" d="M103.569,239.811c-6.656,0-12.07-2.951-12.07-6.578s5.414-6.572,12.07-6.572,12.071,2.948,12.071,6.572S110.225,239.811,103.569,239.811Z"/><path class="cls-52" d="M103.569,226.686c6.643,0,12.046,2.937,12.046,6.547s-5.4,6.553-12.046,6.553-12.046-2.94-12.046-6.553,5.4-6.547,12.046-6.547m0-.05c-6.681,0-12.1,2.953-12.1,6.6s5.415,6.6,12.1,6.6,12.1-2.956,12.1-6.6-5.414-6.6-12.1-6.6Z"/><path class="cls-56" d="M164.068,180.435v6.6c0,3.643-5.421,6.6-12.1,6.6s-12.1-2.956-12.1-6.6v-6.6Z"/><path class="cls-48" d="M151.965,187.007c-6.656,0-12.07-2.949-12.07-6.572s5.414-6.578,12.07-6.578,12.078,2.951,12.078,6.578S158.625,187.007,151.965,187.007Z"/><path class="cls-52" d="M151.966,173.882c6.645,0,12.051,2.939,12.051,6.553s-5.406,6.547-12.051,6.547-12.046-2.937-12.046-6.547,5.4-6.553,12.046-6.553m0-.05c-6.682,0-12.1,2.956-12.1,6.6s5.414,6.6,12.1,6.6,12.1-2.953,12.1-6.6-5.421-6.6-12.1-6.6Z"/><path class="cls-57" d="M139.863,193.634v6.6c0,3.647-5.414,6.6-12.095,6.6s-12.1-2.956-12.1-6.6v-6.6Z"/><ellipse class="cls-48" cx="127.767" cy="193.634" rx="12.07" ry="6.575"/><path class="cls-52" d="M127.768,187.085c6.642,0,12.045,2.938,12.045,6.549s-5.4,6.55-12.045,6.55-12.046-2.938-12.046-6.55,5.4-6.549,12.046-6.549m0-.05c-6.682,0-12.1,2.955-12.1,6.6s5.414,6.6,12.1,6.6,12.1-2.956,12.1-6.6-5.414-6.6-12.095-6.6Z"/><path class="cls-58" d="M115.665,206.834v6.6c0,3.647-5.414,6.6-12.1,6.6s-12.1-2.956-12.1-6.6v-6.6Z"/><path class="cls-48" d="M103.569,213.409c-6.656,0-12.07-2.95-12.07-6.575s5.414-6.575,12.07-6.575,12.071,2.949,12.071,6.575S110.225,213.409,103.569,213.409Z"/><path class="cls-52" d="M103.569,200.284c6.643,0,12.046,2.938,12.046,6.55s-5.4,6.55-12.046,6.55-12.046-2.939-12.046-6.55,5.4-6.55,12.046-6.55m0-.05c-6.681,0-12.1,2.956-12.1,6.6s5.415,6.6,12.1,6.6,12.1-2.956,12.1-6.6-5.414-6.6-12.1-6.6Z"/><path class="cls-59" d="M91.467,220.033v6.6c0,3.647-5.411,6.6-12.093,6.6s-12.1-2.956-12.1-6.6v-6.6Z"/><path class="cls-48" d="M79.375,226.608c-6.66,0-12.078-2.949-12.078-6.575s5.418-6.575,12.078-6.575,12.067,2.95,12.067,6.575S86.029,226.608,79.375,226.608Z"/><path class="cls-52" d="M79.374,213.484c6.641,0,12.043,2.938,12.043,6.549s-5.4,6.55-12.043,6.55-12.052-2.938-12.052-6.55,5.407-6.549,12.052-6.549m0-.05c-6.681,0-12.1,2.955-12.1,6.6s5.421,6.6,12.1,6.6,12.093-2.956,12.093-6.6-5.411-6.6-12.093-6.6Z"/><polygon class="cls-60" points="200.369 72.216 103.567 125.016 55.166 98.619 151.965 45.816 200.369 72.216"/><polygon class="cls-61" points="103.567 164.616 103.567 125.016 55.16 98.616 55.166 138.216 103.567 164.616"/><polygon class="cls-62" points="103.561 125.016 200.363 72.216 200.369 111.816 103.567 164.616 103.561 125.016"/><path class="cls-63" d="M188.267,65.619v6.6c0,3.647-5.421,6.6-12.1,6.6s-12.1-2.956-12.1-6.6v-6.6Z"/><path class="cls-60" d="M164.068,65.619c0,3.644,5.414,6.6,12.1,6.6s12.1-2.956,12.1-6.6-5.421-6.6-12.1-6.6S164.068,61.975,164.068,65.619Z"/><path class="cls-64" d="M164.062,78.819v6.6c0,3.647-5.415,6.6-12.1,6.6s-12.1-2.953-12.1-6.6v-6.6Z"/><path class="cls-60" d="M139.869,78.819c0,3.647,5.414,6.6,12.1,6.6s12.1-2.956,12.1-6.6-5.415-6.6-12.1-6.6S139.869,75.175,139.869,78.819Z"/><path class="cls-65" d="M139.862,92.019v6.6c0,3.647-5.414,6.6-12.1,6.6s-12.1-2.953-12.1-6.6v-6.6Z"/><path class="cls-60" d="M115.67,92.019c0,3.647,5.414,6.6,12.1,6.6s12.1-2.956,12.1-6.6-5.414-6.6-12.1-6.6S115.67,88.375,115.67,92.019Z"/><path class="cls-66" d="M115.663,105.219v6.6c0,3.647-5.414,6.6-12.1,6.6s-12.1-2.953-12.1-6.6v-6.6Z"/><path class="cls-60" d="M91.47,105.219c0,3.647,5.415,6.6,12.1,6.6s12.1-2.956,12.1-6.6-5.414-6.6-12.1-6.6S91.47,101.575,91.47,105.219Z"/><path class="cls-67" d="M164.068,52.419v6.6c0,3.644-5.421,6.6-12.1,6.6s-12.1-2.956-12.1-6.6v-6.6Z"/><path class="cls-60" d="M139.869,52.419c0,3.644,5.414,6.6,12.1,6.6s12.1-2.953,12.1-6.6-5.421-6.6-12.1-6.6S139.869,48.772,139.869,52.419Z"/><path class="cls-68" d="M139.862,65.619v6.6c0,3.647-5.414,6.6-12.1,6.6s-12.1-2.956-12.1-6.6v-6.6Z"/><path class="cls-60" d="M115.67,65.619c0,3.644,5.414,6.6,12.1,6.6s12.1-2.956,12.1-6.6-5.414-6.6-12.1-6.6S115.67,61.975,115.67,65.619Z"/><path class="cls-69" d="M115.663,78.819v6.6c0,3.647-5.414,6.6-12.1,6.6s-12.1-2.956-12.1-6.6v-6.6Z"/><ellipse class="cls-60" cx="103.567" cy="78.819" rx="12.097" ry="6.6"/><path class="cls-70" d="M91.465,92.019v6.6c0,3.647-5.412,6.6-12.094,6.6s-12.1-2.956-12.1-6.6v-6.6Z"/><path class="cls-60" d="M67.268,92.019c0,3.644,5.421,6.6,12.1,6.6s12.094-2.956,12.094-6.6-5.412-6.6-12.094-6.6S67.268,88.375,67.268,92.019Z"/><line class="cls-71" x1="224.815" y1="202.662" x2="227.315" y2="202.662"/><line class="cls-72" x1="232.24" y1="202.662" x2="505.542" y2="202.662"/><line class="cls-71" x1="508.004" y1="202.662" x2="510.504" y2="202.662"/><line class="cls-71" x1="224.815" y1="390.703" x2="227.315" y2="390.703"/><line class="cls-72" x1="232.24" y1="390.703" x2="505.542" y2="390.703"/><line class="cls-71" x1="508.004" y1="390.703" x2="510.504" y2="390.703"/><line class="cls-73" x1="224.815" y1="81.082" x2="227.315" y2="81.082"/><line class="cls-74" x1="232.24" y1="81.082" x2="505.542" y2="81.082"/><line class="cls-73" x1="508.004" y1="81.082" x2="510.504" y2="81.082"/><line class="cls-73" x1="224.815" y1="118.695" x2="227.315" y2="118.695"/><line class="cls-74" x1="232.239" y1="118.695" x2="505.542" y2="118.695"/><line class="cls-73" x1="508.004" y1="118.695" x2="510.504" y2="118.695"/><path class="cls-75" d="M291.935,99.975l3.548-6.839h2.666l-4.994,9.177v5.814h-2.461V102.4l-4.973-9.259h2.666Z"/><path class="cls-75" d="M309.93,102.436a6.186,6.186,0,0,1-1.425,4.337,5.106,5.106,0,0,1-3.967,1.559,5.435,5.435,0,0,1-2.811-.718,4.738,4.738,0,0,1-1.876-2.061,7.023,7.023,0,0,1-.656-3.117,6.152,6.152,0,0,1,1.415-4.307,5.129,5.129,0,0,1,3.988-1.548,5,5,0,0,1,3.9,1.584A6.122,6.122,0,0,1,309.93,102.436Zm-8.254,0q0,3.927,2.9,3.927,2.87,0,2.871-3.927,0-3.887-2.893-3.886a2.466,2.466,0,0,0-2.2,1.005A5.117,5.117,0,0,0,301.676,102.436Z"/><path class="cls-75" d="M320.7,108.127l-.338-1.487h-.123a3.436,3.436,0,0,1-1.431,1.241,4.783,4.783,0,0,1-2.118.451,4.162,4.162,0,0,1-3.076-1.025A4.256,4.256,0,0,1,312.6,104.2V96.786h2.431v6.993a3.028,3.028,0,0,0,.533,1.953,2.031,2.031,0,0,0,1.671.652,2.664,2.664,0,0,0,2.231-.908,5.008,5.008,0,0,0,.711-3.04v-5.65h2.42v11.341Z"/><path class="cls-75" d="M331.782,96.581a5.833,5.833,0,0,1,1.2.1l-.235,2.246a4.569,4.569,0,0,0-1.067-.123,3.087,3.087,0,0,0-2.343.943,3.411,3.411,0,0,0-.9,2.451v5.927h-2.41V96.786h1.887l.318,2h.123a4.478,4.478,0,0,1,1.471-1.61A3.493,3.493,0,0,1,331.782,96.581Z"/><path class="cls-75" d="M340.8,93.136h4.451a8.444,8.444,0,0,1,4.475.9,3.161,3.161,0,0,1,1.379,2.851,3.449,3.449,0,0,1-.677,2.184,3.027,3.027,0,0,1-1.948,1.1v.1a3.871,3.871,0,0,1,2.322,1.174,3.546,3.546,0,0,1,.744,2.374,3.846,3.846,0,0,1-1.41,3.163,6.062,6.062,0,0,1-3.922,1.144H340.8Zm2.451,6.193h2.358a4.03,4.03,0,0,0,2.245-.487,1.863,1.863,0,0,0,.708-1.656,1.662,1.662,0,0,0-.763-1.528,4.778,4.778,0,0,0-2.425-.472h-2.123Zm0,1.989v4.748h2.6a3.822,3.822,0,0,0,2.322-.59,2.173,2.173,0,0,0,.785-1.861,1.977,1.977,0,0,0-.8-1.733,4.241,4.241,0,0,0-2.431-.564Z"/><path class="cls-75" d="M362.4,108.127l-.338-1.487h-.123a3.43,3.43,0,0,1-1.431,1.241,4.783,4.783,0,0,1-2.118.451,4.162,4.162,0,0,1-3.076-1.025A4.256,4.256,0,0,1,354.3,104.2V96.786h2.431v6.993a3.028,3.028,0,0,0,.533,1.953,2.031,2.031,0,0,0,1.671.652,2.664,2.664,0,0,0,2.231-.908,5.007,5.007,0,0,0,.712-3.04v-5.65H364.3v11.341Z"/><path class="cls-75" d="M375.352,104.9a2.967,2.967,0,0,1-1.211,2.548,5.787,5.787,0,0,1-3.465.887,8.185,8.185,0,0,1-3.64-.687v-2.082a8.926,8.926,0,0,0,3.722.923q2.224,0,2.225-1.343a1.066,1.066,0,0,0-.246-.718,2.945,2.945,0,0,0-.811-.595,13.975,13.975,0,0,0-1.568-.7,7.261,7.261,0,0,1-2.65-1.517,2.806,2.806,0,0,1-.693-1.969,2.587,2.587,0,0,1,1.174-2.261,5.578,5.578,0,0,1,3.194-.8,9.05,9.05,0,0,1,3.784.81l-.78,1.815a8.409,8.409,0,0,0-3.086-.759q-1.906,0-1.907,1.087a1.093,1.093,0,0,0,.5.9,10.916,10.916,0,0,0,2.169,1.016,9.876,9.876,0,0,1,2.04.994,2.975,2.975,0,0,1,.944,1.041A3.013,3.013,0,0,1,375.352,104.9Z"/><path class="cls-75" d="M377.812,93.782a1.333,1.333,0,0,1,.354-.995,1.38,1.38,0,0,1,1.01-.349,1.355,1.355,0,0,1,.99.349,1.337,1.337,0,0,1,.353.995,1.313,1.313,0,0,1-.353.969,1.345,1.345,0,0,1-.99.353,1.369,1.369,0,0,1-1.01-.353A1.309,1.309,0,0,1,377.812,93.782Zm2.554,14.345h-2.41V96.786h2.41Z"/><path class="cls-75" d="M393.788,108.127h-2.42v-6.973a3.049,3.049,0,0,0-.528-1.958,2.04,2.04,0,0,0-1.676-.646,2.666,2.666,0,0,0-2.236.9,4.988,4.988,0,0,0-.707,3.025v5.65h-2.41V96.786H385.7l.338,1.487h.123a3.353,3.353,0,0,1,1.457-1.251,4.872,4.872,0,0,1,2.092-.441q4.079,0,4.08,4.153Z"/><path class="cls-75" d="M402.094,108.332a5.484,5.484,0,0,1-4.137-1.543,5.859,5.859,0,0,1-1.493-4.251,6.433,6.433,0,0,1,1.384-4.368,4.787,4.787,0,0,1,3.805-1.589,4.674,4.674,0,0,1,3.548,1.364,5.211,5.211,0,0,1,1.3,3.753V103h-7.557a3.718,3.718,0,0,0,.893,2.538,3.1,3.1,0,0,0,2.368.887,8.7,8.7,0,0,0,1.871-.19,9.764,9.764,0,0,0,1.861-.631v1.959a7.455,7.455,0,0,1-1.784.595A10.966,10.966,0,0,1,402.094,108.332Zm-.441-9.926a2.423,2.423,0,0,0-1.841.728,3.475,3.475,0,0,0-.825,2.123h5.147a3.138,3.138,0,0,0-.676-2.128A2.315,2.315,0,0,0,401.653,98.406Z"/><path class="cls-75" d="M416.86,104.9a2.967,2.967,0,0,1-1.211,2.548,5.789,5.789,0,0,1-3.465.887,8.182,8.182,0,0,1-3.64-.687v-2.082a8.926,8.926,0,0,0,3.722.923q2.224,0,2.225-1.343a1.066,1.066,0,0,0-.246-.718,2.945,2.945,0,0,0-.811-.595,13.975,13.975,0,0,0-1.568-.7,7.268,7.268,0,0,1-2.651-1.517,2.81,2.81,0,0,1-.692-1.969,2.587,2.587,0,0,1,1.174-2.261,5.578,5.578,0,0,1,3.194-.8,9.042,9.042,0,0,1,3.783.81l-.779,1.815a8.409,8.409,0,0,0-3.086-.759q-1.906,0-1.907,1.087a1.093,1.093,0,0,0,.5.9,10.916,10.916,0,0,0,2.169,1.016,9.876,9.876,0,0,1,2.04.994,2.972,2.972,0,0,1,.943,1.041A3.013,3.013,0,0,1,416.86,104.9Z"/><path class="cls-75" d="M427.083,104.9a2.97,2.97,0,0,1-1.211,2.548,5.789,5.789,0,0,1-3.465.887,8.187,8.187,0,0,1-3.641-.687v-2.082a8.927,8.927,0,0,0,3.723.923q2.223,0,2.225-1.343a1.067,1.067,0,0,0-.247-.718,2.937,2.937,0,0,0-.81-.595,14.059,14.059,0,0,0-1.568-.7,7.268,7.268,0,0,1-2.651-1.517,2.805,2.805,0,0,1-.692-1.969,2.585,2.585,0,0,1,1.174-2.261,5.576,5.576,0,0,1,3.194-.8,9.042,9.042,0,0,1,3.783.81l-.779,1.815a8.413,8.413,0,0,0-3.086-.759q-1.908,0-1.907,1.087a1.093,1.093,0,0,0,.5.9,10.887,10.887,0,0,0,2.169,1.016,9.9,9.9,0,0,1,2.04.994,2.972,2.972,0,0,1,.943,1.041A3.013,3.013,0,0,1,427.083,104.9Z"/><path class="cls-76" d="M304.344,257.385a8.2,8.2,0,0,1-1.831,5.691,7.692,7.692,0,0,1-10.4.015,8.254,8.254,0,0,1-1.82-5.727,8.12,8.12,0,0,1,1.831-5.7,6.741,6.741,0,0,1,5.223-1.989,6.606,6.606,0,0,1,5.168,2.02A8.189,8.189,0,0,1,304.344,257.385Zm-11.443,0a6.72,6.72,0,0,0,1.117,4.2,4.548,4.548,0,0,0,6.609.016,8.517,8.517,0,0,0,.01-8.4,3.9,3.9,0,0,0-3.287-1.425,3.978,3.978,0,0,0-3.327,1.425A6.662,6.662,0,0,0,292.9,257.385Z"/><path class="cls-76" d="M315.305,264.9l-.338-1.487h-.123a3.433,3.433,0,0,1-1.43,1.241,4.8,4.8,0,0,1-2.118.451,4.159,4.159,0,0,1-3.077-1.026,4.256,4.256,0,0,1-1.014-3.106V253.56h2.43v6.993a3.022,3.022,0,0,0,.534,1.953,2.029,2.029,0,0,0,1.67.652,2.664,2.664,0,0,0,2.231-.908,5,5,0,0,0,.712-3.04v-5.65h2.42V264.9Z"/><path class="cls-76" d="M326.389,253.355a5.826,5.826,0,0,1,1.2.1l-.235,2.246a4.561,4.561,0,0,0-1.066-.123,3.087,3.087,0,0,0-2.344.943,3.411,3.411,0,0,0-.9,2.451V264.9h-2.41V253.56h1.887l.318,2h.123a4.492,4.492,0,0,1,1.471-1.609A3.5,3.5,0,0,1,326.389,253.355Z"/><path class="cls-76" d="M341.883,264.9l-4.347-12.52h-.082q.174,2.789.175,5.229V264.9H335.4V249.91h3.456l4.163,11.925h.062l4.286-11.925h3.466V264.9h-2.359v-7.414q0-1.118.057-2.912t.1-2.174h-.082l-4.5,12.5Z"/><path class="cls-76" d="M364.586,259.21a6.19,6.19,0,0,1-1.425,4.337,5.108,5.108,0,0,1-3.968,1.559,5.435,5.435,0,0,1-2.811-.718,4.738,4.738,0,0,1-1.876-2.061,7.026,7.026,0,0,1-.656-3.117,6.15,6.15,0,0,1,1.415-4.307,5.132,5.132,0,0,1,3.989-1.548,5,5,0,0,1,3.9,1.584A6.122,6.122,0,0,1,364.586,259.21Zm-8.254,0q0,3.927,2.9,3.927,2.87,0,2.871-3.927,0-3.886-2.892-3.886a2.467,2.467,0,0,0-2.2,1A5.116,5.116,0,0,0,356.332,259.21Z"/><path class="cls-76" d="M371.178,265.106a3.951,3.951,0,0,1-3.311-1.538,8.425,8.425,0,0,1,.015-8.659,3.983,3.983,0,0,1,3.337-1.554,3.91,3.91,0,0,1,3.405,1.651h.123a14.308,14.308,0,0,1-.174-1.928v-4.132h2.42V264.9h-1.887l-.42-1.487h-.113A3.854,3.854,0,0,1,371.178,265.106Zm.647-1.948a2.624,2.624,0,0,0,2.164-.836,4.4,4.4,0,0,0,.7-2.712v-.339a5.09,5.09,0,0,0-.7-3.045,2.587,2.587,0,0,0-2.185-.9,2.214,2.214,0,0,0-1.958,1.03,5.273,5.273,0,0,0-.687,2.938,5.141,5.141,0,0,0,.666,2.876A2.25,2.25,0,0,0,371.825,263.158Z"/><path class="cls-76" d="M388.436,264.9l-.338-1.487h-.123a3.433,3.433,0,0,1-1.43,1.241,4.8,4.8,0,0,1-2.119.451,4.158,4.158,0,0,1-3.076-1.026,4.251,4.251,0,0,1-1.014-3.106V253.56h2.43v6.993a3.028,3.028,0,0,0,.533,1.953,2.033,2.033,0,0,0,1.671.652,2.664,2.664,0,0,0,2.231-.908,5.007,5.007,0,0,0,.712-3.04v-5.65h2.42V264.9Z"/><path class="cls-76" d="M396.178,264.9h-2.41V248.946h2.41Z"/><path class="cls-76" d="M404.577,265.106a5.485,5.485,0,0,1-4.138-1.543,5.858,5.858,0,0,1-1.492-4.251,6.433,6.433,0,0,1,1.384-4.368,4.785,4.785,0,0,1,3.8-1.589,4.671,4.671,0,0,1,3.548,1.364,5.211,5.211,0,0,1,1.3,3.753v1.3h-7.557a3.723,3.723,0,0,0,.893,2.538,3.105,3.105,0,0,0,2.368.887,8.7,8.7,0,0,0,1.871-.19,9.8,9.8,0,0,0,1.862-.631v1.959a7.447,7.447,0,0,1-1.785.6A10.955,10.955,0,0,1,404.577,265.106Zm-.442-9.926a2.421,2.421,0,0,0-1.84.728,3.473,3.473,0,0,0-.826,2.123h5.148a3.138,3.138,0,0,0-.677-2.128A2.314,2.314,0,0,0,404.135,255.18Z"/><path class="cls-76" d="M419.342,261.671a2.967,2.967,0,0,1-1.211,2.548,5.79,5.79,0,0,1-3.464.887,8.187,8.187,0,0,1-3.641-.687v-2.082a8.927,8.927,0,0,0,3.723.923q2.223,0,2.224-1.343a1.066,1.066,0,0,0-.246-.718,2.917,2.917,0,0,0-.81-.6,14,14,0,0,0-1.569-.7,7.27,7.27,0,0,1-2.65-1.517,2.808,2.808,0,0,1-.693-1.969,2.587,2.587,0,0,1,1.174-2.261,5.574,5.574,0,0,1,3.2-.805,9.046,9.046,0,0,1,3.783.81l-.779,1.815a8.413,8.413,0,0,0-3.086-.759q-1.908,0-1.908,1.087a1.094,1.094,0,0,0,.5.9,10.961,10.961,0,0,0,2.169,1.015,9.894,9.894,0,0,1,2.04,1,2.975,2.975,0,0,1,.944,1.041A3.013,3.013,0,0,1,419.342,261.671Z"/><path class="cls-38" d="M246.578,279.509h.975l-4.807,12.85h-.791l-4.79-12.85h.958l3.234,8.745q.738,1.978.993,2.971.176-.659.695-2.048Z"/><path class="cls-38" d="M253.011,292.535a4.161,4.161,0,0,1-3.247-1.284,5.152,5.152,0,0,1-1.165-3.594A5.6,5.6,0,0,1,249.724,284a3.713,3.713,0,0,1,3.032-1.375,3.276,3.276,0,0,1,2.664,1.177,4.866,4.866,0,0,1,.975,3.2v.7h-6.882a4.517,4.517,0,0,0,.919,3,3.229,3.229,0,0,0,2.579,1.038,8,8,0,0,0,1.437-.115,8.7,8.7,0,0,0,1.569-.492v.791a6.963,6.963,0,0,1-1.494.479A8.288,8.288,0,0,1,253.011,292.535Zm-.255-9.141a2.859,2.859,0,0,0-2.214.91,4.289,4.289,0,0,0-.976,2.623h5.906a4.169,4.169,0,0,0-.72-2.6A2.379,2.379,0,0,0,252.756,283.394Z"/><path class="cls-38" d="M262.794,282.621a7.474,7.474,0,0,1,1.3.123l-.167.835a5.065,5.065,0,0,0-1.239-.15,2.409,2.409,0,0,0-2,1.037,4.233,4.233,0,0,0-.782,2.619v5.274h-.87v-9.554h.738l.088,1.723h.062a4.047,4.047,0,0,1,1.256-1.481A2.95,2.95,0,0,1,262.794,282.621Z"/><path class="cls-38" d="M268.559,291.761a6.585,6.585,0,0,0,1.442-.14v.7a4.634,4.634,0,0,1-1.459.211,2.38,2.38,0,0,1-1.869-.677,3.143,3.143,0,0,1-.6-2.127v-6.17h-1.415v-.51l1.415-.395.439-2.162h.449v2.311h2.8v.756h-2.8v6.047a2.768,2.768,0,0,0,.386,1.626A1.405,1.405,0,0,0,268.559,291.761Z"/><path class="cls-38" d="M271.943,280.151q0-.844.554-.844a.492.492,0,0,1,.426.22,1.081,1.081,0,0,1,.154.624,1.112,1.112,0,0,1-.154.624.488.488,0,0,1-.426.228Q271.944,281,271.943,280.151Zm.993,12.208h-.87v-9.554h.87Z"/><path class="cls-38" d="M279.95,292.535a4.092,4.092,0,0,1-3.208-1.292,5.2,5.2,0,0,1-1.16-3.6,5.291,5.291,0,0,1,1.2-3.7,4.233,4.233,0,0,1,3.3-1.322,6.63,6.63,0,0,1,2.373.43l-.238.774a6.946,6.946,0,0,0-2.153-.413A3.269,3.269,0,0,0,277.4,284.5a4.755,4.755,0,0,0-.905,3.124,4.61,4.61,0,0,0,.905,3.028,3.1,3.1,0,0,0,2.531,1.1,6.223,6.223,0,0,0,2.417-.466v.808A5.472,5.472,0,0,1,279.95,292.535Z"/><path class="cls-38" d="M290.488,292.359l-.22-1.512h-.07a4.547,4.547,0,0,1-1.482,1.305,3.947,3.947,0,0,1-1.8.383,3.113,3.113,0,0,1-2.189-.721,2.581,2.581,0,0,1-.782-2,2.461,2.461,0,0,1,1.164-2.171,6.335,6.335,0,0,1,3.371-.818l1.819-.052v-.633a3.252,3.252,0,0,0-.553-2.057,2.148,2.148,0,0,0-1.785-.694,5.975,5.975,0,0,0-2.751.738l-.325-.756a7.284,7.284,0,0,1,3.112-.738,3.1,3.1,0,0,1,2.35.817A3.586,3.586,0,0,1,291.13,286v6.355Zm-3.516-.615a3.043,3.043,0,0,0,3.3-3.305V287.5l-1.67.071a6.314,6.314,0,0,0-2.87.628,1.813,1.813,0,0,0-.856,1.657,1.776,1.776,0,0,0,.55,1.393A2.228,2.228,0,0,0,286.972,291.744Z"/><path class="cls-38" d="M295.093,292.359h-.87V278.683h.87Z"/><path class="cls-38" d="M299.163,292.359h-.87V278.683h.87Z"/><path class="cls-38" d="M300.762,282.805h.9l2.021,5.361q.924,2.47,1.169,3.331h.053q.369-1.132,1.2-3.383l2.022-5.309h.9l-4.28,11.1a8.708,8.708,0,0,1-.87,1.828,2.336,2.336,0,0,1-.823.712,2.5,2.5,0,0,1-1.137.237,3.933,3.933,0,0,1-1.117-.185v-.755a4.156,4.156,0,0,0,1.1.14,1.473,1.473,0,0,0,.791-.211,1.965,1.965,0,0,0,.62-.655,8.6,8.6,0,0,0,.641-1.406q.365-.961.471-1.252Z"/><path class="cls-38" d="M315.519,292.359v-12.85h.9v12.85Z"/><path class="cls-38" d="M326.5,292.359v-6.2a3.021,3.021,0,0,0-.607-2.1,2.449,2.449,0,0,0-1.881-.654,3.252,3.252,0,0,0-2.508.865,4.071,4.071,0,0,0-.8,2.808v5.274h-.87v-9.554h.738l.167,1.31h.053a3.59,3.59,0,0,1,3.313-1.494q3.252,0,3.252,3.489v6.249Z"/><path class="cls-38" d="M332.974,291.761a6.585,6.585,0,0,0,1.442-.14v.7a4.634,4.634,0,0,1-1.459.211,2.376,2.376,0,0,1-1.868-.677,3.138,3.138,0,0,1-.6-2.127v-6.17h-1.415v-.51l1.415-.395.439-2.162h.449v2.311h2.8v.756h-2.8v6.047a2.768,2.768,0,0,0,.386,1.626A1.405,1.405,0,0,0,332.974,291.761Z"/><path class="cls-38" d="M340.339,292.535a4.161,4.161,0,0,1-3.247-1.284,5.152,5.152,0,0,1-1.165-3.594A5.6,5.6,0,0,1,337.052,284a3.714,3.714,0,0,1,3.033-1.375,3.274,3.274,0,0,1,2.663,1.177,4.866,4.866,0,0,1,.975,3.2v.7h-6.882a4.517,4.517,0,0,0,.919,3,3.229,3.229,0,0,0,2.579,1.038,8,8,0,0,0,1.437-.115,8.671,8.671,0,0,0,1.569-.492v.791a6.963,6.963,0,0,1-1.494.479A8.288,8.288,0,0,1,340.339,292.535Zm-.254-9.141a2.86,2.86,0,0,0-2.215.91,4.289,4.289,0,0,0-.976,2.623H342.8a4.169,4.169,0,0,0-.72-2.6A2.379,2.379,0,0,0,340.085,283.394Z"/><path class="cls-38" d="M353.813,282.805v.607l-1.977.123a3.376,3.376,0,0,1,.791,2.162,2.917,2.917,0,0,1-.919,2.236,3.467,3.467,0,0,1-2.465.857,5.4,5.4,0,0,1-.914-.052,2.258,2.258,0,0,0-.791.641,1.294,1.294,0,0,0-.273.783.721.721,0,0,0,.347.667,2.361,2.361,0,0,0,1.165.211h1.67a3.878,3.878,0,0,1,2.382.629,2.189,2.189,0,0,1,.826,1.859,2.643,2.643,0,0,1-1.227,2.333,6.246,6.246,0,0,1-3.493.822,4.8,4.8,0,0,1-2.79-.694,2.23,2.23,0,0,1-.989-1.934,2.3,2.3,0,0,1,.61-1.635,3.168,3.168,0,0,1,1.657-.887,1.691,1.691,0,0,1-.69-.523,1.244,1.244,0,0,1-.259-.778,2.045,2.045,0,0,1,1.222-1.688,2.722,2.722,0,0,1-1.3-1.076,3.081,3.081,0,0,1-.466-1.683,3.027,3.027,0,0,1,.91-2.3,3.417,3.417,0,0,1,2.457-.865,4.538,4.538,0,0,1,1.459.184Zm-7.734,11.171q0,1.968,2.926,1.969,3.762,0,3.762-2.4a1.382,1.382,0,0,0-.589-1.248,3.582,3.582,0,0,0-1.907-.386h-1.564Q346.079,291.911,346.079,293.976Zm.729-8.191a2.2,2.2,0,0,0,.673,1.718,3.007,3.007,0,0,0,3.629,0,2.312,2.312,0,0,0,.638-1.758,2.386,2.386,0,0,0-.656-1.832,2.581,2.581,0,0,0-1.832-.611,2.422,2.422,0,0,0-1.8.655A2.459,2.459,0,0,0,346.808,285.785Z"/><path class="cls-38" d="M359.535,282.621a7.485,7.485,0,0,1,1.3.123l-.167.835a5.079,5.079,0,0,0-1.24-.15,2.409,2.409,0,0,0-2,1.037,4.233,4.233,0,0,0-.782,2.619v5.274h-.87v-9.554h.738l.088,1.723h.062a4.039,4.039,0,0,1,1.257-1.481A2.944,2.944,0,0,1,359.535,282.621Z"/><path class="cls-38" d="M368.579,292.359l-.22-1.512h-.07a4.547,4.547,0,0,1-1.482,1.305,3.951,3.951,0,0,1-1.8.383,3.111,3.111,0,0,1-2.188-.721,2.577,2.577,0,0,1-.782-2,2.459,2.459,0,0,1,1.164-2.171,6.335,6.335,0,0,1,3.371-.818l1.819-.052v-.633a3.245,3.245,0,0,0-.554-2.057,2.145,2.145,0,0,0-1.784-.694,5.975,5.975,0,0,0-2.751.738l-.325-.756a7.283,7.283,0,0,1,3.111-.738,3.1,3.1,0,0,1,2.351.817A3.586,3.586,0,0,1,369.22,286v6.355Zm-3.516-.615a3.043,3.043,0,0,0,3.3-3.305V287.5l-1.67.071a6.314,6.314,0,0,0-2.87.628,1.813,1.813,0,0,0-.856,1.657,1.778,1.778,0,0,0,.549,1.393A2.232,2.232,0,0,0,365.063,291.744Z"/><path class="cls-38" d="M374.837,291.761a6.575,6.575,0,0,0,1.441-.14v.7a4.629,4.629,0,0,1-1.459.211,2.376,2.376,0,0,1-1.868-.677,3.138,3.138,0,0,1-.6-2.127v-6.17h-1.415v-.51l1.415-.395.44-2.162h.448v2.311h2.8v.756h-2.8v6.047a2.76,2.76,0,0,0,.387,1.626A1.4,1.4,0,0,0,374.837,291.761Z"/><path class="cls-38" d="M382.2,292.535a4.158,4.158,0,0,1-3.247-1.284,5.147,5.147,0,0,1-1.165-3.594A5.6,5.6,0,0,1,378.915,284a3.712,3.712,0,0,1,3.032-1.375,3.273,3.273,0,0,1,2.663,1.177,4.866,4.866,0,0,1,.976,3.2v.7H378.7a4.506,4.506,0,0,0,.919,3,3.228,3.228,0,0,0,2.579,1.038,7.991,7.991,0,0,0,1.436-.115,8.7,8.7,0,0,0,1.57-.492v.791a6.963,6.963,0,0,1-1.494.479A8.3,8.3,0,0,1,382.2,292.535Zm-.255-9.141a2.861,2.861,0,0,0-2.215.91,4.289,4.289,0,0,0-.976,2.623h5.907a4.169,4.169,0,0,0-.721-2.6A2.376,2.376,0,0,0,381.947,283.394Z"/><path class="cls-38" d="M391.72,282.621a3.965,3.965,0,0,1,1.793.377,3.576,3.576,0,0,1,1.354,1.292h.053q-.054-1.107-.053-2.17v-3.437h.861v13.676h-.571l-.22-1.459h-.07a3.536,3.536,0,0,1-3.129,1.635,3.752,3.752,0,0,1-3.024-1.231,5.4,5.4,0,0,1-1.045-3.586,5.987,5.987,0,0,1,1.037-3.788A3.615,3.615,0,0,1,391.72,282.621Zm0,.791a2.7,2.7,0,0,0-2.351,1.1,5.442,5.442,0,0,0-.786,3.191q0,4.06,3.155,4.06a2.863,2.863,0,0,0,2.373-.94,4.991,4.991,0,0,0,.756-3.1v-.149a5.325,5.325,0,0,0-.742-3.186A2.836,2.836,0,0,0,391.72,283.412Z"/><path class="cls-38" d="M404.728,292.359h-.9v-12.85h7.04v.826h-6.144v5.45h5.8v.835h-5.8Z"/><path class="cls-38" d="M412.524,280.151q0-.844.554-.844a.5.5,0,0,1,.427.22,1.089,1.089,0,0,1,.153.624,1.12,1.12,0,0,1-.153.624.49.49,0,0,1-.427.228Q412.525,281,412.524,280.151Zm.993,12.208h-.87v-9.554h.87Z"/><path class="cls-38" d="M423.379,292.359v-6.2a3.026,3.026,0,0,0-.607-2.1,2.449,2.449,0,0,0-1.881-.654,3.256,3.256,0,0,0-2.509.865,4.077,4.077,0,0,0-.8,2.808v5.274h-.871v-9.554h.739l.167,1.31h.052a3.592,3.592,0,0,1,3.314-1.494q3.252,0,3.252,3.489v6.249Z"/><path class="cls-38" d="M433.134,292.359l-.219-1.512h-.071a4.534,4.534,0,0,1-1.481,1.305,3.954,3.954,0,0,1-1.8.383,3.111,3.111,0,0,1-2.188-.721,2.578,2.578,0,0,1-.783-2,2.461,2.461,0,0,1,1.164-2.171,6.34,6.34,0,0,1,3.371-.818l1.82-.052v-.633a3.251,3.251,0,0,0-.554-2.057,2.146,2.146,0,0,0-1.784-.694,5.968,5.968,0,0,0-2.751.738l-.325-.756a7.283,7.283,0,0,1,3.111-.738,3.1,3.1,0,0,1,2.351.817,3.59,3.59,0,0,1,.778,2.549v6.355Zm-3.515-.615a3.043,3.043,0,0,0,3.3-3.305V287.5l-1.67.071a6.314,6.314,0,0,0-2.87.628,1.812,1.812,0,0,0-.857,1.657,1.779,1.779,0,0,0,.55,1.393A2.23,2.23,0,0,0,429.619,291.744Z"/><path class="cls-38" d="M443.532,292.359v-6.2a3.021,3.021,0,0,0-.607-2.1,2.448,2.448,0,0,0-1.88-.654,3.253,3.253,0,0,0-2.509.865,4.077,4.077,0,0,0-.8,2.808v5.274h-.87v-9.554h.738l.167,1.31h.053a3.59,3.59,0,0,1,3.313-1.494q3.252,0,3.252,3.489v6.249Z"/><path class="cls-38" d="M451.3,292.535a4.093,4.093,0,0,1-3.208-1.292,5.208,5.208,0,0,1-1.16-3.6,5.3,5.3,0,0,1,1.2-3.7,4.234,4.234,0,0,1,3.3-1.322,6.63,6.63,0,0,1,2.373.43l-.237.774a6.946,6.946,0,0,0-2.153-.413,3.268,3.268,0,0,0-2.663,1.085,4.756,4.756,0,0,0-.906,3.124,4.61,4.61,0,0,0,.906,3.028,3.1,3.1,0,0,0,2.531,1.1,6.223,6.223,0,0,0,2.417-.466v.808A5.477,5.477,0,0,1,451.3,292.535Z"/><path class="cls-38" d="M455.916,280.151q0-.844.553-.844a.492.492,0,0,1,.427.22,1.081,1.081,0,0,1,.153.624,1.112,1.112,0,0,1-.153.624.488.488,0,0,1-.427.228Q455.916,281,455.916,280.151Zm.993,12.208h-.87v-9.554h.87Z"/><path class="cls-38" d="M465.909,292.359l-.22-1.512h-.07a4.547,4.547,0,0,1-1.482,1.305,3.951,3.951,0,0,1-1.8.383,3.111,3.111,0,0,1-2.188-.721,2.577,2.577,0,0,1-.782-2,2.459,2.459,0,0,1,1.164-2.171,6.335,6.335,0,0,1,3.371-.818l1.819-.052v-.633a3.252,3.252,0,0,0-.553-2.057,2.148,2.148,0,0,0-1.785-.694,5.975,5.975,0,0,0-2.751.738l-.325-.756a7.284,7.284,0,0,1,3.112-.738,3.1,3.1,0,0,1,2.35.817A3.586,3.586,0,0,1,466.55,286v6.355Zm-3.516-.615a3.043,3.043,0,0,0,3.3-3.305V287.5l-1.67.071a6.314,6.314,0,0,0-2.87.628,1.813,1.813,0,0,0-.856,1.657,1.778,1.778,0,0,0,.549,1.393A2.232,2.232,0,0,0,462.393,291.744Z"/><path class="cls-38" d="M470.514,292.359h-.87V278.683h.87Z"/><path class="cls-38" d="M285.993,313.959h-.9v-12h-4.175v-.845h9.255v.845h-4.175Z"/><path class="cls-38" d="M295.714,314.135a4.164,4.164,0,0,1-3.248-1.283,5.156,5.156,0,0,1-1.165-3.595,5.606,5.606,0,0,1,1.125-3.661,3.714,3.714,0,0,1,3.033-1.375,3.275,3.275,0,0,1,2.663,1.178,4.864,4.864,0,0,1,.975,3.2v.7h-6.882a4.518,4.518,0,0,0,.919,3.006,3.233,3.233,0,0,0,2.58,1.037,8.006,8.006,0,0,0,1.436-.114,8.671,8.671,0,0,0,1.569-.492v.791a7.012,7.012,0,0,1-1.494.478A8.285,8.285,0,0,1,295.714,314.135Zm-.255-9.14a2.859,2.859,0,0,0-2.215.909,4.289,4.289,0,0,0-.976,2.624h5.906a4.17,4.17,0,0,0-.72-2.6A2.378,2.378,0,0,0,295.459,305Z"/><path class="cls-38" d="M305.548,314.135a4.093,4.093,0,0,1-3.208-1.292,5.2,5.2,0,0,1-1.16-3.6,5.3,5.3,0,0,1,1.2-3.7,4.238,4.238,0,0,1,3.3-1.322,6.63,6.63,0,0,1,2.373.431l-.237.773a6.976,6.976,0,0,0-2.153-.413A3.268,3.268,0,0,0,303,306.1a4.758,4.758,0,0,0-.906,3.125,4.609,4.609,0,0,0,.906,3.027,3.1,3.1,0,0,0,2.531,1.095,6.2,6.2,0,0,0,2.417-.466v.809A5.475,5.475,0,0,1,305.548,314.135Z"/><path class="cls-38" d="M316.948,313.959v-6.2a3.021,3.021,0,0,0-.607-2.1,2.448,2.448,0,0,0-1.88-.654,3.253,3.253,0,0,0-2.509.865,4.079,4.079,0,0,0-.8,2.809v5.273h-.87V300.283h.87v4.351l-.044,1.222h.061a3.212,3.212,0,0,1,1.354-1.248,4.733,4.733,0,0,1,2.03-.387q3.252,0,3.252,3.489v6.249Z"/><path class="cls-38" d="M327.565,313.959v-6.2a3.026,3.026,0,0,0-.606-2.1,2.452,2.452,0,0,0-1.881-.654,3.253,3.253,0,0,0-2.509.865,4.079,4.079,0,0,0-.8,2.809v5.273h-.87v-9.553h.738l.167,1.309h.053a3.591,3.591,0,0,1,3.313-1.494q3.252,0,3.252,3.489v6.249Z"/><path class="cls-38" d="M339.422,309.169a5.411,5.411,0,0,1-1.134,3.652,3.915,3.915,0,0,1-3.129,1.314,4.055,4.055,0,0,1-2.215-.606,3.884,3.884,0,0,1-1.468-1.741,6.322,6.322,0,0,1-.51-2.619,5.377,5.377,0,0,1,1.134-3.643,3.907,3.907,0,0,1,3.112-1.305,3.836,3.836,0,0,1,3.089,1.322A5.44,5.44,0,0,1,339.422,309.169Zm-7.542,0a4.858,4.858,0,0,0,.867,3.072,3.266,3.266,0,0,0,4.894,0,4.864,4.864,0,0,0,.866-3.072,4.792,4.792,0,0,0-.874-3.067,2.972,2.972,0,0,0-2.457-1.09,2.927,2.927,0,0,0-2.439,1.085A4.862,4.862,0,0,0,331.88,309.169Z"/><path class="cls-38" d="M342.937,313.959h-.87V300.283h.87Z"/><path class="cls-38" d="M354.038,309.169a5.411,5.411,0,0,1-1.134,3.652,3.915,3.915,0,0,1-3.129,1.314,4.055,4.055,0,0,1-2.215-.606,3.89,3.89,0,0,1-1.468-1.741,6.338,6.338,0,0,1-.509-2.619,5.382,5.382,0,0,1,1.133-3.643,3.907,3.907,0,0,1,3.112-1.305,3.838,3.838,0,0,1,3.09,1.322A5.44,5.44,0,0,1,354.038,309.169Zm-7.541,0a4.858,4.858,0,0,0,.866,3.072,3.266,3.266,0,0,0,4.894,0,4.858,4.858,0,0,0,.867-3.072,4.792,4.792,0,0,0-.874-3.067,2.973,2.973,0,0,0-2.457-1.09,2.928,2.928,0,0,0-2.44,1.085A4.862,4.862,0,0,0,346.5,309.169Z"/><path class="cls-38" d="M364.136,304.406v.606l-1.977.123a3.376,3.376,0,0,1,.791,2.162,2.921,2.921,0,0,1-.919,2.237,3.47,3.47,0,0,1-2.465.857,5.367,5.367,0,0,1-.914-.053,2.28,2.28,0,0,0-.791.642,1.292,1.292,0,0,0-.272.782.724.724,0,0,0,.346.668,2.364,2.364,0,0,0,1.165.211h1.67a3.878,3.878,0,0,1,2.382.628,2.19,2.19,0,0,1,.826,1.859,2.644,2.644,0,0,1-1.226,2.333,6.251,6.251,0,0,1-3.494.823,4.8,4.8,0,0,1-2.79-.695,2.228,2.228,0,0,1-.989-1.933,2.293,2.293,0,0,1,.61-1.635,3.165,3.165,0,0,1,1.658-.888,1.7,1.7,0,0,1-.691-.523,1.244,1.244,0,0,1-.259-.778,2.046,2.046,0,0,1,1.222-1.687,2.734,2.734,0,0,1-1.3-1.077,3.076,3.076,0,0,1-.465-1.683,3.028,3.028,0,0,1,.909-2.3,3.419,3.419,0,0,1,2.457-.865,4.529,4.529,0,0,1,1.459.185ZM356.4,315.577q0,1.968,2.927,1.968,3.762,0,3.761-2.4a1.384,1.384,0,0,0-.588-1.248,3.587,3.587,0,0,0-1.908-.387H359.03Q356.4,313.511,356.4,315.577Zm.729-8.192a2.2,2.2,0,0,0,.673,1.718,3.009,3.009,0,0,0,3.629,0,2.312,2.312,0,0,0,.638-1.758,2.392,2.392,0,0,0-.655-1.833,2.584,2.584,0,0,0-1.832-.61,2.423,2.423,0,0,0-1.8.654A2.46,2.46,0,0,0,357.131,307.385Z"/><path class="cls-38" d="M364.5,304.406h.9l2.022,5.361q.922,2.469,1.169,3.331h.052q.369-1.134,1.2-3.384l2.022-5.308h.9l-4.28,11.1a8.656,8.656,0,0,1-.87,1.828,2.323,2.323,0,0,1-.822.712,2.508,2.508,0,0,1-1.138.238,3.921,3.921,0,0,1-1.116-.185v-.756a4.107,4.107,0,0,0,1.1.141,1.488,1.488,0,0,0,.792-.211,2,2,0,0,0,.62-.655,8.758,8.758,0,0,0,.64-1.407c.243-.641.4-1.058.471-1.252Z"/><path class="cls-38" d="M386.346,310.646a3.087,3.087,0,0,1-1.181,2.549,4.905,4.905,0,0,1-3.143.94,9.859,9.859,0,0,1-3.612-.518v-.9a9.131,9.131,0,0,0,3.542.589,3.972,3.972,0,0,0,2.51-.726,2.3,2.3,0,0,0,.926-1.9,2.2,2.2,0,0,0-.307-1.209,2.81,2.81,0,0,0-1-.874,12.3,12.3,0,0,0-2.039-.852,7,7,0,0,1-2.721-1.464,2.913,2.913,0,0,1-.751-2.1,2.881,2.881,0,0,1,1.13-2.352,4.484,4.484,0,0,1,2.9-.909,8.507,8.507,0,0,1,3.4.685l-.326.774a7.938,7.938,0,0,0-3.058-.668,3.592,3.592,0,0,0-2.268.659,2.157,2.157,0,0,0-.844,1.793,2.334,2.334,0,0,0,.26,1.169,2.377,2.377,0,0,0,.848.822,11.6,11.6,0,0,0,2.021.875,10.883,10.883,0,0,1,2.259,1,3.241,3.241,0,0,1,1.1,1.108A3.029,3.029,0,0,1,386.346,310.646Z"/><path class="cls-38" d="M391.365,313.362a6.5,6.5,0,0,0,1.441-.141v.7a4.6,4.6,0,0,1-1.459.211,2.374,2.374,0,0,1-1.868-.677,3.143,3.143,0,0,1-.6-2.127v-6.169h-1.415v-.51l1.415-.4.439-2.162h.448v2.312h2.8v.756h-2.8v6.046a2.756,2.756,0,0,0,.387,1.626A1.4,1.4,0,0,0,391.365,313.362Z"/><path class="cls-38" d="M400.672,313.959l-.219-1.511h-.071a4.53,4.53,0,0,1-1.481,1.3,3.951,3.951,0,0,1-1.8.383,3.106,3.106,0,0,1-2.188-.721,2.575,2.575,0,0,1-.783-2,2.464,2.464,0,0,1,1.164-2.171,6.342,6.342,0,0,1,3.372-.817l1.819-.053v-.632a3.249,3.249,0,0,0-.554-2.057A2.146,2.146,0,0,0,398.15,305a5.968,5.968,0,0,0-2.751.738l-.325-.756a7.283,7.283,0,0,1,3.111-.738,3.1,3.1,0,0,1,2.351.817,3.59,3.59,0,0,1,.778,2.549v6.354Zm-3.515-.615a3.043,3.043,0,0,0,3.3-3.305v-.94l-1.67.07a6.327,6.327,0,0,0-2.87.628,1.812,1.812,0,0,0-.857,1.657,1.779,1.779,0,0,0,.55,1.393A2.23,2.23,0,0,0,397.157,313.344Z"/><path class="cls-38" d="M408.222,314.135a4.093,4.093,0,0,1-3.208-1.292,5.2,5.2,0,0,1-1.16-3.6,5.293,5.293,0,0,1,1.2-3.7,4.238,4.238,0,0,1,3.3-1.322,6.63,6.63,0,0,1,2.373.431l-.237.773a6.976,6.976,0,0,0-2.153-.413,3.271,3.271,0,0,0-2.664,1.085,4.764,4.764,0,0,0-.905,3.125,4.614,4.614,0,0,0,.905,3.027,3.1,3.1,0,0,0,2.532,1.095,6.2,6.2,0,0,0,2.417-.466v.809A5.478,5.478,0,0,1,408.222,314.135Z"/><path class="cls-38" d="M413.812,309.767l4.878-5.361h1.055l-3.762,4.078,4.087,5.475h-1.046l-3.63-4.825-1.564,1.424v3.4h-.87V300.283h.87v6.856l-.062,2.628Z"/><path class="cls-38" d="M427.593,311.472a2.271,2.271,0,0,1-.975,1.973,4.75,4.75,0,0,1-2.769.69,6.6,6.6,0,0,1-3.041-.589v-.94a6.719,6.719,0,0,0,3.041.721,4.016,4.016,0,0,0,2.149-.471,1.431,1.431,0,0,0,.734-1.252,1.527,1.527,0,0,0-.584-1.213,6.461,6.461,0,0,0-1.921-.967,10.971,10.971,0,0,1-2.013-.892,2.8,2.8,0,0,1-.875-.844,2.121,2.121,0,0,1-.293-1.147,1.957,1.957,0,0,1,.9-1.7,4.372,4.372,0,0,1,2.517-.624,7.535,7.535,0,0,1,2.936.58l-.325.791a6.883,6.883,0,0,0-2.611-.58,3.776,3.776,0,0,0-1.854.387,1.187,1.187,0,0,0-.686,1.072,1.479,1.479,0,0,0,.533,1.195,7.38,7.38,0,0,0,2.078,1,10.291,10.291,0,0,1,1.881.839,2.728,2.728,0,0,1,.882.849A2.066,2.066,0,0,1,427.593,311.472Z"/></svg>