<svg id="Layer_1" data-name="Layer 1" xmlns="http://www.w3.org/2000/svg" viewBox="0 0 400 173"><defs><style>.cls-1{fill:#3d3d3d;}.cls-2{fill:#797c7b;}</style></defs><path class="cls-1" d="M78.721,107.541l35.024.069a8.011,8.011,0,0,1,5.883,2.422,8.124,8.124,0,0,1,2.492,5.953v.139a8.118,8.118,0,0,1-2.492,5.952,8.008,8.008,0,0,1-5.883,2.423h-45.2q-8.168,0-11.421-7.683a13.587,13.587,0,0,1-1.246-5.468,11.973,11.973,0,0,1,3.946-8.583q6.783-7.06,20.626-21.6Q92.564,68.434,99,61.719H67.023a7.978,7.978,0,0,1-5.952-2.492,8.155,8.155,0,0,1-2.423-5.883v-.208a8.157,8.157,0,0,1,2.423-5.883,7.975,7.975,0,0,1,5.952-2.492H108.83q8.374,0,11.7,7.683a13.578,13.578,0,0,1,1.246,5.468,11.815,11.815,0,0,1-3.945,8.583Q95.4,90.029,78.721,107.541Z"/><path class="cls-1" d="M207.188,68.225a7.922,7.922,0,0,1,.277,6.438,7.953,7.953,0,0,1-4.43,4.706q-9.691,4.361-25.472,11.49-19.589,8.862-22.98,10.452,5.259,6.645,16.4,6.645a22.355,22.355,0,0,0,13.428-4.361,22.587,22.587,0,0,0,8.237-11.074,7.824,7.824,0,0,1,8.029-5.676,8.008,8.008,0,0,1,6.853,3.6,7.837,7.837,0,0,1,1.592,4.638,8.676,8.676,0,0,1-.554,2.976,38.14,38.14,0,0,1-14.328,19.1,39.706,39.706,0,0,1-51.428-4.153,38.4,38.4,0,0,1-11.7-28.171,38.406,38.406,0,0,1,11.7-28.172,39.681,39.681,0,0,1,49.905-5.191A38.8,38.8,0,0,1,207.188,68.225Zm-36.2-6.16a22.807,22.807,0,0,0-22.911,22.98v.485l38.693-17.374Q181.645,62.066,170.987,62.065Z"/><path class="cls-1" d="M256.055,44.969a8.127,8.127,0,0,1,5.953,2.491,8.243,8.243,0,0,1,2.422,5.953v.138a8.008,8.008,0,0,1-2.422,5.884,8.128,8.128,0,0,1-5.953,2.492H252.11a13.1,13.1,0,0,0-9.622,3.945,13.444,13.444,0,0,0-3.945,9.621v40.838a7.753,7.753,0,0,1-2.492,5.884,8.048,8.048,0,0,1-5.883,2.491h-.208a8.045,8.045,0,0,1-5.883-2.491,7.757,7.757,0,0,1-2.492-5.884V75.493A30.151,30.151,0,0,1,230.514,53.9a29.418,29.418,0,0,1,21.6-8.929Z"/><path class="cls-2" d="M335.2,59.782a1.759,1.759,0,0,0-.151-.261l0-.008-.019-.023a1.651,1.651,0,0,0-.131-.157,39.744,39.744,0,0,0-69.737,32.176c0,.042.012.084.02.126h0a1.658,1.658,0,0,0,.116.373l.006.026.007,0a1.7,1.7,0,0,0,2.1.883h.019l.128-.058,0,0,0,0,12.876-5.94,0,0h0l0,0,.039-.018v0a1.7,1.7,0,0,0,.936-1.63l.009-.011a22.923,22.923,0,0,1,38.15-17.561l.29.185v0a1.693,1.693,0,0,0,1.61.106h0l12.91-5.957v0A1.7,1.7,0,0,0,335.2,59.782Z"/><path class="cls-2" d="M273.543,109.751a1.68,1.68,0,0,0,.152.261v.008l.019.022a1.84,1.84,0,0,0,.132.158,39.744,39.744,0,0,0,69.676-32.308c-.005-.042-.012-.084-.02-.126h0a1.719,1.719,0,0,0-.116-.372l-.006-.026-.008,0a1.7,1.7,0,0,0-2.1-.879h-.019l-.128.059,0,0,0,0-12.865,5.965h0l0,0-.039.018v0a1.7,1.7,0,0,0-.933,1.632l-.009.011a22.924,22.924,0,0,1-38.117,17.633l-.29-.184h0a1.694,1.694,0,0,0-1.611-.1h0l-12.9,5.981h0A1.7,1.7,0,0,0,273.543,109.751Z"/></svg>