<svg xmlns="http://www.w3.org/2000/svg" viewBox="0 0 800 600"><defs><style>.cls-1{isolation:isolate;}.cls-2{fill:#3a3a8c;}.cls-3{fill:#303070;}.cls-4{fill:#797c7b;}.cls-5{opacity:0.2;mix-blend-mode:multiply;}.cls-6{fill:#fff;opacity:0;}.cls-7{fill:#fefefe;opacity:0.004;}.cls-8{fill:#fdfdfd;opacity:0.008;}.cls-9{fill:#fcfcfc;opacity:0.012;}.cls-10{fill:#fbfbfb;opacity:0.016;}.cls-11{fill:#fafafa;opacity:0.02;}.cls-12{fill:#f9f9f9;opacity:0.024;}.cls-13{fill:#f8f8f8;opacity:0.027;}.cls-14{fill:#f7f7f7;opacity:0.031;}.cls-15{fill:#f6f6f6;opacity:0.035;}.cls-16{fill:#f5f5f5;opacity:0.039;}.cls-17{fill:#f4f4f4;opacity:0.043;}.cls-18{fill:#f3f3f3;opacity:0.047;}.cls-19{fill:#f2f2f2;opacity:0.051;}.cls-20{fill:#f1f1f1;opacity:0.055;}.cls-21{fill:#f0f0f0;opacity:0.059;}.cls-22{fill:#efefef;opacity:0.063;}.cls-23{fill:#eee;opacity:0.067;}.cls-24{fill:#ededed;opacity:0.071;}.cls-25{fill:#ececec;opacity:0.075;}.cls-26{fill:#ebebeb;opacity:0.078;}.cls-27{fill:#eaeaea;opacity:0.082;}.cls-28{fill:#e9e9e9;opacity:0.086;}.cls-29{fill:#e8e8e8;opacity:0.09;}.cls-30{fill:#e7e7e7;opacity:0.094;}.cls-31{fill:#e6e6e6;opacity:0.098;}.cls-32{fill:#e5e5e5;opacity:0.102;}.cls-33{fill:#e4e4e4;opacity:0.106;}.cls-34{fill:#e3e3e3;opacity:0.11;}.cls-35{fill:#e2e2e2;opacity:0.114;}.cls-36{fill:#e1e1e1;opacity:0.118;}.cls-37{fill:#e0e0e0;opacity:0.122;}.cls-38{fill:#dfdfdf;opacity:0.125;}.cls-39{fill:#dedede;opacity:0.129;}.cls-40{fill:#ddd;opacity:0.133;}.cls-41{fill:#dcdcdc;opacity:0.137;}.cls-42{fill:#dbdbdb;opacity:0.141;}.cls-43{fill:#dadada;opacity:0.145;}.cls-44{fill:#d9d9d9;opacity:0.149;}.cls-45{fill:#d8d8d8;opacity:0.153;}.cls-46{fill:#d7d7d7;opacity:0.157;}.cls-47{fill:#d6d6d6;opacity:0.161;}.cls-48{fill:#d5d5d5;opacity:0.165;}.cls-49{fill:#d4d4d4;opacity:0.169;}.cls-50{fill:#d3d3d3;opacity:0.173;}.cls-51{fill:#d2d2d2;opacity:0.176;}.cls-52{fill:#d1d1d1;opacity:0.18;}.cls-53{fill:#d0d0d0;opacity:0.184;}.cls-54{fill:#cfcfcf;opacity:0.188;}.cls-55{fill:#cecece;opacity:0.192;}.cls-56{fill:#cdcdcd;opacity:0.196;}.cls-57{fill:#ccc;opacity:0.2;}.cls-58{fill:#cbcbcb;opacity:0.204;}.cls-59{fill:#cacaca;opacity:0.208;}.cls-60{fill:#c9c9c9;opacity:0.212;}.cls-61{fill:#c8c8c8;opacity:0.216;}.cls-62{fill:#c7c7c7;opacity:0.22;}.cls-63{fill:#c6c6c6;opacity:0.224;}.cls-64{fill:#c5c5c5;opacity:0.227;}.cls-65{fill:#c4c4c4;opacity:0.231;}.cls-66{fill:#c3c3c3;opacity:0.235;}.cls-67{fill:#c2c2c2;opacity:0.239;}.cls-68{fill:#c1c1c1;opacity:0.243;}.cls-69{fill:silver;opacity:0.247;}.cls-70{fill:#bfbfbf;opacity:0.251;}.cls-71{fill:#bebebe;opacity:0.255;}.cls-72{fill:#bdbdbd;opacity:0.259;}.cls-73{fill:#bcbcbc;opacity:0.263;}.cls-74{fill:#bbb;opacity:0.267;}.cls-75{fill:#bababa;opacity:0.271;}.cls-76{fill:#b9b9b9;opacity:0.275;}.cls-77{fill:#b8b8b8;opacity:0.278;}.cls-78{fill:#b7b7b7;opacity:0.282;}.cls-79{fill:#b6b6b6;opacity:0.286;}.cls-80{fill:#b5b5b5;opacity:0.29;}.cls-81{fill:#b4b4b4;opacity:0.294;}.cls-82{fill:#b3b3b3;opacity:0.298;}.cls-83{fill:#b2b2b2;opacity:0.302;}.cls-84{fill:#b1b1b1;opacity:0.306;}.cls-85{fill:#b0b0b0;opacity:0.31;}.cls-86{fill:#afafaf;opacity:0.314;}.cls-87{fill:#aeaeae;opacity:0.318;}.cls-88{fill:#adadad;opacity:0.322;}.cls-89{fill:#acacac;opacity:0.325;}.cls-90{fill:#ababab;opacity:0.329;}.cls-91{fill:#aaa;opacity:0.333;}.cls-92{fill:#a9a9a9;opacity:0.337;}.cls-93{fill:#a8a8a8;opacity:0.341;}.cls-94{fill:#a7a7a7;opacity:0.345;}.cls-95{fill:#a6a6a6;opacity:0.349;}.cls-96{fill:#a5a5a5;opacity:0.353;}.cls-97{fill:#a4a4a4;opacity:0.357;}.cls-98{fill:#a3a3a3;opacity:0.361;}.cls-99{fill:#a2a2a2;opacity:0.365;}.cls-100{fill:#a1a1a1;opacity:0.369;}.cls-101{fill:#a0a0a0;opacity:0.373;}.cls-102{fill:#9f9f9f;opacity:0.376;}.cls-103{fill:#9e9e9e;opacity:0.38;}.cls-104{fill:#9d9d9d;opacity:0.384;}.cls-105{fill:#9c9c9c;opacity:0.388;}.cls-106{fill:#9b9b9b;opacity:0.392;}.cls-107{fill:#9a9a9a;opacity:0.396;}.cls-108{fill:#999;opacity:0.4;}.cls-109{fill:#989898;opacity:0.404;}.cls-110{fill:#979797;opacity:0.408;}.cls-111{fill:#969696;opacity:0.412;}.cls-112{fill:#959595;opacity:0.416;}.cls-113{fill:#949494;opacity:0.42;}.cls-114{fill:#939393;opacity:0.424;}.cls-115{fill:#929292;opacity:0.427;}.cls-116{fill:#919191;opacity:0.431;}.cls-117{fill:#909090;opacity:0.435;}.cls-118{fill:#8f8f8f;opacity:0.439;}.cls-119{fill:#8e8e8e;opacity:0.443;}.cls-120{fill:#8d8d8d;opacity:0.447;}.cls-121{fill:#8c8c8c;opacity:0.451;}.cls-122{fill:#8b8b8b;opacity:0.455;}.cls-123{fill:#8a8a8a;opacity:0.459;}.cls-124{fill:#898989;opacity:0.463;}.cls-125{fill:#888;opacity:0.467;}.cls-126{fill:#878787;opacity:0.471;}.cls-127{fill:#868686;opacity:0.475;}.cls-128{fill:#858585;opacity:0.478;}.cls-129{fill:#848484;opacity:0.482;}.cls-130{fill:#838383;opacity:0.486;}.cls-131{fill:#828282;opacity:0.49;}.cls-132{fill:#818181;opacity:0.494;}.cls-133{fill:gray;opacity:0.498;}.cls-134{fill:#7f7f7f;opacity:0.502;}.cls-135{fill:#7e7e7e;opacity:0.506;}.cls-136{fill:#7d7d7d;opacity:0.51;}.cls-137{fill:#7c7c7c;opacity:0.514;}.cls-138{fill:#7b7b7b;opacity:0.518;}.cls-139{fill:#7a7a7a;opacity:0.522;}.cls-140{fill:#797979;opacity:0.525;}.cls-141{fill:#787878;opacity:0.529;}.cls-142{fill:#777;opacity:0.533;}.cls-143{fill:#767676;opacity:0.537;}.cls-144{fill:#757575;opacity:0.541;}.cls-145{fill:#747474;opacity:0.545;}.cls-146{fill:#737373;opacity:0.549;}.cls-147{fill:#727272;opacity:0.553;}.cls-148{fill:#717171;opacity:0.557;}.cls-149{fill:#707070;opacity:0.561;}.cls-150{fill:#6f6f6f;opacity:0.565;}.cls-151{fill:#6e6e6e;opacity:0.569;}.cls-152{fill:#6d6d6d;opacity:0.573;}.cls-153{fill:#6c6c6c;opacity:0.576;}.cls-154{fill:#6b6b6b;opacity:0.58;}.cls-155{fill:#6a6a6a;opacity:0.584;}.cls-156{fill:#696969;opacity:0.588;}.cls-157{fill:#686868;opacity:0.592;}.cls-158{fill:#676767;opacity:0.596;}.cls-159{fill:#666;opacity:0.6;}.cls-160{fill:#656565;opacity:0.604;}.cls-161{fill:#646464;opacity:0.608;}.cls-162{fill:#636363;opacity:0.612;}.cls-163{fill:#626262;opacity:0.616;}.cls-164{fill:#616161;opacity:0.62;}.cls-165{fill:#606060;opacity:0.624;}.cls-166{fill:#5f5f5f;opacity:0.627;}.cls-167{fill:#5e5e5e;opacity:0.631;}.cls-168{fill:#5d5d5d;opacity:0.635;}.cls-169{fill:#5c5c5c;opacity:0.639;}.cls-170{fill:#5b5b5b;opacity:0.643;}.cls-171{fill:#5a5a5a;opacity:0.647;}.cls-172{fill:#595959;opacity:0.651;}.cls-173{fill:#585858;opacity:0.655;}.cls-174{fill:#575757;opacity:0.659;}.cls-175{fill:#565656;opacity:0.663;}.cls-176{fill:#555;opacity:0.667;}.cls-177{fill:#545454;opacity:0.671;}.cls-178{fill:#535353;opacity:0.675;}.cls-179{fill:#525252;opacity:0.678;}.cls-180{fill:#515151;opacity:0.682;}.cls-181{fill:#505050;opacity:0.686;}.cls-182{fill:#4f4f4f;opacity:0.69;}.cls-183{fill:#4e4e4e;opacity:0.694;}.cls-184{fill:#4d4d4d;opacity:0.698;}.cls-185{fill:#4c4c4c;opacity:0.702;}.cls-186{fill:#4b4b4b;opacity:0.706;}.cls-187{fill:#4a4a4a;opacity:0.71;}.cls-188{fill:#494949;opacity:0.714;}.cls-189{fill:#484848;opacity:0.718;}.cls-190{fill:#474747;opacity:0.722;}.cls-191{fill:#464646;opacity:0.725;}.cls-192{fill:#454545;opacity:0.729;}.cls-193{fill:#444;opacity:0.733;}.cls-194{fill:#434343;opacity:0.737;}.cls-195{fill:#424242;opacity:0.741;}.cls-196{fill:#414141;opacity:0.745;}.cls-197{fill:#404040;opacity:0.749;}.cls-198{fill:#3f3f3f;opacity:0.753;}.cls-199{fill:#3e3e3e;opacity:0.757;}.cls-200{fill:#3d3d3d;opacity:0.761;}.cls-201{fill:#3c3c3c;opacity:0.765;}.cls-202{fill:#3b3b3b;opacity:0.769;}.cls-203{fill:#3a3a3a;opacity:0.773;}.cls-204{fill:#393939;opacity:0.776;}.cls-205{fill:#383838;opacity:0.78;}.cls-206{fill:#373737;opacity:0.784;}.cls-207{fill:#363636;opacity:0.788;}.cls-208{fill:#353535;opacity:0.792;}.cls-209{fill:#343434;opacity:0.796;}.cls-210{fill:#333;opacity:0.8;}.cls-211{fill:#323232;opacity:0.804;}.cls-212{fill:#313131;opacity:0.808;}.cls-213{fill:#303030;opacity:0.812;}.cls-214{fill:#2f2f2f;opacity:0.816;}.cls-215{fill:#2e2e2e;opacity:0.82;}.cls-216{fill:#2d2d2d;opacity:0.824;}.cls-217{fill:#2c2c2c;opacity:0.827;}.cls-218{fill:#2b2b2b;opacity:0.831;}.cls-219{fill:#2a2a2a;opacity:0.835;}.cls-220{fill:#292929;opacity:0.839;}.cls-221{fill:#282828;opacity:0.843;}.cls-222{fill:#272727;opacity:0.847;}.cls-223{fill:#262626;opacity:0.851;}.cls-224{fill:#252525;opacity:0.855;}.cls-225{fill:#242424;opacity:0.859;}.cls-226{fill:#232323;opacity:0.863;}.cls-227{fill:#222;opacity:0.867;}.cls-228{fill:#212121;opacity:0.871;}.cls-229{fill:#202020;opacity:0.875;}.cls-230{fill:#1f1f1f;opacity:0.878;}.cls-231{fill:#1e1e1e;opacity:0.882;}.cls-232{fill:#1d1d1d;opacity:0.886;}.cls-233{fill:#1c1c1c;opacity:0.89;}.cls-234{fill:#1b1b1b;opacity:0.894;}.cls-235{fill:#1a1a1a;opacity:0.898;}.cls-236{fill:#191919;opacity:0.902;}.cls-237{fill:#181818;opacity:0.906;}.cls-238{fill:#171717;opacity:0.91;}.cls-239{fill:#161616;opacity:0.914;}.cls-240{fill:#151515;opacity:0.918;}.cls-241{fill:#141414;opacity:0.922;}.cls-242{fill:#131313;opacity:0.925;}.cls-243{fill:#121212;opacity:0.929;}.cls-244{fill:#111;opacity:0.933;}.cls-245{fill:#101010;opacity:0.937;}.cls-246{fill:#0f0f0f;opacity:0.941;}.cls-247{fill:#0e0e0e;opacity:0.945;}.cls-248{fill:#0d0d0d;opacity:0.949;}.cls-249{fill:#0c0c0c;opacity:0.953;}.cls-250{fill:#0b0b0b;opacity:0.957;}.cls-251{fill:#0a0a0a;opacity:0.961;}.cls-252{fill:#090909;opacity:0.965;}.cls-253{fill:#080808;opacity:0.969;}.cls-254{fill:#070707;opacity:0.973;}.cls-255{fill:#060606;opacity:0.976;}.cls-256{fill:#050505;opacity:0.98;}.cls-257{fill:#040404;opacity:0.984;}.cls-258{fill:#030303;opacity:0.988;}.cls-259{fill:#020202;opacity:0.992;}.cls-260{fill:#010101;opacity:0.996;}</style></defs><g class="cls-1"><g id="Text"><path class="cls-2" d="M211.415,448.193h8.9q6.193,0,8.952,1.805a6.318,6.318,0,0,1,2.758,5.7,6.91,6.91,0,0,1-1.353,4.368,6.053,6.053,0,0,1-3.9,2.195v.2a7.736,7.736,0,0,1,4.645,2.347,7.1,7.1,0,0,1,1.487,4.748,7.7,7.7,0,0,1-2.82,6.327q-2.818,2.287-7.844,2.287H211.415Zm4.9,12.387h4.717a8.059,8.059,0,0,0,4.491-.975,3.726,3.726,0,0,0,1.415-3.311,3.319,3.319,0,0,0-1.527-3.056,9.545,9.545,0,0,0-4.85-.943h-4.246Zm0,3.979v9.495h5.209a7.666,7.666,0,0,0,4.645-1.179,4.354,4.354,0,0,0,1.569-3.723,3.951,3.951,0,0,0-1.6-3.465,8.48,8.48,0,0,0-4.861-1.128Z"/><path class="cls-2" d="M257.353,478.176H237.029v-3.651l7.732-7.772a65.435,65.435,0,0,0,4.542-4.974,11.843,11.843,0,0,0,1.631-2.758,7.45,7.45,0,0,0,.512-2.768,4.217,4.217,0,0,0-1.22-3.2,4.672,4.672,0,0,0-3.373-1.169,8.991,8.991,0,0,0-3.333.636,15.578,15.578,0,0,0-3.722,2.3l-2.6-3.178a16.76,16.76,0,0,1,4.861-2.994,14.224,14.224,0,0,1,5.024-.882,9.88,9.88,0,0,1,6.706,2.184,7.374,7.374,0,0,1,2.523,5.875,10.318,10.318,0,0,1-.728,3.856,15.7,15.7,0,0,1-2.236,3.763,51.266,51.266,0,0,1-5.014,5.24l-5.209,5.045v.2h14.233Z"/><path class="cls-2" d="M263.115,448.193h8.9q6.193,0,8.951,1.805a6.319,6.319,0,0,1,2.759,5.7,6.91,6.91,0,0,1-1.354,4.368,6.053,6.053,0,0,1-3.9,2.195v.2a7.742,7.742,0,0,1,4.645,2.347,7.107,7.107,0,0,1,1.486,4.748,7.7,7.7,0,0,1-2.819,6.327q-2.82,2.287-7.845,2.287H263.115Zm4.9,12.387h4.716a8.065,8.065,0,0,0,4.492-.975,3.728,3.728,0,0,0,1.415-3.311,3.32,3.32,0,0,0-1.528-3.056,9.542,9.542,0,0,0-4.85-.943h-4.245Zm0,3.979v9.495h5.209a7.67,7.67,0,0,0,4.645-1.179,4.353,4.353,0,0,0,1.568-3.723,3.951,3.951,0,0,0-1.6-3.465,8.48,8.48,0,0,0-4.861-1.128Z"/><path class="cls-2" d="M314.713,478.176l-8.7-25.04h-.164q.348,5.577.348,10.459v14.581h-4.45V448.193h6.911l8.326,23.851h.123l8.573-23.851h6.931v29.983H327.9V463.349q0-2.236.113-5.825t.195-4.347h-.164l-9,25Z"/><path class="cls-2" d="M354.19,478.176l-.963-3.158h-.165a9.3,9.3,0,0,1-3.3,2.82,10.465,10.465,0,0,1-4.266.748,7.22,7.22,0,0,1-5.219-1.805,6.752,6.752,0,0,1-1.877-5.106A6,6,0,0,1,341,466.384q2.6-1.785,7.936-1.948l3.917-.124V463.1a4.585,4.585,0,0,0-1.015-3.251,4.142,4.142,0,0,0-3.148-1.077,10.872,10.872,0,0,0-3.342.513,25.248,25.248,0,0,0-3.077,1.21l-1.558-3.445a16.792,16.792,0,0,1,4.04-1.467,18.649,18.649,0,0,1,4.142-.5q4.327,0,6.532,1.887t2.205,5.926v15.279Zm-7.177-3.281a5.968,5.968,0,0,0,4.214-1.467,5.313,5.313,0,0,0,1.589-4.112v-1.968l-2.912.123a9.96,9.96,0,0,0-4.952,1.138,3.455,3.455,0,0,0-1.549,3.107,3.03,3.03,0,0,0,.9,2.348A3.879,3.879,0,0,0,347.013,474.9Z"/><path class="cls-2" d="M375.867,455.084a11.587,11.587,0,0,1,2.4.2l-.472,4.491a9.118,9.118,0,0,0-2.133-.246,6.171,6.171,0,0,0-4.686,1.887,6.82,6.82,0,0,0-1.794,4.9v11.854h-4.82V455.494h3.774l.635,4h.247a8.99,8.99,0,0,1,2.942-3.22A7,7,0,0,1,375.867,455.084Z"/><path class="cls-2" d="M387.126,466.2l2.728-3.4,6.849-7.3h5.558l-9.126,9.741,9.7,12.941h-5.66l-7.28-9.947-2.646,2.174v7.773h-4.778v-31.91h4.778v15.565L387,466.2Z"/><path class="cls-2" d="M416.391,478.586q-5.292,0-8.275-3.086t-2.984-8.5q0-5.558,2.768-8.736a9.564,9.564,0,0,1,7.609-3.179,9.343,9.343,0,0,1,7.095,2.728,10.418,10.418,0,0,1,2.605,7.5v2.605H410.1A7.45,7.45,0,0,0,411.879,473a6.212,6.212,0,0,0,4.737,1.773,17.486,17.486,0,0,0,3.743-.378,19.623,19.623,0,0,0,3.722-1.262v3.917a14.8,14.8,0,0,1-3.568,1.189A21.829,21.829,0,0,1,416.391,478.586Zm-.882-19.852a4.843,4.843,0,0,0-3.681,1.456,6.936,6.936,0,0,0-1.651,4.246h10.295a6.284,6.284,0,0,0-1.354-4.256A4.632,4.632,0,0,0,415.509,458.734Z"/><path class="cls-2" d="M439.134,474.689a11.721,11.721,0,0,0,3.527-.553v3.63a9.8,9.8,0,0,1-2.061.584,14.218,14.218,0,0,1-2.615.236q-6.849,0-6.849-7.219V459.145h-3.1v-2.133l3.322-1.764,1.641-4.8h2.974v5.045h6.46v3.651h-6.46v12.14a3.408,3.408,0,0,0,.871,2.574A3.18,3.18,0,0,0,439.134,474.689Z"/><path class="cls-2" d="M458.7,478.586a7.942,7.942,0,0,1-6.685-3.1h-.287q.286,2.871.287,3.487v9.29h-4.82V455.494h3.9q.164.636.677,3.035h.246a7.549,7.549,0,0,1,6.767-3.445,7.872,7.872,0,0,1,6.614,3.076q2.369,3.076,2.369,8.634t-2.41,8.675A7.944,7.944,0,0,1,458.7,478.586Zm-1.169-19.565a5.01,5.01,0,0,0-4.194,1.682q-1.321,1.682-1.322,5.373v.718q0,4.143,1.312,6a4.883,4.883,0,0,0,4.286,1.855,4.353,4.353,0,0,0,3.856-2.05,10.6,10.6,0,0,0,1.353-5.845,10.217,10.217,0,0,0-1.343-5.773A4.482,4.482,0,0,0,457.529,459.021Z"/><path class="cls-2" d="M478.181,478.176h-4.82v-31.91h4.82Z"/><path class="cls-2" d="M499.263,478.176l-.964-3.158h-.164a9.307,9.307,0,0,1-3.3,2.82,10.458,10.458,0,0,1-4.266.748,7.22,7.22,0,0,1-5.219-1.805,6.752,6.752,0,0,1-1.876-5.106,6,6,0,0,1,2.6-5.291q2.6-1.785,7.937-1.948l3.917-.124V463.1a4.59,4.59,0,0,0-1.015-3.251,4.145,4.145,0,0,0-3.148-1.077,10.874,10.874,0,0,0-3.343.513,25.17,25.17,0,0,0-3.076,1.21l-1.559-3.445a16.807,16.807,0,0,1,4.04-1.467,18.65,18.65,0,0,1,4.143-.5q4.326,0,6.531,1.887t2.205,5.926v15.279Zm-7.178-3.281a5.966,5.966,0,0,0,4.214-1.467,5.313,5.313,0,0,0,1.59-4.112v-1.968l-2.912.123a9.961,9.961,0,0,0-4.953,1.138,3.457,3.457,0,0,0-1.548,3.107,3.03,3.03,0,0,0,.9,2.348A3.879,3.879,0,0,0,492.085,474.9Z"/><path class="cls-2" d="M518.581,478.586q-5.148,0-7.824-3t-2.676-8.624q0-5.721,2.8-8.8t8.091-3.076a15.159,15.159,0,0,1,6.46,1.333l-1.456,3.876a14.593,14.593,0,0,0-5.045-1.189q-5.886,0-5.886,7.813a9.355,9.355,0,0,0,1.466,5.731,5.073,5.073,0,0,0,4.3,1.918,12.328,12.328,0,0,0,6.09-1.6v4.2a9.51,9.51,0,0,1-2.758,1.087A16.529,16.529,0,0,1,518.581,478.586Z"/><path class="cls-2" d="M540.135,478.586q-5.292,0-8.275-3.086t-2.984-8.5q0-5.558,2.769-8.736a9.561,9.561,0,0,1,7.608-3.179,9.346,9.346,0,0,1,7.1,2.728,10.422,10.422,0,0,1,2.6,7.5v2.605H533.839A7.45,7.45,0,0,0,535.623,473a6.212,6.212,0,0,0,4.737,1.773,17.486,17.486,0,0,0,3.743-.378,19.623,19.623,0,0,0,3.722-1.262v3.917a14.8,14.8,0,0,1-3.568,1.189A21.829,21.829,0,0,1,540.135,478.586Zm-.882-19.852a4.845,4.845,0,0,0-3.681,1.456,6.942,6.942,0,0,0-1.651,4.246h10.295a6.284,6.284,0,0,0-1.354-4.256A4.632,4.632,0,0,0,539.253,458.734Z"/><path class="cls-2" d="M569.666,471.716a5.934,5.934,0,0,1-2.42,5.1q-2.419,1.774-6.932,1.774a16.374,16.374,0,0,1-7.28-1.374v-4.163a17.884,17.884,0,0,0,7.445,1.846q4.449,0,4.45-2.687a2.131,2.131,0,0,0-.492-1.436,5.857,5.857,0,0,0-1.621-1.189,27.954,27.954,0,0,0-3.137-1.4,14.5,14.5,0,0,1-5.3-3.035,5.617,5.617,0,0,1-1.384-3.937,5.176,5.176,0,0,1,2.348-4.523,11.154,11.154,0,0,1,6.388-1.609,18.094,18.094,0,0,1,7.568,1.62l-1.559,3.63a16.826,16.826,0,0,0-6.173-1.518q-3.814,0-3.814,2.174a2.188,2.188,0,0,0,1,1.805,21.845,21.845,0,0,0,4.337,2.03,19.888,19.888,0,0,1,4.081,1.989,5.947,5.947,0,0,1,1.887,2.082A6.029,6.029,0,0,1,569.666,471.716Z"/><path class="cls-2" d="M584.309,470.239a8.346,8.346,0,0,1,1.312-4.686,13.789,13.789,0,0,1,4.737-3.968,17.419,17.419,0,0,1-2.655-3.845,7.826,7.826,0,0,1-.708-3.251,6,6,0,0,1,2.225-4.922,9.213,9.213,0,0,1,5.978-1.8,8.553,8.553,0,0,1,5.7,1.753,5.876,5.876,0,0,1,2.072,4.727,7.056,7.056,0,0,1-1.385,4.245,15.139,15.139,0,0,1-4.624,3.815l7.1,6.849a18.537,18.537,0,0,0,2.768-6.439h4.963a22.587,22.587,0,0,1-4.594,9.5l6.173,5.968h-6.214L604.1,475.2a14.777,14.777,0,0,1-9.7,3.384,11.236,11.236,0,0,1-7.4-2.235A7.528,7.528,0,0,1,584.309,470.239Zm10.336,4.2a9.773,9.773,0,0,0,6.418-2.194l-7.854-7.731a10.283,10.283,0,0,0-2.994,2.615,4.86,4.86,0,0,0-.82,2.778,4.163,4.163,0,0,0,1.425,3.271A5.561,5.561,0,0,0,594.645,474.443Zm-3.056-19.79a4.678,4.678,0,0,0,.687,2.441,14.211,14.211,0,0,0,1.917,2.44,11.781,11.781,0,0,0,3.251-2.45,3.928,3.928,0,0,0,.933-2.554,2.725,2.725,0,0,0-.892-2.133,3.416,3.416,0,0,0-2.369-.8,3.787,3.787,0,0,0-2.574.83A2.805,2.805,0,0,0,591.589,454.653Z"/><path class="cls-2" d="M384.234,520.434a7.545,7.545,0,0,1-2.891,6.275q-2.892,2.277-7.978,2.276a19.031,19.031,0,0,1-8.326-1.579v-4.635a22.592,22.592,0,0,0,4.358,1.518,18.484,18.484,0,0,0,4.3.554,6.831,6.831,0,0,0,4.3-1.108,3.609,3.609,0,0,0,1.384-2.973,3.729,3.729,0,0,0-1.271-2.851,19.152,19.152,0,0,0-5.25-2.768,13.892,13.892,0,0,1-5.784-3.794,8.028,8.028,0,0,1-1.681-5.127,7.18,7.18,0,0,1,2.666-5.907,11.061,11.061,0,0,1,7.157-2.153,21.026,21.026,0,0,1,8.572,1.887l-1.558,4a18.732,18.732,0,0,0-7.137-1.682,5.483,5.483,0,0,0-3.609,1.035,3.4,3.4,0,0,0-1.231,2.739,3.861,3.861,0,0,0,.492,2,5.039,5.039,0,0,0,1.62,1.568,27.381,27.381,0,0,0,4.061,1.948,22.234,22.234,0,0,1,4.84,2.564,7.548,7.548,0,0,1,2.256,2.686A8.09,8.09,0,0,1,384.234,520.434Z"/><path class="cls-2" d="M403.717,528.575l-.964-3.158h-.164a9.289,9.289,0,0,1-3.3,2.82,10.458,10.458,0,0,1-4.266.748,7.22,7.22,0,0,1-5.219-1.8,6.754,6.754,0,0,1-1.876-5.107,6,6,0,0,1,2.6-5.291q2.606-1.783,7.937-1.948l3.917-.123V513.5a4.593,4.593,0,0,0-1.015-3.251,4.143,4.143,0,0,0-3.148-1.076,10.879,10.879,0,0,0-3.343.513A25.229,25.229,0,0,0,391.8,510.9l-1.559-3.445a16.85,16.85,0,0,1,4.04-1.467,18.65,18.65,0,0,1,4.143-.5q4.327,0,6.532,1.887t2.2,5.927v15.278Zm-7.178-3.281a5.962,5.962,0,0,0,4.214-1.467,5.311,5.311,0,0,0,1.59-4.111v-1.969l-2.912.123a9.949,9.949,0,0,0-4.953,1.139,3.456,3.456,0,0,0-1.548,3.106,3.033,3.033,0,0,0,.9,2.349A3.881,3.881,0,0,0,396.539,525.294Z"/><path class="cls-2" d="M428.08,528.575l-.964-3.158h-.164a9.289,9.289,0,0,1-3.3,2.82,10.456,10.456,0,0,1-4.265.748,7.218,7.218,0,0,1-5.219-1.8,6.755,6.755,0,0,1-1.877-5.107,6,6,0,0,1,2.605-5.291q2.6-1.783,7.936-1.948l3.917-.123V513.5a4.589,4.589,0,0,0-1.015-3.251,4.143,4.143,0,0,0-3.148-1.076,10.883,10.883,0,0,0-3.343.513,25.229,25.229,0,0,0-3.076,1.209l-1.559-3.445a16.866,16.866,0,0,1,4.04-1.467,18.65,18.65,0,0,1,4.143-.5q4.327,0,6.532,1.887t2.2,5.927v15.278Zm-7.178-3.281a5.966,5.966,0,0,0,4.215-1.467,5.314,5.314,0,0,0,1.589-4.111v-1.969l-2.912.123a9.952,9.952,0,0,0-4.953,1.139,3.456,3.456,0,0,0-1.548,3.106,3.037,3.037,0,0,0,.9,2.349A3.881,3.881,0,0,0,420.9,525.294Z"/><path class="cls-2" d="M456.053,520.434a7.545,7.545,0,0,1-2.892,6.275q-2.892,2.277-7.977,2.276a19.036,19.036,0,0,1-8.327-1.579v-4.635a22.616,22.616,0,0,0,4.358,1.518,18.492,18.492,0,0,0,4.3.554,6.83,6.83,0,0,0,4.3-1.108,3.609,3.609,0,0,0,1.384-2.973,3.725,3.725,0,0,0-1.271-2.851,19.152,19.152,0,0,0-5.25-2.768,13.894,13.894,0,0,1-5.783-3.794,8.029,8.029,0,0,1-1.682-5.127,7.183,7.183,0,0,1,2.666-5.907,11.061,11.061,0,0,1,7.157-2.153,21.031,21.031,0,0,1,8.573,1.887l-1.559,4a18.732,18.732,0,0,0-7.137-1.682A5.483,5.483,0,0,0,443.3,503.4a3.407,3.407,0,0,0-1.231,2.739,3.852,3.852,0,0,0,.493,2,5.039,5.039,0,0,0,1.62,1.568,27.356,27.356,0,0,0,4.06,1.948,22.21,22.21,0,0,1,4.84,2.564,7.548,7.548,0,0,1,2.256,2.686A8.09,8.09,0,0,1,456.053,520.434Z"/><g id="Organizations"><path class="cls-3" d="M390.72,162.241c-2.447-.867-5.212-1.722-7.551-.6l-18.87,9.084-.2-25.461a3.971,3.971,0,0,1,3.023-4.664l57.382-25.439c2.222-.985,4.7-1.988,7.011-1.23l63.34,20.8a3.33,3.33,0,0,1,2.9,4.011q-.04,97.781-.08,195.56l-45.5-.23q0-75.034.01-150.068L390.72,162.241m86.59,4.42a.431.431,0,0,0,.518-.539q0-9.378,0-18.756a.489.489,0,0,0-.6-.584q-4.785-.129-9.571.1,0,9.612,0,19.224a.438.438,0,0,0,.521.554h9.133m.517,35.251,0-19.178a.483.483,0,0,0-.6-.577q-4.782-.129-9.564.1-.073,9.879.059,19.758,5.051.12,10.1-.1m-.536,15.6H468.2a.458.458,0,0,0-.544.578v18.754a.452.452,0,0,0,.538.571h9.091a.457.457,0,0,0,.543-.578q0-9.377,0-18.754a.452.452,0,0,0-.538-.571m.461,35.394q-5.048-.12-10.1.1,0,9.611,0,19.222a.441.441,0,0,0,.525.557h9.132a.4.4,0,0,0,.493-.494q.095-9.695-.054-19.389m-.442,55.7a.57.57,0,0,0,.391-.1.576.576,0,0,0,.127-.443q0-9.378,0-18.756a.489.489,0,0,0-.6-.583q-4.785-.129-9.571.1,0,9.612,0,19.224a.583.583,0,0,0,.138.463.577.577,0,0,0,.383.091Z"/><path class="cls-4" d="M441.515,334.3l-50.372-.167.053-160.544,48.317,17.022a2.576,2.576,0,0,1,2.085,3.152Q441.556,264.029,441.515,334.3Z"/><path class="cls-4" d="M380.562,334.088q-51.96.394-103.923,0l-.01-109.484a3.089,3.089,0,0,1,2.229-3.652l101.66-45.972.044,159.106m-22.547-122.2a6.3,6.3,0,0,0-2.283.418l-62.818,19.775a1.426,1.426,0,0,0-1.266,1.725l.029,9.2a3.152,3.152,0,0,0,1.729-.2l64.554-20.219q.027-5.349.055-10.7m-66.4,49.345.117,8.953,64.68-13.355c.719-.148,1.61-.5,1.609-1.229l-.025-9.643a4.174,4.174,0,0,0-2.114.069l-63.278,13.1c-.827.171-1,1.262-.989,2.107m.082,35.821L358,289.945q.027-5.415-.041-10.83l-66.22,7.09q-.133,5.424-.046,10.852m66.156,26.436a.669.669,0,0,0,.123-.445q.141-5.013-.1-10.027H292.292a.523.523,0,0,0-.623.659l-.007,9.18a.614.614,0,0,0,.731.775h64.952A.67.67,0,0,0,357.848,323.493Z"/></g><g class="cls-5"><path class="cls-6" d="M588.026,399.541c0,14.474-84.553,26.195-188.86,26.195S210.3,414.015,210.3,399.541c0-14.444,84.566-26.16,188.868-26.16S588.026,385.1,588.026,399.541Z"/><path class="cls-7" d="M587.419,399.558c0,14.427-84.282,26.11-188.253,26.11s-188.26-11.683-188.26-26.11c0-14.4,84.293-26.076,188.26-26.076S587.419,385.16,587.419,399.558Z"/><path class="cls-8" d="M586.812,399.574c0,14.381-84.01,26.027-187.646,26.027s-187.653-11.646-187.653-26.027c0-14.351,84.022-25.991,187.653-25.991S586.812,385.223,586.812,399.574Z"/><path class="cls-9" d="M586.205,399.591c0,14.334-83.739,25.942-187.039,25.942S212.12,413.925,212.12,399.591c0-14.305,83.75-25.907,187.046-25.907S586.205,385.286,586.205,399.591Z"/><path class="cls-10" d="M585.6,399.608c0,14.288-83.466,25.858-186.431,25.858S212.727,413.9,212.727,399.608c0-14.258,83.479-25.823,186.439-25.823S585.6,385.35,585.6,399.608Z"/><path class="cls-11" d="M584.99,399.625c0,14.241-83.194,25.773-185.824,25.773s-185.832-11.532-185.832-25.773c0-14.212,83.207-25.739,185.832-25.739S584.99,385.413,584.99,399.625Z"/><path class="cls-12" d="M584.383,399.641c0,14.195-82.923,25.69-185.217,25.69s-185.224-11.5-185.224-25.69c0-14.165,82.934-25.655,185.224-25.655S584.383,385.476,584.383,399.641Z"/><path class="cls-13" d="M583.775,399.658c0,14.148-82.65,25.6-184.609,25.6s-184.617-11.457-184.617-25.6c0-14.119,82.663-25.571,184.617-25.571S583.775,385.539,583.775,399.658Z"/><path class="cls-14" d="M583.168,399.675c0,14.1-82.378,25.521-184,25.521s-184.01-11.42-184.01-25.521c0-14.073,82.391-25.487,184.01-25.487S583.168,385.6,583.168,399.675Z"/><path class="cls-15" d="M582.561,399.692c0,14.054-82.107,25.436-183.4,25.436s-183.4-11.382-183.4-25.436c0-14.027,82.119-25.4,183.4-25.4S582.561,385.665,582.561,399.692Z"/><path class="cls-16" d="M581.953,399.708c0,14.009-81.834,25.353-182.787,25.353s-182.795-11.344-182.795-25.353c0-13.98,81.847-25.318,182.8-25.318S581.953,385.728,581.953,399.708Z"/><path class="cls-17" d="M581.346,399.725c0,13.962-81.562,25.269-182.18,25.269s-182.188-11.307-182.188-25.269c0-13.933,81.575-25.234,182.188-25.234S581.346,385.792,581.346,399.725Z"/><path class="cls-18" d="M580.739,399.742c0,13.915-81.291,25.184-181.573,25.184s-181.581-11.269-181.581-25.184c0-13.887,81.3-25.15,181.581-25.15S580.739,385.855,580.739,399.742Z"/><path class="cls-19" d="M580.131,399.759c0,13.868-81.018,25.1-180.965,25.1s-180.974-11.232-180.974-25.1c0-13.841,81.032-25.066,180.974-25.066S580.131,385.918,580.131,399.759Z"/><path class="cls-20" d="M579.524,399.775c0,13.822-80.746,25.016-180.358,25.016S218.8,413.6,218.8,399.775c0-13.794,80.759-24.982,180.366-24.982S579.524,385.981,579.524,399.775Z"/><path class="cls-21" d="M578.917,399.792c0,13.776-80.475,24.932-179.751,24.932s-179.759-11.156-179.759-24.932c0-13.748,80.488-24.9,179.759-24.9S578.917,386.044,578.917,399.792Z"/><path class="cls-22" d="M578.31,399.809c0,13.729-80.2,24.847-179.144,24.847s-179.152-11.118-179.152-24.847c0-13.7,80.216-24.814,179.152-24.814S578.31,386.107,578.31,399.809Z"/><path class="cls-23" d="M577.7,399.826c0,13.682-79.931,24.763-178.536,24.763s-178.545-11.081-178.545-24.763c0-13.656,79.944-24.73,178.545-24.73S577.7,386.17,577.7,399.826Z"/><path class="cls-24" d="M577.1,399.842c0,13.636-79.659,24.679-177.929,24.679s-177.938-11.043-177.938-24.679c0-13.608,79.673-24.645,177.938-24.645S577.1,386.234,577.1,399.842Z"/><path class="cls-25" d="M576.488,399.859c0,13.589-79.387,24.6-177.322,24.6s-177.33-11.006-177.33-24.6c0-13.562,79.4-24.561,177.33-24.561S576.488,386.3,576.488,399.859Z"/><path class="cls-26" d="M575.88,399.876c0,13.543-79.115,24.51-176.714,24.51s-176.723-10.967-176.723-24.51c0-13.516,79.129-24.477,176.723-24.477S575.88,386.36,575.88,399.876Z"/><path class="cls-27" d="M575.273,399.893c0,13.5-78.843,24.426-176.107,24.426S223.05,413.389,223.05,399.893c0-13.47,78.857-24.393,176.116-24.393S575.273,386.423,575.273,399.893Z"/><path class="cls-28" d="M574.666,399.909c0,13.45-78.571,24.342-175.5,24.342s-175.509-10.892-175.509-24.342c0-13.423,78.585-24.308,175.509-24.308S574.666,386.486,574.666,399.909Z"/><path class="cls-29" d="M574.058,399.926c0,13.4-78.3,24.258-174.892,24.258s-174.9-10.855-174.9-24.258c0-13.377,78.313-24.225,174.9-24.225S574.058,386.549,574.058,399.926Z"/><path class="cls-30" d="M573.451,399.943c0,13.356-78.027,24.173-174.285,24.173S224.872,413.3,224.872,399.943c0-13.331,78.041-24.141,174.294-24.141S573.451,386.612,573.451,399.943Z"/><path class="cls-31" d="M572.844,399.96c0,13.309-77.755,24.089-173.678,24.089s-173.687-10.78-173.687-24.089c0-13.284,77.769-24.057,173.687-24.057S572.844,386.676,572.844,399.96Z"/><path class="cls-32" d="M572.236,399.977c0,13.263-77.483,24-173.07,24s-173.08-10.741-173.08-24c0-13.238,77.5-23.973,173.08-23.973S572.236,386.739,572.236,399.977Z"/><path class="cls-33" d="M571.629,399.993c0,13.217-77.211,23.921-172.463,23.921s-172.472-10.7-172.472-23.921c0-13.191,77.225-23.888,172.472-23.888S571.629,386.8,571.629,399.993Z"/><path class="cls-34" d="M571.022,400.01c0,13.17-76.939,23.836-171.856,23.836S227.3,413.18,227.3,400.01c0-13.145,76.954-23.8,171.865-23.8S571.022,386.865,571.022,400.01Z"/><path class="cls-35" d="M570.415,400.027c0,13.123-76.668,23.752-171.249,23.752S227.908,413.15,227.908,400.027c0-13.1,76.682-23.72,171.258-23.72S570.415,386.928,570.415,400.027Z"/><path class="cls-36" d="M569.807,400.044c0,13.076-76.4,23.667-170.641,23.667S228.515,413.12,228.515,400.044c0-13.053,76.41-23.636,170.651-23.636S569.807,386.991,569.807,400.044Z"/><path class="cls-37" d="M569.2,400.06c0,13.031-76.124,23.584-170.034,23.584S229.122,413.091,229.122,400.06c0-13.006,76.139-23.552,170.044-23.552S569.2,387.054,569.2,400.06Z"/><path class="cls-38" d="M568.593,400.077c0,12.984-75.852,23.5-169.427,23.5s-169.436-10.515-169.436-23.5c0-12.96,75.866-23.468,169.436-23.468S568.593,387.117,568.593,400.077Z"/><path class="cls-39" d="M567.985,400.094c0,12.937-75.579,23.415-168.819,23.415s-168.829-10.478-168.829-23.415c0-12.913,75.594-23.384,168.829-23.384S567.985,387.181,567.985,400.094Z"/><path class="cls-40" d="M567.378,400.111c0,12.89-75.308,23.33-168.212,23.33S230.944,413,230.944,400.111c0-12.867,75.323-23.3,168.222-23.3S567.378,387.244,567.378,400.111Z"/><path class="cls-41" d="M566.771,400.127c0,12.844-75.036,23.247-167.6,23.247s-167.615-10.4-167.615-23.247c0-12.82,75.051-23.215,167.615-23.215S566.771,387.307,566.771,400.127Z"/><path class="cls-42" d="M566.163,400.144c0,12.8-74.763,23.163-167,23.163s-167.007-10.366-167.007-23.163c0-12.774,74.779-23.131,167.007-23.131S566.163,387.37,566.163,400.144Z"/><path class="cls-43" d="M565.556,400.161c0,12.751-74.492,23.078-166.39,23.078s-166.4-10.327-166.4-23.078c0-12.728,74.507-23.047,166.4-23.047S565.556,387.433,565.556,400.161Z"/><path class="cls-44" d="M564.949,400.178c0,12.7-74.22,22.994-165.783,22.994s-165.793-10.29-165.793-22.994c0-12.682,74.235-22.963,165.793-22.963S564.949,387.5,564.949,400.178Z"/><path class="cls-45" d="M564.342,400.194c0,12.658-73.948,22.91-165.176,22.91S233.98,412.852,233.98,400.194c0-12.635,73.964-22.879,165.186-22.879S564.342,387.559,564.342,400.194Z"/><path class="cls-46" d="M563.734,400.211c0,12.611-73.676,22.826-164.568,22.826s-164.579-10.215-164.579-22.826c0-12.588,73.692-22.8,164.579-22.8S563.734,387.623,563.734,400.211Z"/><path class="cls-47" d="M563.127,400.228c0,12.564-73.4,22.741-163.961,22.741S235.2,412.792,235.2,400.228c0-12.542,73.419-22.711,163.971-22.711S563.127,387.686,563.127,400.228Z"/><path class="cls-48" d="M562.52,400.245c0,12.518-73.132,22.657-163.354,22.657S235.8,412.763,235.8,400.245c0-12.5,73.148-22.627,163.364-22.627S562.52,387.749,562.52,400.245Z"/><path class="cls-49" d="M561.912,400.261c0,12.472-72.86,22.573-162.746,22.573s-162.757-10.1-162.757-22.573c0-12.449,72.876-22.542,162.757-22.542S561.912,387.812,561.912,400.261Z"/><path class="cls-50" d="M561.3,400.278c0,12.425-72.588,22.489-162.139,22.489s-162.15-10.064-162.15-22.489c0-12.4,72.6-22.458,162.15-22.458S561.3,387.875,561.3,400.278Z"/><path class="cls-51" d="M560.7,400.3c0,12.378-72.316,22.4-161.532,22.4s-161.542-10.026-161.542-22.4c0-12.357,72.332-22.374,161.542-22.374S560.7,387.938,560.7,400.3Z"/><path class="cls-52" d="M560.09,400.312c0,12.331-72.044,22.32-160.924,22.32s-160.935-9.989-160.935-22.32c0-12.311,72.06-22.29,160.935-22.29S560.09,388,560.09,400.312Z"/><path class="cls-53" d="M559.483,400.328c0,12.285-71.772,22.236-160.317,22.236s-160.328-9.951-160.328-22.236c0-12.263,71.789-22.206,160.328-22.206S559.483,388.065,559.483,400.328Z"/><path class="cls-54" d="M558.876,400.345c0,12.239-71.5,22.152-159.71,22.152s-159.721-9.913-159.721-22.152c0-12.217,71.517-22.122,159.721-22.122S558.876,388.128,558.876,400.345Z"/><path class="cls-55" d="M558.268,400.362c0,12.192-71.228,22.067-159.1,22.067s-159.113-9.875-159.113-22.067c0-12.171,71.245-22.038,159.113-22.038S558.268,388.191,558.268,400.362Z"/><path class="cls-56" d="M557.661,400.379c0,12.145-70.956,21.983-158.495,21.983S240.66,412.524,240.66,400.379c0-12.125,70.973-21.954,158.506-21.954S557.661,388.254,557.661,400.379Z"/><path class="cls-57" d="M557.054,400.4c0,12.1-70.685,21.9-157.888,21.9s-157.9-9.8-157.9-21.9c0-12.078,70.7-21.869,157.9-21.869S557.054,388.317,557.054,400.4Z"/><path class="cls-58" d="M556.447,400.412c0,12.052-70.413,21.815-157.281,21.815s-157.292-9.763-157.292-21.815c0-12.032,70.43-21.785,157.292-21.785S556.447,388.38,556.447,400.412Z"/><path class="cls-59" d="M555.839,400.429c0,12.006-70.14,21.73-156.673,21.73s-156.685-9.724-156.685-21.73c0-11.986,70.158-21.7,156.685-21.7S555.839,388.443,555.839,400.429Z"/><path class="cls-60" d="M555.232,400.446c0,11.959-69.869,21.646-156.066,21.646s-156.077-9.687-156.077-21.646c0-11.939,69.885-21.617,156.077-21.617S555.232,388.507,555.232,400.446Z"/><path class="cls-61" d="M554.625,400.463c0,11.912-69.6,21.561-155.459,21.561S243.7,412.375,243.7,400.463c0-11.893,69.614-21.534,155.47-21.534S554.625,388.57,554.625,400.463Z"/><path class="cls-62" d="M554.017,400.479c0,11.866-69.324,21.478-154.851,21.478S244.3,412.345,244.3,400.479c0-11.846,69.342-21.449,154.863-21.449S554.017,388.633,554.017,400.479Z"/><path class="cls-63" d="M553.41,400.5c0,11.819-69.053,21.393-154.244,21.393S244.91,412.315,244.91,400.5c0-11.8,69.071-21.365,154.256-21.365S553.41,388.7,553.41,400.5Z"/><path class="cls-64" d="M552.8,400.513c0,11.772-68.781,21.309-153.637,21.309s-153.648-9.537-153.648-21.309c0-11.754,68.8-21.281,153.648-21.281S552.8,388.759,552.8,400.513Z"/><path class="cls-65" d="M552.2,400.53c0,11.726-68.508,21.224-153.029,21.224s-153.041-9.5-153.041-21.224c0-11.708,68.526-21.2,153.041-21.2S552.2,388.822,552.2,400.53Z"/><path class="cls-66" d="M551.588,400.546c0,11.68-68.237,21.141-152.422,21.141s-152.434-9.461-152.434-21.141c0-11.661,68.255-21.112,152.434-21.112S551.588,388.885,551.588,400.546Z"/><path class="cls-67" d="M550.981,400.563c0,11.633-67.965,21.057-151.815,21.057S247.339,412.2,247.339,400.563c0-11.615,67.983-21.028,151.827-21.028S550.981,388.948,550.981,400.563Z"/><path class="cls-68" d="M550.373,400.58c0,11.586-67.693,20.972-151.207,20.972s-151.219-9.386-151.219-20.972c0-11.568,67.71-20.944,151.219-20.944S550.373,389.012,550.373,400.58Z"/><path class="cls-69" d="M549.766,400.6c0,11.539-67.421,20.888-150.6,20.888S248.554,412.136,248.554,400.6c0-11.522,67.439-20.86,150.612-20.86S549.766,389.075,549.766,400.6Z"/><path class="cls-70" d="M549.159,400.613c0,11.494-67.149,20.8-149.993,20.8s-150-9.31-150-20.8c0-11.475,67.167-20.776,150.005-20.776S549.159,389.138,549.159,400.613Z"/><path class="cls-71" d="M548.552,400.63c0,11.447-66.878,20.72-149.386,20.72s-149.4-9.273-149.4-20.72c0-11.429,66.9-20.692,149.4-20.692S548.552,389.2,548.552,400.63Z"/><path class="cls-72" d="M547.944,400.647c0,11.4-66.6,20.635-148.778,20.635s-148.791-9.235-148.791-20.635c0-11.383,66.624-20.608,148.791-20.608S547.944,389.264,547.944,400.647Z"/><path class="cls-73" d="M547.337,400.664c0,11.353-66.333,20.551-148.171,20.551s-148.183-9.2-148.183-20.551c0-11.337,66.351-20.524,148.183-20.524S547.337,389.327,547.337,400.664Z"/><path class="cls-74" d="M546.73,400.68c0,11.307-66.062,20.467-147.564,20.467S251.59,411.987,251.59,400.68c0-11.29,66.08-20.439,147.576-20.439S546.73,389.39,546.73,400.68Z"/><path class="cls-75" d="M546.122,400.7c0,11.26-65.789,20.383-146.956,20.383S252.2,411.957,252.2,400.7c0-11.243,65.808-20.355,146.969-20.355S546.122,389.454,546.122,400.7Z"/><path class="cls-76" d="M545.515,400.714c0,11.214-65.517,20.3-146.349,20.3S252.8,411.928,252.8,400.714c0-11.2,65.536-20.271,146.362-20.271S545.515,389.517,545.515,400.714Z"/><path class="cls-77" d="M544.908,400.731c0,11.167-65.246,20.214-145.742,20.214S253.412,411.9,253.412,400.731c0-11.151,65.264-20.187,145.754-20.187S544.908,389.58,544.908,400.731Z"/><path class="cls-78" d="M544.3,400.747c0,11.121-64.973,20.13-145.134,20.13s-145.147-9.009-145.147-20.13c0-11.1,64.992-20.1,145.147-20.1S544.3,389.643,544.3,400.747Z"/><path class="cls-79" d="M543.693,400.764c0,11.074-64.7,20.046-144.527,20.046s-144.54-8.972-144.54-20.046c0-11.058,64.721-20.019,144.54-20.019S543.693,389.706,543.693,400.764Z"/><path class="cls-80" d="M543.086,400.781c0,11.027-64.43,19.961-143.92,19.961s-143.933-8.934-143.933-19.961,64.449-19.935,143.933-19.935S543.086,389.769,543.086,400.781Z"/><path class="cls-81" d="M542.479,400.8c0,10.981-64.158,19.877-143.313,19.877S255.84,411.779,255.84,400.8s64.177-19.851,143.326-19.851S542.479,389.832,542.479,400.8Z"/><path class="cls-82" d="M541.871,400.814c0,10.935-63.886,19.793-142.7,19.793s-142.718-8.858-142.718-19.793c0-10.918,63.905-19.766,142.718-19.766S541.871,389.9,541.871,400.814Z"/><path class="cls-83" d="M541.264,400.831c0,10.888-63.614,19.709-142.1,19.709s-142.111-8.821-142.111-19.709c0-10.872,63.633-19.682,142.111-19.682S541.264,389.959,541.264,400.831Z"/><path class="cls-84" d="M540.657,400.848c0,10.841-63.342,19.624-141.491,19.624s-141.5-8.783-141.5-19.624,63.361-19.6,141.5-19.6S540.657,390.022,540.657,400.848Z"/><path class="cls-85" d="M540.049,400.865c0,10.794-63.07,19.54-140.883,19.54s-140.9-8.746-140.9-19.54,63.09-19.514,140.9-19.514S540.049,390.085,540.049,400.865Z"/><path class="cls-86" d="M539.442,400.881c0,10.748-62.8,19.456-140.276,19.456s-140.289-8.708-140.289-19.456c0-10.733,62.817-19.43,140.289-19.43S539.442,390.148,539.442,400.881Z"/><path class="cls-87" d="M538.835,400.9c0,10.7-62.526,19.372-139.669,19.372S259.484,411.6,259.484,400.9s62.546-19.346,139.682-19.346S538.835,390.211,538.835,400.9Z"/><path class="cls-88" d="M538.227,400.915c0,10.655-62.254,19.287-139.061,19.287s-139.075-8.632-139.075-19.287,62.274-19.262,139.075-19.262S538.227,390.274,538.227,400.915Z"/><path class="cls-89" d="M537.62,400.932c0,10.608-61.982,19.2-138.454,19.2S260.7,411.54,260.7,400.932s62-19.178,138.468-19.178S537.62,390.338,537.62,400.932Z"/><path class="cls-90" d="M537.013,400.949c0,10.561-61.71,19.118-137.847,19.118s-137.86-8.557-137.86-19.118,61.73-19.094,137.86-19.094S537.013,390.4,537.013,400.949Z"/><path class="cls-91" d="M536.405,400.965c0,10.515-61.438,19.035-137.239,19.035s-137.253-8.52-137.253-19.035,61.458-19.009,137.253-19.009S536.405,390.464,536.405,400.965Z"/><path class="cls-92" d="M535.8,400.982c0,10.469-61.166,18.951-136.632,18.951S262.52,411.451,262.52,400.982s61.186-18.925,136.646-18.925S535.8,390.527,535.8,400.982Z"/><path class="cls-93" d="M535.191,401c0,10.422-60.894,18.866-136.025,18.866S263.127,411.421,263.127,401s60.915-18.841,136.039-18.841S535.191,390.59,535.191,401Z"/><path class="cls-94" d="M534.584,401.016c0,10.375-60.623,18.782-135.418,18.782s-135.432-8.407-135.432-18.782,60.643-18.758,135.432-18.758S534.584,390.653,534.584,401.016Z"/><path class="cls-95" d="M533.976,401.032c0,10.329-60.35,18.7-134.81,18.7s-134.824-8.369-134.824-18.7,60.371-18.673,134.824-18.673S533.976,390.716,533.976,401.032Z"/><path class="cls-96" d="M533.369,401.049c0,10.282-60.079,18.614-134.2,18.614s-134.217-8.332-134.217-18.614,60.1-18.589,134.217-18.589S533.369,390.78,533.369,401.049Z"/><path class="cls-97" d="M532.762,401.066c0,10.235-59.807,18.529-133.6,18.529s-133.61-8.294-133.61-18.529,59.827-18.5,133.61-18.5S532.762,390.843,532.762,401.066Z"/><path class="cls-98" d="M532.154,401.083c0,10.189-59.534,18.445-132.988,18.445s-133-8.256-133-18.445,59.556-18.421,133-18.421S532.154,390.906,532.154,401.083Z"/><path class="cls-99" d="M531.547,401.1c0,10.143-59.263,18.361-132.381,18.361S266.771,411.242,266.771,401.1s59.283-18.336,132.395-18.336S531.547,390.969,531.547,401.1Z"/><path class="cls-100" d="M530.94,401.116c0,10.1-58.991,18.277-131.774,18.277s-131.788-8.181-131.788-18.277,59.011-18.252,131.788-18.252S530.94,391.032,530.94,401.116Z"/><path class="cls-101" d="M530.332,401.133c0,10.049-58.718,18.192-131.166,18.192s-131.181-8.143-131.181-18.192,58.74-18.168,131.181-18.168S530.332,391.1,530.332,401.133Z"/><path class="cls-102" d="M529.725,401.15c0,10-58.447,18.108-130.559,18.108s-130.574-8.106-130.574-18.108,58.468-18.085,130.574-18.085S529.725,391.158,529.725,401.15Z"/><path class="cls-103" d="M529.118,401.166c0,9.957-58.175,18.024-129.952,18.024S269.2,411.123,269.2,401.166s58.2-18,129.966-18S529.118,391.221,529.118,401.166Z"/><path class="cls-104" d="M528.51,401.183c0,9.91-57.9,17.94-129.344,17.94s-129.359-8.03-129.359-17.94,57.924-17.916,129.359-17.916S528.51,391.285,528.51,401.183Z"/><path class="cls-105" d="M527.9,401.2c0,9.863-57.631,17.855-128.737,17.855S270.414,411.063,270.414,401.2s57.652-17.832,128.752-17.832S527.9,391.348,527.9,401.2Z"/><path class="cls-106" d="M527.3,401.217c0,9.816-57.359,17.771-128.13,17.771s-128.145-7.955-128.145-17.771,57.381-17.748,128.145-17.748S527.3,391.411,527.3,401.217Z"/><path class="cls-107" d="M526.689,401.233c0,9.77-57.087,17.687-127.523,17.687S271.628,411,271.628,401.233s57.109-17.663,127.538-17.663S526.689,391.474,526.689,401.233Z"/><path class="cls-108" d="M526.081,401.25c0,9.724-56.815,17.6-126.915,17.6s-126.93-7.879-126.93-17.6,56.836-17.579,126.93-17.579S526.081,391.537,526.081,401.25Z"/><path class="cls-109" d="M525.474,401.267c0,9.677-56.543,17.518-126.308,17.518s-126.323-7.841-126.323-17.518,56.565-17.5,126.323-17.5S525.474,391.6,525.474,401.267Z"/><path class="cls-110" d="M524.867,401.284c0,9.63-56.271,17.434-125.7,17.434s-125.716-7.8-125.716-17.434,56.293-17.411,125.716-17.411S524.867,391.663,524.867,401.284Z"/><path class="cls-111" d="M524.259,401.3c0,9.584-56,17.35-125.093,17.35s-125.109-7.766-125.109-17.35,56.022-17.327,125.109-17.327S524.259,391.727,524.259,401.3Z"/><path class="cls-112" d="M523.652,401.317c0,9.537-55.727,17.266-124.486,17.266s-124.5-7.729-124.5-17.266,55.749-17.243,124.5-17.243S523.652,391.79,523.652,401.317Z"/><path class="cls-113" d="M523.045,401.334c0,9.49-55.456,17.181-123.879,17.181s-123.894-7.691-123.894-17.181,55.477-17.159,123.894-17.159S523.045,391.853,523.045,401.334Z"/><path class="cls-114" d="M522.437,401.351c0,9.444-55.183,17.1-123.271,17.1s-123.287-7.653-123.287-17.1,55.206-17.075,123.287-17.075S522.437,391.916,522.437,401.351Z"/><path class="cls-115" d="M521.83,401.367c0,9.4-54.911,17.013-122.664,17.013s-122.68-7.615-122.68-17.013,54.934-16.99,122.68-16.99S521.83,391.979,521.83,401.367Z"/><path class="cls-116" d="M521.223,401.384c0,9.351-54.64,16.929-122.057,16.929s-122.073-7.578-122.073-16.929,54.662-16.906,122.073-16.906S521.223,392.042,521.223,401.384Z"/><path class="cls-117" d="M520.616,401.4c0,9.3-54.368,16.845-121.45,16.845S277.7,410.705,277.7,401.4s54.39-16.822,121.465-16.822S520.616,392.105,520.616,401.4Z"/><path class="cls-118" d="M520.008,401.418c0,9.257-54.1,16.76-120.842,16.76s-120.858-7.5-120.858-16.76,54.118-16.738,120.858-16.738S520.008,392.169,520.008,401.418Z"/><path class="cls-119" d="M519.4,401.435c0,9.211-53.824,16.676-120.235,16.676s-120.251-7.465-120.251-16.676,53.847-16.655,120.251-16.655S519.4,392.232,519.4,401.435Z"/><path class="cls-120" d="M518.794,401.451c0,9.165-53.552,16.592-119.628,16.592s-119.644-7.427-119.644-16.592,53.575-16.57,119.644-16.57S518.794,392.3,518.794,401.451Z"/><path class="cls-121" d="M518.186,401.468c0,9.118-53.279,16.508-119.02,16.508s-119.036-7.39-119.036-16.508,53.3-16.486,119.036-16.486S518.186,392.358,518.186,401.468Z"/><path class="cls-122" d="M517.579,401.485c0,9.071-53.008,16.423-118.413,16.423s-118.429-7.352-118.429-16.423,53.031-16.4,118.429-16.4S517.579,392.421,517.579,401.485Z"/><path class="cls-123" d="M516.972,401.5c0,9.024-52.736,16.339-117.806,16.339S281.344,410.526,281.344,401.5s52.759-16.318,117.822-16.318S516.972,392.484,516.972,401.5Z"/><path class="cls-124" d="M516.364,401.518c0,8.978-52.463,16.255-117.2,16.255S281.951,410.5,281.951,401.518s52.487-16.233,117.215-16.233S516.364,392.547,516.364,401.518Z"/><path class="cls-125" d="M515.757,401.535c0,8.932-52.192,16.171-116.591,16.171s-116.607-7.239-116.607-16.171,52.215-16.149,116.607-16.149S515.757,392.611,515.757,401.535Z"/><path class="cls-126" d="M515.15,401.552c0,8.885-51.92,16.086-115.984,16.086s-116-7.2-116-16.086,51.943-16.065,116-16.065S515.15,392.674,515.15,401.552Z"/><path class="cls-127" d="M514.542,401.569c0,8.838-51.648,16-115.376,16s-115.393-7.164-115.393-16,51.672-15.982,115.393-15.982S514.542,392.737,514.542,401.569Z"/><path class="cls-128" d="M513.935,401.585c0,8.792-51.376,15.918-114.769,15.918S284.38,410.377,284.38,401.585s51.4-15.9,114.786-15.9S513.935,392.8,513.935,401.585Z"/><path class="cls-129" d="M513.328,401.6c0,8.745-51.1,15.834-114.162,15.834S284.987,410.347,284.987,401.6s51.128-15.813,114.179-15.813S513.328,392.863,513.328,401.6Z"/><path class="cls-130" d="M512.721,401.619c0,8.7-50.833,15.749-113.555,15.749S285.6,410.318,285.6,401.619s50.856-15.729,113.571-15.729S512.721,392.926,512.721,401.619Z"/><path class="cls-131" d="M512.113,401.636c0,8.652-50.56,15.665-112.947,15.665S286.2,410.288,286.2,401.636s50.584-15.645,112.964-15.645S512.113,392.989,512.113,401.636Z"/><path class="cls-132" d="M511.506,401.652c0,8.606-50.288,15.581-112.34,15.581s-112.357-6.975-112.357-15.581,50.312-15.56,112.357-15.56S511.506,393.053,511.506,401.652Z"/><path class="cls-133" d="M510.9,401.669c0,8.559-50.017,15.5-111.733,15.5s-111.75-6.938-111.75-15.5,50.041-15.476,111.75-15.476S510.9,393.116,510.9,401.669Z"/><path class="cls-134" d="M510.291,401.686c0,8.512-49.744,15.412-111.125,15.412s-111.142-6.9-111.142-15.412,49.768-15.392,111.142-15.392S510.291,393.179,510.291,401.686Z"/><path class="cls-135" d="M509.684,401.7c0,8.465-49.472,15.328-110.518,15.328S288.631,410.168,288.631,401.7s49.5-15.309,110.535-15.309S509.684,393.242,509.684,401.7Z"/><path class="cls-136" d="M509.077,401.719c0,8.42-49.2,15.244-109.911,15.244s-109.928-6.824-109.928-15.244S338.463,386.5,399.166,386.5,509.077,393.305,509.077,401.719Z"/><path class="cls-137" d="M508.469,401.736c0,8.373-48.928,15.16-109.3,15.16s-109.321-6.787-109.321-15.16S338.8,386.6,399.166,386.6,508.469,393.368,508.469,401.736Z"/><path class="cls-138" d="M507.862,401.753c0,8.326-48.656,15.075-108.7,15.075s-108.714-6.749-108.714-15.075S339.134,386.7,399.166,386.7,507.862,393.431,507.862,401.753Z"/><path class="cls-139" d="M507.255,401.77c0,8.279-48.385,14.991-108.089,14.991S291.06,410.049,291.06,401.77,339.469,386.8,399.166,386.8,507.255,393.494,507.255,401.77Z"/><path class="cls-140" d="M506.647,401.786c0,8.233-48.112,14.908-107.481,14.908s-107.5-6.675-107.5-14.908S339.8,386.9,399.166,386.9,506.647,393.558,506.647,401.786Z"/><path class="cls-141" d="M506.04,401.8c0,8.187-47.841,14.823-106.874,14.823S292.274,409.99,292.274,401.8,340.14,387,399.166,387,506.04,393.621,506.04,401.8Z"/><path class="cls-142" d="M505.433,401.82c0,8.14-47.569,14.739-106.267,14.739s-106.285-6.6-106.285-14.739S340.475,387.1,399.166,387.1,505.433,393.684,505.433,401.82Z"/><path class="cls-143" d="M504.826,401.837c0,8.093-47.3,14.654-105.66,14.654s-105.677-6.561-105.677-14.654S340.811,387.2,399.166,387.2,504.826,393.747,504.826,401.837Z"/><path class="cls-144" d="M504.218,401.853c0,8.047-47.025,14.571-105.052,14.571S294.1,409.9,294.1,401.853s47.05-14.551,105.07-14.551S504.218,393.81,504.218,401.853Z"/><path class="cls-145" d="M503.611,401.87c0,8-46.753,14.486-104.445,14.486S294.7,409.87,294.7,401.87,341.481,387.4,399.166,387.4,503.611,393.873,503.611,401.87Z"/><path class="cls-146" d="M503,401.887c0,7.953-46.481,14.4-103.838,14.4s-103.856-6.449-103.856-14.4S341.817,387.5,399.166,387.5,503,393.936,503,401.887Z"/><path class="cls-147" d="M502.4,401.9c0,7.907-46.209,14.317-103.23,14.317s-103.248-6.41-103.248-14.317,46.234-14.3,103.248-14.3S502.4,394,502.4,401.9Z"/><path class="cls-148" d="M501.789,401.921c0,7.86-45.937,14.233-102.623,14.233s-102.641-6.373-102.641-14.233,45.962-14.215,102.641-14.215S501.789,394.063,501.789,401.921Z"/><path class="cls-149" d="M501.182,401.937c0,7.814-45.665,14.149-102.016,14.149s-102.034-6.335-102.034-14.149,45.691-14.13,102.034-14.13S501.182,394.126,501.182,401.937Z"/><path class="cls-150" d="M500.574,401.954c0,7.767-45.393,14.065-101.408,14.065s-101.427-6.3-101.427-14.065,45.419-14.046,101.427-14.046S500.574,394.189,500.574,401.954Z"/><path class="cls-151" d="M499.967,401.971c0,7.72-45.121,13.98-100.8,13.98s-100.82-6.26-100.82-13.98,45.148-13.962,100.82-13.962S499.967,394.252,499.967,401.971Z"/><path class="cls-152" d="M499.36,401.988c0,7.674-44.849,13.9-100.194,13.9s-100.212-6.222-100.212-13.9,44.875-13.879,100.212-13.879S499.36,394.315,499.36,401.988Z"/><path class="cls-153" d="M498.753,402c0,7.628-44.578,13.812-99.587,13.812S299.561,409.632,299.561,402s44.6-13.794,99.605-13.794S498.753,394.378,498.753,402Z"/><path class="cls-154" d="M498.145,402.021c0,7.581-44.305,13.728-98.979,13.728s-99-6.147-99-13.728,44.332-13.71,99-13.71S498.145,394.442,498.145,402.021Z"/><path class="cls-155" d="M497.538,402.038c0,7.534-44.033,13.643-98.372,13.643s-98.391-6.109-98.391-13.643,44.06-13.626,98.391-13.626S497.538,394.505,497.538,402.038Z"/><path class="cls-156" d="M496.931,402.055c0,7.487-43.762,13.559-97.765,13.559s-97.783-6.072-97.783-13.559,43.787-13.542,97.783-13.542S496.931,394.568,496.931,402.055Z"/><path class="cls-157" d="M496.323,402.071c0,7.441-43.489,13.475-97.157,13.475s-97.176-6.034-97.176-13.475,43.516-13.457,97.176-13.457S496.323,394.631,496.323,402.071Z"/><path class="cls-158" d="M495.716,402.088c0,7.395-43.218,13.391-96.55,13.391s-96.569-6-96.569-13.391,43.244-13.373,96.569-13.373S495.716,394.694,495.716,402.088Z"/><path class="cls-159" d="M495.109,402.105c0,7.348-42.946,13.306-95.943,13.306S303.2,409.453,303.2,402.105s42.973-13.289,95.962-13.289S495.109,394.757,495.109,402.105Z"/><path class="cls-160" d="M494.5,402.122c0,7.3-42.673,13.222-95.335,13.222s-95.354-5.921-95.354-13.222,42.7-13.206,95.354-13.206S494.5,394.82,494.5,402.122Z"/><path class="cls-161" d="M493.894,402.138c0,7.255-42.4,13.138-94.728,13.138s-94.747-5.883-94.747-13.138,42.428-13.121,94.747-13.121S493.894,394.884,493.894,402.138Z"/><path class="cls-162" d="M493.287,402.155c0,7.208-42.13,13.054-94.121,13.054s-94.14-5.846-94.14-13.054,42.157-13.037,94.14-13.037S493.287,394.947,493.287,402.155Z"/><path class="cls-163" d="M492.679,402.172c0,7.162-41.857,12.969-93.513,12.969s-93.533-5.807-93.533-12.969,41.885-12.953,93.533-12.953S492.679,395.01,492.679,402.172Z"/><path class="cls-164" d="M492.072,402.189c0,7.115-41.586,12.885-92.906,12.885s-92.926-5.77-92.926-12.885,41.613-12.869,92.926-12.869S492.072,395.073,492.072,402.189Z"/><path class="cls-165" d="M491.465,402.205c0,7.069-41.314,12.8-92.3,12.8s-92.318-5.733-92.318-12.8,41.341-12.784,92.318-12.784S491.465,395.136,491.465,402.205Z"/><path class="cls-166" d="M490.858,402.222c0,7.022-41.042,12.717-91.692,12.717s-91.711-5.695-91.711-12.717,41.069-12.7,91.711-12.7S490.858,395.2,490.858,402.222Z"/><path class="cls-167" d="M490.25,402.239c0,6.975-40.77,12.633-91.084,12.633s-91.1-5.658-91.1-12.633,40.8-12.616,91.1-12.616S490.25,395.262,490.25,402.239Z"/><path class="cls-168" d="M489.643,402.256c0,6.928-40.5,12.548-90.477,12.548s-90.5-5.62-90.5-12.548,40.526-12.533,90.5-12.533S489.643,395.325,489.643,402.256Z"/><path class="cls-169" d="M489.036,402.272c0,6.883-40.226,12.465-89.87,12.465s-89.889-5.582-89.889-12.465,40.253-12.448,89.889-12.448S489.036,395.389,489.036,402.272Z"/><path class="cls-170" d="M488.428,402.289c0,6.836-39.954,12.38-89.262,12.38s-89.282-5.544-89.282-12.38,39.982-12.364,89.282-12.364S488.428,395.452,488.428,402.289Z"/><path class="cls-171" d="M487.821,402.306c0,6.789-39.682,12.3-88.655,12.3s-88.675-5.507-88.675-12.3,39.71-12.28,88.675-12.28S487.821,395.515,487.821,402.306Z"/><path class="cls-172" d="M487.214,402.323c0,6.742-39.411,12.211-88.048,12.211S311.1,409.065,311.1,402.323s39.439-12.2,88.068-12.2S487.214,395.578,487.214,402.323Z"/><path class="cls-173" d="M486.606,402.339c0,6.7-39.138,12.128-87.44,12.128s-87.461-5.432-87.461-12.128,39.167-12.111,87.461-12.111S486.606,395.641,486.606,402.339Z"/><path class="cls-174" d="M486,402.356c0,6.65-38.866,12.043-86.833,12.043s-86.853-5.393-86.853-12.043,38.894-12.027,86.853-12.027S486,395.7,486,402.356Z"/><path class="cls-175" d="M485.392,402.373c0,6.6-38.595,11.959-86.226,11.959s-86.246-5.356-86.246-11.959,38.623-11.943,86.246-11.943S485.392,395.767,485.392,402.373Z"/><path class="cls-176" d="M484.784,402.39c0,6.556-38.322,11.874-85.618,11.874s-85.639-5.318-85.639-11.874,38.351-11.86,85.639-11.86S484.784,395.831,484.784,402.39Z"/><path class="cls-177" d="M484.177,402.407c0,6.509-38.05,11.79-85.011,11.79s-85.032-5.281-85.032-11.79,38.079-11.776,85.032-11.776S484.177,395.894,484.177,402.407Z"/><path class="cls-178" d="M483.57,402.423c0,6.463-37.779,11.706-84.4,11.706s-84.424-5.243-84.424-11.706,37.807-11.691,84.424-11.691S483.57,395.957,483.57,402.423Z"/><path class="cls-179" d="M482.963,402.44c0,6.417-37.507,11.622-83.8,11.622s-83.817-5.2-83.817-11.622,37.535-11.607,83.817-11.607S482.963,396.02,482.963,402.44Z"/><path class="cls-180" d="M482.355,402.457c0,6.37-37.234,11.537-83.189,11.537s-83.21-5.167-83.21-11.537,37.264-11.523,83.21-11.523S482.355,396.083,482.355,402.457Z"/><path class="cls-181" d="M481.748,402.474c0,6.323-36.963,11.453-82.582,11.453s-82.6-5.13-82.6-11.453,36.992-11.439,82.6-11.439S481.748,396.146,481.748,402.474Z"/><path class="cls-182" d="M481.141,402.49c0,6.277-36.691,11.369-81.975,11.369s-81.995-5.092-81.995-11.369,36.719-11.354,82-11.354S481.141,396.209,481.141,402.49Z"/><path class="cls-183" d="M480.533,402.507c0,6.23-36.418,11.285-81.367,11.285s-81.388-5.055-81.388-11.285,36.448-11.27,81.388-11.27S480.533,396.273,480.533,402.507Z"/><path class="cls-184" d="M479.926,402.524c0,6.183-36.147,11.2-80.76,11.2s-80.781-5.017-80.781-11.2,36.176-11.187,80.781-11.187S479.926,396.336,479.926,402.524Z"/><path class="cls-185" d="M479.319,402.541c0,6.137-35.875,11.116-80.153,11.116s-80.174-4.979-80.174-11.116,35.9-11.1,80.174-11.1S479.319,396.4,479.319,402.541Z"/><path class="cls-186" d="M478.711,402.557c0,6.091-35.6,11.032-79.545,11.032S319.6,408.648,319.6,402.557s35.633-11.018,79.567-11.018S478.711,396.462,478.711,402.557Z"/><path class="cls-187" d="M478.1,402.574c0,6.044-35.331,10.948-78.938,10.948s-78.959-4.9-78.959-10.948,35.36-10.934,78.959-10.934S478.1,396.525,478.1,402.574Z"/><path class="cls-188" d="M477.5,402.591c0,6-35.059,10.863-78.331,10.863s-78.352-4.866-78.352-10.863,35.089-10.85,78.352-10.85S477.5,396.588,477.5,402.591Z"/><path class="cls-189" d="M476.89,402.608c0,5.95-34.788,10.779-77.724,10.779s-77.745-4.829-77.745-10.779,34.817-10.766,77.745-10.766S476.89,396.651,476.89,402.608Z"/><path class="cls-190" d="M476.282,402.624c0,5.9-34.515,10.7-77.116,10.7s-77.138-4.791-77.138-10.7,34.545-10.681,77.138-10.681S476.282,396.715,476.282,402.624Z"/><path class="cls-191" d="M475.675,402.641c0,5.858-34.243,10.611-76.509,10.611s-76.53-4.753-76.53-10.611,34.273-10.6,76.53-10.6S475.675,396.778,475.675,402.641Z"/><path class="cls-192" d="M475.068,402.658c0,5.811-33.972,10.527-75.9,10.527s-75.923-4.716-75.923-10.527,34-10.513,75.923-10.513S475.068,396.841,475.068,402.658Z"/><path class="cls-193" d="M474.46,402.675c0,5.764-33.7,10.442-75.294,10.442s-75.316-4.678-75.316-10.442,33.729-10.43,75.316-10.43S474.46,396.9,474.46,402.675Z"/><path class="cls-194" d="M473.853,402.691c0,5.718-33.427,10.359-74.687,10.359s-74.709-4.641-74.709-10.359,33.458-10.345,74.709-10.345S473.853,396.967,473.853,402.691Z"/><path class="cls-195" d="M473.246,402.708c0,5.671-33.156,10.274-74.08,10.274s-74.1-4.6-74.1-10.274,33.185-10.261,74.1-10.261S473.246,397.03,473.246,402.708Z"/><path class="cls-196" d="M472.638,402.725c0,5.625-32.883,10.19-73.472,10.19s-73.494-4.565-73.494-10.19,32.914-10.177,73.494-10.177S472.638,397.093,472.638,402.725Z"/><path class="cls-197" d="M472.031,402.742c0,5.578-32.611,10.1-72.865,10.1s-72.887-4.527-72.887-10.1,32.642-10.093,72.887-10.093S472.031,397.157,472.031,402.742Z"/><path class="cls-198" d="M471.424,402.758c0,5.532-32.34,10.022-72.258,10.022s-72.28-4.49-72.28-10.022,32.37-10.008,72.28-10.008S471.424,397.22,471.424,402.758Z"/><path class="cls-199" d="M470.816,402.775c0,5.485-32.067,9.937-71.65,9.937s-71.673-4.452-71.673-9.937,32.1-9.924,71.673-9.924S470.816,397.283,470.816,402.775Z"/><path class="cls-200" d="M470.209,402.792c0,5.438-31.8,9.853-71.043,9.853S328.1,408.23,328.1,402.792s31.826-9.84,71.065-9.84S470.209,397.346,470.209,402.792Z"/><path class="cls-201" d="M469.6,402.809c0,5.392-31.524,9.768-70.436,9.768s-70.458-4.376-70.458-9.768,31.554-9.757,70.458-9.757S469.6,397.409,469.6,402.809Z"/><path class="cls-202" d="M469,402.825c0,5.346-31.252,9.685-69.829,9.685s-69.851-4.339-69.851-9.685,31.283-9.672,69.851-9.672S469,397.472,469,402.825Z"/><path class="cls-203" d="M468.387,402.842c0,5.3-30.98,9.6-69.221,9.6s-69.244-4.3-69.244-9.6,31.011-9.588,69.244-9.588S468.387,397.535,468.387,402.842Z"/><path class="cls-204" d="M467.78,402.859c0,5.252-30.708,9.516-68.614,9.516s-68.636-4.264-68.636-9.516,30.739-9.5,68.636-9.5S467.78,397.6,467.78,402.859Z"/><path class="cls-205" d="M467.173,402.876c0,5.205-30.436,9.431-68.007,9.431s-68.029-4.226-68.029-9.431,30.467-9.42,68.029-9.42S467.173,397.662,467.173,402.876Z"/><path class="cls-206" d="M466.565,402.893c0,5.158-30.164,9.347-67.4,9.347s-67.422-4.189-67.422-9.347,30.195-9.336,67.422-9.336S466.565,397.725,466.565,402.893Z"/><path class="cls-207" d="M465.958,402.909c0,5.113-29.892,9.263-66.792,9.263s-66.815-4.15-66.815-9.263,29.924-9.251,66.815-9.251S465.958,397.788,465.958,402.909Z"/><path class="cls-208" d="M465.351,402.926c0,5.066-29.62,9.179-66.185,9.179s-66.208-4.113-66.208-9.179,29.652-9.167,66.208-9.167S465.351,397.851,465.351,402.926Z"/><path class="cls-209" d="M464.743,402.943c0,5.019-29.348,9.094-65.577,9.094s-65.6-4.075-65.6-9.094,29.379-9.084,65.6-9.084S464.743,397.914,464.743,402.943Z"/><path class="cls-210" d="M464.136,402.96c0,4.972-29.076,9.01-64.97,9.01s-64.993-4.038-64.993-9.01,29.108-9,64.993-9S464.136,397.977,464.136,402.96Z"/><path class="cls-211" d="M463.529,402.976c0,4.926-28.8,8.926-64.363,8.926s-64.386-4-64.386-8.926,28.836-8.915,64.386-8.915S463.529,398.04,463.529,402.976Z"/><path class="cls-212" d="M462.921,402.993c0,4.88-28.532,8.842-63.755,8.842s-63.779-3.962-63.779-8.842,28.565-8.831,63.779-8.831S462.921,398.1,462.921,402.993Z"/><path class="cls-213" d="M462.314,403.01c0,4.833-28.26,8.757-63.148,8.757S336,407.843,336,403.01s28.292-8.747,63.171-8.747S462.314,398.167,462.314,403.01Z"/><path class="cls-214" d="M461.707,403.027c0,4.786-27.988,8.673-62.541,8.673s-62.564-3.887-62.564-8.673,28.02-8.663,62.564-8.663S461.707,398.23,461.707,403.027Z"/><path class="cls-215" d="M461.1,403.043c0,4.74-27.717,8.59-61.934,8.59s-61.957-3.85-61.957-8.59,27.749-8.578,61.957-8.578S461.1,398.293,461.1,403.043Z"/><path class="cls-216" d="M460.492,403.06c0,4.693-27.444,8.5-61.326,8.5s-61.35-3.812-61.35-8.5,27.477-8.494,61.35-8.494S460.492,398.356,460.492,403.06Z"/><path class="cls-217" d="M459.885,403.077c0,4.646-27.173,8.421-60.719,8.421s-60.742-3.775-60.742-8.421,27.2-8.411,60.742-8.411S459.885,398.419,459.885,403.077Z"/><path class="cls-218" d="M459.278,403.094c0,4.6-26.9,8.336-60.112,8.336s-60.135-3.736-60.135-8.336,26.933-8.327,60.135-8.327S459.278,398.482,459.278,403.094Z"/><path class="cls-219" d="M458.67,403.11c0,4.554-26.628,8.253-59.5,8.253s-59.528-3.7-59.528-8.253,26.661-8.242,59.528-8.242S458.67,398.546,458.67,403.11Z"/><path class="cls-220" d="M458.063,403.127c0,4.507-26.357,8.168-58.9,8.168s-58.921-3.661-58.921-8.168,26.39-8.158,58.921-8.158S458.063,398.609,458.063,403.127Z"/><path class="cls-221" d="M457.456,403.144c0,4.46-26.085,8.084-58.29,8.084s-58.314-3.624-58.314-8.084,26.118-8.074,58.314-8.074S457.456,398.672,457.456,403.144Z"/><path class="cls-222" d="M456.848,403.161c0,4.413-25.812,8-57.682,8s-57.706-3.586-57.706-8,25.845-7.99,57.706-7.99S456.848,398.735,456.848,403.161Z"/><path class="cls-223" d="M456.241,403.177c0,4.368-25.541,7.916-57.075,7.916s-57.1-3.548-57.1-7.916,25.574-7.905,57.1-7.905S456.241,398.8,456.241,403.177Z"/><path class="cls-224" d="M455.634,403.194c0,4.321-25.269,7.831-56.468,7.831s-56.492-3.51-56.492-7.831,25.3-7.821,56.492-7.821S455.634,398.861,455.634,403.194Z"/><path class="cls-225" d="M455.026,403.211c0,4.274-25,7.747-55.86,7.747s-55.885-3.473-55.885-7.747,25.03-7.738,55.885-7.738S455.026,398.924,455.026,403.211Z"/><path class="cls-226" d="M454.419,403.228c0,4.227-24.725,7.662-55.253,7.662s-55.277-3.435-55.277-7.662,24.758-7.654,55.277-7.654S454.419,398.988,454.419,403.228Z"/><path class="cls-227" d="M453.812,403.244c0,4.181-24.453,7.579-54.646,7.579s-54.67-3.4-54.67-7.579,24.486-7.569,54.67-7.569S453.812,399.051,453.812,403.244Z"/><path class="cls-228" d="M453.205,403.261c0,4.134-24.181,7.494-54.039,7.494S345.1,407.4,345.1,403.261s24.215-7.485,54.063-7.485S453.205,399.114,453.205,403.261Z"/><path class="cls-229" d="M452.6,403.278c0,4.088-23.909,7.41-53.431,7.41s-53.456-3.322-53.456-7.41,23.943-7.4,53.456-7.4S452.6,399.177,452.6,403.278Z"/><path class="cls-230" d="M451.99,403.3c0,4.041-23.637,7.325-52.824,7.325s-52.848-3.284-52.848-7.325,23.67-7.317,52.848-7.317S451.99,399.24,451.99,403.3Z"/><path class="cls-231" d="M451.383,403.311c0,4-23.366,7.242-52.217,7.242s-52.241-3.247-52.241-7.242,23.4-7.232,52.241-7.232S451.383,399.3,451.383,403.311Z"/><path class="cls-232" d="M450.775,403.328c0,3.948-23.093,7.157-51.609,7.157s-51.634-3.209-51.634-7.157,23.127-7.148,51.634-7.148S450.775,399.366,450.775,403.328Z"/><path class="cls-233" d="M450.168,403.345c0,3.9-22.821,7.073-51,7.073s-51.027-3.172-51.027-7.073,22.855-7.064,51.027-7.064S450.168,399.43,450.168,403.345Z"/><path class="cls-234" d="M449.561,403.362c0,3.855-22.55,6.988-50.395,6.988s-50.42-3.133-50.42-6.988,22.584-6.981,50.42-6.981S449.561,399.493,449.561,403.362Z"/><path class="cls-235" d="M448.953,403.379c0,3.808-22.277,6.9-49.787,6.9s-49.812-3.1-49.812-6.9c0-3.823,22.311-6.9,49.812-6.9S448.953,399.556,448.953,403.379Z"/><path class="cls-236" d="M448.346,403.4c0,3.762-22,6.82-49.18,6.82s-49.2-3.058-49.2-6.82,22.04-6.812,49.2-6.812S448.346,399.619,448.346,403.4Z"/><path class="cls-237" d="M447.739,403.412c0,3.715-21.734,6.736-48.573,6.736s-48.6-3.021-48.6-6.736,21.768-6.728,48.6-6.728S447.739,399.682,447.739,403.412Z"/><path class="cls-238" d="M447.132,403.429c0,3.668-21.462,6.651-47.966,6.651s-47.991-2.983-47.991-6.651c0-3.684,21.5-6.644,47.991-6.644S447.132,399.745,447.132,403.429Z"/><path class="cls-239" d="M446.524,403.446c0,3.621-21.189,6.567-47.358,6.567s-47.383-2.946-47.383-6.567c0-3.638,21.224-6.56,47.383-6.56S446.524,399.808,446.524,403.446Z"/><path class="cls-240" d="M445.917,403.462c0,3.576-20.918,6.484-46.751,6.484s-46.776-2.908-46.776-6.484,20.952-6.475,46.776-6.475S445.917,399.871,445.917,403.462Z"/><path class="cls-241" d="M445.31,403.479c0,3.529-20.646,6.4-46.144,6.4S353,407.008,353,403.479s20.68-6.391,46.169-6.391S445.31,399.935,445.31,403.479Z"/><path class="cls-242" d="M444.7,403.5c0,3.482-20.373,6.315-45.536,6.315S353.6,406.978,353.6,403.5c0-3.5,20.409-6.308,45.562-6.308S444.7,400,444.7,403.5Z"/><path class="cls-243" d="M444.1,403.513c0,3.435-20.1,6.23-44.929,6.23s-44.955-2.8-44.955-6.23c0-3.452,20.137-6.224,44.955-6.224S444.1,400.061,444.1,403.513Z"/><path class="cls-244" d="M443.488,403.529c0,3.389-19.83,6.147-44.322,6.147s-44.347-2.758-44.347-6.147c0-3.4,19.865-6.139,44.347-6.139S443.488,400.124,443.488,403.529Z"/><path class="cls-245" d="M442.88,403.546c0,3.343-19.557,6.062-43.714,6.062s-43.74-2.719-43.74-6.062c0-3.359,19.593-6.055,43.74-6.055S442.88,400.187,442.88,403.546Z"/><path class="cls-246" d="M442.273,403.563c0,3.3-19.286,5.978-43.107,5.978s-43.133-2.682-43.133-5.978c0-3.313,19.321-5.971,43.133-5.971S442.273,400.25,442.273,403.563Z"/><path class="cls-247" d="M441.666,403.58c0,3.249-19.014,5.893-42.5,5.893s-42.526-2.644-42.526-5.893c0-3.267,19.05-5.887,42.526-5.887S441.666,400.313,441.666,403.58Z"/><path class="cls-248" d="M441.058,403.6c0,3.2-18.742,5.81-41.892,5.81s-41.918-2.607-41.918-5.81c0-3.219,18.777-5.8,41.918-5.8S441.058,400.377,441.058,403.6Z"/><path class="cls-249" d="M440.451,403.613c0,3.156-18.47,5.725-41.285,5.725s-41.311-2.569-41.311-5.725c0-3.173,18.5-5.718,41.311-5.718S440.451,400.44,440.451,403.613Z"/><path class="cls-250" d="M439.844,403.63c0,3.109-18.2,5.641-40.678,5.641s-40.7-2.532-40.7-5.641c0-3.127,18.234-5.635,40.7-5.635S439.844,400.5,439.844,403.63Z"/><path class="cls-251" d="M439.237,403.647c0,3.063-17.927,5.556-40.071,5.556s-40.1-2.493-40.1-5.556c0-3.081,17.962-5.551,40.1-5.551S439.237,400.566,439.237,403.647Z"/><path class="cls-252" d="M438.629,403.663c0,3.017-17.654,5.473-39.463,5.473s-39.489-2.456-39.489-5.473c0-3.034,17.69-5.466,39.489-5.466S438.629,400.629,438.629,403.663Z"/><path class="cls-253" d="M438.022,403.68c0,2.97-17.382,5.388-38.856,5.388s-38.882-2.418-38.882-5.388c0-2.988,17.418-5.382,38.882-5.382S438.022,400.692,438.022,403.68Z"/><path class="cls-254" d="M437.415,403.7c0,2.923-17.111,5.3-38.249,5.3s-38.275-2.381-38.275-5.3c0-2.942,17.146-5.3,38.275-5.3S437.415,400.755,437.415,403.7Z"/><path class="cls-255" d="M436.807,403.714c0,2.876-16.838,5.219-37.641,5.219S361.5,406.59,361.5,403.714c0-2.895,16.875-5.214,37.668-5.214S436.807,400.819,436.807,403.714Z"/><path class="cls-256" d="M436.2,403.73c0,2.831-16.566,5.136-37.034,5.136s-37.061-2.305-37.061-5.136c0-2.848,16.6-5.129,37.061-5.129S436.2,400.882,436.2,403.73Z"/><path class="cls-257" d="M435.593,403.747c0,2.784-16.3,5.051-36.427,5.051s-36.453-2.267-36.453-5.051c0-2.8,16.33-5.045,36.453-5.045S435.593,400.945,435.593,403.747Z"/><path class="cls-258" d="M434.985,403.764c0,2.737-16.022,4.967-35.819,4.967s-35.846-2.23-35.846-4.967c0-2.756,16.059-4.962,35.846-4.962S434.985,401.008,434.985,403.764Z"/><path class="cls-259" d="M434.378,403.781c0,2.69-15.75,4.882-35.212,4.882s-35.239-2.192-35.239-4.882c0-2.71,15.787-4.878,35.239-4.878S434.378,401.071,434.378,403.781Z"/><path class="cls-260" d="M433.771,403.8c0,2.644-15.479,4.8-34.605,4.8s-34.632-2.155-34.632-4.8c0-2.663,15.516-4.793,34.632-4.793S433.771,401.134,433.771,403.8Z"/><path d="M433.163,403.814c0,2.6-15.206,4.714-34,4.714s-34.024-2.116-34.024-4.714c0-2.617,15.243-4.709,34.024-4.709S433.163,401.2,433.163,403.814Z"/></g></g></g></svg>