<svg xmlns="http://www.w3.org/2000/svg" viewBox="0 0 800 600"><defs><style>.cls-1{isolation:isolate;}.cls-2{opacity:0.2;mix-blend-mode:multiply;}.cls-3{fill:#fff;opacity:0;}.cls-4{fill:#fefefe;opacity:0.004;}.cls-5{fill:#fdfdfd;opacity:0.008;}.cls-6{fill:#fcfcfc;opacity:0.012;}.cls-7{fill:#fbfbfb;opacity:0.016;}.cls-8{fill:#fafafa;opacity:0.02;}.cls-9{fill:#f9f9f9;opacity:0.024;}.cls-10{fill:#f8f8f8;opacity:0.027;}.cls-11{fill:#f7f7f7;opacity:0.031;}.cls-12{fill:#f6f6f6;opacity:0.035;}.cls-13{fill:#f5f5f5;opacity:0.039;}.cls-14{fill:#f4f4f4;opacity:0.043;}.cls-15{fill:#f3f3f3;opacity:0.047;}.cls-16{fill:#f2f2f2;opacity:0.051;}.cls-17{fill:#f1f1f1;opacity:0.055;}.cls-18{fill:#f0f0f0;opacity:0.059;}.cls-19{fill:#efefef;opacity:0.063;}.cls-20{fill:#eee;opacity:0.067;}.cls-21{fill:#ededed;opacity:0.071;}.cls-22{fill:#ececec;opacity:0.075;}.cls-23{fill:#ebebeb;opacity:0.078;}.cls-24{fill:#eaeaea;opacity:0.082;}.cls-25{fill:#e9e9e9;opacity:0.086;}.cls-26{fill:#e8e8e8;opacity:0.09;}.cls-27{fill:#e7e7e7;opacity:0.094;}.cls-28{fill:#e6e6e6;opacity:0.098;}.cls-29{fill:#e5e5e5;opacity:0.102;}.cls-30{fill:#e4e4e4;opacity:0.106;}.cls-31{fill:#e3e3e3;opacity:0.11;}.cls-32{fill:#e2e2e2;opacity:0.114;}.cls-33{fill:#e1e1e1;opacity:0.118;}.cls-34{fill:#e0e0e0;opacity:0.122;}.cls-35{fill:#dfdfdf;opacity:0.125;}.cls-36{fill:#dedede;opacity:0.129;}.cls-37{fill:#ddd;opacity:0.133;}.cls-38{fill:#dcdcdc;opacity:0.137;}.cls-39{fill:#dbdbdb;opacity:0.141;}.cls-40{fill:#dadada;opacity:0.145;}.cls-41{fill:#d9d9d9;opacity:0.149;}.cls-42{fill:#d8d8d8;opacity:0.153;}.cls-43{fill:#d7d7d7;opacity:0.157;}.cls-44{fill:#d6d6d6;opacity:0.161;}.cls-45{fill:#d5d5d5;opacity:0.165;}.cls-46{fill:#d4d4d4;opacity:0.169;}.cls-47{fill:#d3d3d3;opacity:0.173;}.cls-48{fill:#d2d2d2;opacity:0.176;}.cls-49{fill:#d1d1d1;opacity:0.18;}.cls-50{fill:#d0d0d0;opacity:0.184;}.cls-51{fill:#cfcfcf;opacity:0.188;}.cls-52{fill:#cecece;opacity:0.192;}.cls-53{fill:#cdcdcd;opacity:0.196;}.cls-54{fill:#ccc;opacity:0.2;}.cls-55{fill:#cbcbcb;opacity:0.204;}.cls-56{fill:#cacaca;opacity:0.208;}.cls-57{fill:#c9c9c9;opacity:0.212;}.cls-58{fill:#c8c8c8;opacity:0.216;}.cls-59{fill:#c7c7c7;opacity:0.22;}.cls-60{fill:#c6c6c6;opacity:0.224;}.cls-61{fill:#c5c5c5;opacity:0.227;}.cls-62{fill:#c4c4c4;opacity:0.231;}.cls-63{fill:#c3c3c3;opacity:0.235;}.cls-64{fill:#c2c2c2;opacity:0.239;}.cls-65{fill:#c1c1c1;opacity:0.243;}.cls-66{fill:silver;opacity:0.247;}.cls-67{fill:#bfbfbf;opacity:0.251;}.cls-68{fill:#bebebe;opacity:0.255;}.cls-69{fill:#bdbdbd;opacity:0.259;}.cls-70{fill:#bcbcbc;opacity:0.263;}.cls-71{fill:#bbb;opacity:0.267;}.cls-72{fill:#bababa;opacity:0.271;}.cls-73{fill:#b9b9b9;opacity:0.275;}.cls-74{fill:#b8b8b8;opacity:0.278;}.cls-75{fill:#b7b7b7;opacity:0.282;}.cls-76{fill:#b6b6b6;opacity:0.286;}.cls-77{fill:#b5b5b5;opacity:0.29;}.cls-78{fill:#b4b4b4;opacity:0.294;}.cls-79{fill:#b3b3b3;opacity:0.298;}.cls-80{fill:#b2b2b2;opacity:0.302;}.cls-81{fill:#b1b1b1;opacity:0.306;}.cls-82{fill:#b0b0b0;opacity:0.31;}.cls-83{fill:#afafaf;opacity:0.314;}.cls-84{fill:#aeaeae;opacity:0.318;}.cls-85{fill:#adadad;opacity:0.322;}.cls-86{fill:#acacac;opacity:0.325;}.cls-87{fill:#ababab;opacity:0.329;}.cls-88{fill:#aaa;opacity:0.333;}.cls-89{fill:#a9a9a9;opacity:0.337;}.cls-90{fill:#a8a8a8;opacity:0.341;}.cls-91{fill:#a7a7a7;opacity:0.345;}.cls-92{fill:#a6a6a6;opacity:0.349;}.cls-93{fill:#a5a5a5;opacity:0.353;}.cls-94{fill:#a4a4a4;opacity:0.357;}.cls-95{fill:#a3a3a3;opacity:0.361;}.cls-96{fill:#a2a2a2;opacity:0.365;}.cls-97{fill:#a1a1a1;opacity:0.369;}.cls-98{fill:#a0a0a0;opacity:0.373;}.cls-99{fill:#9f9f9f;opacity:0.376;}.cls-100{fill:#9e9e9e;opacity:0.38;}.cls-101{fill:#9d9d9d;opacity:0.384;}.cls-102{fill:#9c9c9c;opacity:0.388;}.cls-103{fill:#9b9b9b;opacity:0.392;}.cls-104{fill:#9a9a9a;opacity:0.396;}.cls-105{fill:#999;opacity:0.4;}.cls-106{fill:#989898;opacity:0.404;}.cls-107{fill:#979797;opacity:0.408;}.cls-108{fill:#969696;opacity:0.412;}.cls-109{fill:#959595;opacity:0.416;}.cls-110{fill:#949494;opacity:0.42;}.cls-111{fill:#939393;opacity:0.424;}.cls-112{fill:#929292;opacity:0.427;}.cls-113{fill:#919191;opacity:0.431;}.cls-114{fill:#909090;opacity:0.435;}.cls-115{fill:#8f8f8f;opacity:0.439;}.cls-116{fill:#8e8e8e;opacity:0.443;}.cls-117{fill:#8d8d8d;opacity:0.447;}.cls-118{fill:#8c8c8c;opacity:0.451;}.cls-119{fill:#8b8b8b;opacity:0.455;}.cls-120{fill:#8a8a8a;opacity:0.459;}.cls-121{fill:#898989;opacity:0.463;}.cls-122{fill:#888;opacity:0.467;}.cls-123{fill:#878787;opacity:0.471;}.cls-124{fill:#868686;opacity:0.475;}.cls-125{fill:#858585;opacity:0.478;}.cls-126{fill:#848484;opacity:0.482;}.cls-127{fill:#838383;opacity:0.486;}.cls-128{fill:#828282;opacity:0.49;}.cls-129{fill:#818181;opacity:0.494;}.cls-130{fill:gray;opacity:0.498;}.cls-131{fill:#7f7f7f;opacity:0.502;}.cls-132{fill:#7e7e7e;opacity:0.506;}.cls-133{fill:#7d7d7d;opacity:0.51;}.cls-134{fill:#7c7c7c;opacity:0.514;}.cls-135{fill:#7b7b7b;opacity:0.518;}.cls-136{fill:#7a7a7a;opacity:0.522;}.cls-137{fill:#797979;opacity:0.525;}.cls-138{fill:#787878;opacity:0.529;}.cls-139{fill:#777;opacity:0.533;}.cls-140{fill:#767676;opacity:0.537;}.cls-141{fill:#757575;opacity:0.541;}.cls-142{fill:#747474;opacity:0.545;}.cls-143{fill:#737373;opacity:0.549;}.cls-144{fill:#727272;opacity:0.553;}.cls-145{fill:#717171;opacity:0.557;}.cls-146{fill:#707070;opacity:0.561;}.cls-147{fill:#6f6f6f;opacity:0.565;}.cls-148{fill:#6e6e6e;opacity:0.569;}.cls-149{fill:#6d6d6d;opacity:0.573;}.cls-150{fill:#6c6c6c;opacity:0.576;}.cls-151{fill:#6b6b6b;opacity:0.58;}.cls-152{fill:#6a6a6a;opacity:0.584;}.cls-153{fill:#696969;opacity:0.588;}.cls-154{fill:#686868;opacity:0.592;}.cls-155{fill:#676767;opacity:0.596;}.cls-156{fill:#666;opacity:0.6;}.cls-157{fill:#656565;opacity:0.604;}.cls-158{fill:#646464;opacity:0.608;}.cls-159{fill:#636363;opacity:0.612;}.cls-160{fill:#626262;opacity:0.616;}.cls-161{fill:#616161;opacity:0.62;}.cls-162{fill:#606060;opacity:0.624;}.cls-163{fill:#5f5f5f;opacity:0.627;}.cls-164,.cls-259{fill:#5e5e5e;}.cls-164{opacity:0.631;}.cls-165{fill:#5d5d5d;opacity:0.635;}.cls-166{fill:#5c5c5c;opacity:0.639;}.cls-167{fill:#5b5b5b;opacity:0.643;}.cls-168{fill:#5a5a5a;opacity:0.647;}.cls-169{fill:#595959;opacity:0.651;}.cls-170{fill:#585858;opacity:0.655;}.cls-171{fill:#575757;opacity:0.659;}.cls-172{fill:#565656;opacity:0.663;}.cls-173{fill:#555;opacity:0.667;}.cls-174{fill:#545454;opacity:0.671;}.cls-175{fill:#535353;opacity:0.675;}.cls-176{fill:#525252;opacity:0.678;}.cls-177{fill:#515151;opacity:0.682;}.cls-178{fill:#505050;opacity:0.686;}.cls-179{fill:#4f4f4f;opacity:0.69;}.cls-180{fill:#4e4e4e;opacity:0.694;}.cls-181{fill:#4d4d4d;opacity:0.698;}.cls-182{fill:#4c4c4c;opacity:0.702;}.cls-183{fill:#4b4b4b;opacity:0.706;}.cls-184{fill:#4a4a4a;opacity:0.71;}.cls-185{fill:#494949;opacity:0.714;}.cls-186{fill:#484848;opacity:0.718;}.cls-187{fill:#474747;opacity:0.722;}.cls-188{fill:#464646;opacity:0.725;}.cls-189{fill:#454545;opacity:0.729;}.cls-190{fill:#444;opacity:0.733;}.cls-191{fill:#434343;opacity:0.737;}.cls-192{fill:#424242;opacity:0.741;}.cls-193{fill:#414141;opacity:0.745;}.cls-194{fill:#404040;opacity:0.749;}.cls-195{fill:#3f3f3f;opacity:0.753;}.cls-196{fill:#3e3e3e;opacity:0.757;}.cls-197{fill:#3d3d3d;opacity:0.761;}.cls-198{fill:#3c3c3c;opacity:0.765;}.cls-199{fill:#3b3b3b;opacity:0.769;}.cls-200{fill:#3a3a3a;opacity:0.773;}.cls-201{fill:#393939;opacity:0.776;}.cls-202{fill:#383838;opacity:0.78;}.cls-203{fill:#373737;opacity:0.784;}.cls-204{fill:#363636;opacity:0.788;}.cls-205{fill:#353535;opacity:0.792;}.cls-206{fill:#343434;opacity:0.796;}.cls-207{fill:#333;opacity:0.8;}.cls-208{fill:#323232;opacity:0.804;}.cls-209{fill:#313131;opacity:0.808;}.cls-210{fill:#303030;opacity:0.812;}.cls-211{fill:#2f2f2f;opacity:0.816;}.cls-212{fill:#2e2e2e;opacity:0.82;}.cls-213{fill:#2d2d2d;opacity:0.824;}.cls-214{fill:#2c2c2c;opacity:0.827;}.cls-215{fill:#2b2b2b;opacity:0.831;}.cls-216{fill:#2a2a2a;opacity:0.835;}.cls-217{fill:#292929;opacity:0.839;}.cls-218{fill:#282828;opacity:0.843;}.cls-219{fill:#272727;opacity:0.847;}.cls-220{fill:#262626;opacity:0.851;}.cls-221{fill:#252525;opacity:0.855;}.cls-222{fill:#242424;opacity:0.859;}.cls-223{fill:#232323;opacity:0.863;}.cls-224{fill:#222;opacity:0.867;}.cls-225{fill:#212121;opacity:0.871;}.cls-226{fill:#202020;opacity:0.875;}.cls-227{fill:#1f1f1f;opacity:0.878;}.cls-228{fill:#1e1e1e;opacity:0.882;}.cls-229{fill:#1d1d1d;opacity:0.886;}.cls-230{fill:#1c1c1c;opacity:0.89;}.cls-231{fill:#1b1b1b;opacity:0.894;}.cls-232{fill:#1a1a1a;opacity:0.898;}.cls-233{fill:#191919;opacity:0.902;}.cls-234{fill:#181818;opacity:0.906;}.cls-235{fill:#171717;opacity:0.91;}.cls-236{fill:#161616;opacity:0.914;}.cls-237{fill:#151515;opacity:0.918;}.cls-238{fill:#141414;opacity:0.922;}.cls-239{fill:#131313;opacity:0.925;}.cls-240{fill:#121212;opacity:0.929;}.cls-241{fill:#111;opacity:0.933;}.cls-242{fill:#101010;opacity:0.937;}.cls-243{fill:#0f0f0f;opacity:0.941;}.cls-244{fill:#0e0e0e;opacity:0.945;}.cls-245{fill:#0d0d0d;opacity:0.949;}.cls-246{fill:#0c0c0c;opacity:0.953;}.cls-247{fill:#0b0b0b;opacity:0.957;}.cls-248{fill:#0a0a0a;opacity:0.961;}.cls-249{fill:#090909;opacity:0.965;}.cls-250{fill:#080808;opacity:0.969;}.cls-251{fill:#070707;opacity:0.973;}.cls-252{fill:#060606;opacity:0.976;}.cls-253{fill:#050505;opacity:0.98;}.cls-254{fill:#040404;opacity:0.984;}.cls-255{fill:#030303;opacity:0.988;}.cls-256{fill:#020202;opacity:0.992;}.cls-257{fill:#010101;opacity:0.996;}.cls-258{fill:#3a3a8c;}</style></defs><g class="cls-1"><g id="Text"><g class="cls-2"><path class="cls-3" d="M569.78,402.968c0,14.474-84.554,26.195-188.861,26.195s-188.867-11.721-188.867-26.195c0-14.444,84.565-26.159,188.867-26.159S569.78,388.524,569.78,402.968Z"/><path class="cls-4" d="M569.172,402.985c0,14.427-84.282,26.111-188.253,26.111s-188.26-11.684-188.26-26.111c0-14.4,84.294-26.075,188.26-26.075S569.172,388.588,569.172,402.985Z"/><path class="cls-5" d="M568.565,403c0,14.381-84.01,26.026-187.646,26.026S193.266,417.383,193.266,403c0-14.351,84.022-25.992,187.653-25.992S568.565,388.651,568.565,403Z"/><path class="cls-6" d="M567.958,403.019c0,14.334-83.738,25.942-187.039,25.942s-187.046-11.608-187.046-25.942c0-14.305,83.75-25.908,187.046-25.908S567.958,388.714,567.958,403.019Z"/><path class="cls-7" d="M567.35,403.035c0,14.288-83.466,25.858-186.431,25.858s-186.438-11.57-186.438-25.858c0-14.258,83.478-25.823,186.438-25.823S567.35,388.777,567.35,403.035Z"/><path class="cls-8" d="M566.743,403.052c0,14.241-83.194,25.774-185.824,25.774s-185.831-11.533-185.831-25.774c0-14.212,83.206-25.739,185.831-25.739S566.743,388.84,566.743,403.052Z"/><path class="cls-9" d="M566.136,403.069c0,14.194-82.922,25.689-185.217,25.689S195.7,417.263,195.7,403.069c0-14.166,82.935-25.655,185.224-25.655S566.136,388.9,566.136,403.069Z"/><path class="cls-10" d="M565.529,403.086c0,14.148-82.651,25.6-184.61,25.6S196.3,417.234,196.3,403.086c0-14.12,82.663-25.571,184.617-25.571S565.529,388.966,565.529,403.086Z"/><path class="cls-11" d="M564.921,403.1c0,14.1-82.378,25.521-184,25.521S196.909,417.2,196.909,403.1c0-14.072,82.391-25.486,184.01-25.486S564.921,389.03,564.921,403.1Z"/><path class="cls-12" d="M564.314,403.119c0,14.055-82.106,25.437-183.395,25.437s-183.4-11.382-183.4-25.437c0-14.026,82.119-25.4,183.4-25.4S564.314,389.093,564.314,403.119Z"/><path class="cls-13" d="M563.707,403.136c0,14.008-81.835,25.352-182.788,25.352s-182.795-11.344-182.795-25.352c0-13.98,81.847-25.319,182.8-25.319S563.707,389.156,563.707,403.136Z"/><path class="cls-14" d="M563.1,403.153c0,13.961-81.562,25.268-182.18,25.268s-182.188-11.307-182.188-25.268c0-13.934,81.575-25.235,182.188-25.235S563.1,389.219,563.1,403.153Z"/><path class="cls-15" d="M562.492,403.169c0,13.915-81.29,25.184-181.573,25.184s-181.581-11.269-181.581-25.184c0-13.887,81.3-25.15,181.581-25.15S562.492,389.282,562.492,403.169Z"/><path class="cls-16" d="M561.885,403.186c0,13.869-81.019,25.1-180.966,25.1s-180.973-11.231-180.973-25.1c0-13.841,81.031-25.066,180.973-25.066S561.885,389.345,561.885,403.186Z"/><path class="cls-17" d="M561.277,403.2c0,13.822-80.746,25.016-180.358,25.016S200.553,417.025,200.553,403.2c0-13.795,80.76-24.982,180.366-24.982S561.277,389.408,561.277,403.2Z"/><path class="cls-18" d="M560.67,403.22c0,13.775-80.475,24.931-179.751,24.931S201.16,417,201.16,403.22c0-13.748,80.488-24.9,179.759-24.9S560.67,389.472,560.67,403.22Z"/><path class="cls-19" d="M560.063,403.236c0,13.729-80.2,24.848-179.144,24.848s-179.152-11.119-179.152-24.848c0-13.7,80.216-24.813,179.152-24.813S560.063,389.535,560.063,403.236Z"/><path class="cls-20" d="M559.456,403.253c0,13.682-79.931,24.763-178.537,24.763s-178.545-11.081-178.545-24.763c0-13.655,79.945-24.729,178.545-24.729S559.456,389.6,559.456,403.253Z"/><path class="cls-21" d="M558.848,403.27c0,13.636-79.659,24.679-177.929,24.679S202.982,416.906,202.982,403.27c0-13.609,79.672-24.646,177.937-24.646S558.848,389.661,558.848,403.27Z"/><path class="cls-22" d="M558.241,403.287c0,13.589-79.387,24.594-177.322,24.594s-177.33-11-177.33-24.594c0-13.563,79.4-24.562,177.33-24.562S558.241,389.724,558.241,403.287Z"/><path class="cls-23" d="M557.634,403.3c0,13.543-79.115,24.511-176.715,24.511S204.2,416.846,204.2,403.3c0-13.516,79.129-24.477,176.723-24.477S557.634,389.787,557.634,403.3Z"/><path class="cls-24" d="M557.026,403.32c0,13.5-78.843,24.426-176.107,24.426S204.8,416.816,204.8,403.32c0-13.47,78.857-24.393,176.116-24.393S557.026,389.85,557.026,403.32Z"/><path class="cls-25" d="M556.419,403.337c0,13.449-78.571,24.342-175.5,24.342s-175.508-10.893-175.508-24.342c0-13.423,78.585-24.309,175.508-24.309S556.419,389.914,556.419,403.337Z"/><path class="cls-26" d="M555.812,403.354c0,13.4-78.3,24.257-174.893,24.257s-174.9-10.854-174.9-24.257c0-13.377,78.313-24.225,174.9-24.225S555.812,389.977,555.812,403.354Z"/><path class="cls-27" d="M555.2,403.37c0,13.357-78.027,24.174-174.285,24.174S206.625,416.727,206.625,403.37c0-13.33,78.041-24.14,174.294-24.14S555.2,390.04,555.2,403.37Z"/><path class="cls-28" d="M554.6,403.387c0,13.31-77.755,24.089-173.678,24.089S207.232,416.7,207.232,403.387c0-13.284,77.77-24.056,173.687-24.056S554.6,390.1,554.6,403.387Z"/><path class="cls-29" d="M553.99,403.4c0,13.263-77.483,24-173.071,24s-173.079-10.742-173.079-24c0-13.238,77.5-23.973,173.079-23.973S553.99,390.166,553.99,403.4Z"/><path class="cls-30" d="M553.382,403.421c0,13.216-77.211,23.92-172.463,23.92s-172.472-10.7-172.472-23.92c0-13.192,77.225-23.889,172.472-23.889S553.382,390.229,553.382,403.421Z"/><path class="cls-31" d="M552.775,403.437c0,13.17-76.939,23.837-171.856,23.837s-171.865-10.667-171.865-23.837c0-13.145,76.954-23.8,171.865-23.8S552.775,390.292,552.775,403.437Z"/><path class="cls-32" d="M552.168,403.454c0,13.124-76.668,23.752-171.249,23.752s-171.258-10.628-171.258-23.752c0-13.1,76.682-23.72,171.258-23.72S552.168,390.356,552.168,403.454Z"/><path class="cls-33" d="M551.561,403.471c0,13.077-76.4,23.668-170.642,23.668s-170.651-10.591-170.651-23.668c0-13.052,76.411-23.636,170.651-23.636S551.561,390.419,551.561,403.471Z"/><path class="cls-34" d="M550.953,403.488c0,13.03-76.123,23.583-170.034,23.583s-170.043-10.553-170.043-23.583c0-13.006,76.138-23.552,170.043-23.552S550.953,390.482,550.953,403.488Z"/><path class="cls-35" d="M550.346,403.505c0,12.983-75.852,23.5-169.427,23.5s-169.436-10.516-169.436-23.5c0-12.96,75.866-23.468,169.436-23.468S550.346,390.545,550.346,403.505Z"/><path class="cls-36" d="M549.739,403.521c0,12.937-75.58,23.415-168.82,23.415S212.09,416.458,212.09,403.521c0-12.913,75.6-23.383,168.829-23.383S549.739,390.608,549.739,403.521Z"/><path class="cls-37" d="M549.131,403.538c0,12.891-75.307,23.331-168.212,23.331S212.7,416.429,212.7,403.538c0-12.867,75.323-23.3,168.222-23.3S549.131,390.671,549.131,403.538Z"/><path class="cls-38" d="M548.524,403.555c0,12.844-75.036,23.246-167.6,23.246s-167.614-10.4-167.614-23.246c0-12.821,75.051-23.216,167.614-23.216S548.524,390.734,548.524,403.555Z"/><path class="cls-39" d="M547.917,403.572c0,12.8-74.764,23.162-167,23.162s-167.007-10.365-167.007-23.162c0-12.775,74.779-23.132,167.007-23.132S547.917,390.8,547.917,403.572Z"/><path class="cls-40" d="M547.309,403.588c0,12.751-74.491,23.078-166.39,23.078s-166.4-10.327-166.4-23.078c0-12.727,74.507-23.047,166.4-23.047S547.309,390.861,547.309,403.588Z"/><path class="cls-41" d="M546.7,403.605c0,12.7-74.22,22.994-165.783,22.994s-165.793-10.29-165.793-22.994c0-12.681,74.236-22.963,165.793-22.963S546.7,390.924,546.7,403.605Z"/><path class="cls-42" d="M546.1,403.622c0,12.657-73.948,22.91-165.176,22.91s-165.185-10.253-165.185-22.91c0-12.635,73.963-22.879,165.185-22.879S546.1,390.987,546.1,403.622Z"/><path class="cls-43" d="M545.487,403.639c0,12.611-73.675,22.825-164.568,22.825S216.341,416.25,216.341,403.639c0-12.589,73.691-22.8,164.578-22.8S545.487,391.05,545.487,403.639Z"/><path class="cls-44" d="M544.88,403.655c0,12.565-73.4,22.742-163.961,22.742S216.948,416.22,216.948,403.655c0-12.542,73.42-22.71,163.971-22.71S544.88,391.113,544.88,403.655Z"/><path class="cls-45" d="M544.273,403.672c0,12.518-73.132,22.657-163.354,22.657S217.555,416.19,217.555,403.672c0-12.5,73.148-22.626,163.364-22.626S544.273,391.176,544.273,403.672Z"/><path class="cls-46" d="M543.666,403.689c0,12.471-72.861,22.573-162.747,22.573s-162.757-10.1-162.757-22.573c0-12.45,72.877-22.543,162.757-22.543S543.666,391.239,543.666,403.689Z"/><path class="cls-47" d="M543.058,403.706c0,12.424-72.588,22.488-162.139,22.488S218.77,416.13,218.77,403.706c0-12.4,72.6-22.459,162.149-22.459S543.058,391.3,543.058,403.706Z"/><path class="cls-48" d="M542.451,403.722c0,12.379-72.316,22.405-161.532,22.405S219.377,416.1,219.377,403.722c0-12.356,72.332-22.374,161.542-22.374S542.451,391.366,542.451,403.722Z"/><path class="cls-49" d="M541.844,403.739c0,12.332-72.045,22.32-160.925,22.32s-160.935-9.988-160.935-22.32c0-12.31,72.061-22.29,160.935-22.29S541.844,391.429,541.844,403.739Z"/><path class="cls-50" d="M541.236,403.756c0,12.285-71.772,22.236-160.317,22.236s-160.328-9.951-160.328-22.236c0-12.264,71.789-22.206,160.328-22.206S541.236,391.492,541.236,403.756Z"/><path class="cls-51" d="M540.629,403.773c0,12.238-71.5,22.151-159.71,22.151S221.2,416.011,221.2,403.773c0-12.218,71.516-22.122,159.72-22.122S540.629,391.555,540.629,403.773Z"/><path class="cls-52" d="M540.022,403.789c0,12.192-71.229,22.068-159.1,22.068s-159.113-9.876-159.113-22.068c0-12.171,71.245-22.037,159.113-22.037S540.022,391.618,540.022,403.789Z"/><path class="cls-53" d="M539.414,403.806c0,12.145-70.956,21.983-158.495,21.983s-158.506-9.838-158.506-21.983c0-12.125,70.973-21.953,158.506-21.953S539.414,391.681,539.414,403.806Z"/><path class="cls-54" d="M538.807,403.823c0,12.1-70.684,21.9-157.888,21.9s-157.9-9.8-157.9-21.9c0-12.078,70.7-21.87,157.9-21.87S538.807,391.745,538.807,403.823Z"/><path class="cls-55" d="M538.2,403.84c0,12.052-70.413,21.814-157.281,21.814s-157.292-9.762-157.292-21.814c0-12.032,70.43-21.786,157.292-21.786S538.2,391.808,538.2,403.84Z"/><path class="cls-56" d="M537.593,403.856c0,12.006-70.141,21.731-156.674,21.731s-156.684-9.725-156.684-21.731c0-11.985,70.157-21.7,156.684-21.7S537.593,391.871,537.593,403.856Z"/><path class="cls-57" d="M536.985,403.873c0,11.959-69.868,21.646-156.066,21.646s-156.077-9.687-156.077-21.646c0-11.939,69.886-21.617,156.077-21.617S536.985,391.934,536.985,403.873Z"/><path class="cls-58" d="M536.378,403.89c0,11.912-69.6,21.562-155.459,21.562s-155.47-9.65-155.47-21.562c0-11.893,69.614-21.533,155.47-21.533S536.378,392,536.378,403.89Z"/><path class="cls-59" d="M535.771,403.907c0,11.866-69.325,21.477-154.852,21.477s-154.863-9.611-154.863-21.477c0-11.847,69.342-21.449,154.863-21.449S535.771,392.06,535.771,403.907Z"/><path class="cls-60" d="M535.163,403.923c0,11.82-69.053,21.394-154.244,21.394s-154.255-9.574-154.255-21.394c0-11.8,69.07-21.364,154.255-21.364S535.163,392.123,535.163,403.923Z"/><path class="cls-61" d="M534.556,403.94c0,11.773-68.781,21.309-153.637,21.309s-153.648-9.536-153.648-21.309c0-11.753,68.8-21.28,153.648-21.28S534.556,392.187,534.556,403.94Z"/><path class="cls-62" d="M533.949,403.957c0,11.726-68.509,21.225-153.03,21.225s-153.041-9.5-153.041-21.225c0-11.707,68.527-21.2,153.041-21.2S533.949,392.25,533.949,403.957Z"/><path class="cls-63" d="M533.341,403.974c0,11.679-68.237,21.14-152.422,21.14s-152.434-9.461-152.434-21.14c0-11.661,68.255-21.113,152.434-21.113S533.341,392.313,533.341,403.974Z"/><path class="cls-64" d="M532.734,403.991c0,11.632-67.965,21.056-151.815,21.056s-151.826-9.424-151.826-21.056c0-11.615,67.982-21.029,151.826-21.029S532.734,392.376,532.734,403.991Z"/><path class="cls-65" d="M532.127,404.007c0,11.587-67.693,20.972-151.208,20.972S229.7,415.594,229.7,404.007c0-11.568,67.711-20.944,151.219-20.944S532.127,392.439,532.127,404.007Z"/><path class="cls-66" d="M531.519,404.024c0,11.54-67.421,20.888-150.6,20.888s-150.612-9.348-150.612-20.888c0-11.522,67.439-20.86,150.612-20.86S531.519,392.5,531.519,404.024Z"/><path class="cls-67" d="M530.912,404.041c0,11.493-67.149,20.8-149.993,20.8s-150-9.311-150-20.8c0-11.476,67.167-20.776,150.005-20.776S530.912,392.565,530.912,404.041Z"/><path class="cls-68" d="M530.3,404.058c0,11.446-66.877,20.719-149.386,20.719s-149.4-9.273-149.4-20.719c0-11.429,66.9-20.692,149.4-20.692S530.3,392.629,530.3,404.058Z"/><path class="cls-69" d="M529.7,404.074c0,11.4-66.606,20.636-148.779,20.636s-148.79-9.236-148.79-20.636c0-11.382,66.623-20.607,148.79-20.607S529.7,392.692,529.7,404.074Z"/><path class="cls-70" d="M529.09,404.091c0,11.354-66.333,20.551-148.171,20.551s-148.183-9.2-148.183-20.551c0-11.336,66.352-20.524,148.183-20.524S529.09,392.755,529.09,404.091Z"/><path class="cls-71" d="M528.483,404.108c0,11.307-66.061,20.467-147.564,20.467s-147.576-9.16-147.576-20.467c0-11.29,66.08-20.44,147.576-20.44S528.483,392.818,528.483,404.108Z"/><path class="cls-72" d="M527.876,404.125c0,11.26-65.79,20.382-146.957,20.382S233.95,415.385,233.95,404.125c0-11.244,65.808-20.356,146.969-20.356S527.876,392.881,527.876,404.125Z"/><path class="cls-73" d="M527.268,404.141c0,11.214-65.517,20.3-146.349,20.3s-146.361-9.085-146.361-20.3c0-11.2,65.536-20.271,146.361-20.271S527.268,392.944,527.268,404.141Z"/><path class="cls-74" d="M526.661,404.158c0,11.167-65.245,20.214-145.742,20.214s-145.754-9.047-145.754-20.214c0-11.151,65.264-20.187,145.754-20.187S526.661,393.007,526.661,404.158Z"/><path class="cls-75" d="M526.054,404.175c0,11.12-64.974,20.13-145.135,20.13s-145.147-9.01-145.147-20.13,64.992-20.1,145.147-20.1S526.054,393.07,526.054,404.175Z"/><path class="cls-76" d="M525.446,404.192c0,11.074-64.7,20.045-144.527,20.045s-144.54-8.971-144.54-20.045c0-11.058,64.721-20.019,144.54-20.019S525.446,393.134,525.446,404.192Z"/><path class="cls-77" d="M524.839,404.208c0,11.028-64.43,19.962-143.92,19.962s-143.932-8.934-143.932-19.962c0-11.011,64.448-19.934,143.932-19.934S524.839,393.2,524.839,404.208Z"/><path class="cls-78" d="M524.232,404.225c0,10.981-64.158,19.877-143.313,19.877s-143.325-8.9-143.325-19.877c0-10.965,64.177-19.851,143.325-19.851S524.232,393.26,524.232,404.225Z"/><path class="cls-79" d="M523.624,404.242c0,10.934-63.885,19.793-142.705,19.793S238.2,415.176,238.2,404.242s63.905-19.767,142.718-19.767S523.624,393.323,523.624,404.242Z"/><path class="cls-80" d="M523.017,404.259c0,10.887-63.614,19.708-142.1,19.708s-142.111-8.821-142.111-19.708,63.633-19.683,142.111-19.683S523.017,393.386,523.017,404.259Z"/><path class="cls-81" d="M522.41,404.275c0,10.842-63.342,19.625-141.491,19.625s-141.5-8.783-141.5-19.625c0-10.826,63.362-19.6,141.5-19.6S522.41,393.449,522.41,404.275Z"/><path class="cls-82" d="M521.8,404.292c0,10.8-63.07,19.54-140.884,19.54s-140.9-8.745-140.9-19.54c0-10.78,63.089-19.514,140.9-19.514S521.8,393.512,521.8,404.292Z"/><path class="cls-83" d="M521.2,404.309c0,10.748-62.8,19.456-140.276,19.456S240.63,415.057,240.63,404.309s62.817-19.43,140.289-19.43S521.2,393.576,521.2,404.309Z"/><path class="cls-84" d="M520.588,404.326c0,10.7-62.526,19.371-139.669,19.371s-139.682-8.67-139.682-19.371,62.546-19.346,139.682-19.346S520.588,393.639,520.588,404.326Z"/><path class="cls-85" d="M519.981,404.342c0,10.655-62.254,19.288-139.062,19.288S241.844,415,241.844,404.342c0-10.64,62.274-19.261,139.075-19.261S519.981,393.7,519.981,404.342Z"/><path class="cls-86" d="M519.373,404.359c0,10.608-61.982,19.2-138.454,19.2s-138.467-8.6-138.467-19.2,62-19.177,138.467-19.177S519.373,393.765,519.373,404.359Z"/><path class="cls-87" d="M518.766,404.376c0,10.562-61.71,19.119-137.847,19.119s-137.86-8.557-137.86-19.119,61.73-19.094,137.86-19.094S518.766,393.828,518.766,404.376Z"/><path class="cls-88" d="M518.159,404.393c0,10.515-61.438,19.034-137.24,19.034s-137.253-8.519-137.253-19.034,61.458-19.01,137.253-19.01S518.159,393.891,518.159,404.393Z"/><path class="cls-89" d="M517.551,404.409c0,10.469-61.166,18.951-136.632,18.951s-136.646-8.482-136.646-18.951,61.187-18.925,136.646-18.925S517.551,393.954,517.551,404.409Z"/><path class="cls-90" d="M516.944,404.426c0,10.422-60.894,18.867-136.025,18.867S244.88,414.848,244.88,404.426s60.915-18.841,136.039-18.841S516.944,394.018,516.944,404.426Z"/><path class="cls-91" d="M516.337,404.443c0,10.375-60.623,18.782-135.418,18.782s-135.431-8.407-135.431-18.782,60.642-18.757,135.431-18.757S516.337,394.081,516.337,404.443Z"/><path class="cls-92" d="M515.73,404.46c0,10.329-60.351,18.7-134.811,18.7S246.1,414.789,246.1,404.46s60.371-18.673,134.824-18.673S515.73,394.144,515.73,404.46Z"/><path class="cls-93" d="M515.122,404.477c0,10.282-60.078,18.613-134.2,18.613S246.7,414.759,246.7,404.477s60.1-18.589,134.217-18.589S515.122,394.207,515.122,404.477Z"/><path class="cls-94" d="M514.515,404.493c0,10.236-59.807,18.53-133.6,18.53s-133.61-8.294-133.61-18.53,59.828-18.5,133.61-18.5S514.515,394.27,514.515,404.493Z"/><path class="cls-95" d="M513.908,404.51c0,10.189-59.535,18.445-132.989,18.445s-133-8.256-133-18.445,59.555-18.421,133-18.421S513.908,394.333,513.908,404.51Z"/><path class="cls-96" d="M513.3,404.527c0,10.142-59.262,18.361-132.381,18.361s-132.395-8.219-132.395-18.361,59.283-18.337,132.395-18.337S513.3,394.4,513.3,404.527Z"/><path class="cls-97" d="M512.693,404.544c0,10.1-58.991,18.276-131.774,18.276s-131.788-8.18-131.788-18.276,59.012-18.253,131.788-18.253S512.693,394.46,512.693,404.544Z"/><path class="cls-98" d="M512.086,404.56c0,10.05-58.719,18.193-131.167,18.193S249.738,414.61,249.738,404.56s58.74-18.168,131.181-18.168S512.086,394.523,512.086,404.56Z"/><path class="cls-99" d="M511.478,404.577c0,10-58.446,18.108-130.559,18.108s-130.573-8.105-130.573-18.108,58.467-18.084,130.573-18.084S511.478,394.586,511.478,404.577Z"/><path class="cls-100" d="M510.871,404.594c0,9.956-58.175,18.024-129.952,18.024s-129.966-8.068-129.966-18.024,58.2-18,129.966-18S510.871,394.649,510.871,404.594Z"/><path class="cls-101" d="M510.264,404.611c0,9.909-57.9,17.939-129.345,17.939S251.56,414.52,251.56,404.611,309.484,386.7,380.919,386.7,510.264,394.712,510.264,404.611Z"/><path class="cls-102" d="M509.656,404.627c0,9.863-57.63,17.856-128.737,17.856s-128.752-7.993-128.752-17.856S309.82,386.8,380.919,386.8,509.656,394.775,509.656,404.627Z"/><path class="cls-103" d="M509.049,404.644c0,9.817-57.359,17.771-128.13,17.771s-128.145-7.954-128.145-17.771S310.155,386.9,380.919,386.9,509.049,394.838,509.049,404.644Z"/><path class="cls-104" d="M508.442,404.661c0,9.77-57.087,17.687-127.523,17.687s-127.537-7.917-127.537-17.687S310.49,387,380.919,387,508.442,394.9,508.442,404.661Z"/><path class="cls-105" d="M507.835,404.678c0,9.723-56.816,17.6-126.916,17.6s-126.93-7.879-126.93-17.6,56.837-17.58,126.93-17.58S507.835,394.965,507.835,404.678Z"/><path class="cls-106" d="M507.227,404.694c0,9.677-56.543,17.519-126.308,17.519S254.6,414.371,254.6,404.694s56.565-17.5,126.323-17.5S507.227,395.028,507.227,404.694Z"/><path class="cls-107" d="M506.62,404.711c0,9.63-56.271,17.434-125.7,17.434S255.2,414.341,255.2,404.711,311.5,387.3,380.919,387.3,506.62,395.091,506.62,404.711Z"/><path class="cls-108" d="M506.013,404.728c0,9.584-56,17.35-125.094,17.35s-125.108-7.766-125.108-17.35S311.832,387.4,380.919,387.4,506.013,395.154,506.013,404.728Z"/><path class="cls-109" d="M505.405,404.745c0,9.537-55.727,17.265-124.486,17.265s-124.5-7.728-124.5-17.265,55.749-17.243,124.5-17.243S505.405,395.217,505.405,404.745Z"/><path class="cls-110" d="M504.8,404.761c0,9.491-55.455,17.182-123.879,17.182s-123.894-7.691-123.894-17.182S312.5,387.6,380.919,387.6,504.8,395.28,504.8,404.761Z"/><path class="cls-111" d="M504.191,404.778c0,9.444-55.184,17.1-123.272,17.1s-123.287-7.653-123.287-17.1S312.838,387.7,380.919,387.7,504.191,395.343,504.191,404.778Z"/><path class="cls-112" d="M503.583,404.8c0,9.4-54.911,17.013-122.664,17.013S258.24,414.192,258.24,404.8,313.173,387.8,380.919,387.8,503.583,395.407,503.583,404.8Z"/><path class="cls-113" d="M502.976,404.812c0,9.35-54.639,16.928-122.057,16.928s-122.072-7.578-122.072-16.928,54.662-16.907,122.072-16.907S502.976,395.47,502.976,404.812Z"/><path class="cls-114" d="M502.369,404.828c0,9.305-54.368,16.845-121.45,16.845s-121.465-7.54-121.465-16.845,54.39-16.822,121.465-16.822S502.369,395.533,502.369,404.828Z"/><path class="cls-115" d="M501.761,404.845c0,9.258-54.1,16.761-120.842,16.761s-120.858-7.5-120.858-16.761,54.118-16.738,120.858-16.738S501.761,395.6,501.761,404.845Z"/><path class="cls-116" d="M501.154,404.862c0,9.211-53.823,16.676-120.235,16.676s-120.251-7.465-120.251-16.676,53.847-16.654,120.251-16.654S501.154,395.659,501.154,404.862Z"/><path class="cls-117" d="M500.547,404.879c0,9.164-53.552,16.592-119.628,16.592s-119.643-7.428-119.643-16.592,53.574-16.57,119.643-16.57S500.547,395.722,500.547,404.879Z"/><path class="cls-118" d="M499.94,404.9c0,9.118-53.28,16.508-119.021,16.508s-119.036-7.39-119.036-16.508,53.3-16.485,119.036-16.485S499.94,395.785,499.94,404.9Z"/><path class="cls-119" d="M499.332,404.912c0,9.072-53.007,16.424-118.413,16.424S262.49,413.984,262.49,404.912s53.031-16.4,118.429-16.4S499.332,395.849,499.332,404.912Z"/><path class="cls-120" d="M498.725,404.929c0,9.025-52.736,16.339-117.806,16.339S263.1,413.954,263.1,404.929s52.759-16.318,117.822-16.318S498.725,395.912,498.725,404.929Z"/><path class="cls-121" d="M498.118,404.946c0,8.978-52.464,16.255-117.2,16.255s-117.214-7.277-117.214-16.255,52.487-16.234,117.214-16.234S498.118,395.975,498.118,404.946Z"/><path class="cls-122" d="M497.51,404.963c0,8.931-52.192,16.17-116.591,16.17s-116.607-7.239-116.607-16.17,52.215-16.15,116.607-16.15S497.51,396.038,497.51,404.963Z"/><path class="cls-123" d="M496.9,404.979c0,8.885-51.92,16.087-115.984,16.087s-116-7.2-116-16.087,51.943-16.065,116-16.065S496.9,396.1,496.9,404.979Z"/><path class="cls-124" d="M496.3,405c0,8.838-51.648,16-115.377,16s-115.393-7.164-115.393-16,51.672-15.981,115.393-15.981S496.3,396.164,496.3,405Z"/><path class="cls-125" d="M495.688,405.013c0,8.792-51.376,15.918-114.769,15.918s-114.786-7.126-114.786-15.918,51.4-15.9,114.786-15.9S495.688,396.227,495.688,405.013Z"/><path class="cls-126" d="M495.081,405.03c0,8.745-51.1,15.833-114.162,15.833s-114.178-7.088-114.178-15.833,51.128-15.813,114.178-15.813S495.081,396.291,495.081,405.03Z"/><path class="cls-127" d="M494.474,405.046c0,8.7-50.832,15.75-113.555,15.75s-113.571-7.051-113.571-15.75,50.856-15.728,113.571-15.728S494.474,396.354,494.474,405.046Z"/><path class="cls-128" d="M493.866,405.063c0,8.652-50.56,15.665-112.947,15.665s-112.964-7.013-112.964-15.665,50.584-15.645,112.964-15.645S493.866,396.417,493.866,405.063Z"/><path class="cls-129" d="M493.259,405.08c0,8.605-50.288,15.581-112.34,15.581s-112.357-6.976-112.357-15.581,50.313-15.561,112.357-15.561S493.259,396.48,493.259,405.08Z"/><path class="cls-130" d="M492.652,405.1c0,8.559-50.016,15.5-111.733,15.5S269.17,413.656,269.17,405.1s50.04-15.477,111.749-15.477S492.652,396.543,492.652,405.1Z"/><path class="cls-131" d="M492.045,405.113c0,8.513-49.745,15.413-111.126,15.413s-111.142-6.9-111.142-15.413,49.768-15.392,111.142-15.392S492.045,396.606,492.045,405.113Z"/><path class="cls-132" d="M491.437,405.13c0,8.466-49.472,15.328-110.518,15.328S270.384,413.6,270.384,405.13s49.5-15.308,110.535-15.308S491.437,396.669,491.437,405.13Z"/><path class="cls-133" d="M490.83,405.147c0,8.419-49.2,15.244-109.911,15.244s-109.928-6.825-109.928-15.244,49.225-15.224,109.928-15.224S490.83,396.733,490.83,405.147Z"/><path class="cls-134" d="M490.223,405.164c0,8.372-48.929,15.159-109.3,15.159S271.6,413.536,271.6,405.164s48.953-15.14,109.32-15.14S490.223,396.8,490.223,405.164Z"/><path class="cls-135" d="M489.615,405.18c0,8.326-48.656,15.076-108.7,15.076s-108.713-6.75-108.713-15.076,48.681-15.055,108.713-15.055S489.615,396.859,489.615,405.18Z"/><path class="cls-136" d="M489.008,405.2c0,8.28-48.385,14.991-108.089,14.991S272.813,413.477,272.813,405.2s48.409-14.972,108.106-14.972S489.008,396.922,489.008,405.2Z"/><path class="cls-137" d="M488.4,405.214c0,8.233-48.113,14.907-107.482,14.907s-107.5-6.674-107.5-14.907,48.138-14.888,107.5-14.888S488.4,396.985,488.4,405.214Z"/><path class="cls-138" d="M487.793,405.231c0,8.186-47.84,14.822-106.874,14.822s-106.892-6.636-106.892-14.822,47.866-14.8,106.892-14.8S487.793,397.048,487.793,405.231Z"/><path class="cls-139" d="M487.186,405.247c0,8.14-47.569,14.739-106.267,14.739s-106.284-6.6-106.284-14.739,47.593-14.719,106.284-14.719S487.186,397.111,487.186,405.247Z"/><path class="cls-140" d="M486.579,405.264c0,8.093-47.3,14.655-105.66,14.655s-105.677-6.562-105.677-14.655,47.322-14.635,105.677-14.635S486.579,397.174,486.579,405.264Z"/><path class="cls-141" d="M485.972,405.281c0,8.047-47.025,14.57-105.053,14.57s-105.07-6.523-105.07-14.57,47.05-14.551,105.07-14.551S485.972,397.238,485.972,405.281Z"/><path class="cls-142" d="M485.364,405.3c0,8-46.753,14.486-104.445,14.486S276.456,413.3,276.456,405.3s46.779-14.467,104.463-14.467S485.364,397.3,485.364,405.3Z"/><path class="cls-143" d="M484.757,405.314c0,7.954-46.481,14.4-103.838,14.4s-103.855-6.448-103.855-14.4,46.506-14.382,103.855-14.382S484.757,397.364,484.757,405.314Z"/><path class="cls-144" d="M484.15,405.331c0,7.907-46.209,14.318-103.231,14.318s-103.248-6.411-103.248-14.318,46.234-14.3,103.248-14.3S484.15,397.427,484.15,405.331Z"/><path class="cls-145" d="M483.542,405.348c0,7.86-45.937,14.233-102.623,14.233s-102.641-6.373-102.641-14.233,45.963-14.215,102.641-14.215S483.542,397.49,483.542,405.348Z"/><path class="cls-146" d="M482.935,405.365c0,7.813-45.665,14.149-102.016,14.149s-102.034-6.336-102.034-14.149,45.691-14.131,102.034-14.131S482.935,397.553,482.935,405.365Z"/><path class="cls-147" d="M482.328,405.381c0,7.768-45.393,14.065-101.409,14.065s-101.426-6.3-101.426-14.065,45.418-14.046,101.426-14.046S482.328,397.616,482.328,405.381Z"/><path class="cls-148" d="M481.72,405.4c0,7.721-45.121,13.981-100.8,13.981S280.1,413.119,280.1,405.4s45.147-13.962,100.819-13.962S481.72,397.68,481.72,405.4Z"/><path class="cls-149" d="M481.113,405.415c0,7.674-44.849,13.9-100.194,13.9s-100.212-6.222-100.212-13.9,44.875-13.878,100.212-13.878S481.113,397.743,481.113,405.415Z"/><path class="cls-150" d="M480.506,405.432c0,7.627-44.578,13.812-99.587,13.812s-99.6-6.185-99.6-13.812,44.6-13.794,99.6-13.794S480.506,397.806,480.506,405.432Z"/><path class="cls-151" d="M479.9,405.449c0,7.58-44.305,13.727-98.979,13.727s-99-6.147-99-13.727,44.332-13.71,99-13.71S479.9,397.869,479.9,405.449Z"/><path class="cls-152" d="M479.291,405.465c0,7.535-44.033,13.644-98.372,13.644s-98.39-6.109-98.39-13.644,44.059-13.626,98.39-13.626S479.291,397.932,479.291,405.465Z"/><path class="cls-153" d="M478.684,405.482c0,7.488-43.762,13.559-97.765,13.559s-97.783-6.071-97.783-13.559,43.788-13.542,97.783-13.542S478.684,398,478.684,405.482Z"/><path class="cls-154" d="M478.077,405.5c0,7.441-43.49,13.475-97.158,13.475s-97.176-6.034-97.176-13.475,43.516-13.458,97.176-13.458S478.077,398.058,478.077,405.5Z"/><path class="cls-155" d="M477.469,405.516c0,7.394-43.217,13.39-96.55,13.39s-96.569-6-96.569-13.39,43.245-13.374,96.569-13.374S477.469,398.122,477.469,405.516Z"/><path class="cls-156" d="M476.862,405.532c0,7.348-42.946,13.307-95.943,13.307s-95.961-5.959-95.961-13.307,42.972-13.289,95.961-13.289S476.862,398.185,476.862,405.532Z"/><path class="cls-157" d="M476.255,405.549c0,7.3-42.674,13.222-95.336,13.222s-95.354-5.921-95.354-13.222,42.7-13.2,95.354-13.2S476.255,398.248,476.255,405.549Z"/><path class="cls-158" d="M475.647,405.566c0,7.255-42.4,13.138-94.728,13.138s-94.747-5.883-94.747-13.138,42.429-13.121,94.747-13.121S475.647,398.311,475.647,405.566Z"/><path class="cls-159" d="M475.04,405.583c0,7.208-42.13,13.053-94.121,13.053s-94.14-5.845-94.14-13.053,42.157-13.037,94.14-13.037S475.04,398.374,475.04,405.583Z"/><path class="cls-160" d="M474.433,405.6c0,7.162-41.858,12.97-93.514,12.97s-93.533-5.808-93.533-12.97,41.885-12.953,93.533-12.953S474.433,398.437,474.433,405.6Z"/><path class="cls-161" d="M473.825,405.616c0,7.115-41.585,12.885-92.906,12.885s-92.925-5.77-92.925-12.885,41.613-12.869,92.925-12.869S473.825,398.5,473.825,405.616Z"/><path class="cls-162" d="M473.218,405.633c0,7.068-41.314,12.8-92.3,12.8S288.6,412.7,288.6,405.633s41.341-12.785,92.318-12.785S473.218,398.564,473.218,405.633Z"/><path class="cls-163" d="M472.611,405.65c0,7.022-41.042,12.716-91.692,12.716s-91.711-5.694-91.711-12.716,41.07-12.7,91.711-12.7S472.611,398.627,472.611,405.65Z"/><path class="cls-164" d="M472,405.666c0,6.976-40.769,12.633-91.084,12.633s-91.1-5.657-91.1-12.633,40.8-12.616,91.1-12.616S472,398.69,472,405.666Z"/><path class="cls-165" d="M471.4,405.683c0,6.929-40.5,12.549-90.477,12.549s-90.5-5.62-90.5-12.549,40.525-12.532,90.5-12.532S471.4,398.753,471.4,405.683Z"/><path class="cls-166" d="M470.789,405.7c0,6.882-40.226,12.464-89.87,12.464S291.03,412.582,291.03,405.7s40.254-12.448,89.889-12.448S470.789,398.816,470.789,405.7Z"/><path class="cls-167" d="M470.182,405.717c0,6.835-39.955,12.38-89.263,12.38s-89.282-5.545-89.282-12.38,39.982-12.364,89.282-12.364S470.182,398.879,470.182,405.717Z"/><path class="cls-168" d="M469.574,405.733c0,6.789-39.682,12.3-88.655,12.3s-88.675-5.507-88.675-12.3,39.71-12.279,88.675-12.279S469.574,398.942,469.574,405.733Z"/><path class="cls-169" d="M468.967,405.75c0,6.743-39.41,12.212-88.048,12.212s-88.067-5.469-88.067-12.212,39.438-12.2,88.067-12.2S468.967,399.006,468.967,405.75Z"/><path class="cls-170" d="M468.36,405.767c0,6.7-39.139,12.127-87.441,12.127s-87.46-5.431-87.46-12.127,39.166-12.112,87.46-12.112S468.36,399.069,468.36,405.767Z"/><path class="cls-171" d="M467.752,405.784c0,6.649-38.866,12.043-86.833,12.043s-86.853-5.394-86.853-12.043,38.9-12.028,86.853-12.028S467.752,399.132,467.752,405.784Z"/><path class="cls-172" d="M467.145,405.8c0,6.6-38.594,11.959-86.226,11.959S294.673,412.4,294.673,405.8s38.623-11.943,86.246-11.943S467.145,399.2,467.145,405.8Z"/><path class="cls-173" d="M466.538,405.817c0,6.556-38.323,11.875-85.619,11.875s-85.639-5.319-85.639-11.875,38.351-11.859,85.639-11.859S466.538,399.258,466.538,405.817Z"/><path class="cls-174" d="M465.93,405.834c0,6.51-38.05,11.79-85.011,11.79s-85.031-5.28-85.031-11.79,38.079-11.775,85.031-11.775S465.93,399.321,465.93,405.834Z"/><path class="cls-175" d="M465.323,405.851c0,6.463-37.778,11.706-84.4,11.706S296.5,412.314,296.5,405.851,334.3,394.16,380.919,394.16,465.323,399.384,465.323,405.851Z"/><path class="cls-176" d="M464.716,405.867c0,6.417-37.507,11.622-83.8,11.622s-83.817-5.2-83.817-11.622,37.535-11.606,83.817-11.606S464.716,399.447,464.716,405.867Z"/><path class="cls-177" d="M464.109,405.884c0,6.37-37.235,11.538-83.19,11.538s-83.21-5.168-83.21-11.538,37.264-11.523,83.21-11.523S464.109,399.511,464.109,405.884Z"/><path class="cls-178" d="M463.5,405.9c0,6.323-36.962,11.453-82.582,11.453s-82.6-5.13-82.6-11.453,36.991-11.439,82.6-11.439S463.5,399.574,463.5,405.9Z"/><path class="cls-179" d="M462.894,405.918c0,6.277-36.691,11.369-81.975,11.369s-81.995-5.092-81.995-11.369,36.72-11.355,82-11.355S462.894,399.637,462.894,405.918Z"/><path class="cls-180" d="M462.287,405.935c0,6.23-36.419,11.284-81.368,11.284s-81.388-5.054-81.388-11.284,36.448-11.271,81.388-11.271S462.287,399.7,462.287,405.935Z"/><path class="cls-181" d="M461.679,405.951c0,6.184-36.147,11.2-80.76,11.2s-80.781-5.017-80.781-11.2,36.176-11.186,80.781-11.186S461.679,399.763,461.679,405.951Z"/><path class="cls-182" d="M461.072,405.968c0,6.137-35.875,11.116-80.153,11.116s-80.174-4.979-80.174-11.116,35.9-11.1,80.174-11.1S461.072,399.826,461.072,405.968Z"/><path class="cls-183" d="M460.465,405.985c0,6.09-35.6,11.032-79.546,11.032s-79.566-4.942-79.566-11.032,35.632-11.018,79.566-11.018S460.465,399.889,460.465,405.985Z"/><path class="cls-184" d="M459.857,406c0,6.043-35.331,10.947-78.938,10.947S301.96,412.045,301.96,406s35.36-10.934,78.959-10.934S459.857,399.953,459.857,406Z"/><path class="cls-185" d="M459.25,406.018c0,6-35.059,10.864-78.331,10.864s-78.352-4.866-78.352-10.864,35.089-10.85,78.352-10.85S459.25,400.016,459.25,406.018Z"/><path class="cls-186" d="M458.643,406.035c0,5.951-34.787,10.779-77.724,10.779s-77.745-4.828-77.745-10.779,34.817-10.766,77.745-10.766S458.643,400.079,458.643,406.035Z"/><path class="cls-187" d="M458.035,406.052c0,5.9-34.515,10.695-77.116,10.695s-77.137-4.791-77.137-10.695,34.545-10.682,77.137-10.682S458.035,400.142,458.035,406.052Z"/><path class="cls-188" d="M457.428,406.069c0,5.857-34.243,10.61-76.509,10.61s-76.53-4.753-76.53-10.61,34.273-10.6,76.53-10.6S457.428,400.205,457.428,406.069Z"/><path class="cls-189" d="M456.821,406.085c0,5.811-33.971,10.527-75.9,10.527S305,411.9,305,406.085s34-10.513,75.923-10.513S456.821,400.268,456.821,406.085Z"/><path class="cls-190" d="M456.214,406.1c0,5.765-33.7,10.443-75.3,10.443S305.6,411.867,305.6,406.1s33.73-10.429,75.316-10.429S456.214,400.331,456.214,406.1Z"/><path class="cls-191" d="M455.606,406.119c0,5.718-33.427,10.358-74.687,10.358s-74.708-4.64-74.708-10.358,33.457-10.345,74.708-10.345S455.606,400.4,455.606,406.119Z"/><path class="cls-192" d="M455,406.136c0,5.671-33.155,10.274-74.08,10.274s-74.1-4.6-74.1-10.274,33.185-10.261,74.1-10.261S455,400.458,455,406.136Z"/><path class="cls-193" d="M454.392,406.152c0,5.625-32.884,10.19-73.473,10.19s-73.494-4.565-73.494-10.19,32.914-10.177,73.494-10.177S454.392,400.521,454.392,406.152Z"/><path class="cls-194" d="M453.784,406.169c0,5.578-32.611,10.106-72.865,10.106s-72.887-4.528-72.887-10.106,32.642-10.093,72.887-10.093S453.784,400.584,453.784,406.169Z"/><path class="cls-195" d="M453.177,406.186c0,5.531-32.34,10.021-72.258,10.021s-72.28-4.49-72.28-10.021,32.371-10.009,72.28-10.009S453.177,400.647,453.177,406.186Z"/><path class="cls-196" d="M452.57,406.2c0,5.485-32.068,9.937-71.651,9.937s-71.672-4.452-71.672-9.937,32.1-9.925,71.672-9.925S452.57,400.71,452.57,406.2Z"/><path class="cls-197" d="M451.962,406.219c0,5.439-31.8,9.853-71.043,9.853s-71.065-4.414-71.065-9.853,31.826-9.84,71.065-9.84S451.962,400.773,451.962,406.219Z"/><path class="cls-198" d="M451.355,406.236c0,5.392-31.524,9.769-70.436,9.769s-70.458-4.377-70.458-9.769,31.555-9.756,70.458-9.756S451.355,400.837,451.355,406.236Z"/><path class="cls-199" d="M450.748,406.253c0,5.345-31.252,9.684-69.829,9.684s-69.851-4.339-69.851-9.684,31.283-9.672,69.851-9.672S450.748,400.9,450.748,406.253Z"/><path class="cls-200" d="M450.14,406.27c0,5.3-30.979,9.6-69.221,9.6s-69.243-4.3-69.243-9.6,31.01-9.588,69.243-9.588S450.14,400.963,450.14,406.27Z"/><path class="cls-201" d="M449.533,406.286c0,5.253-30.708,9.516-68.614,9.516s-68.636-4.263-68.636-9.516,30.739-9.5,68.636-9.5S449.533,401.026,449.533,406.286Z"/><path class="cls-202" d="M448.926,406.3c0,5.206-30.436,9.432-68.007,9.432s-68.029-4.226-68.029-9.432,30.467-9.42,68.029-9.42S448.926,401.089,448.926,406.3Z"/><path class="cls-203" d="M448.319,406.32c0,5.159-30.164,9.347-67.4,9.347S313.5,411.479,313.5,406.32s30.2-9.336,67.422-9.336S448.319,401.152,448.319,406.32Z"/><path class="cls-204" d="M447.711,406.337c0,5.112-29.892,9.263-66.792,9.263s-66.814-4.151-66.814-9.263,29.923-9.252,66.814-9.252S447.711,401.215,447.711,406.337Z"/><path class="cls-205" d="M447.1,406.353c0,5.066-29.62,9.179-66.185,9.179s-66.207-4.113-66.207-9.179,29.651-9.167,66.207-9.167S447.1,401.278,447.1,406.353Z"/><path class="cls-206" d="M446.5,406.37c0,5.019-29.348,9.095-65.578,9.095s-65.6-4.076-65.6-9.095,29.38-9.083,65.6-9.083S446.5,401.342,446.5,406.37Z"/><path class="cls-207" d="M445.889,406.387c0,4.973-29.076,9.01-64.97,9.01s-64.993-4.037-64.993-9.01,29.108-9,64.993-9S445.889,401.405,445.889,406.387Z"/><path class="cls-208" d="M445.282,406.4c0,4.926-28.8,8.926-64.363,8.926s-64.386-4-64.386-8.926,28.836-8.915,64.386-8.915S445.282,401.468,445.282,406.4Z"/><path class="cls-209" d="M444.675,406.421c0,4.879-28.532,8.841-63.756,8.841s-63.778-3.962-63.778-8.841,28.564-8.831,63.778-8.831S444.675,401.531,444.675,406.421Z"/><path class="cls-210" d="M444.067,406.437c0,4.833-28.26,8.758-63.148,8.758s-63.171-3.925-63.171-8.758,28.292-8.747,63.171-8.747S444.067,401.594,444.067,406.437Z"/><path class="cls-211" d="M443.46,406.454c0,4.786-27.988,8.673-62.541,8.673s-62.564-3.887-62.564-8.673,28.021-8.663,62.564-8.663S443.46,401.657,443.46,406.454Z"/><path class="cls-212" d="M442.853,406.471c0,4.74-27.717,8.589-61.934,8.589s-61.957-3.849-61.957-8.589,27.749-8.579,61.957-8.579S442.853,401.72,442.853,406.471Z"/><path class="cls-213" d="M442.246,406.488c0,4.693-27.445,8.5-61.327,8.5s-61.349-3.812-61.349-8.5,27.476-8.5,61.349-8.5S442.246,401.784,442.246,406.488Z"/><path class="cls-214" d="M441.638,406.5c0,4.647-27.172,8.421-60.719,8.421s-60.742-3.774-60.742-8.421,27.2-8.41,60.742-8.41S441.638,401.847,441.638,406.5Z"/><path class="cls-215" d="M441.031,406.521c0,4.6-26.9,8.337-60.112,8.337s-60.135-3.737-60.135-8.337,26.933-8.326,60.135-8.326S441.031,401.91,441.031,406.521Z"/><path class="cls-216" d="M440.424,406.538c0,4.553-26.629,8.252-59.5,8.252s-59.528-3.7-59.528-8.252,26.661-8.242,59.528-8.242S440.424,401.973,440.424,406.538Z"/><path class="cls-217" d="M439.816,406.555c0,4.506-26.356,8.168-58.9,8.168S322,411.061,322,406.555s26.39-8.158,58.921-8.158S439.816,402.036,439.816,406.555Z"/><path class="cls-218" d="M439.209,406.571c0,4.461-26.085,8.084-58.29,8.084s-58.313-3.623-58.313-8.084,26.117-8.074,58.313-8.074S439.209,402.1,439.209,406.571Z"/><path class="cls-219" d="M438.6,406.588c0,4.414-25.813,8-57.683,8s-57.706-3.586-57.706-8,25.846-7.99,57.706-7.99S438.6,402.162,438.6,406.588Z"/><path class="cls-220" d="M437.994,406.605c0,4.367-25.54,7.915-57.075,7.915s-57.1-3.548-57.1-7.915,25.574-7.906,57.1-7.906S437.994,402.226,437.994,406.605Z"/><path class="cls-221" d="M437.387,406.622c0,4.32-25.269,7.831-56.468,7.831s-56.492-3.511-56.492-7.831,25.3-7.822,56.492-7.822S437.387,402.289,437.387,406.622Z"/><path class="cls-222" d="M436.78,406.638c0,4.274-25,7.747-55.861,7.747s-55.884-3.473-55.884-7.747,25.03-7.737,55.884-7.737S436.78,402.352,436.78,406.638Z"/><path class="cls-223" d="M436.172,406.655c0,4.228-24.724,7.663-55.253,7.663s-55.277-3.435-55.277-7.663S350.4,399,380.919,399,436.172,402.415,436.172,406.655Z"/><path class="cls-224" d="M435.565,406.672c0,4.181-24.453,7.578-54.646,7.578s-54.67-3.4-54.67-7.578,24.486-7.569,54.67-7.569S435.565,402.478,435.565,406.672Z"/><path class="cls-225" d="M434.958,406.689c0,4.134-24.181,7.494-54.039,7.494s-54.063-3.36-54.063-7.494,24.215-7.485,54.063-7.485S434.958,402.541,434.958,406.689Z"/><path class="cls-226" d="M434.351,406.705c0,4.088-23.91,7.41-53.432,7.41s-53.455-3.322-53.455-7.41,23.942-7.4,53.455-7.4S434.351,402.6,434.351,406.705Z"/><path class="cls-227" d="M433.743,406.722c0,4.041-23.637,7.326-52.824,7.326s-52.848-3.285-52.848-7.326,23.671-7.317,52.848-7.317S433.743,402.668,433.743,406.722Z"/><path class="cls-228" d="M433.136,406.739c0,3.994-23.365,7.241-52.217,7.241s-52.241-3.247-52.241-7.241,23.4-7.233,52.241-7.233S433.136,402.731,433.136,406.739Z"/><path class="cls-229" d="M432.529,406.756c0,3.948-23.094,7.157-51.61,7.157s-51.634-3.209-51.634-7.157,23.127-7.149,51.634-7.149S432.529,402.794,432.529,406.756Z"/><path class="cls-230" d="M431.921,406.772c0,3.9-22.821,7.073-51,7.073s-51.027-3.171-51.027-7.073,22.856-7.064,51.027-7.064S431.921,402.857,431.921,406.772Z"/><path class="cls-231" d="M431.314,406.789c0,3.855-22.549,6.989-50.4,6.989s-50.419-3.134-50.419-6.989,22.583-6.98,50.419-6.98S431.314,402.92,431.314,406.789Z"/><path class="cls-232" d="M430.707,406.806c0,3.808-22.278,6.9-49.788,6.9s-49.812-3.1-49.812-6.9,22.311-6.9,49.812-6.9S430.707,402.983,430.707,406.806Z"/><path class="cls-233" d="M430.1,406.823c0,3.761-22,6.82-49.18,6.82s-49.2-3.059-49.2-6.82c0-3.777,22.04-6.812,49.2-6.812S430.1,403.046,430.1,406.823Z"/><path class="cls-234" d="M429.492,406.839c0,3.716-21.733,6.736-48.573,6.736s-48.6-3.02-48.6-6.736,21.768-6.728,48.6-6.728S429.492,403.11,429.492,406.839Z"/><path class="cls-235" d="M428.885,406.856c0,3.669-21.462,6.652-47.966,6.652s-47.99-2.983-47.99-6.652,21.5-6.644,47.99-6.644S428.885,403.173,428.885,406.856Z"/><path class="cls-236" d="M428.277,406.873c0,3.622-21.189,6.567-47.358,6.567s-47.383-2.945-47.383-6.567,21.224-6.56,47.383-6.56S428.277,403.236,428.277,406.873Z"/><path class="cls-237" d="M427.67,406.89c0,3.575-20.917,6.483-46.751,6.483s-46.776-2.908-46.776-6.483c0-3.591,20.952-6.476,46.776-6.476S427.67,403.3,427.67,406.89Z"/><path class="cls-238" d="M427.063,406.907c0,3.528-20.646,6.4-46.144,6.4s-46.169-2.871-46.169-6.4c0-3.545,20.681-6.392,46.169-6.392S427.063,403.362,427.063,406.907Z"/><path class="cls-239" d="M426.456,406.923c0,3.482-20.374,6.315-45.537,6.315s-45.561-2.833-45.561-6.315c0-3.5,20.408-6.307,45.561-6.307S426.456,403.425,426.456,406.923Z"/><path class="cls-240" d="M425.848,406.94c0,3.436-20.1,6.231-44.929,6.231s-44.954-2.8-44.954-6.231c0-3.452,20.136-6.223,44.954-6.223S425.848,403.488,425.848,406.94Z"/><path class="cls-241" d="M425.241,406.957c0,3.389-19.83,6.146-44.322,6.146s-44.347-2.757-44.347-6.146c0-3.406,19.865-6.139,44.347-6.139S425.241,403.551,425.241,406.957Z"/><path class="cls-242" d="M424.634,406.974c0,3.342-19.558,6.062-43.715,6.062s-43.74-2.72-43.74-6.062c0-3.359,19.593-6.056,43.74-6.056S424.634,403.615,424.634,406.974Z"/><path class="cls-243" d="M424.026,406.99c0,3.3-19.286,5.978-43.107,5.978s-43.133-2.682-43.133-5.978c0-3.312,19.322-5.971,43.133-5.971S424.026,403.678,424.026,406.99Z"/><path class="cls-244" d="M423.419,407.007c0,3.249-19.014,5.894-42.5,5.894s-42.525-2.645-42.525-5.894c0-3.266,19.049-5.887,42.525-5.887S423.419,403.741,423.419,407.007Z"/><path class="cls-245" d="M422.812,407.024c0,3.2-18.742,5.809-41.893,5.809S339,410.227,339,407.024c0-3.22,18.777-5.8,41.918-5.8S422.812,403.8,422.812,407.024Z"/><path class="cls-246" d="M422.2,407.041c0,3.156-18.47,5.725-41.285,5.725s-41.311-2.569-41.311-5.725c0-3.174,18.506-5.719,41.311-5.719S422.2,403.867,422.2,407.041Z"/><path class="cls-247" d="M421.6,407.057c0,3.11-18.2,5.641-40.678,5.641s-40.7-2.531-40.7-5.641c0-3.127,18.234-5.634,40.7-5.634S421.6,403.93,421.6,407.057Z"/><path class="cls-248" d="M420.99,407.074c0,3.063-17.926,5.557-40.071,5.557s-40.1-2.494-40.1-5.557c0-3.081,17.961-5.55,40.1-5.55S420.99,403.993,420.99,407.074Z"/><path class="cls-249" d="M420.383,407.091c0,3.016-17.655,5.472-39.464,5.472s-39.489-2.456-39.489-5.472c0-3.034,17.69-5.466,39.489-5.466S420.383,404.057,420.383,407.091Z"/><path class="cls-250" d="M419.775,407.108c0,2.97-17.382,5.388-38.856,5.388s-38.882-2.418-38.882-5.388c0-2.988,17.418-5.382,38.882-5.382S419.775,404.12,419.775,407.108Z"/><path class="cls-251" d="M419.168,407.124c0,2.924-17.11,5.3-38.249,5.3s-38.275-2.38-38.275-5.3c0-2.941,17.147-5.3,38.275-5.3S419.168,404.183,419.168,407.124Z"/><path class="cls-252" d="M418.561,407.141c0,2.877-16.839,5.22-37.642,5.22s-37.668-2.343-37.668-5.22c0-2.9,16.875-5.214,37.668-5.214S418.561,404.246,418.561,407.141Z"/><path class="cls-253" d="M417.953,407.158c0,2.83-16.566,5.135-37.034,5.135s-37.06-2.305-37.06-5.135c0-2.849,16.6-5.13,37.06-5.13S417.953,404.309,417.953,407.158Z"/><path class="cls-254" d="M417.346,407.175c0,2.783-16.294,5.051-36.427,5.051s-36.453-2.268-36.453-5.051c0-2.8,16.331-5.046,36.453-5.046S417.346,404.372,417.346,407.175Z"/><path class="cls-255" d="M416.739,407.191c0,2.737-16.023,4.967-35.82,4.967s-35.846-2.23-35.846-4.967c0-2.756,16.059-4.961,35.846-4.961S416.739,404.435,416.739,407.191Z"/><path class="cls-256" d="M416.131,407.208c0,2.691-15.75,4.883-35.212,4.883s-35.239-2.192-35.239-4.883c0-2.709,15.787-4.877,35.239-4.877S416.131,404.5,416.131,407.208Z"/><path class="cls-257" d="M415.524,407.225c0,2.644-15.479,4.8-34.605,4.8s-34.631-2.154-34.631-4.8c0-2.663,15.515-4.793,34.631-4.793S415.524,404.562,415.524,407.225Z"/><path d="M414.917,407.242c0,2.6-15.207,4.714-34,4.714s-34.024-2.117-34.024-4.714c0-2.617,15.243-4.709,34.024-4.709S414.917,404.625,414.917,407.242Z"/></g><path class="cls-258" d="M194.9,508.918h-4.86V478.936h16.919v4.142H194.9v9.371h11.3v4.164H194.9Z"/><path class="cls-258" d="M211.6,480.227a2.669,2.669,0,0,1,.707-1.989,2.757,2.757,0,0,1,2.02-.7,2.7,2.7,0,0,1,1.98.7,2.673,2.673,0,0,1,.707,1.989,2.63,2.63,0,0,1-.707,1.939,2.682,2.682,0,0,1-1.98.707,2.736,2.736,0,0,1-2.02-.707A2.626,2.626,0,0,1,211.6,480.227Zm5.106,28.691h-4.819V486.236H216.7Z"/><path class="cls-258" d="M243.547,508.918h-4.84V494.973a6.113,6.113,0,0,0-1.056-3.918,4.081,4.081,0,0,0-3.353-1.291,5.333,5.333,0,0,0-4.471,1.8q-1.415,1.8-1.415,6.049v11.3h-4.819V486.236h3.773l.677,2.973h.246a6.712,6.712,0,0,1,2.912-2.5,9.76,9.76,0,0,1,4.184-.881q8.161,0,8.162,8.3Z"/><path class="cls-258" d="M264.444,508.918l-.964-3.158h-.164a9.3,9.3,0,0,1-3.3,2.82,10.465,10.465,0,0,1-4.266.748,7.214,7.214,0,0,1-5.219-1.8,6.751,6.751,0,0,1-1.877-5.107,5.994,5.994,0,0,1,2.605-5.291q2.6-1.784,7.936-1.947l3.917-.123v-1.211a4.593,4.593,0,0,0-1.014-3.25,4.147,4.147,0,0,0-3.149-1.076,10.912,10.912,0,0,0-3.343.511,25.3,25.3,0,0,0-3.076,1.211l-1.558-3.445a16.792,16.792,0,0,1,4.04-1.467,18.642,18.642,0,0,1,4.142-.5q4.327,0,6.532,1.887t2.2,5.926v15.279Zm-7.177-3.281a5.968,5.968,0,0,0,4.214-1.467,5.316,5.316,0,0,0,1.589-4.111V498.09l-2.912.123a9.945,9.945,0,0,0-4.952,1.139,3.451,3.451,0,0,0-1.549,3.105,3.036,3.036,0,0,0,.9,2.35A3.882,3.882,0,0,0,257.267,505.637Z"/><path class="cls-258" d="M294.57,508.918h-4.84V494.973a6.113,6.113,0,0,0-1.055-3.918,4.082,4.082,0,0,0-3.354-1.291,5.33,5.33,0,0,0-4.47,1.8q-1.416,1.8-1.415,6.049v11.3h-4.82V486.236h3.774l.676,2.973h.246a6.715,6.715,0,0,1,2.913-2.5,9.753,9.753,0,0,1,4.183-.881q8.163,0,8.162,8.3Z"/><path class="cls-258" d="M310.423,509.328q-5.148,0-7.824-3t-2.676-8.625q0-5.721,2.8-8.8t8.09-3.076a15.171,15.171,0,0,1,6.46,1.332l-1.456,3.877a14.588,14.588,0,0,0-5.045-1.189q-5.885,0-5.885,7.812a9.35,9.35,0,0,0,1.467,5.733,5.071,5.071,0,0,0,4.3,1.918,12.33,12.33,0,0,0,6.091-1.6v4.2A9.524,9.524,0,0,1,313.981,509,16.542,16.542,0,0,1,310.423,509.328Z"/><path class="cls-258" d="M321.784,480.227a2.673,2.673,0,0,1,.707-1.989,2.761,2.761,0,0,1,2.021-.7,2.7,2.7,0,0,1,1.979.7,2.669,2.669,0,0,1,.707,1.989,2.626,2.626,0,0,1-.707,1.939,2.679,2.679,0,0,1-1.979.707,2.74,2.74,0,0,1-2.021-.707A2.63,2.63,0,0,1,321.784,480.227Zm5.107,28.691h-4.82V486.236h4.82Z"/><path class="cls-258" d="M347.973,508.918l-.964-3.158h-.164a9.307,9.307,0,0,1-3.3,2.82,10.458,10.458,0,0,1-4.266.748,7.212,7.212,0,0,1-5.218-1.8,6.751,6.751,0,0,1-1.877-5.107,6,6,0,0,1,2.6-5.291q2.6-1.784,7.937-1.947l3.917-.123v-1.211a4.589,4.589,0,0,0-1.015-3.25,4.146,4.146,0,0,0-3.148-1.076,10.9,10.9,0,0,0-3.343.511,25.174,25.174,0,0,0-3.076,1.211L334.5,487.8a16.792,16.792,0,0,1,4.04-1.467,18.65,18.65,0,0,1,4.143-.5q4.326,0,6.531,1.887t2.2,5.926v15.279Zm-7.178-3.281a5.972,5.972,0,0,0,4.215-1.467,5.319,5.319,0,0,0,1.589-4.111V498.09l-2.912.123a9.949,9.949,0,0,0-4.953,1.139,3.45,3.45,0,0,0-1.548,3.105,3.036,3.036,0,0,0,.9,2.35A3.884,3.884,0,0,0,340.8,505.637Z"/><path class="cls-258" d="M362.964,508.918h-4.819v-31.91h4.819Z"/><path class="cls-258" d="M381.277,478.936h8.9q6.194,0,8.952,1.8a6.321,6.321,0,0,1,2.758,5.7,6.906,6.906,0,0,1-1.354,4.368,6.053,6.053,0,0,1-3.9,2.195v.2a7.737,7.737,0,0,1,4.644,2.348,7.107,7.107,0,0,1,1.488,4.748,7.7,7.7,0,0,1-2.82,6.326q-2.821,2.288-7.845,2.287H381.277Zm4.9,12.386H390.9a8.073,8.073,0,0,0,4.491-.974,3.733,3.733,0,0,0,1.415-3.313,3.318,3.318,0,0,0-1.528-3.055,9.553,9.553,0,0,0-4.85-.943h-4.245Zm0,3.979V504.8h5.209a7.672,7.672,0,0,0,4.644-1.178,4.352,4.352,0,0,0,1.57-3.722,3.956,3.956,0,0,0-1.6-3.467,8.477,8.477,0,0,0-4.86-1.127Z"/><path class="cls-258" d="M420,485.826a11.657,11.657,0,0,1,2.4.2l-.472,4.49a9.118,9.118,0,0,0-2.133-.246,6.174,6.174,0,0,0-4.687,1.887,6.823,6.823,0,0,0-1.793,4.9v11.854h-4.82V486.236h3.774l.635,4h.246a8.995,8.995,0,0,1,2.943-3.218A7,7,0,0,1,420,485.826Z"/><path class="cls-258" d="M446.718,497.535q0,5.557-2.851,8.676a10.213,10.213,0,0,1-7.936,3.117,10.872,10.872,0,0,1-5.619-1.435,9.479,9.479,0,0,1-3.753-4.123,14.043,14.043,0,0,1-1.313-6.235q0-5.517,2.83-8.613t7.978-3.1a10,10,0,0,1,7.793,3.168A12.239,12.239,0,0,1,446.718,497.535Zm-16.509,0q0,7.854,5.8,7.856,5.742,0,5.742-7.856,0-7.772-5.783-7.771a4.934,4.934,0,0,0-4.4,2.009A10.227,10.227,0,0,0,430.209,497.535Z"/><path class="cls-258" d="M456.91,496.941l2.728-3.4,6.849-7.3h5.558l-9.126,9.741,9.7,12.941h-5.66l-7.28-9.947-2.646,2.174v7.773h-4.778v-31.91h4.778v15.564l-.246,4.369Z"/><path class="cls-258" d="M486.175,509.328q-5.292,0-8.275-3.086t-2.984-8.5q0-5.558,2.769-8.736a9.56,9.56,0,0,1,7.608-3.178,9.346,9.346,0,0,1,7.1,2.727,10.423,10.423,0,0,1,2.6,7.506v2.6H479.879a7.45,7.45,0,0,0,1.784,5.076,6.216,6.216,0,0,0,4.737,1.774,17.555,17.555,0,0,0,3.743-.379,19.694,19.694,0,0,0,3.722-1.262v3.916a14.807,14.807,0,0,1-3.568,1.19A21.912,21.912,0,0,1,486.175,509.328Zm-.882-19.851a4.844,4.844,0,0,0-3.682,1.455,6.945,6.945,0,0,0-1.65,4.246h10.295a6.281,6.281,0,0,0-1.354-4.256A4.631,4.631,0,0,0,485.293,489.477Z"/><path class="cls-258" d="M511.974,485.826a11.653,11.653,0,0,1,2.4.2l-.472,4.49a9.1,9.1,0,0,0-2.132-.246,6.173,6.173,0,0,0-4.687,1.887,6.824,6.824,0,0,0-1.794,4.9v11.854h-4.819V486.236h3.773l.636,4h.246a8.992,8.992,0,0,1,2.942-3.218A7,7,0,0,1,511.974,485.826Z"/><path class="cls-258" d="M532.769,508.918l-.964-3.158h-.164a9.307,9.307,0,0,1-3.3,2.82,10.461,10.461,0,0,1-4.266.748,7.214,7.214,0,0,1-5.219-1.8,6.754,6.754,0,0,1-1.876-5.107,6,6,0,0,1,2.6-5.291q2.6-1.784,7.937-1.947l3.917-.123v-1.211a4.589,4.589,0,0,0-1.015-3.25,4.147,4.147,0,0,0-3.149-1.076,10.9,10.9,0,0,0-3.342.511,25.174,25.174,0,0,0-3.076,1.211l-1.559-3.445a16.792,16.792,0,0,1,4.04-1.467,18.65,18.65,0,0,1,4.143-.5q4.326,0,6.531,1.887t2.205,5.926v15.279Zm-7.178-3.281a5.972,5.972,0,0,0,4.215-1.467,5.319,5.319,0,0,0,1.589-4.111V498.09l-2.913.123a9.948,9.948,0,0,0-4.952,1.139,3.451,3.451,0,0,0-1.549,3.105,3.036,3.036,0,0,0,.9,2.35A3.884,3.884,0,0,0,525.591,505.637Z"/><path class="cls-258" d="M562.1,486.236v2.645l-3.876.719a6.276,6.276,0,0,1,.882,1.763,6.975,6.975,0,0,1,.348,2.215,6.783,6.783,0,0,1-2.42,5.516,10.125,10.125,0,0,1-6.665,2.01,10.737,10.737,0,0,1-1.968-.165,2.715,2.715,0,0,0-1.559,2.256,1.254,1.254,0,0,0,.728,1.17,6.292,6.292,0,0,0,2.676.389H554.2a8.8,8.8,0,0,1,5.7,1.6,5.628,5.628,0,0,1,1.949,4.615,6.711,6.711,0,0,1-3.179,5.947q-3.178,2.092-9.188,2.092-4.633,0-7.075-1.641a5.3,5.3,0,0,1-2.44-4.676,4.97,4.97,0,0,1,1.323-3.517,7.09,7.09,0,0,1,3.7-1.979,3.632,3.632,0,0,1-1.59-1.322,3.341,3.341,0,0,1-.625-1.918,3.305,3.305,0,0,1,.718-2.154,8.289,8.289,0,0,1,2.133-1.742,6.311,6.311,0,0,1-2.86-2.471,7.263,7.263,0,0,1-1.1-4.01A7.187,7.187,0,0,1,544,487.855q2.327-2.029,6.634-2.029a16.331,16.331,0,0,1,2.02.133,13.08,13.08,0,0,1,1.589.277Zm-17.822,26.209a2.649,2.649,0,0,0,1.406,2.4,7.719,7.719,0,0,0,3.947.842,11.924,11.924,0,0,0,5.865-1.129,3.382,3.382,0,0,0,1.928-3,2.245,2.245,0,0,0-1.057-2.1,8.463,8.463,0,0,0-3.926-.625h-3.651a5.122,5.122,0,0,0-3.292.975A3.192,3.192,0,0,0,544.273,512.445Zm2.072-18.867a4.56,4.56,0,0,0,1.1,3.281,4.148,4.148,0,0,0,3.148,1.149q4.183,0,4.183-4.471a5.066,5.066,0,0,0-1.036-3.414,3.929,3.929,0,0,0-3.147-1.2,4.059,4.059,0,0,0-3.169,1.189A5.008,5.008,0,0,0,546.345,493.578Z"/><path class="cls-258" d="M576.2,509.328q-5.29,0-8.274-3.086t-2.985-8.5q0-5.558,2.769-8.736a9.563,9.563,0,0,1,7.608-3.178,9.344,9.344,0,0,1,7.1,2.727,10.423,10.423,0,0,1,2.6,7.506v2.6H569.908a7.455,7.455,0,0,0,1.784,5.076,6.218,6.218,0,0,0,4.738,1.774,17.539,17.539,0,0,0,3.742-.379,19.725,19.725,0,0,0,3.723-1.262v3.916a14.814,14.814,0,0,1-3.569,1.19A21.912,21.912,0,0,1,576.2,509.328Zm-.882-19.851a4.84,4.84,0,0,0-3.681,1.455,6.945,6.945,0,0,0-1.651,4.246h10.295a6.28,6.28,0,0,0-1.353-4.256A4.632,4.632,0,0,0,575.322,489.477Z"/><path class="cls-258" d="M605.735,502.457a5.938,5.938,0,0,1-2.42,5.1q-2.42,1.772-6.931,1.773a16.37,16.37,0,0,1-7.28-1.375v-4.162a17.88,17.88,0,0,0,7.444,1.846q4.45,0,4.45-2.688a2.126,2.126,0,0,0-.492-1.435,5.815,5.815,0,0,0-1.62-1.19,27.825,27.825,0,0,0-3.138-1.394,14.523,14.523,0,0,1-5.3-3.035,5.613,5.613,0,0,1-1.385-3.938,5.172,5.172,0,0,1,2.348-4.521,11.148,11.148,0,0,1,6.389-1.61,18.092,18.092,0,0,1,7.567,1.619l-1.558,3.631a16.827,16.827,0,0,0-6.173-1.517q-3.814,0-3.815,2.173a2.187,2.187,0,0,0,.994,1.8,21.938,21.938,0,0,0,4.338,2.029,19.8,19.8,0,0,1,4.081,1.991,5.93,5.93,0,0,1,1.887,2.082A6.015,6.015,0,0,1,605.735,502.457Z"/><g id="Business_Development" data-name="Business Development"><path class="cls-259" d="M481.234,169.4c-.5,2.088-1.009,4.066-1.5,6.048-.846,3.38-1.7,6.758-2.522,10.145-.9,3.719-1.758,7.448-2.656,11.168a1.387,1.387,0,0,1-.49.743c-.092.067-.477-.147-.641-.318-1.233-1.274-2.414-2.6-3.668-3.852-1.551-1.55-3.172-3.03-4.732-4.572-.795-.785-1.541-1.623-2.28-2.462-.838-.953-1.192-.979-2.1-.076l-47.552,47.551c-2.756,2.756-5.522,5.5-8.262,8.272-1.237,1.252-2.391,2.586-3.638,3.828-1.527,1.521-3.113,2.982-4.668,4.474a2.478,2.478,0,0,0-.3.413c-.683,1.019-1.172,1.074-2.025.221q-10.156-10.156-20.3-20.327c-.683-.687-1.117-.716-1.812-.019q-17.017,17.069-34.068,34.1c-1.168,1.169-2.242,2.432-3.41,3.6s-2.438,2.253-3.611,3.426c-1.245,1.246-2.4,2.577-3.647,3.824-1.094,1.1-2.273,2.111-3.377,3.2-.648.639-1.195,1.382-1.838,2.028-3.21,3.232-6.448,6.436-9.647,9.678-.606.614-1.029.655-1.655.024q-6.324-6.381-12.7-12.708c-.652-.647-.808-1.071-.03-1.829,3.674-3.578,7.284-7.221,10.9-10.863,1.467-1.479,2.867-3.023,4.319-4.517,1.166-1.2,2.363-2.37,3.546-3.554l55.084-55.083c1.037-1.037,1.037-1.037,2.091.018l19.934,19.933c1.07,1.07,1.071,1.07,2.1.037l50.063-50.063c.964-.964.967-1.214.027-2.154q-5.82-5.82-11.637-11.644a9.031,9.031,0,0,1-.642-.808,4.516,4.516,0,0,1,1.029-.567c2.739-.671,5.49-1.29,8.231-1.955,2.539-.616,5.063-1.3,7.605-1.9,3.5-.826,7.019-1.574,10.517-2.411,5.348-1.279,10.686-2.6,16.025-3.912,3.089-.761,6.17-1.561,9.263-2.306.465-.112.736.007.558.7-1,3.9-1.913,7.818-2.873,11.726-.839,3.416-1.709,6.825-2.548,10.241C481.5,167.692,481.386,168.5,481.234,169.4Z"/><path class="cls-258" d="M451.751,338.125q0-54.125-.021-108.032c0-1,.226-1.324,1.285-1.318q12.374.069,24.748,0c.923,0,1.122.281,1.121,1.152q-.03,60.849,0,121.7c0,.869-.195,1.157-1.12,1.153q-12.482-.057-24.963,0c-.863,0-1.076-.26-1.069-1.095C451.772,347.2,451.751,342.716,451.751,338.125Z"/><path class="cls-258" d="M433.243,273.563q0,39.054.019,77.892c0,.981-.19,1.337-1.271,1.331q-12.372-.073-24.745-.008c-.892,0-1.139-.233-1.138-1.134q.034-48.574.02-97.15c0-1.256.123-1.375,1.413-1.375q12.158,0,24.314,0c1.273,0,1.388.117,1.388,1.4Z"/><path class="cls-258" d="M386.544,315.313c0,11.941,0,23.775,0,35.609,0,1.741-.1,1.837-1.813,1.837-8.105,0-16.209-.013-24.314.018-.891,0-1.227-.165-1.226-1.155q.043-35.987,0-71.972c0-.99.335-1.159,1.226-1.156,8.248.031,16.5.043,24.744-.011,1.079-.007,1.275.525,1.379,1.328a4.954,4.954,0,0,1,0,.645Z"/><path class="cls-258" d="M341.35,329.947c0,7.062,0,14.017,0,20.972,0,1.744-.1,1.84-1.809,1.84-8.03,0-16.061-.028-24.091.032-1.134.008-1.33-.544-1.428-1.39a4.825,4.825,0,0,1,0-.538V305.155c0-1.81.083-1.894,1.863-1.894h23.984c1.289,0,1.483.195,1.484,1.519C341.351,313.133,341.35,321.486,341.35,329.947Z"/></g></g></g></svg>