<svg xmlns="http://www.w3.org/2000/svg" viewBox="0 0 800 600"><defs><style>.cls-1{isolation:isolate;}.cls-2{fill:#3a3a8c;}.cls-3{fill:#303070;}.cls-4{fill:#797c7b;}.cls-5{opacity:0.2;mix-blend-mode:multiply;}.cls-6{fill:#fff;opacity:0;}.cls-7{fill:#fefefe;opacity:0.004;}.cls-8{fill:#fdfdfd;opacity:0.008;}.cls-9{fill:#fcfcfc;opacity:0.012;}.cls-10{fill:#fbfbfb;opacity:0.016;}.cls-11{fill:#fafafa;opacity:0.02;}.cls-12{fill:#f9f9f9;opacity:0.024;}.cls-13{fill:#f8f8f8;opacity:0.027;}.cls-14{fill:#f7f7f7;opacity:0.031;}.cls-15{fill:#f6f6f6;opacity:0.035;}.cls-16{fill:#f5f5f5;opacity:0.039;}.cls-17{fill:#f4f4f4;opacity:0.043;}.cls-18{fill:#f3f3f3;opacity:0.047;}.cls-19{fill:#f2f2f2;opacity:0.051;}.cls-20{fill:#f1f1f1;opacity:0.055;}.cls-21{fill:#f0f0f0;opacity:0.059;}.cls-22{fill:#efefef;opacity:0.063;}.cls-23{fill:#eee;opacity:0.067;}.cls-24{fill:#ededed;opacity:0.071;}.cls-25{fill:#ececec;opacity:0.075;}.cls-26{fill:#ebebeb;opacity:0.078;}.cls-27{fill:#eaeaea;opacity:0.082;}.cls-28{fill:#e9e9e9;opacity:0.086;}.cls-29{fill:#e8e8e8;opacity:0.09;}.cls-30{fill:#e7e7e7;opacity:0.094;}.cls-31{fill:#e6e6e6;opacity:0.098;}.cls-32{fill:#e5e5e5;opacity:0.102;}.cls-33{fill:#e4e4e4;opacity:0.106;}.cls-34{fill:#e3e3e3;opacity:0.11;}.cls-35{fill:#e2e2e2;opacity:0.114;}.cls-36{fill:#e1e1e1;opacity:0.118;}.cls-37{fill:#e0e0e0;opacity:0.122;}.cls-38{fill:#dfdfdf;opacity:0.125;}.cls-39{fill:#dedede;opacity:0.129;}.cls-40{fill:#ddd;opacity:0.133;}.cls-41{fill:#dcdcdc;opacity:0.137;}.cls-42{fill:#dbdbdb;opacity:0.141;}.cls-43{fill:#dadada;opacity:0.145;}.cls-44{fill:#d9d9d9;opacity:0.149;}.cls-45{fill:#d8d8d8;opacity:0.153;}.cls-46{fill:#d7d7d7;opacity:0.157;}.cls-47{fill:#d6d6d6;opacity:0.161;}.cls-48{fill:#d5d5d5;opacity:0.165;}.cls-49{fill:#d4d4d4;opacity:0.169;}.cls-50{fill:#d3d3d3;opacity:0.173;}.cls-51{fill:#d2d2d2;opacity:0.176;}.cls-52{fill:#d1d1d1;opacity:0.18;}.cls-53{fill:#d0d0d0;opacity:0.184;}.cls-54{fill:#cfcfcf;opacity:0.188;}.cls-55{fill:#cecece;opacity:0.192;}.cls-56{fill:#cdcdcd;opacity:0.196;}.cls-57{fill:#ccc;opacity:0.2;}.cls-58{fill:#cbcbcb;opacity:0.204;}.cls-59{fill:#cacaca;opacity:0.208;}.cls-60{fill:#c9c9c9;opacity:0.212;}.cls-61{fill:#c8c8c8;opacity:0.216;}.cls-62{fill:#c7c7c7;opacity:0.22;}.cls-63{fill:#c6c6c6;opacity:0.224;}.cls-64{fill:#c5c5c5;opacity:0.227;}.cls-65{fill:#c4c4c4;opacity:0.231;}.cls-66{fill:#c3c3c3;opacity:0.235;}.cls-67{fill:#c2c2c2;opacity:0.239;}.cls-68{fill:#c1c1c1;opacity:0.243;}.cls-69{fill:silver;opacity:0.247;}.cls-70{fill:#bfbfbf;opacity:0.251;}.cls-71{fill:#bebebe;opacity:0.255;}.cls-72{fill:#bdbdbd;opacity:0.259;}.cls-73{fill:#bcbcbc;opacity:0.263;}.cls-74{fill:#bbb;opacity:0.267;}.cls-75{fill:#bababa;opacity:0.271;}.cls-76{fill:#b9b9b9;opacity:0.275;}.cls-77{fill:#b8b8b8;opacity:0.278;}.cls-78{fill:#b7b7b7;opacity:0.282;}.cls-79{fill:#b6b6b6;opacity:0.286;}.cls-80{fill:#b5b5b5;opacity:0.29;}.cls-81{fill:#b4b4b4;opacity:0.294;}.cls-82{fill:#b3b3b3;opacity:0.298;}.cls-83{fill:#b2b2b2;opacity:0.302;}.cls-84{fill:#b1b1b1;opacity:0.306;}.cls-85{fill:#b0b0b0;opacity:0.31;}.cls-86{fill:#afafaf;opacity:0.314;}.cls-87{fill:#aeaeae;opacity:0.318;}.cls-88{fill:#adadad;opacity:0.322;}.cls-89{fill:#acacac;opacity:0.325;}.cls-90{fill:#ababab;opacity:0.329;}.cls-91{fill:#aaa;opacity:0.333;}.cls-92{fill:#a9a9a9;opacity:0.337;}.cls-93{fill:#a8a8a8;opacity:0.341;}.cls-94{fill:#a7a7a7;opacity:0.345;}.cls-95{fill:#a6a6a6;opacity:0.349;}.cls-96{fill:#a5a5a5;opacity:0.353;}.cls-97{fill:#a4a4a4;opacity:0.357;}.cls-98{fill:#a3a3a3;opacity:0.361;}.cls-99{fill:#a2a2a2;opacity:0.365;}.cls-100{fill:#a1a1a1;opacity:0.369;}.cls-101{fill:#a0a0a0;opacity:0.373;}.cls-102{fill:#9f9f9f;opacity:0.376;}.cls-103{fill:#9e9e9e;opacity:0.38;}.cls-104{fill:#9d9d9d;opacity:0.384;}.cls-105{fill:#9c9c9c;opacity:0.388;}.cls-106{fill:#9b9b9b;opacity:0.392;}.cls-107{fill:#9a9a9a;opacity:0.396;}.cls-108{fill:#999;opacity:0.4;}.cls-109{fill:#989898;opacity:0.404;}.cls-110{fill:#979797;opacity:0.408;}.cls-111{fill:#969696;opacity:0.412;}.cls-112{fill:#959595;opacity:0.416;}.cls-113{fill:#949494;opacity:0.42;}.cls-114{fill:#939393;opacity:0.424;}.cls-115{fill:#929292;opacity:0.427;}.cls-116{fill:#919191;opacity:0.431;}.cls-117{fill:#909090;opacity:0.435;}.cls-118{fill:#8f8f8f;opacity:0.439;}.cls-119{fill:#8e8e8e;opacity:0.443;}.cls-120{fill:#8d8d8d;opacity:0.447;}.cls-121{fill:#8c8c8c;opacity:0.451;}.cls-122{fill:#8b8b8b;opacity:0.455;}.cls-123{fill:#8a8a8a;opacity:0.459;}.cls-124{fill:#898989;opacity:0.463;}.cls-125{fill:#888;opacity:0.467;}.cls-126{fill:#878787;opacity:0.471;}.cls-127{fill:#868686;opacity:0.475;}.cls-128{fill:#858585;opacity:0.478;}.cls-129{fill:#848484;opacity:0.482;}.cls-130{fill:#838383;opacity:0.486;}.cls-131{fill:#828282;opacity:0.49;}.cls-132{fill:#818181;opacity:0.494;}.cls-133{fill:gray;opacity:0.498;}.cls-134{fill:#7f7f7f;opacity:0.502;}.cls-135{fill:#7e7e7e;opacity:0.506;}.cls-136{fill:#7d7d7d;opacity:0.51;}.cls-137{fill:#7c7c7c;opacity:0.514;}.cls-138{fill:#7b7b7b;opacity:0.518;}.cls-139{fill:#7a7a7a;opacity:0.522;}.cls-140{fill:#797979;opacity:0.525;}.cls-141{fill:#787878;opacity:0.529;}.cls-142{fill:#777;opacity:0.533;}.cls-143{fill:#767676;opacity:0.537;}.cls-144{fill:#757575;opacity:0.541;}.cls-145{fill:#747474;opacity:0.545;}.cls-146{fill:#737373;opacity:0.549;}.cls-147{fill:#727272;opacity:0.553;}.cls-148{fill:#717171;opacity:0.557;}.cls-149{fill:#707070;opacity:0.561;}.cls-150{fill:#6f6f6f;opacity:0.565;}.cls-151{fill:#6e6e6e;opacity:0.569;}.cls-152{fill:#6d6d6d;opacity:0.573;}.cls-153{fill:#6c6c6c;opacity:0.576;}.cls-154{fill:#6b6b6b;opacity:0.58;}.cls-155{fill:#6a6a6a;opacity:0.584;}.cls-156{fill:#696969;opacity:0.588;}.cls-157{fill:#686868;opacity:0.592;}.cls-158{fill:#676767;opacity:0.596;}.cls-159{fill:#666;opacity:0.6;}.cls-160{fill:#656565;opacity:0.604;}.cls-161{fill:#646464;opacity:0.608;}.cls-162{fill:#636363;opacity:0.612;}.cls-163{fill:#626262;opacity:0.616;}.cls-164{fill:#616161;opacity:0.62;}.cls-165{fill:#606060;opacity:0.624;}.cls-166{fill:#5f5f5f;opacity:0.627;}.cls-167{fill:#5e5e5e;opacity:0.631;}.cls-168{fill:#5d5d5d;opacity:0.635;}.cls-169{fill:#5c5c5c;opacity:0.639;}.cls-170{fill:#5b5b5b;opacity:0.643;}.cls-171{fill:#5a5a5a;opacity:0.647;}.cls-172{fill:#595959;opacity:0.651;}.cls-173{fill:#585858;opacity:0.655;}.cls-174{fill:#575757;opacity:0.659;}.cls-175{fill:#565656;opacity:0.663;}.cls-176{fill:#555;opacity:0.667;}.cls-177{fill:#545454;opacity:0.671;}.cls-178{fill:#535353;opacity:0.675;}.cls-179{fill:#525252;opacity:0.678;}.cls-180{fill:#515151;opacity:0.682;}.cls-181{fill:#505050;opacity:0.686;}.cls-182{fill:#4f4f4f;opacity:0.69;}.cls-183{fill:#4e4e4e;opacity:0.694;}.cls-184{fill:#4d4d4d;opacity:0.698;}.cls-185{fill:#4c4c4c;opacity:0.702;}.cls-186{fill:#4b4b4b;opacity:0.706;}.cls-187{fill:#4a4a4a;opacity:0.71;}.cls-188{fill:#494949;opacity:0.714;}.cls-189{fill:#484848;opacity:0.718;}.cls-190{fill:#474747;opacity:0.722;}.cls-191{fill:#464646;opacity:0.725;}.cls-192{fill:#454545;opacity:0.729;}.cls-193{fill:#444;opacity:0.733;}.cls-194{fill:#434343;opacity:0.737;}.cls-195{fill:#424242;opacity:0.741;}.cls-196{fill:#414141;opacity:0.745;}.cls-197{fill:#404040;opacity:0.749;}.cls-198{fill:#3f3f3f;opacity:0.753;}.cls-199{fill:#3e3e3e;opacity:0.757;}.cls-200{fill:#3d3d3d;opacity:0.761;}.cls-201{fill:#3c3c3c;opacity:0.765;}.cls-202{fill:#3b3b3b;opacity:0.769;}.cls-203{fill:#3a3a3a;opacity:0.773;}.cls-204{fill:#393939;opacity:0.776;}.cls-205{fill:#383838;opacity:0.78;}.cls-206{fill:#373737;opacity:0.784;}.cls-207{fill:#363636;opacity:0.788;}.cls-208{fill:#353535;opacity:0.792;}.cls-209{fill:#343434;opacity:0.796;}.cls-210{fill:#333;opacity:0.8;}.cls-211{fill:#323232;opacity:0.804;}.cls-212{fill:#313131;opacity:0.808;}.cls-213{fill:#303030;opacity:0.812;}.cls-214{fill:#2f2f2f;opacity:0.816;}.cls-215{fill:#2e2e2e;opacity:0.82;}.cls-216{fill:#2d2d2d;opacity:0.824;}.cls-217{fill:#2c2c2c;opacity:0.827;}.cls-218{fill:#2b2b2b;opacity:0.831;}.cls-219{fill:#2a2a2a;opacity:0.835;}.cls-220{fill:#292929;opacity:0.839;}.cls-221{fill:#282828;opacity:0.843;}.cls-222{fill:#272727;opacity:0.847;}.cls-223{fill:#262626;opacity:0.851;}.cls-224{fill:#252525;opacity:0.855;}.cls-225{fill:#242424;opacity:0.859;}.cls-226{fill:#232323;opacity:0.863;}.cls-227{fill:#222;opacity:0.867;}.cls-228{fill:#212121;opacity:0.871;}.cls-229{fill:#202020;opacity:0.875;}.cls-230{fill:#1f1f1f;opacity:0.878;}.cls-231{fill:#1e1e1e;opacity:0.882;}.cls-232{fill:#1d1d1d;opacity:0.886;}.cls-233{fill:#1c1c1c;opacity:0.89;}.cls-234{fill:#1b1b1b;opacity:0.894;}.cls-235{fill:#1a1a1a;opacity:0.898;}.cls-236{fill:#191919;opacity:0.902;}.cls-237{fill:#181818;opacity:0.906;}.cls-238{fill:#171717;opacity:0.91;}.cls-239{fill:#161616;opacity:0.914;}.cls-240{fill:#151515;opacity:0.918;}.cls-241{fill:#141414;opacity:0.922;}.cls-242{fill:#131313;opacity:0.925;}.cls-243{fill:#121212;opacity:0.929;}.cls-244{fill:#111;opacity:0.933;}.cls-245{fill:#101010;opacity:0.937;}.cls-246{fill:#0f0f0f;opacity:0.941;}.cls-247{fill:#0e0e0e;opacity:0.945;}.cls-248{fill:#0d0d0d;opacity:0.949;}.cls-249{fill:#0c0c0c;opacity:0.953;}.cls-250{fill:#0b0b0b;opacity:0.957;}.cls-251{fill:#0a0a0a;opacity:0.961;}.cls-252{fill:#090909;opacity:0.965;}.cls-253{fill:#080808;opacity:0.969;}.cls-254{fill:#070707;opacity:0.973;}.cls-255{fill:#060606;opacity:0.976;}.cls-256{fill:#050505;opacity:0.98;}.cls-257{fill:#040404;opacity:0.984;}.cls-258{fill:#030303;opacity:0.988;}.cls-259{fill:#020202;opacity:0.992;}.cls-260{fill:#010101;opacity:0.996;}</style></defs><g class="cls-1"><g id="Text"><path class="cls-2" d="M245,456.382a8.078,8.078,0,0,0-6.644,2.994q-2.419,2.994-2.42,8.265,0,5.515,2.327,8.346a8.222,8.222,0,0,0,6.737,2.83,17.7,17.7,0,0,0,3.692-.379q1.783-.378,3.712-.974v4.2a22.5,22.5,0,0,1-8,1.333q-6.584,0-10.111-3.988T230.769,467.6a18.436,18.436,0,0,1,1.712-8.183,12.224,12.224,0,0,1,4.953-5.373,14.979,14.979,0,0,1,7.608-1.866,18.886,18.886,0,0,1,8.491,1.927l-1.764,4.082a26.326,26.326,0,0,0-3.21-1.262A11.563,11.563,0,0,0,245,456.382Z"/><path class="cls-2" d="M278.47,471.209q0,5.557-2.85,8.675A10.215,10.215,0,0,1,267.683,483a10.875,10.875,0,0,1-5.619-1.436,9.477,9.477,0,0,1-3.753-4.122A14.038,14.038,0,0,1,257,471.209q0-5.517,2.83-8.613t7.977-3.1a10,10,0,0,1,7.793,3.168A12.242,12.242,0,0,1,278.47,471.209Zm-16.509,0q0,7.854,5.8,7.854,5.742,0,5.742-7.854,0-7.773-5.783-7.772a4.931,4.931,0,0,0-4.4,2.009A10.23,10.23,0,0,0,261.961,471.209Z"/><path class="cls-2" d="M303.121,482.591h-4.84V468.6a6.338,6.338,0,0,0-.985-3.886,3.632,3.632,0,0,0-3.076-1.281,4.7,4.7,0,0,0-4.092,1.814q-1.3,1.817-1.3,6.04v11.3h-4.82V459.909h3.774l.677,2.974h.246a6.285,6.285,0,0,1,2.737-2.5,8.829,8.829,0,0,1,3.948-.882q5.229,0,6.932,3.568h.328a6.915,6.915,0,0,1,2.83-2.625,8.981,8.981,0,0,1,4.184-.943q4.06,0,5.917,2.051t1.855,6.255v14.786h-4.819V468.6a6.294,6.294,0,0,0-1-3.886,3.663,3.663,0,0,0-3.086-1.281,4.784,4.784,0,0,0-4.112,1.753,9.029,9.029,0,0,0-1.3,5.383Z"/><path class="cls-2" d="M343.275,482.591h-4.84V468.6a6.345,6.345,0,0,0-.984-3.886,3.635,3.635,0,0,0-3.076-1.281,4.694,4.694,0,0,0-4.092,1.814q-1.3,1.817-1.3,6.04v11.3h-4.819V459.909h3.773l.677,2.974h.246a6.285,6.285,0,0,1,2.737-2.5,8.832,8.832,0,0,1,3.948-.882q5.23,0,6.932,3.568h.328a6.921,6.921,0,0,1,2.83-2.625,8.983,8.983,0,0,1,4.184-.943q4.06,0,5.917,2.051t1.855,6.255v14.786H352.77V468.6a6.294,6.294,0,0,0-1-3.886,3.663,3.663,0,0,0-3.086-1.281,4.78,4.78,0,0,0-4.111,1.753,9.021,9.021,0,0,0-1.3,5.383Z"/><path class="cls-2" d="M374.221,483q-5.29,0-8.274-3.086t-2.985-8.5q0-5.558,2.769-8.736a9.564,9.564,0,0,1,7.608-3.179,9.345,9.345,0,0,1,7.1,2.728,10.422,10.422,0,0,1,2.605,7.505v2.6H367.925a7.455,7.455,0,0,0,1.784,5.076,6.216,6.216,0,0,0,4.738,1.774,17.475,17.475,0,0,0,3.742-.379,19.654,19.654,0,0,0,3.723-1.262v3.917a14.81,14.81,0,0,1-3.569,1.189A21.829,21.829,0,0,1,374.221,483Zm-.882-19.852a4.846,4.846,0,0,0-3.681,1.456,6.948,6.948,0,0,0-1.651,4.246h10.3a6.28,6.28,0,0,0-1.353-4.256A4.633,4.633,0,0,0,373.339,463.149Z"/><path class="cls-2" d="M400.02,459.5a11.587,11.587,0,0,1,2.4.2l-.472,4.491a9.112,9.112,0,0,0-2.133-.246,6.174,6.174,0,0,0-4.687,1.887,6.821,6.821,0,0,0-1.794,4.9v11.854h-4.819V459.909h3.774l.635,4h.246a9,9,0,0,1,2.943-3.22A7,7,0,0,1,400.02,459.5Z"/><path class="cls-2" d="M415.771,483q-5.148,0-7.825-3t-2.675-8.624q0-5.721,2.8-8.8t8.091-3.076a15.156,15.156,0,0,1,6.46,1.333l-1.456,3.876a14.593,14.593,0,0,0-5.045-1.189q-5.886,0-5.886,7.813a9.348,9.348,0,0,0,1.467,5.731,5.07,5.07,0,0,0,4.3,1.918,12.329,12.329,0,0,0,6.091-1.6v4.2a9.522,9.522,0,0,1-2.758,1.087A16.542,16.542,0,0,1,415.771,483Z"/><path class="cls-2" d="M427.132,453.9a2.671,2.671,0,0,1,.707-1.989,2.758,2.758,0,0,1,2.02-.7,2.7,2.7,0,0,1,1.98.7,2.671,2.671,0,0,1,.707,1.989,2.625,2.625,0,0,1-.707,1.939,2.682,2.682,0,0,1-1.98.707,2.738,2.738,0,0,1-2.02-.707A2.625,2.625,0,0,1,427.132,453.9Zm5.106,28.691h-4.819V459.909h4.819Z"/><path class="cls-2" d="M453.32,482.591l-.964-3.158h-.164a9.3,9.3,0,0,1-3.3,2.82,10.465,10.465,0,0,1-4.266.748,7.217,7.217,0,0,1-5.219-1.8,6.748,6.748,0,0,1-1.877-5.106,5.994,5.994,0,0,1,2.605-5.291q2.6-1.785,7.936-1.948l3.917-.123v-1.21a4.594,4.594,0,0,0-1.014-3.251,4.147,4.147,0,0,0-3.149-1.077,10.883,10.883,0,0,0-3.343.513,25.3,25.3,0,0,0-3.076,1.21l-1.558-3.445a16.792,16.792,0,0,1,4.04-1.467,18.642,18.642,0,0,1,4.142-.5q4.327,0,6.532,1.887t2.205,5.926v15.279Zm-7.177-3.281a5.968,5.968,0,0,0,4.214-1.467,5.316,5.316,0,0,0,1.589-4.112v-1.968l-2.912.123a9.957,9.957,0,0,0-4.952,1.138,3.455,3.455,0,0,0-1.549,3.107,3.03,3.03,0,0,0,.9,2.348A3.878,3.878,0,0,0,446.143,479.31Z"/><path class="cls-2" d="M468.312,482.591h-4.82v-31.91h4.82Z"/><path class="cls-2" d="M486.625,482.591V452.608h4.9v25.779h12.695v4.2Z"/><path class="cls-2" d="M528.994,471.209q0,5.557-2.85,8.675A10.215,10.215,0,0,1,518.207,483a10.875,10.875,0,0,1-5.619-1.436,9.477,9.477,0,0,1-3.753-4.122,14.038,14.038,0,0,1-1.313-6.234q0-5.517,2.831-8.613t7.977-3.1a10,10,0,0,1,7.793,3.168A12.242,12.242,0,0,1,528.994,471.209Zm-16.509,0q0,7.854,5.8,7.854,5.742,0,5.742-7.854,0-7.773-5.783-7.772a4.931,4.931,0,0,0-4.4,2.009A10.222,10.222,0,0,0,512.485,471.209Z"/><path class="cls-2" d="M548.723,482.591l-.964-3.158H547.6a9.307,9.307,0,0,1-3.3,2.82,10.458,10.458,0,0,1-4.266.748,7.216,7.216,0,0,1-5.218-1.8,6.748,6.748,0,0,1-1.877-5.106,6,6,0,0,1,2.6-5.291q2.6-1.785,7.937-1.948l3.917-.123v-1.21a4.59,4.59,0,0,0-1.015-3.251,4.146,4.146,0,0,0-3.148-1.077,10.874,10.874,0,0,0-3.343.513,25.17,25.17,0,0,0-3.076,1.21l-1.559-3.445a16.792,16.792,0,0,1,4.04-1.467,18.65,18.65,0,0,1,4.143-.5q4.326,0,6.531,1.887t2.205,5.926v15.279Zm-7.178-3.281a5.972,5.972,0,0,0,4.215-1.467,5.32,5.32,0,0,0,1.589-4.112v-1.968l-2.912.123a9.961,9.961,0,0,0-4.953,1.138,3.455,3.455,0,0,0-1.548,3.107,3.03,3.03,0,0,0,.9,2.348A3.879,3.879,0,0,0,541.545,479.31Z"/><path class="cls-2" d="M578.849,482.591h-4.84V468.646a6.109,6.109,0,0,0-1.056-3.917,4.082,4.082,0,0,0-3.353-1.292,5.331,5.331,0,0,0-4.471,1.8q-1.414,1.8-1.415,6.05v11.3H558.9V459.909h3.773l.677,2.974h.246a6.706,6.706,0,0,1,2.912-2.5,9.758,9.758,0,0,1,4.184-.882q8.162,0,8.162,8.306Z"/><path class="cls-2" d="M332.652,512.072a8.746,8.746,0,0,1-3.076,7.2q-3.077,2.5-8.757,2.5H317.7V532.99h-4.9V503.008h8.634q5.619,0,8.418,2.3T332.652,512.072ZM317.7,517.65h2.6q3.774,0,5.537-1.312a4.776,4.776,0,0,0,1.764-4.1,4.654,4.654,0,0,0-1.579-3.855,7.8,7.8,0,0,0-4.922-1.272h-3.4Z"/><path class="cls-2" d="M349.632,509.9a11.579,11.579,0,0,1,2.4.206l-.472,4.491a9.112,9.112,0,0,0-2.133-.246,6.175,6.175,0,0,0-4.686,1.886,6.818,6.818,0,0,0-1.794,4.9V532.99h-4.82V510.309H341.9l.636,4h.246a8.99,8.99,0,0,1,2.942-3.22A7,7,0,0,1,349.632,509.9Z"/><path class="cls-2" d="M376.354,521.608q0,5.558-2.851,8.675a10.212,10.212,0,0,1-7.936,3.117,10.874,10.874,0,0,1-5.619-1.435,9.477,9.477,0,0,1-3.753-4.122,14.04,14.04,0,0,1-1.313-6.235q0-5.515,2.83-8.613t7.978-3.1a10,10,0,0,1,7.793,3.168A12.244,12.244,0,0,1,376.354,521.608Zm-16.509,0q0,7.856,5.8,7.855,5.742,0,5.742-7.855,0-7.771-5.783-7.772a4.933,4.933,0,0,0-4.4,2.01A10.227,10.227,0,0,0,359.845,521.608Z"/><path class="cls-2" d="M387.059,532.99l-8.613-22.681h5.086l4.614,13.186a26.2,26.2,0,0,1,1.436,5.373h.164a36.069,36.069,0,0,1,1.435-5.373l4.614-13.186h5.127l-8.654,22.681Z"/><path class="cls-2" d="M404.081,504.3a2.668,2.668,0,0,1,.707-1.989,2.761,2.761,0,0,1,2.021-.7,2.7,2.7,0,0,1,1.979.7,2.668,2.668,0,0,1,.707,1.989,2.622,2.622,0,0,1-.707,1.938,2.681,2.681,0,0,1-1.979.707,2.74,2.74,0,0,1-2.021-.707A2.622,2.622,0,0,1,404.081,504.3Zm5.107,28.69h-4.82V510.309h4.82Z"/><path class="cls-2" d="M423.728,533.4a7.9,7.9,0,0,1-6.624-3.076q-2.379-3.076-2.379-8.634,0-5.577,2.41-8.684a7.972,7.972,0,0,1,6.675-3.108,7.819,7.819,0,0,1,6.808,3.3h.246a28.94,28.94,0,0,1-.348-3.855V501.08h4.839v31.91h-3.773l-.841-2.973h-.225A7.706,7.706,0,0,1,423.728,533.4Zm1.292-3.9a5.244,5.244,0,0,0,4.327-1.672q1.353-1.669,1.394-5.424v-.677q0-4.285-1.394-6.09a5.174,5.174,0,0,0-4.368-1.8,4.432,4.432,0,0,0-3.917,2.06,10.566,10.566,0,0,0-1.374,5.876,10.3,10.3,0,0,0,1.333,5.753A4.5,4.5,0,0,0,425.02,529.5Z"/><path class="cls-2" d="M452.151,533.4q-5.291,0-8.274-3.086t-2.984-8.5q0-5.558,2.768-8.736a9.564,9.564,0,0,1,7.609-3.179,9.346,9.346,0,0,1,7.1,2.728,10.419,10.419,0,0,1,2.605,7.506v2.6H445.855a7.452,7.452,0,0,0,1.785,5.076,6.212,6.212,0,0,0,4.737,1.774,17.475,17.475,0,0,0,3.742-.379,19.63,19.63,0,0,0,3.723-1.262v3.917a14.8,14.8,0,0,1-3.569,1.19A21.917,21.917,0,0,1,452.151,533.4Zm-.881-19.851a4.843,4.843,0,0,0-3.682,1.456,6.941,6.941,0,0,0-1.65,4.245h10.294a6.28,6.28,0,0,0-1.353-4.256A4.631,4.631,0,0,0,451.27,513.549Z"/><path class="cls-2" d="M477.95,509.9a11.579,11.579,0,0,1,2.4.206l-.472,4.491a9.118,9.118,0,0,0-2.133-.246,6.173,6.173,0,0,0-4.686,1.886,6.818,6.818,0,0,0-1.794,4.9V532.99h-4.82V510.309h3.774l.635,4h.247a8.99,8.99,0,0,1,2.942-3.22A7,7,0,0,1,477.95,509.9Z"/><path class="cls-2" d="M499.791,526.53a5.937,5.937,0,0,1-2.42,5.1q-2.419,1.774-6.932,1.773a16.374,16.374,0,0,1-7.28-1.374v-4.163a17.869,17.869,0,0,0,7.445,1.846q4.449,0,4.45-2.687a2.128,2.128,0,0,0-.492-1.435,5.857,5.857,0,0,0-1.621-1.19A27.8,27.8,0,0,0,489.8,523a14.514,14.514,0,0,1-5.3-3.035,5.611,5.611,0,0,1-1.385-3.938,5.172,5.172,0,0,1,2.348-4.522,11.152,11.152,0,0,1,6.388-1.61,18.079,18.079,0,0,1,7.568,1.621l-1.559,3.629a16.842,16.842,0,0,0-6.173-1.517q-3.815,0-3.814,2.174a2.185,2.185,0,0,0,.994,1.8,21.847,21.847,0,0,0,4.338,2.031,19.784,19.784,0,0,1,4.081,1.989,5.939,5.939,0,0,1,1.887,2.082A6.024,6.024,0,0,1,499.791,526.53Z"/><g id="Contract_icon" data-name="Contract icon"><path class="cls-3" d="M482.642,335.046c-.14,3.021-.229,5.835-.432,8.641-.285,3.949-4.251,6.074-7.817,6.068q-29.911-.048-59.822-.015-44.919,0-89.838.039a8.2,8.2,0,0,1-8.025-7.93q.235-93.616.109-187.233c0-3.834,2.408-6.136,6.2-6.412,25.2-1.836,50.427-.5,75.639-.757,25.256-.254,50.517-.158,75.774.024,5.6.04,8.136,2.693,8.157,8.142.118,30.786.061,61.571.039,92.357,0,.922-.341,1.841-.364,2.766a1.4,1.4,0,0,0,.634,1.127,1.475,1.475,0,0,0,1.236-.418c1.625-1.682,3.131-3.481,4.78-5.14q10.726-10.794,21.509-21.533c1.972-1.975,4.126-3.336,7.128-3.137,1.329.089,2.695-.672,4.058-.737a3.056,3.056,0,0,1,2.77,4.239c-.494,1.416-.49,3.018-1.059,4.391-.767,1.851-1.527,3.9-2.886,5.281Q502.24,253.276,483.8,271.5a3.661,3.661,0,0,0-1.189,2.89c.039,20.148.028,40.3.028,60.654M330.671,245.417q0,43.545,0,87.091c0,2.579.381,2.958,2.9,2.958h56.031q38.089,0,76.178.02c1.635,0,2.609-.335,2.6-2.246-.035-14.62-.014-29.24-.042-43.86a6.076,6.076,0,0,0-.5-1.67,6.227,6.227,0,0,0-1.443.85c-1.963,2.036-3.806,4.192-5.821,6.173-2.168,2.13-4.4,4.176-7.87,3.86-.689-.063-1.541.683-2.178,1.222-1.573,1.327-2.989,2.85-4.615,4.1a2.944,2.944,0,0,1-4.049-.306c-1.075-1.125-2.1-2.6-.579-4.252,1.3-1.412,2.669-2.778,3.829-4.3.775-1.018,1.76-2.281,1.742-3.42-.047-3,1.561-4.9,3.474-6.794,5.516-5.466,10.974-10.989,16.5-16.449a4.895,4.895,0,0,0,1.572-3.776q-.059-50.051-.03-100.1c0-2.675-.176-2.856-2.8-2.856H333.364c-2.463,0-2.693.236-2.693,2.747Z"/><path class="cls-3" d="M494.712,274.489a3.265,3.265,0,0,1-3.98-1.875,4.214,4.214,0,0,1,1.082-4.51c9.53-9.441,18.977-18.967,28.507-28.408,1.023-1.014,2.23-2.191,4-1.3,1.57.788,2.849,1.839,2.353,3.781a6.18,6.18,0,0,1-1.547,2.691Q511.1,259,496.971,273.033A15.1,15.1,0,0,1,494.712,274.489Z"/><path class="cls-4" d="M348.408,191.786c-2.051-.669-3.257-2.2-3.041-3.853a4.419,4.419,0,0,1,3.839-3.219q50.271.081,100.542.045c2.177,0,3.943,1.427,3.955,3.052a3.986,3.986,0,0,1-3.6,4.071,11.779,11.779,0,0,1-1.468.009Q398.574,191.891,348.408,191.786Z"/><path class="cls-4" d="M373.911,225.056c25.315,0,50.419,0,75.524,0,1.764,0,3.411.268,4.081,2.18a3.325,3.325,0,0,1-1.36,4.1,5.305,5.305,0,0,1-2.779.828q-49.615.061-99.229-.05a5.865,5.865,0,0,1-4.247-1.985c-1.56-2.249.521-5.058,3.465-5.063C357.478,225.047,365.589,225.056,373.911,225.056Z"/><path class="cls-4" d="M411.274,212.042c-20.559,0-40.908,0-61.258-.007-1.809,0-3.4-.466-4.238-2.319-1.253-2.754,1.077-4.474,3.3-4.8a7.182,7.182,0,0,1,1.048-.007q49.406,0,98.81,0c1.7,0,3.469.111,4.279,1.808,1.348,2.823-.264,5.279-4.389,5.315-7.132.062-14.265.017-21.4.017Z"/><path class="cls-4" d="M421.35,245.207c9.585,0,18.96,0,28.335,0,2.656,0,4.015,1.165,3.99,3.413-.024,2.127-1.4,3.3-3.889,3.3q-50.268,0-100.536,0c-2.367,0-3.838-1.258-3.886-3.307-.05-2.153,1.419-3.409,3.994-3.409Z"/><path class="cls-4" d="M365.515,264.938c8.247,0,16.284-.032,24.32.038a9.565,9.565,0,0,1,3.2.849,2.852,2.852,0,0,1,1.789,3.758,3.473,3.473,0,0,1-3.6,2.536c-7.547-.11-15.095-.044-22.643-.044q-9.645,0-19.289,0a3.943,3.943,0,0,1-3.931-3.291c-.159-1.817.87-3.176,3.137-3.377,3.63-.321,7.287-.353,10.934-.458C361.39,264.892,363.348,264.938,365.515,264.938Z"/><path class="cls-4" d="M420.615,305.345c4.021-.105,7.937-.146,11.851-.086a27.6,27.6,0,0,1,5.062.443c1.712.349,2.137,1.916,2.258,3.4.114,1.381-1.765,3.242-3.281,3.256q-8.6.079-17.2,0a3.857,3.857,0,0,1-3.413-3.583c.02-1.784,1.4-3.026,3.446-3.122A4.462,4.462,0,0,0,420.615,305.345Z"/></g><g class="cls-5"><path class="cls-6" d="M594.057,402.968c0,14.474-84.554,26.195-188.86,26.195s-188.868-11.721-188.868-26.195c0-14.444,84.566-26.159,188.868-26.159S594.057,388.524,594.057,402.968Z"/><path class="cls-7" d="M593.45,402.985c0,14.427-84.282,26.111-188.253,26.111s-188.261-11.684-188.261-26.111c0-14.4,84.294-26.075,188.261-26.075S593.45,388.588,593.45,402.985Z"/><path class="cls-8" d="M592.843,403c0,14.381-84.01,26.026-187.646,26.026S217.544,417.383,217.544,403c0-14.351,84.022-25.992,187.653-25.992S592.843,388.651,592.843,403Z"/><path class="cls-9" d="M592.235,403.019c0,14.334-83.738,25.942-187.038,25.942s-187.046-11.608-187.046-25.942c0-14.305,83.75-25.908,187.046-25.908S592.235,388.714,592.235,403.019Z"/><path class="cls-10" d="M591.628,403.035c0,14.288-83.466,25.858-186.431,25.858s-186.439-11.57-186.439-25.858c0-14.258,83.478-25.823,186.439-25.823S591.628,388.777,591.628,403.035Z"/><path class="cls-11" d="M591.021,403.052c0,14.241-83.194,25.774-185.824,25.774s-185.832-11.533-185.832-25.774c0-14.212,83.207-25.739,185.832-25.739S591.021,388.84,591.021,403.052Z"/><path class="cls-12" d="M590.413,403.069c0,14.194-82.922,25.689-185.216,25.689s-185.224-11.5-185.224-25.689c0-14.166,82.934-25.655,185.224-25.655S590.413,388.9,590.413,403.069Z"/><path class="cls-13" d="M589.806,403.086c0,14.148-82.65,25.6-184.609,25.6s-184.617-11.457-184.617-25.6c0-14.12,82.663-25.571,184.617-25.571S589.806,388.966,589.806,403.086Z"/><path class="cls-14" d="M589.2,403.1c0,14.1-82.379,25.521-184,25.521S221.187,417.2,221.187,403.1c0-14.072,82.391-25.486,184.01-25.486S589.2,389.03,589.2,403.1Z"/><path class="cls-15" d="M588.591,403.119c0,14.055-82.106,25.437-183.394,25.437s-183.4-11.382-183.4-25.437c0-14.026,82.119-25.4,183.4-25.4S588.591,389.093,588.591,403.119Z"/><path class="cls-16" d="M587.984,403.136c0,14.008-81.834,25.352-182.787,25.352s-182.8-11.344-182.8-25.352c0-13.98,81.848-25.319,182.8-25.319S587.984,389.156,587.984,403.136Z"/><path class="cls-17" d="M587.377,403.153c0,13.961-81.563,25.268-182.18,25.268s-182.188-11.307-182.188-25.268c0-13.934,81.575-25.235,182.188-25.235S587.377,389.219,587.377,403.153Z"/><path class="cls-18" d="M586.77,403.169c0,13.915-81.291,25.184-181.573,25.184s-181.581-11.269-181.581-25.184c0-13.887,81.3-25.15,181.581-25.15S586.77,389.282,586.77,403.169Z"/><path class="cls-19" d="M586.162,403.186c0,13.869-81.018,25.1-180.965,25.1s-180.974-11.231-180.974-25.1c0-13.841,81.032-25.066,180.974-25.066S586.162,389.345,586.162,403.186Z"/><path class="cls-20" d="M585.555,403.2c0,13.822-80.747,25.016-180.358,25.016S224.83,417.025,224.83,403.2c0-13.795,80.76-24.982,180.367-24.982S585.555,389.408,585.555,403.2Z"/><path class="cls-21" d="M584.948,403.22c0,13.775-80.475,24.931-179.751,24.931S225.438,417,225.438,403.22c0-13.748,80.488-24.9,179.759-24.9S584.948,389.472,584.948,403.22Z"/><path class="cls-22" d="M584.34,403.236c0,13.729-80.2,24.848-179.143,24.848s-179.152-11.119-179.152-24.848c0-13.7,80.216-24.813,179.152-24.813S584.34,389.535,584.34,403.236Z"/><path class="cls-23" d="M583.733,403.253c0,13.682-79.931,24.763-178.536,24.763s-178.545-11.081-178.545-24.763c0-13.655,79.944-24.729,178.545-24.729S583.733,389.6,583.733,403.253Z"/><path class="cls-24" d="M583.126,403.27c0,13.636-79.659,24.679-177.929,24.679S227.259,416.906,227.259,403.27c0-13.609,79.673-24.646,177.938-24.646S583.126,389.661,583.126,403.27Z"/><path class="cls-25" d="M582.518,403.287c0,13.589-79.386,24.594-177.321,24.594s-177.331-11-177.331-24.594c0-13.563,79.4-24.562,177.331-24.562S582.518,389.724,582.518,403.287Z"/><path class="cls-26" d="M581.911,403.3c0,13.543-79.115,24.511-176.714,24.511S228.474,416.846,228.474,403.3c0-13.516,79.128-24.477,176.723-24.477S581.911,389.787,581.911,403.3Z"/><path class="cls-27" d="M581.3,403.32c0,13.5-78.843,24.426-176.107,24.426s-176.116-10.93-176.116-24.426c0-13.47,78.857-24.393,176.116-24.393S581.3,389.85,581.3,403.32Z"/><path class="cls-28" d="M580.7,403.337c0,13.449-78.572,24.342-175.5,24.342s-175.509-10.893-175.509-24.342c0-13.423,78.585-24.309,175.509-24.309S580.7,389.914,580.7,403.337Z"/><path class="cls-29" d="M580.089,403.354c0,13.4-78.3,24.257-174.892,24.257s-174.9-10.854-174.9-24.257c0-13.377,78.314-24.225,174.9-24.225S580.089,389.977,580.089,403.354Z"/><path class="cls-30" d="M579.482,403.37c0,13.357-78.027,24.174-174.285,24.174S230.9,416.727,230.9,403.37c0-13.33,78.041-24.14,174.294-24.14S579.482,390.04,579.482,403.37Z"/><path class="cls-31" d="M578.875,403.387c0,13.31-77.756,24.089-173.678,24.089S231.51,416.7,231.51,403.387c0-13.284,77.769-24.056,173.687-24.056S578.875,390.1,578.875,403.387Z"/><path class="cls-32" d="M578.267,403.4c0,13.263-77.483,24-173.07,24s-173.08-10.742-173.08-24c0-13.238,77.5-23.973,173.08-23.973S578.267,390.166,578.267,403.4Z"/><path class="cls-33" d="M577.66,403.421c0,13.216-77.211,23.92-172.463,23.92s-172.473-10.7-172.473-23.92c0-13.192,77.226-23.889,172.473-23.889S577.66,390.229,577.66,403.421Z"/><path class="cls-34" d="M577.053,403.437c0,13.17-76.94,23.837-171.856,23.837s-171.865-10.667-171.865-23.837c0-13.145,76.953-23.8,171.865-23.8S577.053,390.292,577.053,403.437Z"/><path class="cls-35" d="M576.445,403.454c0,13.124-76.667,23.752-171.248,23.752s-171.258-10.628-171.258-23.752c0-13.1,76.682-23.72,171.258-23.72S576.445,390.356,576.445,403.454Z"/><path class="cls-36" d="M575.838,403.471c0,13.077-76.395,23.668-170.641,23.668s-170.651-10.591-170.651-23.668c0-13.052,76.41-23.636,170.651-23.636S575.838,390.419,575.838,403.471Z"/><path class="cls-37" d="M575.231,403.488c0,13.03-76.124,23.583-170.034,23.583s-170.044-10.553-170.044-23.583c0-13.006,76.139-23.552,170.044-23.552S575.231,390.482,575.231,403.488Z"/><path class="cls-38" d="M574.623,403.505c0,12.983-75.851,23.5-169.426,23.5s-169.437-10.516-169.437-23.5c0-12.96,75.867-23.468,169.437-23.468S574.623,390.545,574.623,403.505Z"/><path class="cls-39" d="M574.016,403.521c0,12.937-75.579,23.415-168.819,23.415s-168.829-10.478-168.829-23.415c0-12.913,75.594-23.383,168.829-23.383S574.016,390.608,574.016,403.521Z"/><path class="cls-40" d="M573.409,403.538c0,12.891-75.308,23.331-168.212,23.331s-168.222-10.44-168.222-23.331c0-12.867,75.323-23.3,168.222-23.3S573.409,390.671,573.409,403.538Z"/><path class="cls-41" d="M572.8,403.555c0,12.844-75.036,23.246-167.6,23.246s-167.615-10.4-167.615-23.246c0-12.821,75.051-23.216,167.615-23.216S572.8,390.734,572.8,403.555Z"/><path class="cls-42" d="M572.194,403.572c0,12.8-74.764,23.162-167,23.162s-167.008-10.365-167.008-23.162c0-12.775,74.779-23.132,167.008-23.132S572.194,390.8,572.194,403.572Z"/><path class="cls-43" d="M571.587,403.588c0,12.751-74.492,23.078-166.39,23.078s-166.4-10.327-166.4-23.078c0-12.727,74.507-23.047,166.4-23.047S571.587,390.861,571.587,403.588Z"/><path class="cls-44" d="M570.98,403.605c0,12.7-74.22,22.994-165.783,22.994S239.4,416.309,239.4,403.605c0-12.681,74.235-22.963,165.793-22.963S570.98,390.924,570.98,403.605Z"/><path class="cls-45" d="M570.372,403.622c0,12.657-73.948,22.91-165.175,22.91s-165.186-10.253-165.186-22.91c0-12.635,73.964-22.879,165.186-22.879S570.372,390.987,570.372,403.622Z"/><path class="cls-46" d="M569.765,403.639c0,12.611-73.676,22.825-164.568,22.825S240.618,416.25,240.618,403.639c0-12.589,73.692-22.8,164.579-22.8S569.765,391.05,569.765,403.639Z"/><path class="cls-47" d="M569.158,403.655c0,12.565-73.4,22.742-163.961,22.742S241.226,416.22,241.226,403.655c0-12.542,73.419-22.71,163.971-22.71S569.158,391.113,569.158,403.655Z"/><path class="cls-48" d="M568.55,403.672c0,12.518-73.132,22.657-163.353,22.657S241.833,416.19,241.833,403.672c0-12.5,73.148-22.626,163.364-22.626S568.55,391.176,568.55,403.672Z"/><path class="cls-49" d="M567.943,403.689c0,12.471-72.86,22.573-162.746,22.573S242.44,416.16,242.44,403.689c0-12.45,72.876-22.543,162.757-22.543S567.943,391.239,567.943,403.689Z"/><path class="cls-50" d="M567.336,403.706c0,12.424-72.588,22.488-162.139,22.488s-162.15-10.064-162.15-22.488c0-12.4,72.6-22.459,162.15-22.459S567.336,391.3,567.336,403.706Z"/><path class="cls-51" d="M566.728,403.722c0,12.379-72.316,22.405-161.531,22.405S243.654,416.1,243.654,403.722c0-12.356,72.333-22.374,161.543-22.374S566.728,391.366,566.728,403.722Z"/><path class="cls-52" d="M566.121,403.739c0,12.332-72.044,22.32-160.924,22.32s-160.935-9.988-160.935-22.32c0-12.31,72.06-22.29,160.935-22.29S566.121,391.429,566.121,403.739Z"/><path class="cls-53" d="M565.514,403.756c0,12.285-71.772,22.236-160.317,22.236s-160.328-9.951-160.328-22.236c0-12.264,71.789-22.206,160.328-22.206S565.514,391.492,565.514,403.756Z"/><path class="cls-54" d="M564.907,403.773c0,12.238-71.5,22.151-159.71,22.151s-159.721-9.913-159.721-22.151c0-12.218,71.517-22.122,159.721-22.122S564.907,391.555,564.907,403.773Z"/><path class="cls-55" d="M564.3,403.789c0,12.192-71.228,22.068-159.1,22.068s-159.114-9.876-159.114-22.068c0-12.171,71.245-22.037,159.114-22.037S564.3,391.618,564.3,403.789Z"/><path class="cls-56" d="M563.692,403.806c0,12.145-70.956,21.983-158.495,21.983s-158.506-9.838-158.506-21.983c0-12.125,70.973-21.953,158.506-21.953S563.692,391.681,563.692,403.806Z"/><path class="cls-57" d="M563.085,403.823c0,12.1-70.685,21.9-157.888,21.9s-157.9-9.8-157.9-21.9c0-12.078,70.7-21.87,157.9-21.87S563.085,391.745,563.085,403.823Z"/><path class="cls-58" d="M562.477,403.84c0,12.052-70.412,21.814-157.28,21.814s-157.292-9.762-157.292-21.814c0-12.032,70.429-21.786,157.292-21.786S562.477,391.808,562.477,403.84Z"/><path class="cls-59" d="M561.87,403.856c0,12.006-70.141,21.731-156.673,21.731s-156.685-9.725-156.685-21.731c0-11.985,70.158-21.7,156.685-21.7S561.87,391.871,561.87,403.856Z"/><path class="cls-60" d="M561.263,403.873c0,11.959-69.869,21.646-156.066,21.646s-156.078-9.687-156.078-21.646c0-11.939,69.886-21.617,156.078-21.617S561.263,391.934,561.263,403.873Z"/><path class="cls-61" d="M560.655,403.89c0,11.912-69.6,21.562-155.458,21.562s-155.47-9.65-155.47-21.562c0-11.893,69.614-21.533,155.47-21.533S560.655,392,560.655,403.89Z"/><path class="cls-62" d="M560.048,403.907c0,11.866-69.325,21.477-154.851,21.477s-154.863-9.611-154.863-21.477c0-11.847,69.342-21.449,154.863-21.449S560.048,392.06,560.048,403.907Z"/><path class="cls-63" d="M559.441,403.923c0,11.82-69.053,21.394-154.244,21.394s-154.256-9.574-154.256-21.394c0-11.8,69.07-21.364,154.256-21.364S559.441,392.123,559.441,403.923Z"/><path class="cls-64" d="M558.834,403.94c0,11.773-68.781,21.309-153.637,21.309s-153.649-9.536-153.649-21.309c0-11.753,68.8-21.28,153.649-21.28S558.834,392.187,558.834,403.94Z"/><path class="cls-65" d="M558.226,403.957c0,11.726-68.509,21.225-153.029,21.225s-153.041-9.5-153.041-21.225c0-11.707,68.526-21.2,153.041-21.2S558.226,392.25,558.226,403.957Z"/><path class="cls-66" d="M557.619,403.974c0,11.679-68.237,21.14-152.422,21.14s-152.434-9.461-152.434-21.14c0-11.661,68.254-21.113,152.434-21.113S557.619,392.313,557.619,403.974Z"/><path class="cls-67" d="M557.012,403.991c0,11.632-67.965,21.056-151.815,21.056S253.37,415.623,253.37,403.991c0-11.615,67.983-21.029,151.827-21.029S557.012,392.376,557.012,403.991Z"/><path class="cls-68" d="M556.4,404.007c0,11.587-67.693,20.972-151.207,20.972s-151.22-9.385-151.22-20.972c0-11.568,67.711-20.944,151.22-20.944S556.4,392.439,556.4,404.007Z"/><path class="cls-69" d="M555.8,404.024c0,11.54-67.421,20.888-150.6,20.888s-150.612-9.348-150.612-20.888c0-11.522,67.439-20.86,150.612-20.86S555.8,392.5,555.8,404.024Z"/><path class="cls-70" d="M555.19,404.041c0,11.493-67.149,20.8-149.993,20.8s-150-9.311-150-20.8c0-11.476,67.167-20.776,150.005-20.776S555.19,392.565,555.19,404.041Z"/><path class="cls-71" d="M554.582,404.058c0,11.446-66.877,20.719-149.385,20.719S255.8,415.5,255.8,404.058c0-11.429,66.9-20.692,149.4-20.692S554.582,392.629,554.582,404.058Z"/><path class="cls-72" d="M553.975,404.074c0,11.4-66.605,20.636-148.778,20.636s-148.791-9.236-148.791-20.636c0-11.382,66.624-20.607,148.791-20.607S553.975,392.692,553.975,404.074Z"/><path class="cls-73" d="M553.368,404.091c0,11.354-66.334,20.551-148.171,20.551s-148.184-9.2-148.184-20.551c0-11.336,66.352-20.524,148.184-20.524S553.368,392.755,553.368,404.091Z"/><path class="cls-74" d="M552.76,404.108c0,11.307-66.061,20.467-147.563,20.467s-147.576-9.16-147.576-20.467c0-11.29,66.079-20.44,147.576-20.44S552.76,392.818,552.76,404.108Z"/><path class="cls-75" d="M552.153,404.125c0,11.26-65.789,20.382-146.956,20.382s-146.969-9.122-146.969-20.382c0-11.244,65.808-20.356,146.969-20.356S552.153,392.881,552.153,404.125Z"/><path class="cls-76" d="M551.546,404.141c0,11.214-65.518,20.3-146.349,20.3s-146.362-9.085-146.362-20.3c0-11.2,65.536-20.271,146.362-20.271S551.546,392.944,551.546,404.141Z"/><path class="cls-77" d="M550.939,404.158c0,11.167-65.246,20.214-145.742,20.214s-145.755-9.047-145.755-20.214c0-11.151,65.265-20.187,145.755-20.187S550.939,393.007,550.939,404.158Z"/><path class="cls-78" d="M550.331,404.175c0,11.12-64.973,20.13-145.134,20.13S260.05,415.3,260.05,404.175s64.992-20.1,145.147-20.1S550.331,393.07,550.331,404.175Z"/><path class="cls-79" d="M549.724,404.192c0,11.074-64.7,20.045-144.527,20.045s-144.54-8.971-144.54-20.045c0-11.058,64.72-20.019,144.54-20.019S549.724,393.134,549.724,404.192Z"/><path class="cls-80" d="M549.117,404.208c0,11.028-64.43,19.962-143.92,19.962s-143.933-8.934-143.933-19.962c0-11.011,64.449-19.934,143.933-19.934S549.117,393.2,549.117,404.208Z"/><path class="cls-81" d="M548.509,404.225c0,10.981-64.157,19.877-143.312,19.877s-143.326-8.9-143.326-19.877c0-10.965,64.177-19.851,143.326-19.851S548.509,393.26,548.509,404.225Z"/><path class="cls-82" d="M547.9,404.242c0,10.934-63.886,19.793-142.705,19.793s-142.719-8.859-142.719-19.793,63.9-19.767,142.719-19.767S547.9,393.323,547.9,404.242Z"/><path class="cls-83" d="M547.295,404.259c0,10.887-63.614,19.708-142.1,19.708s-142.111-8.821-142.111-19.708,63.633-19.683,142.111-19.683S547.295,393.386,547.295,404.259Z"/><path class="cls-84" d="M546.687,404.275c0,10.842-63.341,19.625-141.49,19.625s-141.5-8.783-141.5-19.625c0-10.826,63.361-19.6,141.5-19.6S546.687,393.449,546.687,404.275Z"/><path class="cls-85" d="M546.08,404.292c0,10.8-63.07,19.54-140.883,19.54s-140.9-8.745-140.9-19.54c0-10.78,63.09-19.514,140.9-19.514S546.08,393.512,546.08,404.292Z"/><path class="cls-86" d="M545.473,404.309c0,10.748-62.8,19.456-140.276,19.456s-140.29-8.708-140.29-19.456,62.818-19.43,140.29-19.43S545.473,393.576,545.473,404.309Z"/><path class="cls-87" d="M544.865,404.326c0,10.7-62.526,19.371-139.668,19.371s-139.682-8.67-139.682-19.371S328.06,384.98,405.2,384.98,544.865,393.639,544.865,404.326Z"/><path class="cls-88" d="M544.258,404.342C544.258,415,482,423.63,405.2,423.63S266.122,415,266.122,404.342c0-10.64,62.274-19.261,139.075-19.261S544.258,393.7,544.258,404.342Z"/><path class="cls-89" d="M543.651,404.359c0,10.608-61.982,19.2-138.454,19.2s-138.468-8.6-138.468-19.2,62-19.177,138.468-19.177S543.651,393.765,543.651,404.359Z"/><path class="cls-90" d="M543.044,404.376c0,10.562-61.711,19.119-137.847,19.119s-137.861-8.557-137.861-19.119,61.73-19.094,137.861-19.094S543.044,393.828,543.044,404.376Z"/><path class="cls-91" d="M542.436,404.393c0,10.515-61.438,19.034-137.239,19.034s-137.253-8.519-137.253-19.034,61.458-19.01,137.253-19.01S542.436,393.891,542.436,404.393Z"/><path class="cls-92" d="M541.829,404.409c0,10.469-61.166,18.951-136.632,18.951s-136.646-8.482-136.646-18.951,61.186-18.925,136.646-18.925S541.829,393.954,541.829,404.409Z"/><path class="cls-93" d="M541.222,404.426c0,10.422-60.895,18.867-136.025,18.867s-136.039-8.445-136.039-18.867,60.915-18.841,136.039-18.841S541.222,394.018,541.222,404.426Z"/><path class="cls-94" d="M540.614,404.443c0,10.375-60.622,18.782-135.417,18.782s-135.432-8.407-135.432-18.782,60.643-18.757,135.432-18.757S540.614,394.081,540.614,404.443Z"/><path class="cls-95" d="M540.007,404.46c0,10.329-60.35,18.7-134.81,18.7s-134.825-8.369-134.825-18.7,60.371-18.673,134.825-18.673S540.007,394.144,540.007,404.46Z"/><path class="cls-96" d="M539.4,404.477c0,10.282-60.079,18.613-134.2,18.613S270.98,414.759,270.98,404.477s60.1-18.589,134.217-18.589S539.4,394.207,539.4,404.477Z"/><path class="cls-97" d="M538.792,404.493c0,10.236-59.806,18.53-133.6,18.53s-133.61-8.294-133.61-18.53,59.827-18.5,133.61-18.5S538.792,394.27,538.792,404.493Z"/><path class="cls-98" d="M538.185,404.51c0,10.189-59.534,18.445-132.988,18.445s-133-8.256-133-18.445,59.555-18.421,133-18.421S538.185,394.333,538.185,404.51Z"/><path class="cls-99" d="M537.578,404.527c0,10.142-59.263,18.361-132.381,18.361s-132.4-8.219-132.4-18.361,59.284-18.337,132.4-18.337S537.578,394.4,537.578,404.527Z"/><path class="cls-100" d="M536.971,404.544c0,10.1-58.991,18.276-131.774,18.276s-131.788-8.18-131.788-18.276S332.42,386.291,405.2,386.291,536.971,394.46,536.971,404.544Z"/><path class="cls-101" d="M536.363,404.56c0,10.05-58.718,18.193-131.166,18.193S274.016,414.61,274.016,404.56s58.74-18.168,131.181-18.168S536.363,394.523,536.363,404.56Z"/><path class="cls-102" d="M535.756,404.577c0,10-58.447,18.108-130.559,18.108s-130.574-8.105-130.574-18.108,58.468-18.084,130.574-18.084S535.756,394.586,535.756,404.577Z"/><path class="cls-103" d="M535.149,404.594c0,9.956-58.175,18.024-129.952,18.024S275.23,414.55,275.23,404.594s58.2-18,129.967-18S535.149,394.649,535.149,404.594Z"/><path class="cls-104" d="M534.541,404.611c0,9.909-57.9,17.939-129.344,17.939s-129.359-8.03-129.359-17.939S333.762,386.7,405.2,386.7,534.541,394.712,534.541,404.611Z"/><path class="cls-105" d="M533.934,404.627c0,9.863-57.631,17.856-128.737,17.856s-128.752-7.993-128.752-17.856S334.1,386.8,405.2,386.8,533.934,394.775,533.934,404.627Z"/><path class="cls-106" d="M533.327,404.644c0,9.817-57.359,17.771-128.13,17.771s-128.145-7.954-128.145-17.771S334.432,386.9,405.2,386.9,533.327,394.838,533.327,404.644Z"/><path class="cls-107" d="M532.719,404.661c0,9.77-57.087,17.687-127.522,17.687s-127.538-7.917-127.538-17.687S334.768,387,405.2,387,532.719,394.9,532.719,404.661Z"/><path class="cls-108" d="M532.112,404.678c0,9.723-56.815,17.6-126.915,17.6s-126.931-7.879-126.931-17.6S335.1,387.1,405.2,387.1,532.112,394.965,532.112,404.678Z"/><path class="cls-109" d="M531.505,404.694c0,9.677-56.543,17.519-126.308,17.519s-126.323-7.842-126.323-17.519,56.565-17.5,126.323-17.5S531.505,395.028,531.505,404.694Z"/><path class="cls-110" d="M530.9,404.711c0,9.63-56.271,17.434-125.7,17.434s-125.716-7.8-125.716-17.434S335.774,387.3,405.2,387.3,530.9,395.091,530.9,404.711Z"/><path class="cls-111" d="M530.29,404.728c0,9.584-56,17.35-125.093,17.35s-125.109-7.766-125.109-17.35S336.109,387.4,405.2,387.4,530.29,395.154,530.29,404.728Z"/><path class="cls-112" d="M529.683,404.745c0,9.537-55.727,17.265-124.486,17.265s-124.5-7.728-124.5-17.265S336.445,387.5,405.2,387.5,529.683,395.217,529.683,404.745Z"/><path class="cls-113" d="M529.076,404.761c0,9.491-55.456,17.182-123.879,17.182S281.3,414.252,281.3,404.761,336.78,387.6,405.2,387.6,529.076,395.28,529.076,404.761Z"/><path class="cls-114" d="M528.468,404.778c0,9.444-55.183,17.1-123.271,17.1s-123.287-7.653-123.287-17.1S337.115,387.7,405.2,387.7,528.468,395.343,528.468,404.778Z"/><path class="cls-115" d="M527.861,404.8c0,9.4-54.911,17.013-122.664,17.013s-122.68-7.616-122.68-17.013S337.451,387.8,405.2,387.8,527.861,395.407,527.861,404.8Z"/><path class="cls-116" d="M527.254,404.812c0,9.35-54.64,16.928-122.057,16.928s-122.073-7.578-122.073-16.928,54.662-16.907,122.073-16.907S527.254,395.47,527.254,404.812Z"/><path class="cls-117" d="M526.646,404.828c0,9.305-54.367,16.845-121.449,16.845s-121.466-7.54-121.466-16.845,54.391-16.822,121.466-16.822S526.646,395.533,526.646,404.828Z"/><path class="cls-118" d="M526.039,404.845c0,9.258-54.1,16.761-120.842,16.761s-120.858-7.5-120.858-16.761,54.118-16.738,120.858-16.738S526.039,395.6,526.039,404.845Z"/><path class="cls-119" d="M525.432,404.862c0,9.211-53.824,16.676-120.235,16.676s-120.251-7.465-120.251-16.676,53.846-16.654,120.251-16.654S525.432,395.659,525.432,404.862Z"/><path class="cls-120" d="M524.824,404.879c0,9.164-53.551,16.592-119.627,16.592s-119.644-7.428-119.644-16.592,53.575-16.57,119.644-16.57S524.824,395.722,524.824,404.879Z"/><path class="cls-121" d="M524.217,404.9c0,9.118-53.28,16.508-119.02,16.508S286.16,414.013,286.16,404.9s53.3-16.485,119.037-16.485S524.217,395.785,524.217,404.9Z"/><path class="cls-122" d="M523.61,404.912c0,9.072-53.008,16.424-118.413,16.424s-118.429-7.352-118.429-16.424,53.03-16.4,118.429-16.4S523.61,395.849,523.61,404.912Z"/><path class="cls-123" d="M523,404.929c0,9.025-52.735,16.339-117.8,16.339s-117.822-7.314-117.822-16.339,52.759-16.318,117.822-16.318S523,395.912,523,404.929Z"/><path class="cls-124" d="M522.4,404.946c0,8.978-52.464,16.255-117.2,16.255s-117.215-7.277-117.215-16.255,52.487-16.234,117.215-16.234S522.4,395.975,522.4,404.946Z"/><path class="cls-125" d="M521.788,404.963c0,8.931-52.192,16.17-116.591,16.17s-116.608-7.239-116.608-16.17,52.216-16.15,116.608-16.15S521.788,396.038,521.788,404.963Z"/><path class="cls-126" d="M521.181,404.979c0,8.885-51.92,16.087-115.984,16.087s-116-7.2-116-16.087,51.943-16.065,116-16.065S521.181,396.1,521.181,404.979Z"/><path class="cls-127" d="M520.573,405c0,8.838-51.648,16-115.376,16S289.8,413.834,289.8,405s51.671-15.981,115.393-15.981S520.573,396.164,520.573,405Z"/><path class="cls-128" d="M519.966,405.013c0,8.792-51.376,15.918-114.769,15.918s-114.786-7.126-114.786-15.918,51.4-15.9,114.786-15.9S519.966,396.227,519.966,405.013Z"/><path class="cls-129" d="M519.359,405.03c0,8.745-51.1,15.833-114.162,15.833s-114.179-7.088-114.179-15.833,51.128-15.813,114.179-15.813S519.359,396.291,519.359,405.03Z"/><path class="cls-130" d="M518.751,405.046c0,8.7-50.832,15.75-113.554,15.75s-113.572-7.051-113.572-15.75,50.857-15.728,113.572-15.728S518.751,396.354,518.751,405.046Z"/><path class="cls-131" d="M518.144,405.063c0,8.652-50.56,15.665-112.947,15.665s-112.964-7.013-112.964-15.665,50.584-15.645,112.964-15.645S518.144,396.417,518.144,405.063Z"/><path class="cls-132" d="M517.537,405.08c0,8.605-50.289,15.581-112.34,15.581S292.84,413.685,292.84,405.08s50.312-15.561,112.357-15.561S517.537,396.48,517.537,405.08Z"/><path class="cls-133" d="M516.929,405.1c0,8.559-50.016,15.5-111.732,15.5s-111.75-6.937-111.75-15.5S343.488,389.62,405.2,389.62,516.929,396.543,516.929,405.1Z"/><path class="cls-134" d="M516.322,405.113c0,8.513-49.744,15.413-111.125,15.413s-111.143-6.9-111.143-15.413,49.769-15.392,111.143-15.392S516.322,396.606,516.322,405.113Z"/><path class="cls-135" d="M515.715,405.13c0,8.466-49.473,15.328-110.518,15.328S294.662,413.6,294.662,405.13s49.5-15.308,110.535-15.308S515.715,396.669,515.715,405.13Z"/><path class="cls-136" d="M515.108,405.147c0,8.419-49.2,15.244-109.911,15.244s-109.928-6.825-109.928-15.244,49.225-15.224,109.928-15.224S515.108,396.733,515.108,405.147Z"/><path class="cls-137" d="M514.5,405.164c0,8.372-48.928,15.159-109.3,15.159s-109.321-6.787-109.321-15.159,48.953-15.14,109.321-15.14S514.5,396.8,514.5,405.164Z"/><path class="cls-138" d="M513.893,405.18c0,8.326-48.657,15.076-108.7,15.076s-108.714-6.75-108.714-15.076,48.682-15.055,108.714-15.055S513.893,396.859,513.893,405.18Z"/><path class="cls-139" d="M513.286,405.2c0,8.28-48.385,14.991-108.089,14.991S297.091,413.477,297.091,405.2,345.5,390.225,405.2,390.225,513.286,396.922,513.286,405.2Z"/><path class="cls-140" d="M512.678,405.214c0,8.233-48.112,14.907-107.481,14.907s-107.5-6.674-107.5-14.907,48.137-14.888,107.5-14.888S512.678,396.985,512.678,405.214Z"/><path class="cls-141" d="M512.071,405.231c0,8.186-47.841,14.822-106.874,14.822s-106.892-6.636-106.892-14.822,47.866-14.8,106.892-14.8S512.071,397.048,512.071,405.231Z"/><path class="cls-142" d="M511.464,405.247c0,8.14-47.569,14.739-106.267,14.739s-106.285-6.6-106.285-14.739,47.594-14.719,106.285-14.719S511.464,397.111,511.464,405.247Z"/><path class="cls-143" d="M510.856,405.264c0,8.093-47.3,14.655-105.659,14.655s-105.678-6.562-105.678-14.655,47.322-14.635,105.678-14.635S510.856,397.174,510.856,405.264Z"/><path class="cls-144" d="M510.249,405.281c0,8.047-47.025,14.57-105.052,14.57s-105.07-6.523-105.07-14.57,47.05-14.551,105.07-14.551S510.249,397.238,510.249,405.281Z"/><path class="cls-145" d="M509.642,405.3c0,8-46.753,14.486-104.445,14.486S300.734,413.3,300.734,405.3s46.778-14.467,104.463-14.467S509.642,397.3,509.642,405.3Z"/><path class="cls-146" d="M509.034,405.314c0,7.954-46.48,14.4-103.837,14.4s-103.856-6.448-103.856-14.4,46.507-14.382,103.856-14.382S509.034,397.364,509.034,405.314Z"/><path class="cls-147" d="M508.427,405.331c0,7.907-46.209,14.318-103.23,14.318s-103.249-6.411-103.249-14.318,46.235-14.3,103.249-14.3S508.427,397.427,508.427,405.331Z"/><path class="cls-148" d="M507.82,405.348c0,7.86-45.937,14.233-102.623,14.233s-102.641-6.373-102.641-14.233,45.962-14.215,102.641-14.215S507.82,397.49,507.82,405.348Z"/><path class="cls-149" d="M507.213,405.365c0,7.813-45.666,14.149-102.016,14.149s-102.034-6.336-102.034-14.149,45.691-14.131,102.034-14.131S507.213,397.553,507.213,405.365Z"/><path class="cls-150" d="M506.605,405.381c0,7.768-45.393,14.065-101.408,14.065s-101.427-6.3-101.427-14.065,45.419-14.046,101.427-14.046S506.605,397.616,506.605,405.381Z"/><path class="cls-151" d="M506,405.4c0,7.721-45.121,13.981-100.8,13.981s-100.82-6.26-100.82-13.981,45.147-13.962,100.82-13.962S506,397.68,506,405.4Z"/><path class="cls-152" d="M505.391,405.415c0,7.674-44.85,13.9-100.194,13.9s-100.213-6.222-100.213-13.9S349.86,391.537,405.2,391.537,505.391,397.743,505.391,405.415Z"/><path class="cls-153" d="M504.783,405.432c0,7.627-44.577,13.812-99.586,13.812s-99.605-6.185-99.605-13.812,44.6-13.794,99.605-13.794S504.783,397.806,504.783,405.432Z"/><path class="cls-154" d="M504.176,405.449c0,7.58-44.305,13.727-98.979,13.727s-99-6.147-99-13.727,44.332-13.71,99-13.71S504.176,397.869,504.176,405.449Z"/><path class="cls-155" d="M503.569,405.465c0,7.535-44.034,13.644-98.372,13.644S306.806,413,306.806,405.465s44.06-13.626,98.391-13.626S503.569,397.932,503.569,405.465Z"/><path class="cls-156" d="M502.961,405.482c0,7.488-43.761,13.559-97.764,13.559s-97.784-6.071-97.784-13.559S351.2,391.94,405.2,391.94,502.961,398,502.961,405.482Z"/><path class="cls-157" d="M502.354,405.5c0,7.441-43.489,13.475-97.157,13.475s-97.176-6.034-97.176-13.475,43.516-13.458,97.176-13.458S502.354,398.058,502.354,405.5Z"/><path class="cls-158" d="M501.747,405.516c0,7.394-43.218,13.39-96.55,13.39s-96.569-6-96.569-13.39,43.244-13.374,96.569-13.374S501.747,398.122,501.747,405.516Z"/><path class="cls-159" d="M501.139,405.532c0,7.348-42.945,13.307-95.942,13.307s-95.962-5.959-95.962-13.307,42.972-13.289,95.962-13.289S501.139,398.185,501.139,405.532Z"/><path class="cls-160" d="M500.532,405.549c0,7.3-42.673,13.222-95.335,13.222s-95.355-5.921-95.355-13.222,42.7-13.2,95.355-13.2S500.532,398.248,500.532,405.549Z"/><path class="cls-161" d="M499.925,405.566c0,7.255-42.4,13.138-94.728,13.138s-94.747-5.883-94.747-13.138,42.428-13.121,94.747-13.121S499.925,398.311,499.925,405.566Z"/><path class="cls-162" d="M499.318,405.583c0,7.208-42.13,13.053-94.121,13.053s-94.14-5.845-94.14-13.053,42.157-13.037,94.14-13.037S499.318,398.374,499.318,405.583Z"/><path class="cls-163" d="M498.71,405.6c0,7.162-41.858,12.97-93.513,12.97s-93.533-5.808-93.533-12.97,41.885-12.953,93.533-12.953S498.71,398.437,498.71,405.6Z"/><path class="cls-164" d="M498.1,405.616c0,7.115-41.586,12.885-92.906,12.885s-92.926-5.77-92.926-12.885,41.613-12.869,92.926-12.869S498.1,398.5,498.1,405.616Z"/><path class="cls-165" d="M497.5,405.633c0,7.068-41.314,12.8-92.3,12.8s-92.319-5.733-92.319-12.8,41.342-12.785,92.319-12.785S497.5,398.564,497.5,405.633Z"/><path class="cls-166" d="M496.888,405.65c0,7.022-41.042,12.716-91.691,12.716s-91.711-5.694-91.711-12.716,41.069-12.7,91.711-12.7S496.888,398.627,496.888,405.65Z"/><path class="cls-167" d="M496.281,405.666c0,6.976-40.77,12.633-91.084,12.633s-91.1-5.657-91.1-12.633,40.8-12.616,91.1-12.616S496.281,398.69,496.281,405.666Z"/><path class="cls-168" d="M495.674,405.683c0,6.929-40.5,12.549-90.477,12.549s-90.5-5.62-90.5-12.549,40.526-12.532,90.5-12.532S495.674,398.753,495.674,405.683Z"/><path class="cls-169" d="M495.066,405.7c0,6.882-40.226,12.464-89.869,12.464s-89.89-5.582-89.89-12.464,40.254-12.448,89.89-12.448S495.066,398.816,495.066,405.7Z"/><path class="cls-170" d="M494.459,405.717c0,6.835-39.954,12.38-89.262,12.38s-89.282-5.545-89.282-12.38S355.9,393.353,405.2,393.353,494.459,398.879,494.459,405.717Z"/><path class="cls-171" d="M493.852,405.733c0,6.789-39.682,12.3-88.655,12.3s-88.675-5.507-88.675-12.3,39.71-12.279,88.675-12.279S493.852,398.942,493.852,405.733Z"/><path class="cls-172" d="M493.244,405.75c0,6.743-39.41,12.212-88.047,12.212s-88.068-5.469-88.068-12.212,39.438-12.2,88.068-12.2S493.244,399.006,493.244,405.75Z"/><path class="cls-173" d="M492.637,405.767c0,6.7-39.138,12.127-87.44,12.127s-87.461-5.431-87.461-12.127S356.9,393.655,405.2,393.655,492.637,399.069,492.637,405.767Z"/><path class="cls-174" d="M492.03,405.784c0,6.649-38.866,12.043-86.833,12.043s-86.853-5.394-86.853-12.043,38.894-12.028,86.853-12.028S492.03,399.132,492.03,405.784Z"/><path class="cls-175" d="M491.423,405.8c0,6.6-38.6,11.959-86.226,11.959S318.951,412.4,318.951,405.8s38.622-11.943,86.246-11.943S491.423,399.2,491.423,405.8Z"/><path class="cls-176" d="M490.815,405.817c0,6.556-38.322,11.875-85.618,11.875s-85.639-5.319-85.639-11.875,38.351-11.859,85.639-11.859S490.815,399.258,490.815,405.817Z"/><path class="cls-177" d="M490.208,405.834c0,6.51-38.051,11.79-85.011,11.79s-85.032-5.28-85.032-11.79,38.079-11.775,85.032-11.775S490.208,399.321,490.208,405.834Z"/><path class="cls-178" d="M489.6,405.851c0,6.463-37.779,11.706-84.4,11.706s-84.425-5.243-84.425-11.706S358.58,394.16,405.2,394.16,489.6,399.384,489.6,405.851Z"/><path class="cls-179" d="M488.993,405.867c0,6.417-37.506,11.622-83.8,11.622s-83.817-5.2-83.817-11.622,37.535-11.606,83.817-11.606S488.993,399.447,488.993,405.867Z"/><path class="cls-180" d="M488.386,405.884c0,6.37-37.235,11.538-83.189,11.538s-83.21-5.168-83.21-11.538,37.263-11.523,83.21-11.523S488.386,399.511,488.386,405.884Z"/><path class="cls-181" d="M487.779,405.9c0,6.323-36.963,11.453-82.582,11.453s-82.6-5.13-82.6-11.453,36.992-11.439,82.6-11.439S487.779,399.574,487.779,405.9Z"/><path class="cls-182" d="M487.171,405.918c0,6.277-36.69,11.369-81.974,11.369s-82-5.092-82-11.369,36.72-11.355,82-11.355S487.171,399.637,487.171,405.918Z"/><path class="cls-183" d="M486.564,405.935c0,6.23-36.419,11.284-81.367,11.284s-81.388-5.054-81.388-11.284,36.447-11.271,81.388-11.271S486.564,399.7,486.564,405.935Z"/><path class="cls-184" d="M485.957,405.951c0,6.184-36.147,11.2-80.76,11.2s-80.781-5.017-80.781-11.2,36.176-11.186,80.781-11.186S485.957,399.763,485.957,405.951Z"/><path class="cls-185" d="M485.35,405.968c0,6.137-35.875,11.116-80.153,11.116s-80.174-4.979-80.174-11.116,35.9-11.1,80.174-11.1S485.35,399.826,485.35,405.968Z"/><path class="cls-186" d="M484.742,405.985c0,6.09-35.6,11.032-79.545,11.032s-79.567-4.942-79.567-11.032,35.633-11.018,79.567-11.018S484.742,399.889,484.742,405.985Z"/><path class="cls-187" d="M484.135,406c0,6.043-35.331,10.947-78.938,10.947s-78.96-4.9-78.96-10.947,35.361-10.934,78.96-10.934S484.135,399.953,484.135,406Z"/><path class="cls-188" d="M483.528,406.018c0,6-35.059,10.864-78.331,10.864s-78.352-4.866-78.352-10.864,35.088-10.85,78.352-10.85S483.528,400.016,483.528,406.018Z"/><path class="cls-189" d="M482.92,406.035c0,5.951-34.787,10.779-77.723,10.779s-77.745-4.828-77.745-10.779,34.817-10.766,77.745-10.766S482.92,400.079,482.92,406.035Z"/><path class="cls-190" d="M482.313,406.052c0,5.9-34.515,10.695-77.116,10.695s-77.138-4.791-77.138-10.695S362.6,395.37,405.2,395.37,482.313,400.142,482.313,406.052Z"/><path class="cls-191" d="M481.706,406.069c0,5.857-34.243,10.61-76.509,10.61s-76.531-4.753-76.531-10.61,34.273-10.6,76.531-10.6S481.706,400.205,481.706,406.069Z"/><path class="cls-192" d="M481.1,406.085c0,5.811-33.971,10.527-75.9,10.527s-75.923-4.716-75.923-10.527,34-10.513,75.923-10.513S481.1,400.268,481.1,406.085Z"/><path class="cls-193" d="M480.491,406.1c0,5.765-33.7,10.443-75.294,10.443s-75.316-4.678-75.316-10.443,33.729-10.429,75.316-10.429S480.491,400.331,480.491,406.1Z"/><path class="cls-194" d="M479.884,406.119c0,5.718-33.428,10.358-74.687,10.358s-74.709-4.64-74.709-10.358,33.458-10.345,74.709-10.345S479.884,400.4,479.884,406.119Z"/><path class="cls-195" d="M479.276,406.136c0,5.671-33.155,10.274-74.079,10.274s-74.1-4.6-74.1-10.274,33.186-10.261,74.1-10.261S479.276,400.458,479.276,406.136Z"/><path class="cls-196" d="M478.669,406.152c0,5.625-32.883,10.19-73.472,10.19s-73.494-4.565-73.494-10.19,32.913-10.177,73.494-10.177S478.669,400.521,478.669,406.152Z"/><path class="cls-197" d="M478.062,406.169c0,5.578-32.612,10.106-72.865,10.106s-72.887-4.528-72.887-10.106,32.642-10.093,72.887-10.093S478.062,400.584,478.062,406.169Z"/><path class="cls-198" d="M477.455,406.186c0,5.531-32.34,10.021-72.258,10.021s-72.28-4.49-72.28-10.021,32.37-10.009,72.28-10.009S477.455,400.647,477.455,406.186Z"/><path class="cls-199" d="M476.847,406.2c0,5.485-32.067,9.937-71.65,9.937s-71.673-4.452-71.673-9.937,32.1-9.925,71.673-9.925S476.847,400.71,476.847,406.2Z"/><path class="cls-200" d="M476.24,406.219c0,5.439-31.8,9.853-71.043,9.853s-71.066-4.414-71.066-9.853,31.827-9.84,71.066-9.84S476.24,400.773,476.24,406.219Z"/><path class="cls-201" d="M475.633,406.236c0,5.392-31.524,9.769-70.436,9.769s-70.458-4.377-70.458-9.769,31.554-9.756,70.458-9.756S475.633,400.837,475.633,406.236Z"/><path class="cls-202" d="M475.025,406.253c0,5.345-31.251,9.684-69.828,9.684s-69.851-4.339-69.851-9.684,31.283-9.672,69.851-9.672S475.025,400.9,475.025,406.253Z"/><path class="cls-203" d="M474.418,406.27c0,5.3-30.98,9.6-69.221,9.6s-69.244-4.3-69.244-9.6,31.011-9.588,69.244-9.588S474.418,400.963,474.418,406.27Z"/><path class="cls-204" d="M473.811,406.286c0,5.253-30.708,9.516-68.614,9.516s-68.637-4.263-68.637-9.516,30.739-9.5,68.637-9.5S473.811,401.026,473.811,406.286Z"/><path class="cls-205" d="M473.2,406.3c0,5.206-30.435,9.432-68.006,9.432s-68.029-4.226-68.029-9.432,30.467-9.42,68.029-9.42S473.2,401.089,473.2,406.3Z"/><path class="cls-206" d="M472.6,406.32c0,5.159-30.164,9.347-67.4,9.347s-67.422-4.188-67.422-9.347,30.2-9.336,67.422-9.336S472.6,401.152,472.6,406.32Z"/><path class="cls-207" d="M471.989,406.337c0,5.112-29.892,9.263-66.792,9.263s-66.815-4.151-66.815-9.263,29.923-9.252,66.815-9.252S471.989,401.215,471.989,406.337Z"/><path class="cls-208" d="M471.381,406.353c0,5.066-29.62,9.179-66.184,9.179s-66.208-4.113-66.208-9.179,29.652-9.167,66.208-9.167S471.381,401.278,471.381,406.353Z"/><path class="cls-209" d="M470.774,406.37c0,5.019-29.348,9.095-65.577,9.095s-65.6-4.076-65.6-9.095,29.379-9.083,65.6-9.083S470.774,401.342,470.774,406.37Z"/><path class="cls-210" d="M470.167,406.387c0,4.973-29.076,9.01-64.97,9.01s-64.993-4.037-64.993-9.01,29.108-9,64.993-9S470.167,401.405,470.167,406.387Z"/><path class="cls-211" d="M469.56,406.4c0,4.926-28.805,8.926-64.363,8.926s-64.386-4-64.386-8.926,28.836-8.915,64.386-8.915S469.56,401.468,469.56,406.4Z"/><path class="cls-212" d="M468.952,406.421c0,4.879-28.532,8.841-63.755,8.841s-63.779-3.962-63.779-8.841,28.564-8.831,63.779-8.831S468.952,401.531,468.952,406.421Z"/><path class="cls-213" d="M468.345,406.437c0,4.833-28.26,8.758-63.148,8.758s-63.172-3.925-63.172-8.758,28.293-8.747,63.172-8.747S468.345,401.594,468.345,406.437Z"/><path class="cls-214" d="M467.738,406.454c0,4.786-27.989,8.673-62.541,8.673s-62.564-3.887-62.564-8.673,28.02-8.663,62.564-8.663S467.738,401.657,467.738,406.454Z"/><path class="cls-215" d="M467.13,406.471c0,4.74-27.716,8.589-61.933,8.589s-61.957-3.849-61.957-8.589,27.748-8.579,61.957-8.579S467.13,401.72,467.13,406.471Z"/><path class="cls-216" d="M466.523,406.488c0,4.693-27.444,8.5-61.326,8.5s-61.35-3.812-61.35-8.5,27.477-8.5,61.35-8.5S466.523,401.784,466.523,406.488Z"/><path class="cls-217" d="M465.916,406.5c0,4.647-27.173,8.421-60.719,8.421s-60.743-3.774-60.743-8.421,27.2-8.41,60.743-8.41S465.916,401.847,465.916,406.5Z"/><path class="cls-218" d="M465.308,406.521c0,4.6-26.9,8.337-60.111,8.337s-60.135-3.737-60.135-8.337S372,398.2,405.2,398.2,465.308,401.91,465.308,406.521Z"/><path class="cls-219" d="M464.7,406.538c0,4.553-26.628,8.252-59.5,8.252s-59.528-3.7-59.528-8.252S372.33,398.3,405.2,398.3,464.7,401.973,464.7,406.538Z"/><path class="cls-220" d="M464.094,406.555c0,4.506-26.357,8.168-58.9,8.168s-58.921-3.662-58.921-8.168S372.665,398.4,405.2,398.4,464.094,402.036,464.094,406.555Z"/><path class="cls-221" d="M463.487,406.571c0,4.461-26.085,8.084-58.29,8.084s-58.314-3.623-58.314-8.084S373,398.5,405.2,398.5,463.487,402.1,463.487,406.571Z"/><path class="cls-222" d="M462.879,406.588c0,4.414-25.813,8-57.682,8s-57.707-3.586-57.707-8,25.846-7.99,57.707-7.99S462.879,402.162,462.879,406.588Z"/><path class="cls-223" d="M462.272,406.605c0,4.367-25.541,7.915-57.075,7.915s-57.1-3.548-57.1-7.915,25.573-7.906,57.1-7.906S462.272,402.226,462.272,406.605Z"/><path class="cls-224" d="M461.665,406.622c0,4.32-25.269,7.831-56.468,7.831s-56.492-3.511-56.492-7.831,25.3-7.822,56.492-7.822S461.665,402.289,461.665,406.622Z"/><path class="cls-225" d="M461.057,406.638c0,4.274-25,7.747-55.86,7.747s-55.885-3.473-55.885-7.747,25.03-7.737,55.885-7.737S461.057,402.352,461.057,406.638Z"/><path class="cls-226" d="M460.45,406.655c0,4.228-24.725,7.663-55.253,7.663s-55.278-3.435-55.278-7.663S374.678,399,405.2,399,460.45,402.415,460.45,406.655Z"/><path class="cls-227" d="M459.843,406.672c0,4.181-24.453,7.578-54.646,7.578s-54.67-3.4-54.67-7.578,24.486-7.569,54.67-7.569S459.843,402.478,459.843,406.672Z"/><path class="cls-228" d="M459.235,406.689c0,4.134-24.181,7.494-54.038,7.494s-54.063-3.36-54.063-7.494S375.348,399.2,405.2,399.2,459.235,402.541,459.235,406.689Z"/><path class="cls-229" d="M458.628,406.705c0,4.088-23.909,7.41-53.431,7.41s-53.456-3.322-53.456-7.41,23.943-7.4,53.456-7.4S458.628,402.6,458.628,406.705Z"/><path class="cls-230" d="M458.021,406.722c0,4.041-23.637,7.326-52.824,7.326s-52.849-3.285-52.849-7.326,23.671-7.317,52.849-7.317S458.021,402.668,458.021,406.722Z"/><path class="cls-231" d="M457.413,406.739c0,3.994-23.365,7.241-52.216,7.241s-52.241-3.247-52.241-7.241,23.4-7.233,52.241-7.233S457.413,402.731,457.413,406.739Z"/><path class="cls-232" d="M456.806,406.756c0,3.948-23.093,7.157-51.609,7.157s-51.634-3.209-51.634-7.157,23.127-7.149,51.634-7.149S456.806,402.794,456.806,406.756Z"/><path class="cls-233" d="M456.2,406.772c0,3.9-22.821,7.073-51,7.073s-51.027-3.171-51.027-7.073,22.855-7.064,51.027-7.064S456.2,402.857,456.2,406.772Z"/><path class="cls-234" d="M455.592,406.789c0,3.855-22.55,6.989-50.395,6.989s-50.42-3.134-50.42-6.989,22.584-6.98,50.42-6.98S455.592,402.92,455.592,406.789Z"/><path class="cls-235" d="M454.984,406.806c0,3.808-22.277,6.9-49.787,6.9s-49.813-3.1-49.813-6.9,22.312-6.9,49.813-6.9S454.984,402.983,454.984,406.806Z"/><path class="cls-236" d="M454.377,406.823c0,3.761-22,6.82-49.18,6.82s-49.2-3.059-49.2-6.82c0-3.777,22.039-6.812,49.2-6.812S454.377,403.046,454.377,406.823Z"/><path class="cls-237" d="M453.77,406.839c0,3.716-21.734,6.736-48.573,6.736s-48.6-3.02-48.6-6.736,21.768-6.728,48.6-6.728S453.77,403.11,453.77,406.839Z"/><path class="cls-238" d="M453.162,406.856c0,3.669-21.461,6.652-47.965,6.652s-47.991-2.983-47.991-6.652,21.5-6.644,47.991-6.644S453.162,403.173,453.162,406.856Z"/><path class="cls-239" d="M452.555,406.873c0,3.622-21.19,6.567-47.358,6.567s-47.384-2.945-47.384-6.567,21.224-6.56,47.384-6.56S452.555,403.236,452.555,406.873Z"/><path class="cls-240" d="M451.948,406.89c0,3.575-20.918,6.483-46.751,6.483s-46.776-2.908-46.776-6.483c0-3.591,20.952-6.476,46.776-6.476S451.948,403.3,451.948,406.89Z"/><path class="cls-241" d="M451.34,406.907c0,3.528-20.645,6.4-46.143,6.4s-46.169-2.871-46.169-6.4c0-3.545,20.68-6.392,46.169-6.392S451.34,403.362,451.34,406.907Z"/><path class="cls-242" d="M450.733,406.923c0,3.482-20.374,6.315-45.536,6.315s-45.562-2.833-45.562-6.315c0-3.5,20.409-6.307,45.562-6.307S450.733,403.425,450.733,406.923Z"/><path class="cls-243" d="M450.126,406.94c0,3.436-20.1,6.231-44.929,6.231s-44.955-2.8-44.955-6.231c0-3.452,20.137-6.223,44.955-6.223S450.126,403.488,450.126,406.94Z"/><path class="cls-244" d="M449.518,406.957c0,3.389-19.829,6.146-44.321,6.146s-44.347-2.757-44.347-6.146c0-3.406,19.864-6.139,44.347-6.139S449.518,403.551,449.518,406.957Z"/><path class="cls-245" d="M448.911,406.974c0,3.342-19.558,6.062-43.714,6.062s-43.74-2.72-43.74-6.062c0-3.359,19.593-6.056,43.74-6.056S448.911,403.615,448.911,406.974Z"/><path class="cls-246" d="M448.3,406.99c0,3.3-19.286,5.978-43.107,5.978s-43.133-2.682-43.133-5.978c0-3.312,19.321-5.971,43.133-5.971S448.3,403.678,448.3,406.99Z"/><path class="cls-247" d="M447.7,407.007c0,3.249-19.014,5.894-42.5,5.894s-42.526-2.645-42.526-5.894c0-3.266,19.05-5.887,42.526-5.887S447.7,403.741,447.7,407.007Z"/><path class="cls-248" d="M447.089,407.024c0,3.2-18.742,5.809-41.892,5.809s-41.919-2.606-41.919-5.809c0-3.22,18.778-5.8,41.919-5.8S447.089,403.8,447.089,407.024Z"/><path class="cls-249" d="M446.482,407.041c0,3.156-18.47,5.725-41.285,5.725s-41.311-2.569-41.311-5.725c0-3.174,18.5-5.719,41.311-5.719S446.482,403.867,446.482,407.041Z"/><path class="cls-250" d="M445.875,407.057c0,3.11-18.2,5.641-40.678,5.641s-40.7-2.531-40.7-5.641c0-3.127,18.234-5.634,40.7-5.634S445.875,403.93,445.875,407.057Z"/><path class="cls-251" d="M445.267,407.074c0,3.063-17.926,5.557-40.07,5.557s-40.1-2.494-40.1-5.557c0-3.081,17.962-5.55,40.1-5.55S445.267,403.993,445.267,407.074Z"/><path class="cls-252" d="M444.66,407.091c0,3.016-17.654,5.472-39.463,5.472s-39.49-2.456-39.49-5.472c0-3.034,17.69-5.466,39.49-5.466S444.66,404.057,444.66,407.091Z"/><path class="cls-253" d="M444.053,407.108c0,2.97-17.383,5.388-38.856,5.388s-38.882-2.418-38.882-5.388c0-2.988,17.418-5.382,38.882-5.382S444.053,404.12,444.053,407.108Z"/><path class="cls-254" d="M443.445,407.124c0,2.924-17.11,5.3-38.248,5.3s-38.275-2.38-38.275-5.3c0-2.941,17.146-5.3,38.275-5.3S443.445,404.183,443.445,407.124Z"/><path class="cls-255" d="M442.838,407.141c0,2.877-16.838,5.22-37.641,5.22s-37.668-2.343-37.668-5.22c0-2.9,16.875-5.214,37.668-5.214S442.838,404.246,442.838,407.141Z"/><path class="cls-256" d="M442.231,407.158c0,2.83-16.567,5.135-37.034,5.135s-37.061-2.305-37.061-5.135c0-2.849,16.6-5.13,37.061-5.13S442.231,404.309,442.231,407.158Z"/><path class="cls-257" d="M441.624,407.175c0,2.783-16.3,5.051-36.427,5.051s-36.454-2.268-36.454-5.051c0-2.8,16.331-5.046,36.454-5.046S441.624,404.372,441.624,407.175Z"/><path class="cls-258" d="M441.016,407.191c0,2.737-16.022,4.967-35.819,4.967s-35.846-2.23-35.846-4.967c0-2.756,16.059-4.961,35.846-4.961S441.016,404.435,441.016,407.191Z"/><path class="cls-259" d="M440.409,407.208c0,2.691-15.751,4.883-35.212,4.883s-35.239-2.192-35.239-4.883c0-2.709,15.787-4.877,35.239-4.877S440.409,404.5,440.409,407.208Z"/><path class="cls-260" d="M439.8,407.225c0,2.644-15.479,4.8-34.605,4.8s-34.632-2.154-34.632-4.8c0-2.663,15.515-4.793,34.632-4.793S439.8,404.562,439.8,407.225Z"/><path d="M439.194,407.242c0,2.6-15.206,4.714-34,4.714s-34.025-2.117-34.025-4.714c0-2.617,15.244-4.709,34.025-4.709S439.194,404.625,439.194,407.242Z"/></g></g></g></svg>