<svg xmlns="http://www.w3.org/2000/svg" viewBox="0 0 800 600"><defs><style>.cls-1{isolation:isolate;}.cls-2{fill:#3a3a8c;}.cls-166,.cls-3{fill:#5e5e5e;}.cls-4{opacity:0.2;mix-blend-mode:multiply;}.cls-5{fill:#fff;opacity:0;}.cls-6{fill:#fefefe;opacity:0.004;}.cls-7{fill:#fdfdfd;opacity:0.008;}.cls-8{fill:#fcfcfc;opacity:0.012;}.cls-9{fill:#fbfbfb;opacity:0.016;}.cls-10{fill:#fafafa;opacity:0.02;}.cls-11{fill:#f9f9f9;opacity:0.024;}.cls-12{fill:#f8f8f8;opacity:0.027;}.cls-13{fill:#f7f7f7;opacity:0.031;}.cls-14{fill:#f6f6f6;opacity:0.035;}.cls-15{fill:#f5f5f5;opacity:0.039;}.cls-16{fill:#f4f4f4;opacity:0.043;}.cls-17{fill:#f3f3f3;opacity:0.047;}.cls-18{fill:#f2f2f2;opacity:0.051;}.cls-19{fill:#f1f1f1;opacity:0.055;}.cls-20{fill:#f0f0f0;opacity:0.059;}.cls-21{fill:#efefef;opacity:0.063;}.cls-22{fill:#eee;opacity:0.067;}.cls-23{fill:#ededed;opacity:0.071;}.cls-24{fill:#ececec;opacity:0.075;}.cls-25{fill:#ebebeb;opacity:0.078;}.cls-26{fill:#eaeaea;opacity:0.082;}.cls-27{fill:#e9e9e9;opacity:0.086;}.cls-28{fill:#e8e8e8;opacity:0.09;}.cls-29{fill:#e7e7e7;opacity:0.094;}.cls-30{fill:#e6e6e6;opacity:0.098;}.cls-31{fill:#e5e5e5;opacity:0.102;}.cls-32{fill:#e4e4e4;opacity:0.106;}.cls-33{fill:#e3e3e3;opacity:0.11;}.cls-34{fill:#e2e2e2;opacity:0.114;}.cls-35{fill:#e1e1e1;opacity:0.118;}.cls-36{fill:#e0e0e0;opacity:0.122;}.cls-37{fill:#dfdfdf;opacity:0.125;}.cls-38{fill:#dedede;opacity:0.129;}.cls-39{fill:#ddd;opacity:0.133;}.cls-40{fill:#dcdcdc;opacity:0.137;}.cls-41{fill:#dbdbdb;opacity:0.141;}.cls-42{fill:#dadada;opacity:0.145;}.cls-43{fill:#d9d9d9;opacity:0.149;}.cls-44{fill:#d8d8d8;opacity:0.153;}.cls-45{fill:#d7d7d7;opacity:0.157;}.cls-46{fill:#d6d6d6;opacity:0.161;}.cls-47{fill:#d5d5d5;opacity:0.165;}.cls-48{fill:#d4d4d4;opacity:0.169;}.cls-49{fill:#d3d3d3;opacity:0.173;}.cls-50{fill:#d2d2d2;opacity:0.176;}.cls-51{fill:#d1d1d1;opacity:0.18;}.cls-52{fill:#d0d0d0;opacity:0.184;}.cls-53{fill:#cfcfcf;opacity:0.188;}.cls-54{fill:#cecece;opacity:0.192;}.cls-55{fill:#cdcdcd;opacity:0.196;}.cls-56{fill:#ccc;opacity:0.2;}.cls-57{fill:#cbcbcb;opacity:0.204;}.cls-58{fill:#cacaca;opacity:0.208;}.cls-59{fill:#c9c9c9;opacity:0.212;}.cls-60{fill:#c8c8c8;opacity:0.216;}.cls-61{fill:#c7c7c7;opacity:0.22;}.cls-62{fill:#c6c6c6;opacity:0.224;}.cls-63{fill:#c5c5c5;opacity:0.227;}.cls-64{fill:#c4c4c4;opacity:0.231;}.cls-65{fill:#c3c3c3;opacity:0.235;}.cls-66{fill:#c2c2c2;opacity:0.239;}.cls-67{fill:#c1c1c1;opacity:0.243;}.cls-68{fill:silver;opacity:0.247;}.cls-69{fill:#bfbfbf;opacity:0.251;}.cls-70{fill:#bebebe;opacity:0.255;}.cls-71{fill:#bdbdbd;opacity:0.259;}.cls-72{fill:#bcbcbc;opacity:0.263;}.cls-73{fill:#bbb;opacity:0.267;}.cls-74{fill:#bababa;opacity:0.271;}.cls-75{fill:#b9b9b9;opacity:0.275;}.cls-76{fill:#b8b8b8;opacity:0.278;}.cls-77{fill:#b7b7b7;opacity:0.282;}.cls-78{fill:#b6b6b6;opacity:0.286;}.cls-79{fill:#b5b5b5;opacity:0.29;}.cls-80{fill:#b4b4b4;opacity:0.294;}.cls-81{fill:#b3b3b3;opacity:0.298;}.cls-82{fill:#b2b2b2;opacity:0.302;}.cls-83{fill:#b1b1b1;opacity:0.306;}.cls-84{fill:#b0b0b0;opacity:0.31;}.cls-85{fill:#afafaf;opacity:0.314;}.cls-86{fill:#aeaeae;opacity:0.318;}.cls-87{fill:#adadad;opacity:0.322;}.cls-88{fill:#acacac;opacity:0.325;}.cls-89{fill:#ababab;opacity:0.329;}.cls-90{fill:#aaa;opacity:0.333;}.cls-91{fill:#a9a9a9;opacity:0.337;}.cls-92{fill:#a8a8a8;opacity:0.341;}.cls-93{fill:#a7a7a7;opacity:0.345;}.cls-94{fill:#a6a6a6;opacity:0.349;}.cls-95{fill:#a5a5a5;opacity:0.353;}.cls-96{fill:#a4a4a4;opacity:0.357;}.cls-97{fill:#a3a3a3;opacity:0.361;}.cls-98{fill:#a2a2a2;opacity:0.365;}.cls-99{fill:#a1a1a1;opacity:0.369;}.cls-100{fill:#a0a0a0;opacity:0.373;}.cls-101{fill:#9f9f9f;opacity:0.376;}.cls-102{fill:#9e9e9e;opacity:0.38;}.cls-103{fill:#9d9d9d;opacity:0.384;}.cls-104{fill:#9c9c9c;opacity:0.388;}.cls-105{fill:#9b9b9b;opacity:0.392;}.cls-106{fill:#9a9a9a;opacity:0.396;}.cls-107{fill:#999;opacity:0.4;}.cls-108{fill:#989898;opacity:0.404;}.cls-109{fill:#979797;opacity:0.408;}.cls-110{fill:#969696;opacity:0.412;}.cls-111{fill:#959595;opacity:0.416;}.cls-112{fill:#949494;opacity:0.42;}.cls-113{fill:#939393;opacity:0.424;}.cls-114{fill:#929292;opacity:0.427;}.cls-115{fill:#919191;opacity:0.431;}.cls-116{fill:#909090;opacity:0.435;}.cls-117{fill:#8f8f8f;opacity:0.439;}.cls-118{fill:#8e8e8e;opacity:0.443;}.cls-119{fill:#8d8d8d;opacity:0.447;}.cls-120{fill:#8c8c8c;opacity:0.451;}.cls-121{fill:#8b8b8b;opacity:0.455;}.cls-122{fill:#8a8a8a;opacity:0.459;}.cls-123{fill:#898989;opacity:0.463;}.cls-124{fill:#888;opacity:0.467;}.cls-125{fill:#878787;opacity:0.471;}.cls-126{fill:#868686;opacity:0.475;}.cls-127{fill:#858585;opacity:0.478;}.cls-128{fill:#848484;opacity:0.482;}.cls-129{fill:#838383;opacity:0.486;}.cls-130{fill:#828282;opacity:0.49;}.cls-131{fill:#818181;opacity:0.494;}.cls-132{fill:gray;opacity:0.498;}.cls-133{fill:#7f7f7f;opacity:0.502;}.cls-134{fill:#7e7e7e;opacity:0.506;}.cls-135{fill:#7d7d7d;opacity:0.51;}.cls-136{fill:#7c7c7c;opacity:0.514;}.cls-137{fill:#7b7b7b;opacity:0.518;}.cls-138{fill:#7a7a7a;opacity:0.522;}.cls-139{fill:#797979;opacity:0.525;}.cls-140{fill:#787878;opacity:0.529;}.cls-141{fill:#777;opacity:0.533;}.cls-142{fill:#767676;opacity:0.537;}.cls-143{fill:#757575;opacity:0.541;}.cls-144{fill:#747474;opacity:0.545;}.cls-145{fill:#737373;opacity:0.549;}.cls-146{fill:#727272;opacity:0.553;}.cls-147{fill:#717171;opacity:0.557;}.cls-148{fill:#707070;opacity:0.561;}.cls-149{fill:#6f6f6f;opacity:0.565;}.cls-150{fill:#6e6e6e;opacity:0.569;}.cls-151{fill:#6d6d6d;opacity:0.573;}.cls-152{fill:#6c6c6c;opacity:0.576;}.cls-153{fill:#6b6b6b;opacity:0.58;}.cls-154{fill:#6a6a6a;opacity:0.584;}.cls-155{fill:#696969;opacity:0.588;}.cls-156{fill:#686868;opacity:0.592;}.cls-157{fill:#676767;opacity:0.596;}.cls-158{fill:#666;opacity:0.6;}.cls-159{fill:#656565;opacity:0.604;}.cls-160{fill:#646464;opacity:0.608;}.cls-161{fill:#636363;opacity:0.612;}.cls-162{fill:#626262;opacity:0.616;}.cls-163{fill:#616161;opacity:0.62;}.cls-164{fill:#606060;opacity:0.624;}.cls-165{fill:#5f5f5f;opacity:0.627;}.cls-166{opacity:0.631;}.cls-167{fill:#5d5d5d;opacity:0.635;}.cls-168{fill:#5c5c5c;opacity:0.639;}.cls-169{fill:#5b5b5b;opacity:0.643;}.cls-170{fill:#5a5a5a;opacity:0.647;}.cls-171{fill:#595959;opacity:0.651;}.cls-172{fill:#585858;opacity:0.655;}.cls-173{fill:#575757;opacity:0.659;}.cls-174{fill:#565656;opacity:0.663;}.cls-175{fill:#555;opacity:0.667;}.cls-176{fill:#545454;opacity:0.671;}.cls-177{fill:#535353;opacity:0.675;}.cls-178{fill:#525252;opacity:0.678;}.cls-179{fill:#515151;opacity:0.682;}.cls-180{fill:#505050;opacity:0.686;}.cls-181{fill:#4f4f4f;opacity:0.69;}.cls-182{fill:#4e4e4e;opacity:0.694;}.cls-183{fill:#4d4d4d;opacity:0.698;}.cls-184{fill:#4c4c4c;opacity:0.702;}.cls-185{fill:#4b4b4b;opacity:0.706;}.cls-186{fill:#4a4a4a;opacity:0.71;}.cls-187{fill:#494949;opacity:0.714;}.cls-188{fill:#484848;opacity:0.718;}.cls-189{fill:#474747;opacity:0.722;}.cls-190{fill:#464646;opacity:0.725;}.cls-191{fill:#454545;opacity:0.729;}.cls-192{fill:#444;opacity:0.733;}.cls-193{fill:#434343;opacity:0.737;}.cls-194{fill:#424242;opacity:0.741;}.cls-195{fill:#414141;opacity:0.745;}.cls-196{fill:#404040;opacity:0.749;}.cls-197{fill:#3f3f3f;opacity:0.753;}.cls-198{fill:#3e3e3e;opacity:0.757;}.cls-199{fill:#3d3d3d;opacity:0.761;}.cls-200{fill:#3c3c3c;opacity:0.765;}.cls-201{fill:#3b3b3b;opacity:0.769;}.cls-202{fill:#3a3a3a;opacity:0.773;}.cls-203{fill:#393939;opacity:0.776;}.cls-204{fill:#383838;opacity:0.78;}.cls-205{fill:#373737;opacity:0.784;}.cls-206{fill:#363636;opacity:0.788;}.cls-207{fill:#353535;opacity:0.792;}.cls-208{fill:#343434;opacity:0.796;}.cls-209{fill:#333;opacity:0.8;}.cls-210{fill:#323232;opacity:0.804;}.cls-211{fill:#313131;opacity:0.808;}.cls-212{fill:#303030;opacity:0.812;}.cls-213{fill:#2f2f2f;opacity:0.816;}.cls-214{fill:#2e2e2e;opacity:0.82;}.cls-215{fill:#2d2d2d;opacity:0.824;}.cls-216{fill:#2c2c2c;opacity:0.827;}.cls-217{fill:#2b2b2b;opacity:0.831;}.cls-218{fill:#2a2a2a;opacity:0.835;}.cls-219{fill:#292929;opacity:0.839;}.cls-220{fill:#282828;opacity:0.843;}.cls-221{fill:#272727;opacity:0.847;}.cls-222{fill:#262626;opacity:0.851;}.cls-223{fill:#252525;opacity:0.855;}.cls-224{fill:#242424;opacity:0.859;}.cls-225{fill:#232323;opacity:0.863;}.cls-226{fill:#222;opacity:0.867;}.cls-227{fill:#212121;opacity:0.871;}.cls-228{fill:#202020;opacity:0.875;}.cls-229{fill:#1f1f1f;opacity:0.878;}.cls-230{fill:#1e1e1e;opacity:0.882;}.cls-231{fill:#1d1d1d;opacity:0.886;}.cls-232{fill:#1c1c1c;opacity:0.89;}.cls-233{fill:#1b1b1b;opacity:0.894;}.cls-234{fill:#1a1a1a;opacity:0.898;}.cls-235{fill:#191919;opacity:0.902;}.cls-236{fill:#181818;opacity:0.906;}.cls-237{fill:#171717;opacity:0.91;}.cls-238{fill:#161616;opacity:0.914;}.cls-239{fill:#151515;opacity:0.918;}.cls-240{fill:#141414;opacity:0.922;}.cls-241{fill:#131313;opacity:0.925;}.cls-242{fill:#121212;opacity:0.929;}.cls-243{fill:#111;opacity:0.933;}.cls-244{fill:#101010;opacity:0.937;}.cls-245{fill:#0f0f0f;opacity:0.941;}.cls-246{fill:#0e0e0e;opacity:0.945;}.cls-247{fill:#0d0d0d;opacity:0.949;}.cls-248{fill:#0c0c0c;opacity:0.953;}.cls-249{fill:#0b0b0b;opacity:0.957;}.cls-250{fill:#0a0a0a;opacity:0.961;}.cls-251{fill:#090909;opacity:0.965;}.cls-252{fill:#080808;opacity:0.969;}.cls-253{fill:#070707;opacity:0.973;}.cls-254{fill:#060606;opacity:0.976;}.cls-255{fill:#050505;opacity:0.98;}.cls-256{fill:#040404;opacity:0.984;}.cls-257{fill:#030303;opacity:0.988;}.cls-258{fill:#020202;opacity:0.992;}.cls-259{fill:#010101;opacity:0.996;}</style></defs><g class="cls-1"><g id="Text"><path class="cls-2" d="M283.567,478.176h-6.008l-14.746-23.892h-.164l.1,1.333q.286,3.815.287,6.973v15.586h-4.45V448.193h5.947l14.7,23.769h.123q-.041-.472-.164-3.435t-.123-4.625V448.193h4.491Z"/><path class="cls-2" d="M311.089,466.794q0,5.558-2.851,8.675a10.213,10.213,0,0,1-7.936,3.117,10.875,10.875,0,0,1-5.619-1.436,9.477,9.477,0,0,1-3.753-4.122,14.038,14.038,0,0,1-1.313-6.234q0-5.517,2.83-8.613t7.978-3.1a10,10,0,0,1,7.793,3.168A12.242,12.242,0,0,1,311.089,466.794Zm-16.509,0q0,7.854,5.8,7.854,5.742,0,5.742-7.854,0-7.773-5.783-7.773a4.933,4.933,0,0,0-4.4,2.01A10.231,10.231,0,0,0,294.58,466.794Z"/><path class="cls-2" d="M336.58,478.176h-4.84V464.23a6.105,6.105,0,0,0-1.056-3.917,4.085,4.085,0,0,0-3.353-1.292,5.334,5.334,0,0,0-4.471,1.805q-1.415,1.8-1.415,6.05v11.3h-4.819V455.494H320.4l.677,2.974h.246a6.718,6.718,0,0,1,2.912-2.5,9.761,9.761,0,0,1,4.184-.882q8.161,0,8.162,8.306Z"/><path class="cls-2" d="M341.317,468.968v-4.1h10.541v4.1Z"/><path class="cls-2" d="M377.165,457.258a8.741,8.741,0,0,1-3.076,7.2q-3.076,2.5-8.757,2.5h-3.117v11.218h-4.9V448.193h8.634q5.619,0,8.418,2.3T377.165,457.258Zm-14.95,5.578h2.6q3.774,0,5.537-1.313a4.776,4.776,0,0,0,1.764-4.1,4.654,4.654,0,0,0-1.579-3.856,7.8,7.8,0,0,0-4.922-1.271h-3.4Z"/><path class="cls-2" d="M394.146,455.084a11.583,11.583,0,0,1,2.4.2l-.472,4.491a9.105,9.105,0,0,0-2.133-.246,6.172,6.172,0,0,0-4.686,1.887,6.82,6.82,0,0,0-1.794,4.9v11.854h-4.819V455.494h3.773l.636,4h.246a8.99,8.99,0,0,1,2.942-3.22A7,7,0,0,1,394.146,455.084Z"/><path class="cls-2" d="M420.867,466.794q0,5.558-2.85,8.675a10.215,10.215,0,0,1-7.937,3.117,10.875,10.875,0,0,1-5.619-1.436,9.477,9.477,0,0,1-3.753-4.122,14.038,14.038,0,0,1-1.312-6.234q0-5.517,2.83-8.613t7.977-3.1A10,10,0,0,1,418,458.252,12.242,12.242,0,0,1,420.867,466.794Zm-16.509,0q0,7.854,5.8,7.854,5.742,0,5.742-7.854,0-7.773-5.783-7.773a4.931,4.931,0,0,0-4.4,2.01A10.222,10.222,0,0,0,404.358,466.794Z"/><path class="cls-2" d="M437.786,459.145h-5.537v19.031h-4.84V459.145h-3.732v-2.256l3.732-1.477v-1.476q0-4.02,1.887-5.957t5.763-1.939a15.361,15.361,0,0,1,5,.841l-1.271,3.65a11.1,11.1,0,0,0-3.4-.574,2.769,2.769,0,0,0-2.39,1.016,5.109,5.109,0,0,0-.748,3.045v1.476h5.537Zm3.568-9.66a2.667,2.667,0,0,1,.708-1.989,2.755,2.755,0,0,1,2.02-.7,2.444,2.444,0,0,1,2.687,2.686,2.625,2.625,0,0,1-.708,1.939,2.678,2.678,0,0,1-1.979.707,2.735,2.735,0,0,1-2.02-.707A2.621,2.621,0,0,1,441.354,449.485Zm5.107,28.691h-4.819V455.494h4.819Z"/><path class="cls-2" d="M461.821,474.689a11.727,11.727,0,0,0,3.528-.553v3.63a9.824,9.824,0,0,1-2.062.584,14.215,14.215,0,0,1-2.614.236q-6.851,0-6.85-7.219V459.145h-3.1v-2.133l3.322-1.764,1.64-4.8h2.974v5.045h6.46v3.651h-6.46v12.14a3.408,3.408,0,0,0,.871,2.574A3.181,3.181,0,0,0,461.821,474.689Z"/><path class="cls-2" d="M485.118,471.716a5.932,5.932,0,0,1-2.42,5.1q-2.419,1.774-6.931,1.774a16.375,16.375,0,0,1-7.281-1.374v-4.163a17.884,17.884,0,0,0,7.445,1.846q4.449,0,4.45-2.687a2.131,2.131,0,0,0-.492-1.436,5.835,5.835,0,0,0-1.62-1.189,27.983,27.983,0,0,0-3.138-1.4,14.509,14.509,0,0,1-5.3-3.035,5.613,5.613,0,0,1-1.384-3.937,5.176,5.176,0,0,1,2.348-4.523,11.153,11.153,0,0,1,6.389-1.609,18.093,18.093,0,0,1,7.567,1.62l-1.559,3.63a16.822,16.822,0,0,0-6.172-1.518q-3.814,0-3.815,2.174a2.187,2.187,0,0,0,.994,1.805,21.892,21.892,0,0,0,4.338,2.03,19.861,19.861,0,0,1,4.081,1.989A5.947,5.947,0,0,1,484.5,468.9,6.029,6.029,0,0,1,485.118,471.716Z"/><path class="cls-2" d="M499.761,470.239a8.346,8.346,0,0,1,1.312-4.686,13.784,13.784,0,0,1,4.738-3.968,17.44,17.44,0,0,1-2.657-3.845,7.841,7.841,0,0,1-.707-3.251,6,6,0,0,1,2.225-4.922,9.211,9.211,0,0,1,5.978-1.8,8.558,8.558,0,0,1,5.7,1.753,5.878,5.878,0,0,1,2.071,4.727,7.056,7.056,0,0,1-1.385,4.245,15.151,15.151,0,0,1-4.624,3.815l7.1,6.849a18.537,18.537,0,0,0,2.768-6.439h4.963a22.587,22.587,0,0,1-4.594,9.5l6.173,5.968h-6.214l-3.055-2.974a14.777,14.777,0,0,1-9.7,3.384,11.237,11.237,0,0,1-7.4-2.235A7.528,7.528,0,0,1,499.761,470.239Zm10.336,4.2a9.776,9.776,0,0,0,6.419-2.194l-7.855-7.731a10.283,10.283,0,0,0-2.994,2.615,4.86,4.86,0,0,0-.82,2.778,4.162,4.162,0,0,0,1.424,3.271A5.565,5.565,0,0,0,510.1,474.443Zm-3.056-19.79a4.678,4.678,0,0,0,.687,2.441,14.172,14.172,0,0,0,1.918,2.44,11.8,11.8,0,0,0,3.25-2.45,3.928,3.928,0,0,0,.933-2.554,2.729,2.729,0,0,0-.892-2.133,3.416,3.416,0,0,0-2.369-.8,3.787,3.787,0,0,0-2.574.83A2.8,2.8,0,0,0,507.041,454.653Z"/><path class="cls-2" d="M177.583,520.434a7.545,7.545,0,0,1-2.892,6.275q-2.891,2.277-7.977,2.276a19.028,19.028,0,0,1-8.326-1.579v-4.635a22.582,22.582,0,0,0,4.357,1.518,18.492,18.492,0,0,0,4.3.554,6.83,6.83,0,0,0,4.3-1.108,3.61,3.61,0,0,0,1.385-2.973,3.726,3.726,0,0,0-1.272-2.851,19.12,19.12,0,0,0-5.25-2.768,13.894,13.894,0,0,1-5.783-3.794,8.029,8.029,0,0,1-1.682-5.127,7.183,7.183,0,0,1,2.666-5.907,11.064,11.064,0,0,1,7.158-2.153,21.026,21.026,0,0,1,8.572,1.887l-1.559,4a18.732,18.732,0,0,0-7.136-1.682,5.486,5.486,0,0,0-3.61,1.035,3.406,3.406,0,0,0-1.23,2.739,3.861,3.861,0,0,0,.492,2,5.039,5.039,0,0,0,1.62,1.568,27.329,27.329,0,0,0,4.061,1.948,22.2,22.2,0,0,1,4.839,2.564,7.528,7.528,0,0,1,2.256,2.686A8.075,8.075,0,0,1,177.583,520.434Z"/><path class="cls-2" d="M194.379,528.985a7.946,7.946,0,0,1-6.686-3.1h-.287q.288,2.871.287,3.486v9.29h-4.819V505.894h3.9q.164.635.676,3.035h.246a7.551,7.551,0,0,1,6.768-3.446,7.871,7.871,0,0,1,6.613,3.077q2.368,3.075,2.369,8.633t-2.41,8.675A7.942,7.942,0,0,1,194.379,528.985Zm-1.169-19.564a5.006,5.006,0,0,0-4.194,1.682q-1.323,1.682-1.323,5.373v.717q0,4.143,1.313,6a4.881,4.881,0,0,0,4.286,1.856A4.351,4.351,0,0,0,197.147,523a10.584,10.584,0,0,0,1.354-5.845,10.212,10.212,0,0,0-1.344-5.772A4.479,4.479,0,0,0,193.21,509.421Z"/><path class="cls-2" d="M218.947,528.985q-5.291,0-8.275-3.086t-2.984-8.5q0-5.558,2.769-8.736a9.564,9.564,0,0,1,7.608-3.179,9.347,9.347,0,0,1,7.1,2.728,10.423,10.423,0,0,1,2.6,7.506v2.6H212.651a7.449,7.449,0,0,0,1.785,5.076,6.212,6.212,0,0,0,4.737,1.774,17.475,17.475,0,0,0,3.742-.379,19.63,19.63,0,0,0,3.723-1.262v3.917a14.814,14.814,0,0,1-3.569,1.19A21.917,21.917,0,0,1,218.947,528.985Zm-.882-19.851a4.841,4.841,0,0,0-3.681,1.456,6.941,6.941,0,0,0-1.651,4.245h10.295a6.28,6.28,0,0,0-1.353-4.256A4.632,4.632,0,0,0,218.065,509.134Z"/><path class="cls-2" d="M242.388,528.985q-5.148,0-7.825-3t-2.675-8.624q0-5.721,2.8-8.8t8.09-3.077a15.171,15.171,0,0,1,6.46,1.333l-1.456,3.876a14.593,14.593,0,0,0-5.045-1.189q-5.886,0-5.885,7.813a9.359,9.359,0,0,0,1.465,5.732,5.077,5.077,0,0,0,4.3,1.918,12.32,12.32,0,0,0,6.091-1.6v4.2a9.516,9.516,0,0,1-2.759,1.087A16.525,16.525,0,0,1,242.388,528.985Z"/><path class="cls-2" d="M253.749,499.885a2.664,2.664,0,0,1,.707-1.989,2.76,2.76,0,0,1,2.021-.7,2.7,2.7,0,0,1,1.978.7,2.664,2.664,0,0,1,.708,1.989,2.619,2.619,0,0,1-.708,1.938,2.677,2.677,0,0,1-1.978.707,2.739,2.739,0,0,1-2.021-.707A2.618,2.618,0,0,1,253.749,499.885Zm5.106,28.69h-4.819V505.894h4.819Z"/><path class="cls-2" d="M279.938,528.575l-.964-3.158h-.164a9.3,9.3,0,0,1-3.3,2.82,10.461,10.461,0,0,1-4.266.748,7.222,7.222,0,0,1-5.22-1.8,6.754,6.754,0,0,1-1.876-5.107,6,6,0,0,1,2.6-5.291q2.6-1.783,7.937-1.948l3.916-.123V513.5a4.589,4.589,0,0,0-1.015-3.251,4.143,4.143,0,0,0-3.148-1.076,10.872,10.872,0,0,0-3.342.513,25.244,25.244,0,0,0-3.077,1.209l-1.558-3.445a16.834,16.834,0,0,1,4.04-1.467,18.649,18.649,0,0,1,4.142-.5q4.327,0,6.532,1.887t2.2,5.927v15.278Zm-7.178-3.281a5.963,5.963,0,0,0,4.214-1.467,5.314,5.314,0,0,0,1.589-4.111v-1.969l-2.912.123a9.952,9.952,0,0,0-4.953,1.139,3.456,3.456,0,0,0-1.548,3.106,3.034,3.034,0,0,0,.9,2.349A3.879,3.879,0,0,0,272.76,525.294Z"/><path class="cls-2" d="M294.929,528.575h-4.82v-31.91h4.82Z"/><path class="cls-2" d="M313.242,528.575V498.593h4.9v29.982Z"/><path class="cls-2" d="M345.5,528.575h-4.84V514.63a6.1,6.1,0,0,0-1.057-3.917,4.081,4.081,0,0,0-3.352-1.292,5.331,5.331,0,0,0-4.471,1.805q-1.414,1.8-1.415,6.049v11.3h-4.819V505.894h3.773l.677,2.973h.246a6.712,6.712,0,0,1,2.912-2.5,9.761,9.761,0,0,1,4.184-.882q8.161,0,8.162,8.306Z"/><path class="cls-2" d="M360.656,525.089a11.729,11.729,0,0,0,3.528-.554v3.63a9.764,9.764,0,0,1-2.062.584,14.215,14.215,0,0,1-2.614.236q-6.851,0-6.85-7.218V509.544h-3.1v-2.133l3.322-1.764,1.64-4.8H357.5v5.045h6.46v3.65H357.5v12.141a3.409,3.409,0,0,0,.871,2.574A3.181,3.181,0,0,0,360.656,525.089Z"/><path class="cls-2" d="M378.621,528.985q-5.29,0-8.275-3.086t-2.984-8.5q0-5.558,2.769-8.736a9.564,9.564,0,0,1,7.608-3.179,9.349,9.349,0,0,1,7.1,2.728,10.423,10.423,0,0,1,2.6,7.506v2.6H372.325a7.453,7.453,0,0,0,1.784,5.076,6.215,6.215,0,0,0,4.738,1.774,17.475,17.475,0,0,0,3.742-.379,19.654,19.654,0,0,0,3.723-1.262v3.917a14.814,14.814,0,0,1-3.569,1.19A21.917,21.917,0,0,1,378.621,528.985Zm-.882-19.851a4.84,4.84,0,0,0-3.681,1.456,6.941,6.941,0,0,0-1.651,4.245h10.3a6.28,6.28,0,0,0-1.353-4.256A4.632,4.632,0,0,0,377.739,509.134Z"/><path class="cls-2" d="M404.42,505.483a11.646,11.646,0,0,1,2.4.2l-.471,4.492a9.118,9.118,0,0,0-2.133-.246,6.174,6.174,0,0,0-4.687,1.886,6.822,6.822,0,0,0-1.794,4.9v11.853h-4.819V505.894h3.773l.636,4h.246a8.984,8.984,0,0,1,2.943-3.22A7,7,0,0,1,404.42,505.483Z"/><path class="cls-2" d="M420.929,528.985q-5.292,0-8.276-3.086t-2.983-8.5q0-5.558,2.768-8.736a9.564,9.564,0,0,1,7.609-3.179,9.35,9.35,0,0,1,7.1,2.728,10.423,10.423,0,0,1,2.6,7.506v2.6H414.633a7.449,7.449,0,0,0,1.784,5.076,6.212,6.212,0,0,0,4.737,1.774,17.475,17.475,0,0,0,3.742-.379,19.607,19.607,0,0,0,3.723-1.262v3.917a14.807,14.807,0,0,1-3.568,1.19A21.917,21.917,0,0,1,420.929,528.985Zm-.882-19.851a4.843,4.843,0,0,0-3.682,1.456,6.941,6.941,0,0,0-1.65,4.245h10.3a6.286,6.286,0,0,0-1.354-4.256A4.631,4.631,0,0,0,420.047,509.134Z"/><path class="cls-2" d="M450.46,522.115a5.937,5.937,0,0,1-2.42,5.1q-2.42,1.774-6.932,1.773a16.374,16.374,0,0,1-7.28-1.374v-4.163a17.868,17.868,0,0,0,7.444,1.846q4.45,0,4.451-2.687a2.124,2.124,0,0,0-.493-1.435,5.835,5.835,0,0,0-1.62-1.19,27.878,27.878,0,0,0-3.137-1.394,14.529,14.529,0,0,1-5.3-3.035,5.615,5.615,0,0,1-1.384-3.938,5.172,5.172,0,0,1,2.348-4.522,11.152,11.152,0,0,1,6.388-1.61,18.083,18.083,0,0,1,7.568,1.621l-1.559,3.629a16.842,16.842,0,0,0-6.173-1.517q-3.815,0-3.814,2.174a2.185,2.185,0,0,0,.994,1.8,21.847,21.847,0,0,0,4.338,2.031,19.784,19.784,0,0,1,4.081,1.989,5.939,5.939,0,0,1,1.887,2.082A6.022,6.022,0,0,1,450.46,522.115Z"/><path class="cls-2" d="M464.118,525.089a11.729,11.729,0,0,0,3.528-.554v3.63a9.764,9.764,0,0,1-2.062.584,14.215,14.215,0,0,1-2.614.236q-6.851,0-6.85-7.218V509.544h-3.1v-2.133l3.323-1.764,1.64-4.8h2.974v5.045h6.46v3.65h-6.46v12.141a3.409,3.409,0,0,0,.871,2.574A3.181,3.181,0,0,0,464.118,525.089Z"/><path class="cls-2" d="M495.864,512.312H506.9v15.053a31.9,31.9,0,0,1-5.2,1.251,36.808,36.808,0,0,1-5.383.369q-6.808,0-10.5-4.029t-3.691-11.372q0-7.239,4.163-11.331t11.464-4.091a22.323,22.323,0,0,1,8.9,1.805l-1.722,4.081a17.323,17.323,0,0,0-7.3-1.682,9.83,9.83,0,0,0-7.588,3.015q-2.789,3.015-2.789,8.244,0,5.5,2.512,8.356t7.229,2.862a23.73,23.73,0,0,0,5.086-.595v-7.731h-6.214Z"/><path class="cls-2" d="M525.088,505.483a11.646,11.646,0,0,1,2.4.2l-.471,4.492a9.118,9.118,0,0,0-2.133-.246,6.174,6.174,0,0,0-4.687,1.886,6.822,6.822,0,0,0-1.794,4.9v11.853h-4.819V505.894h3.773l.636,4h.246a8.984,8.984,0,0,1,2.943-3.22A7,7,0,0,1,525.088,505.483Z"/><path class="cls-2" d="M551.81,517.193q0,5.558-2.851,8.675a10.214,10.214,0,0,1-7.937,3.117,10.874,10.874,0,0,1-5.619-1.435,9.477,9.477,0,0,1-3.753-4.122,14.039,14.039,0,0,1-1.312-6.235q0-5.516,2.83-8.613t7.978-3.1a9.994,9.994,0,0,1,7.792,3.168A12.239,12.239,0,0,1,551.81,517.193Zm-16.509,0q0,7.855,5.8,7.855,5.743,0,5.743-7.855,0-7.772-5.784-7.772a4.931,4.931,0,0,0-4.4,2.01A10.227,10.227,0,0,0,535.3,517.193Z"/><path class="cls-2" d="M573.343,528.575l-.677-2.973h-.246a6.848,6.848,0,0,1-2.861,2.481,9.562,9.562,0,0,1-4.235.9q-4.122,0-6.152-2.05t-2.03-6.214V505.894H562V519.88a6.063,6.063,0,0,0,1.066,3.906,4.07,4.07,0,0,0,3.343,1.3,5.323,5.323,0,0,0,4.46-1.815q1.425-1.817,1.426-6.081v-11.3h4.84v22.681Z"/><path class="cls-2" d="M595.512,528.985a7.946,7.946,0,0,1-6.686-3.1h-.287q.287,2.871.287,3.486v9.29h-4.819V505.894h3.9q.165.635.677,3.035h.246a7.551,7.551,0,0,1,6.768-3.446,7.871,7.871,0,0,1,6.613,3.077q2.368,3.075,2.369,8.633t-2.41,8.675A7.942,7.942,0,0,1,595.512,528.985Zm-1.169-19.564a5.01,5.01,0,0,0-4.195,1.682q-1.321,1.682-1.322,5.373v.717q0,4.143,1.313,6a4.88,4.88,0,0,0,4.286,1.856A4.351,4.351,0,0,0,598.28,523a10.584,10.584,0,0,0,1.354-5.845,10.212,10.212,0,0,0-1.344-5.772A4.479,4.479,0,0,0,594.343,509.421Z"/><path class="cls-2" d="M625.412,522.115a5.937,5.937,0,0,1-2.42,5.1q-2.419,1.774-6.931,1.773a16.375,16.375,0,0,1-7.281-1.374v-4.163a17.869,17.869,0,0,0,7.445,1.846q4.449,0,4.45-2.687a2.128,2.128,0,0,0-.492-1.435,5.857,5.857,0,0,0-1.621-1.19,27.714,27.714,0,0,0-3.137-1.394,14.529,14.529,0,0,1-5.3-3.035,5.615,5.615,0,0,1-1.384-3.938,5.172,5.172,0,0,1,2.348-4.522,11.153,11.153,0,0,1,6.389-1.61,18.078,18.078,0,0,1,7.567,1.621l-1.559,3.629a16.842,16.842,0,0,0-6.172-1.517q-3.815,0-3.815,2.174a2.185,2.185,0,0,0,.994,1.8,21.877,21.877,0,0,0,4.338,2.031,19.784,19.784,0,0,1,4.081,1.989A5.939,5.939,0,0,1,624.8,519.3,6.022,6.022,0,0,1,625.412,522.115Z"/><g id="Freedom"><path class="cls-2" d="M345.747,308.612c-14.2,3.616-25.157,14.606-35.347,25.141-12.736-14.374-16.979-34.155-20.764-52.983a82.717,82.717,0,0,0,62.46-15.816c-17.517-9.05-29.181-26.975-34.654-45.917s-5.454-39-4.591-58.7c19.733,28.117,47.957,51.718,81.5,59.145,4.646,1.029,9.522,1.737,14.129.547,7.2-1.86,12.384-7.9,18.069-12.7,7.111-6,16.085-10.448,25.372-9.9s18.539,7.2,19.891,16.4c-11.065-.361-21.052,7.418-26.8,16.879s-8.155,20.5-11.053,31.188-6.59,21.6-14.216,29.624c-12.692,13.355-32.98,15.58-51.4,15.514C360.764,307.007,353.082,306.745,345.747,308.612Z"/><path class="cls-3" d="M467.9,192.35a67.553,67.553,0,0,0-9.039-33.923l4.945-6.238a105.481,105.481,0,0,1,7.268,15.391q.429,1.137.827,2.287a66.374,66.374,0,0,1,2.994,30.205,22.37,22.37,0,0,0-6.4-5.989c-.545-.336-.594-1.094-.591-1.733Z"/><path class="cls-3" d="M461.55,141.482a22.62,22.62,0,0,1-6.983,10.011,20.909,20.909,0,0,1-3.648-23.086,40.846,40.846,0,0,1,4.944-7.252c.149-.188.361-.4.591-.329a.61.61,0,0,1,.28.239,32.617,32.617,0,0,1,4.04,6.3A19.559,19.559,0,0,1,461.55,141.482Z"/><path class="cls-2" d="M396.534,185.253a62.049,62.049,0,0,1,5.215,26.536c-.833-.195-1.673-.353-2.512-.522a103.5,103.5,0,0,1-37.171-15.509c-.55-.37-1.171-.935-.979-1.57a187.966,187.966,0,0,0,7.808-46.03,110.1,110.1,0,0,1,25.967,33.559C395.446,182.883,396.009,184.059,396.534,185.253Z"/><path class="cls-3" d="M494.993,153.633l.091,2.983c.017.563.035,1.126.032,1.689a24.289,24.289,0,0,1-12.562,20.852c-.2.107-.41-.12-.519-.319a14.312,14.312,0,0,1-1.179-10.824,19.072,19.072,0,0,1,1.634-3.786,29.52,29.52,0,0,1,10.829-11.145c.5-.293,1.251-.517,1.554-.026A1.141,1.141,0,0,1,494.993,153.633Z"/><path class="cls-3" d="M461.965,183.919a17.085,17.085,0,0,1-15.367,3.59,23.309,23.309,0,0,1-5.695-2.483,38.08,38.08,0,0,1-8.242-6.477,24.766,24.766,0,0,1,10.988-2.649,22.956,22.956,0,0,1,13.224,4.054c.826.572,1.612,1.2,2.4,1.823Z"/><path class="cls-3" d="M472.674,147.674a19.9,19.9,0,0,1,1.833-7.143,30.26,30.26,0,0,1,7.266-10.087c.223-.2.549-.413.8-.244a.672.672,0,0,1,.2.278,22.051,22.051,0,0,1,2.2,7.846c.058.664.087,1.331.087,2a24.183,24.183,0,0,1-8.372,18.144A14.974,14.974,0,0,1,472.674,147.674Z"/><path class="cls-3" d="M445.36,170.1c-6.606-1.692-11.451-7.228-15.458-12.745-.317-.437.369-.9.9-1a24.668,24.668,0,0,1,26.04,12.5A16.61,16.61,0,0,1,445.36,170.1Z"/><path class="cls-3" d="M462.776,243.927c-.319-3.14-.638-6.285-.7-9.441a52.962,52.962,0,0,1,.319-7.167,2.925,2.925,0,0,1,.38-1.326,3.03,3.03,0,0,1,1.29-.917l6-2.822c.251-.118.577-.227.781-.039a.721.721,0,0,1,.125.619l-.95,8.646c-.391,3.561.2,7.145.539,10.711a7.282,7.282,0,0,1-.606,4.557,3.785,3.785,0,0,1-6.664-.438A7.576,7.576,0,0,1,462.776,243.927Z"/></g><g class="cls-4"><path class="cls-5" d="M576.815,395.283c0,14.474-84.553,26.194-188.86,26.194s-188.868-11.72-188.868-26.194c0-14.444,84.566-26.16,188.868-26.16S576.815,380.839,576.815,395.283Z"/><path class="cls-6" d="M576.208,395.3c0,14.428-84.282,26.111-188.253,26.111S199.7,409.727,199.7,395.3c0-14.4,84.293-26.075,188.26-26.075S576.208,380.9,576.208,395.3Z"/><path class="cls-7" d="M575.6,395.316c0,14.381-84.01,26.027-187.646,26.027S200.3,409.7,200.3,395.316c0-14.351,84.022-25.991,187.653-25.991S575.6,380.965,575.6,395.316Z"/><path class="cls-8" d="M574.994,395.333c0,14.334-83.739,25.942-187.039,25.942s-187.046-11.608-187.046-25.942c0-14.305,83.75-25.907,187.046-25.907S574.994,381.028,574.994,395.333Z"/><path class="cls-9" d="M574.386,395.35c0,14.287-83.466,25.858-186.431,25.858S201.516,409.637,201.516,395.35c0-14.259,83.479-25.824,186.439-25.824S574.386,381.091,574.386,395.35Z"/><path class="cls-10" d="M573.779,395.366c0,14.241-83.194,25.774-185.824,25.774s-185.831-11.533-185.831-25.774c0-14.212,83.206-25.739,185.831-25.739S573.779,381.154,573.779,395.366Z"/><path class="cls-11" d="M573.172,395.383c0,14.195-82.923,25.69-185.217,25.69s-185.224-11.5-185.224-25.69c0-14.165,82.934-25.655,185.224-25.655S573.172,381.218,573.172,395.383Z"/><path class="cls-12" d="M572.564,395.4c0,14.148-82.65,25.605-184.609,25.605S203.338,409.548,203.338,395.4c0-14.119,82.663-25.571,184.617-25.571S572.564,381.281,572.564,395.4Z"/><path class="cls-13" d="M571.957,395.417c0,14.1-82.378,25.521-184,25.521s-184.01-11.42-184.01-25.521c0-14.073,82.391-25.487,184.01-25.487S571.957,381.344,571.957,395.417Z"/><path class="cls-14" d="M571.35,395.433c0,14.055-82.107,25.437-183.4,25.437s-183.4-11.382-183.4-25.437c0-14.026,82.12-25.4,183.4-25.4S571.35,381.407,571.35,395.433Z"/><path class="cls-15" d="M570.742,395.45c0,14.008-81.834,25.353-182.787,25.353S205.16,409.458,205.16,395.45c0-13.98,81.847-25.318,182.8-25.318S570.742,381.47,570.742,395.45Z"/><path class="cls-16" d="M570.135,395.467c0,13.962-81.562,25.268-182.18,25.268s-182.188-11.306-182.188-25.268c0-13.934,81.575-25.234,182.188-25.234S570.135,381.533,570.135,395.467Z"/><path class="cls-17" d="M569.528,395.484c0,13.915-81.291,25.184-181.573,25.184S206.374,409.4,206.374,395.484c0-13.888,81.3-25.151,181.581-25.151S569.528,381.6,569.528,395.484Z"/><path class="cls-18" d="M568.921,395.5c0,13.869-81.019,25.1-180.966,25.1s-180.974-11.231-180.974-25.1c0-13.84,81.032-25.066,180.974-25.066S568.921,381.66,568.921,395.5Z"/><path class="cls-19" d="M568.313,395.517c0,13.822-80.746,25.016-180.358,25.016s-180.366-11.194-180.366-25.016c0-13.794,80.759-24.982,180.366-24.982S568.313,381.723,568.313,395.517Z"/><path class="cls-20" d="M567.706,395.534c0,13.775-80.475,24.931-179.751,24.931S208.2,409.309,208.2,395.534c0-13.748,80.488-24.9,179.759-24.9S567.706,381.786,567.706,395.534Z"/><path class="cls-21" d="M567.1,395.551c0,13.728-80.2,24.847-179.144,24.847S208.8,409.279,208.8,395.551c0-13.7,80.216-24.814,179.152-24.814S567.1,381.849,567.1,395.551Z"/><path class="cls-22" d="M566.491,395.567c0,13.683-79.93,24.763-178.536,24.763S209.41,409.25,209.41,395.567c0-13.655,79.945-24.729,178.545-24.729S566.491,381.912,566.491,395.567Z"/><path class="cls-23" d="M565.884,395.584c0,13.636-79.659,24.679-177.929,24.679S210.018,409.22,210.018,395.584c0-13.609,79.672-24.645,177.937-24.645S565.884,381.975,565.884,395.584Z"/><path class="cls-24" d="M565.277,395.6c0,13.589-79.387,24.594-177.322,24.594s-177.33-11-177.33-24.594c0-13.563,79.4-24.561,177.33-24.561S565.277,382.038,565.277,395.6Z"/><path class="cls-25" d="M564.669,395.618c0,13.542-79.115,24.51-176.714,24.51s-176.723-10.968-176.723-24.51c0-13.516,79.129-24.478,176.723-24.478S564.669,382.1,564.669,395.618Z"/><path class="cls-26" d="M564.062,395.634c0,13.5-78.843,24.426-176.107,24.426s-176.116-10.93-176.116-24.426c0-13.469,78.857-24.393,176.116-24.393S564.062,382.165,564.062,395.634Z"/><path class="cls-27" d="M563.455,395.651c0,13.45-78.571,24.342-175.5,24.342S212.446,409.1,212.446,395.651c0-13.423,78.585-24.309,175.509-24.309S563.455,382.228,563.455,395.651Z"/><path class="cls-28" d="M562.847,395.668c0,13.4-78.3,24.257-174.892,24.257s-174.9-10.854-174.9-24.257c0-13.377,78.313-24.225,174.9-24.225S562.847,382.291,562.847,395.668Z"/><path class="cls-29" d="M562.24,395.685c0,13.356-78.027,24.173-174.285,24.173s-174.294-10.817-174.294-24.173c0-13.331,78.041-24.141,174.294-24.141S562.24,382.354,562.24,395.685Z"/><path class="cls-30" d="M561.633,395.7c0,13.31-77.755,24.09-173.678,24.09s-173.687-10.78-173.687-24.09c0-13.284,77.77-24.056,173.687-24.056S561.633,382.417,561.633,395.7Z"/><path class="cls-31" d="M561.026,395.718c0,13.263-77.484,24-173.071,24s-173.08-10.742-173.08-24c0-13.238,77.5-23.972,173.08-23.972S561.026,382.48,561.026,395.718Z"/><path class="cls-32" d="M560.418,395.735c0,13.217-77.211,23.921-172.463,23.921s-172.472-10.7-172.472-23.921c0-13.192,77.225-23.888,172.472-23.888S560.418,382.543,560.418,395.735Z"/><path class="cls-33" d="M559.811,395.752c0,13.17-76.939,23.836-171.856,23.836S216.09,408.922,216.09,395.752c0-13.145,76.954-23.805,171.865-23.805S559.811,382.607,559.811,395.752Z"/><path class="cls-34" d="M559.2,395.769c0,13.123-76.668,23.752-171.249,23.752S216.7,408.892,216.7,395.769c0-13.1,76.682-23.721,171.258-23.721S559.2,382.67,559.2,395.769Z"/><path class="cls-35" d="M558.6,395.785c0,13.077-76.395,23.668-170.641,23.668S217.3,408.862,217.3,395.785c0-13.052,76.41-23.636,170.651-23.636S558.6,382.733,558.6,395.785Z"/><path class="cls-36" d="M557.989,395.8c0,13.03-76.123,23.584-170.034,23.584S217.911,408.832,217.911,395.8c0-13.006,76.139-23.552,170.044-23.552S557.989,382.8,557.989,395.8Z"/><path class="cls-37" d="M557.382,395.819c0,12.983-75.852,23.5-169.427,23.5s-169.436-10.516-169.436-23.5c0-12.96,75.866-23.468,169.436-23.468S557.382,382.859,557.382,395.819Z"/><path class="cls-38" d="M556.774,395.836c0,12.937-75.579,23.415-168.819,23.415s-168.829-10.478-168.829-23.415c0-12.914,75.6-23.384,168.829-23.384S556.774,382.922,556.774,395.836Z"/><path class="cls-39" d="M556.167,395.852c0,12.891-75.308,23.331-168.212,23.331s-168.222-10.44-168.222-23.331c0-12.867,75.323-23.3,168.222-23.3S556.167,382.985,556.167,395.852Z"/><path class="cls-40" d="M555.56,395.869c0,12.844-75.036,23.247-167.6,23.247s-167.615-10.4-167.615-23.247c0-12.82,75.051-23.215,167.615-23.215S555.56,383.049,555.56,395.869Z"/><path class="cls-41" d="M554.952,395.886c0,12.8-74.763,23.162-167,23.162s-167.007-10.365-167.007-23.162c0-12.774,74.779-23.131,167.007-23.131S554.952,383.112,554.952,395.886Z"/><path class="cls-42" d="M554.345,395.9c0,12.75-74.492,23.078-166.39,23.078s-166.4-10.328-166.4-23.078c0-12.728,74.507-23.048,166.4-23.048S554.345,383.175,554.345,395.9Z"/><path class="cls-43" d="M553.738,395.919c0,12.705-74.22,22.994-165.783,22.994s-165.793-10.289-165.793-22.994c0-12.681,74.235-22.963,165.793-22.963S553.738,383.238,553.738,395.919Z"/><path class="cls-44" d="M553.131,395.936c0,12.658-73.948,22.91-165.176,22.91s-165.186-10.252-165.186-22.91c0-12.635,73.964-22.879,165.186-22.879S553.131,383.3,553.131,395.936Z"/><path class="cls-45" d="M552.523,395.953c0,12.611-73.676,22.825-164.568,22.825s-164.578-10.214-164.578-22.825c0-12.589,73.691-22.795,164.578-22.795S552.523,383.364,552.523,395.953Z"/><path class="cls-46" d="M551.916,395.97c0,12.564-73.4,22.741-163.961,22.741S223.984,408.534,223.984,395.97c0-12.543,73.42-22.711,163.971-22.711S551.916,383.427,551.916,395.97Z"/><path class="cls-47" d="M551.309,395.986c0,12.518-73.132,22.657-163.354,22.657S224.591,408.5,224.591,395.986c0-12.5,73.148-22.626,163.364-22.626S551.309,383.491,551.309,395.986Z"/><path class="cls-48" d="M550.7,396c0,12.471-72.86,22.573-162.746,22.573S225.2,408.474,225.2,396c0-12.449,72.876-22.542,162.757-22.542S550.7,383.554,550.7,396Z"/><path class="cls-49" d="M550.094,396.02c0,12.425-72.588,22.488-162.139,22.488s-162.15-10.063-162.15-22.488c0-12.4,72.605-22.458,162.15-22.458S550.094,383.617,550.094,396.02Z"/><path class="cls-50" d="M549.487,396.037c0,12.378-72.316,22.4-161.532,22.4s-161.542-10.026-161.542-22.4c0-12.357,72.332-22.375,161.542-22.375S549.487,383.68,549.487,396.037Z"/><path class="cls-51" d="M548.879,396.053c0,12.332-72.044,22.32-160.924,22.32s-160.935-9.988-160.935-22.32c0-12.31,72.06-22.29,160.935-22.29S548.879,383.743,548.879,396.053Z"/><path class="cls-52" d="M548.272,396.07c0,12.285-71.772,22.236-160.317,22.236s-160.328-9.951-160.328-22.236c0-12.264,71.789-22.206,160.328-22.206S548.272,383.806,548.272,396.07Z"/><path class="cls-53" d="M547.665,396.087c0,12.238-71.5,22.151-159.71,22.151s-159.721-9.913-159.721-22.151c0-12.218,71.517-22.122,159.721-22.122S547.665,383.869,547.665,396.087Z"/><path class="cls-54" d="M547.058,396.1c0,12.192-71.229,22.067-159.1,22.067S228.842,408.3,228.842,396.1c0-12.171,71.245-22.038,159.113-22.038S547.058,383.933,547.058,396.1Z"/><path class="cls-55" d="M546.45,396.12c0,12.146-70.956,21.984-158.5,21.984s-158.506-9.838-158.506-21.984c0-12.124,70.973-21.953,158.506-21.953S546.45,384,546.45,396.12Z"/><path class="cls-56" d="M545.843,396.137c0,12.1-70.685,21.9-157.888,21.9s-157.9-9.8-157.9-21.9c0-12.078,70.7-21.869,157.9-21.869S545.843,384.059,545.843,396.137Z"/><path class="cls-57" d="M545.236,396.154c0,12.052-70.413,21.815-157.281,21.815s-157.292-9.763-157.292-21.815c0-12.032,70.43-21.785,157.292-21.785S545.236,384.122,545.236,396.154Z"/><path class="cls-58" d="M544.628,396.171c0,12-70.14,21.73-156.673,21.73s-156.685-9.725-156.685-21.73c0-11.986,70.158-21.7,156.685-21.7S544.628,384.185,544.628,396.171Z"/><path class="cls-59" d="M544.021,396.187c0,11.959-69.869,21.647-156.066,21.647s-156.077-9.688-156.077-21.647c0-11.939,69.885-21.617,156.077-21.617S544.021,384.248,544.021,396.187Z"/><path class="cls-60" d="M543.414,396.2c0,11.913-69.6,21.562-155.459,21.562s-155.47-9.649-155.47-21.562c0-11.893,69.614-21.533,155.47-21.533S543.414,384.311,543.414,396.2Z"/><path class="cls-61" d="M542.806,396.221c0,11.866-69.324,21.478-154.851,21.478s-154.863-9.612-154.863-21.478c0-11.846,69.342-21.449,154.863-21.449S542.806,384.375,542.806,396.221Z"/><path class="cls-62" d="M542.2,396.238c0,11.819-69.053,21.393-154.244,21.393S233.7,408.057,233.7,396.238c0-11.8,69.071-21.365,154.256-21.365S542.2,384.438,542.2,396.238Z"/><path class="cls-63" d="M541.592,396.255c0,11.772-68.781,21.309-153.637,21.309s-153.648-9.537-153.648-21.309c0-11.754,68.8-21.281,153.648-21.281S541.592,384.5,541.592,396.255Z"/><path class="cls-64" d="M540.984,396.271c0,11.726-68.508,21.225-153.029,21.225S234.914,408,234.914,396.271c0-11.707,68.526-21.2,153.041-21.2S540.984,384.564,540.984,396.271Z"/><path class="cls-65" d="M540.377,396.288c0,11.68-68.237,21.141-152.422,21.141s-152.434-9.461-152.434-21.141c0-11.661,68.255-21.112,152.434-21.112S540.377,384.627,540.377,396.288Z"/><path class="cls-66" d="M539.77,396.305c0,11.633-67.965,21.056-151.815,21.056s-151.827-9.423-151.827-21.056c0-11.615,67.983-21.029,151.827-21.029S539.77,384.69,539.77,396.305Z"/><path class="cls-67" d="M539.163,396.322c0,11.586-67.693,20.972-151.208,20.972s-151.219-9.386-151.219-20.972c0-11.569,67.71-20.945,151.219-20.945S539.163,384.753,539.163,396.322Z"/><path class="cls-68" d="M538.555,396.338c0,11.54-67.421,20.888-150.6,20.888s-150.612-9.348-150.612-20.888c0-11.522,67.439-20.86,150.612-20.86S538.555,384.816,538.555,396.338Z"/><path class="cls-69" d="M537.948,396.355c0,11.493-67.149,20.8-149.993,20.8s-150-9.311-150-20.8c0-11.475,67.167-20.776,150.005-20.776S537.948,384.88,537.948,396.355Z"/><path class="cls-70" d="M537.341,396.372c0,11.446-66.878,20.719-149.386,20.719s-149.4-9.273-149.4-20.719c0-11.429,66.9-20.692,149.4-20.692S537.341,384.943,537.341,396.372Z"/><path class="cls-71" d="M536.733,396.389c0,11.4-66.6,20.635-148.778,20.635s-148.791-9.235-148.791-20.635c0-11.383,66.624-20.608,148.791-20.608S536.733,385.006,536.733,396.389Z"/><path class="cls-72" d="M536.126,396.405c0,11.354-66.333,20.551-148.171,20.551s-148.183-9.2-148.183-20.551c0-11.336,66.351-20.523,148.183-20.523S536.126,385.069,536.126,396.405Z"/><path class="cls-73" d="M535.519,396.422c0,11.307-66.062,20.467-147.564,20.467s-147.576-9.16-147.576-20.467c0-11.29,66.08-20.439,147.576-20.439S535.519,385.132,535.519,396.422Z"/><path class="cls-74" d="M534.911,396.439c0,11.26-65.789,20.382-146.956,20.382S240.986,407.7,240.986,396.439c0-11.244,65.808-20.356,146.969-20.356S534.911,385.2,534.911,396.439Z"/><path class="cls-75" d="M534.3,396.456c0,11.213-65.517,20.3-146.349,20.3s-146.362-9.085-146.362-20.3,65.536-20.272,146.362-20.272S534.3,385.258,534.3,396.456Z"/><path class="cls-76" d="M533.7,396.472c0,11.168-65.246,20.214-145.742,20.214S242.2,407.64,242.2,396.472c0-11.15,65.264-20.187,145.754-20.187S533.7,385.322,533.7,396.472Z"/><path class="cls-77" d="M533.089,396.489c0,11.121-64.973,20.13-145.134,20.13s-145.147-9.009-145.147-20.13c0-11.1,64.992-20.1,145.147-20.1S533.089,385.385,533.089,396.489Z"/><path class="cls-78" d="M532.482,396.506c0,11.074-64.7,20.045-144.527,20.045s-144.54-8.971-144.54-20.045c0-11.058,64.721-20.019,144.54-20.019S532.482,385.448,532.482,396.506Z"/><path class="cls-79" d="M531.875,396.523c0,11.027-64.43,19.961-143.92,19.961s-143.933-8.934-143.933-19.961,64.449-19.935,143.933-19.935S531.875,385.511,531.875,396.523Z"/><path class="cls-80" d="M531.268,396.539c0,10.981-64.158,19.878-143.313,19.878s-143.325-8.9-143.325-19.878c0-10.965,64.176-19.85,143.325-19.85S531.268,385.574,531.268,396.539Z"/><path class="cls-81" d="M530.66,396.556c0,10.934-63.885,19.793-142.7,19.793s-142.718-8.859-142.718-19.793c0-10.919,63.905-19.766,142.718-19.766S530.66,385.637,530.66,396.556Z"/><path class="cls-82" d="M530.053,396.573c0,10.888-63.614,19.709-142.1,19.709s-142.111-8.821-142.111-19.709c0-10.873,63.633-19.682,142.111-19.682S530.053,385.7,530.053,396.573Z"/><path class="cls-83" d="M529.446,396.59c0,10.841-63.342,19.624-141.491,19.624s-141.5-8.783-141.5-19.624c0-10.826,63.361-19.6,141.5-19.6S529.446,385.764,529.446,396.59Z"/><path class="cls-84" d="M528.838,396.606c0,10.8-63.07,19.541-140.883,19.541s-140.9-8.746-140.9-19.541c0-10.779,63.09-19.514,140.9-19.514S528.838,385.827,528.838,396.606Z"/><path class="cls-85" d="M528.231,396.623c0,10.748-62.8,19.456-140.276,19.456s-140.289-8.708-140.289-19.456,62.817-19.43,140.289-19.43S528.231,385.89,528.231,396.623Z"/><path class="cls-86" d="M527.624,396.64c0,10.7-62.526,19.372-139.669,19.372s-139.682-8.671-139.682-19.372,62.546-19.346,139.682-19.346S527.624,385.953,527.624,396.64Z"/><path class="cls-87" d="M527.016,396.657c0,10.655-62.254,19.287-139.061,19.287S248.88,407.312,248.88,396.657,311.154,377.4,387.955,377.4,527.016,386.016,527.016,396.657Z"/><path class="cls-88" d="M526.409,396.673c0,10.609-61.982,19.2-138.454,19.2s-138.468-8.6-138.468-19.2,62-19.177,138.468-19.177S526.409,386.079,526.409,396.673Z"/><path class="cls-89" d="M525.8,396.69c0,10.562-61.71,19.119-137.847,19.119S250.1,407.252,250.1,396.69s61.73-19.093,137.86-19.093S525.8,386.142,525.8,396.69Z"/><path class="cls-90" d="M525.2,396.707c0,10.515-61.439,19.035-137.24,19.035S250.7,407.222,250.7,396.707,312.16,377.7,387.955,377.7,525.2,386.206,525.2,396.707Z"/><path class="cls-91" d="M524.587,396.724c0,10.468-61.166,18.95-136.632,18.95s-136.646-8.482-136.646-18.95S312.5,377.8,387.955,377.8,524.587,386.269,524.587,396.724Z"/><path class="cls-92" d="M523.98,396.741c0,10.421-60.894,18.866-136.025,18.866s-136.039-8.445-136.039-18.866S312.831,377.9,387.955,377.9,523.98,386.332,523.98,396.741Z"/><path class="cls-93" d="M523.373,396.757c0,10.376-60.623,18.782-135.418,18.782s-135.432-8.406-135.432-18.782S313.166,378,387.955,378,523.373,386.4,523.373,396.757Z"/><path class="cls-94" d="M522.765,396.774c0,10.329-60.35,18.7-134.81,18.7s-134.824-8.369-134.824-18.7S313.5,378.1,387.955,378.1,522.765,386.458,522.765,396.774Z"/><path class="cls-95" d="M522.158,396.791c0,10.282-60.078,18.613-134.2,18.613s-134.217-8.331-134.217-18.613,60.1-18.589,134.217-18.589S522.158,386.521,522.158,396.791Z"/><path class="cls-96" d="M521.551,396.808c0,10.235-59.807,18.529-133.6,18.529s-133.61-8.294-133.61-18.529,59.827-18.5,133.61-18.5S521.551,386.584,521.551,396.808Z"/><path class="cls-97" d="M520.943,396.824c0,10.189-59.534,18.445-132.988,18.445s-133-8.256-133-18.445,59.556-18.42,133-18.42S520.943,386.648,520.943,396.824Z"/><path class="cls-98" d="M520.336,396.841c0,10.143-59.263,18.361-132.381,18.361S255.56,406.984,255.56,396.841s59.283-18.336,132.395-18.336S520.336,386.711,520.336,396.841Z"/><path class="cls-99" d="M519.729,396.858c0,10.1-58.991,18.276-131.774,18.276s-131.788-8.18-131.788-18.276,59.011-18.253,131.788-18.253S519.729,386.774,519.729,396.858Z"/><path class="cls-100" d="M519.121,396.875c0,10.049-58.718,18.192-131.166,18.192s-131.181-8.143-131.181-18.192,58.74-18.169,131.181-18.169S519.121,386.837,519.121,396.875Z"/><path class="cls-101" d="M518.514,396.891c0,10-58.447,18.108-130.559,18.108s-130.574-8.105-130.574-18.108,58.468-18.084,130.574-18.084S518.514,386.9,518.514,396.891Z"/><path class="cls-102" d="M517.907,396.908c0,9.956-58.175,18.024-129.952,18.024s-129.966-8.068-129.966-18.024,58.2-18,129.966-18S517.907,386.963,517.907,396.908Z"/><path class="cls-103" d="M517.3,396.925c0,9.909-57.9,17.939-129.345,17.939S258.6,406.834,258.6,396.925s57.924-17.916,129.359-17.916S517.3,387.026,517.3,396.925Z"/><path class="cls-104" d="M516.692,396.942c0,9.863-57.631,17.855-128.737,17.855S259.2,406.805,259.2,396.942s57.652-17.832,128.752-17.832S516.692,387.089,516.692,396.942Z"/><path class="cls-105" d="M516.085,396.958c0,9.817-57.359,17.772-128.13,17.772S259.81,406.775,259.81,396.958s57.381-17.747,128.145-17.747S516.085,387.153,516.085,396.958Z"/><path class="cls-106" d="M515.478,396.975c0,9.77-57.087,17.687-127.523,17.687s-127.538-7.917-127.538-17.687,57.109-17.663,127.538-17.663S515.478,387.216,515.478,396.975Z"/><path class="cls-107" d="M514.87,396.992c0,9.723-56.815,17.6-126.915,17.6s-126.93-7.88-126.93-17.6,56.836-17.58,126.93-17.58S514.87,387.279,514.87,396.992Z"/><path class="cls-108" d="M514.263,397.009c0,9.676-56.543,17.518-126.308,17.518s-126.323-7.842-126.323-17.518,56.565-17.5,126.323-17.5S514.263,387.342,514.263,397.009Z"/><path class="cls-109" d="M513.656,397.025c0,9.631-56.271,17.435-125.7,17.435s-125.716-7.8-125.716-17.435,56.293-17.411,125.716-17.411S513.656,387.405,513.656,397.025Z"/><path class="cls-110" d="M513.048,397.042c0,9.584-56,17.35-125.093,17.35s-125.109-7.766-125.109-17.35,56.022-17.327,125.109-17.327S513.048,387.468,513.048,397.042Z"/><path class="cls-111" d="M512.441,397.059c0,9.537-55.727,17.266-124.486,17.266s-124.5-7.729-124.5-17.266,55.749-17.243,124.5-17.243S512.441,387.531,512.441,397.059Z"/><path class="cls-112" d="M511.834,397.076c0,9.49-55.455,17.181-123.879,17.181s-123.894-7.691-123.894-17.181,55.477-17.159,123.894-17.159S511.834,387.6,511.834,397.076Z"/><path class="cls-113" d="M511.226,397.092c0,9.444-55.183,17.1-123.271,17.1s-123.287-7.654-123.287-17.1,55.206-17.074,123.287-17.074S511.226,387.658,511.226,397.092Z"/><path class="cls-114" d="M510.619,397.109c0,9.4-54.911,17.013-122.664,17.013s-122.68-7.615-122.68-17.013,54.934-16.99,122.68-16.99S510.619,387.721,510.619,397.109Z"/><path class="cls-115" d="M510.012,397.126c0,9.351-54.64,16.929-122.057,16.929s-122.072-7.578-122.072-16.929,54.661-16.907,122.072-16.907S510.012,387.784,510.012,397.126Z"/><path class="cls-116" d="M509.405,397.143c0,9.3-54.368,16.844-121.45,16.844s-121.465-7.54-121.465-16.844,54.39-16.823,121.465-16.823S509.405,387.847,509.405,397.143Z"/><path class="cls-117" d="M508.8,397.159c0,9.258-54.1,16.761-120.842,16.761S267.1,406.417,267.1,397.159s54.118-16.738,120.858-16.738S508.8,387.91,508.8,397.159Z"/><path class="cls-118" d="M508.19,397.176c0,9.211-53.824,16.676-120.235,16.676S267.7,406.387,267.7,397.176s53.847-16.654,120.251-16.654S508.19,387.973,508.19,397.176Z"/><path class="cls-119" d="M507.583,397.193c0,9.164-53.552,16.592-119.628,16.592s-119.644-7.428-119.644-16.592,53.575-16.57,119.644-16.57S507.583,388.037,507.583,397.193Z"/><path class="cls-120" d="M506.975,397.21c0,9.118-53.279,16.507-119.02,16.507s-119.036-7.389-119.036-16.507,53.3-16.486,119.036-16.486S506.975,388.1,506.975,397.21Z"/><path class="cls-121" d="M506.368,397.227c0,9.071-53.008,16.423-118.413,16.423S269.526,406.3,269.526,397.227s53.031-16.4,118.429-16.4S506.368,388.163,506.368,397.227Z"/><path class="cls-122" d="M505.761,397.243c0,9.025-52.736,16.339-117.806,16.339s-117.822-7.314-117.822-16.339,52.759-16.317,117.822-16.317S505.761,388.226,505.761,397.243Z"/><path class="cls-123" d="M505.153,397.26c0,8.978-52.463,16.255-117.2,16.255S270.74,406.238,270.74,397.26s52.488-16.233,117.215-16.233S505.153,388.289,505.153,397.26Z"/><path class="cls-124" d="M504.546,397.277c0,8.931-52.192,16.17-116.591,16.17s-116.607-7.239-116.607-16.17,52.215-16.15,116.607-16.15S504.546,388.352,504.546,397.277Z"/><path class="cls-125" d="M503.939,397.294c0,8.885-51.92,16.086-115.984,16.086s-116-7.2-116-16.086,51.943-16.066,116-16.066S503.939,388.415,503.939,397.294Z"/><path class="cls-126" d="M503.332,397.31c0,8.839-51.648,16-115.377,16s-115.393-7.163-115.393-16,51.672-15.981,115.393-15.981S503.332,388.479,503.332,397.31Z"/><path class="cls-127" d="M502.724,397.327c0,8.792-51.376,15.918-114.769,15.918s-114.786-7.126-114.786-15.918,51.4-15.9,114.786-15.9S502.724,388.542,502.724,397.327Z"/><path class="cls-128" d="M502.117,397.344c0,8.745-51.1,15.833-114.162,15.833s-114.179-7.088-114.179-15.833,51.128-15.813,114.179-15.813S502.117,388.605,502.117,397.344Z"/><path class="cls-129" d="M501.51,397.361c0,8.7-50.833,15.749-113.555,15.749s-113.571-7.051-113.571-15.749,50.856-15.729,113.571-15.729S501.51,388.668,501.51,397.361Z"/><path class="cls-130" d="M500.9,397.377c0,8.652-50.56,15.666-112.947,15.666s-112.964-7.014-112.964-15.666,50.584-15.644,112.964-15.644S500.9,388.731,500.9,397.377Z"/><path class="cls-131" d="M500.3,397.394c0,8.606-50.288,15.581-112.34,15.581S275.6,406,275.6,397.394s50.313-15.56,112.357-15.56S500.3,388.794,500.3,397.394Z"/><path class="cls-132" d="M499.688,397.411c0,8.559-50.017,15.5-111.733,15.5s-111.75-6.938-111.75-15.5,50.041-15.477,111.75-15.477S499.688,388.857,499.688,397.411Z"/><path class="cls-133" d="M499.08,397.428c0,8.512-49.744,15.412-111.125,15.412s-111.142-6.9-111.142-15.412,49.768-15.393,111.142-15.393S499.08,388.92,499.08,397.428Z"/><path class="cls-134" d="M498.473,397.444c0,8.466-49.472,15.329-110.518,15.329S277.42,405.91,277.42,397.444s49.5-15.308,110.535-15.308S498.473,388.984,498.473,397.444Z"/><path class="cls-135" d="M497.866,397.461c0,8.419-49.2,15.244-109.911,15.244s-109.928-6.825-109.928-15.244,49.225-15.224,109.928-15.224S497.866,389.047,497.866,397.461Z"/><path class="cls-136" d="M497.258,397.478c0,8.373-48.928,15.16-109.3,15.16s-109.321-6.787-109.321-15.16,48.953-15.14,109.321-15.14S497.258,389.11,497.258,397.478Z"/><path class="cls-137" d="M496.651,397.5c0,8.326-48.656,15.075-108.7,15.075S279.242,405.821,279.242,397.5s48.681-15.056,108.713-15.056S496.651,389.173,496.651,397.5Z"/><path class="cls-138" d="M496.044,397.511c0,8.28-48.385,14.992-108.089,14.992s-108.106-6.712-108.106-14.992,48.409-14.971,108.106-14.971S496.044,389.236,496.044,397.511Z"/><path class="cls-139" d="M495.437,397.528c0,8.233-48.113,14.907-107.482,14.907s-107.5-6.674-107.5-14.907,48.138-14.887,107.5-14.887S495.437,389.3,495.437,397.528Z"/><path class="cls-140" d="M494.829,397.545c0,8.186-47.84,14.823-106.874,14.823s-106.892-6.637-106.892-14.823,47.866-14.8,106.892-14.8S494.829,389.362,494.829,397.545Z"/><path class="cls-141" d="M494.222,397.562c0,8.139-47.569,14.738-106.267,14.738S281.67,405.7,281.67,397.562s47.594-14.72,106.285-14.72S494.222,389.426,494.222,397.562Z"/><path class="cls-142" d="M493.615,397.578c0,8.094-47.3,14.655-105.66,14.655s-105.677-6.561-105.677-14.655,47.322-14.635,105.677-14.635S493.615,389.489,493.615,397.578Z"/><path class="cls-143" d="M493.007,397.6c0,8.047-47.025,14.57-105.052,14.57s-105.07-6.523-105.07-14.57,47.05-14.551,105.07-14.551S493.007,389.552,493.007,397.6Z"/><path class="cls-144" d="M492.4,397.612c0,8-46.753,14.486-104.445,14.486s-104.463-6.486-104.463-14.486,46.778-14.467,104.463-14.467S492.4,389.615,492.4,397.612Z"/><path class="cls-145" d="M491.793,397.629c0,7.953-46.481,14.4-103.838,14.4S284.1,405.582,284.1,397.629s46.507-14.383,103.856-14.383S491.793,389.678,491.793,397.629Z"/><path class="cls-146" d="M491.185,397.645c0,7.907-46.209,14.318-103.23,14.318s-103.248-6.411-103.248-14.318,46.234-14.3,103.248-14.3S491.185,389.741,491.185,397.645Z"/><path class="cls-147" d="M490.578,397.662c0,7.861-45.937,14.233-102.623,14.233s-102.641-6.372-102.641-14.233,45.963-14.214,102.641-14.214S490.578,389.8,490.578,397.662Z"/><path class="cls-148" d="M489.971,397.679c0,7.814-45.665,14.149-102.016,14.149s-102.034-6.335-102.034-14.149,45.691-14.131,102.034-14.131S489.971,389.868,489.971,397.679Z"/><path class="cls-149" d="M489.363,397.7c0,7.767-45.393,14.064-101.408,14.064s-101.427-6.3-101.427-14.064,45.419-14.047,101.427-14.047S489.363,389.931,489.363,397.7Z"/><path class="cls-150" d="M488.756,397.713c0,7.72-45.121,13.98-100.8,13.98s-100.819-6.26-100.819-13.98,45.147-13.963,100.819-13.963S488.756,389.994,488.756,397.713Z"/><path class="cls-151" d="M488.149,397.729c0,7.674-44.849,13.9-100.194,13.9s-100.212-6.222-100.212-13.9,44.875-13.878,100.212-13.878S488.149,390.057,488.149,397.729Z"/><path class="cls-152" d="M487.542,397.746c0,7.627-44.578,13.812-99.587,13.812s-99.6-6.185-99.6-13.812,44.6-13.794,99.6-13.794S487.542,390.12,487.542,397.746Z"/><path class="cls-153" d="M486.934,397.763c0,7.581-44.305,13.728-98.979,13.728s-99-6.147-99-13.728,44.332-13.71,99-13.71S486.934,390.183,486.934,397.763Z"/><path class="cls-154" d="M486.327,397.78c0,7.534-44.033,13.643-98.372,13.643s-98.391-6.109-98.391-13.643,44.06-13.626,98.391-13.626S486.327,390.246,486.327,397.78Z"/><path class="cls-155" d="M485.72,397.8c0,7.488-43.762,13.56-97.765,13.56s-97.783-6.072-97.783-13.56,43.788-13.541,97.783-13.541S485.72,390.31,485.72,397.8Z"/><path class="cls-156" d="M485.112,397.813c0,7.441-43.489,13.475-97.157,13.475s-97.176-6.034-97.176-13.475,43.516-13.458,97.176-13.458S485.112,390.373,485.112,397.813Z"/><path class="cls-157" d="M484.505,397.83c0,7.394-43.217,13.391-96.55,13.391s-96.569-6-96.569-13.391,43.244-13.374,96.569-13.374S484.505,390.436,484.505,397.83Z"/><path class="cls-158" d="M483.9,397.847c0,7.348-42.946,13.306-95.943,13.306s-95.962-5.958-95.962-13.306,42.973-13.29,95.962-13.29S483.9,390.5,483.9,397.847Z"/><path class="cls-159" d="M483.29,397.863c0,7.3-42.673,13.223-95.335,13.223S292.6,405.165,292.6,397.863s42.7-13.2,95.354-13.2S483.29,390.562,483.29,397.863Z"/><path class="cls-160" d="M482.683,397.88c0,7.255-42.4,13.138-94.728,13.138s-94.747-5.883-94.747-13.138,42.428-13.121,94.747-13.121S482.683,390.625,482.683,397.88Z"/><path class="cls-161" d="M482.076,397.9c0,7.208-42.13,13.054-94.121,13.054s-94.14-5.846-94.14-13.054,42.157-13.037,94.14-13.037S482.076,390.688,482.076,397.9Z"/><path class="cls-162" d="M481.469,397.914c0,7.161-41.858,12.969-93.514,12.969s-93.533-5.808-93.533-12.969,41.885-12.953,93.533-12.953S481.469,390.752,481.469,397.914Z"/><path class="cls-163" d="M480.861,397.93c0,7.115-41.586,12.886-92.906,12.886s-92.926-5.771-92.926-12.886,41.614-12.868,92.926-12.868S480.861,390.815,480.861,397.93Z"/><path class="cls-164" d="M480.254,397.947c0,7.069-41.314,12.8-92.3,12.8s-92.318-5.732-92.318-12.8,41.341-12.784,92.318-12.784S480.254,390.878,480.254,397.947Z"/><path class="cls-165" d="M479.647,397.964c0,7.022-41.042,12.717-91.692,12.717s-91.711-5.695-91.711-12.717,41.069-12.7,91.711-12.7S479.647,390.941,479.647,397.964Z"/><path class="cls-166" d="M479.039,397.981c0,6.975-40.77,12.632-91.084,12.632s-91.1-5.657-91.1-12.632,40.8-12.617,91.1-12.617S479.039,391,479.039,397.981Z"/><path class="cls-167" d="M478.432,398c0,6.929-40.5,12.549-90.477,12.549s-90.5-5.62-90.5-12.549,40.526-12.532,90.5-12.532S478.432,391.067,478.432,398Z"/><path class="cls-168" d="M477.825,398.014c0,6.882-40.226,12.464-89.87,12.464s-89.889-5.582-89.889-12.464,40.253-12.448,89.889-12.448S477.825,391.13,477.825,398.014Z"/><path class="cls-169" d="M477.217,398.031c0,6.836-39.954,12.38-89.262,12.38s-89.282-5.544-89.282-12.38,39.982-12.364,89.282-12.364S477.217,391.193,477.217,398.031Z"/><path class="cls-170" d="M476.61,398.048c0,6.789-39.682,12.3-88.655,12.3s-88.675-5.506-88.675-12.3,39.71-12.28,88.675-12.28S476.61,391.257,476.61,398.048Z"/><path class="cls-171" d="M476,398.064c0,6.743-39.41,12.212-88.048,12.212s-88.068-5.469-88.068-12.212,39.439-12.195,88.068-12.195S476,391.32,476,398.064Z"/><path class="cls-172" d="M475.4,398.081c0,6.7-39.138,12.127-87.44,12.127s-87.46-5.431-87.46-12.127,39.166-12.111,87.46-12.111S475.4,391.383,475.4,398.081Z"/><path class="cls-173" d="M474.788,398.1c0,6.649-38.866,12.043-86.833,12.043S301.1,404.747,301.1,398.1,340,386.07,387.955,386.07,474.788,391.446,474.788,398.1Z"/><path class="cls-174" d="M474.181,398.115c0,6.6-38.595,11.958-86.226,11.958s-86.246-5.356-86.246-11.958,38.623-11.944,86.246-11.944S474.181,391.509,474.181,398.115Z"/><path class="cls-175" d="M473.574,398.131c0,6.557-38.323,11.875-85.619,11.875s-85.639-5.318-85.639-11.875,38.351-11.859,85.639-11.859S473.574,391.572,473.574,398.131Z"/><path class="cls-176" d="M472.966,398.148c0,6.51-38.05,11.79-85.011,11.79s-85.032-5.28-85.032-11.79S341,386.373,387.955,386.373,472.966,391.635,472.966,398.148Z"/><path class="cls-177" d="M472.359,398.165c0,6.463-37.779,11.706-84.4,11.706s-84.424-5.243-84.424-11.706,37.807-11.691,84.424-11.691S472.359,391.7,472.359,398.165Z"/><path class="cls-178" d="M471.752,398.182c0,6.416-37.507,11.622-83.8,11.622s-83.817-5.206-83.817-11.622,37.535-11.607,83.817-11.607S471.752,391.762,471.752,398.182Z"/><path class="cls-179" d="M471.144,398.2c0,6.369-37.234,11.537-83.189,11.537s-83.21-5.168-83.21-11.537,37.264-11.523,83.21-11.523S471.144,391.825,471.144,398.2Z"/><path class="cls-180" d="M470.537,398.215c0,6.324-36.963,11.454-82.582,11.454s-82.6-5.13-82.6-11.454,36.992-11.438,82.6-11.438S470.537,391.888,470.537,398.215Z"/><path class="cls-181" d="M469.93,398.232c0,6.277-36.691,11.369-81.975,11.369s-81.995-5.092-81.995-11.369,36.719-11.355,82-11.355S469.93,391.951,469.93,398.232Z"/><path class="cls-182" d="M469.322,398.249c0,6.23-36.418,11.285-81.367,11.285s-81.388-5.055-81.388-11.285,36.448-11.271,81.388-11.271S469.322,392.014,469.322,398.249Z"/><path class="cls-183" d="M468.715,398.266c0,6.183-36.147,11.2-80.76,11.2s-80.781-5.017-80.781-11.2,36.176-11.187,80.781-11.187S468.715,392.077,468.715,398.266Z"/><path class="cls-184" d="M468.108,398.282c0,6.137-35.875,11.117-80.153,11.117s-80.174-4.98-80.174-11.117,35.9-11.1,80.174-11.1S468.108,392.141,468.108,398.282Z"/><path class="cls-185" d="M467.5,398.3c0,6.091-35.6,11.032-79.545,11.032s-79.566-4.941-79.566-11.032,35.632-11.018,79.566-11.018S467.5,392.2,467.5,398.3Z"/><path class="cls-186" d="M466.893,398.316c0,6.044-35.331,10.948-78.938,10.948S309,404.36,309,398.316s35.36-10.934,78.959-10.934S466.893,392.267,466.893,398.316Z"/><path class="cls-187" d="M466.286,398.333c0,6-35.059,10.863-78.331,10.863S309.6,404.33,309.6,398.333s35.089-10.85,78.352-10.85S466.286,392.33,466.286,398.333Z"/><path class="cls-188" d="M465.679,398.349c0,5.951-34.788,10.78-77.724,10.78s-77.745-4.829-77.745-10.78,34.817-10.765,77.745-10.765S465.679,392.393,465.679,398.349Z"/><path class="cls-189" d="M465.071,398.366c0,5.9-34.515,10.695-77.116,10.695s-77.138-4.791-77.138-10.695,34.545-10.682,77.138-10.682S465.071,392.456,465.071,398.366Z"/><path class="cls-190" d="M464.464,398.383c0,5.857-34.243,10.611-76.509,10.611s-76.53-4.754-76.53-10.611,34.273-10.6,76.53-10.6S464.464,392.519,464.464,398.383Z"/><path class="cls-191" d="M463.857,398.4c0,5.811-33.972,10.526-75.9,10.526s-75.923-4.715-75.923-10.526,34-10.514,75.923-10.514S463.857,392.583,463.857,398.4Z"/><path class="cls-192" d="M463.249,398.416c0,5.765-33.7,10.443-75.294,10.443s-75.316-4.678-75.316-10.443,33.729-10.429,75.316-10.429S463.249,392.646,463.249,398.416Z"/><path class="cls-193" d="M462.642,398.433c0,5.718-33.427,10.358-74.687,10.358s-74.709-4.64-74.709-10.358,33.458-10.345,74.709-10.345S462.642,392.709,462.642,398.433Z"/><path class="cls-194" d="M462.035,398.45c0,5.671-33.156,10.274-74.08,10.274s-74.1-4.6-74.1-10.274,33.185-10.261,74.1-10.261S462.035,392.772,462.035,398.45Z"/><path class="cls-195" d="M461.427,398.467c0,5.624-32.883,10.189-73.472,10.189s-73.494-4.565-73.494-10.189,32.914-10.177,73.494-10.177S461.427,392.835,461.427,398.467Z"/><path class="cls-196" d="M460.82,398.483c0,5.579-32.611,10.106-72.865,10.106s-72.887-4.527-72.887-10.106,32.642-10.092,72.887-10.092S460.82,392.9,460.82,398.483Z"/><path class="cls-197" d="M460.213,398.5c0,5.532-32.34,10.021-72.258,10.021s-72.28-4.489-72.28-10.021,32.37-10.009,72.28-10.009S460.213,392.961,460.213,398.5Z"/><path class="cls-198" d="M459.605,398.517c0,5.485-32.067,9.937-71.65,9.937s-71.673-4.452-71.673-9.937,32.1-9.925,71.673-9.925S459.605,393.025,459.605,398.517Z"/><path class="cls-199" d="M459,398.534c0,5.438-31.8,9.852-71.043,9.852s-71.065-4.414-71.065-9.852,31.826-9.841,71.065-9.841S459,393.088,459,398.534Z"/><path class="cls-200" d="M458.391,398.55c0,5.392-31.524,9.769-70.436,9.769S317.5,403.942,317.5,398.55s31.554-9.756,70.458-9.756S458.391,393.151,458.391,398.55Z"/><path class="cls-201" d="M457.784,398.567c0,5.345-31.252,9.684-69.829,9.684s-69.851-4.339-69.851-9.684,31.283-9.672,69.851-9.672S457.784,393.214,457.784,398.567Z"/><path class="cls-202" d="M457.176,398.584c0,5.3-30.98,9.6-69.221,9.6s-69.244-4.3-69.244-9.6S349.722,389,387.955,389,457.176,393.277,457.176,398.584Z"/><path class="cls-203" d="M456.569,398.6c0,5.252-30.708,9.516-68.614,9.516s-68.636-4.264-68.636-9.516,30.739-9.5,68.636-9.5S456.569,393.34,456.569,398.6Z"/><path class="cls-204" d="M455.962,398.617c0,5.206-30.436,9.432-68.007,9.432s-68.029-4.226-68.029-9.432,30.467-9.419,68.029-9.419S455.962,393.4,455.962,398.617Z"/><path class="cls-205" d="M455.354,398.634c0,5.159-30.164,9.348-67.4,9.348s-67.422-4.189-67.422-9.348,30.195-9.335,67.422-9.335S455.354,393.466,455.354,398.634Z"/><path class="cls-206" d="M454.747,398.651c0,5.112-29.892,9.263-66.792,9.263s-66.815-4.151-66.815-9.263,29.924-9.252,66.815-9.252S454.747,393.53,454.747,398.651Z"/><path class="cls-207" d="M454.14,398.668c0,5.066-29.62,9.179-66.185,9.179s-66.207-4.113-66.207-9.179S351.4,389.5,387.955,389.5,454.14,393.593,454.14,398.668Z"/><path class="cls-208" d="M453.532,398.684c0,5.02-29.348,9.095-65.577,9.095s-65.6-4.075-65.6-9.095,29.379-9.083,65.6-9.083S453.532,393.656,453.532,398.684Z"/><path class="cls-209" d="M452.925,398.7c0,4.973-29.076,9.011-64.97,9.011s-64.993-4.038-64.993-9.011,29.108-9,64.993-9S452.925,393.719,452.925,398.7Z"/><path class="cls-210" d="M452.318,398.718c0,4.926-28.8,8.926-64.363,8.926s-64.386-4-64.386-8.926,28.836-8.915,64.386-8.915S452.318,393.782,452.318,398.718Z"/><path class="cls-211" d="M451.711,398.735c0,4.879-28.533,8.842-63.756,8.842s-63.779-3.963-63.779-8.842,28.565-8.831,63.779-8.831S451.711,393.845,451.711,398.735Z"/><path class="cls-212" d="M451.1,398.752c0,4.832-28.26,8.757-63.148,8.757s-63.171-3.925-63.171-8.757,28.292-8.747,63.171-8.747S451.1,393.908,451.1,398.752Z"/><path class="cls-213" d="M450.5,398.768c0,4.787-27.988,8.674-62.541,8.674s-62.564-3.887-62.564-8.674,28.02-8.662,62.564-8.662S450.5,393.972,450.5,398.768Z"/><path class="cls-214" d="M449.889,398.785c0,4.74-27.717,8.589-61.934,8.589S326,403.525,326,398.785s27.749-8.579,61.957-8.579S449.889,394.035,449.889,398.785Z"/><path class="cls-215" d="M449.281,398.8c0,4.693-27.444,8.5-61.326,8.5s-61.35-3.812-61.35-8.5,27.477-8.5,61.35-8.5S449.281,394.1,449.281,398.8Z"/><path class="cls-216" d="M448.674,398.819c0,4.646-27.172,8.42-60.719,8.42s-60.742-3.774-60.742-8.42,27.2-8.411,60.742-8.411S448.674,394.161,448.674,398.819Z"/><path class="cls-217" d="M448.067,398.835c0,4.6-26.9,8.337-60.112,8.337s-60.135-3.737-60.135-8.337,26.933-8.326,60.135-8.326S448.067,394.224,448.067,398.835Z"/><path class="cls-218" d="M447.459,398.852c0,4.554-26.628,8.252-59.5,8.252s-59.528-3.7-59.528-8.252,26.661-8.242,59.528-8.242S447.459,394.287,447.459,398.852Z"/><path class="cls-219" d="M446.852,398.869c0,4.507-26.357,8.168-58.9,8.168s-58.921-3.661-58.921-8.168,26.39-8.158,58.921-8.158S446.852,394.35,446.852,398.869Z"/><path class="cls-220" d="M446.245,398.886c0,4.46-26.085,8.083-58.29,8.083s-58.313-3.623-58.313-8.083,26.117-8.074,58.313-8.074S446.245,394.414,446.245,398.886Z"/><path class="cls-221" d="M445.637,398.9c0,4.414-25.812,8-57.682,8s-57.706-3.586-57.706-8,25.845-7.989,57.706-7.989S445.637,394.477,445.637,398.9Z"/><path class="cls-222" d="M445.03,398.919c0,4.367-25.541,7.915-57.075,7.915s-57.1-3.548-57.1-7.915,25.574-7.906,57.1-7.906S445.03,394.54,445.03,398.919Z"/><path class="cls-223" d="M444.423,398.936c0,4.32-25.269,7.831-56.468,7.831s-56.492-3.511-56.492-7.831,25.3-7.822,56.492-7.822S444.423,394.6,444.423,398.936Z"/><path class="cls-224" d="M443.816,398.953c0,4.274-25,7.746-55.861,7.746s-55.885-3.472-55.885-7.746,25.03-7.738,55.885-7.738S443.816,394.666,443.816,398.953Z"/><path class="cls-225" d="M443.208,398.969c0,4.228-24.725,7.663-55.253,7.663s-55.277-3.435-55.277-7.663,24.758-7.653,55.277-7.653S443.208,394.729,443.208,398.969Z"/><path class="cls-226" d="M442.6,398.986c0,4.181-24.453,7.578-54.646,7.578s-54.67-3.4-54.67-7.578,24.486-7.569,54.67-7.569S442.6,394.792,442.6,398.986Z"/><path class="cls-227" d="M441.994,399c0,4.134-24.181,7.494-54.039,7.494s-54.063-3.36-54.063-7.494,24.215-7.485,54.063-7.485S441.994,394.856,441.994,399Z"/><path class="cls-228" d="M441.386,399.02c0,4.087-23.909,7.41-53.431,7.41s-53.456-3.323-53.456-7.41,23.943-7.4,53.456-7.4S441.386,394.919,441.386,399.02Z"/><path class="cls-229" d="M440.779,399.036c0,4.042-23.637,7.326-52.824,7.326s-52.848-3.284-52.848-7.326,23.67-7.316,52.848-7.316S440.779,394.982,440.779,399.036Z"/><path class="cls-230" d="M440.172,399.053c0,4-23.365,7.242-52.217,7.242s-52.241-3.247-52.241-7.242,23.4-7.233,52.241-7.233S440.172,395.045,440.172,399.053Z"/><path class="cls-231" d="M439.564,399.07c0,3.948-23.093,7.157-51.609,7.157s-51.634-3.209-51.634-7.157,23.127-7.149,51.634-7.149S439.564,395.108,439.564,399.07Z"/><path class="cls-232" d="M438.957,399.087c0,3.9-22.821,7.073-51,7.073s-51.027-3.172-51.027-7.073,22.855-7.065,51.027-7.065S438.957,395.171,438.957,399.087Z"/><path class="cls-233" d="M438.35,399.1c0,3.855-22.55,6.989-50.4,6.989s-50.42-3.134-50.42-6.989,22.584-6.98,50.42-6.98S438.35,395.234,438.35,399.1Z"/><path class="cls-234" d="M437.742,399.12c0,3.808-22.277,6.9-49.787,6.9s-49.812-3.1-49.812-6.9,22.311-6.9,49.812-6.9S437.742,395.3,437.742,399.12Z"/><path class="cls-235" d="M437.135,399.137c0,3.762-22,6.82-49.18,6.82s-49.2-3.058-49.2-6.82,22.04-6.812,49.2-6.812S437.135,395.361,437.135,399.137Z"/><path class="cls-236" d="M436.528,399.154c0,3.715-21.734,6.736-48.573,6.736s-48.6-3.021-48.6-6.736,21.768-6.728,48.6-6.728S436.528,395.424,436.528,399.154Z"/><path class="cls-237" d="M435.921,399.17c0,3.669-21.462,6.652-47.966,6.652s-47.991-2.983-47.991-6.652,21.5-6.643,47.991-6.643S435.921,395.487,435.921,399.17Z"/><path class="cls-238" d="M435.313,399.187c0,3.622-21.189,6.568-47.358,6.568s-47.383-2.946-47.383-6.568,21.224-6.56,47.383-6.56S435.313,395.55,435.313,399.187Z"/><path class="cls-239" d="M434.706,399.2c0,3.575-20.918,6.483-46.751,6.483s-46.776-2.908-46.776-6.483c0-3.591,20.952-6.476,46.776-6.476S434.706,395.613,434.706,399.2Z"/><path class="cls-240" d="M434.1,399.221c0,3.529-20.646,6.4-46.144,6.4s-46.169-2.87-46.169-6.4c0-3.545,20.681-6.392,46.169-6.392S434.1,395.676,434.1,399.221Z"/><path class="cls-241" d="M433.491,399.238c0,3.482-20.373,6.314-45.536,6.314s-45.562-2.832-45.562-6.314c0-3.5,20.409-6.308,45.562-6.308S433.491,395.739,433.491,399.238Z"/><path class="cls-242" d="M432.884,399.254c0,3.436-20.1,6.231-44.929,6.231S343,402.69,343,399.254c0-3.451,20.136-6.223,44.954-6.223S432.884,395.8,432.884,399.254Z"/><path class="cls-243" d="M432.277,399.271c0,3.389-19.83,6.146-44.322,6.146s-44.347-2.757-44.347-6.146c0-3.405,19.865-6.139,44.347-6.139S432.277,395.866,432.277,399.271Z"/><path class="cls-244" d="M431.669,399.288c0,3.342-19.557,6.062-43.714,6.062s-43.74-2.72-43.74-6.062c0-3.359,19.593-6.055,43.74-6.055S431.669,395.929,431.669,399.288Z"/><path class="cls-245" d="M431.062,399.305c0,3.3-19.286,5.977-43.107,5.977s-43.133-2.682-43.133-5.977c0-3.313,19.321-5.971,43.133-5.971S431.062,395.992,431.062,399.305Z"/><path class="cls-246" d="M430.455,399.321c0,3.25-19.014,5.894-42.5,5.894s-42.526-2.644-42.526-5.894c0-3.266,19.05-5.886,42.526-5.886S430.455,396.055,430.455,399.321Z"/><path class="cls-247" d="M429.848,399.338c0,3.2-18.743,5.809-41.893,5.809s-41.918-2.606-41.918-5.809c0-3.22,18.777-5.8,41.918-5.8S429.848,396.118,429.848,399.338Z"/><path class="cls-248" d="M429.24,399.355c0,3.156-18.47,5.725-41.285,5.725s-41.311-2.569-41.311-5.725c0-3.174,18.506-5.719,41.311-5.719S429.24,396.181,429.24,399.355Z"/><path class="cls-249" d="M428.633,399.372c0,3.109-18.2,5.64-40.678,5.64s-40.7-2.531-40.7-5.64c0-3.127,18.234-5.635,40.7-5.635S428.633,396.245,428.633,399.372Z"/><path class="cls-250" d="M428.026,399.388c0,3.063-17.927,5.557-40.071,5.557s-40.1-2.494-40.1-5.557c0-3.08,17.962-5.55,40.1-5.55S428.026,396.308,428.026,399.388Z"/><path class="cls-251" d="M427.418,399.405c0,3.017-17.654,5.472-39.463,5.472s-39.489-2.455-39.489-5.472c0-3.034,17.69-5.466,39.489-5.466S427.418,396.371,427.418,399.405Z"/><path class="cls-252" d="M426.811,399.422c0,2.97-17.382,5.388-38.856,5.388s-38.882-2.418-38.882-5.388c0-2.988,17.418-5.382,38.882-5.382S426.811,396.434,426.811,399.422Z"/><path class="cls-253" d="M426.2,399.439c0,2.923-17.111,5.3-38.249,5.3s-38.275-2.381-38.275-5.3c0-2.942,17.146-5.3,38.275-5.3S426.2,396.5,426.2,399.439Z"/><path class="cls-254" d="M425.6,399.455c0,2.877-16.838,5.22-37.641,5.22s-37.668-2.343-37.668-5.22c0-2.895,16.875-5.213,37.668-5.213S425.6,396.56,425.6,399.455Z"/><path class="cls-255" d="M424.989,399.472c0,2.83-16.566,5.136-37.034,5.136s-37.06-2.306-37.06-5.136c0-2.849,16.6-5.13,37.06-5.13S424.989,396.623,424.989,399.472Z"/><path class="cls-256" d="M424.382,399.489c0,2.783-16.3,5.051-36.427,5.051s-36.453-2.268-36.453-5.051c0-2.8,16.331-5.046,36.453-5.046S424.382,396.687,424.382,399.489Z"/><path class="cls-257" d="M423.774,399.506c0,2.737-16.022,4.967-35.819,4.967s-35.846-2.23-35.846-4.967c0-2.756,16.059-4.962,35.846-4.962S423.774,396.75,423.774,399.506Z"/><path class="cls-258" d="M423.167,399.522c0,2.691-15.75,4.883-35.212,4.883s-35.239-2.192-35.239-4.883c0-2.709,15.787-4.877,35.239-4.877S423.167,396.813,423.167,399.522Z"/><path class="cls-259" d="M422.56,399.539c0,2.644-15.479,4.8-34.605,4.8s-34.632-2.155-34.632-4.8c0-2.663,15.516-4.793,34.632-4.793S422.56,396.876,422.56,399.539Z"/><path d="M421.953,399.556c0,2.6-15.207,4.714-34,4.714s-34.024-2.117-34.024-4.714c0-2.617,15.243-4.709,34.024-4.709S421.953,396.939,421.953,399.556Z"/></g></g></g></svg>