<svg xmlns="http://www.w3.org/2000/svg" viewBox="0 0 800 600"><defs><style>.cls-1{isolation:isolate;}.cls-2{fill:#3a3a8c;}.cls-166,.cls-3{fill:#5e5e5e;}.cls-4{opacity:0.2;mix-blend-mode:multiply;}.cls-5{fill:#fff;opacity:0;}.cls-6{fill:#fefefe;opacity:0.004;}.cls-7{fill:#fdfdfd;opacity:0.008;}.cls-8{fill:#fcfcfc;opacity:0.012;}.cls-9{fill:#fbfbfb;opacity:0.016;}.cls-10{fill:#fafafa;opacity:0.02;}.cls-11{fill:#f9f9f9;opacity:0.024;}.cls-12{fill:#f8f8f8;opacity:0.027;}.cls-13{fill:#f7f7f7;opacity:0.031;}.cls-14{fill:#f6f6f6;opacity:0.035;}.cls-15{fill:#f5f5f5;opacity:0.039;}.cls-16{fill:#f4f4f4;opacity:0.043;}.cls-17{fill:#f3f3f3;opacity:0.047;}.cls-18{fill:#f2f2f2;opacity:0.051;}.cls-19{fill:#f1f1f1;opacity:0.055;}.cls-20{fill:#f0f0f0;opacity:0.059;}.cls-21{fill:#efefef;opacity:0.063;}.cls-22{fill:#eee;opacity:0.067;}.cls-23{fill:#ededed;opacity:0.071;}.cls-24{fill:#ececec;opacity:0.075;}.cls-25{fill:#ebebeb;opacity:0.078;}.cls-26{fill:#eaeaea;opacity:0.082;}.cls-27{fill:#e9e9e9;opacity:0.086;}.cls-28{fill:#e8e8e8;opacity:0.09;}.cls-29{fill:#e7e7e7;opacity:0.094;}.cls-30{fill:#e6e6e6;opacity:0.098;}.cls-31{fill:#e5e5e5;opacity:0.102;}.cls-32{fill:#e4e4e4;opacity:0.106;}.cls-33{fill:#e3e3e3;opacity:0.11;}.cls-34{fill:#e2e2e2;opacity:0.114;}.cls-35{fill:#e1e1e1;opacity:0.118;}.cls-36{fill:#e0e0e0;opacity:0.122;}.cls-37{fill:#dfdfdf;opacity:0.125;}.cls-38{fill:#dedede;opacity:0.129;}.cls-39{fill:#ddd;opacity:0.133;}.cls-40{fill:#dcdcdc;opacity:0.137;}.cls-41{fill:#dbdbdb;opacity:0.141;}.cls-42{fill:#dadada;opacity:0.145;}.cls-43{fill:#d9d9d9;opacity:0.149;}.cls-44{fill:#d8d8d8;opacity:0.153;}.cls-45{fill:#d7d7d7;opacity:0.157;}.cls-46{fill:#d6d6d6;opacity:0.161;}.cls-47{fill:#d5d5d5;opacity:0.165;}.cls-48{fill:#d4d4d4;opacity:0.169;}.cls-49{fill:#d3d3d3;opacity:0.173;}.cls-50{fill:#d2d2d2;opacity:0.176;}.cls-51{fill:#d1d1d1;opacity:0.18;}.cls-52{fill:#d0d0d0;opacity:0.184;}.cls-53{fill:#cfcfcf;opacity:0.188;}.cls-54{fill:#cecece;opacity:0.192;}.cls-55{fill:#cdcdcd;opacity:0.196;}.cls-56{fill:#ccc;opacity:0.2;}.cls-57{fill:#cbcbcb;opacity:0.204;}.cls-58{fill:#cacaca;opacity:0.208;}.cls-59{fill:#c9c9c9;opacity:0.212;}.cls-60{fill:#c8c8c8;opacity:0.216;}.cls-61{fill:#c7c7c7;opacity:0.22;}.cls-62{fill:#c6c6c6;opacity:0.224;}.cls-63{fill:#c5c5c5;opacity:0.227;}.cls-64{fill:#c4c4c4;opacity:0.231;}.cls-65{fill:#c3c3c3;opacity:0.235;}.cls-66{fill:#c2c2c2;opacity:0.239;}.cls-67{fill:#c1c1c1;opacity:0.243;}.cls-68{fill:silver;opacity:0.247;}.cls-69{fill:#bfbfbf;opacity:0.251;}.cls-70{fill:#bebebe;opacity:0.255;}.cls-71{fill:#bdbdbd;opacity:0.259;}.cls-72{fill:#bcbcbc;opacity:0.263;}.cls-73{fill:#bbb;opacity:0.267;}.cls-74{fill:#bababa;opacity:0.271;}.cls-75{fill:#b9b9b9;opacity:0.275;}.cls-76{fill:#b8b8b8;opacity:0.278;}.cls-77{fill:#b7b7b7;opacity:0.282;}.cls-78{fill:#b6b6b6;opacity:0.286;}.cls-79{fill:#b5b5b5;opacity:0.29;}.cls-80{fill:#b4b4b4;opacity:0.294;}.cls-81{fill:#b3b3b3;opacity:0.298;}.cls-82{fill:#b2b2b2;opacity:0.302;}.cls-83{fill:#b1b1b1;opacity:0.306;}.cls-84{fill:#b0b0b0;opacity:0.31;}.cls-85{fill:#afafaf;opacity:0.314;}.cls-86{fill:#aeaeae;opacity:0.318;}.cls-87{fill:#adadad;opacity:0.322;}.cls-88{fill:#acacac;opacity:0.325;}.cls-89{fill:#ababab;opacity:0.329;}.cls-90{fill:#aaa;opacity:0.333;}.cls-91{fill:#a9a9a9;opacity:0.337;}.cls-92{fill:#a8a8a8;opacity:0.341;}.cls-93{fill:#a7a7a7;opacity:0.345;}.cls-94{fill:#a6a6a6;opacity:0.349;}.cls-95{fill:#a5a5a5;opacity:0.353;}.cls-96{fill:#a4a4a4;opacity:0.357;}.cls-97{fill:#a3a3a3;opacity:0.361;}.cls-98{fill:#a2a2a2;opacity:0.365;}.cls-99{fill:#a1a1a1;opacity:0.369;}.cls-100{fill:#a0a0a0;opacity:0.373;}.cls-101{fill:#9f9f9f;opacity:0.376;}.cls-102{fill:#9e9e9e;opacity:0.38;}.cls-103{fill:#9d9d9d;opacity:0.384;}.cls-104{fill:#9c9c9c;opacity:0.388;}.cls-105{fill:#9b9b9b;opacity:0.392;}.cls-106{fill:#9a9a9a;opacity:0.396;}.cls-107{fill:#999;opacity:0.4;}.cls-108{fill:#989898;opacity:0.404;}.cls-109{fill:#979797;opacity:0.408;}.cls-110{fill:#969696;opacity:0.412;}.cls-111{fill:#959595;opacity:0.416;}.cls-112{fill:#949494;opacity:0.42;}.cls-113{fill:#939393;opacity:0.424;}.cls-114{fill:#929292;opacity:0.427;}.cls-115{fill:#919191;opacity:0.431;}.cls-116{fill:#909090;opacity:0.435;}.cls-117{fill:#8f8f8f;opacity:0.439;}.cls-118{fill:#8e8e8e;opacity:0.443;}.cls-119{fill:#8d8d8d;opacity:0.447;}.cls-120{fill:#8c8c8c;opacity:0.451;}.cls-121{fill:#8b8b8b;opacity:0.455;}.cls-122{fill:#8a8a8a;opacity:0.459;}.cls-123{fill:#898989;opacity:0.463;}.cls-124{fill:#888;opacity:0.467;}.cls-125{fill:#878787;opacity:0.471;}.cls-126{fill:#868686;opacity:0.475;}.cls-127{fill:#858585;opacity:0.478;}.cls-128{fill:#848484;opacity:0.482;}.cls-129{fill:#838383;opacity:0.486;}.cls-130{fill:#828282;opacity:0.49;}.cls-131{fill:#818181;opacity:0.494;}.cls-132{fill:gray;opacity:0.498;}.cls-133{fill:#7f7f7f;opacity:0.502;}.cls-134{fill:#7e7e7e;opacity:0.506;}.cls-135{fill:#7d7d7d;opacity:0.51;}.cls-136{fill:#7c7c7c;opacity:0.514;}.cls-137{fill:#7b7b7b;opacity:0.518;}.cls-138{fill:#7a7a7a;opacity:0.522;}.cls-139{fill:#797979;opacity:0.525;}.cls-140{fill:#787878;opacity:0.529;}.cls-141{fill:#777;opacity:0.533;}.cls-142{fill:#767676;opacity:0.537;}.cls-143{fill:#757575;opacity:0.541;}.cls-144{fill:#747474;opacity:0.545;}.cls-145{fill:#737373;opacity:0.549;}.cls-146{fill:#727272;opacity:0.553;}.cls-147{fill:#717171;opacity:0.557;}.cls-148{fill:#707070;opacity:0.561;}.cls-149{fill:#6f6f6f;opacity:0.565;}.cls-150{fill:#6e6e6e;opacity:0.569;}.cls-151{fill:#6d6d6d;opacity:0.573;}.cls-152{fill:#6c6c6c;opacity:0.576;}.cls-153{fill:#6b6b6b;opacity:0.58;}.cls-154{fill:#6a6a6a;opacity:0.584;}.cls-155{fill:#696969;opacity:0.588;}.cls-156{fill:#686868;opacity:0.592;}.cls-157{fill:#676767;opacity:0.596;}.cls-158{fill:#666;opacity:0.6;}.cls-159{fill:#656565;opacity:0.604;}.cls-160{fill:#646464;opacity:0.608;}.cls-161{fill:#636363;opacity:0.612;}.cls-162{fill:#626262;opacity:0.616;}.cls-163{fill:#616161;opacity:0.62;}.cls-164{fill:#606060;opacity:0.624;}.cls-165{fill:#5f5f5f;opacity:0.627;}.cls-166{opacity:0.631;}.cls-167{fill:#5d5d5d;opacity:0.635;}.cls-168{fill:#5c5c5c;opacity:0.639;}.cls-169{fill:#5b5b5b;opacity:0.643;}.cls-170{fill:#5a5a5a;opacity:0.647;}.cls-171{fill:#595959;opacity:0.651;}.cls-172{fill:#585858;opacity:0.655;}.cls-173{fill:#575757;opacity:0.659;}.cls-174{fill:#565656;opacity:0.663;}.cls-175{fill:#555;opacity:0.667;}.cls-176{fill:#545454;opacity:0.671;}.cls-177{fill:#535353;opacity:0.675;}.cls-178{fill:#525252;opacity:0.678;}.cls-179{fill:#515151;opacity:0.682;}.cls-180{fill:#505050;opacity:0.686;}.cls-181{fill:#4f4f4f;opacity:0.69;}.cls-182{fill:#4e4e4e;opacity:0.694;}.cls-183{fill:#4d4d4d;opacity:0.698;}.cls-184{fill:#4c4c4c;opacity:0.702;}.cls-185{fill:#4b4b4b;opacity:0.706;}.cls-186{fill:#4a4a4a;opacity:0.71;}.cls-187{fill:#494949;opacity:0.714;}.cls-188{fill:#484848;opacity:0.718;}.cls-189{fill:#474747;opacity:0.722;}.cls-190{fill:#464646;opacity:0.725;}.cls-191{fill:#454545;opacity:0.729;}.cls-192{fill:#444;opacity:0.733;}.cls-193{fill:#434343;opacity:0.737;}.cls-194{fill:#424242;opacity:0.741;}.cls-195{fill:#414141;opacity:0.745;}.cls-196{fill:#404040;opacity:0.749;}.cls-197{fill:#3f3f3f;opacity:0.753;}.cls-198{fill:#3e3e3e;opacity:0.757;}.cls-199{fill:#3d3d3d;opacity:0.761;}.cls-200{fill:#3c3c3c;opacity:0.765;}.cls-201{fill:#3b3b3b;opacity:0.769;}.cls-202{fill:#3a3a3a;opacity:0.773;}.cls-203{fill:#393939;opacity:0.776;}.cls-204{fill:#383838;opacity:0.78;}.cls-205{fill:#373737;opacity:0.784;}.cls-206{fill:#363636;opacity:0.788;}.cls-207{fill:#353535;opacity:0.792;}.cls-208{fill:#343434;opacity:0.796;}.cls-209{fill:#333;opacity:0.8;}.cls-210{fill:#323232;opacity:0.804;}.cls-211{fill:#313131;opacity:0.808;}.cls-212{fill:#303030;opacity:0.812;}.cls-213{fill:#2f2f2f;opacity:0.816;}.cls-214{fill:#2e2e2e;opacity:0.82;}.cls-215{fill:#2d2d2d;opacity:0.824;}.cls-216{fill:#2c2c2c;opacity:0.827;}.cls-217{fill:#2b2b2b;opacity:0.831;}.cls-218{fill:#2a2a2a;opacity:0.835;}.cls-219{fill:#292929;opacity:0.839;}.cls-220{fill:#282828;opacity:0.843;}.cls-221{fill:#272727;opacity:0.847;}.cls-222{fill:#262626;opacity:0.851;}.cls-223{fill:#252525;opacity:0.855;}.cls-224{fill:#242424;opacity:0.859;}.cls-225{fill:#232323;opacity:0.863;}.cls-226{fill:#222;opacity:0.867;}.cls-227{fill:#212121;opacity:0.871;}.cls-228{fill:#202020;opacity:0.875;}.cls-229{fill:#1f1f1f;opacity:0.878;}.cls-230{fill:#1e1e1e;opacity:0.882;}.cls-231{fill:#1d1d1d;opacity:0.886;}.cls-232{fill:#1c1c1c;opacity:0.89;}.cls-233{fill:#1b1b1b;opacity:0.894;}.cls-234{fill:#1a1a1a;opacity:0.898;}.cls-235{fill:#191919;opacity:0.902;}.cls-236{fill:#181818;opacity:0.906;}.cls-237{fill:#171717;opacity:0.91;}.cls-238{fill:#161616;opacity:0.914;}.cls-239{fill:#151515;opacity:0.918;}.cls-240{fill:#141414;opacity:0.922;}.cls-241{fill:#131313;opacity:0.925;}.cls-242{fill:#121212;opacity:0.929;}.cls-243{fill:#111;opacity:0.933;}.cls-244{fill:#101010;opacity:0.937;}.cls-245{fill:#0f0f0f;opacity:0.941;}.cls-246{fill:#0e0e0e;opacity:0.945;}.cls-247{fill:#0d0d0d;opacity:0.949;}.cls-248{fill:#0c0c0c;opacity:0.953;}.cls-249{fill:#0b0b0b;opacity:0.957;}.cls-250{fill:#0a0a0a;opacity:0.961;}.cls-251{fill:#090909;opacity:0.965;}.cls-252{fill:#080808;opacity:0.969;}.cls-253{fill:#070707;opacity:0.973;}.cls-254{fill:#060606;opacity:0.976;}.cls-255{fill:#050505;opacity:0.98;}.cls-256{fill:#040404;opacity:0.984;}.cls-257{fill:#030303;opacity:0.988;}.cls-258{fill:#020202;opacity:0.992;}.cls-259{fill:#010101;opacity:0.996;}</style></defs><g class="cls-1"><g id="Text"><path class="cls-2" d="M251.957,509.142V479.159h4.9v25.779h12.695v4.2Z"/><path class="cls-2" d="M294.326,497.76q0,5.558-2.85,8.675a10.215,10.215,0,0,1-7.937,3.117,10.875,10.875,0,0,1-5.619-1.436,9.477,9.477,0,0,1-3.753-4.122,14.038,14.038,0,0,1-1.313-6.234q0-5.517,2.831-8.614t7.977-3.1a9.993,9.993,0,0,1,7.793,3.168A12.242,12.242,0,0,1,294.326,497.76Zm-16.509,0q0,7.854,5.8,7.854,5.742,0,5.742-7.854,0-7.773-5.783-7.773a4.931,4.931,0,0,0-4.4,2.01A10.23,10.23,0,0,0,277.817,497.76Z"/><path class="cls-2" d="M314.055,509.142l-.964-3.159h-.164a9.3,9.3,0,0,1-3.3,2.821,10.458,10.458,0,0,1-4.266.748,7.22,7.22,0,0,1-5.219-1.805,6.752,6.752,0,0,1-1.876-5.106,6,6,0,0,1,2.6-5.291q2.6-1.785,7.937-1.949l3.917-.123v-1.21a4.593,4.593,0,0,0-1.015-3.251,4.148,4.148,0,0,0-3.148-1.076,10.874,10.874,0,0,0-3.343.513,25.17,25.17,0,0,0-3.076,1.21l-1.559-3.445a16.807,16.807,0,0,1,4.04-1.467,18.65,18.65,0,0,1,4.143-.5q4.326,0,6.531,1.887t2.2,5.926v15.279Zm-7.178-3.282a5.966,5.966,0,0,0,4.214-1.466,5.313,5.313,0,0,0,1.59-4.112v-1.969l-2.912.124a9.95,9.95,0,0,0-4.953,1.138,3.457,3.457,0,0,0-1.548,3.107,3.031,3.031,0,0,0,.9,2.348A3.879,3.879,0,0,0,306.877,505.86Z"/><path class="cls-2" d="M344.181,509.142h-4.84V495.2a6.105,6.105,0,0,0-1.056-3.917,4.084,4.084,0,0,0-3.353-1.292,5.332,5.332,0,0,0-4.471,1.8q-1.415,1.8-1.415,6.05v11.3h-4.819V486.46H328l.677,2.974h.246a6.706,6.706,0,0,1,2.912-2.5,9.758,9.758,0,0,1,4.184-.882q8.161,0,8.162,8.305Z"/><path class="cls-2" d="M379.6,501a7.544,7.544,0,0,1-2.892,6.275q-2.892,2.277-7.977,2.277a19.047,19.047,0,0,1-8.327-1.579v-4.635a22.681,22.681,0,0,0,4.358,1.517,18.432,18.432,0,0,0,4.3.554,6.836,6.836,0,0,0,4.3-1.107,3.612,3.612,0,0,0,1.384-2.974,3.727,3.727,0,0,0-1.271-2.85,19.119,19.119,0,0,0-5.25-2.769,13.878,13.878,0,0,1-5.783-3.794,8.029,8.029,0,0,1-1.682-5.127,7.18,7.18,0,0,1,2.666-5.906,11.055,11.055,0,0,1,7.157-2.153,21.021,21.021,0,0,1,8.572,1.886l-1.558,4a18.729,18.729,0,0,0-7.137-1.681,5.477,5.477,0,0,0-3.609,1.035,3.4,3.4,0,0,0-1.231,2.738,3.852,3.852,0,0,0,.493,2,5.029,5.029,0,0,0,1.62,1.568,27.333,27.333,0,0,0,4.06,1.949,22.214,22.214,0,0,1,4.84,2.563,7.551,7.551,0,0,1,2.256,2.687A8.085,8.085,0,0,1,379.6,501Z"/><path class="cls-2" d="M394.794,509.552q-5.29,0-8.275-3.086t-2.984-8.5q0-5.557,2.769-8.736a9.559,9.559,0,0,1,7.608-3.179,9.349,9.349,0,0,1,7.1,2.727,10.426,10.426,0,0,1,2.6,7.506v2.6H388.5a7.45,7.45,0,0,0,1.784,5.076,6.216,6.216,0,0,0,4.738,1.773,17.482,17.482,0,0,0,3.742-.379,19.615,19.615,0,0,0,3.722-1.261v3.917a14.789,14.789,0,0,1-3.568,1.189A21.829,21.829,0,0,1,394.794,509.552Zm-.882-19.852a4.845,4.845,0,0,0-3.681,1.456,6.941,6.941,0,0,0-1.651,4.245h10.3a6.276,6.276,0,0,0-1.354-4.255A4.632,4.632,0,0,0,393.912,489.7Z"/><path class="cls-2" d="M420.593,486.05a11.583,11.583,0,0,1,2.4.2l-.471,4.491a9.118,9.118,0,0,0-2.133-.246,6.171,6.171,0,0,0-4.686,1.887,6.816,6.816,0,0,0-1.8,4.9v11.854h-4.819V486.46h3.773l.636,4h.246a8.984,8.984,0,0,1,2.943-3.22A6.994,6.994,0,0,1,420.593,486.05Z"/><path class="cls-2" d="M432.364,509.142l-8.613-22.682h5.086l4.614,13.186a26.125,26.125,0,0,1,1.436,5.374h.164a36.04,36.04,0,0,1,1.435-5.374L441.1,486.46h5.127l-8.655,22.682Z"/><path class="cls-2" d="M449.386,480.451a2.671,2.671,0,0,1,.707-1.989,2.757,2.757,0,0,1,2.02-.7,2.7,2.7,0,0,1,1.979.7,2.667,2.667,0,0,1,.708,1.989,2.623,2.623,0,0,1-.708,1.939,2.68,2.68,0,0,1-1.979.707,2.74,2.74,0,0,1-2.02-.707A2.626,2.626,0,0,1,449.386,480.451Zm5.106,28.691h-4.819V486.46h4.819Z"/><path class="cls-2" d="M470.529,509.552q-5.146,0-7.823-3t-2.677-8.624q0-5.722,2.8-8.8t8.09-3.076a15.156,15.156,0,0,1,6.46,1.333l-1.456,3.876a14.6,14.6,0,0,0-5.045-1.19q-5.886,0-5.886,7.814a9.355,9.355,0,0,0,1.466,5.731,5.073,5.073,0,0,0,4.3,1.918,12.332,12.332,0,0,0,6.091-1.6v4.2a9.527,9.527,0,0,1-2.759,1.087A16.593,16.593,0,0,1,470.529,509.552Z"/><path class="cls-2" d="M492.083,509.552q-5.292,0-8.274-3.086t-2.985-8.5q0-5.557,2.768-8.736a9.563,9.563,0,0,1,7.61-3.179,9.346,9.346,0,0,1,7.1,2.727,10.422,10.422,0,0,1,2.6,7.506v2.6H485.788a7.45,7.45,0,0,0,1.783,5.076,6.218,6.218,0,0,0,4.738,1.773,17.482,17.482,0,0,0,3.742-.379,19.622,19.622,0,0,0,3.723-1.261v3.917a14.8,14.8,0,0,1-3.568,1.189A21.855,21.855,0,0,1,492.083,509.552ZM491.2,489.7a4.847,4.847,0,0,0-3.682,1.456,6.941,6.941,0,0,0-1.65,4.245h10.3a6.281,6.281,0,0,0-1.354-4.255A4.632,4.632,0,0,0,491.2,489.7Z"/><path class="cls-2" d="M517.882,486.05a11.587,11.587,0,0,1,2.4.2l-.472,4.491a9.112,9.112,0,0,0-2.133-.246,6.172,6.172,0,0,0-4.686,1.887,6.815,6.815,0,0,0-1.794,4.9v11.854h-4.82V486.46h3.774l.636,4h.246a8.99,8.99,0,0,1,2.942-3.22A7,7,0,0,1,517.882,486.05Z"/><path class="cls-2" d="M539.723,502.682a5.933,5.933,0,0,1-2.42,5.1q-2.419,1.774-6.931,1.774a16.375,16.375,0,0,1-7.281-1.374v-4.163a17.882,17.882,0,0,0,7.445,1.845q4.449,0,4.45-2.686a2.131,2.131,0,0,0-.492-1.436,5.83,5.83,0,0,0-1.62-1.189,27.983,27.983,0,0,0-3.138-1.395,14.494,14.494,0,0,1-5.3-3.035,5.611,5.611,0,0,1-1.385-3.937,5.174,5.174,0,0,1,2.348-4.523,11.153,11.153,0,0,1,6.389-1.609,18.093,18.093,0,0,1,7.567,1.62l-1.559,3.63a16.822,16.822,0,0,0-6.172-1.518q-3.814,0-3.815,2.174a2.187,2.187,0,0,0,.994,1.805,21.892,21.892,0,0,0,4.338,2.03,19.861,19.861,0,0,1,4.081,1.989,5.947,5.947,0,0,1,1.887,2.082A6.026,6.026,0,0,1,539.723,502.682Z"/><path class="cls-2" d="M431.146,342.7a9,9,0,0,1-3.8-.664c0,.636,0,1.265,0,1.9,0,3.671.093,7.106-.037,10.533a19.841,19.841,0,0,1-.853,5.384c-1.376,4.185-4.983,5.115-8.757,5.121q-53.518.093-107.037,0a15.807,15.807,0,0,1-4.653-.875c-4.581-1.455-5.063-5.42-5.068-9.27q-.1-69.8,0-139.6a15.207,15.207,0,0,1,.913-4.637c1.5-4.524,5.5-5,9.285-5.015q11.051-.033,22.1-.03a11.528,11.528,0,0,1-.262-8.642q-10.785.006-21.57.012a39.845,39.845,0,0,0-7.3.508,13.7,13.7,0,0,0-10.4,8.478c-1.464,3.319-.965,6.777-.963,10.226q.036,71.836.034,143.674c0,4.438,2.139,7.762,5.526,10.634,3.2,2.713,6.961,3.12,10.675,3.131,36.717.115,73.434.072,110.15.066,4.019,0,7.9-.484,11.066-3.346,2.945-2.661,5.286-5.655,5.291-9.86q.01-9.148,0-18.3A22.768,22.768,0,0,1,431.146,342.7Z"/><path class="cls-2" d="M462.433,314.438c0-8.94.016-17.64-.022-26.34,0-1.052-.625-2.19-.373-3.132a5.729,5.729,0,0,1,1.942-3.029,24.766,24.766,0,0,1,4.774-2.3c1.15-.488,1.791-.016,1.819,1.24.011.479,0,.958,0,1.437q0,24.3-.008,48.61c0,4.2-2.346,7.2-5.29,9.86-3.168,2.862-7.047,3.345-11.066,3.346-36.717.006-73.434.048-110.15-.066-3.715-.011-7.476-.419-10.675-3.131-3.388-2.872-5.524-6.2-5.526-10.634q-.045-71.837-.035-143.674c0-3.449-.5-6.908.964-10.227a13.692,13.692,0,0,1,10.4-8.477,39.834,39.834,0,0,1,7.3-.508q54.477-.045,108.953.007c7.622.013,12.558,3.9,15,11.116a5.163,5.163,0,0,1,.13,1.622c.008,7.583.04,15.166-.042,22.748a4.6,4.6,0,0,1-1.054,2.642c-1.647,2-3.422,3.89-5.244,5.727-.419.421-1.231.452-1.863.662a4.954,4.954,0,0,1-.393-1.4c.127-5.043.413-10.085.424-15.128.008-4.323-.252-8.649-.457-12.971-.119-2.521-3.039-5.669-5.531-5.923a74.574,74.574,0,0,0-7.462-.478q-51.365-.047-102.727.037c-3.783.011-7.789.492-9.285,5.016a15.148,15.148,0,0,0-.913,4.637q-.072,69.8,0,139.6c.006,3.85.487,7.815,5.068,9.27a15.807,15.807,0,0,0,4.653.875q53.52.073,107.038,0c3.773-.006,7.38-.936,8.756-5.121a19.841,19.841,0,0,0,.853-5.384C462.525,321.544,462.433,318.109,462.433,314.438Z"/><polygon class="cls-2" points="462.057 207.789 462.436 303.234 470.583 303.234 470.583 193.759 462.057 207.789"/><polygon class="cls-3" points="410.444 315.931 438.487 315.019 424.921 329.496 410.444 315.931"/><path class="cls-3" d="M350.382,231.594c20.6-2.707,42.946,2.585,54.348,21.323,11.957,19.651,15.87,45.452,15.925,68.071.012,5.147,8.012,5.156,8,0a169,169,0,0,0-4.935-40.463c-2.946-11.818-6.866-24.247-13.843-34.366-13.217-19.17-37.282-25.485-59.495-22.565-5.031.661-5.1,8.669,0,8Z"/><path class="cls-3" d="M350.329,185.05H355.3v21.369h7.242v4.738H350.329Z"/><path class="cls-3" d="M378.647,184.393a12.966,12.966,0,0,1,9.527,4.011,13.344,13.344,0,0,1,3.987,9.779,13.2,13.2,0,0,1-3.934,9.673,13.63,13.63,0,0,1-19.313-.106,13.718,13.718,0,0,1,9.733-23.357Zm-.055,4.863a8.191,8.191,0,0,0-6.093,2.52,8.777,8.777,0,0,0-2.47,6.407,8.35,8.35,0,0,0,3.11,6.851,8.518,8.518,0,0,0,5.543,1.97,8.1,8.1,0,0,0,6.023-2.555,9.213,9.213,0,0,0-.018-12.611A8.176,8.176,0,0,0,378.592,189.256Z"/><path class="cls-3" d="M404.811,185.05h5.041l10.041,26.107h-5.165l-2.043-5.377H402.033l-2.124,5.377h-5.166Zm2.552,6.922-3.5,8.962h6.984Z"/><path class="cls-3" d="M423.753,185.05h4.767l11.171,17.18V185.05h4.969v26.107h-4.78L428.723,194.03v17.127h-4.97Z"/><g class="cls-4"><path class="cls-5" d="M576.8,423.024c0,14.474-84.554,26.195-188.861,26.195S199.073,437.5,199.073,423.024c0-14.444,84.566-26.16,188.868-26.16S576.8,408.58,576.8,423.024Z"/><path class="cls-6" d="M576.194,423.041c0,14.427-84.282,26.11-188.253,26.11s-188.26-11.683-188.26-26.11c0-14.4,84.294-26.076,188.26-26.076S576.194,408.643,576.194,423.041Z"/><path class="cls-7" d="M575.587,423.057c0,14.381-84.01,26.027-187.646,26.027s-187.653-11.646-187.653-26.027c0-14.351,84.022-25.991,187.653-25.991S575.587,408.706,575.587,423.057Z"/><path class="cls-8" d="M574.98,423.074c0,14.335-83.738,25.942-187.039,25.942S200.9,437.409,200.9,423.074c0-14.3,83.75-25.907,187.046-25.907S574.98,408.77,574.98,423.074Z"/><path class="cls-9" d="M574.372,423.091c0,14.288-83.466,25.858-186.431,25.858S201.5,437.379,201.5,423.091c0-14.258,83.479-25.823,186.439-25.823S574.372,408.833,574.372,423.091Z"/><path class="cls-10" d="M573.765,423.108c0,14.241-83.194,25.774-185.824,25.774S202.11,437.349,202.11,423.108c0-14.212,83.206-25.739,185.831-25.739S573.765,408.9,573.765,423.108Z"/><path class="cls-11" d="M573.158,423.124c0,14.195-82.923,25.69-185.217,25.69s-185.224-11.5-185.224-25.69c0-14.165,82.934-25.654,185.224-25.654S573.158,408.959,573.158,423.124Z"/><path class="cls-12" d="M572.55,423.141c0,14.148-82.65,25.606-184.609,25.606s-184.617-11.458-184.617-25.606c0-14.119,82.663-25.571,184.617-25.571S572.55,409.022,572.55,423.141Z"/><path class="cls-13" d="M571.943,423.158c0,14.1-82.378,25.521-184,25.521s-184.01-11.42-184.01-25.521c0-14.073,82.391-25.487,184.01-25.487S571.943,409.085,571.943,423.158Z"/><path class="cls-14" d="M571.336,423.175c0,14.055-82.107,25.437-183.4,25.437s-183.4-11.382-183.4-25.437c0-14.027,82.119-25.4,183.4-25.4S571.336,409.148,571.336,423.175Z"/><path class="cls-15" d="M570.729,423.192c0,14.008-81.835,25.352-182.788,25.352S205.146,437.2,205.146,423.192c0-13.98,81.847-25.319,182.8-25.319S570.729,409.212,570.729,423.192Z"/><path class="cls-16" d="M570.121,423.208c0,13.962-81.562,25.269-182.18,25.269S205.753,437.17,205.753,423.208c0-13.933,81.575-25.234,182.188-25.234S570.121,409.275,570.121,423.208Z"/><path class="cls-17" d="M569.514,423.225c0,13.915-81.291,25.184-181.573,25.184S206.36,437.14,206.36,423.225c0-13.887,81.3-25.15,181.581-25.15S569.514,409.338,569.514,423.225Z"/><path class="cls-18" d="M568.907,423.242c0,13.868-81.019,25.1-180.966,25.1s-180.974-11.232-180.974-25.1c0-13.841,81.032-25.066,180.974-25.066S568.907,409.4,568.907,423.242Z"/><path class="cls-19" d="M568.3,423.259c0,13.822-80.746,25.015-180.358,25.015s-180.366-11.193-180.366-25.015c0-13.8,80.759-24.982,180.366-24.982S568.3,409.464,568.3,423.259Z"/><path class="cls-20" d="M567.692,423.275c0,13.776-80.475,24.932-179.751,24.932s-179.759-11.156-179.759-24.932c0-13.748,80.488-24.9,179.759-24.9S567.692,409.527,567.692,423.275Z"/><path class="cls-21" d="M567.085,423.292c0,13.729-80.2,24.847-179.144,24.847s-179.152-11.118-179.152-24.847c0-13.7,80.216-24.814,179.152-24.814S567.085,409.59,567.085,423.292Z"/><path class="cls-22" d="M566.477,423.309c0,13.682-79.93,24.763-178.536,24.763S209.4,436.991,209.4,423.309c0-13.655,79.945-24.73,178.545-24.73S566.477,409.654,566.477,423.309Z"/><path class="cls-23" d="M565.87,423.326c0,13.635-79.659,24.678-177.929,24.678S210,436.961,210,423.326c0-13.609,79.672-24.646,177.937-24.646S565.87,409.717,565.87,423.326Z"/><path class="cls-24" d="M565.263,423.342c0,13.589-79.387,24.6-177.322,24.6s-177.33-11.006-177.33-24.6c0-13.562,79.4-24.561,177.33-24.561S565.263,409.78,565.263,423.342Z"/><path class="cls-25" d="M564.655,423.359c0,13.543-79.114,24.51-176.714,24.51S211.218,436.9,211.218,423.359c0-13.516,79.129-24.477,176.723-24.477S564.655,409.843,564.655,423.359Z"/><path class="cls-26" d="M564.048,423.376c0,13.5-78.843,24.426-176.107,24.426s-176.116-10.93-176.116-24.426c0-13.47,78.857-24.393,176.116-24.393S564.048,409.906,564.048,423.376Z"/><path class="cls-27" d="M563.441,423.393c0,13.449-78.571,24.341-175.5,24.341s-175.509-10.892-175.509-24.341c0-13.424,78.585-24.309,175.509-24.309S563.441,409.969,563.441,423.393Z"/><path class="cls-28" d="M562.834,423.409c0,13.4-78.3,24.258-174.893,24.258s-174.9-10.855-174.9-24.258c0-13.377,78.313-24.224,174.9-24.224S562.834,410.032,562.834,423.409Z"/><path class="cls-29" d="M562.226,423.426c0,13.356-78.027,24.173-174.285,24.173s-174.294-10.817-174.294-24.173c0-13.331,78.041-24.141,174.294-24.141S562.226,410.1,562.226,423.426Z"/><path class="cls-30" d="M561.619,423.443c0,13.31-77.755,24.089-173.678,24.089s-173.687-10.779-173.687-24.089c0-13.284,77.77-24.057,173.687-24.057S561.619,410.159,561.619,423.443Z"/><path class="cls-31" d="M561.012,423.46c0,13.263-77.484,24-173.071,24s-173.08-10.741-173.08-24c0-13.238,77.5-23.973,173.08-23.973S561.012,410.222,561.012,423.46Z"/><path class="cls-32" d="M560.4,423.476c0,13.217-77.211,23.921-172.463,23.921s-172.472-10.7-172.472-23.921c0-13.191,77.225-23.888,172.472-23.888S560.4,410.285,560.4,423.476Z"/><path class="cls-33" d="M559.8,423.493c0,13.17-76.939,23.836-171.856,23.836s-171.865-10.666-171.865-23.836c0-13.145,76.954-23.8,171.865-23.8S559.8,410.348,559.8,423.493Z"/><path class="cls-34" d="M559.19,423.51c0,13.123-76.668,23.752-171.249,23.752S216.683,436.633,216.683,423.51c0-13.1,76.682-23.72,171.258-23.72S559.19,410.411,559.19,423.51Z"/><path class="cls-35" d="M558.582,423.527c0,13.076-76.395,23.668-170.641,23.668S217.29,436.6,217.29,423.527c0-13.053,76.41-23.636,170.651-23.636S558.582,410.474,558.582,423.527Z"/><path class="cls-36" d="M557.975,423.543c0,13.031-76.123,23.584-170.034,23.584S217.9,436.574,217.9,423.543c0-13.006,76.138-23.551,170.043-23.551S557.975,410.537,557.975,423.543Z"/><path class="cls-37" d="M557.368,423.56c0,12.984-75.852,23.5-169.427,23.5s-169.436-10.516-169.436-23.5c0-12.959,75.866-23.468,169.436-23.468S557.368,410.6,557.368,423.56Z"/><path class="cls-38" d="M556.76,423.577c0,12.937-75.579,23.415-168.819,23.415s-168.829-10.478-168.829-23.415c0-12.913,75.6-23.384,168.829-23.384S556.76,410.664,556.76,423.577Z"/><path class="cls-39" d="M556.153,423.594c0,12.89-75.307,23.331-168.212,23.331s-168.222-10.441-168.222-23.331c0-12.867,75.323-23.3,168.222-23.3S556.153,410.727,556.153,423.594Z"/><path class="cls-40" d="M555.546,423.61c0,12.844-75.036,23.247-167.605,23.247s-167.615-10.4-167.615-23.247c0-12.82,75.051-23.215,167.615-23.215S555.546,410.79,555.546,423.61Z"/><path class="cls-41" d="M554.939,423.627c0,12.8-74.764,23.163-167,23.163s-167.007-10.365-167.007-23.163c0-12.774,74.779-23.131,167.007-23.131S554.939,410.853,554.939,423.627Z"/><path class="cls-42" d="M554.331,423.644c0,12.751-74.492,23.078-166.39,23.078s-166.4-10.327-166.4-23.078c0-12.728,74.507-23.047,166.4-23.047S554.331,410.916,554.331,423.644Z"/><path class="cls-43" d="M553.724,423.661c0,12.7-74.22,22.994-165.783,22.994s-165.793-10.29-165.793-22.994c0-12.682,74.235-22.963,165.793-22.963S553.724,410.979,553.724,423.661Z"/><path class="cls-44" d="M553.117,423.678c0,12.657-73.948,22.909-165.176,22.909s-165.186-10.252-165.186-22.909c0-12.635,73.964-22.879,165.186-22.879S553.117,411.043,553.117,423.678Z"/><path class="cls-45" d="M552.509,423.694c0,12.611-73.676,22.826-164.568,22.826s-164.578-10.215-164.578-22.826c0-12.588,73.691-22.8,164.578-22.8S552.509,411.106,552.509,423.694Z"/><path class="cls-46" d="M551.9,423.711c0,12.564-73.4,22.741-163.961,22.741S223.97,436.275,223.97,423.711c0-12.542,73.42-22.711,163.971-22.711S551.9,411.169,551.9,423.711Z"/><path class="cls-47" d="M551.295,423.728c0,12.518-73.132,22.657-163.354,22.657s-163.364-10.139-163.364-22.657c0-12.5,73.148-22.627,163.364-22.627S551.295,411.232,551.295,423.728Z"/><path class="cls-48" d="M550.687,423.745c0,12.471-72.86,22.572-162.746,22.572s-162.757-10.1-162.757-22.572c0-12.45,72.876-22.543,162.757-22.543S550.687,411.3,550.687,423.745Z"/><path class="cls-49" d="M550.08,423.761c0,12.425-72.588,22.489-162.139,22.489s-162.149-10.064-162.149-22.489c0-12.4,72.6-22.458,162.149-22.458S550.08,411.358,550.08,423.761Z"/><path class="cls-50" d="M549.473,423.778c0,12.378-72.316,22.4-161.532,22.4S226.4,436.156,226.4,423.778c0-12.357,72.332-22.374,161.542-22.374S549.473,411.421,549.473,423.778Z"/><path class="cls-51" d="M548.865,423.8c0,12.331-72.044,22.32-160.924,22.32s-160.935-9.989-160.935-22.32c0-12.31,72.06-22.29,160.935-22.29S548.865,411.485,548.865,423.8Z"/><path class="cls-52" d="M548.258,423.812c0,12.285-71.772,22.235-160.317,22.235s-160.328-9.95-160.328-22.235c0-12.264,71.789-22.206,160.328-22.206S548.258,411.548,548.258,423.812Z"/><path class="cls-53" d="M547.651,423.828c0,12.239-71.5,22.152-159.71,22.152S228.22,436.067,228.22,423.828c0-12.217,71.517-22.122,159.721-22.122S547.651,411.611,547.651,423.828Z"/><path class="cls-54" d="M547.044,423.845c0,12.192-71.229,22.067-159.1,22.067s-159.113-9.875-159.113-22.067c0-12.171,71.245-22.038,159.113-22.038S547.044,411.674,547.044,423.845Z"/><path class="cls-55" d="M546.436,423.862c0,12.145-70.956,21.983-158.5,21.983s-158.506-9.838-158.506-21.983c0-12.125,70.973-21.954,158.506-21.954S546.436,411.737,546.436,423.862Z"/><path class="cls-56" d="M545.829,423.879c0,12.1-70.685,21.9-157.888,21.9s-157.9-9.8-157.9-21.9c0-12.079,70.7-21.87,157.9-21.87S545.829,411.8,545.829,423.879Z"/><path class="cls-57" d="M545.222,423.9c0,12.052-70.413,21.815-157.281,21.815S230.649,435.947,230.649,423.9c0-12.032,70.43-21.785,157.292-21.785S545.222,411.863,545.222,423.9Z"/><path class="cls-58" d="M544.614,423.912c0,12.006-70.14,21.73-156.673,21.73s-156.684-9.724-156.684-21.73c0-11.985,70.157-21.7,156.684-21.7S544.614,411.927,544.614,423.912Z"/><path class="cls-59" d="M544.007,423.929c0,11.959-69.869,21.646-156.066,21.646s-156.077-9.687-156.077-21.646c0-11.939,69.885-21.617,156.077-21.617S544.007,411.99,544.007,423.929Z"/><path class="cls-60" d="M543.4,423.946c0,11.912-69.6,21.562-155.459,21.562s-155.47-9.65-155.47-21.562c0-11.893,69.614-21.533,155.47-21.533S543.4,412.053,543.4,423.946Z"/><path class="cls-61" d="M542.792,423.962c0,11.866-69.324,21.478-154.851,21.478s-154.863-9.612-154.863-21.478c0-11.846,69.342-21.449,154.863-21.449S542.792,412.116,542.792,423.962Z"/><path class="cls-62" d="M542.185,423.979c0,11.819-69.053,21.394-154.244,21.394S233.685,435.8,233.685,423.979c0-11.8,69.071-21.365,154.256-21.365S542.185,412.179,542.185,423.979Z"/><path class="cls-63" d="M541.578,424c0,11.773-68.781,21.309-153.637,21.309S234.293,435.769,234.293,424c0-11.754,68.8-21.281,153.648-21.281S541.578,412.242,541.578,424Z"/><path class="cls-64" d="M540.971,424.013c0,11.726-68.509,21.225-153.03,21.225S234.9,435.739,234.9,424.013c0-11.708,68.526-21.2,153.041-21.2S540.971,412.305,540.971,424.013Z"/><path class="cls-65" d="M540.363,424.029c0,11.68-68.237,21.141-152.422,21.141s-152.434-9.461-152.434-21.141c0-11.661,68.255-21.112,152.434-21.112S540.363,412.368,540.363,424.029Z"/><path class="cls-66" d="M539.756,424.046c0,11.633-67.965,21.057-151.815,21.057s-151.827-9.424-151.827-21.057c0-11.614,67.983-21.028,151.827-21.028S539.756,412.432,539.756,424.046Z"/><path class="cls-67" d="M539.149,424.063c0,11.586-67.693,20.972-151.208,20.972s-151.219-9.386-151.219-20.972c0-11.568,67.711-20.944,151.219-20.944S539.149,412.5,539.149,424.063Z"/><path class="cls-68" d="M538.541,424.08c0,11.539-67.421,20.888-150.6,20.888s-150.612-9.349-150.612-20.888c0-11.522,67.439-20.86,150.612-20.86S538.541,412.558,538.541,424.08Z"/><path class="cls-69" d="M537.934,424.1c0,11.494-67.149,20.8-149.993,20.8s-150-9.31-150-20.8c0-11.475,67.167-20.775,150-20.775S537.934,412.621,537.934,424.1Z"/><path class="cls-70" d="M537.327,424.113c0,11.447-66.877,20.72-149.386,20.72s-149.4-9.273-149.4-20.72c0-11.429,66.9-20.692,149.4-20.692S537.327,412.684,537.327,424.113Z"/><path class="cls-71" d="M536.719,424.13c0,11.4-66.605,20.635-148.778,20.635s-148.79-9.235-148.79-20.635c0-11.383,66.623-20.608,148.79-20.608S536.719,412.747,536.719,424.13Z"/><path class="cls-72" d="M536.112,424.147c0,11.353-66.333,20.551-148.171,20.551s-148.183-9.2-148.183-20.551c0-11.337,66.351-20.524,148.183-20.524S536.112,412.81,536.112,424.147Z"/><path class="cls-73" d="M535.505,424.164c0,11.306-66.062,20.466-147.564,20.466s-147.576-9.16-147.576-20.466c0-11.29,66.08-20.44,147.576-20.44S535.505,412.874,535.505,424.164Z"/><path class="cls-74" d="M534.9,424.18c0,11.261-65.789,20.383-146.956,20.383s-146.969-9.122-146.969-20.383c0-11.243,65.808-20.355,146.969-20.355S534.9,412.937,534.9,424.18Z"/><path class="cls-75" d="M534.29,424.2c0,11.214-65.517,20.3-146.349,20.3s-146.362-9.084-146.362-20.3c0-11.2,65.537-20.271,146.362-20.271S534.29,413,534.29,424.2Z"/><path class="cls-76" d="M533.683,424.214c0,11.167-65.246,20.214-145.742,20.214s-145.754-9.047-145.754-20.214c0-11.151,65.264-20.187,145.754-20.187S533.683,413.063,533.683,424.214Z"/><path class="cls-77" d="M533.076,424.231c0,11.12-64.974,20.129-145.135,20.129s-145.147-9.009-145.147-20.129,64.992-20.1,145.147-20.1S533.076,413.126,533.076,424.231Z"/><path class="cls-78" d="M532.468,424.247c0,11.074-64.7,20.046-144.527,20.046S243.4,435.321,243.4,424.247c0-11.058,64.721-20.019,144.54-20.019S532.468,413.189,532.468,424.247Z"/><path class="cls-79" d="M531.861,424.264c0,11.028-64.43,19.961-143.92,19.961s-143.933-8.933-143.933-19.961c0-11.012,64.449-19.935,143.933-19.935S531.861,413.252,531.861,424.264Z"/><path class="cls-80" d="M531.254,424.281c0,10.981-64.158,19.877-143.313,19.877s-143.325-8.9-143.325-19.877c0-10.965,64.176-19.851,143.325-19.851S531.254,413.316,531.254,424.281Z"/><path class="cls-81" d="M530.646,424.3c0,10.934-63.885,19.792-142.7,19.792S245.223,435.232,245.223,424.3c0-10.919,63.9-19.767,142.718-19.767S530.646,413.379,530.646,424.3Z"/><path class="cls-82" d="M530.039,424.314c0,10.888-63.614,19.709-142.1,19.709S245.83,435.2,245.83,424.314c0-10.872,63.633-19.682,142.111-19.682S530.039,413.442,530.039,424.314Z"/><path class="cls-83" d="M529.432,424.331c0,10.841-63.342,19.624-141.491,19.624s-141.5-8.783-141.5-19.624,63.362-19.6,141.5-19.6S529.432,413.505,529.432,424.331Z"/><path class="cls-84" d="M528.824,424.348c0,10.794-63.069,19.54-140.883,19.54s-140.9-8.746-140.9-19.54,63.089-19.514,140.9-19.514S528.824,413.568,528.824,424.348Z"/><path class="cls-85" d="M528.217,424.365c0,10.748-62.8,19.456-140.276,19.456s-140.289-8.708-140.289-19.456,62.817-19.43,140.289-19.43S528.217,413.631,528.217,424.365Z"/><path class="cls-86" d="M527.61,424.381c0,10.7-62.526,19.372-139.669,19.372s-139.682-8.67-139.682-19.372c0-10.687,62.546-19.346,139.682-19.346S527.61,413.694,527.61,424.381Z"/><path class="cls-87" d="M527,424.4c0,10.655-62.254,19.288-139.061,19.288S248.866,435.053,248.866,424.4s62.274-19.262,139.075-19.262S527,413.758,527,424.4Z"/><path class="cls-88" d="M526.4,424.415c0,10.608-61.982,19.2-138.454,19.2s-138.468-8.595-138.468-19.2,62-19.178,138.468-19.178S526.4,413.821,526.4,424.415Z"/><path class="cls-89" d="M525.788,424.432c0,10.561-61.71,19.119-137.847,19.119s-137.86-8.558-137.86-19.119,61.73-19.094,137.86-19.094S525.788,413.884,525.788,424.432Z"/><path class="cls-90" d="M525.181,424.448c0,10.516-61.439,19.035-137.24,19.035s-137.253-8.519-137.253-19.035c0-10.5,61.458-19.009,137.253-19.009S525.181,413.947,525.181,424.448Z"/><path class="cls-91" d="M524.573,424.465c0,10.469-61.166,18.951-136.632,18.951S251.3,434.934,251.3,424.465s61.187-18.925,136.646-18.925S524.573,414.01,524.573,424.465Z"/><path class="cls-92" d="M523.966,424.482c0,10.422-60.894,18.866-136.025,18.866S251.9,434.9,251.9,424.482s60.915-18.841,136.039-18.841S523.966,414.073,523.966,424.482Z"/><path class="cls-93" d="M523.359,424.5c0,10.375-60.623,18.782-135.418,18.782S252.51,434.874,252.51,424.5s60.642-18.757,135.431-18.757S523.359,414.136,523.359,424.5Z"/><path class="cls-94" d="M522.751,424.515c0,10.329-60.35,18.7-134.81,18.7s-134.824-8.369-134.824-18.7,60.371-18.673,134.824-18.673S522.751,414.2,522.751,424.515Z"/><path class="cls-95" d="M522.144,424.532c0,10.282-60.078,18.614-134.2,18.614s-134.217-8.332-134.217-18.614,60.1-18.589,134.217-18.589S522.144,414.263,522.144,424.532Z"/><path class="cls-96" d="M521.537,424.549c0,10.236-59.807,18.529-133.6,18.529s-133.61-8.293-133.61-18.529,59.827-18.5,133.61-18.5S521.537,414.326,521.537,424.549Z"/><path class="cls-97" d="M520.929,424.566c0,10.189-59.534,18.445-132.988,18.445s-133-8.256-133-18.445,59.556-18.421,133-18.421S520.929,414.389,520.929,424.566Z"/><path class="cls-98" d="M520.322,424.582c0,10.143-59.262,18.361-132.381,18.361s-132.395-8.218-132.395-18.361,59.283-18.336,132.395-18.336S520.322,414.452,520.322,424.582Z"/><path class="cls-99" d="M519.715,424.6c0,10.1-58.991,18.277-131.774,18.277S256.153,434.7,256.153,424.6s59.012-18.252,131.788-18.252S519.715,414.515,519.715,424.6Z"/><path class="cls-100" d="M519.108,424.616c0,10.049-58.719,18.192-131.167,18.192S256.76,434.665,256.76,424.616s58.74-18.168,131.181-18.168S519.108,414.578,519.108,424.616Z"/><path class="cls-101" d="M518.5,424.633c0,10-58.447,18.108-130.559,18.108s-130.574-8.1-130.574-18.108,58.468-18.084,130.574-18.084S518.5,414.641,518.5,424.633Z"/><path class="cls-102" d="M517.893,424.65c0,9.956-58.175,18.023-129.952,18.023s-129.966-8.067-129.966-18.023,58.2-18,129.966-18S517.893,414.705,517.893,424.65Z"/><path class="cls-103" d="M517.286,424.666c0,9.91-57.9,17.94-129.345,17.94s-129.359-8.03-129.359-17.94,57.924-17.916,129.359-17.916S517.286,414.768,517.286,424.666Z"/><path class="cls-104" d="M516.678,424.683c0,9.863-57.631,17.855-128.737,17.855s-128.752-7.992-128.752-17.855,57.652-17.832,128.752-17.832S516.678,414.831,516.678,424.683Z"/><path class="cls-105" d="M516.071,424.7c0,9.816-57.359,17.771-128.13,17.771S259.8,434.516,259.8,424.7s57.381-17.748,128.145-17.748S516.071,414.894,516.071,424.7Z"/><path class="cls-106" d="M515.464,424.717c0,9.769-57.087,17.686-127.523,17.686S260.4,434.486,260.4,424.717s57.108-17.664,127.537-17.664S515.464,414.957,515.464,424.717Z"/><path class="cls-107" d="M514.856,424.733c0,9.724-56.815,17.6-126.915,17.6s-126.93-7.879-126.93-17.6,56.837-17.579,126.93-17.579S514.856,415.02,514.856,424.733Z"/><path class="cls-108" d="M514.249,424.75c0,9.677-56.543,17.518-126.308,17.518s-126.323-7.841-126.323-17.518,56.565-17.5,126.323-17.5S514.249,415.083,514.249,424.75Z"/><path class="cls-109" d="M513.642,424.767c0,9.63-56.271,17.434-125.7,17.434s-125.716-7.8-125.716-17.434,56.293-17.411,125.716-17.411S513.642,415.147,513.642,424.767Z"/><path class="cls-110" d="M513.034,424.784c0,9.583-56,17.35-125.093,17.35s-125.109-7.767-125.109-17.35,56.022-17.327,125.109-17.327S513.034,415.21,513.034,424.784Z"/><path class="cls-111" d="M512.427,424.8c0,9.537-55.727,17.266-124.486,17.266s-124.5-7.729-124.5-17.266,55.749-17.243,124.5-17.243S512.427,415.273,512.427,424.8Z"/><path class="cls-112" d="M511.82,424.817c0,9.491-55.455,17.182-123.879,17.182s-123.894-7.691-123.894-17.182,55.477-17.159,123.894-17.159S511.82,415.336,511.82,424.817Z"/><path class="cls-113" d="M511.213,424.834c0,9.444-55.184,17.1-123.272,17.1s-123.287-7.653-123.287-17.1,55.206-17.075,123.287-17.075S511.213,415.4,511.213,424.834Z"/><path class="cls-114" d="M510.605,424.851c0,9.4-54.911,17.013-122.664,17.013s-122.68-7.616-122.68-17.013S320.2,407.86,387.941,407.86,510.605,415.462,510.605,424.851Z"/><path class="cls-115" d="M510,424.867c0,9.351-54.639,16.929-122.057,16.929s-122.072-7.578-122.072-16.929,54.662-16.906,122.072-16.906S510,415.525,510,424.867Z"/><path class="cls-116" d="M509.391,424.884c0,9.3-54.368,16.845-121.45,16.845s-121.465-7.541-121.465-16.845,54.39-16.822,121.465-16.822S509.391,415.589,509.391,424.884Z"/><path class="cls-117" d="M508.783,424.9c0,9.257-54.1,16.76-120.842,16.76s-120.858-7.5-120.858-16.76,54.118-16.738,120.858-16.738S508.783,415.652,508.783,424.9Z"/><path class="cls-118" d="M508.176,424.918c0,9.211-53.824,16.676-120.235,16.676S267.69,434.129,267.69,424.918s53.847-16.654,120.251-16.654S508.176,415.715,508.176,424.918Z"/><path class="cls-119" d="M507.569,424.934c0,9.165-53.552,16.592-119.628,16.592S268.3,434.1,268.3,424.934s53.574-16.57,119.643-16.57S507.569,415.778,507.569,424.934Z"/><path class="cls-120" d="M506.961,424.951c0,9.118-53.279,16.508-119.02,16.508S268.9,434.069,268.9,424.951s53.3-16.486,119.036-16.486S506.961,415.841,506.961,424.951Z"/><path class="cls-121" d="M506.354,424.968c0,9.071-53.008,16.423-118.413,16.423s-118.429-7.352-118.429-16.423,53.031-16.4,118.429-16.4S506.354,415.9,506.354,424.968Z"/><path class="cls-122" d="M505.747,424.985c0,9.024-52.736,16.339-117.806,16.339s-117.822-7.315-117.822-16.339,52.759-16.318,117.822-16.318S505.747,415.967,505.747,424.985Z"/><path class="cls-123" d="M505.139,425c0,8.979-52.463,16.255-117.2,16.255S270.726,433.98,270.726,425s52.488-16.233,117.215-16.233S505.139,416.031,505.139,425Z"/><path class="cls-124" d="M504.532,425.018c0,8.932-52.192,16.171-116.591,16.171s-116.607-7.239-116.607-16.171,52.215-16.149,116.607-16.149S504.532,416.094,504.532,425.018Z"/><path class="cls-125" d="M503.925,425.035c0,8.885-51.92,16.086-115.984,16.086s-116-7.2-116-16.086,51.943-16.065,116-16.065S503.925,416.157,503.925,425.035Z"/><path class="cls-126" d="M503.318,425.052c0,8.838-51.648,16-115.377,16s-115.393-7.164-115.393-16,51.672-15.981,115.393-15.981S503.318,416.22,503.318,425.052Z"/><path class="cls-127" d="M502.71,425.068c0,8.792-51.376,15.918-114.769,15.918s-114.786-7.126-114.786-15.918,51.4-15.9,114.786-15.9S502.71,416.283,502.71,425.068Z"/><path class="cls-128" d="M502.1,425.085c0,8.745-51.1,15.834-114.162,15.834s-114.178-7.089-114.178-15.834,51.127-15.813,114.178-15.813S502.1,416.346,502.1,425.085Z"/><path class="cls-129" d="M501.5,425.1c0,8.7-50.832,15.749-113.555,15.749S274.37,433.8,274.37,425.1s50.856-15.729,113.571-15.729S501.5,416.409,501.5,425.1Z"/><path class="cls-130" d="M500.888,425.119c0,8.652-50.56,15.665-112.947,15.665s-112.964-7.013-112.964-15.665,50.584-15.645,112.964-15.645S500.888,416.472,500.888,425.119Z"/><path class="cls-131" d="M500.281,425.136c0,8.6-50.288,15.58-112.34,15.58s-112.357-6.975-112.357-15.58,50.313-15.561,112.357-15.561S500.281,416.536,500.281,425.136Z"/><path class="cls-132" d="M499.674,425.152c0,8.559-50.017,15.5-111.733,15.5s-111.75-6.938-111.75-15.5,50.041-15.476,111.75-15.476S499.674,416.6,499.674,425.152Z"/><path class="cls-133" d="M499.066,425.169c0,8.512-49.744,15.413-111.125,15.413S276.8,433.681,276.8,425.169s49.768-15.392,111.142-15.392S499.066,416.662,499.066,425.169Z"/><path class="cls-134" d="M498.459,425.186c0,8.466-49.472,15.328-110.518,15.328s-110.535-6.862-110.535-15.328,49.5-15.308,110.535-15.308S498.459,416.725,498.459,425.186Z"/><path class="cls-135" d="M497.852,425.2c0,8.419-49.2,15.244-109.911,15.244S278.013,433.622,278.013,425.2s49.225-15.225,109.928-15.225S497.852,416.788,497.852,425.2Z"/><path class="cls-136" d="M497.245,425.219c0,8.373-48.929,15.16-109.3,15.16s-109.321-6.787-109.321-15.16,48.953-15.14,109.321-15.14S497.245,416.851,497.245,425.219Z"/><path class="cls-137" d="M496.637,425.236c0,8.326-48.656,15.076-108.7,15.076s-108.713-6.75-108.713-15.076,48.681-15.056,108.713-15.056S496.637,416.914,496.637,425.236Z"/><path class="cls-138" d="M496.03,425.253c0,8.279-48.385,14.991-108.089,14.991s-108.106-6.712-108.106-14.991,48.409-14.972,108.106-14.972S496.03,416.978,496.03,425.253Z"/><path class="cls-139" d="M495.423,425.27c0,8.232-48.113,14.907-107.482,14.907s-107.5-6.675-107.5-14.907,48.138-14.888,107.5-14.888S495.423,417.041,495.423,425.27Z"/><path class="cls-140" d="M494.815,425.286c0,8.187-47.84,14.823-106.874,14.823s-106.892-6.636-106.892-14.823,47.866-14.8,106.892-14.8S494.815,417.1,494.815,425.286Z"/><path class="cls-141" d="M494.208,425.3c0,8.14-47.569,14.739-106.267,14.739s-106.284-6.6-106.284-14.739,47.593-14.719,106.284-14.719S494.208,417.167,494.208,425.3Z"/><path class="cls-142" d="M493.6,425.32c0,8.093-47.3,14.654-105.66,14.654s-105.677-6.561-105.677-14.654,47.322-14.635,105.677-14.635S493.6,417.23,493.6,425.32Z"/><path class="cls-143" d="M492.993,425.337c0,8.046-47.024,14.57-105.052,14.57s-105.07-6.524-105.07-14.57,47.05-14.552,105.07-14.552S492.993,417.293,492.993,425.337Z"/><path class="cls-144" d="M492.386,425.353c0,8-46.753,14.486-104.445,14.486s-104.463-6.486-104.463-14.486,46.778-14.467,104.463-14.467S492.386,417.356,492.386,425.353Z"/><path class="cls-145" d="M491.779,425.37c0,7.954-46.481,14.4-103.838,14.4s-103.856-6.448-103.856-14.4,46.507-14.383,103.856-14.383S491.779,417.42,491.779,425.37Z"/><path class="cls-146" d="M491.171,425.387c0,7.907-46.209,14.317-103.23,14.317s-103.248-6.41-103.248-14.317,46.234-14.3,103.248-14.3S491.171,417.483,491.171,425.387Z"/><path class="cls-147" d="M490.564,425.4c0,7.86-45.937,14.233-102.623,14.233S285.3,433.264,285.3,425.4s45.963-14.215,102.641-14.215S490.564,417.546,490.564,425.4Z"/><path class="cls-148" d="M489.957,425.42c0,7.814-45.665,14.149-102.016,14.149s-102.034-6.335-102.034-14.149,45.691-14.13,102.034-14.13S489.957,417.609,489.957,425.42Z"/><path class="cls-149" d="M489.35,425.437c0,7.767-45.394,14.065-101.409,14.065s-101.427-6.3-101.427-14.065,45.419-14.046,101.427-14.046S489.35,417.672,489.35,425.437Z"/><path class="cls-150" d="M488.742,425.454c0,7.721-45.121,13.98-100.8,13.98s-100.819-6.259-100.819-13.98,45.147-13.962,100.819-13.962S488.742,417.735,488.742,425.454Z"/><path class="cls-151" d="M488.135,425.471c0,7.674-44.849,13.9-100.194,13.9s-100.212-6.222-100.212-13.9,44.875-13.878,100.212-13.878S488.135,417.8,488.135,425.471Z"/><path class="cls-152" d="M487.528,425.487c0,7.628-44.578,13.812-99.587,13.812s-99.6-6.184-99.6-13.812,44.6-13.794,99.6-13.794S487.528,417.862,487.528,425.487Z"/><path class="cls-153" d="M486.92,425.5c0,7.581-44.305,13.728-98.979,13.728s-99-6.147-99-13.728,44.332-13.71,99-13.71S486.92,417.925,486.92,425.5Z"/><path class="cls-154" d="M486.313,425.521c0,7.534-44.033,13.643-98.372,13.643s-98.391-6.109-98.391-13.643S333.61,411.9,387.941,411.9,486.313,417.988,486.313,425.521Z"/><path class="cls-155" d="M485.706,425.538c0,7.487-43.762,13.559-97.765,13.559s-97.783-6.072-97.783-13.559S333.946,412,387.941,412,485.706,418.051,485.706,425.538Z"/><path class="cls-156" d="M485.1,425.554c0,7.442-43.489,13.475-97.157,13.475S290.765,433,290.765,425.554,334.281,412.1,387.941,412.1,485.1,418.114,485.1,425.554Z"/><path class="cls-157" d="M484.491,425.571c0,7.395-43.217,13.391-96.55,13.391s-96.569-6-96.569-13.391S334.616,412.2,387.941,412.2,484.491,418.177,484.491,425.571Z"/><path class="cls-158" d="M483.884,425.588c0,7.348-42.946,13.307-95.943,13.307s-95.962-5.959-95.962-13.307S334.952,412.3,387.941,412.3,483.884,418.24,483.884,425.588Z"/><path class="cls-159" d="M483.276,425.605c0,7.3-42.673,13.222-95.335,13.222s-95.354-5.921-95.354-13.222,42.7-13.205,95.354-13.205S483.276,418.3,483.276,425.605Z"/><path class="cls-160" d="M482.669,425.621c0,7.255-42.4,13.139-94.728,13.139s-94.747-5.884-94.747-13.139S335.622,412.5,387.941,412.5,482.669,418.367,482.669,425.621Z"/><path class="cls-161" d="M482.062,425.638c0,7.209-42.13,13.054-94.121,13.054s-94.14-5.845-94.14-13.054,42.157-13.037,94.14-13.037S482.062,418.43,482.062,425.638Z"/><path class="cls-162" d="M481.455,425.655c0,7.162-41.858,12.97-93.514,12.97s-93.533-5.808-93.533-12.97S336.293,412.7,387.941,412.7,481.455,418.493,481.455,425.655Z"/><path class="cls-163" d="M480.847,425.672c0,7.115-41.586,12.885-92.906,12.885s-92.925-5.77-92.925-12.885S336.629,412.8,387.941,412.8,480.847,418.556,480.847,425.672Z"/><path class="cls-164" d="M480.24,425.689c0,7.068-41.314,12.8-92.3,12.8s-92.318-5.733-92.318-12.8S336.964,412.9,387.941,412.9,480.24,418.619,480.24,425.689Z"/><path class="cls-165" d="M479.633,425.705c0,7.022-41.042,12.717-91.692,12.717s-91.711-5.7-91.711-12.717,41.069-12.7,91.711-12.7S479.633,418.682,479.633,425.705Z"/><path class="cls-166" d="M479.025,425.722c0,6.975-40.77,12.633-91.084,12.633s-91.1-5.658-91.1-12.633,40.8-12.616,91.1-12.616S479.025,418.745,479.025,425.722Z"/><path class="cls-167" d="M478.418,425.739c0,6.929-40.5,12.548-90.477,12.548s-90.5-5.619-90.5-12.548,40.526-12.532,90.5-12.532S478.418,418.809,478.418,425.739Z"/><path class="cls-168" d="M477.811,425.756c0,6.882-40.226,12.464-89.87,12.464s-89.889-5.582-89.889-12.464,40.253-12.449,89.889-12.449S477.811,418.872,477.811,425.756Z"/><path class="cls-169" d="M477.2,425.772c0,6.836-39.954,12.38-89.262,12.38s-89.282-5.544-89.282-12.38,39.982-12.364,89.282-12.364S477.2,418.935,477.2,425.772Z"/><path class="cls-170" d="M476.6,425.789c0,6.789-39.682,12.3-88.655,12.3s-88.675-5.507-88.675-12.3,39.71-12.28,88.675-12.28S476.6,419,476.6,425.789Z"/><path class="cls-171" d="M475.989,425.806c0,6.742-39.41,12.211-88.048,12.211s-88.068-5.469-88.068-12.211,39.439-12.2,88.068-12.2S475.989,419.061,475.989,425.806Z"/><path class="cls-172" d="M475.382,425.823c0,6.7-39.139,12.127-87.441,12.127s-87.46-5.431-87.46-12.127,39.166-12.112,87.46-12.112S475.382,419.124,475.382,425.823Z"/><path class="cls-173" d="M474.774,425.839c0,6.65-38.866,12.043-86.833,12.043s-86.853-5.393-86.853-12.043,38.894-12.027,86.853-12.027S474.774,419.187,474.774,425.839Z"/><path class="cls-174" d="M474.167,425.856c0,6.6-38.594,11.959-86.226,11.959S301.7,432.459,301.7,425.856s38.623-11.943,86.246-11.943S474.167,419.251,474.167,425.856Z"/><path class="cls-175" d="M473.56,425.873c0,6.556-38.323,11.874-85.619,11.874S302.3,432.429,302.3,425.873s38.351-11.859,85.639-11.859S473.56,419.314,473.56,425.873Z"/><path class="cls-176" d="M472.952,425.89c0,6.509-38.05,11.79-85.011,11.79S302.91,432.4,302.91,425.89s38.079-11.776,85.031-11.776S472.952,419.377,472.952,425.89Z"/><path class="cls-177" d="M472.345,425.906c0,6.463-37.779,11.706-84.4,11.706s-84.424-5.243-84.424-11.706,37.807-11.691,84.424-11.691S472.345,419.44,472.345,425.906Z"/><path class="cls-178" d="M471.738,425.923c0,6.417-37.507,11.622-83.8,11.622s-83.817-5.205-83.817-11.622,37.535-11.607,83.817-11.607S471.738,419.5,471.738,425.923Z"/><path class="cls-179" d="M471.13,425.94c0,6.37-37.234,11.537-83.189,11.537s-83.21-5.167-83.21-11.537,37.264-11.523,83.21-11.523S471.13,419.566,471.13,425.94Z"/><path class="cls-180" d="M470.523,425.957c0,6.323-36.963,11.453-82.582,11.453s-82.6-5.13-82.6-11.453,36.992-11.439,82.6-11.439S470.523,419.629,470.523,425.957Z"/><path class="cls-181" d="M469.916,425.973c0,6.277-36.691,11.369-81.975,11.369s-81.995-5.092-81.995-11.369,36.719-11.354,81.995-11.354S469.916,419.693,469.916,425.973Z"/><path class="cls-182" d="M469.308,425.99c0,6.23-36.418,11.285-81.367,11.285s-81.388-5.055-81.388-11.285S343,414.72,387.941,414.72,469.308,419.756,469.308,425.99Z"/><path class="cls-183" d="M468.7,426.007c0,6.184-36.147,11.2-80.76,11.2s-80.781-5.017-80.781-11.2,36.176-11.186,80.781-11.186S468.7,419.819,468.7,426.007Z"/><path class="cls-184" d="M468.094,426.024c0,6.137-35.875,11.116-80.153,11.116s-80.174-4.979-80.174-11.116,35.905-11.1,80.174-11.1S468.094,419.882,468.094,426.024Z"/><path class="cls-185" d="M467.487,426.04c0,6.091-35.6,11.033-79.546,11.033s-79.566-4.942-79.566-11.033,35.632-11.018,79.566-11.018S467.487,419.945,467.487,426.04Z"/><path class="cls-186" d="M466.879,426.057c0,6.044-35.331,10.948-78.938,10.948s-78.959-4.9-78.959-10.948,35.36-10.934,78.959-10.934S466.879,420.008,466.879,426.057Z"/><path class="cls-187" d="M466.272,426.074c0,6-35.059,10.864-78.331,10.864s-78.352-4.867-78.352-10.864,35.089-10.85,78.352-10.85S466.272,420.071,466.272,426.074Z"/><path class="cls-188" d="M465.665,426.091c0,5.95-34.787,10.779-77.724,10.779S310.2,432.041,310.2,426.091s34.817-10.766,77.745-10.766S465.665,420.135,465.665,426.091Z"/><path class="cls-189" d="M465.057,426.107c0,5.9-34.515,10.7-77.116,10.7s-77.138-4.791-77.138-10.7,34.545-10.681,77.138-10.681S465.057,420.2,465.057,426.107Z"/><path class="cls-190" d="M464.45,426.124c0,5.858-34.243,10.611-76.509,10.611s-76.53-4.753-76.53-10.611,34.273-10.6,76.53-10.6S464.45,420.261,464.45,426.124Z"/><path class="cls-191" d="M463.843,426.141c0,5.811-33.972,10.527-75.9,10.527s-75.923-4.716-75.923-10.527,34-10.513,75.923-10.513S463.843,420.324,463.843,426.141Z"/><path class="cls-192" d="M463.235,426.158c0,5.764-33.7,10.442-75.294,10.442s-75.316-4.678-75.316-10.442,33.73-10.429,75.316-10.429S463.235,420.387,463.235,426.158Z"/><path class="cls-193" d="M462.628,426.175c0,5.717-33.427,10.358-74.687,10.358s-74.709-4.641-74.709-10.358,33.458-10.346,74.709-10.346S462.628,420.45,462.628,426.175Z"/><path class="cls-194" d="M462.021,426.191c0,5.672-33.156,10.274-74.08,10.274s-74.1-4.6-74.1-10.274,33.185-10.261,74.1-10.261S462.021,420.513,462.021,426.191Z"/><path class="cls-195" d="M461.413,426.208c0,5.625-32.883,10.19-73.472,10.19s-73.494-4.565-73.494-10.19,32.914-10.177,73.494-10.177S461.413,420.576,461.413,426.208Z"/><path class="cls-196" d="M460.806,426.225c0,5.578-32.611,10.1-72.865,10.1s-72.887-4.527-72.887-10.1,32.642-10.093,72.887-10.093S460.806,420.64,460.806,426.225Z"/><path class="cls-197" d="M460.2,426.242c0,5.531-32.34,10.021-72.258,10.021s-72.28-4.49-72.28-10.021,32.37-10.009,72.28-10.009S460.2,420.7,460.2,426.242Z"/><path class="cls-198" d="M459.592,426.258c0,5.485-32.068,9.937-71.651,9.937s-71.672-4.452-71.672-9.937,32.1-9.924,71.672-9.924S459.592,420.766,459.592,426.258Z"/><path class="cls-199" d="M458.984,426.275c0,5.438-31.795,9.853-71.043,9.853s-71.065-4.415-71.065-9.853,31.826-9.84,71.065-9.84S458.984,420.829,458.984,426.275Z"/><path class="cls-200" d="M458.377,426.292c0,5.392-31.524,9.768-70.436,9.768s-70.458-4.376-70.458-9.768,31.555-9.756,70.458-9.756S458.377,420.892,458.377,426.292Z"/><path class="cls-201" d="M457.77,426.309c0,5.345-31.252,9.684-69.829,9.684s-69.851-4.339-69.851-9.684,31.283-9.673,69.851-9.673S457.77,420.955,457.77,426.309Z"/><path class="cls-202" d="M457.162,426.325c0,5.3-30.979,9.6-69.221,9.6s-69.244-4.3-69.244-9.6,31.011-9.588,69.244-9.588S457.162,421.018,457.162,426.325Z"/><path class="cls-203" d="M456.555,426.342c0,5.252-30.708,9.516-68.614,9.516s-68.636-4.264-68.636-9.516,30.739-9.5,68.636-9.5S456.555,421.082,456.555,426.342Z"/><path class="cls-204" d="M455.948,426.359c0,5.205-30.436,9.431-68.007,9.431s-68.029-4.226-68.029-9.431,30.467-9.42,68.029-9.42S455.948,421.145,455.948,426.359Z"/><path class="cls-205" d="M455.34,426.376c0,5.159-30.164,9.347-67.4,9.347s-67.422-4.188-67.422-9.347,30.195-9.336,67.422-9.336S455.34,421.208,455.34,426.376Z"/><path class="cls-206" d="M454.733,426.392c0,5.113-29.892,9.263-66.792,9.263s-66.815-4.15-66.815-9.263,29.924-9.251,66.815-9.251S454.733,421.271,454.733,426.392Z"/><path class="cls-207" d="M454.126,426.409c0,5.066-29.62,9.179-66.185,9.179s-66.207-4.113-66.207-9.179,29.651-9.167,66.207-9.167S454.126,421.334,454.126,426.409Z"/><path class="cls-208" d="M453.519,426.426c0,5.019-29.349,9.1-65.578,9.1s-65.6-4.076-65.6-9.1,29.38-9.083,65.6-9.083S453.519,421.4,453.519,426.426Z"/><path class="cls-209" d="M452.911,426.443c0,4.972-29.076,9.01-64.97,9.01s-64.993-4.038-64.993-9.01,29.108-9,64.993-9S452.911,421.46,452.911,426.443Z"/><path class="cls-210" d="M452.3,426.459c0,4.926-28.8,8.927-64.363,8.927s-64.386-4-64.386-8.927,28.836-8.915,64.386-8.915S452.3,421.524,452.3,426.459Z"/><path class="cls-211" d="M451.7,426.476c0,4.88-28.533,8.842-63.756,8.842s-63.778-3.962-63.778-8.842,28.564-8.831,63.778-8.831S451.7,421.587,451.7,426.476Z"/><path class="cls-212" d="M451.089,426.493c0,4.833-28.26,8.758-63.148,8.758s-63.171-3.925-63.171-8.758,28.292-8.747,63.171-8.747S451.089,421.65,451.089,426.493Z"/><path class="cls-213" d="M450.482,426.51c0,4.786-27.988,8.673-62.541,8.673s-62.564-3.887-62.564-8.673,28.02-8.663,62.564-8.663S450.482,421.713,450.482,426.51Z"/><path class="cls-214" d="M449.875,426.526c0,4.74-27.717,8.59-61.934,8.59s-61.957-3.85-61.957-8.59,27.749-8.578,61.957-8.578S449.875,421.776,449.875,426.526Z"/><path class="cls-215" d="M449.267,426.543c0,4.693-27.444,8.5-61.326,8.5s-61.35-3.812-61.35-8.5,27.477-8.494,61.35-8.494S449.267,421.839,449.267,426.543Z"/><path class="cls-216" d="M448.66,426.56c0,4.647-27.172,8.421-60.719,8.421S327.2,431.207,327.2,426.56s27.2-8.41,60.742-8.41S448.66,421.9,448.66,426.56Z"/><path class="cls-217" d="M448.053,426.577c0,4.6-26.9,8.336-60.112,8.336s-60.135-3.736-60.135-8.336,26.933-8.327,60.135-8.327S448.053,421.966,448.053,426.577Z"/><path class="cls-218" d="M447.445,426.593c0,4.554-26.628,8.253-59.5,8.253s-59.528-3.7-59.528-8.253,26.661-8.242,59.528-8.242S447.445,422.029,447.445,426.593Z"/><path class="cls-219" d="M446.838,426.61c0,4.507-26.356,8.168-58.9,8.168s-58.921-3.661-58.921-8.168,26.39-8.158,58.921-8.158S446.838,422.092,446.838,426.61Z"/><path class="cls-220" d="M446.231,426.627c0,4.46-26.085,8.084-58.29,8.084s-58.313-3.624-58.313-8.084,26.117-8.074,58.313-8.074S446.231,422.155,446.231,426.627Z"/><path class="cls-221" d="M445.624,426.644c0,4.413-25.813,8-57.683,8s-57.706-3.586-57.706-8,25.845-7.99,57.706-7.99S445.624,422.218,445.624,426.644Z"/><path class="cls-222" d="M445.016,426.661c0,4.367-25.541,7.915-57.075,7.915s-57.1-3.548-57.1-7.915,25.574-7.906,57.1-7.906S445.016,422.281,445.016,426.661Z"/><path class="cls-223" d="M444.409,426.677c0,4.321-25.269,7.831-56.468,7.831s-56.492-3.51-56.492-7.831,25.3-7.821,56.492-7.821S444.409,422.344,444.409,426.677Z"/><path class="cls-224" d="M443.8,426.694c0,4.274-25,7.747-55.861,7.747s-55.885-3.473-55.885-7.747,25.031-7.737,55.885-7.737S443.8,422.408,443.8,426.694Z"/><path class="cls-225" d="M443.194,426.711c0,4.227-24.725,7.662-55.253,7.662s-55.277-3.435-55.277-7.662,24.758-7.654,55.277-7.654S443.194,422.471,443.194,426.711Z"/><path class="cls-226" d="M442.587,426.728c0,4.18-24.453,7.578-54.646,7.578s-54.67-3.4-54.67-7.578,24.486-7.57,54.67-7.57S442.587,422.534,442.587,426.728Z"/><path class="cls-227" d="M441.98,426.744c0,4.135-24.181,7.494-54.039,7.494s-54.063-3.359-54.063-7.494,24.215-7.485,54.063-7.485S441.98,422.6,441.98,426.744Z"/><path class="cls-228" d="M441.372,426.761c0,4.088-23.909,7.41-53.431,7.41s-53.456-3.322-53.456-7.41,23.943-7.4,53.456-7.4S441.372,422.66,441.372,426.761Z"/><path class="cls-229" d="M440.765,426.778c0,4.041-23.637,7.325-52.824,7.325s-52.848-3.284-52.848-7.325,23.67-7.317,52.848-7.317S440.765,422.723,440.765,426.778Z"/><path class="cls-230" d="M440.158,426.8c0,3.994-23.365,7.241-52.217,7.241S335.7,430.789,335.7,426.8c0-4.009,23.4-7.233,52.241-7.233S440.158,422.786,440.158,426.8Z"/><path class="cls-231" d="M439.55,426.811c0,3.948-23.093,7.157-51.609,7.157s-51.634-3.209-51.634-7.157,23.127-7.148,51.634-7.148S439.55,422.849,439.55,426.811Z"/><path class="cls-232" d="M438.943,426.828c0,3.9-22.821,7.073-51,7.073s-51.027-3.171-51.027-7.073,22.856-7.064,51.027-7.064S438.943,422.913,438.943,426.828Z"/><path class="cls-233" d="M438.336,426.845c0,3.855-22.549,6.989-50.4,6.989s-50.419-3.134-50.419-6.989,22.583-6.98,50.419-6.98S438.336,422.976,438.336,426.845Z"/><path class="cls-234" d="M437.729,426.862c0,3.808-22.278,6.9-49.788,6.9s-49.812-3.1-49.812-6.9c0-3.823,22.311-6.9,49.812-6.9S437.729,423.039,437.729,426.862Z"/><path class="cls-235" d="M437.121,426.878c0,3.762-22,6.821-49.18,6.821s-49.2-3.059-49.2-6.821,22.04-6.812,49.2-6.812S437.121,423.1,437.121,426.878Z"/><path class="cls-236" d="M436.514,426.9c0,3.715-21.734,6.736-48.573,6.736s-48.6-3.021-48.6-6.736,21.768-6.728,48.6-6.728S436.514,423.165,436.514,426.9Z"/><path class="cls-237" d="M435.907,426.912c0,3.668-21.462,6.652-47.966,6.652s-47.991-2.984-47.991-6.652c0-3.684,21.5-6.644,47.991-6.644S435.907,423.228,435.907,426.912Z"/><path class="cls-238" d="M435.3,426.929c0,3.622-21.189,6.567-47.358,6.567s-47.383-2.945-47.383-6.567c0-3.638,21.224-6.56,47.383-6.56S435.3,423.291,435.3,426.929Z"/><path class="cls-239" d="M434.692,426.945c0,3.576-20.918,6.484-46.751,6.484s-46.776-2.908-46.776-6.484,20.952-6.475,46.776-6.475S434.692,423.355,434.692,426.945Z"/><path class="cls-240" d="M434.085,426.962c0,3.529-20.646,6.4-46.144,6.4s-46.169-2.87-46.169-6.4,20.681-6.391,46.169-6.391S434.085,423.418,434.085,426.962Z"/><path class="cls-241" d="M433.477,426.979c0,3.482-20.373,6.315-45.536,6.315s-45.562-2.833-45.562-6.315c0-3.5,20.409-6.307,45.562-6.307S433.477,423.481,433.477,426.979Z"/><path class="cls-242" d="M432.87,427c0,3.435-20.1,6.23-44.929,6.23s-44.954-2.8-44.954-6.23c0-3.452,20.136-6.224,44.954-6.224S432.87,423.544,432.87,427Z"/><path class="cls-243" d="M432.263,427.012c0,3.39-19.83,6.147-44.322,6.147s-44.347-2.757-44.347-6.147,19.865-6.139,44.347-6.139S432.263,423.607,432.263,427.012Z"/><path class="cls-244" d="M431.656,427.029c0,3.343-19.558,6.062-43.715,6.062s-43.74-2.719-43.74-6.062c0-3.359,19.593-6.055,43.74-6.055S431.656,423.67,431.656,427.029Z"/><path class="cls-245" d="M431.048,427.046c0,3.3-19.286,5.978-43.107,5.978s-43.133-2.682-43.133-5.978c0-3.313,19.321-5.971,43.133-5.971S431.048,423.733,431.048,427.046Z"/><path class="cls-246" d="M430.441,427.063c0,3.249-19.014,5.893-42.5,5.893s-42.525-2.644-42.525-5.893c0-3.266,19.049-5.887,42.525-5.887S430.441,423.8,430.441,427.063Z"/><path class="cls-247" d="M429.834,427.079c0,3.2-18.742,5.81-41.893,5.81s-41.918-2.607-41.918-5.81c0-3.219,18.777-5.8,41.918-5.8S429.834,423.86,429.834,427.079Z"/><path class="cls-248" d="M429.226,427.1c0,3.156-18.47,5.725-41.285,5.725s-41.311-2.569-41.311-5.725c0-3.173,18.506-5.718,41.311-5.718S429.226,423.923,429.226,427.1Z"/><path class="cls-249" d="M428.619,427.113c0,3.11-18.2,5.641-40.678,5.641s-40.7-2.531-40.7-5.641c0-3.127,18.234-5.634,40.7-5.634S428.619,423.986,428.619,427.113Z"/><path class="cls-250" d="M428.012,427.13c0,3.063-17.927,5.556-40.071,5.556s-40.1-2.493-40.1-5.556c0-3.081,17.962-5.551,40.1-5.551S428.012,424.049,428.012,427.13Z"/><path class="cls-251" d="M427.4,427.147c0,3.016-17.654,5.472-39.463,5.472s-39.489-2.456-39.489-5.472c0-3.035,17.69-5.467,39.489-5.467S427.4,424.112,427.4,427.147Z"/><path class="cls-252" d="M426.8,427.163c0,2.97-17.382,5.388-38.856,5.388s-38.882-2.418-38.882-5.388c0-2.988,17.418-5.382,38.882-5.382S426.8,424.175,426.8,427.163Z"/><path class="cls-253" d="M426.19,427.18c0,2.923-17.111,5.3-38.249,5.3s-38.275-2.381-38.275-5.3c0-2.941,17.146-5.3,38.275-5.3S426.19,424.239,426.19,427.18Z"/><path class="cls-254" d="M425.582,427.2c0,2.877-16.838,5.219-37.641,5.219s-37.668-2.342-37.668-5.219c0-2.895,16.875-5.214,37.668-5.214S425.582,424.3,425.582,427.2Z"/><path class="cls-255" d="M424.975,427.214c0,2.83-16.566,5.135-37.034,5.135s-37.06-2.305-37.06-5.135c0-2.849,16.6-5.13,37.06-5.13S424.975,424.365,424.975,427.214Z"/><path class="cls-256" d="M424.368,427.23c0,2.784-16.3,5.052-36.427,5.052s-36.453-2.268-36.453-5.052c0-2.8,16.331-5.045,36.453-5.045S424.368,424.428,424.368,427.23Z"/><path class="cls-257" d="M423.761,427.247c0,2.737-16.023,4.967-35.82,4.967s-35.846-2.23-35.846-4.967c0-2.756,16.059-4.961,35.846-4.961S423.761,424.491,423.761,427.247Z"/><path class="cls-258" d="M423.153,427.264c0,2.69-15.75,4.883-35.212,4.883s-35.239-2.193-35.239-4.883c0-2.71,15.787-4.878,35.239-4.878S423.153,424.554,423.153,427.264Z"/><path class="cls-259" d="M422.546,427.281c0,2.643-15.479,4.8-34.605,4.8s-34.632-2.155-34.632-4.8c0-2.664,15.516-4.794,34.632-4.794S422.546,424.617,422.546,427.281Z"/><path d="M421.939,427.3c0,2.6-15.207,4.715-34,4.715s-34.024-2.117-34.024-4.715c0-2.616,15.243-4.709,34.024-4.709S421.939,424.681,421.939,427.3Z"/></g></g></g></svg>