<svg xmlns="http://www.w3.org/2000/svg" viewBox="0 0 800 600"><defs><style>.cls-1{isolation:isolate;}.cls-2{fill:#303070;}.cls-3{fill:#797c7b;}.cls-4{fill:#3a3a8c;}.cls-5{opacity:0.2;mix-blend-mode:multiply;}.cls-6{fill:#fff;opacity:0;}.cls-7{fill:#fefefe;opacity:0.004;}.cls-8{fill:#fdfdfd;opacity:0.008;}.cls-9{fill:#fcfcfc;opacity:0.012;}.cls-10{fill:#fbfbfb;opacity:0.016;}.cls-11{fill:#fafafa;opacity:0.02;}.cls-12{fill:#f9f9f9;opacity:0.024;}.cls-13{fill:#f8f8f8;opacity:0.027;}.cls-14{fill:#f7f7f7;opacity:0.031;}.cls-15{fill:#f6f6f6;opacity:0.035;}.cls-16{fill:#f5f5f5;opacity:0.039;}.cls-17{fill:#f4f4f4;opacity:0.043;}.cls-18{fill:#f3f3f3;opacity:0.047;}.cls-19{fill:#f2f2f2;opacity:0.051;}.cls-20{fill:#f1f1f1;opacity:0.055;}.cls-21{fill:#f0f0f0;opacity:0.059;}.cls-22{fill:#efefef;opacity:0.063;}.cls-23{fill:#eee;opacity:0.067;}.cls-24{fill:#ededed;opacity:0.071;}.cls-25{fill:#ececec;opacity:0.075;}.cls-26{fill:#ebebeb;opacity:0.078;}.cls-27{fill:#eaeaea;opacity:0.082;}.cls-28{fill:#e9e9e9;opacity:0.086;}.cls-29{fill:#e8e8e8;opacity:0.09;}.cls-30{fill:#e7e7e7;opacity:0.094;}.cls-31{fill:#e6e6e6;opacity:0.098;}.cls-32{fill:#e5e5e5;opacity:0.102;}.cls-33{fill:#e4e4e4;opacity:0.106;}.cls-34{fill:#e3e3e3;opacity:0.11;}.cls-35{fill:#e2e2e2;opacity:0.114;}.cls-36{fill:#e1e1e1;opacity:0.118;}.cls-37{fill:#e0e0e0;opacity:0.122;}.cls-38{fill:#dfdfdf;opacity:0.125;}.cls-39{fill:#dedede;opacity:0.129;}.cls-40{fill:#ddd;opacity:0.133;}.cls-41{fill:#dcdcdc;opacity:0.137;}.cls-42{fill:#dbdbdb;opacity:0.141;}.cls-43{fill:#dadada;opacity:0.145;}.cls-44{fill:#d9d9d9;opacity:0.149;}.cls-45{fill:#d8d8d8;opacity:0.153;}.cls-46{fill:#d7d7d7;opacity:0.157;}.cls-47{fill:#d6d6d6;opacity:0.161;}.cls-48{fill:#d5d5d5;opacity:0.165;}.cls-49{fill:#d4d4d4;opacity:0.169;}.cls-50{fill:#d3d3d3;opacity:0.173;}.cls-51{fill:#d2d2d2;opacity:0.176;}.cls-52{fill:#d1d1d1;opacity:0.18;}.cls-53{fill:#d0d0d0;opacity:0.184;}.cls-54{fill:#cfcfcf;opacity:0.188;}.cls-55{fill:#cecece;opacity:0.192;}.cls-56{fill:#cdcdcd;opacity:0.196;}.cls-57{fill:#ccc;opacity:0.2;}.cls-58{fill:#cbcbcb;opacity:0.204;}.cls-59{fill:#cacaca;opacity:0.208;}.cls-60{fill:#c9c9c9;opacity:0.212;}.cls-61{fill:#c8c8c8;opacity:0.216;}.cls-62{fill:#c7c7c7;opacity:0.22;}.cls-63{fill:#c6c6c6;opacity:0.224;}.cls-64{fill:#c5c5c5;opacity:0.227;}.cls-65{fill:#c4c4c4;opacity:0.231;}.cls-66{fill:#c3c3c3;opacity:0.235;}.cls-67{fill:#c2c2c2;opacity:0.239;}.cls-68{fill:#c1c1c1;opacity:0.243;}.cls-69{fill:silver;opacity:0.247;}.cls-70{fill:#bfbfbf;opacity:0.251;}.cls-71{fill:#bebebe;opacity:0.255;}.cls-72{fill:#bdbdbd;opacity:0.259;}.cls-73{fill:#bcbcbc;opacity:0.263;}.cls-74{fill:#bbb;opacity:0.267;}.cls-75{fill:#bababa;opacity:0.271;}.cls-76{fill:#b9b9b9;opacity:0.275;}.cls-77{fill:#b8b8b8;opacity:0.278;}.cls-78{fill:#b7b7b7;opacity:0.282;}.cls-79{fill:#b6b6b6;opacity:0.286;}.cls-80{fill:#b5b5b5;opacity:0.29;}.cls-81{fill:#b4b4b4;opacity:0.294;}.cls-82{fill:#b3b3b3;opacity:0.298;}.cls-83{fill:#b2b2b2;opacity:0.302;}.cls-84{fill:#b1b1b1;opacity:0.306;}.cls-85{fill:#b0b0b0;opacity:0.31;}.cls-86{fill:#afafaf;opacity:0.314;}.cls-87{fill:#aeaeae;opacity:0.318;}.cls-88{fill:#adadad;opacity:0.322;}.cls-89{fill:#acacac;opacity:0.325;}.cls-90{fill:#ababab;opacity:0.329;}.cls-91{fill:#aaa;opacity:0.333;}.cls-92{fill:#a9a9a9;opacity:0.337;}.cls-93{fill:#a8a8a8;opacity:0.341;}.cls-94{fill:#a7a7a7;opacity:0.345;}.cls-95{fill:#a6a6a6;opacity:0.349;}.cls-96{fill:#a5a5a5;opacity:0.353;}.cls-97{fill:#a4a4a4;opacity:0.357;}.cls-98{fill:#a3a3a3;opacity:0.361;}.cls-99{fill:#a2a2a2;opacity:0.365;}.cls-100{fill:#a1a1a1;opacity:0.369;}.cls-101{fill:#a0a0a0;opacity:0.373;}.cls-102{fill:#9f9f9f;opacity:0.376;}.cls-103{fill:#9e9e9e;opacity:0.38;}.cls-104{fill:#9d9d9d;opacity:0.384;}.cls-105{fill:#9c9c9c;opacity:0.388;}.cls-106{fill:#9b9b9b;opacity:0.392;}.cls-107{fill:#9a9a9a;opacity:0.396;}.cls-108{fill:#999;opacity:0.4;}.cls-109{fill:#989898;opacity:0.404;}.cls-110{fill:#979797;opacity:0.408;}.cls-111{fill:#969696;opacity:0.412;}.cls-112{fill:#959595;opacity:0.416;}.cls-113{fill:#949494;opacity:0.42;}.cls-114{fill:#939393;opacity:0.424;}.cls-115{fill:#929292;opacity:0.427;}.cls-116{fill:#919191;opacity:0.431;}.cls-117{fill:#909090;opacity:0.435;}.cls-118{fill:#8f8f8f;opacity:0.439;}.cls-119{fill:#8e8e8e;opacity:0.443;}.cls-120{fill:#8d8d8d;opacity:0.447;}.cls-121{fill:#8c8c8c;opacity:0.451;}.cls-122{fill:#8b8b8b;opacity:0.455;}.cls-123{fill:#8a8a8a;opacity:0.459;}.cls-124{fill:#898989;opacity:0.463;}.cls-125{fill:#888;opacity:0.467;}.cls-126{fill:#878787;opacity:0.471;}.cls-127{fill:#868686;opacity:0.475;}.cls-128{fill:#858585;opacity:0.478;}.cls-129{fill:#848484;opacity:0.482;}.cls-130{fill:#838383;opacity:0.486;}.cls-131{fill:#828282;opacity:0.49;}.cls-132{fill:#818181;opacity:0.494;}.cls-133{fill:gray;opacity:0.498;}.cls-134{fill:#7f7f7f;opacity:0.502;}.cls-135{fill:#7e7e7e;opacity:0.506;}.cls-136{fill:#7d7d7d;opacity:0.51;}.cls-137{fill:#7c7c7c;opacity:0.514;}.cls-138{fill:#7b7b7b;opacity:0.518;}.cls-139{fill:#7a7a7a;opacity:0.522;}.cls-140{fill:#797979;opacity:0.525;}.cls-141{fill:#787878;opacity:0.529;}.cls-142{fill:#777;opacity:0.533;}.cls-143{fill:#767676;opacity:0.537;}.cls-144{fill:#757575;opacity:0.541;}.cls-145{fill:#747474;opacity:0.545;}.cls-146{fill:#737373;opacity:0.549;}.cls-147{fill:#727272;opacity:0.553;}.cls-148{fill:#717171;opacity:0.557;}.cls-149{fill:#707070;opacity:0.561;}.cls-150{fill:#6f6f6f;opacity:0.565;}.cls-151{fill:#6e6e6e;opacity:0.569;}.cls-152{fill:#6d6d6d;opacity:0.573;}.cls-153{fill:#6c6c6c;opacity:0.576;}.cls-154{fill:#6b6b6b;opacity:0.58;}.cls-155{fill:#6a6a6a;opacity:0.584;}.cls-156{fill:#696969;opacity:0.588;}.cls-157{fill:#686868;opacity:0.592;}.cls-158{fill:#676767;opacity:0.596;}.cls-159{fill:#666;opacity:0.6;}.cls-160{fill:#656565;opacity:0.604;}.cls-161{fill:#646464;opacity:0.608;}.cls-162{fill:#636363;opacity:0.612;}.cls-163{fill:#626262;opacity:0.616;}.cls-164{fill:#616161;opacity:0.62;}.cls-165{fill:#606060;opacity:0.624;}.cls-166{fill:#5f5f5f;opacity:0.627;}.cls-167{fill:#5e5e5e;opacity:0.631;}.cls-168{fill:#5d5d5d;opacity:0.635;}.cls-169{fill:#5c5c5c;opacity:0.639;}.cls-170{fill:#5b5b5b;opacity:0.643;}.cls-171{fill:#5a5a5a;opacity:0.647;}.cls-172{fill:#595959;opacity:0.651;}.cls-173{fill:#585858;opacity:0.655;}.cls-174{fill:#575757;opacity:0.659;}.cls-175{fill:#565656;opacity:0.663;}.cls-176{fill:#555;opacity:0.667;}.cls-177{fill:#545454;opacity:0.671;}.cls-178{fill:#535353;opacity:0.675;}.cls-179{fill:#525252;opacity:0.678;}.cls-180{fill:#515151;opacity:0.682;}.cls-181{fill:#505050;opacity:0.686;}.cls-182{fill:#4f4f4f;opacity:0.69;}.cls-183{fill:#4e4e4e;opacity:0.694;}.cls-184{fill:#4d4d4d;opacity:0.698;}.cls-185{fill:#4c4c4c;opacity:0.702;}.cls-186{fill:#4b4b4b;opacity:0.706;}.cls-187{fill:#4a4a4a;opacity:0.71;}.cls-188{fill:#494949;opacity:0.714;}.cls-189{fill:#484848;opacity:0.718;}.cls-190{fill:#474747;opacity:0.722;}.cls-191{fill:#464646;opacity:0.725;}.cls-192{fill:#454545;opacity:0.729;}.cls-193{fill:#444;opacity:0.733;}.cls-194{fill:#434343;opacity:0.737;}.cls-195{fill:#424242;opacity:0.741;}.cls-196{fill:#414141;opacity:0.745;}.cls-197{fill:#404040;opacity:0.749;}.cls-198{fill:#3f3f3f;opacity:0.753;}.cls-199{fill:#3e3e3e;opacity:0.757;}.cls-200{fill:#3d3d3d;opacity:0.761;}.cls-201{fill:#3c3c3c;opacity:0.765;}.cls-202{fill:#3b3b3b;opacity:0.769;}.cls-203{fill:#3a3a3a;opacity:0.773;}.cls-204{fill:#393939;opacity:0.776;}.cls-205{fill:#383838;opacity:0.78;}.cls-206{fill:#373737;opacity:0.784;}.cls-207{fill:#363636;opacity:0.788;}.cls-208{fill:#353535;opacity:0.792;}.cls-209{fill:#343434;opacity:0.796;}.cls-210{fill:#333;opacity:0.8;}.cls-211{fill:#323232;opacity:0.804;}.cls-212{fill:#313131;opacity:0.808;}.cls-213{fill:#303030;opacity:0.812;}.cls-214{fill:#2f2f2f;opacity:0.816;}.cls-215{fill:#2e2e2e;opacity:0.82;}.cls-216{fill:#2d2d2d;opacity:0.824;}.cls-217{fill:#2c2c2c;opacity:0.827;}.cls-218{fill:#2b2b2b;opacity:0.831;}.cls-219{fill:#2a2a2a;opacity:0.835;}.cls-220{fill:#292929;opacity:0.839;}.cls-221{fill:#282828;opacity:0.843;}.cls-222{fill:#272727;opacity:0.847;}.cls-223{fill:#262626;opacity:0.851;}.cls-224{fill:#252525;opacity:0.855;}.cls-225{fill:#242424;opacity:0.859;}.cls-226{fill:#232323;opacity:0.863;}.cls-227{fill:#222;opacity:0.867;}.cls-228{fill:#212121;opacity:0.871;}.cls-229{fill:#202020;opacity:0.875;}.cls-230{fill:#1f1f1f;opacity:0.878;}.cls-231{fill:#1e1e1e;opacity:0.882;}.cls-232{fill:#1d1d1d;opacity:0.886;}.cls-233{fill:#1c1c1c;opacity:0.89;}.cls-234{fill:#1b1b1b;opacity:0.894;}.cls-235{fill:#1a1a1a;opacity:0.898;}.cls-236{fill:#191919;opacity:0.902;}.cls-237{fill:#181818;opacity:0.906;}.cls-238{fill:#171717;opacity:0.91;}.cls-239{fill:#161616;opacity:0.914;}.cls-240{fill:#151515;opacity:0.918;}.cls-241{fill:#141414;opacity:0.922;}.cls-242{fill:#131313;opacity:0.925;}.cls-243{fill:#121212;opacity:0.929;}.cls-244{fill:#111;opacity:0.933;}.cls-245{fill:#101010;opacity:0.937;}.cls-246{fill:#0f0f0f;opacity:0.941;}.cls-247{fill:#0e0e0e;opacity:0.945;}.cls-248{fill:#0d0d0d;opacity:0.949;}.cls-249{fill:#0c0c0c;opacity:0.953;}.cls-250{fill:#0b0b0b;opacity:0.957;}.cls-251{fill:#0a0a0a;opacity:0.961;}.cls-252{fill:#090909;opacity:0.965;}.cls-253{fill:#080808;opacity:0.969;}.cls-254{fill:#070707;opacity:0.973;}.cls-255{fill:#060606;opacity:0.976;}.cls-256{fill:#050505;opacity:0.98;}.cls-257{fill:#040404;opacity:0.984;}.cls-258{fill:#030303;opacity:0.988;}.cls-259{fill:#020202;opacity:0.992;}.cls-260{fill:#010101;opacity:0.996;}</style></defs><g class="cls-1"><g id="Text"><g id="Real_Estate" data-name="Real Estate"><path class="cls-2" d="M519.456,228.351c0,2.085.024,4.052,0,6.018a25.662,25.662,0,0,1-5.9,16.328,25.015,25.015,0,0,1-11.664,8,23.267,23.267,0,0,1-7.262,1.232q-68.679.1-137.36.02a24.045,24.045,0,0,1-12.292-3.639,25.536,25.536,0,0,1-10.3-11.589,17.689,17.689,0,0,1-1.892-7.229c-.13-13.066-.184-26.132-.258-39.2-.014-2.438-.109-4.883.02-7.315a25.545,25.545,0,0,1,4.947-14,25.181,25.181,0,0,1,10.141-8.209,19.916,19.916,0,0,1,7.306-2c3.5-.155,7.014-.2,10.522-.235.821-.008,1.068-.242,1.065-1.066q-.04-11.682.007-23.365c.006-1.047-.467-1.092-1.276-1.091q-24.192.024-48.383-.013c-1.087,0-1.37.272-1.369,1.366q.045,49.917.024,99.834,0,42.837-.017,85.673a8.389,8.389,0,0,1-6.632,8.335,8.528,8.528,0,0,1-10.047-5.978,7.848,7.848,0,0,1-.286-2.357q-.018-110.337-.021-220.674a8.9,8.9,0,0,1,7.036-8.491c4.4-.849,9.381,2.645,9.735,6.894.05.6.22,1.194.222,1.791.018,5.074.042,10.149-.014,15.222-.012,1.105.255,1.443,1.412,1.442q105.44-.044,210.88-.036a8.856,8.856,0,0,1,8.474,7.047,8.573,8.573,0,0,1-6.543,9.711,13.025,13.025,0,0,1-2.379.236q-24.486.02-48.973-.014c-1.118,0-1.443.277-1.435,1.42q.078,11.386,0,22.775c-.008,1.132.344,1.353,1.395,1.343,5.349-.052,10.7-.108,16.048,0a25.2,25.2,0,0,1,15.749,5.848,25.57,25.57,0,0,1,8.029,11.651,15.9,15.9,0,0,1,1.011,4.994c.159,12.554.2,25.109.28,37.664,0,.513,0,1.027,0,1.658m-35.285-44.844q-62.958,0-125.915.01a10.946,10.946,0,0,0-2.377.24,8.387,8.387,0,0,0-6.348,7.774q-.039,21.358,0,42.719a10.951,10.951,0,0,0,.239,2.377,8.383,8.383,0,0,0,7.775,6.347q68.091.023,136.182,0a11.157,11.157,0,0,0,2.378-.239,8.457,8.457,0,0,0,6.356-7.775q0-21.477-.009-42.955a11.272,11.272,0,0,0-.232-2.025,8.472,8.472,0,0,0-7.9-6.483c-3.3.045-6.608.01-10.148.01m-94.409-16.994q34.459,0,68.917.022c1.011,0,1.33-.235,1.324-1.29q-.067-11.565,0-23.13c0-.9-.291-1.116-1.141-1.109-4.248.037-8.5.017-12.745.017q-30.681,0-61.364-.006c-.7,0-1.266-.068-1.261.979.038,7.867.027,15.735.01,23.6,0,.715.25.945.955.928C386.143,166.486,387.835,166.513,389.762,166.513Z"/><path class="cls-3" d="M468,198.376c1.3,0,2.477.016,3.656,0a15.332,15.332,0,0,1,9.2,2.835,12.474,12.474,0,0,1,5.063,7.548,13.642,13.642,0,0,1,.665,4.062c-.186,2.629-.211,5.279-1.269,7.827-1.927,4.64-5.482,7.112-10.187,8.15a23.415,23.415,0,0,1-4.633.478c-3.851.066-7.7,0-11.556.042-.9.011-1.11-.293-1.108-1.141q.039-14.327,0-28.655c0-.955.3-1.18,1.208-1.163,2.947.054,5.9.02,8.961.02m-2.36,18.764c.079,1.578.233,3.158.208,4.734-.015.968.408,1.108,1.192,1.054,1.459-.1,2.941-.036,4.376-.271a8.163,8.163,0,0,0,5.637-3.176,9.513,9.513,0,0,0,1.542-6.9c-.308-3.272-1.735-5.689-5.032-6.9-2.079-.766-4.2-.341-6.295-.44-1.41-.067-1.626.2-1.627,1.651C465.641,210.224,465.643,213.564,465.643,217.14Z"/><path class="cls-3" d="M397.669,217.73c-.056-.174-.156-.226-.161-.285-.445-5.825.209-11.335,4.961-15.452a14.611,14.611,0,0,1,7.769-3.174,18.323,18.323,0,0,1,8.13.729c5.282,1.632,8.267,5.119,9.334,10.587a18.859,18.859,0,0,1-1.577,12.2,12.609,12.609,0,0,1-9.631,6.941,20.575,20.575,0,0,1-4.754.448c-4.289-.277-8.18-1.675-11.136-4.959a13.013,13.013,0,0,1-2.935-7.036m12.745,5.546a22.405,22.405,0,0,0,4.113.07,5.909,5.909,0,0,0,4.362-3.215c1.575-3.028,1.52-6.3.929-9.541a6.937,6.937,0,0,0-7.737-6.08,6.788,6.788,0,0,0-5.933,4.344,14.452,14.452,0,0,0-.686,7.894C406.042,219.653,407.243,222.109,410.414,223.276Z"/><path class="cls-3" d="M393.657,221.034a29.763,29.763,0,0,1-1.611,4.048c-1.257,2.283-3.562,3.148-5.86,3.982a17.376,17.376,0,0,1-7.491.66c-3.346-.282-6.66-.881-9.571-2.78-.575-.375-.9-.663-.509-1.429.561-1.1.977-2.267,1.431-3.416.366-.928.923-1.038,1.789-.6a18.8,18.8,0,0,0,9.729,2.112,10.338,10.338,0,0,0,2.684-.625A1.833,1.833,0,0,0,385.615,221a2.7,2.7,0,0,0-2.105-2.3c-2.146-.635-4.356-1.052-6.5-1.7-2.432-.732-4.885-1.5-6.723-3.411-2.235-2.328-2.363-6.548-.865-9.293,1.991-3.648,5.267-5.1,9.152-5.7a20.9,20.9,0,0,1,12.371,2.146c1.138.541,1.315,1.094.793,2.26-.46,1.029-.917,2.059-1.39,3.081-.371.8-.751,1.019-1.674.464a14.117,14.117,0,0,0-8.817-1.993,4.714,4.714,0,0,0-2.556,1.156c-1.538,1.422-1.1,3.407,1.318,4.2,2.815.92,5.757,1.464,8.553,2.431,2.757.954,5.276,2.39,6.05,5.566A28.022,28.022,0,0,1,393.657,221.034Z"/><path class="cls-3" d="M432.836,225.047V200.389c0-1.41.128-1.54,1.518-1.541q2.478,0,4.956,0c1.415,0,1.55.131,1.55,1.508,0,7.079.027,14.158-.027,21.236-.008,1.113.311,1.377,1.383,1.356,3.42-.069,6.843-.006,10.264-.038.986-.01,1.414.346,1.374,1.356-.05,1.256-.036,2.517,0,3.775.023.875-.324,1.264-1.223,1.262q-9.379-.022-18.759.008c-.832,0-1.1-.265-1.047-1.08C432.884,227.213,432.836,226.187,432.836,225.047Z"/></g><path class="cls-4" d="M158.383,466.2v11.977h-4.9V448.193h8.47q5.8,0,8.592,2.174t2.789,6.563q0,5.6-5.824,7.977l8.47,13.269H170.4L163.223,466.2Zm0-4.06h3.405q3.424,0,4.962-1.272a4.61,4.61,0,0,0,1.539-3.773,4.062,4.062,0,0,0-1.662-3.651,9.107,9.107,0,0,0-5-1.107h-3.241Z"/><path class="cls-4" d="M189.719,478.586q-5.29,0-8.275-3.086T178.46,467q0-5.558,2.769-8.736a9.564,9.564,0,0,1,7.608-3.179,9.343,9.343,0,0,1,7.1,2.728,10.422,10.422,0,0,1,2.605,7.5v2.605H183.423A7.451,7.451,0,0,0,185.208,473a6.212,6.212,0,0,0,4.737,1.773,17.493,17.493,0,0,0,3.743-.378,19.646,19.646,0,0,0,3.722-1.262v3.917a14.81,14.81,0,0,1-3.569,1.189A21.829,21.829,0,0,1,189.719,478.586Zm-.882-19.852a4.845,4.845,0,0,0-3.681,1.456,6.942,6.942,0,0,0-1.651,4.246h10.3a6.279,6.279,0,0,0-1.353-4.256A4.633,4.633,0,0,0,188.837,458.734Z"/><path class="cls-4" d="M219.25,471.716a5.933,5.933,0,0,1-2.419,5.1q-2.421,1.774-6.932,1.774a16.371,16.371,0,0,1-7.28-1.374v-4.163a17.88,17.88,0,0,0,7.444,1.846q4.451,0,4.45-2.687a2.131,2.131,0,0,0-.492-1.436,5.835,5.835,0,0,0-1.62-1.189,27.983,27.983,0,0,0-3.138-1.4,14.5,14.5,0,0,1-5.3-3.035,5.613,5.613,0,0,1-1.384-3.937,5.173,5.173,0,0,1,2.348-4.523,11.152,11.152,0,0,1,6.388-1.609,18.093,18.093,0,0,1,7.567,1.62l-1.558,3.63a16.831,16.831,0,0,0-6.173-1.518q-3.815,0-3.815,2.174a2.188,2.188,0,0,0,1,1.805,21.875,21.875,0,0,0,4.337,2.03,19.875,19.875,0,0,1,4.082,1.989,5.953,5.953,0,0,1,1.886,2.082A6.029,6.029,0,0,1,219.25,471.716Z"/><path class="cls-4" d="M224.172,449.485a2.667,2.667,0,0,1,.708-1.989,2.757,2.757,0,0,1,2.02-.7,2.7,2.7,0,0,1,1.979.7,2.667,2.667,0,0,1,.707,1.989,2.621,2.621,0,0,1-.707,1.939,2.678,2.678,0,0,1-1.979.707,2.736,2.736,0,0,1-2.02-.707A2.621,2.621,0,0,1,224.172,449.485Zm5.107,28.691h-4.82V455.494h4.82Z"/><path class="cls-4" d="M243.819,478.586a7.9,7.9,0,0,1-6.624-3.076q-2.379-3.077-2.379-8.634,0-5.578,2.41-8.685a7.972,7.972,0,0,1,6.675-3.107,7.819,7.819,0,0,1,6.808,3.3h.247a28.8,28.8,0,0,1-.349-3.856v-8.264h4.84v31.91h-3.774l-.84-2.974h-.226A7.7,7.7,0,0,1,243.819,478.586Zm1.292-3.9a5.243,5.243,0,0,0,4.327-1.671q1.353-1.671,1.4-5.424v-.677q0-4.285-1.4-6.091a5.174,5.174,0,0,0-4.368-1.805,4.434,4.434,0,0,0-3.917,2.061,10.566,10.566,0,0,0-1.374,5.876,10.3,10.3,0,0,0,1.333,5.753A4.5,4.5,0,0,0,245.111,474.689Z"/><path class="cls-4" d="M272.243,478.586q-5.292,0-8.275-3.086t-2.984-8.5q0-5.558,2.768-8.736a9.564,9.564,0,0,1,7.609-3.179,9.346,9.346,0,0,1,7.1,2.728,10.422,10.422,0,0,1,2.6,7.5v2.605H265.947A7.45,7.45,0,0,0,267.731,473a6.212,6.212,0,0,0,4.737,1.773,17.486,17.486,0,0,0,3.743-.378,19.623,19.623,0,0,0,3.722-1.262v3.917a14.8,14.8,0,0,1-3.568,1.189A21.829,21.829,0,0,1,272.243,478.586Zm-.882-19.852a4.845,4.845,0,0,0-3.681,1.456,6.942,6.942,0,0,0-1.651,4.246h10.3a6.284,6.284,0,0,0-1.354-4.256A4.632,4.632,0,0,0,271.361,458.734Z"/><path class="cls-4" d="M306.491,478.176h-4.84V464.23a6.105,6.105,0,0,0-1.056-3.917,4.084,4.084,0,0,0-3.353-1.292,5.332,5.332,0,0,0-4.471,1.805q-1.415,1.8-1.415,6.05v11.3h-4.819V455.494h3.773l.677,2.974h.246a6.712,6.712,0,0,1,2.912-2.5,9.758,9.758,0,0,1,4.184-.882q8.161,0,8.162,8.306Z"/><path class="cls-4" d="M321.646,474.689a11.716,11.716,0,0,0,3.527-.553v3.63a9.8,9.8,0,0,1-2.061.584,14.215,14.215,0,0,1-2.614.236q-6.851,0-6.85-7.219V459.145h-3.1v-2.133l3.323-1.764,1.64-4.8h2.974v5.045h6.46v3.651h-6.46v12.14a3.408,3.408,0,0,0,.871,2.574A3.181,3.181,0,0,0,321.646,474.689Z"/><path class="cls-4" d="M329.418,449.485a2.667,2.667,0,0,1,.708-1.989,2.757,2.757,0,0,1,2.02-.7,2.7,2.7,0,0,1,1.979.7,2.667,2.667,0,0,1,.708,1.989,2.621,2.621,0,0,1-.708,1.939,2.678,2.678,0,0,1-1.979.707,2.736,2.736,0,0,1-2.02-.707A2.621,2.621,0,0,1,329.418,449.485Zm5.107,28.691h-4.819V455.494h4.819Z"/><path class="cls-4" d="M355.607,478.176l-.964-3.158h-.164a9.3,9.3,0,0,1-3.3,2.82,10.456,10.456,0,0,1-4.265.748,7.221,7.221,0,0,1-5.22-1.805,6.752,6.752,0,0,1-1.876-5.106,6,6,0,0,1,2.6-5.291q2.605-1.785,7.937-1.948l3.917-.124V463.1a4.585,4.585,0,0,0-1.015-3.251,4.143,4.143,0,0,0-3.148-1.077,10.879,10.879,0,0,0-3.343.513,25.233,25.233,0,0,0-3.076,1.21l-1.559-3.445a16.807,16.807,0,0,1,4.04-1.467,18.65,18.65,0,0,1,4.143-.5q4.328,0,6.532,1.887t2.2,5.926v15.279Zm-7.178-3.281a5.97,5.97,0,0,0,4.215-1.467,5.316,5.316,0,0,0,1.589-4.112v-1.968l-2.912.123a9.961,9.961,0,0,0-4.953,1.138,3.457,3.457,0,0,0-1.548,3.107,3.033,3.033,0,0,0,.9,2.348A3.881,3.881,0,0,0,348.429,474.9Z"/><path class="cls-4" d="M370.6,478.176h-4.82v-31.91h4.82Z"/><path class="cls-4" d="M386.923,470.239a8.346,8.346,0,0,1,1.312-4.686,13.784,13.784,0,0,1,4.738-3.968,17.394,17.394,0,0,1-2.656-3.845,7.826,7.826,0,0,1-.708-3.251,6,6,0,0,1,2.226-4.922,9.208,9.208,0,0,1,5.977-1.8,8.558,8.558,0,0,1,5.7,1.753,5.875,5.875,0,0,1,2.071,4.727,7.049,7.049,0,0,1-1.385,4.245,15.139,15.139,0,0,1-4.624,3.815l7.1,6.849a18.537,18.537,0,0,0,2.768-6.439H414.4a22.6,22.6,0,0,1-4.593,9.5l6.172,5.968h-6.213l-3.056-2.974a14.772,14.772,0,0,1-9.7,3.384,11.237,11.237,0,0,1-7.4-2.235A7.528,7.528,0,0,1,386.923,470.239Zm10.336,4.2a9.776,9.776,0,0,0,6.419-2.194l-7.855-7.731a10.283,10.283,0,0,0-2.994,2.615,4.86,4.86,0,0,0-.82,2.778,4.158,4.158,0,0,0,1.426,3.271A5.557,5.557,0,0,0,397.259,474.443Zm-3.056-19.79a4.678,4.678,0,0,0,.687,2.441,14.172,14.172,0,0,0,1.918,2.44,11.773,11.773,0,0,0,3.25-2.45,3.928,3.928,0,0,0,.933-2.554,2.725,2.725,0,0,0-.892-2.133,3.414,3.414,0,0,0-2.369-.8,3.783,3.783,0,0,0-2.573.83A2.8,2.8,0,0,0,394.2,454.653Z"/><path class="cls-4" d="M443.668,451.967a8.082,8.082,0,0,0-6.645,2.994q-2.419,2.994-2.419,8.265,0,5.516,2.327,8.346a8.22,8.22,0,0,0,6.737,2.83,17.693,17.693,0,0,0,3.691-.379q1.785-.378,3.712-.974v4.2a22.493,22.493,0,0,1-8,1.333q-6.582,0-10.11-3.988t-3.527-11.413A18.45,18.45,0,0,1,431.147,455a12.221,12.221,0,0,1,4.954-5.373,14.979,14.979,0,0,1,7.608-1.866,18.881,18.881,0,0,1,8.49,1.927l-1.763,4.081a26.551,26.551,0,0,0-3.21-1.261A11.568,11.568,0,0,0,443.668,451.967Z"/><path class="cls-4" d="M477.137,466.794q0,5.558-2.851,8.675a10.213,10.213,0,0,1-7.936,3.117,10.876,10.876,0,0,1-5.62-1.436,9.481,9.481,0,0,1-3.752-4.122,14.038,14.038,0,0,1-1.313-6.234q0-5.517,2.83-8.613t7.978-3.1a10,10,0,0,1,7.793,3.168A12.242,12.242,0,0,1,477.137,466.794Zm-16.509,0q0,7.854,5.8,7.854,5.742,0,5.742-7.854,0-7.773-5.783-7.773a4.932,4.932,0,0,0-4.4,2.01A10.231,10.231,0,0,0,460.628,466.794Z"/><path class="cls-4" d="M501.787,478.176h-4.84V464.189a6.345,6.345,0,0,0-.984-3.886,3.634,3.634,0,0,0-3.076-1.282,4.7,4.7,0,0,0-4.092,1.815q-1.3,1.817-1.3,6.04v11.3h-4.819V455.494h3.773l.677,2.974h.246a6.285,6.285,0,0,1,2.737-2.5,8.833,8.833,0,0,1,3.949-.882q5.229,0,6.931,3.568h.328a6.917,6.917,0,0,1,2.831-2.625,8.976,8.976,0,0,1,4.183-.943q4.06,0,5.917,2.051t1.856,6.255v14.786h-4.82V464.189a6.294,6.294,0,0,0-1-3.886,3.662,3.662,0,0,0-3.086-1.282,4.778,4.778,0,0,0-4.111,1.754,9.029,9.029,0,0,0-1.3,5.383Z"/><path class="cls-4" d="M541.941,478.176H537.1V464.189a6.345,6.345,0,0,0-.985-3.886,3.633,3.633,0,0,0-3.076-1.282,4.7,4.7,0,0,0-4.092,1.815q-1.3,1.817-1.3,6.04v11.3h-4.819V455.494H526.6l.676,2.974h.246a6.282,6.282,0,0,1,2.738-2.5,8.825,8.825,0,0,1,3.948-.882q5.229,0,6.932,3.568h.328a6.915,6.915,0,0,1,2.83-2.625,8.979,8.979,0,0,1,4.183-.943q4.061,0,5.917,2.051t1.856,6.255v14.786h-4.819V464.189a6.294,6.294,0,0,0-1-3.886,3.662,3.662,0,0,0-3.086-1.282,4.778,4.778,0,0,0-4.111,1.754,9.029,9.029,0,0,0-1.3,5.383Z"/><path class="cls-4" d="M572.888,478.586q-5.292,0-8.275-3.086t-2.984-8.5q0-5.558,2.768-8.736a9.564,9.564,0,0,1,7.609-3.179,9.346,9.346,0,0,1,7.1,2.728,10.422,10.422,0,0,1,2.6,7.5v2.605H566.592A7.45,7.45,0,0,0,568.376,473a6.212,6.212,0,0,0,4.737,1.773,17.477,17.477,0,0,0,3.742-.378,19.607,19.607,0,0,0,3.723-1.262v3.917a14.8,14.8,0,0,1-3.568,1.189A21.829,21.829,0,0,1,572.888,478.586Zm-.882-19.852a4.848,4.848,0,0,0-3.682,1.456,6.947,6.947,0,0,0-1.65,4.246h10.3a6.284,6.284,0,0,0-1.354-4.256A4.632,4.632,0,0,0,572.006,458.734Z"/><path class="cls-4" d="M598.687,455.084a11.583,11.583,0,0,1,2.4.2l-.472,4.491a9.105,9.105,0,0,0-2.133-.246,6.172,6.172,0,0,0-4.686,1.887,6.82,6.82,0,0,0-1.794,4.9v11.854h-4.819V455.494h3.773l.636,4h.246a9,9,0,0,1,2.942-3.22A7,7,0,0,1,598.687,455.084Z"/><path class="cls-4" d="M614.437,478.586q-5.148,0-7.825-3t-2.675-8.624q0-5.721,2.8-8.8t8.091-3.076a15.156,15.156,0,0,1,6.46,1.333l-1.456,3.876a14.593,14.593,0,0,0-5.045-1.189q-5.886,0-5.886,7.813a9.348,9.348,0,0,0,1.467,5.731,5.07,5.07,0,0,0,4.3,1.918,12.329,12.329,0,0,0,6.091-1.6v4.2A9.522,9.522,0,0,1,618,478.258,16.542,16.542,0,0,1,614.437,478.586Z"/><path class="cls-4" d="M625.8,449.485a2.671,2.671,0,0,1,.707-1.989,2.758,2.758,0,0,1,2.02-.7,2.7,2.7,0,0,1,1.98.7,2.671,2.671,0,0,1,.707,1.989,2.625,2.625,0,0,1-.707,1.939,2.682,2.682,0,0,1-1.98.707,2.738,2.738,0,0,1-2.02-.707A2.625,2.625,0,0,1,625.8,449.485Zm5.106,28.691h-4.819V455.494H630.9Z"/><path class="cls-4" d="M651.986,478.176l-.964-3.158h-.164a9.3,9.3,0,0,1-3.3,2.82,10.465,10.465,0,0,1-4.266.748,7.217,7.217,0,0,1-5.219-1.805,6.748,6.748,0,0,1-1.877-5.106,5.994,5.994,0,0,1,2.6-5.291q2.6-1.785,7.936-1.948l3.917-.124V463.1a4.594,4.594,0,0,0-1.014-3.251,4.147,4.147,0,0,0-3.149-1.077,10.883,10.883,0,0,0-3.343.513,25.3,25.3,0,0,0-3.076,1.21l-1.558-3.445a16.792,16.792,0,0,1,4.04-1.467,18.642,18.642,0,0,1,4.142-.5q4.327,0,6.532,1.887t2.205,5.926v15.279Zm-7.177-3.281a5.968,5.968,0,0,0,4.214-1.467,5.316,5.316,0,0,0,1.589-4.112v-1.968l-2.912.123a9.957,9.957,0,0,0-4.952,1.138,3.455,3.455,0,0,0-1.549,3.107,3.03,3.03,0,0,0,.9,2.348A3.878,3.878,0,0,0,644.809,474.9Z"/><path class="cls-4" d="M666.978,478.176h-4.82v-31.91h4.82Z"/><path class="cls-4" d="M307.085,516.6v11.976h-4.9V498.593h8.47q5.8,0,8.593,2.174t2.789,6.562q0,5.6-5.825,7.978l8.47,13.268H319.1L311.925,516.6Zm0-4.061h3.405q3.425,0,4.963-1.271a4.616,4.616,0,0,0,1.538-3.774,4.062,4.062,0,0,0-1.661-3.65,9.1,9.1,0,0,0-5-1.108h-3.241Z"/><path class="cls-4" d="M338.421,528.985q-5.291,0-8.275-3.086t-2.983-8.5q0-5.558,2.768-8.736a9.564,9.564,0,0,1,7.609-3.179,9.346,9.346,0,0,1,7.095,2.728,10.419,10.419,0,0,1,2.605,7.506v2.6H332.125a7.454,7.454,0,0,0,1.785,5.076,6.212,6.212,0,0,0,4.737,1.774,17.491,17.491,0,0,0,3.743-.379,19.623,19.623,0,0,0,3.722-1.262v3.917a14.8,14.8,0,0,1-3.569,1.19A21.917,21.917,0,0,1,338.421,528.985Zm-.881-19.851a4.842,4.842,0,0,0-3.682,1.456,6.941,6.941,0,0,0-1.65,4.245H342.5a6.28,6.28,0,0,0-1.353-4.256A4.631,4.631,0,0,0,337.54,509.134Z"/><path class="cls-4" d="M366.907,528.575l-.964-3.158h-.164a9.3,9.3,0,0,1-3.3,2.82,10.458,10.458,0,0,1-4.266.748,7.22,7.22,0,0,1-5.219-1.8,6.754,6.754,0,0,1-1.876-5.107,6,6,0,0,1,2.6-5.291q2.605-1.783,7.937-1.948l3.917-.123V513.5a4.593,4.593,0,0,0-1.015-3.251,4.143,4.143,0,0,0-3.148-1.076,10.879,10.879,0,0,0-3.343.513,25.166,25.166,0,0,0-3.076,1.209l-1.559-3.445a16.85,16.85,0,0,1,4.04-1.467,18.65,18.65,0,0,1,4.143-.5q4.326,0,6.531,1.887t2.206,5.927v15.278Zm-7.178-3.281a5.962,5.962,0,0,0,4.214-1.467,5.311,5.311,0,0,0,1.59-4.111v-1.969l-2.912.123a9.949,9.949,0,0,0-4.953,1.139,3.456,3.456,0,0,0-1.548,3.106,3.033,3.033,0,0,0,.9,2.349A3.881,3.881,0,0,0,359.729,525.294Z"/><path class="cls-4" d="M381.9,528.575h-4.819v-31.91H381.9Z"/><path class="cls-4" d="M417.172,528.575h-16.96V498.593h16.96v4.142H405.113V510.9h11.3V515h-11.3v9.413h12.059Z"/><path class="cls-4" d="M438.377,522.115a5.937,5.937,0,0,1-2.42,5.1q-2.419,1.774-6.932,1.773a16.374,16.374,0,0,1-7.28-1.374v-4.163a17.868,17.868,0,0,0,7.444,1.846q4.45,0,4.451-2.687a2.124,2.124,0,0,0-.493-1.435,5.835,5.835,0,0,0-1.62-1.19,27.878,27.878,0,0,0-3.137-1.394,14.514,14.514,0,0,1-5.3-3.035,5.611,5.611,0,0,1-1.385-3.938,5.172,5.172,0,0,1,2.348-4.522,11.152,11.152,0,0,1,6.388-1.61,18.083,18.083,0,0,1,7.568,1.621l-1.559,3.629a16.842,16.842,0,0,0-6.173-1.517q-3.815,0-3.814,2.174a2.185,2.185,0,0,0,.994,1.8,21.847,21.847,0,0,0,4.338,2.031,19.784,19.784,0,0,1,4.081,1.989,5.939,5.939,0,0,1,1.887,2.082A6.022,6.022,0,0,1,438.377,522.115Z"/><path class="cls-4" d="M452.035,525.089a11.718,11.718,0,0,0,3.527-.554v3.63a9.742,9.742,0,0,1-2.06.584,14.234,14.234,0,0,1-2.615.236q-6.851,0-6.85-7.218V509.544h-3.1v-2.133l3.323-1.764,1.64-4.8h2.974v5.045h6.46v3.65h-6.46v12.141a3.409,3.409,0,0,0,.871,2.574A3.181,3.181,0,0,0,452.035,525.089Z"/><path class="cls-4" d="M474.286,528.575l-.964-3.158h-.164a9.289,9.289,0,0,1-3.3,2.82,10.456,10.456,0,0,1-4.265.748,7.216,7.216,0,0,1-5.219-1.8,6.751,6.751,0,0,1-1.877-5.107,6,6,0,0,1,2.605-5.291q2.6-1.783,7.936-1.948l3.917-.123V513.5a4.593,4.593,0,0,0-1.015-3.251,4.143,4.143,0,0,0-3.148-1.076,10.883,10.883,0,0,0-3.343.513,25.229,25.229,0,0,0-3.076,1.209l-1.559-3.445a16.858,16.858,0,0,1,4.041-1.467,18.635,18.635,0,0,1,4.142-.5q4.327,0,6.531,1.887t2.2,5.927v15.278Zm-7.178-3.281a5.966,5.966,0,0,0,4.215-1.467,5.314,5.314,0,0,0,1.589-4.111v-1.969L470,517.87a9.942,9.942,0,0,0-4.952,1.139,3.455,3.455,0,0,0-1.549,3.106,3.037,3.037,0,0,0,.9,2.349A3.881,3.881,0,0,0,467.108,525.294Z"/><path class="cls-4" d="M492.907,525.089a11.729,11.729,0,0,0,3.528-.554v3.63a9.771,9.771,0,0,1-2.061.584,14.234,14.234,0,0,1-2.615.236q-6.851,0-6.85-7.218V509.544h-3.1v-2.133l3.323-1.764,1.64-4.8h2.974v5.045h6.46v3.65h-6.46v12.141a3.409,3.409,0,0,0,.871,2.574A3.181,3.181,0,0,0,492.907,525.089Z"/><path class="cls-4" d="M510.872,528.985q-5.291,0-8.274-3.086t-2.985-8.5q0-5.558,2.769-8.736a9.564,9.564,0,0,1,7.608-3.179,9.349,9.349,0,0,1,7.1,2.728,10.423,10.423,0,0,1,2.6,7.506v2.6H504.576a7.453,7.453,0,0,0,1.784,5.076,6.215,6.215,0,0,0,4.738,1.774,17.475,17.475,0,0,0,3.742-.379,19.623,19.623,0,0,0,3.722-1.262v3.917a14.792,14.792,0,0,1-3.568,1.19A21.917,21.917,0,0,1,510.872,528.985Zm-.882-19.851a4.841,4.841,0,0,0-3.681,1.456,6.947,6.947,0,0,0-1.651,4.245h10.295a6.28,6.28,0,0,0-1.353-4.256A4.633,4.633,0,0,0,509.99,509.134Z"/><g class="cls-5"><path class="cls-6" d="M609.064,395.283c0,14.474-84.554,26.194-188.86,26.194s-188.868-11.72-188.868-26.194c0-14.444,84.565-26.16,188.868-26.16S609.064,380.839,609.064,395.283Z"/><path class="cls-7" d="M608.457,395.3c0,14.428-84.282,26.111-188.253,26.111S231.943,409.727,231.943,395.3c0-14.4,84.294-26.075,188.261-26.075S608.457,380.9,608.457,395.3Z"/><path class="cls-8" d="M607.849,395.316c0,14.381-84.01,26.027-187.645,26.027S232.55,409.7,232.55,395.316c0-14.351,84.022-25.991,187.654-25.991S607.849,380.965,607.849,395.316Z"/><path class="cls-9" d="M607.242,395.333c0,14.334-83.738,25.942-187.038,25.942s-187.047-11.608-187.047-25.942c0-14.305,83.751-25.907,187.047-25.907S607.242,381.028,607.242,395.333Z"/><path class="cls-10" d="M606.635,395.35c0,14.287-83.467,25.858-186.431,25.858S233.765,409.637,233.765,395.35c0-14.259,83.478-25.824,186.439-25.824S606.635,381.091,606.635,395.35Z"/><path class="cls-11" d="M606.027,395.366c0,14.241-83.194,25.774-185.823,25.774s-185.832-11.533-185.832-25.774c0-14.212,83.206-25.739,185.832-25.739S606.027,381.154,606.027,395.366Z"/><path class="cls-12" d="M605.42,395.383c0,14.195-82.922,25.69-185.216,25.69s-185.225-11.5-185.225-25.69c0-14.165,82.935-25.655,185.225-25.655S605.42,381.218,605.42,395.383Z"/><path class="cls-13" d="M604.813,395.4c0,14.148-82.651,25.605-184.609,25.605S235.586,409.548,235.586,395.4c0-14.119,82.663-25.571,184.618-25.571S604.813,381.281,604.813,395.4Z"/><path class="cls-14" d="M604.205,395.417c0,14.1-82.378,25.521-184,25.521s-184.01-11.42-184.01-25.521c0-14.073,82.39-25.487,184.01-25.487S604.205,381.344,604.205,395.417Z"/><path class="cls-15" d="M603.6,395.433c0,14.055-82.106,25.437-183.394,25.437s-183.4-11.382-183.4-25.437c0-14.026,82.119-25.4,183.4-25.4S603.6,381.407,603.6,395.433Z"/><path class="cls-16" d="M602.991,395.45c0,14.008-81.835,25.353-182.787,25.353s-182.8-11.345-182.8-25.353c0-13.98,81.847-25.318,182.8-25.318S602.991,381.47,602.991,395.45Z"/><path class="cls-17" d="M602.383,395.467c0,13.962-81.562,25.268-182.179,25.268s-182.189-11.306-182.189-25.268c0-13.934,81.576-25.234,182.189-25.234S602.383,381.533,602.383,395.467Z"/><path class="cls-18" d="M601.776,395.484c0,13.915-81.29,25.184-181.572,25.184S238.622,409.4,238.622,395.484c0-13.888,81.3-25.151,181.582-25.151S601.776,381.6,601.776,395.484Z"/><path class="cls-19" d="M601.169,395.5c0,13.869-81.019,25.1-180.965,25.1S239.23,409.369,239.23,395.5c0-13.84,81.031-25.066,180.974-25.066S601.169,381.66,601.169,395.5Z"/><path class="cls-20" d="M600.562,395.517c0,13.822-80.747,25.016-180.358,25.016s-180.367-11.194-180.367-25.016c0-13.794,80.76-24.982,180.367-24.982S600.562,381.723,600.562,395.517Z"/><path class="cls-21" d="M599.954,395.534c0,13.775-80.474,24.931-179.75,24.931s-179.76-11.156-179.76-24.931c0-13.748,80.488-24.9,179.76-24.9S599.954,381.786,599.954,395.534Z"/><path class="cls-22" d="M599.347,395.551c0,13.728-80.2,24.847-179.143,24.847s-179.153-11.119-179.153-24.847c0-13.7,80.216-24.814,179.153-24.814S599.347,381.849,599.347,395.551Z"/><path class="cls-23" d="M598.74,395.567c0,13.683-79.931,24.763-178.536,24.763s-178.545-11.08-178.545-24.763c0-13.655,79.944-24.729,178.545-24.729S598.74,381.912,598.74,395.567Z"/><path class="cls-24" d="M598.132,395.584c0,13.636-79.659,24.679-177.928,24.679S242.266,409.22,242.266,395.584c0-13.609,79.672-24.645,177.938-24.645S598.132,381.975,598.132,395.584Z"/><path class="cls-25" d="M597.525,395.6c0,13.589-79.387,24.594-177.321,24.594s-177.331-11-177.331-24.594c0-13.563,79.4-24.561,177.331-24.561S597.525,382.038,597.525,395.6Z"/><path class="cls-26" d="M596.918,395.618c0,13.542-79.115,24.51-176.714,24.51S243.48,409.16,243.48,395.618c0-13.516,79.129-24.478,176.724-24.478S596.918,382.1,596.918,395.618Z"/><path class="cls-27" d="M596.31,395.634c0,13.5-78.843,24.426-176.106,24.426s-176.116-10.93-176.116-24.426c0-13.469,78.856-24.393,176.116-24.393S596.31,382.165,596.31,395.634Z"/><path class="cls-28" d="M595.7,395.651c0,13.45-78.571,24.342-175.5,24.342S244.7,409.1,244.7,395.651c0-13.423,78.585-24.309,175.509-24.309S595.7,382.228,595.7,395.651Z"/><path class="cls-29" d="M595.1,395.668c0,13.4-78.3,24.257-174.892,24.257s-174.9-10.854-174.9-24.257c0-13.377,78.313-24.225,174.9-24.225S595.1,382.291,595.1,395.668Z"/><path class="cls-30" d="M594.488,395.685c0,13.356-78.027,24.173-174.284,24.173s-174.295-10.817-174.295-24.173c0-13.331,78.041-24.141,174.3-24.141S594.488,382.354,594.488,395.685Z"/><path class="cls-31" d="M593.881,395.7c0,13.31-77.755,24.09-173.677,24.09s-173.688-10.78-173.688-24.09c0-13.284,77.77-24.056,173.688-24.056S593.881,382.417,593.881,395.7Z"/><path class="cls-32" d="M593.274,395.718c0,13.263-77.483,24-173.07,24s-173.08-10.742-173.08-24c0-13.238,77.5-23.972,173.08-23.972S593.274,382.48,593.274,395.718Z"/><path class="cls-33" d="M592.667,395.735c0,13.217-77.212,23.921-172.463,23.921s-172.473-10.7-172.473-23.921c0-13.192,77.226-23.888,172.473-23.888S592.667,382.543,592.667,395.735Z"/><path class="cls-34" d="M592.059,395.752c0,13.17-76.939,23.836-171.855,23.836s-171.866-10.666-171.866-23.836c0-13.145,76.954-23.805,171.866-23.805S592.059,382.607,592.059,395.752Z"/><path class="cls-35" d="M591.452,395.769c0,13.123-76.667,23.752-171.248,23.752s-171.259-10.629-171.259-23.752c0-13.1,76.682-23.721,171.259-23.721S591.452,382.67,591.452,395.769Z"/><path class="cls-36" d="M590.845,395.785c0,13.077-76.4,23.668-170.641,23.668s-170.651-10.591-170.651-23.668c0-13.052,76.41-23.636,170.651-23.636S590.845,382.733,590.845,395.785Z"/><path class="cls-37" d="M590.237,395.8c0,13.03-76.123,23.584-170.033,23.584S250.16,408.832,250.16,395.8c0-13.006,76.138-23.552,170.044-23.552S590.237,382.8,590.237,395.8Z"/><path class="cls-38" d="M589.63,395.819c0,12.983-75.852,23.5-169.426,23.5s-169.437-10.516-169.437-23.5c0-12.96,75.866-23.468,169.437-23.468S589.63,382.859,589.63,395.819Z"/><path class="cls-39" d="M589.023,395.836c0,12.937-75.58,23.415-168.819,23.415s-168.83-10.478-168.83-23.415c0-12.914,75.6-23.384,168.83-23.384S589.023,382.922,589.023,395.836Z"/><path class="cls-40" d="M588.415,395.852c0,12.891-75.307,23.331-168.211,23.331s-168.223-10.44-168.223-23.331c0-12.867,75.323-23.3,168.223-23.3S588.415,382.985,588.415,395.852Z"/><path class="cls-41" d="M587.808,395.869c0,12.844-75.036,23.247-167.6,23.247s-167.615-10.4-167.615-23.247c0-12.82,75.051-23.215,167.615-23.215S587.808,383.049,587.808,395.869Z"/><path class="cls-42" d="M587.2,395.886c0,12.8-74.764,23.162-167,23.162S253.2,408.683,253.2,395.886c0-12.774,74.779-23.131,167.008-23.131S587.2,383.112,587.2,395.886Z"/><path class="cls-43" d="M586.593,395.9c0,12.75-74.491,23.078-166.389,23.078S253.8,408.653,253.8,395.9c0-12.728,74.507-23.048,166.4-23.048S586.593,383.175,586.593,395.9Z"/><path class="cls-44" d="M585.986,395.919c0,12.705-74.22,22.994-165.782,22.994S254.41,408.624,254.41,395.919c0-12.681,74.236-22.963,165.794-22.963S585.986,383.238,585.986,395.919Z"/><path class="cls-45" d="M585.379,395.936c0,12.658-73.948,22.91-165.175,22.91s-165.186-10.252-165.186-22.91c0-12.635,73.963-22.879,165.186-22.879S585.379,383.3,585.379,395.936Z"/><path class="cls-46" d="M584.772,395.953c0,12.611-73.676,22.825-164.568,22.825s-164.579-10.214-164.579-22.825c0-12.589,73.691-22.795,164.579-22.795S584.772,383.364,584.772,395.953Z"/><path class="cls-47" d="M584.164,395.97c0,12.564-73.4,22.741-163.96,22.741S256.232,408.534,256.232,395.97c0-12.543,73.42-22.711,163.972-22.711S584.164,383.427,584.164,395.97Z"/><path class="cls-48" d="M583.557,395.986c0,12.518-73.132,22.657-163.353,22.657S256.839,408.5,256.839,395.986c0-12.5,73.148-22.626,163.365-22.626S583.557,383.491,583.557,395.986Z"/><path class="cls-49" d="M582.95,396c0,12.471-72.86,22.573-162.746,22.573S257.447,408.474,257.447,396c0-12.449,72.876-22.542,162.757-22.542S582.95,383.554,582.95,396Z"/><path class="cls-50" d="M582.342,396.02c0,12.425-72.588,22.488-162.138,22.488s-162.15-10.063-162.15-22.488c0-12.4,72.6-22.458,162.15-22.458S582.342,383.617,582.342,396.02Z"/><path class="cls-51" d="M581.735,396.037c0,12.378-72.316,22.4-161.531,22.4s-161.543-10.026-161.543-22.4c0-12.357,72.332-22.375,161.543-22.375S581.735,383.68,581.735,396.037Z"/><path class="cls-52" d="M581.128,396.053c0,12.332-72.044,22.32-160.924,22.32s-160.936-9.988-160.936-22.32c0-12.31,72.061-22.29,160.936-22.29S581.128,383.743,581.128,396.053Z"/><path class="cls-53" d="M580.52,396.07c0,12.285-71.772,22.236-160.316,22.236s-160.329-9.951-160.329-22.236c0-12.264,71.789-22.206,160.329-22.206S580.52,383.806,580.52,396.07Z"/><path class="cls-54" d="M579.913,396.087c0,12.238-71.5,22.151-159.709,22.151s-159.721-9.913-159.721-22.151c0-12.218,71.516-22.122,159.721-22.122S579.913,383.869,579.913,396.087Z"/><path class="cls-55" d="M579.306,396.1c0,12.192-71.229,22.067-159.1,22.067S261.09,408.3,261.09,396.1c0-12.171,71.245-22.038,159.114-22.038S579.306,383.933,579.306,396.1Z"/><path class="cls-56" d="M578.7,396.12c0,12.146-70.957,21.984-158.495,21.984S261.7,408.266,261.7,396.12c0-12.124,70.973-21.953,158.507-21.953S578.7,384,578.7,396.12Z"/><path class="cls-57" d="M578.091,396.137c0,12.1-70.684,21.9-157.887,21.9s-157.9-9.8-157.9-21.9c0-12.078,70.7-21.869,157.9-21.869S578.091,384.059,578.091,396.137Z"/><path class="cls-58" d="M577.484,396.154c0,12.052-70.413,21.815-157.28,21.815s-157.292-9.763-157.292-21.815c0-12.032,70.429-21.785,157.292-21.785S577.484,384.122,577.484,396.154Z"/><path class="cls-59" d="M576.877,396.171c0,12-70.141,21.73-156.673,21.73s-156.685-9.725-156.685-21.73c0-11.986,70.157-21.7,156.685-21.7S576.877,384.185,576.877,396.171Z"/><path class="cls-60" d="M576.269,396.187c0,11.959-69.868,21.647-156.065,21.647s-156.078-9.688-156.078-21.647c0-11.939,69.886-21.617,156.078-21.617S576.269,384.248,576.269,396.187Z"/><path class="cls-61" d="M575.662,396.2c0,11.913-69.6,21.562-155.458,21.562S264.733,408.117,264.733,396.2c0-11.893,69.614-21.533,155.471-21.533S575.662,384.311,575.662,396.2Z"/><path class="cls-62" d="M575.055,396.221c0,11.866-69.325,21.478-154.851,21.478S265.34,408.087,265.34,396.221c0-11.846,69.342-21.449,154.864-21.449S575.055,384.375,575.055,396.221Z"/><path class="cls-63" d="M574.447,396.238c0,11.819-69.052,21.393-154.243,21.393s-154.256-9.574-154.256-21.393c0-11.8,69.07-21.365,154.256-21.365S574.447,384.438,574.447,396.238Z"/><path class="cls-64" d="M573.84,396.255c0,11.772-68.781,21.309-153.636,21.309s-153.649-9.537-153.649-21.309c0-11.754,68.8-21.281,153.649-21.281S573.84,384.5,573.84,396.255Z"/><path class="cls-65" d="M573.233,396.271C573.233,408,504.724,417.5,420.2,417.5S267.162,408,267.162,396.271c0-11.707,68.527-21.2,153.042-21.2S573.233,384.564,573.233,396.271Z"/><path class="cls-66" d="M572.625,396.288c0,11.68-68.236,21.141-152.421,21.141s-152.435-9.461-152.435-21.141c0-11.661,68.255-21.112,152.435-21.112S572.625,384.627,572.625,396.288Z"/><path class="cls-67" d="M572.018,396.305c0,11.633-67.965,21.056-151.814,21.056s-151.827-9.423-151.827-21.056c0-11.615,67.982-21.029,151.827-21.029S572.018,384.69,572.018,396.305Z"/><path class="cls-68" d="M571.411,396.322c0,11.586-67.693,20.972-151.207,20.972s-151.22-9.386-151.22-20.972c0-11.569,67.711-20.945,151.22-20.945S571.411,384.753,571.411,396.322Z"/><path class="cls-69" d="M570.8,396.338c0,11.54-67.422,20.888-150.6,20.888s-150.613-9.348-150.613-20.888c0-11.522,67.439-20.86,150.613-20.86S570.8,384.816,570.8,396.338Z"/><path class="cls-70" d="M570.2,396.355c0,11.493-67.149,20.8-149.992,20.8S270.2,407.848,270.2,396.355c0-11.475,67.168-20.776,150.006-20.776S570.2,384.88,570.2,396.355Z"/><path class="cls-71" d="M569.589,396.372c0,11.446-66.877,20.719-149.385,20.719s-149.4-9.273-149.4-20.719c0-11.429,66.9-20.692,149.4-20.692S569.589,384.943,569.589,396.372Z"/><path class="cls-72" d="M568.982,396.389c0,11.4-66.606,20.635-148.778,20.635s-148.791-9.235-148.791-20.635c0-11.383,66.623-20.608,148.791-20.608S568.982,385.006,568.982,396.389Z"/><path class="cls-73" d="M568.374,396.405c0,11.354-66.333,20.551-148.17,20.551s-148.184-9.2-148.184-20.551c0-11.336,66.352-20.523,148.184-20.523S568.374,385.069,568.374,396.405Z"/><path class="cls-74" d="M567.767,396.422c0,11.307-66.061,20.467-147.563,20.467s-147.577-9.16-147.577-20.467c0-11.29,66.08-20.439,147.577-20.439S567.767,385.132,567.767,396.422Z"/><path class="cls-75" d="M567.16,396.439c0,11.26-65.79,20.382-146.956,20.382s-146.97-9.122-146.97-20.382c0-11.244,65.808-20.356,146.97-20.356S567.16,385.2,567.16,396.439Z"/><path class="cls-76" d="M566.552,396.456c0,11.213-65.517,20.3-146.348,20.3s-146.362-9.085-146.362-20.3,65.536-20.272,146.362-20.272S566.552,385.258,566.552,396.456Z"/><path class="cls-77" d="M565.945,396.472c0,11.168-65.245,20.214-145.741,20.214s-145.755-9.046-145.755-20.214c0-11.15,65.264-20.187,145.755-20.187S565.945,385.322,565.945,396.472Z"/><path class="cls-78" d="M565.338,396.489c0,11.121-64.974,20.13-145.134,20.13s-145.148-9.009-145.148-20.13c0-11.1,64.993-20.1,145.148-20.1S565.338,385.385,565.338,396.489Z"/><path class="cls-79" d="M564.73,396.506c0,11.074-64.7,20.045-144.526,20.045s-144.541-8.971-144.541-20.045c0-11.058,64.721-20.019,144.541-20.019S564.73,385.448,564.73,396.506Z"/><path class="cls-80" d="M564.123,396.523c0,11.027-64.429,19.961-143.919,19.961s-143.933-8.934-143.933-19.961,64.448-19.935,143.933-19.935S564.123,385.511,564.123,396.523Z"/><path class="cls-81" d="M563.516,396.539c0,10.981-64.158,19.878-143.312,19.878s-143.326-8.9-143.326-19.878c0-10.965,64.177-19.85,143.326-19.85S563.516,385.574,563.516,396.539Z"/><path class="cls-82" d="M562.909,396.556c0,10.934-63.886,19.793-142.7,19.793s-142.719-8.859-142.719-19.793c0-10.919,63.9-19.766,142.719-19.766S562.909,385.637,562.909,396.556Z"/><path class="cls-83" d="M562.3,396.573c0,10.888-63.614,19.709-142.1,19.709s-142.112-8.821-142.112-19.709c0-10.873,63.633-19.682,142.112-19.682S562.3,385.7,562.3,396.573Z"/><path class="cls-84" d="M561.694,396.59c0,10.841-63.342,19.624-141.49,19.624s-141.5-8.783-141.5-19.624c0-10.826,63.361-19.6,141.5-19.6S561.694,385.764,561.694,396.59Z"/><path class="cls-85" d="M561.087,396.606c0,10.8-63.07,19.541-140.883,19.541s-140.9-8.746-140.9-19.541c0-10.779,63.089-19.514,140.9-19.514S561.087,385.827,561.087,396.606Z"/><path class="cls-86" d="M560.479,396.623c0,10.748-62.8,19.456-140.275,19.456s-140.29-8.708-140.29-19.456,62.818-19.43,140.29-19.43S560.479,385.89,560.479,396.623Z"/><path class="cls-87" d="M559.872,396.64c0,10.7-62.526,19.372-139.668,19.372s-139.683-8.671-139.683-19.372,62.546-19.346,139.683-19.346S559.872,385.953,559.872,396.64Z"/><path class="cls-88" d="M559.265,396.657c0,10.655-62.254,19.287-139.061,19.287s-139.076-8.632-139.076-19.287S343.4,377.4,420.2,377.4,559.265,386.016,559.265,396.657Z"/><path class="cls-89" d="M558.657,396.673c0,10.609-61.982,19.2-138.453,19.2s-138.468-8.6-138.468-19.2,62-19.177,138.468-19.177S558.657,386.079,558.657,396.673Z"/><path class="cls-90" d="M558.05,396.69c0,10.562-61.71,19.119-137.846,19.119s-137.861-8.557-137.861-19.119S344.073,377.6,420.2,377.6,558.05,386.142,558.05,396.69Z"/><path class="cls-91" d="M557.443,396.707c0,10.515-61.438,19.035-137.239,19.035s-137.254-8.52-137.254-19.035S344.408,377.7,420.2,377.7,557.443,386.206,557.443,396.707Z"/><path class="cls-92" d="M556.836,396.724c0,10.468-61.167,18.95-136.632,18.95s-136.647-8.482-136.647-18.95S344.744,377.8,420.2,377.8,556.836,386.269,556.836,396.724Z"/><path class="cls-93" d="M556.228,396.741c0,10.421-60.894,18.866-136.024,18.866s-136.039-8.445-136.039-18.866S345.079,377.9,420.2,377.9,556.228,386.332,556.228,396.741Z"/><path class="cls-94" d="M555.621,396.757c0,10.376-60.622,18.782-135.417,18.782s-135.432-8.406-135.432-18.782S345.415,378,420.2,378,555.621,386.4,555.621,396.757Z"/><path class="cls-95" d="M555.014,396.774c0,10.329-60.351,18.7-134.81,18.7s-134.825-8.369-134.825-18.7S345.75,378.1,420.2,378.1,555.014,386.458,555.014,396.774Z"/><path class="cls-96" d="M554.406,396.791c0,10.282-60.078,18.613-134.2,18.613s-134.218-8.331-134.218-18.613S346.085,378.2,420.2,378.2,554.406,386.521,554.406,396.791Z"/><path class="cls-97" d="M553.8,396.808c0,10.235-59.806,18.529-133.595,18.529s-133.611-8.294-133.611-18.529,59.828-18.5,133.611-18.5S553.8,386.584,553.8,396.808Z"/><path class="cls-98" d="M553.192,396.824c0,10.189-59.535,18.445-132.988,18.445s-133-8.256-133-18.445,59.555-18.42,133-18.42S553.192,386.648,553.192,396.824Z"/><path class="cls-99" d="M552.584,396.841c0,10.143-59.262,18.361-132.38,18.361s-132.4-8.218-132.4-18.361,59.283-18.336,132.4-18.336S552.584,386.711,552.584,396.841Z"/><path class="cls-100" d="M551.977,396.858c0,10.1-58.991,18.276-131.773,18.276s-131.789-8.18-131.789-18.276,59.012-18.253,131.789-18.253S551.977,386.774,551.977,396.858Z"/><path class="cls-101" d="M551.37,396.875c0,10.049-58.719,18.192-131.166,18.192s-131.182-8.143-131.182-18.192,58.74-18.169,131.182-18.169S551.37,386.837,551.37,396.875Z"/><path class="cls-102" d="M550.762,396.891c0,10-58.446,18.108-130.558,18.108S289.63,406.894,289.63,396.891,348.1,378.807,420.2,378.807,550.762,386.9,550.762,396.891Z"/><path class="cls-103" d="M550.155,396.908c0,9.956-58.175,18.024-129.951,18.024s-129.967-8.068-129.967-18.024,58.2-18,129.967-18S550.155,386.963,550.155,396.908Z"/><path class="cls-104" d="M549.548,396.925c0,9.909-57.9,17.939-129.344,17.939s-129.36-8.03-129.36-17.939,57.924-17.916,129.36-17.916S549.548,387.026,549.548,396.925Z"/><path class="cls-105" d="M548.941,396.942c0,9.863-57.631,17.855-128.737,17.855s-128.753-7.992-128.753-17.855S349.1,379.11,420.2,379.11,548.941,387.089,548.941,396.942Z"/><path class="cls-106" d="M548.333,396.958c0,9.817-57.359,17.772-128.129,17.772s-128.145-7.955-128.145-17.772,57.38-17.747,128.145-17.747S548.333,387.153,548.333,396.958Z"/><path class="cls-107" d="M547.726,396.975c0,9.77-57.087,17.687-127.522,17.687s-127.538-7.917-127.538-17.687,57.108-17.663,127.538-17.663S547.726,387.216,547.726,396.975Z"/><path class="cls-108" d="M547.119,396.992c0,9.723-56.815,17.6-126.915,17.6s-126.931-7.88-126.931-17.6,56.837-17.58,126.931-17.58S547.119,387.279,547.119,396.992Z"/><path class="cls-109" d="M546.511,397.009c0,9.676-56.543,17.518-126.307,17.518S293.88,406.685,293.88,397.009s56.565-17.5,126.324-17.5S546.511,387.342,546.511,397.009Z"/><path class="cls-110" d="M545.9,397.025c0,9.631-56.271,17.435-125.7,17.435s-125.717-7.8-125.717-17.435,56.294-17.411,125.717-17.411S545.9,387.405,545.9,397.025Z"/><path class="cls-111" d="M545.3,397.042c0,9.584-56,17.35-125.093,17.35S295.1,406.626,295.1,397.042s56.021-17.327,125.109-17.327S545.3,387.468,545.3,397.042Z"/><path class="cls-112" d="M544.689,397.059c0,9.537-55.727,17.266-124.485,17.266S295.7,406.6,295.7,397.059s55.749-17.243,124.5-17.243S544.689,387.531,544.689,397.059Z"/><path class="cls-113" d="M544.082,397.076c0,9.49-55.455,17.181-123.878,17.181s-123.895-7.691-123.895-17.181,55.478-17.159,123.895-17.159S544.082,387.6,544.082,397.076Z"/><path class="cls-114" d="M543.475,397.092c0,9.444-55.184,17.1-123.271,17.1s-123.288-7.654-123.288-17.1,55.206-17.074,123.288-17.074S543.475,387.658,543.475,397.092Z"/><path class="cls-115" d="M542.867,397.109c0,9.4-54.911,17.013-122.663,17.013s-122.68-7.615-122.68-17.013,54.933-16.99,122.68-16.99S542.867,387.721,542.867,397.109Z"/><path class="cls-116" d="M542.26,397.126c0,9.351-54.639,16.929-122.056,16.929s-122.073-7.578-122.073-16.929,54.662-16.907,122.073-16.907S542.26,387.784,542.26,397.126Z"/><path class="cls-117" d="M541.653,397.143c0,9.3-54.368,16.844-121.449,16.844s-121.466-7.54-121.466-16.844S353.128,380.32,420.2,380.32,541.653,387.847,541.653,397.143Z"/><path class="cls-118" d="M541.046,397.159c0,9.258-54.1,16.761-120.842,16.761s-120.859-7.5-120.859-16.761,54.119-16.738,120.859-16.738S541.046,387.91,541.046,397.159Z"/><path class="cls-119" d="M540.438,397.176c0,9.211-53.823,16.676-120.234,16.676s-120.251-7.465-120.251-16.676S353.8,380.522,420.2,380.522,540.438,387.973,540.438,397.176Z"/><path class="cls-120" d="M539.831,397.193c0,9.164-53.552,16.592-119.627,16.592S300.56,406.357,300.56,397.193s53.574-16.57,119.644-16.57S539.831,388.037,539.831,397.193Z"/><path class="cls-121" d="M539.224,397.21c0,9.118-53.28,16.507-119.02,16.507s-119.037-7.389-119.037-16.507,53.3-16.486,119.037-16.486S539.224,388.1,539.224,397.21Z"/><path class="cls-122" d="M538.616,397.227c0,9.071-53.007,16.423-118.412,16.423s-118.43-7.352-118.43-16.423,53.031-16.4,118.43-16.4S538.616,388.163,538.616,397.227Z"/><path class="cls-123" d="M538.009,397.243c0,9.025-52.736,16.339-117.8,16.339s-117.823-7.314-117.823-16.339S355.14,380.926,420.2,380.926,538.009,388.226,538.009,397.243Z"/><path class="cls-124" d="M537.4,397.26c0,8.978-52.464,16.255-117.2,16.255s-117.215-7.277-117.215-16.255,52.487-16.233,117.215-16.233S537.4,388.289,537.4,397.26Z"/><path class="cls-125" d="M536.794,397.277c0,8.931-52.191,16.17-116.59,16.17S303.6,406.208,303.6,397.277s52.215-16.15,116.608-16.15S536.794,388.352,536.794,397.277Z"/><path class="cls-126" d="M536.187,397.294c0,8.885-51.92,16.086-115.983,16.086s-116-7.2-116-16.086,51.944-16.066,116-16.066S536.187,388.415,536.187,397.294Z"/><path class="cls-127" d="M535.58,397.31c0,8.839-51.648,16-115.376,16s-115.394-7.163-115.394-16,51.672-15.981,115.394-15.981S535.58,388.479,535.58,397.31Z"/><path class="cls-128" d="M534.973,397.327c0,8.792-51.377,15.918-114.769,15.918s-114.786-7.126-114.786-15.918,51.4-15.9,114.786-15.9S534.973,388.542,534.973,397.327Z"/><path class="cls-129" d="M534.365,397.344c0,8.745-51.1,15.833-114.161,15.833s-114.179-7.088-114.179-15.833,51.128-15.813,114.179-15.813S534.365,388.605,534.365,397.344Z"/><path class="cls-130" d="M533.758,397.361c0,8.7-50.832,15.749-113.554,15.749s-113.572-7.051-113.572-15.749,50.856-15.729,113.572-15.729S533.758,388.668,533.758,397.361Z"/><path class="cls-131" d="M533.151,397.377c0,8.652-50.561,15.666-112.947,15.666s-112.965-7.014-112.965-15.666,50.584-15.644,112.965-15.644S533.151,388.731,533.151,397.377Z"/><path class="cls-132" d="M532.543,397.394c0,8.606-50.288,15.581-112.339,15.581S307.846,406,307.846,397.394s50.313-15.56,112.358-15.56S532.543,388.794,532.543,397.394Z"/><path class="cls-133" d="M531.936,397.411c0,8.559-50.016,15.5-111.732,15.5s-111.75-6.938-111.75-15.5,50.04-15.477,111.75-15.477S531.936,388.857,531.936,397.411Z"/><path class="cls-134" d="M531.329,397.428c0,8.512-49.745,15.412-111.125,15.412s-111.143-6.9-111.143-15.412S358.83,382.035,420.2,382.035,531.329,388.92,531.329,397.428Z"/><path class="cls-135" d="M530.721,397.444c0,8.466-49.472,15.329-110.517,15.329s-110.536-6.863-110.536-15.329,49.5-15.308,110.536-15.308S530.721,388.984,530.721,397.444Z"/><path class="cls-136" d="M530.114,397.461c0,8.419-49.2,15.244-109.91,15.244s-109.929-6.825-109.929-15.244S359.5,382.237,420.2,382.237,530.114,389.047,530.114,397.461Z"/><path class="cls-137" d="M529.507,397.478c0,8.373-48.929,15.16-109.3,15.16s-109.321-6.787-109.321-15.16,48.953-15.14,109.321-15.14S529.507,389.11,529.507,397.478Z"/><path class="cls-138" d="M528.9,397.5c0,8.326-48.656,15.075-108.695,15.075S311.49,405.821,311.49,397.5s48.681-15.056,108.714-15.056S528.9,389.173,528.9,397.5Z"/><path class="cls-139" d="M528.292,397.511c0,8.28-48.384,14.992-108.088,14.992S312.1,405.791,312.1,397.511,360.506,382.54,420.2,382.54,528.292,389.236,528.292,397.511Z"/><path class="cls-140" d="M527.685,397.528c0,8.233-48.113,14.907-107.481,14.907s-107.5-6.674-107.5-14.907,48.138-14.887,107.5-14.887S527.685,389.3,527.685,397.528Z"/><path class="cls-141" d="M527.078,397.545c0,8.186-47.841,14.823-106.874,14.823s-106.892-6.637-106.892-14.823,47.865-14.8,106.892-14.8S527.078,389.362,527.078,397.545Z"/><path class="cls-142" d="M526.47,397.562C526.47,405.7,478.9,412.3,420.2,412.3s-106.285-6.6-106.285-14.738,47.594-14.72,106.285-14.72S526.47,389.426,526.47,397.562Z"/><path class="cls-143" d="M525.863,397.578c0,8.094-47.3,14.655-105.659,14.655s-105.678-6.561-105.678-14.655,47.322-14.635,105.678-14.635S525.863,389.489,525.863,397.578Z"/><path class="cls-144" d="M525.256,397.6c0,8.047-47.025,14.57-105.052,14.57s-105.071-6.523-105.071-14.57,47.05-14.551,105.071-14.551S525.256,389.552,525.256,397.6Z"/><path class="cls-145" d="M524.648,397.612c0,8-46.753,14.486-104.444,14.486S315.74,405.612,315.74,397.612s46.779-14.467,104.464-14.467S524.648,389.615,524.648,397.612Z"/><path class="cls-146" d="M524.041,397.629c0,7.953-46.481,14.4-103.837,14.4s-103.856-6.448-103.856-14.4,46.506-14.383,103.856-14.383S524.041,389.678,524.041,397.629Z"/><path class="cls-147" d="M523.434,397.645c0,7.907-46.209,14.318-103.23,14.318s-103.249-6.411-103.249-14.318,46.234-14.3,103.249-14.3S523.434,389.741,523.434,397.645Z"/><path class="cls-148" d="M522.826,397.662c0,7.861-45.937,14.233-102.622,14.233s-102.642-6.372-102.642-14.233,45.963-14.214,102.642-14.214S522.826,389.8,522.826,397.662Z"/><path class="cls-149" d="M522.219,397.679c0,7.814-45.665,14.149-102.015,14.149s-102.035-6.335-102.035-14.149S363.86,383.548,420.2,383.548,522.219,389.868,522.219,397.679Z"/><path class="cls-150" d="M521.612,397.7c0,7.767-45.393,14.064-101.408,14.064s-101.427-6.3-101.427-14.064S364.2,383.649,420.2,383.649,521.612,389.931,521.612,397.7Z"/><path class="cls-151" d="M521,397.713c0,7.72-45.121,13.98-100.8,13.98s-100.82-6.26-100.82-13.98S364.531,383.75,420.2,383.75,521,389.994,521,397.713Z"/><path class="cls-152" d="M520.4,397.729c0,7.674-44.849,13.9-100.193,13.9s-100.213-6.222-100.213-13.9,44.875-13.878,100.213-13.878S520.4,390.057,520.4,397.729Z"/><path class="cls-153" d="M519.79,397.746c0,7.627-44.577,13.812-99.586,13.812S320.6,405.373,320.6,397.746s44.6-13.794,99.606-13.794S519.79,390.12,519.79,397.746Z"/><path class="cls-154" d="M519.183,397.763c0,7.581-44.306,13.728-98.979,13.728s-99-6.147-99-13.728,44.331-13.71,99-13.71S519.183,390.183,519.183,397.763Z"/><path class="cls-155" d="M518.575,397.78c0,7.534-44.033,13.643-98.371,13.643s-98.391-6.109-98.391-13.643,44.059-13.626,98.391-13.626S518.575,390.246,518.575,397.78Z"/><path class="cls-156" d="M517.968,397.8c0,7.488-43.761,13.56-97.764,13.56s-97.784-6.072-97.784-13.56,43.788-13.541,97.784-13.541S517.968,390.31,517.968,397.8Z"/><path class="cls-157" d="M517.361,397.813c0,7.441-43.49,13.475-97.157,13.475s-97.177-6.034-97.177-13.475,43.516-13.458,97.177-13.458S517.361,390.373,517.361,397.813Z"/><path class="cls-158" d="M516.753,397.83c0,7.394-43.217,13.391-96.549,13.391s-96.57-6-96.57-13.391,43.245-13.374,96.57-13.374S516.753,390.436,516.753,397.83Z"/><path class="cls-159" d="M516.146,397.847c0,7.348-42.946,13.306-95.942,13.306s-95.962-5.958-95.962-13.306,42.972-13.29,95.962-13.29S516.146,390.5,516.146,397.847Z"/><path class="cls-160" d="M515.539,397.863c0,7.3-42.674,13.223-95.335,13.223s-95.355-5.921-95.355-13.223,42.7-13.2,95.355-13.2S515.539,390.562,515.539,397.863Z"/><path class="cls-161" d="M514.931,397.88c0,7.255-42.4,13.138-94.727,13.138s-94.748-5.883-94.748-13.138,42.429-13.121,94.748-13.121S514.931,390.625,514.931,397.88Z"/><path class="cls-162" d="M514.324,397.9c0,7.208-42.13,13.054-94.12,13.054s-94.141-5.846-94.141-13.054S368.22,384.86,420.2,384.86,514.324,390.688,514.324,397.9Z"/><path class="cls-163" d="M513.717,397.914c0,7.161-41.858,12.969-93.513,12.969s-93.533-5.808-93.533-12.969,41.884-12.953,93.533-12.953S513.717,390.752,513.717,397.914Z"/><path class="cls-164" d="M513.11,397.93c0,7.115-41.586,12.886-92.906,12.886s-92.926-5.771-92.926-12.886,41.613-12.868,92.926-12.868S513.11,390.815,513.11,397.93Z"/><path class="cls-165" d="M512.5,397.947c0,7.069-41.314,12.8-92.3,12.8s-92.319-5.732-92.319-12.8,41.341-12.784,92.319-12.784S512.5,390.878,512.5,397.947Z"/><path class="cls-166" d="M511.9,397.964c0,7.022-41.042,12.717-91.691,12.717s-91.712-5.695-91.712-12.717,41.07-12.7,91.712-12.7S511.9,390.941,511.9,397.964Z"/><path class="cls-167" d="M511.288,397.981c0,6.975-40.77,12.632-91.084,12.632S329.1,404.956,329.1,397.981s40.8-12.617,91.105-12.617S511.288,391,511.288,397.981Z"/><path class="cls-168" d="M510.68,398c0,6.929-40.5,12.549-90.476,12.549s-90.5-5.62-90.5-12.549,40.525-12.532,90.5-12.532S510.68,391.067,510.68,398Z"/><path class="cls-169" d="M510.073,398.014c0,6.882-40.226,12.464-89.869,12.464s-89.89-5.582-89.89-12.464,40.254-12.448,89.89-12.448S510.073,391.13,510.073,398.014Z"/><path class="cls-170" d="M509.466,398.031c0,6.836-39.954,12.38-89.262,12.38s-89.283-5.544-89.283-12.38S370.9,385.667,420.2,385.667,509.466,391.193,509.466,398.031Z"/><path class="cls-171" d="M508.858,398.048c0,6.789-39.682,12.3-88.654,12.3s-88.676-5.506-88.676-12.3,39.71-12.28,88.676-12.28S508.858,391.257,508.858,398.048Z"/><path class="cls-172" d="M508.251,398.064c0,6.743-39.41,12.212-88.047,12.212s-88.068-5.469-88.068-12.212,39.438-12.195,88.068-12.195S508.251,391.32,508.251,398.064Z"/><path class="cls-173" d="M507.644,398.081c0,6.7-39.139,12.127-87.44,12.127s-87.461-5.431-87.461-12.127S371.909,385.97,420.2,385.97,507.644,391.383,507.644,398.081Z"/><path class="cls-174" d="M507.036,398.1c0,6.649-38.866,12.043-86.832,12.043S333.35,404.747,333.35,398.1,372.245,386.07,420.2,386.07,507.036,391.446,507.036,398.1Z"/><path class="cls-175" d="M506.429,398.115c0,6.6-38.594,11.958-86.225,11.958s-86.247-5.356-86.247-11.958,38.623-11.944,86.247-11.944S506.429,391.509,506.429,398.115Z"/><path class="cls-176" d="M505.822,398.131c0,6.557-38.323,11.875-85.618,11.875s-85.639-5.318-85.639-11.875,38.35-11.859,85.639-11.859S505.822,391.572,505.822,398.131Z"/><path class="cls-177" d="M505.215,398.148c0,6.51-38.051,11.79-85.011,11.79s-85.032-5.28-85.032-11.79,38.079-11.775,85.032-11.775S505.215,391.635,505.215,398.148Z"/><path class="cls-178" d="M504.607,398.165c0,6.463-37.778,11.706-84.4,11.706s-84.425-5.243-84.425-11.706,37.807-11.691,84.425-11.691S504.607,391.7,504.607,398.165Z"/><path class="cls-179" d="M504,398.182c0,6.416-37.507,11.622-83.8,11.622s-83.818-5.206-83.818-11.622,37.536-11.607,83.818-11.607S504,391.762,504,398.182Z"/><path class="cls-180" d="M503.393,398.2c0,6.369-37.235,11.537-83.189,11.537s-83.211-5.168-83.211-11.537,37.264-11.523,83.211-11.523S503.393,391.825,503.393,398.2Z"/><path class="cls-181" d="M502.785,398.215c0,6.324-36.962,11.454-82.581,11.454s-82.6-5.13-82.6-11.454,36.991-11.438,82.6-11.438S502.785,391.888,502.785,398.215Z"/><path class="cls-182" d="M502.178,398.232c0,6.277-36.691,11.369-81.974,11.369s-82-5.092-82-11.369,36.72-11.355,82-11.355S502.178,391.951,502.178,398.232Z"/><path class="cls-183" d="M501.571,398.249c0,6.23-36.419,11.285-81.367,11.285s-81.389-5.055-81.389-11.285,36.448-11.271,81.389-11.271S501.571,392.014,501.571,398.249Z"/><path class="cls-184" d="M500.963,398.266c0,6.183-36.146,11.2-80.759,11.2s-80.782-5.017-80.782-11.2S375.6,387.079,420.2,387.079,500.963,392.077,500.963,398.266Z"/><path class="cls-185" d="M500.356,398.282c0,6.137-35.875,11.117-80.152,11.117s-80.174-4.98-80.174-11.117,35.9-11.1,80.174-11.1S500.356,392.141,500.356,398.282Z"/><path class="cls-186" d="M499.749,398.3c0,6.091-35.6,11.032-79.545,11.032s-79.567-4.941-79.567-11.032,35.632-11.018,79.567-11.018S499.749,392.2,499.749,398.3Z"/><path class="cls-187" d="M499.141,398.316c0,6.044-35.33,10.948-78.937,10.948s-78.96-4.9-78.96-10.948,35.361-10.934,78.96-10.934S499.141,392.267,499.141,398.316Z"/><path class="cls-188" d="M498.534,398.333c0,6-35.059,10.863-78.33,10.863s-78.353-4.866-78.353-10.863,35.089-10.85,78.353-10.85S498.534,392.33,498.534,398.333Z"/><path class="cls-189" d="M497.927,398.349c0,5.951-34.787,10.78-77.723,10.78s-77.745-4.829-77.745-10.78,34.816-10.765,77.745-10.765S497.927,392.393,497.927,398.349Z"/><path class="cls-190" d="M497.32,398.366c0,5.9-34.516,10.695-77.116,10.695s-77.138-4.791-77.138-10.695,34.545-10.682,77.138-10.682S497.32,392.456,497.32,398.366Z"/><path class="cls-191" d="M496.712,398.383c0,5.857-34.243,10.611-76.508,10.611s-76.531-4.754-76.531-10.611,34.273-10.6,76.531-10.6S496.712,392.519,496.712,398.383Z"/><path class="cls-192" d="M496.105,398.4c0,5.811-33.971,10.526-75.9,10.526S344.28,404.211,344.28,398.4s34-10.514,75.924-10.514S496.105,392.583,496.105,398.4Z"/><path class="cls-193" d="M495.5,398.416c0,5.765-33.7,10.443-75.294,10.443s-75.317-4.678-75.317-10.443,33.73-10.429,75.317-10.429S495.5,392.646,495.5,398.416Z"/><path class="cls-194" d="M494.89,398.433c0,5.718-33.427,10.358-74.686,10.358s-74.709-4.64-74.709-10.358,33.457-10.345,74.709-10.345S494.89,392.709,494.89,398.433Z"/><path class="cls-195" d="M494.283,398.45c0,5.671-33.155,10.274-74.079,10.274s-74.1-4.6-74.1-10.274,33.186-10.261,74.1-10.261S494.283,392.772,494.283,398.45Z"/><path class="cls-196" d="M493.676,398.467c0,5.624-32.884,10.189-73.472,10.189s-73.495-4.565-73.495-10.189,32.914-10.177,73.5-10.177S493.676,392.835,493.676,398.467Z"/><path class="cls-197" d="M493.068,398.483c0,5.579-32.611,10.106-72.864,10.106s-72.888-4.527-72.888-10.106,32.642-10.092,72.888-10.092S493.068,392.9,493.068,398.483Z"/><path class="cls-198" d="M492.461,398.5c0,5.532-32.339,10.021-72.257,10.021s-72.28-4.489-72.28-10.021,32.37-10.009,72.28-10.009S492.461,392.961,492.461,398.5Z"/><path class="cls-199" d="M491.854,398.517c0,5.485-32.068,9.937-71.65,9.937s-71.673-4.452-71.673-9.937,32.1-9.925,71.673-9.925S491.854,393.025,491.854,398.517Z"/><path class="cls-200" d="M491.247,398.534c0,5.438-31.8,9.852-71.043,9.852s-71.066-4.414-71.066-9.852,31.826-9.841,71.066-9.841S491.247,393.088,491.247,398.534Z"/><path class="cls-201" d="M490.639,398.55c0,5.392-31.523,9.769-70.435,9.769s-70.459-4.377-70.459-9.769,31.555-9.756,70.459-9.756S490.639,393.151,490.639,398.55Z"/><path class="cls-202" d="M490.032,398.567c0,5.345-31.252,9.684-69.828,9.684s-69.852-4.339-69.852-9.684S381.635,388.9,420.2,388.9,490.032,393.214,490.032,398.567Z"/><path class="cls-203" d="M489.425,398.584c0,5.3-30.98,9.6-69.221,9.6s-69.244-4.3-69.244-9.6S381.971,389,420.2,389,489.425,393.277,489.425,398.584Z"/><path class="cls-204" d="M488.817,398.6c0,5.252-30.708,9.516-68.613,9.516s-68.637-4.264-68.637-9.516,30.739-9.5,68.637-9.5S488.817,393.34,488.817,398.6Z"/><path class="cls-205" d="M488.21,398.617c0,5.206-30.436,9.432-68.006,9.432s-68.03-4.226-68.03-9.432,30.467-9.419,68.03-9.419S488.21,393.4,488.21,398.617Z"/><path class="cls-206" d="M487.6,398.634c0,5.159-30.164,9.348-67.4,9.348s-67.423-4.189-67.423-9.348,30.2-9.335,67.423-9.335S487.6,393.466,487.6,398.634Z"/><path class="cls-207" d="M487,398.651c0,5.112-29.892,9.263-66.791,9.263s-66.815-4.151-66.815-9.263S383.312,389.4,420.2,389.4,487,393.53,487,398.651Z"/><path class="cls-208" d="M486.388,398.668c0,5.066-29.62,9.179-66.184,9.179S354,403.734,354,398.668,383.647,389.5,420.2,389.5,486.388,393.593,486.388,398.668Z"/><path class="cls-209" d="M485.781,398.684c0,5.02-29.348,9.095-65.577,9.095s-65.6-4.075-65.6-9.095,29.38-9.083,65.6-9.083S485.781,393.656,485.781,398.684Z"/><path class="cls-210" d="M485.173,398.7c0,4.973-29.076,9.011-64.969,9.011s-64.994-4.038-64.994-9.011,29.108-9,64.994-9S485.173,393.719,485.173,398.7Z"/><path class="cls-211" d="M484.566,398.718c0,4.926-28.8,8.926-64.362,8.926s-64.386-4-64.386-8.926S384.654,389.8,420.2,389.8,484.566,393.782,484.566,398.718Z"/><path class="cls-212" d="M483.959,398.735c0,4.879-28.532,8.842-63.755,8.842s-63.779-3.963-63.779-8.842S384.989,389.9,420.2,389.9,483.959,393.845,483.959,398.735Z"/><path class="cls-213" d="M483.352,398.752c0,4.832-28.261,8.757-63.148,8.757s-63.172-3.925-63.172-8.757,28.292-8.747,63.172-8.747S483.352,393.908,483.352,398.752Z"/><path class="cls-214" d="M482.744,398.768c0,4.787-27.988,8.674-62.54,8.674s-62.565-3.887-62.565-8.674,28.021-8.662,62.565-8.662S482.744,393.972,482.744,398.768Z"/><path class="cls-215" d="M482.137,398.785c0,4.74-27.716,8.589-61.933,8.589s-61.958-3.849-61.958-8.589S386,390.206,420.2,390.206,482.137,394.035,482.137,398.785Z"/><path class="cls-216" d="M481.53,398.8c0,4.693-27.445,8.5-61.326,8.5s-61.35-3.812-61.35-8.5,27.476-8.5,61.35-8.5S481.53,394.1,481.53,398.8Z"/><path class="cls-217" d="M480.922,398.819c0,4.646-27.172,8.42-60.718,8.42s-60.743-3.774-60.743-8.42,27.2-8.411,60.743-8.411S480.922,394.161,480.922,398.819Z"/><path class="cls-218" d="M480.315,398.835c0,4.6-26.9,8.337-60.111,8.337s-60.136-3.737-60.136-8.337S387,390.509,420.2,390.509,480.315,394.224,480.315,398.835Z"/><path class="cls-219" d="M479.708,398.852c0,4.554-26.629,8.252-59.5,8.252s-59.529-3.7-59.529-8.252,26.662-8.242,59.529-8.242S479.708,394.287,479.708,398.852Z"/><path class="cls-220" d="M479.1,398.869c0,4.507-26.356,8.168-58.9,8.168s-58.921-3.661-58.921-8.168,26.389-8.158,58.921-8.158S479.1,394.35,479.1,398.869Z"/><path class="cls-221" d="M478.493,398.886c0,4.46-26.085,8.083-58.289,8.083s-58.314-3.623-58.314-8.083,26.117-8.074,58.314-8.074S478.493,394.414,478.493,398.886Z"/><path class="cls-222" d="M477.886,398.9c0,4.414-25.813,8-57.682,8s-57.707-3.586-57.707-8,25.846-7.989,57.707-7.989S477.886,394.477,477.886,398.9Z"/><path class="cls-223" d="M477.278,398.919c0,4.367-25.54,7.915-57.074,7.915s-57.1-3.548-57.1-7.915,25.574-7.906,57.1-7.906S477.278,394.54,477.278,398.919Z"/><path class="cls-224" d="M476.671,398.936c0,4.32-25.269,7.831-56.467,7.831s-56.492-3.511-56.492-7.831,25.3-7.822,56.492-7.822S476.671,394.6,476.671,398.936Z"/><path class="cls-225" d="M476.064,398.953c0,4.274-25,7.746-55.86,7.746s-55.885-3.472-55.885-7.746,25.03-7.738,55.885-7.738S476.064,394.666,476.064,398.953Z"/><path class="cls-226" d="M475.457,398.969c0,4.228-24.725,7.663-55.253,7.663s-55.278-3.435-55.278-7.663,24.758-7.653,55.278-7.653S475.457,394.729,475.457,398.969Z"/><path class="cls-227" d="M474.849,398.986c0,4.181-24.453,7.578-54.645,7.578s-54.671-3.4-54.671-7.578,24.487-7.569,54.671-7.569S474.849,394.792,474.849,398.986Z"/><path class="cls-228" d="M474.242,399c0,4.134-24.181,7.494-54.038,7.494S366.14,403.137,366.14,399s24.215-7.485,54.064-7.485S474.242,394.856,474.242,399Z"/><path class="cls-229" d="M473.635,399.02c0,4.087-23.909,7.41-53.431,7.41s-53.456-3.323-53.456-7.41,23.942-7.4,53.456-7.4S473.635,394.919,473.635,399.02Z"/><path class="cls-230" d="M473.027,399.036c0,4.042-23.637,7.326-52.823,7.326s-52.849-3.284-52.849-7.326,23.671-7.316,52.849-7.316S473.027,394.982,473.027,399.036Z"/><path class="cls-231" d="M472.42,399.053c0,4-23.365,7.242-52.216,7.242s-52.242-3.247-52.242-7.242,23.4-7.233,52.242-7.233S472.42,395.045,472.42,399.053Z"/><path class="cls-232" d="M471.813,399.07c0,3.948-23.093,7.157-51.609,7.157s-51.635-3.209-51.635-7.157,23.127-7.149,51.635-7.149S471.813,395.108,471.813,399.07Z"/><path class="cls-233" d="M471.205,399.087c0,3.9-22.821,7.073-51,7.073s-51.027-3.172-51.027-7.073,22.855-7.065,51.027-7.065S471.205,395.171,471.205,399.087Z"/><path class="cls-234" d="M470.6,399.1c0,3.855-22.549,6.989-50.394,6.989s-50.42-3.134-50.42-6.989,22.583-6.98,50.42-6.98S470.6,395.234,470.6,399.1Z"/><path class="cls-235" d="M469.991,399.12c0,3.808-22.278,6.9-49.787,6.9s-49.813-3.1-49.813-6.9,22.312-6.9,49.813-6.9S469.991,395.3,469.991,399.12Z"/><path class="cls-236" d="M469.383,399.137c0,3.762-22,6.82-49.179,6.82S371,402.9,371,399.137s22.04-6.812,49.206-6.812S469.383,395.361,469.383,399.137Z"/><path class="cls-237" d="M468.776,399.154c0,3.715-21.733,6.736-48.572,6.736s-48.6-3.021-48.6-6.736,21.768-6.728,48.6-6.728S468.776,395.424,468.776,399.154Z"/><path class="cls-238" d="M468.169,399.17c0,3.669-21.462,6.652-47.965,6.652s-47.991-2.983-47.991-6.652,21.5-6.643,47.991-6.643S468.169,395.487,468.169,399.17Z"/><path class="cls-239" d="M467.562,399.187c0,3.622-21.19,6.568-47.358,6.568s-47.384-2.946-47.384-6.568,21.224-6.56,47.384-6.56S467.562,395.55,467.562,399.187Z"/><path class="cls-240" d="M466.954,399.2c0,3.575-20.917,6.483-46.75,6.483s-46.777-2.908-46.777-6.483c0-3.591,20.952-6.476,46.777-6.476S466.954,395.613,466.954,399.2Z"/><path class="cls-241" d="M466.347,399.221c0,3.529-20.646,6.4-46.143,6.4s-46.17-2.87-46.17-6.4c0-3.545,20.681-6.392,46.17-6.392S466.347,395.676,466.347,399.221Z"/><path class="cls-242" d="M465.74,399.238c0,3.482-20.374,6.314-45.536,6.314s-45.562-2.832-45.562-6.314c0-3.5,20.408-6.308,45.562-6.308S465.74,395.739,465.74,399.238Z"/><path class="cls-243" d="M465.132,399.254c0,3.436-20.1,6.231-44.928,6.231s-44.955-2.8-44.955-6.231c0-3.451,20.137-6.223,44.955-6.223S465.132,395.8,465.132,399.254Z"/><path class="cls-244" d="M464.525,399.271c0,3.389-19.83,6.146-44.321,6.146s-44.348-2.757-44.348-6.146c0-3.405,19.865-6.139,44.348-6.139S464.525,395.866,464.525,399.271Z"/><path class="cls-245" d="M463.918,399.288c0,3.342-19.558,6.062-43.714,6.062s-43.741-2.72-43.741-6.062c0-3.359,19.593-6.055,43.741-6.055S463.918,395.929,463.918,399.288Z"/><path class="cls-246" d="M463.31,399.305c0,3.3-19.285,5.977-43.106,5.977s-43.133-2.682-43.133-5.977c0-3.313,19.321-5.971,43.133-5.971S463.31,395.992,463.31,399.305Z"/><path class="cls-247" d="M462.7,399.321c0,3.25-19.014,5.894-42.5,5.894s-42.526-2.644-42.526-5.894c0-3.266,19.049-5.886,42.526-5.886S462.7,396.055,462.7,399.321Z"/><path class="cls-248" d="M462.1,399.338c0,3.2-18.742,5.809-41.892,5.809s-41.919-2.606-41.919-5.809c0-3.22,18.777-5.8,41.919-5.8S462.1,396.118,462.1,399.338Z"/><path class="cls-249" d="M461.489,399.355c0,3.156-18.471,5.725-41.285,5.725s-41.312-2.569-41.312-5.725c0-3.174,18.506-5.719,41.312-5.719S461.489,396.181,461.489,399.355Z"/><path class="cls-250" d="M460.881,399.372c0,3.109-18.2,5.64-40.677,5.64s-40.7-2.531-40.7-5.64c0-3.127,18.234-5.635,40.7-5.635S460.881,396.245,460.881,399.372Z"/><path class="cls-251" d="M460.274,399.388c0,3.063-17.926,5.557-40.07,5.557s-40.1-2.494-40.1-5.557c0-3.08,17.962-5.55,40.1-5.55S460.274,396.308,460.274,399.388Z"/><path class="cls-252" d="M459.667,399.405c0,3.017-17.655,5.472-39.463,5.472s-39.49-2.455-39.49-5.472c0-3.034,17.69-5.466,39.49-5.466S459.667,396.371,459.667,399.405Z"/><path class="cls-253" d="M459.059,399.422c0,2.97-17.382,5.388-38.855,5.388s-38.883-2.418-38.883-5.388c0-2.988,17.418-5.382,38.883-5.382S459.059,396.434,459.059,399.422Z"/><path class="cls-254" d="M458.452,399.439c0,2.923-17.11,5.3-38.248,5.3s-38.276-2.381-38.276-5.3c0-2.942,17.147-5.3,38.276-5.3S458.452,396.5,458.452,399.439Z"/><path class="cls-255" d="M457.845,399.455c0,2.877-16.839,5.22-37.641,5.22s-37.668-2.343-37.668-5.22c0-2.895,16.874-5.213,37.668-5.213S457.845,396.56,457.845,399.455Z"/><path class="cls-256" d="M457.237,399.472c0,2.83-16.566,5.136-37.033,5.136s-37.061-2.306-37.061-5.136c0-2.849,16.6-5.13,37.061-5.13S457.237,396.623,457.237,399.472Z"/><path class="cls-257" d="M456.63,399.489c0,2.783-16.294,5.051-36.426,5.051s-36.454-2.268-36.454-5.051c0-2.8,16.331-5.046,36.454-5.046S456.63,396.687,456.63,399.489Z"/><path class="cls-258" d="M456.023,399.506c0,2.737-16.023,4.967-35.819,4.967s-35.847-2.23-35.847-4.967c0-2.756,16.059-4.962,35.847-4.962S456.023,396.75,456.023,399.506Z"/><path class="cls-259" d="M455.415,399.522c0,2.691-15.75,4.883-35.211,4.883s-35.239-2.192-35.239-4.883c0-2.709,15.787-4.877,35.239-4.877S455.415,396.813,455.415,399.522Z"/><path class="cls-260" d="M454.808,399.539c0,2.644-15.478,4.8-34.6,4.8s-34.632-2.155-34.632-4.8c0-2.663,15.515-4.793,34.632-4.793S454.808,396.876,454.808,399.539Z"/><path d="M454.2,399.556c0,2.6-15.207,4.714-34,4.714s-34.025-2.117-34.025-4.714c0-2.617,15.243-4.709,34.025-4.709S454.2,396.939,454.2,399.556Z"/></g></g></g></svg>